%TF.GenerationSoftware,KiCad,Pcbnew,10.0.5*%
%TF.CreationDate,2026-10-04T23:52:25+08:00*%
%TF.ProjectId,TTLtoCANforTOF,54544c74-6f43-4414-9e66-6f72544f462e,rev?*%
%TF.SameCoordinates,Original*%
%TF.FileFunction,Legend,Top*%
%TF.FilePolarity,Positive*%
%FSLAX46Y46*%
G04 Gerber Fmt 4.6, Leading zero omitted, Abs format (unit mm)*
G04 Created by KiCad (PCBNEW 10.0.5) date 2026-10-04 23:52:25*
%MOMM*%
%LPD*%
G01*
G04 APERTURE LIST*
%ADD10C,0.080000*%
%ADD11C,0.150000*%
%ADD12C,0.120000*%
G04 APERTURE END LIST*
D10*
X163379762Y-68902149D02*
X163141667Y-68902149D01*
X163141667Y-68902149D02*
X163117858Y-69140244D01*
X163117858Y-69140244D02*
X163141667Y-69116435D01*
X163141667Y-69116435D02*
X163189286Y-69092625D01*
X163189286Y-69092625D02*
X163308334Y-69092625D01*
X163308334Y-69092625D02*
X163355953Y-69116435D01*
X163355953Y-69116435D02*
X163379762Y-69140244D01*
X163379762Y-69140244D02*
X163403572Y-69187863D01*
X163403572Y-69187863D02*
X163403572Y-69306911D01*
X163403572Y-69306911D02*
X163379762Y-69354530D01*
X163379762Y-69354530D02*
X163355953Y-69378340D01*
X163355953Y-69378340D02*
X163308334Y-69402149D01*
X163308334Y-69402149D02*
X163189286Y-69402149D01*
X163189286Y-69402149D02*
X163141667Y-69378340D01*
X163141667Y-69378340D02*
X163117858Y-69354530D01*
X163546429Y-68902149D02*
X163713095Y-69402149D01*
X163713095Y-69402149D02*
X163879762Y-68902149D01*
X162794047Y-69925959D02*
X162746428Y-69902149D01*
X162746428Y-69902149D02*
X162674999Y-69902149D01*
X162674999Y-69902149D02*
X162603571Y-69925959D01*
X162603571Y-69925959D02*
X162555952Y-69973578D01*
X162555952Y-69973578D02*
X162532142Y-70021197D01*
X162532142Y-70021197D02*
X162508333Y-70116435D01*
X162508333Y-70116435D02*
X162508333Y-70187863D01*
X162508333Y-70187863D02*
X162532142Y-70283101D01*
X162532142Y-70283101D02*
X162555952Y-70330720D01*
X162555952Y-70330720D02*
X162603571Y-70378340D01*
X162603571Y-70378340D02*
X162674999Y-70402149D01*
X162674999Y-70402149D02*
X162722618Y-70402149D01*
X162722618Y-70402149D02*
X162794047Y-70378340D01*
X162794047Y-70378340D02*
X162817856Y-70354530D01*
X162817856Y-70354530D02*
X162817856Y-70187863D01*
X162817856Y-70187863D02*
X162722618Y-70187863D01*
X163032142Y-70402149D02*
X163032142Y-69902149D01*
X163032142Y-69902149D02*
X163317856Y-70402149D01*
X163317856Y-70402149D02*
X163317856Y-69902149D01*
X163555952Y-70402149D02*
X163555952Y-69902149D01*
X163555952Y-69902149D02*
X163675000Y-69902149D01*
X163675000Y-69902149D02*
X163746428Y-69925959D01*
X163746428Y-69925959D02*
X163794047Y-69973578D01*
X163794047Y-69973578D02*
X163817857Y-70021197D01*
X163817857Y-70021197D02*
X163841666Y-70116435D01*
X163841666Y-70116435D02*
X163841666Y-70187863D01*
X163841666Y-70187863D02*
X163817857Y-70283101D01*
X163817857Y-70283101D02*
X163794047Y-70330720D01*
X163794047Y-70330720D02*
X163746428Y-70378340D01*
X163746428Y-70378340D02*
X163675000Y-70402149D01*
X163675000Y-70402149D02*
X163555952Y-70402149D01*
X163291666Y-71802149D02*
X163125000Y-71564054D01*
X163005952Y-71802149D02*
X163005952Y-71302149D01*
X163005952Y-71302149D02*
X163196428Y-71302149D01*
X163196428Y-71302149D02*
X163244047Y-71325959D01*
X163244047Y-71325959D02*
X163267857Y-71349768D01*
X163267857Y-71349768D02*
X163291666Y-71397387D01*
X163291666Y-71397387D02*
X163291666Y-71468816D01*
X163291666Y-71468816D02*
X163267857Y-71516435D01*
X163267857Y-71516435D02*
X163244047Y-71540244D01*
X163244047Y-71540244D02*
X163196428Y-71564054D01*
X163196428Y-71564054D02*
X163005952Y-71564054D01*
X163458333Y-71302149D02*
X163791666Y-71802149D01*
X163791666Y-71302149D02*
X163458333Y-71802149D01*
X163069048Y-72327149D02*
X163354762Y-72327149D01*
X163211905Y-72827149D02*
X163211905Y-72327149D01*
X163473809Y-72327149D02*
X163807142Y-72827149D01*
X163807142Y-72327149D02*
X163473809Y-72827149D01*
D11*
X176004761Y-74825057D02*
X175909523Y-74777438D01*
X175909523Y-74777438D02*
X175814285Y-74682200D01*
X175814285Y-74682200D02*
X175671428Y-74539342D01*
X175671428Y-74539342D02*
X175576190Y-74491723D01*
X175576190Y-74491723D02*
X175480952Y-74491723D01*
X175528571Y-74729819D02*
X175433333Y-74682200D01*
X175433333Y-74682200D02*
X175338095Y-74586961D01*
X175338095Y-74586961D02*
X175290476Y-74396485D01*
X175290476Y-74396485D02*
X175290476Y-74063152D01*
X175290476Y-74063152D02*
X175338095Y-73872676D01*
X175338095Y-73872676D02*
X175433333Y-73777438D01*
X175433333Y-73777438D02*
X175528571Y-73729819D01*
X175528571Y-73729819D02*
X175719047Y-73729819D01*
X175719047Y-73729819D02*
X175814285Y-73777438D01*
X175814285Y-73777438D02*
X175909523Y-73872676D01*
X175909523Y-73872676D02*
X175957142Y-74063152D01*
X175957142Y-74063152D02*
X175957142Y-74396485D01*
X175957142Y-74396485D02*
X175909523Y-74586961D01*
X175909523Y-74586961D02*
X175814285Y-74682200D01*
X175814285Y-74682200D02*
X175719047Y-74729819D01*
X175719047Y-74729819D02*
X175528571Y-74729819D01*
X176338095Y-73825057D02*
X176385714Y-73777438D01*
X176385714Y-73777438D02*
X176480952Y-73729819D01*
X176480952Y-73729819D02*
X176719047Y-73729819D01*
X176719047Y-73729819D02*
X176814285Y-73777438D01*
X176814285Y-73777438D02*
X176861904Y-73825057D01*
X176861904Y-73825057D02*
X176909523Y-73920295D01*
X176909523Y-73920295D02*
X176909523Y-74015533D01*
X176909523Y-74015533D02*
X176861904Y-74158390D01*
X176861904Y-74158390D02*
X176290476Y-74729819D01*
X176290476Y-74729819D02*
X176909523Y-74729819D01*
X175729819Y-68491666D02*
X175253628Y-68824999D01*
X175729819Y-69063094D02*
X174729819Y-69063094D01*
X174729819Y-69063094D02*
X174729819Y-68682142D01*
X174729819Y-68682142D02*
X174777438Y-68586904D01*
X174777438Y-68586904D02*
X174825057Y-68539285D01*
X174825057Y-68539285D02*
X174920295Y-68491666D01*
X174920295Y-68491666D02*
X175063152Y-68491666D01*
X175063152Y-68491666D02*
X175158390Y-68539285D01*
X175158390Y-68539285D02*
X175206009Y-68586904D01*
X175206009Y-68586904D02*
X175253628Y-68682142D01*
X175253628Y-68682142D02*
X175253628Y-69063094D01*
X175729819Y-68015475D02*
X175729819Y-67824999D01*
X175729819Y-67824999D02*
X175682200Y-67729761D01*
X175682200Y-67729761D02*
X175634580Y-67682142D01*
X175634580Y-67682142D02*
X175491723Y-67586904D01*
X175491723Y-67586904D02*
X175301247Y-67539285D01*
X175301247Y-67539285D02*
X174920295Y-67539285D01*
X174920295Y-67539285D02*
X174825057Y-67586904D01*
X174825057Y-67586904D02*
X174777438Y-67634523D01*
X174777438Y-67634523D02*
X174729819Y-67729761D01*
X174729819Y-67729761D02*
X174729819Y-67920237D01*
X174729819Y-67920237D02*
X174777438Y-68015475D01*
X174777438Y-68015475D02*
X174825057Y-68063094D01*
X174825057Y-68063094D02*
X174920295Y-68110713D01*
X174920295Y-68110713D02*
X175158390Y-68110713D01*
X175158390Y-68110713D02*
X175253628Y-68063094D01*
X175253628Y-68063094D02*
X175301247Y-68015475D01*
X175301247Y-68015475D02*
X175348866Y-67920237D01*
X175348866Y-67920237D02*
X175348866Y-67729761D01*
X175348866Y-67729761D02*
X175301247Y-67634523D01*
X175301247Y-67634523D02*
X175253628Y-67586904D01*
X175253628Y-67586904D02*
X175158390Y-67539285D01*
X174511905Y-71479819D02*
X174511905Y-70479819D01*
X174511905Y-70479819D02*
X174750000Y-70479819D01*
X174750000Y-70479819D02*
X174892857Y-70527438D01*
X174892857Y-70527438D02*
X174988095Y-70622676D01*
X174988095Y-70622676D02*
X175035714Y-70717914D01*
X175035714Y-70717914D02*
X175083333Y-70908390D01*
X175083333Y-70908390D02*
X175083333Y-71051247D01*
X175083333Y-71051247D02*
X175035714Y-71241723D01*
X175035714Y-71241723D02*
X174988095Y-71336961D01*
X174988095Y-71336961D02*
X174892857Y-71432200D01*
X174892857Y-71432200D02*
X174750000Y-71479819D01*
X174750000Y-71479819D02*
X174511905Y-71479819D01*
X175416667Y-70479819D02*
X176035714Y-70479819D01*
X176035714Y-70479819D02*
X175702381Y-70860771D01*
X175702381Y-70860771D02*
X175845238Y-70860771D01*
X175845238Y-70860771D02*
X175940476Y-70908390D01*
X175940476Y-70908390D02*
X175988095Y-70956009D01*
X175988095Y-70956009D02*
X176035714Y-71051247D01*
X176035714Y-71051247D02*
X176035714Y-71289342D01*
X176035714Y-71289342D02*
X175988095Y-71384580D01*
X175988095Y-71384580D02*
X175940476Y-71432200D01*
X175940476Y-71432200D02*
X175845238Y-71479819D01*
X175845238Y-71479819D02*
X175559524Y-71479819D01*
X175559524Y-71479819D02*
X175464286Y-71432200D01*
X175464286Y-71432200D02*
X175416667Y-71384580D01*
X177354819Y-68466666D02*
X176878628Y-68799999D01*
X177354819Y-69038094D02*
X176354819Y-69038094D01*
X176354819Y-69038094D02*
X176354819Y-68657142D01*
X176354819Y-68657142D02*
X176402438Y-68561904D01*
X176402438Y-68561904D02*
X176450057Y-68514285D01*
X176450057Y-68514285D02*
X176545295Y-68466666D01*
X176545295Y-68466666D02*
X176688152Y-68466666D01*
X176688152Y-68466666D02*
X176783390Y-68514285D01*
X176783390Y-68514285D02*
X176831009Y-68561904D01*
X176831009Y-68561904D02*
X176878628Y-68657142D01*
X176878628Y-68657142D02*
X176878628Y-69038094D01*
X176783390Y-67895237D02*
X176735771Y-67990475D01*
X176735771Y-67990475D02*
X176688152Y-68038094D01*
X176688152Y-68038094D02*
X176592914Y-68085713D01*
X176592914Y-68085713D02*
X176545295Y-68085713D01*
X176545295Y-68085713D02*
X176450057Y-68038094D01*
X176450057Y-68038094D02*
X176402438Y-67990475D01*
X176402438Y-67990475D02*
X176354819Y-67895237D01*
X176354819Y-67895237D02*
X176354819Y-67704761D01*
X176354819Y-67704761D02*
X176402438Y-67609523D01*
X176402438Y-67609523D02*
X176450057Y-67561904D01*
X176450057Y-67561904D02*
X176545295Y-67514285D01*
X176545295Y-67514285D02*
X176592914Y-67514285D01*
X176592914Y-67514285D02*
X176688152Y-67561904D01*
X176688152Y-67561904D02*
X176735771Y-67609523D01*
X176735771Y-67609523D02*
X176783390Y-67704761D01*
X176783390Y-67704761D02*
X176783390Y-67895237D01*
X176783390Y-67895237D02*
X176831009Y-67990475D01*
X176831009Y-67990475D02*
X176878628Y-68038094D01*
X176878628Y-68038094D02*
X176973866Y-68085713D01*
X176973866Y-68085713D02*
X177164342Y-68085713D01*
X177164342Y-68085713D02*
X177259580Y-68038094D01*
X177259580Y-68038094D02*
X177307200Y-67990475D01*
X177307200Y-67990475D02*
X177354819Y-67895237D01*
X177354819Y-67895237D02*
X177354819Y-67704761D01*
X177354819Y-67704761D02*
X177307200Y-67609523D01*
X177307200Y-67609523D02*
X177259580Y-67561904D01*
X177259580Y-67561904D02*
X177164342Y-67514285D01*
X177164342Y-67514285D02*
X176973866Y-67514285D01*
X176973866Y-67514285D02*
X176878628Y-67561904D01*
X176878628Y-67561904D02*
X176831009Y-67609523D01*
X176831009Y-67609523D02*
X176783390Y-67704761D01*
X153997087Y-66318332D02*
X153520897Y-66318332D01*
X153520897Y-66318332D02*
X153520897Y-65318332D01*
X154854230Y-66318332D02*
X154282802Y-66318332D01*
X154568516Y-66318332D02*
X154568516Y-65318332D01*
X154568516Y-65318332D02*
X154473278Y-65461189D01*
X154473278Y-65461189D02*
X154378040Y-65556427D01*
X154378040Y-65556427D02*
X154282802Y-65604046D01*
%TO.C,J3*%
D12*
X169060000Y-75310000D02*
X169060000Y-73510000D01*
X169060000Y-73510000D02*
X170000000Y-73510000D01*
X169060000Y-66840000D02*
X169060000Y-68640000D01*
X167460000Y-75310000D02*
X169060000Y-75310000D01*
X167460000Y-66840000D02*
X169060000Y-66840000D01*
X164590000Y-74040000D02*
X164590000Y-68110000D01*
%TO.C,R4*%
X163461254Y-62051255D02*
X163461254Y-62525771D01*
X162416254Y-62051255D02*
X162416254Y-62525771D01*
%TO.C,C7*%
X165023754Y-62147933D02*
X165023754Y-62429093D01*
X164003754Y-62147933D02*
X164003754Y-62429093D01*
%TO.C,C1*%
X158348754Y-64397933D02*
X158348754Y-64679093D01*
X157328754Y-64397933D02*
X157328754Y-64679093D01*
%TO.C,R3*%
X156836690Y-62648513D02*
X157290818Y-62648513D01*
X156836690Y-61178513D02*
X157290818Y-61178513D01*
%TO.C,U1*%
X158866254Y-66038513D02*
X158536254Y-66278513D01*
X158536254Y-65798513D01*
X158866254Y-66038513D01*
G36*
X158866254Y-66038513D02*
G01*
X158536254Y-66278513D01*
X158536254Y-65798513D01*
X158866254Y-66038513D01*
G37*
X161936254Y-65498513D02*
X161886254Y-65498513D01*
X161936254Y-63678513D02*
X161936254Y-65498513D01*
X161886254Y-63678513D02*
X161936254Y-63678513D01*
X158866254Y-65498513D02*
X158816254Y-65498513D01*
X158816254Y-65498513D02*
X158816254Y-63678513D01*
X158816254Y-63678513D02*
X158866254Y-63678513D01*
%TO.C,R1*%
X163412791Y-65565995D02*
X163412791Y-65091479D01*
X162367791Y-65565995D02*
X162367791Y-65091479D01*
%TO.C,R2*%
X165053033Y-65126237D02*
X165527549Y-65126237D01*
X165053033Y-64081237D02*
X165527549Y-64081237D01*
%TO.C,C15*%
X173634420Y-65465000D02*
X173915580Y-65465000D01*
X173634420Y-66485000D02*
X173915580Y-66485000D01*
%TO.C,Q2*%
X174540000Y-73515000D02*
X174590000Y-73515000D01*
X174540000Y-75035000D02*
X174540000Y-73515000D01*
X175540000Y-75035000D02*
X174540000Y-75035000D01*
X175710000Y-73515000D02*
X176490000Y-73515000D01*
X177610000Y-73515000D02*
X177660000Y-73515000D01*
X177660000Y-73515000D02*
X177660000Y-75035000D01*
X177660000Y-75035000D02*
X176660000Y-75035000D01*
X176480000Y-72975000D02*
X176150000Y-73215000D01*
X176150000Y-72735000D01*
X176480000Y-72975000D01*
G36*
X176480000Y-72975000D02*
G01*
X176150000Y-73215000D01*
X176150000Y-72735000D01*
X176480000Y-72975000D01*
G37*
%TO.C,R9*%
X174752500Y-68562258D02*
X174752500Y-68087742D01*
X175797500Y-68562258D02*
X175797500Y-68087742D01*
%TO.C,C20*%
X154674711Y-73343737D02*
X154955871Y-73343737D01*
X154674711Y-74363737D02*
X154955871Y-74363737D01*
%TO.C,D3*%
X172890000Y-70025000D02*
X172890000Y-72025000D01*
X172890000Y-70025000D02*
X176900000Y-70025000D01*
X172890000Y-72025000D02*
X176900000Y-72025000D01*
%TO.C,C13*%
X167890000Y-64040580D02*
X167890000Y-63759420D01*
X168910000Y-64040580D02*
X168910000Y-63759420D01*
%TO.C,C2*%
X173040000Y-68159420D02*
X173040000Y-68440580D01*
X174060000Y-68159420D02*
X174060000Y-68440580D01*
%TO.C,R8*%
X176377500Y-68062742D02*
X176377500Y-68537258D01*
X177422500Y-68062742D02*
X177422500Y-68537258D01*
%TO.C,C6*%
X154379039Y-69068737D02*
X154901543Y-69068737D01*
X154379039Y-70538737D02*
X154901543Y-70538737D01*
%TO.C,C14*%
X170940000Y-65740580D02*
X170940000Y-65459420D01*
X171960000Y-65740580D02*
X171960000Y-65459420D01*
%TO.C,R5*%
X165566254Y-62051255D02*
X165566254Y-62525771D01*
X166611254Y-62051255D02*
X166611254Y-62525771D01*
%TO.C,L1*%
X151553754Y-63253513D02*
X156773754Y-63253513D01*
X151553754Y-63503513D02*
X151553754Y-63253513D01*
X151553754Y-68473513D02*
X151553754Y-68223513D01*
X156773754Y-63253513D02*
X156773754Y-63503513D01*
X156773754Y-68223513D02*
X156773754Y-68473513D01*
X156773754Y-68473513D02*
X151553754Y-68473513D01*
%TO.C,C4*%
X157330291Y-70014989D02*
X157330291Y-68592485D01*
X160050291Y-70014989D02*
X160050291Y-68592485D01*
%TO.C,C8*%
X154379039Y-71193737D02*
X154901543Y-71193737D01*
X154379039Y-72663737D02*
X154901543Y-72663737D01*
%TO.C,C3*%
X160755291Y-69989989D02*
X160755291Y-68567485D01*
X163475291Y-69989989D02*
X163475291Y-68567485D01*
%TD*%
M02*
