%TF.GenerationSoftware,KiCad,Pcbnew,10.0.5*%
%TF.CreationDate,2026-10-03T22:29:29+08:00*%
%TF.ProjectId,TTLtoCANforTOF,54544c74-6f43-4414-9e66-6f72544f462e,rev?*%
%TF.SameCoordinates,Original*%
%TF.FileFunction,AssemblyDrawing,Bot*%
%FSLAX46Y46*%
G04 Gerber Fmt 4.6, Leading zero omitted, Abs format (unit mm)*
G04 Created by KiCad (PCBNEW 10.0.5) date 2026-10-03 22:29:29*
%MOMM*%
%LPD*%
G01*
G04 APERTURE LIST*
%ADD10C,0.150000*%
%ADD11C,0.060000*%
%ADD12C,0.080000*%
%ADD13C,0.120000*%
%ADD14C,0.110000*%
%ADD15C,0.100000*%
G04 APERTURE END LIST*
D10*
X151898819Y-73891646D02*
X152613104Y-73891646D01*
X152613104Y-73891646D02*
X152755961Y-73844027D01*
X152755961Y-73844027D02*
X152851200Y-73748789D01*
X152851200Y-73748789D02*
X152898819Y-73605932D01*
X152898819Y-73605932D02*
X152898819Y-73510694D01*
X151898819Y-74796408D02*
X151898819Y-74605932D01*
X151898819Y-74605932D02*
X151946438Y-74510694D01*
X151946438Y-74510694D02*
X151994057Y-74463075D01*
X151994057Y-74463075D02*
X152136914Y-74367837D01*
X152136914Y-74367837D02*
X152327390Y-74320218D01*
X152327390Y-74320218D02*
X152708342Y-74320218D01*
X152708342Y-74320218D02*
X152803580Y-74367837D01*
X152803580Y-74367837D02*
X152851200Y-74415456D01*
X152851200Y-74415456D02*
X152898819Y-74510694D01*
X152898819Y-74510694D02*
X152898819Y-74701170D01*
X152898819Y-74701170D02*
X152851200Y-74796408D01*
X152851200Y-74796408D02*
X152803580Y-74844027D01*
X152803580Y-74844027D02*
X152708342Y-74891646D01*
X152708342Y-74891646D02*
X152470247Y-74891646D01*
X152470247Y-74891646D02*
X152375009Y-74844027D01*
X152375009Y-74844027D02*
X152327390Y-74796408D01*
X152327390Y-74796408D02*
X152279771Y-74701170D01*
X152279771Y-74701170D02*
X152279771Y-74510694D01*
X152279771Y-74510694D02*
X152327390Y-74415456D01*
X152327390Y-74415456D02*
X152375009Y-74367837D01*
X152375009Y-74367837D02*
X152470247Y-74320218D01*
D11*
X165681927Y-72433333D02*
X165491451Y-72300000D01*
X165681927Y-72204762D02*
X165281927Y-72204762D01*
X165281927Y-72204762D02*
X165281927Y-72357143D01*
X165281927Y-72357143D02*
X165300975Y-72395238D01*
X165300975Y-72395238D02*
X165320022Y-72414285D01*
X165320022Y-72414285D02*
X165358118Y-72433333D01*
X165358118Y-72433333D02*
X165415260Y-72433333D01*
X165415260Y-72433333D02*
X165453356Y-72414285D01*
X165453356Y-72414285D02*
X165472403Y-72395238D01*
X165472403Y-72395238D02*
X165491451Y-72357143D01*
X165491451Y-72357143D02*
X165491451Y-72204762D01*
X165281927Y-72566666D02*
X165281927Y-72833333D01*
X165281927Y-72833333D02*
X165681927Y-72661904D01*
X163718832Y-68605357D02*
X163737880Y-68586309D01*
X163737880Y-68586309D02*
X163756927Y-68529167D01*
X163756927Y-68529167D02*
X163756927Y-68491071D01*
X163756927Y-68491071D02*
X163737880Y-68433928D01*
X163737880Y-68433928D02*
X163699784Y-68395833D01*
X163699784Y-68395833D02*
X163661689Y-68376786D01*
X163661689Y-68376786D02*
X163585499Y-68357738D01*
X163585499Y-68357738D02*
X163528356Y-68357738D01*
X163528356Y-68357738D02*
X163452165Y-68376786D01*
X163452165Y-68376786D02*
X163414070Y-68395833D01*
X163414070Y-68395833D02*
X163375975Y-68433928D01*
X163375975Y-68433928D02*
X163356927Y-68491071D01*
X163356927Y-68491071D02*
X163356927Y-68529167D01*
X163356927Y-68529167D02*
X163375975Y-68586309D01*
X163375975Y-68586309D02*
X163395022Y-68605357D01*
X163756927Y-68986309D02*
X163756927Y-68757738D01*
X163756927Y-68872024D02*
X163356927Y-68872024D01*
X163356927Y-68872024D02*
X163414070Y-68833928D01*
X163414070Y-68833928D02*
X163452165Y-68795833D01*
X163452165Y-68795833D02*
X163471213Y-68757738D01*
X163395022Y-69138690D02*
X163375975Y-69157738D01*
X163375975Y-69157738D02*
X163356927Y-69195833D01*
X163356927Y-69195833D02*
X163356927Y-69291071D01*
X163356927Y-69291071D02*
X163375975Y-69329166D01*
X163375975Y-69329166D02*
X163395022Y-69348214D01*
X163395022Y-69348214D02*
X163433118Y-69367261D01*
X163433118Y-69367261D02*
X163471213Y-69367261D01*
X163471213Y-69367261D02*
X163528356Y-69348214D01*
X163528356Y-69348214D02*
X163756927Y-69119642D01*
X163756927Y-69119642D02*
X163756927Y-69367261D01*
X168776332Y-62967856D02*
X168795380Y-62948808D01*
X168795380Y-62948808D02*
X168814427Y-62891666D01*
X168814427Y-62891666D02*
X168814427Y-62853570D01*
X168814427Y-62853570D02*
X168795380Y-62796427D01*
X168795380Y-62796427D02*
X168757284Y-62758332D01*
X168757284Y-62758332D02*
X168719189Y-62739285D01*
X168719189Y-62739285D02*
X168642999Y-62720237D01*
X168642999Y-62720237D02*
X168585856Y-62720237D01*
X168585856Y-62720237D02*
X168509665Y-62739285D01*
X168509665Y-62739285D02*
X168471570Y-62758332D01*
X168471570Y-62758332D02*
X168433475Y-62796427D01*
X168433475Y-62796427D02*
X168414427Y-62853570D01*
X168414427Y-62853570D02*
X168414427Y-62891666D01*
X168414427Y-62891666D02*
X168433475Y-62948808D01*
X168433475Y-62948808D02*
X168452522Y-62967856D01*
X168814427Y-63348808D02*
X168814427Y-63120237D01*
X168814427Y-63234523D02*
X168414427Y-63234523D01*
X168414427Y-63234523D02*
X168471570Y-63196427D01*
X168471570Y-63196427D02*
X168509665Y-63158332D01*
X168509665Y-63158332D02*
X168528713Y-63120237D01*
X168814427Y-63539284D02*
X168814427Y-63615475D01*
X168814427Y-63615475D02*
X168795380Y-63653570D01*
X168795380Y-63653570D02*
X168776332Y-63672618D01*
X168776332Y-63672618D02*
X168719189Y-63710713D01*
X168719189Y-63710713D02*
X168642999Y-63729760D01*
X168642999Y-63729760D02*
X168490618Y-63729760D01*
X168490618Y-63729760D02*
X168452522Y-63710713D01*
X168452522Y-63710713D02*
X168433475Y-63691665D01*
X168433475Y-63691665D02*
X168414427Y-63653570D01*
X168414427Y-63653570D02*
X168414427Y-63577379D01*
X168414427Y-63577379D02*
X168433475Y-63539284D01*
X168433475Y-63539284D02*
X168452522Y-63520237D01*
X168452522Y-63520237D02*
X168490618Y-63501189D01*
X168490618Y-63501189D02*
X168585856Y-63501189D01*
X168585856Y-63501189D02*
X168623951Y-63520237D01*
X168623951Y-63520237D02*
X168642999Y-63539284D01*
X168642999Y-63539284D02*
X168662046Y-63577379D01*
X168662046Y-63577379D02*
X168662046Y-63653570D01*
X168662046Y-63653570D02*
X168642999Y-63691665D01*
X168642999Y-63691665D02*
X168623951Y-63710713D01*
X168623951Y-63710713D02*
X168585856Y-63729760D01*
X170968832Y-63105357D02*
X170987880Y-63086309D01*
X170987880Y-63086309D02*
X171006927Y-63029167D01*
X171006927Y-63029167D02*
X171006927Y-62991071D01*
X171006927Y-62991071D02*
X170987880Y-62933928D01*
X170987880Y-62933928D02*
X170949784Y-62895833D01*
X170949784Y-62895833D02*
X170911689Y-62876786D01*
X170911689Y-62876786D02*
X170835499Y-62857738D01*
X170835499Y-62857738D02*
X170778356Y-62857738D01*
X170778356Y-62857738D02*
X170702165Y-62876786D01*
X170702165Y-62876786D02*
X170664070Y-62895833D01*
X170664070Y-62895833D02*
X170625975Y-62933928D01*
X170625975Y-62933928D02*
X170606927Y-62991071D01*
X170606927Y-62991071D02*
X170606927Y-63029167D01*
X170606927Y-63029167D02*
X170625975Y-63086309D01*
X170625975Y-63086309D02*
X170645022Y-63105357D01*
X171006927Y-63486309D02*
X171006927Y-63257738D01*
X171006927Y-63372024D02*
X170606927Y-63372024D01*
X170606927Y-63372024D02*
X170664070Y-63333928D01*
X170664070Y-63333928D02*
X170702165Y-63295833D01*
X170702165Y-63295833D02*
X170721213Y-63257738D01*
X170606927Y-63829166D02*
X170606927Y-63752976D01*
X170606927Y-63752976D02*
X170625975Y-63714880D01*
X170625975Y-63714880D02*
X170645022Y-63695833D01*
X170645022Y-63695833D02*
X170702165Y-63657738D01*
X170702165Y-63657738D02*
X170778356Y-63638690D01*
X170778356Y-63638690D02*
X170930737Y-63638690D01*
X170930737Y-63638690D02*
X170968832Y-63657738D01*
X170968832Y-63657738D02*
X170987880Y-63676785D01*
X170987880Y-63676785D02*
X171006927Y-63714880D01*
X171006927Y-63714880D02*
X171006927Y-63791071D01*
X171006927Y-63791071D02*
X170987880Y-63829166D01*
X170987880Y-63829166D02*
X170968832Y-63848214D01*
X170968832Y-63848214D02*
X170930737Y-63867261D01*
X170930737Y-63867261D02*
X170835499Y-63867261D01*
X170835499Y-63867261D02*
X170797403Y-63848214D01*
X170797403Y-63848214D02*
X170778356Y-63829166D01*
X170778356Y-63829166D02*
X170759308Y-63791071D01*
X170759308Y-63791071D02*
X170759308Y-63714880D01*
X170759308Y-63714880D02*
X170778356Y-63676785D01*
X170778356Y-63676785D02*
X170797403Y-63657738D01*
X170797403Y-63657738D02*
X170835499Y-63638690D01*
X178831927Y-67708333D02*
X178641451Y-67575000D01*
X178831927Y-67479762D02*
X178431927Y-67479762D01*
X178431927Y-67479762D02*
X178431927Y-67632143D01*
X178431927Y-67632143D02*
X178450975Y-67670238D01*
X178450975Y-67670238D02*
X178470022Y-67689285D01*
X178470022Y-67689285D02*
X178508118Y-67708333D01*
X178508118Y-67708333D02*
X178565260Y-67708333D01*
X178565260Y-67708333D02*
X178603356Y-67689285D01*
X178603356Y-67689285D02*
X178622403Y-67670238D01*
X178622403Y-67670238D02*
X178641451Y-67632143D01*
X178641451Y-67632143D02*
X178641451Y-67479762D01*
X178431927Y-68051190D02*
X178431927Y-67975000D01*
X178431927Y-67975000D02*
X178450975Y-67936904D01*
X178450975Y-67936904D02*
X178470022Y-67917857D01*
X178470022Y-67917857D02*
X178527165Y-67879762D01*
X178527165Y-67879762D02*
X178603356Y-67860714D01*
X178603356Y-67860714D02*
X178755737Y-67860714D01*
X178755737Y-67860714D02*
X178793832Y-67879762D01*
X178793832Y-67879762D02*
X178812880Y-67898809D01*
X178812880Y-67898809D02*
X178831927Y-67936904D01*
X178831927Y-67936904D02*
X178831927Y-68013095D01*
X178831927Y-68013095D02*
X178812880Y-68051190D01*
X178812880Y-68051190D02*
X178793832Y-68070238D01*
X178793832Y-68070238D02*
X178755737Y-68089285D01*
X178755737Y-68089285D02*
X178660499Y-68089285D01*
X178660499Y-68089285D02*
X178622403Y-68070238D01*
X178622403Y-68070238D02*
X178603356Y-68051190D01*
X178603356Y-68051190D02*
X178584308Y-68013095D01*
X178584308Y-68013095D02*
X178584308Y-67936904D01*
X178584308Y-67936904D02*
X178603356Y-67898809D01*
X178603356Y-67898809D02*
X178622403Y-67879762D01*
X178622403Y-67879762D02*
X178660499Y-67860714D01*
D10*
X161879818Y-63603095D02*
X162689341Y-63603095D01*
X162689341Y-63603095D02*
X162784579Y-63650714D01*
X162784579Y-63650714D02*
X162832199Y-63698333D01*
X162832199Y-63698333D02*
X162879818Y-63793571D01*
X162879818Y-63793571D02*
X162879818Y-63984047D01*
X162879818Y-63984047D02*
X162832199Y-64079285D01*
X162832199Y-64079285D02*
X162784579Y-64126904D01*
X162784579Y-64126904D02*
X162689341Y-64174523D01*
X162689341Y-64174523D02*
X161879818Y-64174523D01*
X161879818Y-65079285D02*
X161879818Y-64888809D01*
X161879818Y-64888809D02*
X161927437Y-64793571D01*
X161927437Y-64793571D02*
X161975056Y-64745952D01*
X161975056Y-64745952D02*
X162117913Y-64650714D01*
X162117913Y-64650714D02*
X162308389Y-64603095D01*
X162308389Y-64603095D02*
X162689341Y-64603095D01*
X162689341Y-64603095D02*
X162784579Y-64650714D01*
X162784579Y-64650714D02*
X162832199Y-64698333D01*
X162832199Y-64698333D02*
X162879818Y-64793571D01*
X162879818Y-64793571D02*
X162879818Y-64984047D01*
X162879818Y-64984047D02*
X162832199Y-65079285D01*
X162832199Y-65079285D02*
X162784579Y-65126904D01*
X162784579Y-65126904D02*
X162689341Y-65174523D01*
X162689341Y-65174523D02*
X162451246Y-65174523D01*
X162451246Y-65174523D02*
X162356008Y-65126904D01*
X162356008Y-65126904D02*
X162308389Y-65079285D01*
X162308389Y-65079285D02*
X162260770Y-64984047D01*
X162260770Y-64984047D02*
X162260770Y-64793571D01*
X162260770Y-64793571D02*
X162308389Y-64698333D01*
X162308389Y-64698333D02*
X162356008Y-64650714D01*
X162356008Y-64650714D02*
X162451246Y-64603095D01*
D12*
X165679530Y-68853571D02*
X165703340Y-68829762D01*
X165703340Y-68829762D02*
X165727149Y-68758333D01*
X165727149Y-68758333D02*
X165727149Y-68710714D01*
X165727149Y-68710714D02*
X165703340Y-68639286D01*
X165703340Y-68639286D02*
X165655720Y-68591667D01*
X165655720Y-68591667D02*
X165608101Y-68567857D01*
X165608101Y-68567857D02*
X165512863Y-68544048D01*
X165512863Y-68544048D02*
X165441435Y-68544048D01*
X165441435Y-68544048D02*
X165346197Y-68567857D01*
X165346197Y-68567857D02*
X165298578Y-68591667D01*
X165298578Y-68591667D02*
X165250959Y-68639286D01*
X165250959Y-68639286D02*
X165227149Y-68710714D01*
X165227149Y-68710714D02*
X165227149Y-68758333D01*
X165227149Y-68758333D02*
X165250959Y-68829762D01*
X165250959Y-68829762D02*
X165274768Y-68853571D01*
X165727149Y-69329762D02*
X165727149Y-69044048D01*
X165727149Y-69186905D02*
X165227149Y-69186905D01*
X165227149Y-69186905D02*
X165298578Y-69139286D01*
X165298578Y-69139286D02*
X165346197Y-69091667D01*
X165346197Y-69091667D02*
X165370006Y-69044048D01*
X165727149Y-69805952D02*
X165727149Y-69520238D01*
X165727149Y-69663095D02*
X165227149Y-69663095D01*
X165227149Y-69663095D02*
X165298578Y-69615476D01*
X165298578Y-69615476D02*
X165346197Y-69567857D01*
X165346197Y-69567857D02*
X165370006Y-69520238D01*
D10*
X161208333Y-76579819D02*
X161208333Y-77294104D01*
X161208333Y-77294104D02*
X161255952Y-77436961D01*
X161255952Y-77436961D02*
X161351190Y-77532200D01*
X161351190Y-77532200D02*
X161494047Y-77579819D01*
X161494047Y-77579819D02*
X161589285Y-77579819D01*
X160827380Y-76579819D02*
X160208333Y-76579819D01*
X160208333Y-76579819D02*
X160541666Y-76960771D01*
X160541666Y-76960771D02*
X160398809Y-76960771D01*
X160398809Y-76960771D02*
X160303571Y-77008390D01*
X160303571Y-77008390D02*
X160255952Y-77056009D01*
X160255952Y-77056009D02*
X160208333Y-77151247D01*
X160208333Y-77151247D02*
X160208333Y-77389342D01*
X160208333Y-77389342D02*
X160255952Y-77484580D01*
X160255952Y-77484580D02*
X160303571Y-77532200D01*
X160303571Y-77532200D02*
X160398809Y-77579819D01*
X160398809Y-77579819D02*
X160684523Y-77579819D01*
X160684523Y-77579819D02*
X160779761Y-77532200D01*
X160779761Y-77532200D02*
X160827380Y-77484580D01*
D11*
X167093832Y-63917857D02*
X167112880Y-63898809D01*
X167112880Y-63898809D02*
X167131927Y-63841667D01*
X167131927Y-63841667D02*
X167131927Y-63803571D01*
X167131927Y-63803571D02*
X167112880Y-63746428D01*
X167112880Y-63746428D02*
X167074784Y-63708333D01*
X167074784Y-63708333D02*
X167036689Y-63689286D01*
X167036689Y-63689286D02*
X166960499Y-63670238D01*
X166960499Y-63670238D02*
X166903356Y-63670238D01*
X166903356Y-63670238D02*
X166827165Y-63689286D01*
X166827165Y-63689286D02*
X166789070Y-63708333D01*
X166789070Y-63708333D02*
X166750975Y-63746428D01*
X166750975Y-63746428D02*
X166731927Y-63803571D01*
X166731927Y-63803571D02*
X166731927Y-63841667D01*
X166731927Y-63841667D02*
X166750975Y-63898809D01*
X166750975Y-63898809D02*
X166770022Y-63917857D01*
X166770022Y-64070238D02*
X166750975Y-64089286D01*
X166750975Y-64089286D02*
X166731927Y-64127381D01*
X166731927Y-64127381D02*
X166731927Y-64222619D01*
X166731927Y-64222619D02*
X166750975Y-64260714D01*
X166750975Y-64260714D02*
X166770022Y-64279762D01*
X166770022Y-64279762D02*
X166808118Y-64298809D01*
X166808118Y-64298809D02*
X166846213Y-64298809D01*
X166846213Y-64298809D02*
X166903356Y-64279762D01*
X166903356Y-64279762D02*
X167131927Y-64051190D01*
X167131927Y-64051190D02*
X167131927Y-64298809D01*
X167131927Y-64679761D02*
X167131927Y-64451190D01*
X167131927Y-64565476D02*
X166731927Y-64565476D01*
X166731927Y-64565476D02*
X166789070Y-64527380D01*
X166789070Y-64527380D02*
X166827165Y-64489285D01*
X166827165Y-64489285D02*
X166846213Y-64451190D01*
D10*
X151678819Y-64031666D02*
X152393104Y-64031666D01*
X152393104Y-64031666D02*
X152535961Y-63984047D01*
X152535961Y-63984047D02*
X152631200Y-63888809D01*
X152631200Y-63888809D02*
X152678819Y-63745952D01*
X152678819Y-63745952D02*
X152678819Y-63650714D01*
X151774057Y-64460238D02*
X151726438Y-64507857D01*
X151726438Y-64507857D02*
X151678819Y-64603095D01*
X151678819Y-64603095D02*
X151678819Y-64841190D01*
X151678819Y-64841190D02*
X151726438Y-64936428D01*
X151726438Y-64936428D02*
X151774057Y-64984047D01*
X151774057Y-64984047D02*
X151869295Y-65031666D01*
X151869295Y-65031666D02*
X151964533Y-65031666D01*
X151964533Y-65031666D02*
X152107390Y-64984047D01*
X152107390Y-64984047D02*
X152678819Y-64412619D01*
X152678819Y-64412619D02*
X152678819Y-65031666D01*
D11*
X177143832Y-62855357D02*
X177162880Y-62836309D01*
X177162880Y-62836309D02*
X177181927Y-62779167D01*
X177181927Y-62779167D02*
X177181927Y-62741071D01*
X177181927Y-62741071D02*
X177162880Y-62683928D01*
X177162880Y-62683928D02*
X177124784Y-62645833D01*
X177124784Y-62645833D02*
X177086689Y-62626786D01*
X177086689Y-62626786D02*
X177010499Y-62607738D01*
X177010499Y-62607738D02*
X176953356Y-62607738D01*
X176953356Y-62607738D02*
X176877165Y-62626786D01*
X176877165Y-62626786D02*
X176839070Y-62645833D01*
X176839070Y-62645833D02*
X176800975Y-62683928D01*
X176800975Y-62683928D02*
X176781927Y-62741071D01*
X176781927Y-62741071D02*
X176781927Y-62779167D01*
X176781927Y-62779167D02*
X176800975Y-62836309D01*
X176800975Y-62836309D02*
X176820022Y-62855357D01*
X177181927Y-63236309D02*
X177181927Y-63007738D01*
X177181927Y-63122024D02*
X176781927Y-63122024D01*
X176781927Y-63122024D02*
X176839070Y-63083928D01*
X176839070Y-63083928D02*
X176877165Y-63045833D01*
X176877165Y-63045833D02*
X176896213Y-63007738D01*
X176781927Y-63369642D02*
X176781927Y-63636309D01*
X176781927Y-63636309D02*
X177181927Y-63464880D01*
X157032142Y-66943832D02*
X157051190Y-66962880D01*
X157051190Y-66962880D02*
X157108332Y-66981927D01*
X157108332Y-66981927D02*
X157146428Y-66981927D01*
X157146428Y-66981927D02*
X157203571Y-66962880D01*
X157203571Y-66962880D02*
X157241666Y-66924784D01*
X157241666Y-66924784D02*
X157260713Y-66886689D01*
X157260713Y-66886689D02*
X157279761Y-66810499D01*
X157279761Y-66810499D02*
X157279761Y-66753356D01*
X157279761Y-66753356D02*
X157260713Y-66677165D01*
X157260713Y-66677165D02*
X157241666Y-66639070D01*
X157241666Y-66639070D02*
X157203571Y-66600975D01*
X157203571Y-66600975D02*
X157146428Y-66581927D01*
X157146428Y-66581927D02*
X157108332Y-66581927D01*
X157108332Y-66581927D02*
X157051190Y-66600975D01*
X157051190Y-66600975D02*
X157032142Y-66620022D01*
X156651190Y-66981927D02*
X156879761Y-66981927D01*
X156765475Y-66981927D02*
X156765475Y-66581927D01*
X156765475Y-66581927D02*
X156803571Y-66639070D01*
X156803571Y-66639070D02*
X156841666Y-66677165D01*
X156841666Y-66677165D02*
X156879761Y-66696213D01*
X156403571Y-66581927D02*
X156365476Y-66581927D01*
X156365476Y-66581927D02*
X156327380Y-66600975D01*
X156327380Y-66600975D02*
X156308333Y-66620022D01*
X156308333Y-66620022D02*
X156289285Y-66658118D01*
X156289285Y-66658118D02*
X156270238Y-66734308D01*
X156270238Y-66734308D02*
X156270238Y-66829546D01*
X156270238Y-66829546D02*
X156289285Y-66905737D01*
X156289285Y-66905737D02*
X156308333Y-66943832D01*
X156308333Y-66943832D02*
X156327380Y-66962880D01*
X156327380Y-66962880D02*
X156365476Y-66981927D01*
X156365476Y-66981927D02*
X156403571Y-66981927D01*
X156403571Y-66981927D02*
X156441666Y-66962880D01*
X156441666Y-66962880D02*
X156460714Y-66943832D01*
X156460714Y-66943832D02*
X156479761Y-66905737D01*
X156479761Y-66905737D02*
X156498809Y-66829546D01*
X156498809Y-66829546D02*
X156498809Y-66734308D01*
X156498809Y-66734308D02*
X156479761Y-66658118D01*
X156479761Y-66658118D02*
X156460714Y-66620022D01*
X156460714Y-66620022D02*
X156441666Y-66600975D01*
X156441666Y-66600975D02*
X156403571Y-66581927D01*
D12*
X156708333Y-70329530D02*
X156732142Y-70353340D01*
X156732142Y-70353340D02*
X156803571Y-70377149D01*
X156803571Y-70377149D02*
X156851190Y-70377149D01*
X156851190Y-70377149D02*
X156922618Y-70353340D01*
X156922618Y-70353340D02*
X156970237Y-70305720D01*
X156970237Y-70305720D02*
X156994047Y-70258101D01*
X156994047Y-70258101D02*
X157017856Y-70162863D01*
X157017856Y-70162863D02*
X157017856Y-70091435D01*
X157017856Y-70091435D02*
X156994047Y-69996197D01*
X156994047Y-69996197D02*
X156970237Y-69948578D01*
X156970237Y-69948578D02*
X156922618Y-69900959D01*
X156922618Y-69900959D02*
X156851190Y-69877149D01*
X156851190Y-69877149D02*
X156803571Y-69877149D01*
X156803571Y-69877149D02*
X156732142Y-69900959D01*
X156732142Y-69900959D02*
X156708333Y-69924768D01*
X156470237Y-70377149D02*
X156374999Y-70377149D01*
X156374999Y-70377149D02*
X156327380Y-70353340D01*
X156327380Y-70353340D02*
X156303571Y-70329530D01*
X156303571Y-70329530D02*
X156255952Y-70258101D01*
X156255952Y-70258101D02*
X156232142Y-70162863D01*
X156232142Y-70162863D02*
X156232142Y-69972387D01*
X156232142Y-69972387D02*
X156255952Y-69924768D01*
X156255952Y-69924768D02*
X156279761Y-69900959D01*
X156279761Y-69900959D02*
X156327380Y-69877149D01*
X156327380Y-69877149D02*
X156422618Y-69877149D01*
X156422618Y-69877149D02*
X156470237Y-69900959D01*
X156470237Y-69900959D02*
X156494047Y-69924768D01*
X156494047Y-69924768D02*
X156517856Y-69972387D01*
X156517856Y-69972387D02*
X156517856Y-70091435D01*
X156517856Y-70091435D02*
X156494047Y-70139054D01*
X156494047Y-70139054D02*
X156470237Y-70162863D01*
X156470237Y-70162863D02*
X156422618Y-70186673D01*
X156422618Y-70186673D02*
X156327380Y-70186673D01*
X156327380Y-70186673D02*
X156279761Y-70162863D01*
X156279761Y-70162863D02*
X156255952Y-70139054D01*
X156255952Y-70139054D02*
X156232142Y-70091435D01*
D10*
X171729819Y-70913095D02*
X172539342Y-70913095D01*
X172539342Y-70913095D02*
X172634580Y-70960714D01*
X172634580Y-70960714D02*
X172682200Y-71008333D01*
X172682200Y-71008333D02*
X172729819Y-71103571D01*
X172729819Y-71103571D02*
X172729819Y-71294047D01*
X172729819Y-71294047D02*
X172682200Y-71389285D01*
X172682200Y-71389285D02*
X172634580Y-71436904D01*
X172634580Y-71436904D02*
X172539342Y-71484523D01*
X172539342Y-71484523D02*
X171729819Y-71484523D01*
X171729819Y-71865476D02*
X171729819Y-72484523D01*
X171729819Y-72484523D02*
X172110771Y-72151190D01*
X172110771Y-72151190D02*
X172110771Y-72294047D01*
X172110771Y-72294047D02*
X172158390Y-72389285D01*
X172158390Y-72389285D02*
X172206009Y-72436904D01*
X172206009Y-72436904D02*
X172301247Y-72484523D01*
X172301247Y-72484523D02*
X172539342Y-72484523D01*
X172539342Y-72484523D02*
X172634580Y-72436904D01*
X172634580Y-72436904D02*
X172682200Y-72389285D01*
X172682200Y-72389285D02*
X172729819Y-72294047D01*
X172729819Y-72294047D02*
X172729819Y-72008333D01*
X172729819Y-72008333D02*
X172682200Y-71913095D01*
X172682200Y-71913095D02*
X172634580Y-71865476D01*
D13*
X174305951Y-63545402D02*
X174305951Y-63926355D01*
X174572618Y-63126355D02*
X174305951Y-63545402D01*
X174305951Y-63545402D02*
X174039285Y-63126355D01*
X173353571Y-63926355D02*
X173810714Y-63926355D01*
X173582142Y-63926355D02*
X173582142Y-63126355D01*
X173582142Y-63126355D02*
X173658333Y-63240640D01*
X173658333Y-63240640D02*
X173734523Y-63316831D01*
X173734523Y-63316831D02*
X173810714Y-63354926D01*
D11*
X181207142Y-67218832D02*
X181226190Y-67237880D01*
X181226190Y-67237880D02*
X181283332Y-67256927D01*
X181283332Y-67256927D02*
X181321428Y-67256927D01*
X181321428Y-67256927D02*
X181378571Y-67237880D01*
X181378571Y-67237880D02*
X181416666Y-67199784D01*
X181416666Y-67199784D02*
X181435713Y-67161689D01*
X181435713Y-67161689D02*
X181454761Y-67085499D01*
X181454761Y-67085499D02*
X181454761Y-67028356D01*
X181454761Y-67028356D02*
X181435713Y-66952165D01*
X181435713Y-66952165D02*
X181416666Y-66914070D01*
X181416666Y-66914070D02*
X181378571Y-66875975D01*
X181378571Y-66875975D02*
X181321428Y-66856927D01*
X181321428Y-66856927D02*
X181283332Y-66856927D01*
X181283332Y-66856927D02*
X181226190Y-66875975D01*
X181226190Y-66875975D02*
X181207142Y-66895022D01*
X180826190Y-67256927D02*
X181054761Y-67256927D01*
X180940475Y-67256927D02*
X180940475Y-66856927D01*
X180940475Y-66856927D02*
X180978571Y-66914070D01*
X180978571Y-66914070D02*
X181016666Y-66952165D01*
X181016666Y-66952165D02*
X181054761Y-66971213D01*
X180597619Y-67028356D02*
X180635714Y-67009308D01*
X180635714Y-67009308D02*
X180654761Y-66990260D01*
X180654761Y-66990260D02*
X180673809Y-66952165D01*
X180673809Y-66952165D02*
X180673809Y-66933118D01*
X180673809Y-66933118D02*
X180654761Y-66895022D01*
X180654761Y-66895022D02*
X180635714Y-66875975D01*
X180635714Y-66875975D02*
X180597619Y-66856927D01*
X180597619Y-66856927D02*
X180521428Y-66856927D01*
X180521428Y-66856927D02*
X180483333Y-66875975D01*
X180483333Y-66875975D02*
X180464285Y-66895022D01*
X180464285Y-66895022D02*
X180445238Y-66933118D01*
X180445238Y-66933118D02*
X180445238Y-66952165D01*
X180445238Y-66952165D02*
X180464285Y-66990260D01*
X180464285Y-66990260D02*
X180483333Y-67009308D01*
X180483333Y-67009308D02*
X180521428Y-67028356D01*
X180521428Y-67028356D02*
X180597619Y-67028356D01*
X180597619Y-67028356D02*
X180635714Y-67047403D01*
X180635714Y-67047403D02*
X180654761Y-67066451D01*
X180654761Y-67066451D02*
X180673809Y-67104546D01*
X180673809Y-67104546D02*
X180673809Y-67180737D01*
X180673809Y-67180737D02*
X180654761Y-67218832D01*
X180654761Y-67218832D02*
X180635714Y-67237880D01*
X180635714Y-67237880D02*
X180597619Y-67256927D01*
X180597619Y-67256927D02*
X180521428Y-67256927D01*
X180521428Y-67256927D02*
X180483333Y-67237880D01*
X180483333Y-67237880D02*
X180464285Y-67218832D01*
X180464285Y-67218832D02*
X180445238Y-67180737D01*
X180445238Y-67180737D02*
X180445238Y-67104546D01*
X180445238Y-67104546D02*
X180464285Y-67066451D01*
X180464285Y-67066451D02*
X180483333Y-67047403D01*
X180483333Y-67047403D02*
X180521428Y-67028356D01*
D14*
X160144865Y-68251428D02*
X160727722Y-68251428D01*
X160727722Y-68251428D02*
X160796294Y-68285714D01*
X160796294Y-68285714D02*
X160830580Y-68320000D01*
X160830580Y-68320000D02*
X160864865Y-68388571D01*
X160864865Y-68388571D02*
X160864865Y-68525714D01*
X160864865Y-68525714D02*
X160830580Y-68594285D01*
X160830580Y-68594285D02*
X160796294Y-68628571D01*
X160796294Y-68628571D02*
X160727722Y-68662857D01*
X160727722Y-68662857D02*
X160144865Y-68662857D01*
X160213437Y-68971428D02*
X160179151Y-69005714D01*
X160179151Y-69005714D02*
X160144865Y-69074286D01*
X160144865Y-69074286D02*
X160144865Y-69245714D01*
X160144865Y-69245714D02*
X160179151Y-69314286D01*
X160179151Y-69314286D02*
X160213437Y-69348571D01*
X160213437Y-69348571D02*
X160282008Y-69382857D01*
X160282008Y-69382857D02*
X160350580Y-69382857D01*
X160350580Y-69382857D02*
X160453437Y-69348571D01*
X160453437Y-69348571D02*
X160864865Y-68937143D01*
X160864865Y-68937143D02*
X160864865Y-69382857D01*
%TO.C,J6*%
D15*
X149624000Y-70379980D02*
X150874000Y-70379980D01*
X149624000Y-78069980D02*
X149624000Y-70379980D01*
X150874000Y-70379980D02*
X150874000Y-70049980D01*
X150874000Y-78069980D02*
X149624000Y-78069980D01*
X150874000Y-78399980D02*
X150874000Y-78069980D01*
X153316893Y-76099980D02*
X154024000Y-75599980D01*
X154024000Y-70049980D02*
X150874000Y-70049980D01*
X154024000Y-76599980D02*
X153316893Y-76099980D01*
X154024000Y-78399980D02*
X150874000Y-78399980D01*
X154024000Y-78399980D02*
X154024000Y-70049980D01*
%TO.C,R7*%
X165087500Y-71700000D02*
X165912500Y-71700000D01*
X165912500Y-73300000D01*
X165087500Y-73300000D01*
X165087500Y-71700000D01*
%TO.C,C12*%
X163150000Y-68050000D02*
X163950000Y-68050000D01*
X163950000Y-69650000D01*
X163150000Y-69650000D01*
X163150000Y-68050000D01*
%TO.C,C19*%
X168232500Y-62424999D02*
X169032500Y-62424999D01*
X169032500Y-64024999D01*
X168232500Y-64024999D01*
X168232500Y-62424999D01*
%TO.C,C16*%
X170425000Y-62562500D02*
X171225000Y-62562500D01*
X171225000Y-64162500D01*
X170425000Y-64162500D01*
X170425000Y-62562500D01*
%TO.C,R6*%
X178212500Y-67025000D02*
X179037500Y-67025000D01*
X179037500Y-68625000D01*
X178212500Y-68625000D01*
X178212500Y-67025000D01*
%TO.C,SW1*%
X179075000Y-62175000D02*
X179075000Y-65175000D01*
X179075000Y-65175000D02*
X181575000Y-65175000D01*
X181575000Y-62175000D02*
X179075000Y-62175000D01*
X181575000Y-65175000D02*
X181575000Y-62175000D01*
X181075000Y-63675000D02*
G75*
G02*
X179575000Y-63675000I-750000J0D01*
G01*
X179575000Y-63675000D02*
G75*
G02*
X181075000Y-63675000I750000J0D01*
G01*
%TO.C,U6*%
X163399999Y-61915000D02*
X160474999Y-61915000D01*
X160474999Y-66815000D01*
X164374999Y-66815000D01*
X164374999Y-62890000D01*
X163399999Y-61915000D01*
%TO.C,C11*%
X164925000Y-68200000D02*
X166175000Y-68200000D01*
X166175000Y-70200000D01*
X164925000Y-70200000D01*
X164925000Y-68200000D01*
%TO.C,J3*%
X156750000Y-75525000D02*
X156750000Y-79575000D01*
X162750000Y-76232107D02*
X162250000Y-75525000D01*
X163250000Y-75525000D02*
X162750000Y-76232107D01*
X165000000Y-75525000D02*
X156750000Y-75525000D01*
X165000000Y-75525000D02*
X165000000Y-79575000D01*
X165000000Y-79575000D02*
X156750000Y-79575000D01*
%TO.C,C21*%
X166550000Y-63375000D02*
X167350000Y-63375000D01*
X167350000Y-64975000D01*
X166550000Y-64975000D01*
X166550000Y-63375000D01*
%TO.C,J2*%
X149774000Y-67240000D02*
X149774000Y-61490000D01*
X153116893Y-64990000D02*
X153824000Y-64490000D01*
X153824000Y-61490000D02*
X149774000Y-61490000D01*
X153824000Y-65490000D02*
X153116893Y-64990000D01*
X153824000Y-67240000D02*
X149774000Y-67240000D01*
X153824000Y-67240000D02*
X153824000Y-61490000D01*
%TO.C,C17*%
X176600000Y-62562500D02*
X177400000Y-62562500D01*
X177400000Y-64162500D01*
X176600000Y-64162500D01*
X176600000Y-62562500D01*
%TO.C,C10*%
X155975000Y-66400000D02*
X157575000Y-66400000D01*
X157575000Y-67200000D01*
X155975000Y-67200000D01*
X155975000Y-66400000D01*
%TO.C,C9*%
X155650000Y-69450000D02*
X157650000Y-69450000D01*
X157650000Y-70700000D01*
X155650000Y-70700000D01*
X155650000Y-69450000D01*
%TO.C,U3*%
X168775000Y-69175000D02*
X168775000Y-75175000D01*
X175775000Y-75175000D01*
X175775000Y-68175000D01*
X169775000Y-68175000D01*
X168775000Y-69175000D01*
%TO.C,Y1*%
X175525000Y-64812500D02*
X175525000Y-62312500D01*
X172950000Y-62312500D01*
X172325000Y-62937500D01*
X172325000Y-64812500D01*
X175525000Y-64812500D01*
%TO.C,C18*%
X180350000Y-66650000D02*
X181950000Y-66650000D01*
X181950000Y-67450000D01*
X180350000Y-67450000D01*
X180350000Y-66650000D01*
%TO.C,U2*%
X160137500Y-70250000D02*
X161337500Y-70250000D01*
X161337500Y-67350000D01*
X159737500Y-67350000D01*
X159737500Y-69850000D01*
X160137500Y-70250000D01*
%TD*%
M02*
