%TF.GenerationSoftware,KiCad,Pcbnew,10.0.5*%
%TF.CreationDate,2026-10-05T21:51:47+08:00*%
%TF.ProjectId,TTLtoCANforTOF,54544c74-6f43-4414-9e66-6f72544f462e,rev?*%
%TF.SameCoordinates,Original*%
%TF.FileFunction,Copper,L2,Bot*%
%TF.FilePolarity,Positive*%
%FSLAX46Y46*%
G04 Gerber Fmt 4.6, Leading zero omitted, Abs format (unit mm)*
G04 Created by KiCad (PCBNEW 10.0.5) date 2026-10-05 21:51:47*
%MOMM*%
%LPD*%
G01*
G04 APERTURE LIST*
G04 Aperture macros list*
%AMRoundRect*
0 Rectangle with rounded corners*
0 $1 Rounding radius*
0 $2 $3 $4 $5 $6 $7 $8 $9 X,Y pos of 4 corners*
0 Add a 4 corners polygon primitive as box body*
4,1,4,$2,$3,$4,$5,$6,$7,$8,$9,$2,$3,0*
0 Add four circle primitives for the rounded corners*
1,1,$1+$1,$2,$3*
1,1,$1+$1,$4,$5*
1,1,$1+$1,$6,$7*
1,1,$1+$1,$8,$9*
0 Add four rect primitives between the rounded corners*
20,1,$1+$1,$2,$3,$4,$5,0*
20,1,$1+$1,$4,$5,$6,$7,0*
20,1,$1+$1,$6,$7,$8,$9,0*
20,1,$1+$1,$8,$9,$2,$3,0*%
G04 Aperture macros list end*
%TA.AperFunction,SMDPad,CuDef*%
%ADD10RoundRect,0.150000X0.150000X0.700000X-0.150000X0.700000X-0.150000X-0.700000X0.150000X-0.700000X0*%
%TD*%
%TA.AperFunction,SMDPad,CuDef*%
%ADD11RoundRect,0.250000X0.250000X1.100000X-0.250000X1.100000X-0.250000X-1.100000X0.250000X-1.100000X0*%
%TD*%
%TA.AperFunction,SMDPad,CuDef*%
%ADD12RoundRect,0.218750X0.256250X-0.218750X0.256250X0.218750X-0.256250X0.218750X-0.256250X-0.218750X0*%
%TD*%
%TA.AperFunction,SMDPad,CuDef*%
%ADD13RoundRect,0.200000X-0.275000X0.200000X-0.275000X-0.200000X0.275000X-0.200000X0.275000X0.200000X0*%
%TD*%
%TA.AperFunction,SMDPad,CuDef*%
%ADD14RoundRect,0.225000X0.250000X-0.225000X0.250000X0.225000X-0.250000X0.225000X-0.250000X-0.225000X0*%
%TD*%
%TA.AperFunction,SMDPad,CuDef*%
%ADD15RoundRect,0.225000X-0.250000X0.225000X-0.250000X-0.225000X0.250000X-0.225000X0.250000X0.225000X0*%
%TD*%
%TA.AperFunction,SMDPad,CuDef*%
%ADD16C,1.000000*%
%TD*%
%TA.AperFunction,SMDPad,CuDef*%
%ADD17RoundRect,0.200000X0.200000X0.275000X-0.200000X0.275000X-0.200000X-0.275000X0.200000X-0.275000X0*%
%TD*%
%TA.AperFunction,SMDPad,CuDef*%
%ADD18RoundRect,0.150000X0.825000X0.150000X-0.825000X0.150000X-0.825000X-0.150000X0.825000X-0.150000X0*%
%TD*%
%TA.AperFunction,ComponentPad*%
%ADD19RoundRect,0.760000X-1.140000X1.140000X-1.140000X-1.140000X1.140000X-1.140000X1.140000X1.140000X0*%
%TD*%
%TA.AperFunction,ComponentPad*%
%ADD20C,4.000000*%
%TD*%
%TA.AperFunction,SMDPad,CuDef*%
%ADD21RoundRect,0.250000X0.250000X0.475000X-0.250000X0.475000X-0.250000X-0.475000X0.250000X-0.475000X0*%
%TD*%
%TA.AperFunction,SMDPad,CuDef*%
%ADD22RoundRect,0.150000X-0.700000X0.150000X-0.700000X-0.150000X0.700000X-0.150000X0.700000X0.150000X0*%
%TD*%
%TA.AperFunction,SMDPad,CuDef*%
%ADD23RoundRect,0.250000X-1.150000X0.250000X-1.150000X-0.250000X1.150000X-0.250000X1.150000X0.250000X0*%
%TD*%
%TA.AperFunction,SMDPad,CuDef*%
%ADD24RoundRect,0.250000X-0.475000X0.250000X-0.475000X-0.250000X0.475000X-0.250000X0.475000X0.250000X0*%
%TD*%
%TA.AperFunction,SMDPad,CuDef*%
%ADD25RoundRect,0.075000X-0.075000X0.662500X-0.075000X-0.662500X0.075000X-0.662500X0.075000X0.662500X0*%
%TD*%
%TA.AperFunction,SMDPad,CuDef*%
%ADD26RoundRect,0.075000X-0.662500X0.075000X-0.662500X-0.075000X0.662500X-0.075000X0.662500X0.075000X0*%
%TD*%
%TA.AperFunction,SMDPad,CuDef*%
%ADD27RoundRect,0.075000X0.075000X0.662500X-0.075000X0.662500X-0.075000X-0.662500X0.075000X-0.662500X0*%
%TD*%
%TA.AperFunction,SMDPad,CuDef*%
%ADD28RoundRect,0.250000X-0.450000X-0.350000X0.450000X-0.350000X0.450000X0.350000X-0.450000X0.350000X0*%
%TD*%
%TA.AperFunction,SMDPad,CuDef*%
%ADD29RoundRect,0.225000X-0.225000X-0.250000X0.225000X-0.250000X0.225000X0.250000X-0.225000X0.250000X0*%
%TD*%
%TA.AperFunction,SMDPad,CuDef*%
%ADD30RoundRect,0.150000X0.512500X0.150000X-0.512500X0.150000X-0.512500X-0.150000X0.512500X-0.150000X0*%
%TD*%
%TA.AperFunction,ViaPad*%
%ADD31C,0.600000*%
%TD*%
%TA.AperFunction,Conductor*%
%ADD32C,0.200000*%
%TD*%
%TA.AperFunction,Conductor*%
%ADD33C,0.300000*%
%TD*%
%TA.AperFunction,Conductor*%
%ADD34C,0.350000*%
%TD*%
%TA.AperFunction,Conductor*%
%ADD35C,0.600000*%
%TD*%
%TA.AperFunction,Conductor*%
%ADD36C,0.400000*%
%TD*%
%TA.AperFunction,Conductor*%
%ADD37C,0.500000*%
%TD*%
G04 APERTURE END LIST*
D10*
%TO.P,J6,1,Pin_1_1*%
%TO.N,/SWDIO*%
X160475000Y-72375000D03*
%TO.P,J6,2,Pin_2_2*%
%TO.N,/SWCLK*%
X159225000Y-72375000D03*
%TO.P,J6,3,Pin_3_3*%
%TO.N,GND*%
X157975000Y-72375000D03*
%TO.P,J6,4,Pin_4_4*%
%TO.N,+3.3V*%
X156725000Y-72375000D03*
D11*
%TO.P,J6,MP,MountPin_MP*%
%TO.N,GND*%
X162325000Y-75575000D03*
X154875000Y-75575000D03*
%TD*%
D12*
%TO.P,D1,1,K_1*%
%TO.N,Net-(D1-K)*%
X153000000Y-71962500D03*
%TO.P,D1,2,A_2*%
%TO.N,+3.3V*%
X153000000Y-70387500D03*
%TD*%
D13*
%TO.P,R7,1*%
%TO.N,/SWCLK*%
X164600000Y-74200000D03*
%TO.P,R7,2*%
%TO.N,GND*%
X164600000Y-75850000D03*
%TD*%
D14*
%TO.P,C12,1*%
%TO.N,+3.3V*%
X157150000Y-67775000D03*
%TO.P,C12,2*%
%TO.N,GND*%
X157150000Y-66225000D03*
%TD*%
D12*
%TO.P,D2,1,K_1*%
%TO.N,Net-(D2-K)*%
X166075000Y-72575000D03*
%TO.P,D2,2,A_2*%
%TO.N,+3.3V*%
X166075000Y-71000000D03*
%TD*%
D13*
%TO.P,R11,1*%
%TO.N,Net-(D2-K)*%
X164425000Y-71025000D03*
%TO.P,R11,2*%
%TO.N,/LED*%
X164425000Y-72675000D03*
%TD*%
D14*
%TO.P,C19,1*%
%TO.N,+3.3V*%
X168800000Y-63950000D03*
%TO.P,C19,2*%
%TO.N,GND*%
X168800000Y-62400000D03*
%TD*%
D15*
%TO.P,C16,1*%
%TO.N,GND*%
X170825000Y-62587500D03*
%TO.P,C16,2*%
%TO.N,/OSC+*%
X170825000Y-64137500D03*
%TD*%
D16*
%TO.P,TP1,1,1_1*%
%TO.N,/NRST*%
X179400000Y-62775000D03*
%TD*%
D17*
%TO.P,R6,1*%
%TO.N,+3.3V*%
X180900000Y-64965685D03*
%TO.P,R6,2*%
%TO.N,/NRST*%
X179250000Y-64965685D03*
%TD*%
D18*
%TO.P,U6,1,TXD_1*%
%TO.N,/CAN_TX*%
X164884999Y-62025000D03*
%TO.P,U6,2,GND_2*%
%TO.N,GND*%
X164884999Y-63295000D03*
%TO.P,U6,3,VCC_3*%
%TO.N,+3.3V*%
X164884999Y-64565000D03*
%TO.P,U6,4,RXD_4*%
%TO.N,/CAN_RX*%
X164884999Y-65835000D03*
%TO.P,U6,5,VIO_5*%
%TO.N,+3.3V*%
X159934999Y-65835000D03*
%TO.P,U6,6,CANL_6*%
%TO.N,/CAN-*%
X159934999Y-64565000D03*
%TO.P,U6,7,CANH_7*%
%TO.N,/CAN+*%
X159934999Y-63295000D03*
%TO.P,U6,8,STB_8*%
%TO.N,GND*%
X159934999Y-62025000D03*
%TD*%
D19*
%TO.P,J4,1,Pin_1_1*%
%TO.N,GND*%
X180750000Y-68900000D03*
D20*
%TO.P,J4,2,Pin_2_2*%
%TO.N,VCC_IN*%
X180750000Y-73900000D03*
%TD*%
D21*
%TO.P,C11,1*%
%TO.N,+3.3V*%
X155400000Y-68550000D03*
%TO.P,C11,2*%
%TO.N,GND*%
X153500000Y-68550000D03*
%TD*%
D14*
%TO.P,C21,1*%
%TO.N,+3.3V*%
X166935000Y-64515000D03*
%TO.P,C21,2*%
%TO.N,GND*%
X166935000Y-62965000D03*
%TD*%
D22*
%TO.P,J2,1,Pin_1_1*%
%TO.N,/CAN+*%
X155950000Y-63305000D03*
%TO.P,J2,2,Pin_2_2*%
%TO.N,/CAN-*%
X155950000Y-64555000D03*
D23*
%TO.P,J2,MP,MountPin_MP*%
%TO.N,GND*%
X152600000Y-61455000D03*
X152600000Y-66405000D03*
%TD*%
D15*
%TO.P,C17,1*%
%TO.N,GND*%
X177000000Y-62587500D03*
%TO.P,C17,2*%
%TO.N,/OSC-*%
X177000000Y-64137500D03*
%TD*%
%TO.P,C10,1*%
%TO.N,5V*%
X165350000Y-67475000D03*
%TO.P,C10,2*%
%TO.N,GND*%
X165350000Y-69025000D03*
%TD*%
D24*
%TO.P,C9,1*%
%TO.N,5V*%
X163275000Y-67625000D03*
%TO.P,C9,2*%
%TO.N,GND*%
X163275000Y-69525000D03*
%TD*%
D25*
%TO.P,U3,1,PC13_1*%
%TO.N,unconnected-(U3-PC13-Pad1)*%
X169525000Y-67512500D03*
%TO.P,U3,2,PC14_2*%
%TO.N,unconnected-(U3-PC14-Pad2)*%
X170025000Y-67512500D03*
%TO.P,U3,3,PC15_3*%
%TO.N,unconnected-(U3-PC15-Pad3)*%
X170525000Y-67512500D03*
%TO.P,U3,4,VBAT_4*%
%TO.N,+3.3V*%
X171025000Y-67512500D03*
%TO.P,U3,5,VREF+_5*%
X171525000Y-67512500D03*
%TO.P,U3,6,VDD_6*%
X172025000Y-67512500D03*
%TO.P,U3,7,VSS_7*%
%TO.N,GND*%
X172525000Y-67512500D03*
%TO.P,U3,8,PF0_8*%
%TO.N,/OSC+*%
X173025000Y-67512500D03*
%TO.P,U3,9,PF1_9*%
%TO.N,/OSC-*%
X173525000Y-67512500D03*
%TO.P,U3,10,PF2_10*%
%TO.N,/NRST*%
X174025000Y-67512500D03*
%TO.P,U3,11,PA0_11*%
%TO.N,unconnected-(U3-PA0-Pad11)*%
X174525000Y-67512500D03*
%TO.P,U3,12,PA1_12*%
%TO.N,unconnected-(U3-PA1-Pad12)*%
X175025000Y-67512500D03*
D26*
%TO.P,U3,13,PA2_13*%
%TO.N,unconnected-(U3-PA2-Pad13)*%
X176437500Y-71425000D03*
%TO.P,U3,14,PA3_14*%
%TO.N,unconnected-(U3-PA3-Pad14)*%
X176437500Y-69425000D03*
%TO.P,U3,15,PA4_15*%
%TO.N,unconnected-(U3-PA4-Pad15)*%
X176437500Y-69925000D03*
%TO.P,U3,16,PA5_16*%
%TO.N,unconnected-(U3-PA5-Pad16)*%
X176437500Y-70425000D03*
%TO.P,U3,17,PA6_17*%
%TO.N,unconnected-(U3-PA6-Pad17)*%
X176437500Y-70925000D03*
%TO.P,U3,19,PB0_19*%
%TO.N,unconnected-(U3-PB0-Pad19)*%
X176437500Y-71925000D03*
%TO.P,U3,20,PB1_20*%
%TO.N,unconnected-(U3-PB1-Pad20)*%
X176437500Y-72425000D03*
%TO.P,U3,21,PB2_21*%
%TO.N,unconnected-(U3-PB2-Pad21)*%
X176437500Y-72925000D03*
%TO.P,U3,22,PB10_22*%
%TO.N,unconnected-(U3-PB10-Pad22)*%
X176437500Y-73425000D03*
%TO.P,U3,23,PB11_23*%
%TO.N,unconnected-(U3-PB11-Pad23)*%
X176437500Y-73925000D03*
%TO.P,U3,24,PB12_24*%
%TO.N,unconnected-(U3-PB12-Pad24)*%
X176437500Y-74425000D03*
D25*
%TO.P,U3,25,PB13_25*%
%TO.N,unconnected-(U3-PB13-Pad25)*%
X175025000Y-75837500D03*
%TO.P,U3,26,PB14_26*%
%TO.N,unconnected-(U3-PB14-Pad26)*%
X174525000Y-75837500D03*
%TO.P,U3,27,PB15_27*%
%TO.N,unconnected-(U3-PB15-Pad27)*%
X174025000Y-75837500D03*
%TO.P,U3,28,PA8_28*%
%TO.N,unconnected-(U3-PA8-Pad28)*%
X173525000Y-75837500D03*
%TO.P,U3,30,PC6_30*%
%TO.N,unconnected-(U3-PC6-Pad30)*%
X172525000Y-75837500D03*
%TO.P,U3,31,PC7_31*%
%TO.N,unconnected-(U3-PC7-Pad31)*%
X172025000Y-75837500D03*
%TO.P,U3,32,PA10/UCPD1_DBCC2_32*%
%TO.N,unconnected-(U3-PA10{slash}UCPD1_DBCC2-Pad32)*%
X171525000Y-75837500D03*
%TO.P,U3,33,PA9/PA11_33*%
%TO.N,/USART1_TX*%
X171025000Y-75837500D03*
%TO.P,U3,34,PA10/PA12_34*%
%TO.N,/USART1_RX*%
X170525000Y-75837500D03*
%TO.P,U3,35,PA13_35*%
%TO.N,/SWDIO*%
X170025000Y-75837500D03*
%TO.P,U3,36,PA14_36*%
%TO.N,/SWCLK*%
X169525000Y-75837500D03*
D26*
%TO.P,U3,37,PA15_37*%
%TO.N,unconnected-(U3-PA15-Pad37)*%
X168112500Y-74425000D03*
%TO.P,U3,38,PD0_38*%
%TO.N,/LED*%
X168112500Y-73925000D03*
%TO.P,U3,39,PD1_39*%
%TO.N,unconnected-(U3-PD1-Pad39)*%
X168112500Y-73425000D03*
%TO.P,U3,40,PD2_40*%
%TO.N,unconnected-(U3-PD2-Pad40)*%
X168112500Y-72925000D03*
%TO.P,U3,41,PD3_41*%
%TO.N,unconnected-(U3-PD3-Pad41)*%
X168112500Y-72425000D03*
%TO.P,U3,42,PB3_42*%
%TO.N,unconnected-(U3-PB3-Pad42)*%
X168112500Y-71925000D03*
%TO.P,U3,43,PB4_43*%
%TO.N,unconnected-(U3-PB4-Pad43)*%
X168112500Y-71425000D03*
D27*
%TO.P,U3,44,PB5_44*%
%TO.N,unconnected-(U3-PB5-Pad44)*%
X173025000Y-75855000D03*
D26*
%TO.P,U3,46,PB7_46*%
%TO.N,unconnected-(U3-PB7-Pad46)*%
X168112500Y-69925000D03*
%TO.P,U3,47,PB8_47*%
%TO.N,/CAN_RX*%
X168112500Y-69425000D03*
%TO.P,U3,48,PB9_48*%
%TO.N,/CAN_TX*%
X168112500Y-68925000D03*
%TD*%
D28*
%TO.P,Y1,1,1_1*%
%TO.N,/OSC+*%
X172825000Y-62712500D03*
%TO.P,Y1,2,2_2*%
%TO.N,GND*%
X175025000Y-62712500D03*
%TO.P,Y1,3,3_3*%
%TO.N,/OSC-*%
X175025000Y-64412500D03*
%TO.P,Y1,4*%
%TO.N,GND*%
X172825000Y-64412500D03*
%TD*%
D16*
%TO.P,TP2,1,1_1*%
%TO.N,GND*%
X181325000Y-61575000D03*
%TD*%
D29*
%TO.P,C18,1*%
%TO.N,/NRST*%
X181225000Y-63400000D03*
%TO.P,C18,2*%
%TO.N,GND*%
X182775000Y-63400000D03*
%TD*%
D30*
%TO.P,U2,1,V_{IN}_1*%
%TO.N,5V*%
X161137500Y-67400000D03*
%TO.P,U2,2,V_{SS}_2*%
%TO.N,GND*%
X161137500Y-68350000D03*
%TO.P,U2,3,CE_3*%
%TO.N,5V*%
X161137500Y-69300000D03*
%TO.P,U2,4,NC_4*%
%TO.N,unconnected-(U2-NC-Pad4)*%
X158862500Y-69300000D03*
%TO.P,U2,5,V_{OUT}_5*%
%TO.N,+3.3V*%
X158862500Y-67400000D03*
%TD*%
D13*
%TO.P,R10,1*%
%TO.N,Net-(D1-K)*%
X153025000Y-73525000D03*
%TO.P,R10,2*%
%TO.N,GND*%
X153025000Y-75175000D03*
%TD*%
D31*
%TO.N,+3.3V*%
X168800000Y-65100000D03*
X170725000Y-65650000D03*
%TO.N,GND*%
X157175000Y-62025000D03*
X173000000Y-64825000D03*
X151925000Y-71350000D03*
X175575000Y-61562500D03*
X182850000Y-66425000D03*
X164825000Y-68725000D03*
X164150000Y-76425000D03*
X154900000Y-73750000D03*
X169981250Y-64793750D03*
X156225000Y-75800000D03*
X182850000Y-67050000D03*
X153100000Y-75125000D03*
X155600000Y-76450000D03*
X168800000Y-62400000D03*
X177218750Y-65218750D03*
X156550000Y-62050000D03*
X152450000Y-62550000D03*
X164775000Y-75775000D03*
X153100000Y-75750000D03*
X182325000Y-70050000D03*
X153075000Y-62550000D03*
X152475000Y-75775000D03*
X178000000Y-61600000D03*
X162325000Y-70550000D03*
X162525000Y-75825000D03*
X152450000Y-63200000D03*
X157175000Y-61400000D03*
X172325000Y-61562500D03*
X176075000Y-66275000D03*
X182325000Y-70700000D03*
X152475000Y-75125000D03*
X151300000Y-71350000D03*
X161900000Y-75825000D03*
X151975000Y-67725000D03*
X164150000Y-75775000D03*
X182225000Y-66425000D03*
X151350000Y-67725000D03*
X151300000Y-72000000D03*
X151925000Y-71975000D03*
X153075000Y-63175000D03*
X156550000Y-61400000D03*
X164775000Y-76400000D03*
X182950000Y-70050000D03*
X169950000Y-61525000D03*
X182950000Y-70675000D03*
X151350000Y-68375000D03*
X155600000Y-75800000D03*
X161125000Y-68200000D03*
X177975000Y-63425000D03*
X151975000Y-68350000D03*
X156225000Y-76425000D03*
X182225000Y-67075000D03*
X161900000Y-76475000D03*
X162525000Y-76450000D03*
X163275000Y-69525000D03*
X166935000Y-62965000D03*
%TO.N,5V*%
X161150000Y-69300000D03*
%TO.N,/USART1_TX*%
X171400000Y-74400000D03*
%TO.N,/USART1_RX*%
X170925000Y-73425000D03*
%TD*%
%TO.N,/USART1_RX*%
D32*
X170525000Y-73871186D02*
X170525000Y-75837500D01*
X170925000Y-73471186D02*
X170525000Y-73871186D01*
X170925000Y-73425000D02*
X170925000Y-73471186D01*
%TO.N,/USART1_TX*%
X171400000Y-74409754D02*
X171025000Y-74784754D01*
X171400000Y-74400000D02*
X171400000Y-74409754D01*
X171025000Y-74784754D02*
X171025000Y-75837500D01*
%TO.N,GND*%
X178000000Y-61787500D02*
X178000000Y-61600000D01*
X177975000Y-61812500D02*
X178000000Y-61787500D01*
X177975000Y-64462500D02*
X177975000Y-61812500D01*
X177218750Y-65218750D02*
X177975000Y-64462500D01*
X177125000Y-65325000D02*
X176175000Y-66275000D01*
X177125000Y-65312500D02*
X177125000Y-65325000D01*
X176175000Y-66275000D02*
X176075000Y-66275000D01*
X177218750Y-65218750D02*
X177125000Y-65312500D01*
X177987500Y-61600000D02*
X177000000Y-62587500D01*
X178000000Y-61600000D02*
X177987500Y-61600000D01*
X177825000Y-61637500D02*
X175575000Y-61637500D01*
X177875000Y-61687500D02*
X177825000Y-61637500D01*
X177912500Y-61687500D02*
X177875000Y-61687500D01*
X178000000Y-61600000D02*
X177912500Y-61687500D01*
X169950000Y-61937500D02*
X169937500Y-61950000D01*
X169950000Y-61525000D02*
X169950000Y-61937500D01*
X169950000Y-61525000D02*
X169987500Y-61562500D01*
X169987500Y-61562500D02*
X175575000Y-61562500D01*
%TO.N,+3.3V*%
D33*
X180900000Y-65225000D02*
X180900000Y-64965685D01*
X179625000Y-66500000D02*
X180900000Y-65225000D01*
X174950000Y-69550000D02*
X178000000Y-66500000D01*
X172250000Y-69550000D02*
X174950000Y-69550000D01*
X178000000Y-66500000D02*
X179625000Y-66500000D01*
%TO.N,/NRST*%
D32*
X181075000Y-63400000D02*
X181275000Y-63400000D01*
X179700000Y-64775000D02*
X181075000Y-63400000D01*
X179550000Y-64625000D02*
X179550000Y-62875000D01*
X179550000Y-62875000D02*
X179600000Y-62825000D01*
X179700000Y-64775000D02*
X179550000Y-64625000D01*
%TO.N,+3.3V*%
D33*
X172025000Y-69325000D02*
X172250000Y-69550000D01*
X172025000Y-67512500D02*
X172025000Y-69325000D01*
D34*
X163405000Y-66300000D02*
X163405000Y-66600000D01*
D33*
X171525000Y-67512500D02*
X171525000Y-68650000D01*
X171525000Y-69350000D02*
X171725000Y-69550000D01*
D34*
X153000000Y-70387500D02*
X153562500Y-70387500D01*
X156400000Y-68550000D02*
X156400000Y-68525000D01*
X163405000Y-65070000D02*
X163405000Y-66255000D01*
X166150000Y-66600000D02*
X166575000Y-67025000D01*
D32*
X171025000Y-67512500D02*
X171025000Y-66742590D01*
D34*
X163130000Y-66575000D02*
X163405000Y-66300000D01*
X166375000Y-70700000D02*
X170575000Y-70700000D01*
D33*
X168632500Y-63999999D02*
X168800000Y-64167499D01*
X171525000Y-69800000D02*
X171525000Y-69550000D01*
D34*
X164884999Y-64565000D02*
X166974999Y-64565000D01*
D32*
X170900000Y-65850000D02*
X171531985Y-66481985D01*
D33*
X171025000Y-66671880D02*
X171025000Y-66742590D01*
D34*
X158862500Y-66637500D02*
X158862500Y-67400000D01*
X156725000Y-68575000D02*
X156725000Y-68200000D01*
D32*
X170725000Y-65650000D02*
X170900000Y-65825000D01*
D34*
X163380000Y-66575000D02*
X163405000Y-66600000D01*
X166150000Y-66600000D02*
X163750000Y-66600000D01*
X163910000Y-64565000D02*
X164884999Y-64565000D01*
X163125000Y-66575000D02*
X163130000Y-66575000D01*
D32*
X171525000Y-69800000D02*
X171525000Y-69750000D01*
D34*
X156700000Y-68550000D02*
X156725000Y-68575000D01*
X163450000Y-66300000D02*
X163750000Y-66600000D01*
X156400000Y-68550000D02*
X156700000Y-68550000D01*
D33*
X171525000Y-69550000D02*
X171725000Y-69550000D01*
D34*
X163125000Y-66575000D02*
X163380000Y-66575000D01*
D32*
X166974999Y-64565000D02*
X167034999Y-64505000D01*
D34*
X156725000Y-72375000D02*
X156725000Y-68825000D01*
X166575000Y-67025000D02*
X166575000Y-70500000D01*
D33*
X170975000Y-68403120D02*
X170975000Y-69350000D01*
D34*
X155400000Y-68550000D02*
X156400000Y-68550000D01*
X163750000Y-66600000D02*
X163405000Y-66600000D01*
D32*
X171525000Y-69325000D02*
X171525000Y-69350000D01*
X170900000Y-65825000D02*
X170900000Y-65850000D01*
D33*
X170825000Y-66425000D02*
X171025000Y-66625000D01*
X171025000Y-66671880D02*
X171025000Y-68353120D01*
D34*
X163405000Y-66255000D02*
X163450000Y-66300000D01*
X156725000Y-68825000D02*
X156725000Y-68575000D01*
D32*
X171525000Y-66488970D02*
X171525000Y-67512500D01*
D34*
X161300000Y-66575000D02*
X163125000Y-66575000D01*
D33*
X170025000Y-66425000D02*
X170825000Y-66425000D01*
X171025000Y-68353120D02*
X170975000Y-68403120D01*
X171725000Y-69550000D02*
X172250000Y-69550000D01*
X171525000Y-69550000D02*
X171525000Y-69325000D01*
X168800000Y-65200000D02*
X170025000Y-66425000D01*
X171025000Y-66645710D02*
X171025000Y-66742590D01*
X171525000Y-69750000D02*
X171325000Y-69550000D01*
D34*
X160560000Y-65835000D02*
X161300000Y-66575000D01*
X158487500Y-67775000D02*
X158862500Y-67400000D01*
X153562500Y-70387500D02*
X155400000Y-68550000D01*
X156400000Y-68550000D02*
X156450000Y-68550000D01*
D33*
X171025000Y-66625000D02*
X171025000Y-66671880D01*
D34*
X166075000Y-71000000D02*
X166375000Y-70700000D01*
X159934999Y-65835000D02*
X159665000Y-65835000D01*
X159665000Y-65835000D02*
X158862500Y-66637500D01*
D33*
X171525000Y-69350000D02*
X171325000Y-69550000D01*
D32*
X168800000Y-65100000D02*
X168950000Y-65100000D01*
D34*
X156400000Y-68525000D02*
X156725000Y-68200000D01*
D33*
X171525000Y-69750000D02*
X171725000Y-69550000D01*
X171525000Y-69325000D02*
X171525000Y-68700000D01*
X171175000Y-69550000D02*
X171325000Y-69550000D01*
D34*
X166575000Y-70500000D02*
X166075000Y-71000000D01*
X157150000Y-67775000D02*
X158487500Y-67775000D01*
D33*
X170975000Y-69350000D02*
X171175000Y-69550000D01*
D34*
X159934999Y-65835000D02*
X160560000Y-65835000D01*
X156725000Y-68200000D02*
X157150000Y-67775000D01*
D33*
X171525000Y-69550000D02*
X171325000Y-69550000D01*
D34*
X163910000Y-64565000D02*
X163405000Y-65070000D01*
X170575000Y-70700000D02*
X171525000Y-69750000D01*
D32*
X171531985Y-66481985D02*
X171525000Y-66488970D01*
D33*
X168800000Y-64167499D02*
X168800000Y-65200000D01*
D34*
X163405000Y-66300000D02*
X163450000Y-66300000D01*
X156450000Y-68550000D02*
X156725000Y-68825000D01*
%TO.N,GND*%
D35*
X170825000Y-62587500D02*
X170825000Y-62437500D01*
D32*
X175575000Y-61562500D02*
X175575000Y-62162500D01*
X169937500Y-64650000D02*
X169937500Y-61950000D01*
X175575000Y-62162500D02*
X175025000Y-62712500D01*
X170075000Y-64887500D02*
X169900073Y-64712573D01*
X173325000Y-64412500D02*
X175025000Y-62712500D01*
X172525000Y-67512500D02*
X172525000Y-66262930D01*
X171149570Y-64887500D02*
X170075000Y-64887500D01*
X169900073Y-64712573D02*
X169900073Y-64462427D01*
X172825000Y-64412500D02*
X173325000Y-64412500D01*
X172525000Y-66262930D02*
X171149570Y-64887500D01*
X170737500Y-62750000D02*
X169937500Y-61950000D01*
%TO.N,5V*%
X161137500Y-67400000D02*
X160784448Y-67400000D01*
X161150000Y-69300000D02*
X161400000Y-69300000D01*
D36*
X161600000Y-69300000D02*
X161750000Y-69300000D01*
D37*
X160975000Y-67375000D02*
X161000000Y-67400000D01*
X165200000Y-67625000D02*
X165350000Y-67475000D01*
X161000000Y-67400000D02*
X163050000Y-67400000D01*
X163275000Y-67625000D02*
X165200000Y-67625000D01*
D32*
X163050000Y-67400000D02*
X163275000Y-67625000D01*
D37*
X161750000Y-69300000D02*
X163275000Y-67775000D01*
D36*
X163275000Y-67775000D02*
X163275000Y-67625000D01*
D32*
X160825000Y-69300000D02*
X160784448Y-69300000D01*
X160825000Y-69300000D02*
X161150000Y-69300000D01*
X161400000Y-69300000D02*
X161600000Y-69300000D01*
%TO.N,/SWDIO*%
X168137648Y-76900000D02*
X166212648Y-74975000D01*
X170025000Y-75837500D02*
X170025000Y-76625000D01*
X169750000Y-76900000D02*
X168137648Y-76900000D01*
X161300000Y-72375000D02*
X160475000Y-72375000D01*
X166212648Y-74975000D02*
X163900000Y-74975000D01*
X163900000Y-74975000D02*
X161300000Y-72375000D01*
X170025000Y-76625000D02*
X169750000Y-76900000D01*
%TO.N,/SWCLK*%
X161225000Y-71225000D02*
X160134448Y-71225000D01*
X169525000Y-75837500D02*
X167837500Y-75837500D01*
X167837500Y-75837500D02*
X166200000Y-74200000D01*
X159225000Y-72134448D02*
X159225000Y-72375000D01*
X164200000Y-74200000D02*
X161225000Y-71225000D01*
X166200000Y-74200000D02*
X164200000Y-74200000D01*
X160134448Y-71225000D02*
X159225000Y-72134448D01*
%TO.N,Net-(D1-K)*%
X153025000Y-73525000D02*
X153025000Y-71987500D01*
X153025000Y-71987500D02*
X153000000Y-71962500D01*
%TO.N,Net-(D2-K)*%
X164525000Y-71025000D02*
X164425000Y-71025000D01*
X166075000Y-72575000D02*
X164525000Y-71025000D01*
%TO.N,/LED*%
X165125000Y-73375000D02*
X164425000Y-72675000D01*
X166800000Y-73375000D02*
X165125000Y-73375000D01*
X167342590Y-73925000D02*
X167075000Y-73657410D01*
X168112500Y-73925000D02*
X167342590Y-73925000D01*
X167075000Y-73657410D02*
X167075000Y-73650000D01*
X167075000Y-73650000D02*
X166800000Y-73375000D01*
%TO.N,/OSC+*%
X171825000Y-64997244D02*
X172319396Y-65491640D01*
X172825000Y-62712500D02*
X171825000Y-63712500D01*
X172319396Y-65491640D02*
X173025000Y-66197244D01*
X172825000Y-62712500D02*
X171925000Y-62712500D01*
X173025000Y-66197244D02*
X173025000Y-67512500D01*
X171925000Y-62712500D02*
X170825000Y-63812500D01*
X170825000Y-63812500D02*
X170825000Y-64137500D01*
X171825000Y-63712500D02*
X171825000Y-64997244D01*
%TO.N,/NRST*%
X174292590Y-68550000D02*
X175257410Y-68550000D01*
X174025000Y-68282410D02*
X174025000Y-67512500D01*
X174292590Y-68550000D02*
X174025000Y-68282410D01*
X179032410Y-64775000D02*
X179700000Y-64775000D01*
X175257410Y-68550000D02*
X179032410Y-64775000D01*
%TO.N,/CAN_TX*%
X164884999Y-62025000D02*
X167218696Y-62025000D01*
X168025000Y-62831304D02*
X168025000Y-68837500D01*
X168025000Y-68837500D02*
X168112500Y-68925000D01*
X167218696Y-62025000D02*
X168025000Y-62831304D01*
%TO.N,/CAN_RX*%
X167342590Y-69425000D02*
X168112500Y-69425000D01*
X164884999Y-65835000D02*
X166860000Y-65835000D01*
X167075000Y-69157410D02*
X167342590Y-69425000D01*
X167075000Y-66050000D02*
X167075000Y-69157410D01*
X166860000Y-65835000D02*
X167075000Y-66050000D01*
%TO.N,/CAN-*%
X158472498Y-64565000D02*
X159934999Y-64565000D01*
X157625001Y-64155000D02*
X158062498Y-64155000D01*
X155950000Y-64555000D02*
X157225001Y-64555000D01*
X158062498Y-64155000D02*
X158472498Y-64565000D01*
X157225001Y-64555000D02*
X157625001Y-64155000D01*
%TO.N,/CAN+*%
X158472498Y-63295000D02*
X159934999Y-63295000D01*
X157625001Y-63705000D02*
X158062498Y-63705000D01*
X155950000Y-63305000D02*
X157225001Y-63305000D01*
X158062498Y-63705000D02*
X158472498Y-63295000D01*
X157225001Y-63305000D02*
X157625001Y-63705000D01*
%TO.N,/OSC-*%
X173913559Y-64941007D02*
X174088607Y-65116055D01*
X173525000Y-67512500D02*
X173499277Y-67486777D01*
X173664337Y-65823162D02*
X173499277Y-65988223D01*
X175217739Y-64269761D02*
X174725000Y-64762500D01*
X174442158Y-64762500D02*
X174267111Y-64587453D01*
X174230025Y-65257475D02*
X174371446Y-65398896D01*
X174230028Y-65257476D02*
X174230025Y-65257475D01*
X173499277Y-67486777D02*
X173499277Y-66095043D01*
X173735048Y-65752450D02*
X173664337Y-65823162D01*
X177000000Y-64137500D02*
X175300000Y-64137500D01*
X174687890Y-65998182D02*
X174617176Y-66068895D01*
X173499277Y-66095043D02*
X173499277Y-65988223D01*
X174088607Y-65116055D02*
X174230028Y-65257476D01*
X174371446Y-65398896D02*
X174687890Y-65715340D01*
X174334334Y-66068895D02*
X174017890Y-65752451D01*
X173984269Y-64587453D02*
X173913559Y-64658164D01*
X174617176Y-66068895D02*
G75*
G02*
X174334334Y-66068895I-141421J141426D01*
G01*
X174267111Y-64587453D02*
G75*
G03*
X173984269Y-64587453I-141421J-141423D01*
G01*
X174687890Y-65715340D02*
G75*
G02*
X174687929Y-65998221I-141390J-141460D01*
G01*
X174017890Y-65752451D02*
G75*
G03*
X173735079Y-65752481I-141390J-141449D01*
G01*
X173913559Y-64658164D02*
G75*
G03*
X173913544Y-64941021I141441J-141436D01*
G01*
X174725000Y-64762500D02*
G75*
G02*
X174442158Y-64762500I-141421J141423D01*
G01*
%TD*%
%TA.AperFunction,Conductor*%
%TO.N,GND*%
G36*
X151997284Y-76999144D02*
G01*
X152002691Y-76999381D01*
X152008121Y-76999500D01*
X152004835Y-76999500D01*
X152001613Y-76999429D01*
X151998377Y-76999287D01*
X151995170Y-76999077D01*
X151991906Y-76998791D01*
X151997284Y-76999144D01*
G37*
%TD.AperFunction*%
%TA.AperFunction,Conductor*%
G36*
X182504829Y-76999077D02*
G01*
X182501622Y-76999287D01*
X182498385Y-76999429D01*
X182495165Y-76999500D01*
X182491879Y-76999500D01*
X182497310Y-76999381D01*
X182502716Y-76999144D01*
X182508093Y-76998791D01*
X182504829Y-76999077D01*
G37*
%TD.AperFunction*%
%TA.AperFunction,Conductor*%
G36*
X151810734Y-76980106D02*
G01*
X151821293Y-76982447D01*
X151830095Y-76983999D01*
X151831915Y-76984320D01*
X151842637Y-76985731D01*
X151836114Y-76985161D01*
X151829712Y-76984318D01*
X151823367Y-76983199D01*
X151817066Y-76981803D01*
X151698854Y-76950128D01*
X151810734Y-76980106D01*
G37*
%TD.AperFunction*%
%TA.AperFunction,Conductor*%
G36*
X182682932Y-76981803D02*
G01*
X182676631Y-76983199D01*
X182670286Y-76984318D01*
X182663884Y-76985161D01*
X182657361Y-76985731D01*
X182668083Y-76984320D01*
X182678701Y-76982448D01*
X182689264Y-76980106D01*
X182682932Y-76981803D01*
G37*
%TD.AperFunction*%
%TA.AperFunction,Conductor*%
G36*
X151653396Y-76936485D02*
G01*
X151657652Y-76938034D01*
X151663545Y-76940179D01*
X151673859Y-76943431D01*
X151667522Y-76941733D01*
X151661371Y-76939793D01*
X151655325Y-76937593D01*
X151649361Y-76935123D01*
X151643408Y-76932347D01*
X151653396Y-76936485D01*
G37*
%TD.AperFunction*%
%TA.AperFunction,Conductor*%
G36*
X182850643Y-76935120D02*
G01*
X182844683Y-76937589D01*
X182838637Y-76939790D01*
X182832476Y-76941733D01*
X182826140Y-76943430D01*
X182836460Y-76940177D01*
X182846602Y-76936485D01*
X182856590Y-76932347D01*
X182850643Y-76935120D01*
G37*
%TD.AperFunction*%
%TA.AperFunction,Conductor*%
G36*
X183007703Y-76860022D02*
G01*
X183002259Y-76863490D01*
X182996682Y-76866710D01*
X182990955Y-76869692D01*
X182985004Y-76872466D01*
X182994597Y-76867472D01*
X183003947Y-76862074D01*
X183013073Y-76856261D01*
X183007703Y-76860022D01*
G37*
%TD.AperFunction*%
%TA.AperFunction,Conductor*%
G36*
X151496051Y-76862074D02*
G01*
X151505401Y-76867472D01*
X151514991Y-76872464D01*
X151509045Y-76869692D01*
X151503311Y-76866707D01*
X151497735Y-76863487D01*
X151492296Y-76860022D01*
X151486934Y-76856267D01*
X151496051Y-76862074D01*
G37*
%TD.AperFunction*%
%TA.AperFunction,Conductor*%
G36*
X183149329Y-76758796D02*
G01*
X183144571Y-76763156D01*
X183139635Y-76767298D01*
X183134512Y-76771229D01*
X183129147Y-76774985D01*
X183137728Y-76768400D01*
X183145993Y-76761465D01*
X183153969Y-76754156D01*
X183149329Y-76758796D01*
G37*
%TD.AperFunction*%
%TA.AperFunction,Conductor*%
G36*
X151354005Y-76761465D02*
G01*
X151362270Y-76768400D01*
X151370846Y-76774981D01*
X151365486Y-76771229D01*
X151360363Y-76767298D01*
X151355427Y-76763156D01*
X151350669Y-76758796D01*
X151346029Y-76754156D01*
X151354005Y-76761465D01*
G37*
%TD.AperFunction*%
%TA.AperFunction,Conductor*%
G36*
X151231598Y-76637728D02*
G01*
X151238533Y-76645993D01*
X151245842Y-76653969D01*
X151241202Y-76649329D01*
X151236842Y-76644571D01*
X151232700Y-76639635D01*
X151228769Y-76634512D01*
X151225019Y-76629155D01*
X151231598Y-76637728D01*
G37*
%TD.AperFunction*%
%TA.AperFunction,Conductor*%
G36*
X183271229Y-76634512D02*
G01*
X183267298Y-76639635D01*
X183263156Y-76644571D01*
X183258796Y-76649329D01*
X183254156Y-76653969D01*
X183261465Y-76645993D01*
X183268400Y-76637728D01*
X183274985Y-76629147D01*
X183271229Y-76634512D01*
G37*
%TD.AperFunction*%
%TA.AperFunction,Conductor*%
G36*
X151127532Y-76485004D02*
G01*
X151132526Y-76494597D01*
X151137924Y-76503947D01*
X151143727Y-76513058D01*
X151160994Y-76537720D01*
X151139966Y-76507688D01*
X151136510Y-76502263D01*
X151133285Y-76496677D01*
X151130312Y-76490966D01*
X151127532Y-76485004D01*
G37*
%TD.AperFunction*%
%TA.AperFunction,Conductor*%
G36*
X183369692Y-76490955D02*
G01*
X183366710Y-76496682D01*
X183363490Y-76502259D01*
X183360022Y-76507703D01*
X183356261Y-76513073D01*
X183362074Y-76503947D01*
X183367472Y-76494597D01*
X183372466Y-76485004D01*
X183369692Y-76490955D01*
G37*
%TD.AperFunction*%
%TA.AperFunction,Conductor*%
G36*
X151059814Y-76336439D02*
G01*
X151063513Y-76346602D01*
X151067651Y-76356590D01*
X151064871Y-76350629D01*
X151062406Y-76344676D01*
X151060202Y-76338620D01*
X151058269Y-76332492D01*
X151056569Y-76326146D01*
X151059814Y-76336439D01*
G37*
%TD.AperFunction*%
%TA.AperFunction,Conductor*%
G36*
X183441733Y-76332476D02*
G01*
X183439790Y-76338637D01*
X183437589Y-76344683D01*
X183435120Y-76350643D01*
X183432347Y-76356590D01*
X183436485Y-76346602D01*
X183440177Y-76336460D01*
X183443432Y-76326136D01*
X183441733Y-76332476D01*
G37*
%TD.AperFunction*%
%TA.AperFunction,Conductor*%
G36*
X151015678Y-76168077D02*
G01*
X151017551Y-76178702D01*
X151019895Y-76189275D01*
X151018191Y-76182915D01*
X151016795Y-76176615D01*
X151015677Y-76170271D01*
X151014840Y-76163908D01*
X151014267Y-76157357D01*
X151015678Y-76168077D01*
G37*
%TD.AperFunction*%
%TA.AperFunction,Conductor*%
G36*
X183485161Y-76163884D02*
G01*
X183484318Y-76170286D01*
X183483199Y-76176631D01*
X183481803Y-76182932D01*
X183480106Y-76189264D01*
X183482448Y-76178701D01*
X183484320Y-76168083D01*
X183485731Y-76157361D01*
X183485161Y-76163884D01*
G37*
%TD.AperFunction*%
%TA.AperFunction,Conductor*%
G36*
X151000618Y-75997280D02*
G01*
X151000854Y-76002690D01*
X151001208Y-76008093D01*
X151008544Y-76091947D01*
X151000919Y-76004796D01*
X151000712Y-76001621D01*
X151000569Y-75998368D01*
X151000500Y-75995163D01*
X151000500Y-75991876D01*
X151000618Y-75997280D01*
G37*
%TD.AperFunction*%
%TA.AperFunction,Conductor*%
G36*
X183499500Y-75995164D02*
G01*
X183499429Y-75998406D01*
X183499288Y-76001621D01*
X183499077Y-76004829D01*
X183498791Y-76008092D01*
X183499144Y-76002715D01*
X183499381Y-75997309D01*
X183499500Y-75991878D01*
X183499500Y-75995164D01*
G37*
%TD.AperFunction*%
%TA.AperFunction,Conductor*%
G36*
X169650000Y-61375000D02*
G01*
X169627436Y-62897983D01*
X169649998Y-61375000D01*
X169649999Y-61375000D01*
X169650000Y-61375000D01*
G37*
%TD.AperFunction*%
%TA.AperFunction,Conductor*%
G36*
X178318381Y-62394944D02*
G01*
X178318380Y-62394940D01*
X178250000Y-61285336D01*
X178318381Y-62394944D01*
G37*
%TD.AperFunction*%
%TA.AperFunction,Conductor*%
G36*
X151000854Y-61897308D02*
G01*
X151000618Y-61902718D01*
X151000500Y-61908122D01*
X151000500Y-61904835D01*
X151000570Y-61901619D01*
X151000571Y-61901592D01*
X151000712Y-61898355D01*
X151000919Y-61895205D01*
X151001208Y-61891905D01*
X151000854Y-61897308D01*
G37*
%TD.AperFunction*%
%TA.AperFunction,Conductor*%
G36*
X183499077Y-61895169D02*
G01*
X183499288Y-61898377D01*
X183499429Y-61901592D01*
X183499500Y-61904834D01*
X183499500Y-61908121D01*
X183499381Y-61902691D01*
X183499144Y-61897284D01*
X183498791Y-61891906D01*
X183499077Y-61895169D01*
G37*
%TD.AperFunction*%
%TA.AperFunction,Conductor*%
G36*
X183481803Y-61717066D02*
G01*
X183483199Y-61723367D01*
X183484318Y-61729712D01*
X183485161Y-61736114D01*
X183485731Y-61742637D01*
X183484320Y-61731915D01*
X183482448Y-61721297D01*
X183480106Y-61710734D01*
X183481803Y-61717066D01*
G37*
%TD.AperFunction*%
%TA.AperFunction,Conductor*%
G36*
X151017552Y-61721287D02*
G01*
X151015678Y-61731915D01*
X151014268Y-61742620D01*
X151014840Y-61736083D01*
X151015678Y-61729717D01*
X151016796Y-61723376D01*
X151018192Y-61717081D01*
X151018196Y-61717066D01*
X151019887Y-61710752D01*
X151017552Y-61721287D01*
G37*
%TD.AperFunction*%
%TA.AperFunction,Conductor*%
G36*
X183435120Y-61549355D02*
G01*
X183437589Y-61555315D01*
X183439790Y-61561361D01*
X183441733Y-61567522D01*
X183443432Y-61573862D01*
X183440177Y-61563538D01*
X183440175Y-61563534D01*
X183436485Y-61553396D01*
X183432347Y-61543408D01*
X183435120Y-61549355D01*
G37*
%TD.AperFunction*%
%TA.AperFunction,Conductor*%
G36*
X151063518Y-61553383D02*
G01*
X151059815Y-61563554D01*
X151056577Y-61573820D01*
X151058270Y-61567505D01*
X151060203Y-61561375D01*
X151062415Y-61555298D01*
X151064881Y-61549349D01*
X151067156Y-61544472D01*
X151067633Y-61543448D01*
X151063518Y-61553383D01*
G37*
%TD.AperFunction*%
%TA.AperFunction,Conductor*%
G36*
X183360022Y-61392295D02*
G01*
X183363490Y-61397739D01*
X183366710Y-61403316D01*
X183369692Y-61409043D01*
X183372466Y-61414994D01*
X183367472Y-61405401D01*
X183362074Y-61396051D01*
X183356267Y-61386934D01*
X183280751Y-61279085D01*
X183360022Y-61392295D01*
G37*
%TD.AperFunction*%
%TA.AperFunction,Conductor*%
G36*
X151137929Y-61396042D02*
G01*
X151132530Y-61405392D01*
X151127550Y-61414955D01*
X151130317Y-61409020D01*
X151133286Y-61403316D01*
X151136507Y-61397739D01*
X151139960Y-61392318D01*
X151143715Y-61386957D01*
X151137929Y-61396042D01*
G37*
%TD.AperFunction*%
%TA.AperFunction,Conductor*%
G36*
X183258796Y-61250669D02*
G01*
X183263156Y-61255427D01*
X183267298Y-61260363D01*
X183271227Y-61265483D01*
X183274981Y-61270846D01*
X183268400Y-61262270D01*
X183261465Y-61254005D01*
X183254156Y-61246029D01*
X183258796Y-61250669D01*
G37*
%TD.AperFunction*%
%TA.AperFunction,Conductor*%
G36*
X151238534Y-61254004D02*
G01*
X151231599Y-61262270D01*
X151231591Y-61262279D01*
X151225022Y-61270839D01*
X151228789Y-61265457D01*
X151232689Y-61260374D01*
X151236848Y-61255418D01*
X151241179Y-61250692D01*
X151245829Y-61246042D01*
X151238534Y-61254004D01*
G37*
%TD.AperFunction*%
%TA.AperFunction,Conductor*%
G36*
X183134518Y-61128774D02*
G01*
X183139635Y-61132700D01*
X183144571Y-61136842D01*
X183149329Y-61141202D01*
X183153969Y-61145842D01*
X183145993Y-61138533D01*
X183137728Y-61131598D01*
X183129155Y-61125019D01*
X183134518Y-61128774D01*
G37*
%TD.AperFunction*%
%TA.AperFunction,Conductor*%
G36*
X151362279Y-61131591D02*
G01*
X151354005Y-61138533D01*
X151346042Y-61145829D01*
X151350692Y-61141179D01*
X151355418Y-61136848D01*
X151360374Y-61132689D01*
X151365457Y-61128789D01*
X151370839Y-61125022D01*
X151362279Y-61131591D01*
G37*
%TD.AperFunction*%
%TA.AperFunction,Conductor*%
G36*
X182990966Y-61030312D02*
G01*
X182996677Y-61033285D01*
X183002263Y-61036510D01*
X183007688Y-61039966D01*
X183013058Y-61043727D01*
X183003947Y-61037924D01*
X182994597Y-61032526D01*
X182985004Y-61027532D01*
X182990966Y-61030312D01*
G37*
%TD.AperFunction*%
%TA.AperFunction,Conductor*%
G36*
X151505399Y-61032526D02*
G01*
X151496042Y-61037929D01*
X151486957Y-61043715D01*
X151492318Y-61039960D01*
X151497742Y-61036505D01*
X151503314Y-61033288D01*
X151509020Y-61030317D01*
X151514983Y-61027537D01*
X151505399Y-61032526D01*
G37*
%TD.AperFunction*%
%TA.AperFunction,Conductor*%
G36*
X182832479Y-60958266D02*
G01*
X182838630Y-60960206D01*
X182844682Y-60962409D01*
X182850644Y-60964878D01*
X182856590Y-60967651D01*
X182846604Y-60963514D01*
X182836446Y-60959816D01*
X182826153Y-60956571D01*
X182832479Y-60958266D01*
G37*
%TD.AperFunction*%
%TA.AperFunction,Conductor*%
G36*
X151663550Y-60959816D02*
G01*
X151653399Y-60963512D01*
X151643418Y-60967647D01*
X151649379Y-60964866D01*
X151655311Y-60962409D01*
X151661374Y-60960203D01*
X151667505Y-60958270D01*
X151673822Y-60956577D01*
X151663550Y-60959816D01*
G37*
%TD.AperFunction*%
%TA.AperFunction,Conductor*%
G36*
X182663890Y-60914838D02*
G01*
X182670274Y-60915678D01*
X182673684Y-60916278D01*
X182676623Y-60916796D01*
X182682918Y-60918191D01*
X182689247Y-60919887D01*
X182678700Y-60917550D01*
X182668081Y-60915678D01*
X182657371Y-60914268D01*
X182663890Y-60914838D01*
G37*
%TD.AperFunction*%
%TA.AperFunction,Conductor*%
G36*
X151831931Y-60915675D02*
G01*
X151821279Y-60917553D01*
X151810761Y-60919885D01*
X151817085Y-60918191D01*
X151823367Y-60916798D01*
X151829726Y-60915677D01*
X151836097Y-60914839D01*
X151842604Y-60914269D01*
X151831931Y-60915675D01*
G37*
%TD.AperFunction*%
%TA.AperFunction,Conductor*%
G36*
X152002740Y-60900616D02*
G01*
X151997262Y-60900855D01*
X151991936Y-60901205D01*
X151969885Y-60903134D01*
X151995190Y-60900920D01*
X151998379Y-60900711D01*
X152001629Y-60900569D01*
X152004836Y-60900500D01*
X152008122Y-60900500D01*
X152002740Y-60900616D01*
G37*
%TD.AperFunction*%
%TA.AperFunction,Conductor*%
G36*
X182498369Y-60900569D02*
G01*
X182501619Y-60900711D01*
X182504810Y-60900921D01*
X182508065Y-60901205D01*
X182502692Y-60900854D01*
X182497280Y-60900618D01*
X182491878Y-60900500D01*
X182495164Y-60900500D01*
X182498369Y-60900569D01*
G37*
%TD.AperFunction*%
%TD*%
%TA.AperFunction,Conductor*%
%TO.N,GND*%
G36*
X182497280Y-60900618D02*
G01*
X182502692Y-60900854D01*
X182508085Y-60901207D01*
X182535721Y-60903625D01*
X182657371Y-60914268D01*
X182668081Y-60915678D01*
X182678700Y-60917550D01*
X182689252Y-60919888D01*
X182801188Y-60949882D01*
X182826153Y-60956571D01*
X182836446Y-60959816D01*
X182846604Y-60963514D01*
X182856590Y-60967651D01*
X182985004Y-61027532D01*
X182994597Y-61032526D01*
X183003947Y-61037924D01*
X183013058Y-61043727D01*
X183129155Y-61125019D01*
X183137728Y-61131598D01*
X183145993Y-61138533D01*
X183153969Y-61145842D01*
X183254156Y-61246029D01*
X183261465Y-61254005D01*
X183268400Y-61262270D01*
X183274981Y-61270846D01*
X183356267Y-61386934D01*
X183362074Y-61396051D01*
X183367472Y-61405401D01*
X183372466Y-61414994D01*
X183432347Y-61543408D01*
X183436485Y-61553396D01*
X183440175Y-61563534D01*
X183440177Y-61563538D01*
X183443432Y-61573862D01*
X183480106Y-61710734D01*
X183482448Y-61721297D01*
X183484320Y-61731915D01*
X183485731Y-61742637D01*
X183498791Y-61891906D01*
X183499144Y-61897284D01*
X183499381Y-61902691D01*
X183499500Y-61908121D01*
X183499500Y-75991878D01*
X183499381Y-75997309D01*
X183499144Y-76002715D01*
X183498791Y-76008092D01*
X183485731Y-76157361D01*
X183484320Y-76168083D01*
X183482448Y-76178701D01*
X183480106Y-76189264D01*
X183443432Y-76326136D01*
X183440177Y-76336460D01*
X183436485Y-76346602D01*
X183432347Y-76356590D01*
X183372466Y-76485004D01*
X183367472Y-76494597D01*
X183362074Y-76503947D01*
X183356261Y-76513073D01*
X183274985Y-76629147D01*
X183268400Y-76637728D01*
X183261465Y-76645993D01*
X183254156Y-76653969D01*
X183153969Y-76754156D01*
X183145993Y-76761465D01*
X183137728Y-76768400D01*
X183129147Y-76774985D01*
X183013073Y-76856261D01*
X183003947Y-76862074D01*
X182994597Y-76867472D01*
X182985004Y-76872466D01*
X182856590Y-76932347D01*
X182846602Y-76936485D01*
X182836460Y-76940177D01*
X182826136Y-76943432D01*
X182689264Y-76980106D01*
X182678701Y-76982448D01*
X182668083Y-76984320D01*
X182657361Y-76985731D01*
X182508093Y-76998791D01*
X182502716Y-76999144D01*
X182497310Y-76999381D01*
X182491879Y-76999500D01*
X175448730Y-76999500D01*
X175413795Y-76994477D01*
X175402941Y-76991290D01*
X175344163Y-76953516D01*
X175315138Y-76889960D01*
X175325081Y-76820803D01*
X175328271Y-76813820D01*
X175353380Y-76777658D01*
X175409824Y-76721213D01*
X175409825Y-76721212D01*
X175409827Y-76721210D01*
X175436759Y-76666118D01*
X175464866Y-76608625D01*
X175475500Y-76535636D01*
X175475500Y-75139364D01*
X175464866Y-75066375D01*
X175445059Y-75025860D01*
X175445059Y-75025859D01*
X175438600Y-75012647D01*
X175427770Y-74979062D01*
X175426899Y-74973962D01*
X175425866Y-74967911D01*
X175433983Y-74898517D01*
X175478330Y-74844526D01*
X175544821Y-74823081D01*
X175548654Y-74822980D01*
X175606380Y-74835536D01*
X175666057Y-74864711D01*
X175666950Y-74865153D01*
X175667067Y-74865211D01*
X175670132Y-74865788D01*
X175675253Y-74866159D01*
X175739364Y-74875500D01*
X175739370Y-74875500D01*
X177135630Y-74875500D01*
X177135636Y-74875500D01*
X177208625Y-74864866D01*
X177266718Y-74836466D01*
X177321210Y-74809827D01*
X177409827Y-74721210D01*
X177453544Y-74631784D01*
X177464866Y-74608625D01*
X177475500Y-74535636D01*
X177475500Y-74314364D01*
X177464866Y-74241375D01*
X177464864Y-74241371D01*
X177464864Y-74241369D01*
X177462023Y-74232173D01*
X177462531Y-74232016D01*
X177456041Y-74211889D01*
X177452110Y-74188871D01*
X177455369Y-74133043D01*
X177456085Y-74130606D01*
X177463661Y-74111089D01*
X177464866Y-74108625D01*
X177475500Y-74035636D01*
X177475500Y-73814364D01*
X177466010Y-73749228D01*
X178449500Y-73749228D01*
X178449500Y-74050770D01*
X178449501Y-74050799D01*
X178488859Y-74349755D01*
X178488860Y-74349760D01*
X178488861Y-74349766D01*
X178488862Y-74349768D01*
X178566912Y-74641058D01*
X178682031Y-74918978D01*
X178682289Y-74919613D01*
X178682316Y-74919668D01*
X178682318Y-74919671D01*
X178833099Y-75180831D01*
X178833100Y-75180832D01*
X178833102Y-75180835D01*
X179016672Y-75420070D01*
X179016676Y-75420075D01*
X179016679Y-75420078D01*
X179016685Y-75420085D01*
X179229914Y-75633314D01*
X179229921Y-75633320D01*
X179229924Y-75633322D01*
X179229928Y-75633326D01*
X179419818Y-75779033D01*
X179469168Y-75816900D01*
X179726892Y-75965697D01*
X179728633Y-75966779D01*
X179732095Y-75968702D01*
X179732683Y-75969042D01*
X179737828Y-75970787D01*
X179916072Y-76044619D01*
X179916071Y-76044619D01*
X180004881Y-76081405D01*
X180006710Y-76082240D01*
X180007194Y-76082424D01*
X180009584Y-76083372D01*
X180012842Y-76084132D01*
X180300232Y-76161138D01*
X180599217Y-76200500D01*
X180599224Y-76200500D01*
X180900776Y-76200500D01*
X180900783Y-76200500D01*
X181199768Y-76161138D01*
X181491058Y-76083087D01*
X181769668Y-75967683D01*
X182030832Y-75816900D01*
X182270080Y-75633319D01*
X182483319Y-75420080D01*
X182666900Y-75180832D01*
X182817683Y-74919668D01*
X182933087Y-74641058D01*
X183011138Y-74349768D01*
X183050500Y-74050783D01*
X183050500Y-73749217D01*
X183011138Y-73450232D01*
X182933087Y-73158942D01*
X182933086Y-73158939D01*
X182817687Y-72880341D01*
X182817685Y-72880336D01*
X182817682Y-72880330D01*
X182817483Y-72879986D01*
X182666900Y-72619168D01*
X182585155Y-72512635D01*
X182483326Y-72379928D01*
X182483322Y-72379924D01*
X182483320Y-72379921D01*
X182483314Y-72379914D01*
X182270085Y-72166685D01*
X182270078Y-72166679D01*
X182270075Y-72166676D01*
X182270070Y-72166672D01*
X182030835Y-71983102D01*
X182030834Y-71983101D01*
X182030831Y-71983099D01*
X181792633Y-71845575D01*
X181769668Y-71832316D01*
X181769618Y-71832292D01*
X181768980Y-71832032D01*
X181718576Y-71811154D01*
X181577438Y-71752692D01*
X181491058Y-71716912D01*
X181336934Y-71675615D01*
X181199766Y-71638861D01*
X181199760Y-71638860D01*
X181199755Y-71638859D01*
X180904883Y-71600039D01*
X180902867Y-71599705D01*
X180900793Y-71599500D01*
X180900788Y-71599500D01*
X180900783Y-71599500D01*
X180599217Y-71599500D01*
X180599211Y-71599500D01*
X180599206Y-71599500D01*
X180597129Y-71599705D01*
X180595115Y-71600039D01*
X180300243Y-71638859D01*
X180300236Y-71638860D01*
X180300233Y-71638861D01*
X180238673Y-71655355D01*
X180008940Y-71716912D01*
X179731018Y-71832032D01*
X179730388Y-71832288D01*
X179730330Y-71832316D01*
X179500017Y-71965287D01*
X179483787Y-71974659D01*
X179469163Y-71983102D01*
X179229928Y-72166672D01*
X179229913Y-72166686D01*
X179229905Y-72166693D01*
X179016693Y-72379905D01*
X179016686Y-72379913D01*
X179016672Y-72379928D01*
X178833102Y-72619163D01*
X178682316Y-72880330D01*
X178682288Y-72880388D01*
X178682032Y-72881018D01*
X178566912Y-73158940D01*
X178525265Y-73314370D01*
X178488862Y-73450232D01*
X178488859Y-73450243D01*
X178449501Y-73749199D01*
X178449500Y-73749228D01*
X177466010Y-73749228D01*
X177464866Y-73741375D01*
X177458321Y-73727988D01*
X177455159Y-73715401D01*
X177455644Y-73703088D01*
X177452676Y-73690133D01*
X177451865Y-73690201D01*
X177450979Y-73679488D01*
X177452665Y-73679348D01*
X177455355Y-73633089D01*
X177456074Y-73630641D01*
X177463661Y-73611089D01*
X177464866Y-73608625D01*
X177475500Y-73535636D01*
X177475500Y-73314364D01*
X177464866Y-73241375D01*
X177464864Y-73241371D01*
X177464864Y-73241369D01*
X177462023Y-73232173D01*
X177462531Y-73232016D01*
X177456041Y-73211889D01*
X177452110Y-73188871D01*
X177455369Y-73133043D01*
X177456085Y-73130606D01*
X177463661Y-73111089D01*
X177464866Y-73108625D01*
X177475500Y-73035636D01*
X177475500Y-72814364D01*
X177464866Y-72741375D01*
X177464864Y-72741371D01*
X177464864Y-72741369D01*
X177462023Y-72732173D01*
X177462531Y-72732016D01*
X177456041Y-72711889D01*
X177452110Y-72688871D01*
X177455369Y-72633043D01*
X177456085Y-72630606D01*
X177463661Y-72611089D01*
X177464866Y-72608625D01*
X177475500Y-72535636D01*
X177475500Y-72314364D01*
X177464866Y-72241375D01*
X177464864Y-72241371D01*
X177464864Y-72241369D01*
X177462023Y-72232173D01*
X177462531Y-72232016D01*
X177456041Y-72211889D01*
X177452110Y-72188871D01*
X177455369Y-72133043D01*
X177456085Y-72130606D01*
X177463661Y-72111089D01*
X177464866Y-72108625D01*
X177475500Y-72035636D01*
X177475500Y-71814364D01*
X177464866Y-71741375D01*
X177464864Y-71741371D01*
X177464864Y-71741369D01*
X177462023Y-71732173D01*
X177462531Y-71732016D01*
X177456041Y-71711889D01*
X177452110Y-71688871D01*
X177455369Y-71633043D01*
X177456085Y-71630606D01*
X177463661Y-71611089D01*
X177464866Y-71608625D01*
X177475500Y-71535636D01*
X177475500Y-71314364D01*
X177464866Y-71241375D01*
X177464864Y-71241371D01*
X177464864Y-71241369D01*
X177462023Y-71232173D01*
X177462531Y-71232016D01*
X177456041Y-71211889D01*
X177452110Y-71188871D01*
X177455369Y-71133043D01*
X177456085Y-71130606D01*
X177463661Y-71111089D01*
X177464866Y-71108625D01*
X177475500Y-71035636D01*
X177475500Y-70814364D01*
X177464866Y-70741375D01*
X177464864Y-70741371D01*
X177464864Y-70741369D01*
X177462023Y-70732173D01*
X177462531Y-70732016D01*
X177456041Y-70711889D01*
X177452110Y-70688871D01*
X177455369Y-70633043D01*
X177456085Y-70630606D01*
X177463661Y-70611089D01*
X177464866Y-70608625D01*
X177475500Y-70535636D01*
X177475500Y-70314364D01*
X177464866Y-70241375D01*
X177464864Y-70241371D01*
X177464864Y-70241369D01*
X177462023Y-70232173D01*
X177462531Y-70232016D01*
X177456041Y-70211889D01*
X177452110Y-70188871D01*
X177455369Y-70133043D01*
X177456085Y-70130606D01*
X177463661Y-70111089D01*
X177464866Y-70108625D01*
X177475500Y-70035636D01*
X177475500Y-69814364D01*
X177464866Y-69741375D01*
X177464864Y-69741371D01*
X177464864Y-69741369D01*
X177462023Y-69732173D01*
X177462531Y-69732016D01*
X177456041Y-69711889D01*
X177452110Y-69688871D01*
X177455369Y-69633043D01*
X177456085Y-69630606D01*
X177463661Y-69611089D01*
X177464866Y-69608625D01*
X177475500Y-69535636D01*
X177475500Y-69314364D01*
X177464866Y-69241375D01*
X177459043Y-69229464D01*
X177409827Y-69128789D01*
X177409826Y-69128788D01*
X177409826Y-69128787D01*
X177321212Y-69040173D01*
X177209078Y-68985355D01*
X177208635Y-68985135D01*
X177204649Y-68984194D01*
X177199737Y-68983839D01*
X177193468Y-68982925D01*
X177135636Y-68974500D01*
X177135631Y-68974500D01*
X176479795Y-68974500D01*
X176444860Y-68969477D01*
X176434006Y-68966290D01*
X176375228Y-68928516D01*
X176346203Y-68864960D01*
X176356143Y-68795811D01*
X176359333Y-68788824D01*
X176384442Y-68752660D01*
X178137679Y-66999423D01*
X178165929Y-66978275D01*
X178189021Y-66965667D01*
X178248446Y-66950500D01*
X179684307Y-66950500D01*
X179684309Y-66950500D01*
X179781342Y-66924500D01*
X179798887Y-66919799D01*
X179901614Y-66860489D01*
X180690137Y-66071962D01*
X180703582Y-66060324D01*
X180726055Y-66043537D01*
X180791810Y-65983524D01*
X180801303Y-65975688D01*
X180877233Y-65919130D01*
X180886314Y-65912975D01*
X180968634Y-65862365D01*
X180976037Y-65858159D01*
X181085722Y-65800793D01*
X181092600Y-65797464D01*
X181288283Y-65710131D01*
X181307628Y-65699121D01*
X181325623Y-65690711D01*
X181342331Y-65684481D01*
X181457546Y-65598231D01*
X181543796Y-65483016D01*
X181594091Y-65348168D01*
X181600500Y-65288558D01*
X181600499Y-64642813D01*
X181594091Y-64583202D01*
X181591219Y-64575503D01*
X181543797Y-64448356D01*
X181543795Y-64448353D01*
X181538318Y-64441037D01*
X181491358Y-64378306D01*
X181474445Y-64347332D01*
X181469596Y-64334332D01*
X181464610Y-64264640D01*
X181498092Y-64203319D01*
X181499257Y-64202154D01*
X181549138Y-64171738D01*
X181553887Y-64170218D01*
X181571873Y-64166297D01*
X181575584Y-64165359D01*
X181575590Y-64165359D01*
X181575595Y-64165356D01*
X181575599Y-64165356D01*
X181709972Y-64112365D01*
X181709973Y-64112365D01*
X181709973Y-64112364D01*
X181709975Y-64112364D01*
X181825078Y-64025078D01*
X181912364Y-63909975D01*
X181965359Y-63775590D01*
X181975500Y-63691144D01*
X181975500Y-63108856D01*
X181965359Y-63024410D01*
X181941601Y-62964164D01*
X181913524Y-62892965D01*
X181912353Y-62889760D01*
X181910041Y-62886484D01*
X181910031Y-62886468D01*
X181907240Y-62883268D01*
X181907061Y-62883032D01*
X181866051Y-62828952D01*
X181825078Y-62774920D01*
X181709977Y-62687636D01*
X181575586Y-62634639D01*
X181532242Y-62629435D01*
X181532242Y-62629434D01*
X181504476Y-62626100D01*
X181491144Y-62624500D01*
X181491140Y-62624500D01*
X180958860Y-62624500D01*
X180958856Y-62624500D01*
X180950529Y-62625500D01*
X180920839Y-62629064D01*
X180920840Y-62629065D01*
X180874412Y-62634639D01*
X180740021Y-62687636D01*
X180624920Y-62774920D01*
X180537634Y-62890024D01*
X180526810Y-62917472D01*
X180524016Y-62921062D01*
X180522432Y-62927302D01*
X180500410Y-62971475D01*
X180500410Y-62971476D01*
X180442076Y-63124425D01*
X180442068Y-63124443D01*
X180442069Y-63124444D01*
X180366018Y-63323849D01*
X180365580Y-63324979D01*
X180260861Y-63591694D01*
X180253904Y-63606470D01*
X180222704Y-63662784D01*
X180210588Y-63680747D01*
X180184686Y-63712719D01*
X180127190Y-63752418D01*
X180057359Y-63754730D01*
X179997363Y-63718922D01*
X179966250Y-63656361D01*
X179965498Y-63617737D01*
X179965901Y-63614809D01*
X179970000Y-63596011D01*
X179983901Y-63549822D01*
X179996520Y-63507888D01*
X180004272Y-63488328D01*
X180005894Y-63485074D01*
X180049885Y-63396781D01*
X180065328Y-63365787D01*
X180065346Y-63365748D01*
X180065380Y-63365682D01*
X180067111Y-63362150D01*
X180067247Y-63361868D01*
X180067247Y-63361865D01*
X180067277Y-63361806D01*
X180069064Y-63358032D01*
X180069229Y-63357678D01*
X180070796Y-63354252D01*
X180070827Y-63354184D01*
X180070957Y-63353895D01*
X180072718Y-63349906D01*
X180138680Y-63197489D01*
X180143454Y-63185799D01*
X180143797Y-63184907D01*
X180147992Y-63173304D01*
X180148299Y-63172398D01*
X180152066Y-63160486D01*
X180152334Y-63159574D01*
X180155570Y-63147678D01*
X180179156Y-63053525D01*
X180181314Y-63044309D01*
X180181468Y-63043602D01*
X180183332Y-63034358D01*
X180183467Y-63033631D01*
X180185040Y-63024371D01*
X180185152Y-63023644D01*
X180186490Y-63013920D01*
X180187148Y-63008502D01*
X180194454Y-62948270D01*
X180200555Y-62897983D01*
X180201330Y-62890910D01*
X180201382Y-62890378D01*
X180201971Y-62883564D01*
X180202011Y-62883032D01*
X180202455Y-62876060D01*
X180202482Y-62875543D01*
X180202754Y-62868998D01*
X180203220Y-62853846D01*
X180204946Y-62797711D01*
X180204945Y-62797682D01*
X180201496Y-62741590D01*
X180201216Y-62738994D01*
X180200500Y-62725691D01*
X180200500Y-62695973D01*
X180200065Y-62693972D01*
X180196632Y-62676716D01*
X180185877Y-62622646D01*
X180169737Y-62541503D01*
X180151425Y-62497293D01*
X180151365Y-62497148D01*
X180109402Y-62395840D01*
X180109399Y-62395833D01*
X180109397Y-62395827D01*
X180109390Y-62395814D01*
X180021789Y-62264711D01*
X180021786Y-62264707D01*
X180021781Y-62264701D01*
X179910297Y-62153217D01*
X179910291Y-62153212D01*
X179910290Y-62153211D01*
X179779191Y-62065613D01*
X179779190Y-62065612D01*
X179779185Y-62065609D01*
X179779172Y-62065602D01*
X179779165Y-62065598D01*
X179633502Y-62005264D01*
X179633471Y-62005257D01*
X179478847Y-61974500D01*
X179478845Y-61974500D01*
X179478842Y-61974500D01*
X179321158Y-61974500D01*
X179321155Y-61974500D01*
X179321153Y-61974500D01*
X179166527Y-62005257D01*
X179166496Y-62005264D01*
X179020833Y-62065598D01*
X179020824Y-62065603D01*
X179020807Y-62065613D01*
X178889708Y-62153211D01*
X178889707Y-62153212D01*
X178889701Y-62153217D01*
X178778217Y-62264701D01*
X178778212Y-62264707D01*
X178778211Y-62264708D01*
X178690613Y-62395807D01*
X178690603Y-62395824D01*
X178690598Y-62395833D01*
X178630264Y-62541496D01*
X178630257Y-62541527D01*
X178599500Y-62696150D01*
X178599500Y-62696153D01*
X178599500Y-62853846D01*
X178599500Y-62853848D01*
X178599499Y-62853848D01*
X178630257Y-63008471D01*
X178630264Y-63008502D01*
X178690598Y-63154165D01*
X178690603Y-63154174D01*
X178690613Y-63154191D01*
X178778211Y-63285290D01*
X178778212Y-63285291D01*
X178778217Y-63285297D01*
X178889701Y-63396781D01*
X178889707Y-63396786D01*
X178889708Y-63396787D01*
X179021838Y-63485074D01*
X179026431Y-63486717D01*
X179041295Y-63492874D01*
X179060035Y-63502581D01*
X179077366Y-63513523D01*
X179077379Y-63513529D01*
X179077792Y-63513763D01*
X179077863Y-63513836D01*
X179079939Y-63515147D01*
X179079623Y-63515647D01*
X179126486Y-63563869D01*
X179140726Y-63617012D01*
X179144444Y-63714561D01*
X179144534Y-63719432D01*
X179144521Y-63730348D01*
X179144521Y-63730357D01*
X179144516Y-63733603D01*
X179147787Y-63767149D01*
X179148609Y-63775588D01*
X179148915Y-63778721D01*
X179149500Y-63790752D01*
X179149500Y-64048355D01*
X179144475Y-64083299D01*
X179140070Y-64098297D01*
X179102338Y-64157031D01*
X179100967Y-64158220D01*
X179046088Y-64185706D01*
X179038533Y-64187350D01*
X179012173Y-64190185D01*
X179002132Y-64190185D01*
X179002106Y-64190186D01*
X179001818Y-64190218D01*
X178942516Y-64196592D01*
X178807666Y-64246889D01*
X178692454Y-64333137D01*
X178670148Y-64362934D01*
X178645194Y-64387888D01*
X178636140Y-64394666D01*
X178570676Y-64419084D01*
X178502403Y-64404233D01*
X178452997Y-64354829D01*
X178450637Y-64350507D01*
X178435704Y-64298707D01*
X178432512Y-64246891D01*
X178250000Y-61285336D01*
X178249999Y-61285336D01*
X178249975Y-61285336D01*
X169649999Y-61375000D01*
X169649998Y-61375000D01*
X169622462Y-63233767D01*
X169616921Y-63268629D01*
X169613118Y-63280903D01*
X169574474Y-63339113D01*
X169510494Y-63367191D01*
X169446010Y-63358256D01*
X169437357Y-63354564D01*
X169411095Y-63339316D01*
X169309977Y-63262636D01*
X169175586Y-63209639D01*
X169132242Y-63204435D01*
X169132242Y-63204434D01*
X169104476Y-63201100D01*
X169091144Y-63199500D01*
X169091140Y-63199500D01*
X168567330Y-63199500D01*
X168532389Y-63194475D01*
X168517390Y-63190070D01*
X168458644Y-63152327D01*
X168457457Y-63150958D01*
X168429977Y-63096083D01*
X168428332Y-63088521D01*
X168425500Y-63062168D01*
X168425500Y-62778579D01*
X168425500Y-62778577D01*
X168406416Y-62707354D01*
X168406416Y-62707353D01*
X168406416Y-62707352D01*
X168403415Y-62696153D01*
X168398208Y-62676718D01*
X168373914Y-62634640D01*
X168345480Y-62585391D01*
X167464609Y-61704520D01*
X167453815Y-61698288D01*
X167418946Y-61678155D01*
X167418946Y-61678156D01*
X167373285Y-61651793D01*
X167322353Y-61638146D01*
X167322352Y-61638145D01*
X167271426Y-61624500D01*
X167271423Y-61624500D01*
X167271422Y-61624500D01*
X166233970Y-61624500D01*
X166173062Y-61608510D01*
X166131839Y-61585264D01*
X166128995Y-61583610D01*
X166042266Y-61531622D01*
X166030561Y-61524952D01*
X166029665Y-61524468D01*
X166017716Y-61518339D01*
X165929084Y-61475312D01*
X165927691Y-61474550D01*
X165927667Y-61474600D01*
X165921925Y-61471729D01*
X165918510Y-61470179D01*
X165908340Y-61465242D01*
X165905080Y-61463659D01*
X165901166Y-61461793D01*
X165901159Y-61461791D01*
X165875383Y-61455127D01*
X165865472Y-61452117D01*
X165794702Y-61427354D01*
X165794701Y-61427353D01*
X165787091Y-61426639D01*
X165764269Y-61424500D01*
X165764265Y-61424500D01*
X165764263Y-61424500D01*
X164005733Y-61424500D01*
X164005729Y-61424500D01*
X163987073Y-61426249D01*
X163981068Y-61426812D01*
X163977498Y-61426978D01*
X163975296Y-61427353D01*
X163847117Y-61472206D01*
X163737848Y-61552849D01*
X163657205Y-61662118D01*
X163612352Y-61790297D01*
X163611977Y-61792499D01*
X163611811Y-61796069D01*
X163609499Y-61820730D01*
X163609499Y-62229265D01*
X163611811Y-62253929D01*
X163611977Y-62257499D01*
X163612352Y-62259699D01*
X163612352Y-62259701D01*
X163657205Y-62387880D01*
X163657206Y-62387882D01*
X163737849Y-62497150D01*
X163838261Y-62571257D01*
X163847117Y-62577793D01*
X163975298Y-62622646D01*
X163975302Y-62622647D01*
X163993741Y-62624375D01*
X164005729Y-62625500D01*
X164005733Y-62625500D01*
X164005738Y-62625500D01*
X165764269Y-62625500D01*
X165764270Y-62625500D01*
X165788919Y-62623188D01*
X165792497Y-62623020D01*
X165794701Y-62622646D01*
X165824614Y-62612177D01*
X165858789Y-62600219D01*
X165882664Y-62591864D01*
X165888385Y-62590018D01*
X165910775Y-62583393D01*
X165911708Y-62582915D01*
X165919494Y-62579582D01*
X165922877Y-62577794D01*
X165922881Y-62577793D01*
X165922884Y-62577790D01*
X165930238Y-62573905D01*
X165934502Y-62571264D01*
X166066906Y-62503590D01*
X166077780Y-62497752D01*
X166078595Y-62497293D01*
X166089016Y-62491149D01*
X166131495Y-62464956D01*
X166134747Y-62463019D01*
X166155806Y-62450916D01*
X166171342Y-62441989D01*
X166233127Y-62425500D01*
X166983611Y-62425500D01*
X167018543Y-62430521D01*
X167043787Y-62437934D01*
X167096533Y-62469230D01*
X167575573Y-62948270D01*
X167596723Y-62976522D01*
X167609331Y-62999611D01*
X167624500Y-63059040D01*
X167624500Y-63698768D01*
X167619475Y-63733709D01*
X167615564Y-63747026D01*
X167577787Y-63805802D01*
X167514229Y-63834824D01*
X167512246Y-63835109D01*
X167454727Y-63829782D01*
X167426486Y-63820190D01*
X167420874Y-63818132D01*
X167351444Y-63790752D01*
X167310588Y-63774640D01*
X167267242Y-63769435D01*
X167267242Y-63769434D01*
X167239476Y-63766100D01*
X167226144Y-63764500D01*
X167226140Y-63764500D01*
X166643860Y-63764500D01*
X166643856Y-63764500D01*
X166633245Y-63765774D01*
X166605839Y-63769064D01*
X166605840Y-63769065D01*
X166559411Y-63774640D01*
X166559407Y-63774641D01*
X166425026Y-63827634D01*
X166425023Y-63827635D01*
X166425023Y-63827636D01*
X166420919Y-63830748D01*
X166374837Y-63865692D01*
X166362928Y-63873681D01*
X166358839Y-63876093D01*
X166358832Y-63876097D01*
X166200644Y-63991702D01*
X166189559Y-63998928D01*
X166126502Y-64035396D01*
X166058614Y-64051919D01*
X166021603Y-64044427D01*
X165878553Y-63991790D01*
X165878547Y-63991788D01*
X165829447Y-63978249D01*
X165829443Y-63978248D01*
X165829432Y-63978245D01*
X165829419Y-63978242D01*
X165826906Y-63977661D01*
X165826950Y-63977466D01*
X165812804Y-63973688D01*
X165794699Y-63967353D01*
X165764269Y-63964500D01*
X165764265Y-63964500D01*
X165764263Y-63964500D01*
X164005733Y-63964500D01*
X164005729Y-63964500D01*
X163987073Y-63966249D01*
X163981068Y-63966812D01*
X163977498Y-63966978D01*
X163975294Y-63967353D01*
X163847121Y-64012204D01*
X163843171Y-64014685D01*
X163839643Y-64017722D01*
X163773378Y-64066627D01*
X163769706Y-64069235D01*
X163744630Y-64086370D01*
X163744617Y-64086380D01*
X163681457Y-64144443D01*
X163659539Y-64160542D01*
X163618038Y-64184502D01*
X163618038Y-64184503D01*
X163618036Y-64184504D01*
X163433866Y-64368673D01*
X163428885Y-64373385D01*
X163379628Y-64417473D01*
X163373272Y-64423324D01*
X163372829Y-64423743D01*
X163361921Y-64434604D01*
X163361917Y-64434609D01*
X163357729Y-64441037D01*
X163341526Y-64461012D01*
X163024510Y-64778028D01*
X163024506Y-64778033D01*
X163024504Y-64778035D01*
X162973697Y-64866037D01*
X162961905Y-64886463D01*
X162929500Y-65007400D01*
X162929500Y-65007402D01*
X162929500Y-65957670D01*
X162924475Y-65992614D01*
X162920070Y-66007612D01*
X162882327Y-66066355D01*
X162880958Y-66067542D01*
X162826097Y-66095018D01*
X162818539Y-66096663D01*
X162792168Y-66099500D01*
X161566151Y-66099500D01*
X161531215Y-66094477D01*
X161505973Y-66087065D01*
X161453228Y-66055769D01*
X161415083Y-66017624D01*
X161408016Y-66009935D01*
X161374805Y-65970597D01*
X161374797Y-65970589D01*
X161372385Y-65968243D01*
X161372366Y-65968225D01*
X161371770Y-65967646D01*
X161371722Y-65967598D01*
X161351684Y-65948113D01*
X161350687Y-65947133D01*
X161285242Y-65881912D01*
X161277102Y-65872966D01*
X161269569Y-65863828D01*
X161262008Y-65854656D01*
X161262005Y-65854653D01*
X161242494Y-65830986D01*
X161215042Y-65766737D01*
X161214177Y-65752156D01*
X161214177Y-65751715D01*
X161214177Y-65751227D01*
X161213980Y-65748211D01*
X161211544Y-65729568D01*
X161210499Y-65713501D01*
X161210499Y-65630728D01*
X161208187Y-65606079D01*
X161208019Y-65602502D01*
X161207645Y-65600300D01*
X161207645Y-65600298D01*
X161162792Y-65472119D01*
X161162791Y-65472117D01*
X161162791Y-65472116D01*
X161123008Y-65418212D01*
X161123007Y-65418211D01*
X161082150Y-65362850D01*
X161011019Y-65310353D01*
X160985896Y-65285570D01*
X160977503Y-65274516D01*
X160952642Y-65209221D01*
X160967024Y-65140858D01*
X160967606Y-65139774D01*
X160970520Y-65134350D01*
X161006125Y-65093257D01*
X161082149Y-65037150D01*
X161162792Y-64927882D01*
X161192881Y-64841892D01*
X161207645Y-64799701D01*
X161207645Y-64799699D01*
X161208019Y-64797499D01*
X161208187Y-64793919D01*
X161210499Y-64769270D01*
X161210499Y-64360728D01*
X161208187Y-64336079D01*
X161208019Y-64332502D01*
X161207645Y-64330300D01*
X161207645Y-64330298D01*
X161162792Y-64202119D01*
X161162791Y-64202117D01*
X161155413Y-64192121D01*
X161155412Y-64192117D01*
X161155411Y-64192118D01*
X161082149Y-64092850D01*
X161082148Y-64092849D01*
X161011019Y-64040353D01*
X160985896Y-64015570D01*
X160977503Y-64004516D01*
X160952642Y-63939221D01*
X160967024Y-63870858D01*
X160969799Y-63865692D01*
X160970520Y-63864350D01*
X161006125Y-63823257D01*
X161082149Y-63767150D01*
X161162792Y-63657882D01*
X161195689Y-63563869D01*
X161200603Y-63549827D01*
X161200603Y-63549824D01*
X161207645Y-63529701D01*
X161207645Y-63529699D01*
X161207645Y-63529694D01*
X161208019Y-63527497D01*
X161208187Y-63523919D01*
X161210499Y-63499270D01*
X161210499Y-63090728D01*
X161208187Y-63066079D01*
X161208019Y-63062502D01*
X161207645Y-63060297D01*
X161181128Y-62984518D01*
X161174005Y-62964163D01*
X161162792Y-62932118D01*
X161082149Y-62822850D01*
X160972881Y-62742207D01*
X160972879Y-62742206D01*
X160957801Y-62736930D01*
X160844703Y-62697354D01*
X160844701Y-62697353D01*
X160844699Y-62697353D01*
X160814269Y-62694500D01*
X160814265Y-62694500D01*
X160814263Y-62694500D01*
X159055733Y-62694500D01*
X159055729Y-62694500D01*
X159038130Y-62696150D01*
X159031068Y-62696812D01*
X159027499Y-62696978D01*
X159025296Y-62697353D01*
X158995024Y-62707945D01*
X158976030Y-62712943D01*
X158967326Y-62714508D01*
X158962936Y-62715752D01*
X158962930Y-62715754D01*
X158907152Y-62737662D01*
X158905492Y-62738410D01*
X158899621Y-62741147D01*
X158897123Y-62742203D01*
X158897109Y-62742210D01*
X158895432Y-62743238D01*
X158887103Y-62747908D01*
X158753322Y-62816289D01*
X158747660Y-62819258D01*
X158747201Y-62819505D01*
X158742194Y-62822259D01*
X158741730Y-62822520D01*
X158737329Y-62825044D01*
X158736910Y-62825289D01*
X158730811Y-62828952D01*
X158688485Y-62855050D01*
X158685197Y-62857007D01*
X158652947Y-62875543D01*
X158648656Y-62878009D01*
X158586868Y-62894500D01*
X158534788Y-62894500D01*
X158534725Y-62894499D01*
X158532821Y-62894499D01*
X158525225Y-62894499D01*
X158419771Y-62894499D01*
X158351864Y-62912695D01*
X158351863Y-62912694D01*
X158317911Y-62921792D01*
X158317910Y-62921792D01*
X158226578Y-62974524D01*
X157945530Y-63255573D01*
X157917280Y-63276722D01*
X157903048Y-63284494D01*
X157834776Y-63299348D01*
X157808682Y-63294641D01*
X157799909Y-63292065D01*
X157747163Y-63260769D01*
X157470916Y-62984522D01*
X157470914Y-62984520D01*
X157453601Y-62974524D01*
X157425251Y-62958155D01*
X157425251Y-62958156D01*
X157379590Y-62931793D01*
X157328658Y-62918146D01*
X157328657Y-62918145D01*
X157277731Y-62904500D01*
X157277728Y-62904500D01*
X157277727Y-62904500D01*
X157173971Y-62904500D01*
X157113063Y-62888510D01*
X157109470Y-62886484D01*
X157090068Y-62875543D01*
X157071840Y-62865264D01*
X157068996Y-62863610D01*
X156982267Y-62811622D01*
X156970571Y-62804957D01*
X156969683Y-62804477D01*
X156957728Y-62798344D01*
X156869046Y-62755292D01*
X156867655Y-62754535D01*
X156867632Y-62754582D01*
X156861924Y-62751728D01*
X156858490Y-62750169D01*
X156845272Y-62743752D01*
X156841517Y-62741962D01*
X156841474Y-62741942D01*
X156841424Y-62741918D01*
X156841127Y-62741779D01*
X156841118Y-62741775D01*
X156841086Y-62741760D01*
X156830223Y-62736931D01*
X156830217Y-62736930D01*
X156830215Y-62736929D01*
X156808680Y-62732252D01*
X156794044Y-62728119D01*
X156734704Y-62707353D01*
X156722528Y-62706211D01*
X156704270Y-62704500D01*
X156704266Y-62704500D01*
X156704264Y-62704500D01*
X155195734Y-62704500D01*
X155195730Y-62704500D01*
X155177074Y-62706249D01*
X155171069Y-62706812D01*
X155167499Y-62706978D01*
X155165297Y-62707353D01*
X155037118Y-62752206D01*
X154927849Y-62832849D01*
X154847206Y-62942118D01*
X154802353Y-63070297D01*
X154801978Y-63072499D01*
X154801812Y-63076069D01*
X154799500Y-63100730D01*
X154799500Y-63509269D01*
X154799928Y-63513836D01*
X154801812Y-63533929D01*
X154801978Y-63537499D01*
X154802352Y-63539701D01*
X154822057Y-63596011D01*
X154847105Y-63667591D01*
X154847207Y-63667882D01*
X154847208Y-63667884D01*
X154927849Y-63777149D01*
X154927850Y-63777150D01*
X154985422Y-63819640D01*
X155010546Y-63844422D01*
X155018941Y-63855478D01*
X155043805Y-63920774D01*
X155029420Y-63989147D01*
X155029417Y-63989153D01*
X155025921Y-63995660D01*
X154990323Y-64036742D01*
X154927851Y-64082848D01*
X154927847Y-64082852D01*
X154847206Y-64192118D01*
X154802353Y-64320297D01*
X154801978Y-64322499D01*
X154801812Y-64326069D01*
X154799500Y-64350733D01*
X154799500Y-64759265D01*
X154801812Y-64783929D01*
X154801978Y-64787499D01*
X154802352Y-64789701D01*
X154836213Y-64886464D01*
X154847206Y-64917881D01*
X154854587Y-64927882D01*
X154927850Y-65027150D01*
X155034350Y-65105750D01*
X155037118Y-65107793D01*
X155165299Y-65152646D01*
X155165303Y-65152647D01*
X155183742Y-65154375D01*
X155195730Y-65155500D01*
X155195734Y-65155500D01*
X155195739Y-65155500D01*
X156704270Y-65155500D01*
X156704271Y-65155500D01*
X156728920Y-65153188D01*
X156732491Y-65153020D01*
X156734683Y-65152647D01*
X156734699Y-65152646D01*
X156734701Y-65152646D01*
X156765585Y-65141837D01*
X156784586Y-65136838D01*
X156793028Y-65135320D01*
X156797420Y-65134075D01*
X156853143Y-65112182D01*
X156853143Y-65112181D01*
X156853148Y-65112180D01*
X156855918Y-65110932D01*
X156855987Y-65111086D01*
X156859495Y-65109584D01*
X156870245Y-65103901D01*
X156874508Y-65101260D01*
X157006709Y-65033690D01*
X157006741Y-65033673D01*
X157006765Y-65033661D01*
X157009161Y-65032407D01*
X157011711Y-65031075D01*
X157012115Y-65030859D01*
X157018184Y-65027525D01*
X157018597Y-65027292D01*
X157023766Y-65024309D01*
X157024154Y-65024080D01*
X157029213Y-65021027D01*
X157071484Y-64994962D01*
X157074698Y-64993048D01*
X157111339Y-64971989D01*
X157173125Y-64955500D01*
X157277726Y-64955500D01*
X157277728Y-64955500D01*
X157379589Y-64928207D01*
X157470914Y-64875480D01*
X157741970Y-64604423D01*
X157770214Y-64583279D01*
X157784457Y-64575502D01*
X157852726Y-64560651D01*
X157878814Y-64565357D01*
X157887589Y-64567934D01*
X157940335Y-64599230D01*
X158226587Y-64885482D01*
X158228282Y-64886460D01*
X158228289Y-64886464D01*
X158310720Y-64934055D01*
X158310723Y-64934058D01*
X158310723Y-64934057D01*
X158317911Y-64938207D01*
X158419771Y-64965501D01*
X158419773Y-64965501D01*
X158532821Y-64965501D01*
X158534725Y-64965501D01*
X158534788Y-64965500D01*
X158586026Y-64965500D01*
X158605860Y-64971324D01*
X158626514Y-64972296D01*
X158646931Y-64981488D01*
X158688187Y-65004751D01*
X158691035Y-65006407D01*
X158777513Y-65058245D01*
X158781734Y-65060713D01*
X158783247Y-65061598D01*
X158783696Y-65061854D01*
X158784964Y-65062558D01*
X158789638Y-65065154D01*
X158789660Y-65065166D01*
X158789671Y-65065172D01*
X158790148Y-65065430D01*
X158796012Y-65068520D01*
X158796468Y-65068754D01*
X158800512Y-65070773D01*
X158802536Y-65071784D01*
X158845805Y-65092789D01*
X158897517Y-65139774D01*
X158915618Y-65207258D01*
X158900886Y-65263023D01*
X158899472Y-65265655D01*
X158863876Y-65306738D01*
X158844716Y-65320880D01*
X158844712Y-65320883D01*
X158787849Y-65362850D01*
X158787846Y-65362852D01*
X158707205Y-65472118D01*
X158662352Y-65600297D01*
X158661977Y-65602499D01*
X158661811Y-65606069D01*
X158660881Y-65615995D01*
X158659499Y-65630733D01*
X158659499Y-66039269D01*
X158660271Y-66047507D01*
X158660651Y-66052763D01*
X158663111Y-66101002D01*
X158647493Y-66167850D01*
X158640401Y-66180529D01*
X158619863Y-66207675D01*
X158570538Y-66257002D01*
X158570536Y-66257004D01*
X158482004Y-66345535D01*
X158482000Y-66345540D01*
X158419407Y-66453959D01*
X158419405Y-66453963D01*
X158387000Y-66574900D01*
X158387000Y-66574902D01*
X158387000Y-66660195D01*
X158381975Y-66695139D01*
X158377570Y-66710137D01*
X158339821Y-66768886D01*
X158336176Y-66772046D01*
X158275470Y-66799786D01*
X158275609Y-66800601D01*
X158265297Y-66802353D01*
X158137118Y-66847206D01*
X158027849Y-66927849D01*
X157947206Y-67037117D01*
X157937528Y-67064774D01*
X157896804Y-67121549D01*
X157831850Y-67147293D01*
X157768286Y-67136291D01*
X157623159Y-67068935D01*
X157623144Y-67068929D01*
X157581764Y-67056359D01*
X157572323Y-67053070D01*
X157545301Y-67042413D01*
X157525586Y-67034639D01*
X157482242Y-67029435D01*
X157482242Y-67029434D01*
X157454476Y-67026100D01*
X157441144Y-67024500D01*
X157441140Y-67024500D01*
X156858860Y-67024500D01*
X156858856Y-67024500D01*
X156848245Y-67025774D01*
X156820839Y-67029064D01*
X156820840Y-67029065D01*
X156774412Y-67034639D01*
X156640021Y-67087636D01*
X156524920Y-67174920D01*
X156437636Y-67290021D01*
X156402305Y-67379615D01*
X156384640Y-67424411D01*
X156379628Y-67466154D01*
X156374500Y-67508856D01*
X156374500Y-67508861D01*
X156374500Y-67644827D01*
X156374146Y-67654191D01*
X156373318Y-67665123D01*
X156373761Y-67669163D01*
X156374500Y-67682680D01*
X156374500Y-67741326D01*
X156369476Y-67776266D01*
X156367057Y-67784503D01*
X156329280Y-67843280D01*
X156265723Y-67872302D01*
X156196565Y-67862355D01*
X156146886Y-67821226D01*
X156140499Y-67812207D01*
X156134934Y-67803413D01*
X156126111Y-67791778D01*
X156123723Y-67788520D01*
X156117055Y-67779105D01*
X156112605Y-67773968D01*
X156104198Y-67762882D01*
X156055599Y-67698794D01*
X156042922Y-67682076D01*
X155922345Y-67590640D01*
X155922339Y-67590637D01*
X155826192Y-67552721D01*
X155826191Y-67552721D01*
X155782543Y-67535508D01*
X155780583Y-67534716D01*
X155780311Y-67534603D01*
X155774199Y-67534238D01*
X155735926Y-67529642D01*
X155735925Y-67529641D01*
X155708220Y-67526315D01*
X155693102Y-67524500D01*
X155693098Y-67524500D01*
X155106901Y-67524500D01*
X155106898Y-67524500D01*
X155096560Y-67525741D01*
X155067853Y-67529187D01*
X155067853Y-67529188D01*
X155061920Y-67529900D01*
X155018439Y-67535121D01*
X154877653Y-67590640D01*
X154757076Y-67682076D01*
X154665640Y-67802653D01*
X154610121Y-67943439D01*
X154607203Y-67967744D01*
X154604188Y-67992853D01*
X154603548Y-67998188D01*
X154599500Y-68031901D01*
X154599500Y-68290622D01*
X154595244Y-68319371D01*
X154595769Y-68319479D01*
X154594619Y-68325103D01*
X154586446Y-68399706D01*
X154586445Y-68399719D01*
X154583266Y-68428734D01*
X154578236Y-68452606D01*
X154575765Y-68460423D01*
X154575763Y-68460429D01*
X154543156Y-68563533D01*
X154535658Y-68581955D01*
X154460417Y-68731232D01*
X154451916Y-68745600D01*
X154334858Y-68916114D01*
X154325799Y-68927759D01*
X154204546Y-69065823D01*
X154204541Y-69065829D01*
X154201634Y-69070674D01*
X154182995Y-69094543D01*
X153620917Y-69656621D01*
X153592661Y-69677773D01*
X153578940Y-69685265D01*
X153510676Y-69700117D01*
X153505722Y-69699762D01*
X153496191Y-69699081D01*
X153459543Y-69690751D01*
X153381326Y-69659906D01*
X153379365Y-69659114D01*
X153379093Y-69659001D01*
X153372974Y-69658635D01*
X153331306Y-69653631D01*
X153296903Y-69649500D01*
X153296902Y-69649500D01*
X152703098Y-69649500D01*
X152643798Y-69656621D01*
X152627017Y-69658636D01*
X152623063Y-69658872D01*
X152619650Y-69659521D01*
X152486867Y-69711884D01*
X152486865Y-69711885D01*
X152373131Y-69798131D01*
X152286885Y-69911865D01*
X152286884Y-69911867D01*
X152234521Y-70044650D01*
X152233872Y-70048065D01*
X152233635Y-70052025D01*
X152224500Y-70128095D01*
X152224500Y-70646902D01*
X152233635Y-70722972D01*
X152233925Y-70727827D01*
X152234815Y-70731598D01*
X152236521Y-70735421D01*
X152271650Y-70824499D01*
X152285259Y-70859010D01*
X152286886Y-70863134D01*
X152316922Y-70902743D01*
X152373128Y-70976863D01*
X152373130Y-70976864D01*
X152373132Y-70976867D01*
X152447444Y-71033219D01*
X152490242Y-71065674D01*
X152489913Y-71066106D01*
X152504780Y-71078350D01*
X152506872Y-71080495D01*
X152515764Y-71089610D01*
X152548485Y-71151343D01*
X152542636Y-71220968D01*
X152542623Y-71221003D01*
X152542306Y-71221821D01*
X152507885Y-71270728D01*
X152502897Y-71275050D01*
X152489715Y-71285015D01*
X152486878Y-71286875D01*
X152373132Y-71373131D01*
X152373128Y-71373136D01*
X152286885Y-71486865D01*
X152286884Y-71486867D01*
X152234521Y-71619650D01*
X152233872Y-71623065D01*
X152233635Y-71627025D01*
X152224500Y-71703095D01*
X152224500Y-72221902D01*
X152233635Y-72297972D01*
X152233925Y-72302827D01*
X152234815Y-72306598D01*
X152236521Y-72310421D01*
X152282545Y-72427130D01*
X152282546Y-72427130D01*
X152286885Y-72438132D01*
X152286887Y-72438136D01*
X152341301Y-72509891D01*
X152360821Y-72535633D01*
X152370350Y-72548198D01*
X152370774Y-72549032D01*
X152374147Y-72553386D01*
X152508392Y-72697103D01*
X152539770Y-72759531D01*
X152532415Y-72829012D01*
X152510016Y-72864619D01*
X152503788Y-72871551D01*
X152493196Y-72882004D01*
X152433860Y-72933915D01*
X152425054Y-72942137D01*
X152422578Y-72944208D01*
X152422325Y-72944610D01*
X152421816Y-72944846D01*
X152414749Y-72950762D01*
X152392461Y-72967447D01*
X152392450Y-72967456D01*
X152306205Y-73082665D01*
X152306203Y-73082669D01*
X152306200Y-73082673D01*
X152255911Y-73217507D01*
X152255908Y-73217520D01*
X152249501Y-73277116D01*
X152249501Y-73277123D01*
X152249500Y-73277135D01*
X152249500Y-73772876D01*
X152249659Y-73774806D01*
X152249885Y-73776454D01*
X152255907Y-73832482D01*
X152283690Y-73906971D01*
X152306202Y-73967328D01*
X152306203Y-73967330D01*
X152306204Y-73967332D01*
X152306205Y-73967333D01*
X152392450Y-74082542D01*
X152392452Y-74082544D01*
X152392455Y-74082547D01*
X152507664Y-74168793D01*
X152507671Y-74168797D01*
X152552618Y-74185561D01*
X152642517Y-74219091D01*
X152702127Y-74225500D01*
X153347872Y-74225499D01*
X153407483Y-74219091D01*
X153542331Y-74168796D01*
X153657546Y-74082546D01*
X153743796Y-73967331D01*
X153794091Y-73832483D01*
X153800500Y-73772873D01*
X153800499Y-73277128D01*
X153794091Y-73217517D01*
X153790075Y-73206750D01*
X153743797Y-73082671D01*
X153743793Y-73082664D01*
X153657547Y-72967455D01*
X153657544Y-72967452D01*
X153657543Y-72967451D01*
X153657537Y-72967446D01*
X153633908Y-72949757D01*
X153617864Y-72935413D01*
X153617463Y-72934987D01*
X153617458Y-72934982D01*
X153617456Y-72934980D01*
X153559262Y-72883521D01*
X153522083Y-72824368D01*
X153522785Y-72754501D01*
X153542264Y-72716153D01*
X153599816Y-72639547D01*
X153608612Y-72627213D01*
X153609260Y-72626255D01*
X153609269Y-72626242D01*
X153614562Y-72617984D01*
X153617379Y-72613590D01*
X153669989Y-72526902D01*
X153677569Y-72513679D01*
X153678122Y-72512656D01*
X153684986Y-72499171D01*
X153729683Y-72405697D01*
X153740091Y-72370929D01*
X153743517Y-72361036D01*
X153765479Y-72305346D01*
X153775500Y-72221902D01*
X153775500Y-71703098D01*
X153773703Y-71688132D01*
X153772655Y-71679411D01*
X153772654Y-71679410D01*
X153767786Y-71638862D01*
X153765479Y-71619654D01*
X153713115Y-71486868D01*
X153704596Y-71475634D01*
X153626867Y-71373132D01*
X153626866Y-71373131D01*
X153626863Y-71373128D01*
X153509757Y-71284325D01*
X153510081Y-71283896D01*
X153495215Y-71271645D01*
X153484234Y-71260388D01*
X153451513Y-71198654D01*
X153457353Y-71129052D01*
X153457670Y-71128234D01*
X153492117Y-71079269D01*
X153496315Y-71075632D01*
X153505244Y-71069529D01*
X153505036Y-71069255D01*
X153626867Y-70976867D01*
X153646456Y-70951034D01*
X153660590Y-70935366D01*
X153664678Y-70931546D01*
X153713522Y-70865163D01*
X153731358Y-70845674D01*
X153743761Y-70834735D01*
X153763763Y-70820359D01*
X153854464Y-70767995D01*
X153858107Y-70764351D01*
X153860184Y-70762275D01*
X153869209Y-70754095D01*
X153884710Y-70741375D01*
X153903910Y-70725620D01*
X154141479Y-70488052D01*
X154146407Y-70483009D01*
X154152358Y-70473875D01*
X154168566Y-70453890D01*
X154857260Y-69765195D01*
X154880628Y-69746860D01*
X154886339Y-69743396D01*
X154934743Y-69700068D01*
X154943855Y-69692661D01*
X155003936Y-69648396D01*
X155013776Y-69641848D01*
X155072971Y-69606415D01*
X155085213Y-69599986D01*
X155114403Y-69586676D01*
X155165848Y-69575500D01*
X155693097Y-69575500D01*
X155693102Y-69575500D01*
X155781564Y-69564877D01*
X155922342Y-69509361D01*
X155962311Y-69479051D01*
X156024635Y-69431789D01*
X156040129Y-69421764D01*
X156051692Y-69415450D01*
X156063391Y-69409061D01*
X156131663Y-69394209D01*
X156197128Y-69418625D01*
X156239000Y-69474557D01*
X156240676Y-69479051D01*
X156241682Y-69481747D01*
X156249500Y-69525081D01*
X156249500Y-71162412D01*
X156246821Y-71184761D01*
X156247125Y-71184806D01*
X156246290Y-71190475D01*
X156246289Y-71190478D01*
X156236793Y-71254949D01*
X156236793Y-71254950D01*
X156236792Y-71254955D01*
X156233630Y-71276414D01*
X156227327Y-71301157D01*
X156151222Y-71507990D01*
X156151220Y-71507998D01*
X156148015Y-71526273D01*
X156142922Y-71545800D01*
X156127353Y-71590294D01*
X156126978Y-71592500D01*
X156126812Y-71596069D01*
X156124500Y-71620730D01*
X156124500Y-73129269D01*
X156126657Y-73152275D01*
X156126812Y-73153929D01*
X156126978Y-73157499D01*
X156127352Y-73159701D01*
X156155933Y-73241375D01*
X156170491Y-73282978D01*
X156172207Y-73287882D01*
X156252850Y-73397150D01*
X156324789Y-73450243D01*
X156362118Y-73477793D01*
X156490299Y-73522646D01*
X156490303Y-73522647D01*
X156508742Y-73524375D01*
X156520730Y-73525500D01*
X156520734Y-73525500D01*
X156520739Y-73525500D01*
X156929270Y-73525500D01*
X156929271Y-73525500D01*
X156953920Y-73523188D01*
X156957497Y-73523020D01*
X156959700Y-73522646D01*
X156959701Y-73522646D01*
X157025847Y-73499500D01*
X157087882Y-73477793D01*
X157197150Y-73397150D01*
X157277793Y-73287882D01*
X157291431Y-73248906D01*
X157310919Y-73193216D01*
X157310919Y-73193213D01*
X157322646Y-73159701D01*
X157322646Y-73159699D01*
X157323020Y-73157499D01*
X157323188Y-73153919D01*
X157325500Y-73129270D01*
X157325500Y-71620728D01*
X157323188Y-71596079D01*
X157323020Y-71592502D01*
X157322646Y-71590299D01*
X157322646Y-71590298D01*
X157306364Y-71543768D01*
X157301390Y-71524905D01*
X157297937Y-71505829D01*
X157290799Y-71486867D01*
X157224911Y-71311826D01*
X157222729Y-71306030D01*
X157218235Y-71291412D01*
X157211310Y-71262692D01*
X157208318Y-71244328D01*
X157208062Y-71241369D01*
X157205285Y-71209316D01*
X157204704Y-71207145D01*
X157200500Y-71175127D01*
X157200500Y-69095730D01*
X157899500Y-69095730D01*
X157899500Y-69504269D01*
X157900104Y-69510707D01*
X157901812Y-69528929D01*
X157901978Y-69532499D01*
X157902353Y-69534699D01*
X157902353Y-69534701D01*
X157947206Y-69662880D01*
X157947207Y-69662882D01*
X158027850Y-69772150D01*
X158128087Y-69846128D01*
X158137118Y-69852793D01*
X158265299Y-69897646D01*
X158265303Y-69897647D01*
X158283742Y-69899375D01*
X158295730Y-69900500D01*
X158295734Y-69900500D01*
X158295739Y-69900500D01*
X159429270Y-69900500D01*
X159429271Y-69900500D01*
X159453920Y-69898188D01*
X159457498Y-69898020D01*
X159459699Y-69897646D01*
X159459701Y-69897646D01*
X159523790Y-69875219D01*
X159587882Y-69852793D01*
X159697150Y-69772150D01*
X159777793Y-69662882D01*
X159810618Y-69569073D01*
X159822646Y-69534701D01*
X159822646Y-69534699D01*
X159823020Y-69532499D01*
X159823188Y-69528919D01*
X159825500Y-69504270D01*
X159825500Y-69095728D01*
X159823188Y-69071079D01*
X159823423Y-69069870D01*
X159822646Y-69065297D01*
X159783985Y-68954815D01*
X159783984Y-68954812D01*
X159783544Y-68953556D01*
X159777793Y-68937118D01*
X159697150Y-68827850D01*
X159587882Y-68747207D01*
X159587880Y-68747206D01*
X159571216Y-68741375D01*
X159459704Y-68702354D01*
X159459702Y-68702353D01*
X159459700Y-68702353D01*
X159429270Y-68699500D01*
X159429266Y-68699500D01*
X159429264Y-68699500D01*
X158295734Y-68699500D01*
X158295730Y-68699500D01*
X158277074Y-68701249D01*
X158271069Y-68701812D01*
X158269862Y-68701577D01*
X158265297Y-68702353D01*
X158137118Y-68747206D01*
X158027849Y-68827849D01*
X157947206Y-68937118D01*
X157902353Y-69065297D01*
X157901978Y-69067499D01*
X157901812Y-69071069D01*
X157899500Y-69095730D01*
X157200500Y-69095730D01*
X157200500Y-68899995D01*
X157200501Y-68899944D01*
X157200501Y-68753120D01*
X157200500Y-68753046D01*
X157200500Y-68667329D01*
X157205523Y-68632393D01*
X157209927Y-68617395D01*
X157247672Y-68558644D01*
X157249041Y-68557457D01*
X157303898Y-68529981D01*
X157307882Y-68529114D01*
X157330371Y-68526339D01*
X157351086Y-68525692D01*
X157355339Y-68525560D01*
X157359207Y-68525500D01*
X157441145Y-68525500D01*
X157493364Y-68519229D01*
X157525590Y-68515359D01*
X157591050Y-68489544D01*
X157604068Y-68485228D01*
X157627387Y-68478905D01*
X157845963Y-68373428D01*
X157853402Y-68369713D01*
X157853975Y-68369417D01*
X157861501Y-68365395D01*
X157922278Y-68331814D01*
X157925442Y-68330126D01*
X158043714Y-68269261D01*
X158085710Y-68256398D01*
X158101006Y-68254568D01*
X158101013Y-68254566D01*
X158106064Y-68253530D01*
X158106223Y-68254306D01*
X158132690Y-68250500D01*
X158550099Y-68250500D01*
X158550101Y-68250500D01*
X158671036Y-68218095D01*
X158779464Y-68155495D01*
X158885538Y-68049420D01*
X158913785Y-68028275D01*
X158936877Y-68015667D01*
X158996302Y-68000500D01*
X159429271Y-68000500D01*
X159453920Y-67998188D01*
X159457496Y-67998020D01*
X159459696Y-67997646D01*
X159459699Y-67997646D01*
X159459701Y-67997646D01*
X159538178Y-67970185D01*
X159587882Y-67952793D01*
X159697150Y-67872150D01*
X159777793Y-67762882D01*
X159800219Y-67698790D01*
X159822646Y-67634701D01*
X159822646Y-67634699D01*
X159823020Y-67632499D01*
X159823188Y-67628919D01*
X159825500Y-67604270D01*
X159825500Y-67195728D01*
X159823188Y-67171079D01*
X159823423Y-67169870D01*
X159822646Y-67165300D01*
X159822646Y-67165298D01*
X159777793Y-67037119D01*
X159777792Y-67037117D01*
X159775964Y-67034640D01*
X159775964Y-67034639D01*
X159697151Y-66927851D01*
X159697148Y-66927849D01*
X159587882Y-66847207D01*
X159587881Y-66847206D01*
X159579687Y-66842873D01*
X159580024Y-66842234D01*
X159565123Y-66833926D01*
X159555413Y-66826961D01*
X159544361Y-66812808D01*
X159539570Y-66809362D01*
X159537420Y-66803918D01*
X159512412Y-66771891D01*
X159506010Y-66702316D01*
X159538240Y-66640324D01*
X159539893Y-66638635D01*
X159615672Y-66562658D01*
X159623302Y-66555625D01*
X159693580Y-66496123D01*
X159711370Y-66483569D01*
X159757883Y-66456533D01*
X159789778Y-66445978D01*
X159798450Y-66441662D01*
X159801732Y-66442022D01*
X159806246Y-66440528D01*
X159813521Y-66439705D01*
X159813526Y-66439703D01*
X159813530Y-66439703D01*
X159818440Y-66438741D01*
X159818536Y-66439232D01*
X159845579Y-66435500D01*
X160377113Y-66435500D01*
X160404233Y-66438501D01*
X160408422Y-66439441D01*
X160408441Y-66439443D01*
X160408445Y-66439444D01*
X160432033Y-66442343D01*
X160468883Y-66452834D01*
X160474435Y-66455397D01*
X160498002Y-66469644D01*
X160564142Y-66520457D01*
X160575666Y-66530499D01*
X160620674Y-66574900D01*
X160632454Y-66586521D01*
X160666354Y-66647616D01*
X160661843Y-66717340D01*
X160620353Y-66773556D01*
X160589980Y-66790494D01*
X160581289Y-66793845D01*
X160548313Y-66801600D01*
X160546127Y-66801806D01*
X160542518Y-66801975D01*
X160540297Y-66802353D01*
X160412118Y-66847206D01*
X160302849Y-66927849D01*
X160222206Y-67037118D01*
X160177353Y-67165297D01*
X160176978Y-67167499D01*
X160176812Y-67171069D01*
X160174500Y-67195733D01*
X160174500Y-67604265D01*
X160176812Y-67628929D01*
X160176978Y-67632499D01*
X160177352Y-67634701D01*
X160220902Y-67759153D01*
X160222206Y-67762879D01*
X160222209Y-67762885D01*
X160302848Y-67872148D01*
X160302849Y-67872148D01*
X160302850Y-67872150D01*
X160316053Y-67881894D01*
X160412118Y-67952793D01*
X160540299Y-67997646D01*
X160540303Y-67997647D01*
X160558742Y-67999375D01*
X160570730Y-68000500D01*
X160570734Y-68000500D01*
X160570739Y-68000500D01*
X161704270Y-68000500D01*
X161704274Y-68000500D01*
X161734690Y-67997647D01*
X161734690Y-67997646D01*
X161734699Y-67997646D01*
X161773025Y-67984235D01*
X161839685Y-67960910D01*
X161859860Y-67955707D01*
X161880196Y-67952252D01*
X161900965Y-67950500D01*
X162003783Y-67950500D01*
X162038710Y-67955521D01*
X162049563Y-67958707D01*
X162108344Y-67996477D01*
X162137373Y-68060031D01*
X162127434Y-68129190D01*
X162127433Y-68129192D01*
X162124248Y-68136167D01*
X162099132Y-68172342D01*
X161620901Y-68650573D01*
X161592650Y-68671722D01*
X161569562Y-68684330D01*
X161510132Y-68699500D01*
X160570730Y-68699500D01*
X160552074Y-68701249D01*
X160546069Y-68701812D01*
X160542499Y-68701978D01*
X160540297Y-68702353D01*
X160412118Y-68747206D01*
X160302849Y-68827849D01*
X160222206Y-68937118D01*
X160177353Y-69065297D01*
X160176978Y-69067499D01*
X160176812Y-69071069D01*
X160174500Y-69095730D01*
X160174500Y-69504269D01*
X160175104Y-69510707D01*
X160176812Y-69528929D01*
X160176978Y-69532499D01*
X160177353Y-69534699D01*
X160177353Y-69534701D01*
X160222206Y-69662880D01*
X160222207Y-69662882D01*
X160302850Y-69772150D01*
X160403087Y-69846128D01*
X160412118Y-69852793D01*
X160540299Y-69897646D01*
X160540303Y-69897647D01*
X160558742Y-69899375D01*
X160570730Y-69900500D01*
X160570734Y-69900500D01*
X160570739Y-69900500D01*
X161704270Y-69900500D01*
X161704274Y-69900500D01*
X161734693Y-69897647D01*
X161734694Y-69897646D01*
X161734699Y-69897646D01*
X161862882Y-69852793D01*
X161862884Y-69852791D01*
X161863486Y-69852473D01*
X161882388Y-69841083D01*
X161902977Y-69831167D01*
X161924688Y-69823110D01*
X161962485Y-69812984D01*
X162088015Y-69740510D01*
X162346236Y-69482287D01*
X162353745Y-69475376D01*
X162376631Y-69455997D01*
X162386212Y-69447534D01*
X162386924Y-69446878D01*
X162400868Y-69433181D01*
X162404137Y-69428162D01*
X162420346Y-69408176D01*
X162938485Y-68890036D01*
X162957834Y-68874245D01*
X162968813Y-68866997D01*
X163113043Y-68727585D01*
X163120663Y-68720808D01*
X163300786Y-68573475D01*
X163311920Y-68565360D01*
X163390908Y-68514284D01*
X163402872Y-68507461D01*
X163477978Y-68470005D01*
X163495142Y-68462996D01*
X163553662Y-68444069D01*
X163577520Y-68438880D01*
X163648400Y-68430658D01*
X163656069Y-68428840D01*
X163684659Y-68425500D01*
X163793097Y-68425500D01*
X163793102Y-68425500D01*
X163881564Y-68414877D01*
X163935463Y-68393621D01*
X163953469Y-68388060D01*
X163973619Y-68383480D01*
X164184437Y-68292269D01*
X164186119Y-68291557D01*
X164252427Y-68264113D01*
X164252428Y-68264113D01*
X164396150Y-68204623D01*
X164410745Y-68199622D01*
X164412210Y-68199219D01*
X164412219Y-68199219D01*
X164444439Y-68190372D01*
X164444440Y-68190373D01*
X164450084Y-68188823D01*
X164470469Y-68185024D01*
X164520114Y-68180021D01*
X164520116Y-68180020D01*
X164520119Y-68180020D01*
X164525337Y-68179038D01*
X164525389Y-68179314D01*
X164553292Y-68175500D01*
X164838091Y-68175500D01*
X164861244Y-68177681D01*
X164873550Y-68180020D01*
X164883784Y-68181965D01*
X164906120Y-68188429D01*
X164938511Y-68201202D01*
X164974410Y-68215359D01*
X165037744Y-68222964D01*
X165058855Y-68225500D01*
X165058856Y-68225500D01*
X165058862Y-68225500D01*
X165641138Y-68225500D01*
X165641144Y-68225500D01*
X165725590Y-68215359D01*
X165859975Y-68162364D01*
X165886368Y-68142349D01*
X165917231Y-68125244D01*
X165928997Y-68120772D01*
X165998653Y-68115353D01*
X166060184Y-68148455D01*
X166093102Y-68205634D01*
X166095551Y-68215109D01*
X166099500Y-68246148D01*
X166099500Y-70120170D01*
X166094475Y-70155114D01*
X166090070Y-70170112D01*
X166052389Y-70228802D01*
X166051873Y-70229250D01*
X165988346Y-70258337D01*
X165975138Y-70259532D01*
X165965571Y-70259884D01*
X165954428Y-70259793D01*
X165929821Y-70258484D01*
X165929806Y-70258484D01*
X165897819Y-70258570D01*
X165895686Y-70258576D01*
X165895360Y-70258595D01*
X165893078Y-70258729D01*
X165893070Y-70258729D01*
X165893068Y-70258730D01*
X165893059Y-70258730D01*
X165873375Y-70260977D01*
X165871427Y-70261200D01*
X165857366Y-70262000D01*
X165778098Y-70262000D01*
X165709553Y-70270231D01*
X165702017Y-70271136D01*
X165698063Y-70271372D01*
X165694650Y-70272021D01*
X165561867Y-70324384D01*
X165561865Y-70324385D01*
X165448131Y-70410631D01*
X165361890Y-70524359D01*
X165361880Y-70524373D01*
X165359611Y-70530128D01*
X165342121Y-70560785D01*
X165333600Y-70571736D01*
X165276896Y-70612558D01*
X165207181Y-70616255D01*
X165206526Y-70616100D01*
X165153010Y-70588385D01*
X165148001Y-70583962D01*
X165130814Y-70565328D01*
X165116878Y-70546711D01*
X165116878Y-70546710D01*
X165057548Y-70467457D01*
X165057547Y-70467456D01*
X165057546Y-70467454D01*
X165034709Y-70450358D01*
X164981643Y-70410632D01*
X164942337Y-70381207D01*
X164942334Y-70381205D01*
X164942325Y-70381200D01*
X164809579Y-70331690D01*
X164806562Y-70330503D01*
X164800871Y-70330198D01*
X164747883Y-70324501D01*
X164747881Y-70324500D01*
X164747873Y-70324500D01*
X164747865Y-70324500D01*
X164102123Y-70324500D01*
X164100192Y-70324659D01*
X164098545Y-70324885D01*
X164049121Y-70330198D01*
X164042516Y-70330908D01*
X163907677Y-70381200D01*
X163907666Y-70381204D01*
X163907665Y-70381205D01*
X163792456Y-70467450D01*
X163792450Y-70467456D01*
X163706205Y-70582665D01*
X163706203Y-70582669D01*
X163706200Y-70582673D01*
X163655911Y-70717507D01*
X163655908Y-70717520D01*
X163649501Y-70777116D01*
X163649500Y-70777135D01*
X163649500Y-71272876D01*
X163649659Y-71274806D01*
X163649885Y-71276454D01*
X163655907Y-71332482D01*
X163674420Y-71382117D01*
X163706202Y-71467328D01*
X163706206Y-71467335D01*
X163735022Y-71505828D01*
X163792450Y-71582542D01*
X163792456Y-71582548D01*
X163805749Y-71592499D01*
X163907664Y-71668793D01*
X163907671Y-71668797D01*
X163936132Y-71679412D01*
X164042517Y-71719091D01*
X164102127Y-71725500D01*
X164320034Y-71725499D01*
X164331275Y-71726009D01*
X164342273Y-71727011D01*
X164407251Y-71752692D01*
X164448031Y-71809426D01*
X164451664Y-71879202D01*
X164416996Y-71939864D01*
X164355036Y-71972154D01*
X164331031Y-71974500D01*
X164102123Y-71974500D01*
X164100192Y-71974659D01*
X164098545Y-71974885D01*
X164042516Y-71980908D01*
X163907666Y-72031204D01*
X163907665Y-72031205D01*
X163792456Y-72117450D01*
X163792450Y-72117456D01*
X163706205Y-72232665D01*
X163706201Y-72232671D01*
X163706200Y-72232673D01*
X163655911Y-72367507D01*
X163655908Y-72367520D01*
X163649501Y-72427116D01*
X163649500Y-72427130D01*
X163649500Y-72765915D01*
X163644476Y-72800853D01*
X163641289Y-72811706D01*
X163603514Y-72870483D01*
X163539957Y-72899506D01*
X163470807Y-72889565D01*
X163463829Y-72886378D01*
X163427657Y-72861264D01*
X161470915Y-70904522D01*
X161470913Y-70904520D01*
X161460119Y-70898288D01*
X161425250Y-70878155D01*
X161425250Y-70878156D01*
X161379589Y-70851793D01*
X161300474Y-70830595D01*
X161300471Y-70830594D01*
X161277728Y-70824500D01*
X161277727Y-70824500D01*
X161277726Y-70824500D01*
X160196738Y-70824500D01*
X160196675Y-70824499D01*
X160194771Y-70824499D01*
X160187175Y-70824499D01*
X160081721Y-70824499D01*
X160013814Y-70842695D01*
X160013813Y-70842694D01*
X159979861Y-70851792D01*
X159979860Y-70851792D01*
X159888530Y-70904523D01*
X159813966Y-70979089D01*
X159813965Y-70979089D01*
X159605925Y-71187128D01*
X159577674Y-71208278D01*
X159563350Y-71216100D01*
X159496336Y-71231037D01*
X159478400Y-71229938D01*
X159460016Y-71227383D01*
X159459700Y-71227353D01*
X159459699Y-71227353D01*
X159429270Y-71224500D01*
X159429266Y-71224500D01*
X159429264Y-71224500D01*
X159020734Y-71224500D01*
X159020730Y-71224500D01*
X159002074Y-71226249D01*
X158996069Y-71226812D01*
X158992499Y-71226978D01*
X158990297Y-71227353D01*
X158862118Y-71272206D01*
X158752849Y-71352849D01*
X158672206Y-71462118D01*
X158627353Y-71590297D01*
X158626978Y-71592499D01*
X158626812Y-71596069D01*
X158624500Y-71620730D01*
X158624500Y-73129269D01*
X158626657Y-73152275D01*
X158626812Y-73153929D01*
X158626978Y-73157499D01*
X158627352Y-73159701D01*
X158655933Y-73241375D01*
X158670491Y-73282978D01*
X158672207Y-73287882D01*
X158752850Y-73397150D01*
X158824789Y-73450243D01*
X158862118Y-73477793D01*
X158990299Y-73522646D01*
X158990303Y-73522647D01*
X159008742Y-73524375D01*
X159020730Y-73525500D01*
X159020734Y-73525500D01*
X159020739Y-73525500D01*
X159429270Y-73525500D01*
X159429271Y-73525500D01*
X159453920Y-73523188D01*
X159457497Y-73523020D01*
X159459700Y-73522646D01*
X159459701Y-73522646D01*
X159525847Y-73499500D01*
X159587882Y-73477793D01*
X159697150Y-73397150D01*
X159739645Y-73339570D01*
X159764424Y-73314451D01*
X159775482Y-73306055D01*
X159840777Y-73281193D01*
X159909148Y-73295578D01*
X159915659Y-73299076D01*
X159956740Y-73334675D01*
X159991879Y-73382287D01*
X159991881Y-73382288D01*
X160002848Y-73397148D01*
X160002849Y-73397148D01*
X160002850Y-73397150D01*
X160112118Y-73477793D01*
X160154845Y-73492744D01*
X160203199Y-73509664D01*
X160240299Y-73522646D01*
X160240303Y-73522647D01*
X160258742Y-73524375D01*
X160270730Y-73525500D01*
X160270734Y-73525500D01*
X160270739Y-73525500D01*
X160679270Y-73525500D01*
X160679271Y-73525500D01*
X160703920Y-73523188D01*
X160707497Y-73523020D01*
X160709700Y-73522646D01*
X160709701Y-73522646D01*
X160775847Y-73499500D01*
X160837882Y-73477793D01*
X160947150Y-73397150D01*
X161027793Y-73287882D01*
X161041431Y-73248906D01*
X161060919Y-73193216D01*
X161060919Y-73193213D01*
X161072646Y-73159701D01*
X161072646Y-73159699D01*
X161073020Y-73157499D01*
X161073188Y-73153919D01*
X161075500Y-73129270D01*
X161075500Y-73034084D01*
X161080521Y-72999157D01*
X161083707Y-72988304D01*
X161121477Y-72929523D01*
X161185031Y-72900494D01*
X161254186Y-72910432D01*
X161261172Y-72913622D01*
X161297342Y-72938735D01*
X163654087Y-75295480D01*
X163745412Y-75348207D01*
X163847273Y-75375500D01*
X163952727Y-75375500D01*
X165977563Y-75375500D01*
X166012495Y-75380521D01*
X166037739Y-75387934D01*
X166090485Y-75419230D01*
X167446466Y-76775211D01*
X167467615Y-76803461D01*
X167473036Y-76813388D01*
X167487890Y-76881661D01*
X167463476Y-76947126D01*
X167407544Y-76988999D01*
X167407540Y-76989001D01*
X167400352Y-76991682D01*
X167357018Y-76999500D01*
X152008121Y-76999500D01*
X152002691Y-76999381D01*
X151997284Y-76999144D01*
X151991906Y-76998791D01*
X151842637Y-76985731D01*
X151831915Y-76984320D01*
X151830095Y-76983999D01*
X151821293Y-76982447D01*
X151810734Y-76980106D01*
X151698854Y-76950128D01*
X151673859Y-76943431D01*
X151663545Y-76940179D01*
X151657652Y-76938034D01*
X151653396Y-76936485D01*
X151643408Y-76932347D01*
X151514994Y-76872466D01*
X151505401Y-76867472D01*
X151496051Y-76862074D01*
X151486934Y-76856267D01*
X151370846Y-76774981D01*
X151362270Y-76768400D01*
X151354005Y-76761465D01*
X151346029Y-76754156D01*
X151245842Y-76653969D01*
X151238533Y-76645993D01*
X151231598Y-76637728D01*
X151225019Y-76629155D01*
X151143727Y-76513058D01*
X151137924Y-76503947D01*
X151132526Y-76494597D01*
X151127532Y-76485004D01*
X151067651Y-76356590D01*
X151063513Y-76346602D01*
X151059814Y-76336439D01*
X151056569Y-76326146D01*
X151022903Y-76200500D01*
X151022902Y-76200498D01*
X151019895Y-76189275D01*
X151017551Y-76178702D01*
X151015678Y-76168077D01*
X151014267Y-76157357D01*
X151001208Y-76008093D01*
X151000854Y-76002690D01*
X151000618Y-75997280D01*
X151000500Y-75991876D01*
X151000500Y-61908122D01*
X151000618Y-61902718D01*
X151000854Y-61897308D01*
X151001208Y-61891905D01*
X151007435Y-61820730D01*
X151010097Y-61790297D01*
X151014268Y-61742622D01*
X151015678Y-61731915D01*
X151017552Y-61721287D01*
X151019892Y-61710733D01*
X151032918Y-61662118D01*
X151056571Y-61573842D01*
X151059815Y-61563554D01*
X151063518Y-61553383D01*
X151067643Y-61543425D01*
X151127541Y-61414973D01*
X151132530Y-61405392D01*
X151137929Y-61396042D01*
X151143715Y-61386957D01*
X151225022Y-61270839D01*
X151231591Y-61262279D01*
X151231599Y-61262270D01*
X151238534Y-61254004D01*
X151245829Y-61246042D01*
X151346042Y-61145829D01*
X151354005Y-61138533D01*
X151362279Y-61131591D01*
X151370839Y-61125022D01*
X151486957Y-61043715D01*
X151496042Y-61037929D01*
X151505399Y-61032526D01*
X151514983Y-61027537D01*
X151643418Y-60967647D01*
X151653399Y-60963512D01*
X151663550Y-60959816D01*
X151673836Y-60956573D01*
X151810736Y-60919891D01*
X151821279Y-60917553D01*
X151831931Y-60915675D01*
X151842617Y-60914268D01*
X151969885Y-60903134D01*
X151991936Y-60901205D01*
X151997262Y-60900855D01*
X152002740Y-60900616D01*
X152008122Y-60900500D01*
X182491878Y-60900500D01*
X182497280Y-60900618D01*
G37*
%TD.AperFunction*%
%TD*%
%TA.AperFunction,Conductor*%
%TO.N,/USART1_RX*%
G36*
X170616078Y-74950890D02*
G01*
X170616718Y-74951155D01*
X170617897Y-74951643D01*
X170624101Y-74957674D01*
X170624731Y-74959082D01*
X170625731Y-74963208D01*
X170627900Y-75002387D01*
X170627903Y-75002407D01*
X170640656Y-75065134D01*
X170640661Y-75065152D01*
X170667669Y-75141702D01*
X170668310Y-75144815D01*
X170668516Y-75147898D01*
X170668296Y-75151066D01*
X170536928Y-75781274D01*
X170535144Y-75785472D01*
X170534435Y-75786513D01*
X170526946Y-75791422D01*
X170518179Y-75789597D01*
X170518143Y-75789572D01*
X170518032Y-75789495D01*
X170518005Y-75789476D01*
X170513284Y-75782296D01*
X170502991Y-75732919D01*
X170381647Y-75150799D01*
X170381417Y-75147803D01*
X170381569Y-75144877D01*
X170382109Y-75141925D01*
X170417294Y-75032156D01*
X170423788Y-74962918D01*
X170425093Y-74958547D01*
X170426075Y-74956689D01*
X170432449Y-74951155D01*
X170433731Y-74950693D01*
X170437698Y-74950000D01*
X170611603Y-74950000D01*
X170616078Y-74950890D01*
G37*
%TD.AperFunction*%
%TD*%
%TA.AperFunction,Conductor*%
%TO.N,/USART1_RX*%
G36*
X170945006Y-73444628D02*
G01*
X170948492Y-73445802D01*
X170949521Y-73446341D01*
X170951633Y-73447448D01*
X170954584Y-73449648D01*
X171126866Y-73626589D01*
X171129350Y-73630415D01*
X171130010Y-73632069D01*
X171129893Y-73641023D01*
X171129890Y-73641030D01*
X171129306Y-73642387D01*
X171126230Y-73646596D01*
X171061026Y-73703213D01*
X171060274Y-73703814D01*
X171059479Y-73704397D01*
X171058662Y-73704945D01*
X170992563Y-73745351D01*
X170991454Y-73745949D01*
X170990314Y-73746487D01*
X170989137Y-73746966D01*
X170867296Y-73789000D01*
X170866946Y-73789115D01*
X170866572Y-73789231D01*
X170866199Y-73789340D01*
X170824049Y-73800893D01*
X170715553Y-73846575D01*
X170715551Y-73846576D01*
X170715536Y-73846584D01*
X170658763Y-73885444D01*
X170658650Y-73885537D01*
X170658520Y-73885661D01*
X170606335Y-73932325D01*
X170602403Y-73934645D01*
X170600544Y-73935296D01*
X170591901Y-73934935D01*
X170590499Y-73934308D01*
X170587004Y-73931901D01*
X170464491Y-73809388D01*
X170461955Y-73805593D01*
X170461213Y-73803803D01*
X170461118Y-73795093D01*
X170461692Y-73793613D01*
X170463961Y-73789959D01*
X170538707Y-73708235D01*
X170540888Y-73704688D01*
X170546449Y-73695639D01*
X170584724Y-73633376D01*
X170607390Y-73552794D01*
X170621110Y-73444028D01*
X170625304Y-73405819D01*
X170626676Y-73401472D01*
X170627537Y-73399903D01*
X170634516Y-73394306D01*
X170635942Y-73393891D01*
X170641141Y-73393588D01*
X170945006Y-73444628D01*
G37*
%TD.AperFunction*%
%TD*%
%TA.AperFunction,Conductor*%
%TO.N,/USART1_TX*%
G36*
X171136536Y-74290835D02*
G01*
X171400624Y-74399565D01*
X171404423Y-74402092D01*
X171407380Y-74405036D01*
X171410021Y-74409067D01*
X171436982Y-74478049D01*
X171509501Y-74663594D01*
X171510302Y-74668089D01*
X171510266Y-74669872D01*
X171506672Y-74678074D01*
X171506672Y-74678075D01*
X171505566Y-74679137D01*
X171501226Y-74681776D01*
X171412462Y-74711933D01*
X171411818Y-74712131D01*
X171411182Y-74712307D01*
X171410534Y-74712467D01*
X171331937Y-74729460D01*
X171331844Y-74729480D01*
X171331714Y-74729507D01*
X171331549Y-74729540D01*
X171305615Y-74734538D01*
X171211699Y-74765340D01*
X171211527Y-74765393D01*
X171158081Y-74799846D01*
X171158073Y-74799853D01*
X171125000Y-74829345D01*
X171125000Y-74830932D01*
X171124109Y-74835411D01*
X171123427Y-74837057D01*
X171117099Y-74843386D01*
X171117097Y-74843387D01*
X171115452Y-74844068D01*
X171110973Y-74844960D01*
X170939027Y-74844960D01*
X170934550Y-74844069D01*
X170932901Y-74843386D01*
X170926572Y-74837055D01*
X170925889Y-74835405D01*
X170925000Y-74830932D01*
X170925000Y-74788232D01*
X170925224Y-74785952D01*
X170925668Y-74783721D01*
X170926328Y-74781546D01*
X170933016Y-74765401D01*
X170953206Y-74716654D01*
X170954054Y-74715000D01*
X170955041Y-74713404D01*
X170956147Y-74711902D01*
X171013044Y-74646396D01*
X171046526Y-74588298D01*
X171063514Y-74534062D01*
X171072789Y-74478001D01*
X171080968Y-74425889D01*
X171081101Y-74425193D01*
X171081280Y-74424404D01*
X171081468Y-74423685D01*
X171118468Y-74299816D01*
X171120604Y-74295782D01*
X171121726Y-74294403D01*
X171129602Y-74290148D01*
X171130889Y-74290016D01*
X171136536Y-74290835D01*
G37*
%TD.AperFunction*%
%TD*%
%TA.AperFunction,Conductor*%
%TO.N,/USART1_TX*%
G36*
X171116078Y-74950890D02*
G01*
X171116718Y-74951155D01*
X171117897Y-74951643D01*
X171124101Y-74957674D01*
X171124731Y-74959082D01*
X171125731Y-74963208D01*
X171127900Y-75002387D01*
X171127903Y-75002407D01*
X171140656Y-75065134D01*
X171140661Y-75065152D01*
X171167669Y-75141702D01*
X171168310Y-75144815D01*
X171168516Y-75147898D01*
X171168296Y-75151066D01*
X171036928Y-75781274D01*
X171035144Y-75785472D01*
X171034435Y-75786513D01*
X171026946Y-75791422D01*
X171018179Y-75789597D01*
X171018143Y-75789572D01*
X171018032Y-75789495D01*
X171018005Y-75789476D01*
X171013284Y-75782296D01*
X171002991Y-75732919D01*
X170881647Y-75150799D01*
X170881417Y-75147803D01*
X170881569Y-75144877D01*
X170882109Y-75141925D01*
X170917294Y-75032156D01*
X170923788Y-74962918D01*
X170925093Y-74958547D01*
X170926075Y-74956689D01*
X170932449Y-74951155D01*
X170933731Y-74950693D01*
X170937698Y-74950000D01*
X171111603Y-74950000D01*
X171116078Y-74950890D01*
G37*
%TD.AperFunction*%
%TD*%
%TA.AperFunction,Conductor*%
%TO.N,GND*%
G36*
X178277164Y-61714805D02*
G01*
X178219984Y-61828920D01*
X178166803Y-61908097D01*
X178138178Y-61949195D01*
X178093264Y-62043055D01*
X178079783Y-62109821D01*
X178075000Y-62197433D01*
X177875000Y-62197433D01*
X177870041Y-62086046D01*
X177855454Y-62005758D01*
X177831680Y-61940891D01*
X177799156Y-61875763D01*
X177722836Y-61714805D01*
X177975000Y-61596433D01*
X178277164Y-61714805D01*
G37*
%TD.AperFunction*%
%TD*%
%TA.AperFunction,Conductor*%
%TO.N,GND*%
G36*
X178006089Y-63319603D02*
G01*
X178056724Y-63363531D01*
X178070216Y-63392799D01*
X178075000Y-63427567D01*
X177875000Y-63427567D01*
X177867361Y-63404605D01*
X177847055Y-63404543D01*
X177784110Y-63443455D01*
X177739181Y-63473920D01*
X177698582Y-63489157D01*
X177684802Y-63483132D01*
X177677567Y-63464158D01*
X177679944Y-63417951D01*
X177695635Y-63382340D01*
X177721856Y-63352552D01*
X177763712Y-63324964D01*
X177813597Y-63306242D01*
X177816706Y-63305967D01*
X177921874Y-63296689D01*
X178006089Y-63319603D01*
G37*
%TD.AperFunction*%
%TD*%
%TA.AperFunction,Conductor*%
%TO.N,GND*%
G36*
X178080924Y-62933315D02*
G01*
X178097697Y-63010037D01*
X178123819Y-63070865D01*
X178157791Y-63128929D01*
X178172088Y-63152405D01*
X178252164Y-63310195D01*
X177975000Y-63428567D01*
X177697836Y-63310195D01*
X177747839Y-63204772D01*
X177792209Y-63128928D01*
X177811071Y-63097747D01*
X177856457Y-62996369D01*
X177870182Y-62924253D01*
X177875000Y-62827567D01*
X178075000Y-62827567D01*
X178080924Y-62933315D01*
G37*
%TD.AperFunction*%
%TD*%
%TA.AperFunction,Conductor*%
%TO.N,GND*%
G36*
X178252164Y-63539805D02*
G01*
X178202161Y-63645227D01*
X178157791Y-63721070D01*
X178138930Y-63752251D01*
X178093543Y-63853630D01*
X178079818Y-63925747D01*
X178075000Y-64022433D01*
X177875000Y-64022433D01*
X177869076Y-63916686D01*
X177852303Y-63839963D01*
X177826180Y-63779135D01*
X177792209Y-63721071D01*
X177777912Y-63697594D01*
X177697836Y-63539805D01*
X177975000Y-63421433D01*
X178252164Y-63539805D01*
G37*
%TD.AperFunction*%
%TD*%
%TA.AperFunction,Conductor*%
%TO.N,GND*%
G36*
X177711909Y-64867012D02*
G01*
X177641324Y-64945975D01*
X177598933Y-65012086D01*
X177574393Y-65073569D01*
X177557357Y-65138648D01*
X177550865Y-65165359D01*
X177495914Y-65333555D01*
X177216228Y-65221272D01*
X177103945Y-64941586D01*
X177213848Y-64902398D01*
X177298853Y-64880142D01*
X177334237Y-64871431D01*
X177438016Y-64831839D01*
X177498714Y-64790551D01*
X177570488Y-64725591D01*
X177711909Y-64867012D01*
G37*
%TD.AperFunction*%
%TD*%
%TA.AperFunction,Conductor*%
%TO.N,GND*%
G36*
X177227522Y-65222478D02*
G01*
X177333555Y-65495914D01*
X177147090Y-65557468D01*
X177117172Y-65565568D01*
X177010614Y-65607313D01*
X176948073Y-65650196D01*
X176873262Y-65718159D01*
X176731841Y-65576738D01*
X176801279Y-65498445D01*
X176842461Y-65432390D01*
X176865568Y-65370931D01*
X176880779Y-65306427D01*
X176889529Y-65266620D01*
X176941586Y-65103945D01*
X177227522Y-65222478D01*
G37*
%TD.AperFunction*%
%TD*%
%TA.AperFunction,Conductor*%
%TO.N,GND*%
G36*
X176612181Y-65979240D02*
G01*
X176545748Y-66053529D01*
X176501431Y-66118559D01*
X176449656Y-66233186D01*
X176391076Y-66359185D01*
X176348506Y-66419222D01*
X176287132Y-66487132D01*
X176116500Y-66333500D01*
X176142941Y-65982795D01*
X176238919Y-65995487D01*
X176307949Y-65981568D01*
X176365666Y-65943022D01*
X176427702Y-65881836D01*
X176470760Y-65837819D01*
X176612181Y-65979240D01*
G37*
%TD.AperFunction*%
%TD*%
%TA.AperFunction,Conductor*%
%TO.N,GND*%
G36*
X177783021Y-61945900D02*
G01*
X177700970Y-62043873D01*
X177586520Y-62235677D01*
X177508470Y-62432591D01*
X177472966Y-62606021D01*
X177475000Y-62748896D01*
X176999293Y-62588207D01*
X176813604Y-62137500D01*
X176862212Y-62140059D01*
X176958193Y-62134337D01*
X177056799Y-62116322D01*
X177172837Y-62082114D01*
X177286074Y-62036694D01*
X177398863Y-61979909D01*
X177500583Y-61917646D01*
X177641600Y-61804479D01*
X177783021Y-61945900D01*
G37*
%TD.AperFunction*%
%TD*%
%TA.AperFunction,Conductor*%
%TO.N,GND*%
G36*
X177996272Y-61591228D02*
G01*
X178114805Y-61877164D01*
X178000565Y-61916919D01*
X177912324Y-61937970D01*
X177871802Y-61946964D01*
X177770321Y-61984632D01*
X177711200Y-62024510D01*
X177642012Y-62086909D01*
X177500591Y-61945488D01*
X177572549Y-61865630D01*
X177616251Y-61799333D01*
X177642295Y-61737657D01*
X177661281Y-61671661D01*
X177722836Y-61485195D01*
X177996272Y-61591228D01*
G37*
%TD.AperFunction*%
%TD*%
%TA.AperFunction,Conductor*%
%TO.N,GND*%
G36*
X178003567Y-61637500D02*
G01*
X178000000Y-61900000D01*
X177911944Y-61894911D01*
X177841483Y-61881191D01*
X177746590Y-61843556D01*
X177665710Y-61799048D01*
X177555408Y-61754799D01*
X177487116Y-61742162D01*
X177402567Y-61737500D01*
X177402567Y-61537500D01*
X177532745Y-61532184D01*
X177621775Y-61509891D01*
X177700578Y-61461107D01*
X177800076Y-61376316D01*
X177801569Y-61375000D01*
X178003567Y-61637500D01*
G37*
%TD.AperFunction*%
%TD*%
%TA.AperFunction,Conductor*%
%TO.N,GND*%
G36*
X175889440Y-61487654D02*
G01*
X175945645Y-61525573D01*
X176011352Y-61538465D01*
X176094490Y-61538541D01*
X176162829Y-61537500D01*
X176162829Y-61737500D01*
X176060859Y-61743203D01*
X175982122Y-61758165D01*
X175862035Y-61802991D01*
X175740728Y-61845579D01*
X175667512Y-61857885D01*
X175575000Y-61862500D01*
X175561829Y-61637500D01*
X175834808Y-61412500D01*
X175889440Y-61487654D01*
G37*
%TD.AperFunction*%
%TD*%
%TA.AperFunction,Conductor*%
%TO.N,GND*%
G36*
X170188006Y-61707628D02*
G01*
X170118258Y-61782546D01*
X170068733Y-61839876D01*
X170054842Y-61879854D01*
X170050000Y-61937500D01*
X170020711Y-62008211D01*
X170008211Y-62020710D01*
X169871967Y-61884466D01*
X169850000Y-61937500D01*
X169845276Y-61880445D01*
X169831715Y-61840720D01*
X169781742Y-61782546D01*
X169711994Y-61707628D01*
X169950000Y-61521433D01*
X170188006Y-61707628D01*
G37*
%TD.AperFunction*%
%TD*%
%TA.AperFunction,Conductor*%
%TO.N,GND*%
G36*
X175578567Y-61562500D02*
G01*
X175460195Y-61839664D01*
X175354772Y-61789661D01*
X175278929Y-61745291D01*
X175247748Y-61726430D01*
X175146370Y-61681043D01*
X175074253Y-61667318D01*
X174977567Y-61662500D01*
X174977567Y-61462500D01*
X175083314Y-61456576D01*
X175160036Y-61439803D01*
X175220864Y-61413681D01*
X175278928Y-61379709D01*
X175302406Y-61365411D01*
X175460195Y-61285336D01*
X175578567Y-61562500D01*
G37*
%TD.AperFunction*%
%TD*%
%TA.AperFunction,Conductor*%
%TO.N,GND*%
G36*
X172350499Y-61645719D02*
G01*
X172348784Y-61657902D01*
X172322433Y-61662500D01*
X172322433Y-61623784D01*
X172350499Y-61645719D01*
G37*
%TD.AperFunction*%
%TA.AperFunction,Conductor*%
G36*
X172179730Y-61562104D02*
G01*
X172242782Y-61587528D01*
X172243911Y-61587983D01*
X172185812Y-61623258D01*
X172099620Y-61648775D01*
X172051043Y-61640969D01*
X172035545Y-61625731D01*
X172027567Y-61601658D01*
X172027280Y-61586890D01*
X172036367Y-61565608D01*
X172056284Y-61553125D01*
X172110908Y-61548968D01*
X172179730Y-61562104D01*
G37*
%TD.AperFunction*%
%TA.AperFunction,Conductor*%
G36*
X172322433Y-61582298D02*
G01*
X172322433Y-61623784D01*
X172311493Y-61615234D01*
X172243911Y-61587983D01*
X172244888Y-61587390D01*
X172291899Y-61558848D01*
X172297033Y-61558511D01*
X172297033Y-61555731D01*
X172301940Y-61552752D01*
X172322433Y-61533182D01*
X172322433Y-61582298D01*
G37*
%TD.AperFunction*%
%TA.AperFunction,Conductor*%
G36*
X172336363Y-61463412D02*
G01*
X172353209Y-61469719D01*
X172358796Y-61481145D01*
X172343414Y-61513147D01*
X172322433Y-61533182D01*
X172322433Y-61462500D01*
X172336363Y-61463412D01*
G37*
%TD.AperFunction*%
%TD*%
%TA.AperFunction,Conductor*%
%TO.N,GND*%
G36*
X172545228Y-61335339D02*
G01*
X172621071Y-61379709D01*
X172652252Y-61398571D01*
X172753631Y-61443957D01*
X172825747Y-61457682D01*
X172922433Y-61462500D01*
X172922433Y-61662500D01*
X172816685Y-61668424D01*
X172739963Y-61685197D01*
X172679135Y-61711320D01*
X172621070Y-61745291D01*
X172597595Y-61759587D01*
X172439805Y-61839664D01*
X172321433Y-61562500D01*
X172439805Y-61285336D01*
X172545228Y-61335339D01*
G37*
%TD.AperFunction*%
%TD*%
%TA.AperFunction,Conductor*%
%TO.N,GND*%
G36*
X172328567Y-61562500D02*
G01*
X172210195Y-61839664D01*
X172104772Y-61789661D01*
X172028929Y-61745291D01*
X171997748Y-61726430D01*
X171896370Y-61681043D01*
X171824253Y-61667318D01*
X171727567Y-61662500D01*
X171727567Y-61462500D01*
X171833314Y-61456576D01*
X171910036Y-61439803D01*
X171970864Y-61413681D01*
X172028928Y-61379709D01*
X172052406Y-61365411D01*
X172210195Y-61285336D01*
X172328567Y-61562500D01*
G37*
%TD.AperFunction*%
%TD*%
%TA.AperFunction,Conductor*%
%TO.N,GND*%
G36*
X170149923Y-61301316D02*
G01*
X170198693Y-61344068D01*
X170303725Y-61422813D01*
X170401271Y-61455039D01*
X170547433Y-61462500D01*
X170547433Y-61662500D01*
X170459377Y-61667589D01*
X170388916Y-61681309D01*
X170294023Y-61718944D01*
X170213143Y-61763452D01*
X170102841Y-61807701D01*
X170034549Y-61820338D01*
X169950000Y-61825000D01*
X169946433Y-61562500D01*
X170148431Y-61300000D01*
X170149923Y-61301316D01*
G37*
%TD.AperFunction*%
%TD*%
%TA.AperFunction,Conductor*%
%TO.N,+3.3V*%
G36*
X181020978Y-65094009D02*
G01*
X181025386Y-65095195D01*
X181028270Y-65096621D01*
X181033786Y-65102380D01*
X181102319Y-65257487D01*
X181158670Y-65385024D01*
X181170885Y-65412669D01*
X181171880Y-65417124D01*
X181171922Y-65418916D01*
X181168701Y-65427255D01*
X181167482Y-65428536D01*
X181163774Y-65431155D01*
X180955964Y-65523902D01*
X180955938Y-65523914D01*
X180955932Y-65523917D01*
X180955915Y-65523925D01*
X180955909Y-65523927D01*
X180955905Y-65523930D01*
X180821295Y-65594331D01*
X180710052Y-65662724D01*
X180601661Y-65743461D01*
X180601566Y-65743543D01*
X180601458Y-65743647D01*
X180520114Y-65817886D01*
X180516208Y-65820246D01*
X180514387Y-65820905D01*
X180505680Y-65820606D01*
X180504235Y-65819968D01*
X180500688Y-65817538D01*
X180307370Y-65624220D01*
X180304833Y-65620422D01*
X180304061Y-65618557D01*
X180303910Y-65609990D01*
X180304426Y-65608608D01*
X180306553Y-65605033D01*
X180374559Y-65526845D01*
X180465248Y-65385025D01*
X180514098Y-65257489D01*
X180514098Y-65257487D01*
X180514099Y-65257487D01*
X180524225Y-65150127D01*
X180509952Y-65096621D01*
X180504806Y-65077332D01*
X180504514Y-65072782D01*
X180504749Y-65071014D01*
X180509233Y-65063266D01*
X180509240Y-65063261D01*
X180509754Y-65062868D01*
X180517636Y-65060488D01*
X181020978Y-65094009D01*
G37*
%TD.AperFunction*%
%TD*%
%TA.AperFunction,Conductor*%
%TO.N,/NRST*%
G36*
X180805668Y-63073730D02*
G01*
X180809450Y-63076476D01*
X180811784Y-63078171D01*
X181144887Y-63320066D01*
X181147986Y-63323417D01*
X181150224Y-63327068D01*
X181151810Y-63331384D01*
X181233162Y-63854223D01*
X181232970Y-63858784D01*
X181232550Y-63860513D01*
X181227267Y-63867743D01*
X181227261Y-63867747D01*
X181226947Y-63867938D01*
X181220029Y-63869612D01*
X181219848Y-63869599D01*
X181217247Y-63869112D01*
X181182189Y-63858332D01*
X181182179Y-63858330D01*
X181182176Y-63858329D01*
X181182167Y-63858327D01*
X181182159Y-63858326D01*
X181182152Y-63858324D01*
X181108681Y-63849167D01*
X181108679Y-63849167D01*
X181108675Y-63849167D01*
X181108674Y-63849167D01*
X181053721Y-63851116D01*
X181031736Y-63851896D01*
X180936577Y-63868736D01*
X180842407Y-63897621D01*
X180744211Y-63939628D01*
X180655655Y-63988614D01*
X180545794Y-64072946D01*
X180541700Y-64074966D01*
X180539552Y-64075542D01*
X180531345Y-64074733D01*
X180530279Y-64074207D01*
X180527183Y-64071988D01*
X180403482Y-63948287D01*
X180400946Y-63944492D01*
X180400127Y-63942516D01*
X180399907Y-63934141D01*
X180400346Y-63932901D01*
X180402280Y-63929447D01*
X180471674Y-63843793D01*
X180534869Y-63729731D01*
X180650706Y-63434698D01*
X180650727Y-63434645D01*
X180726417Y-63236184D01*
X180785854Y-63080342D01*
X180788280Y-63076478D01*
X180789506Y-63075181D01*
X180797676Y-63071524D01*
X180798465Y-63071502D01*
X180805668Y-63073730D01*
G37*
%TD.AperFunction*%
%TD*%
%TA.AperFunction,Conductor*%
%TO.N,/NRST*%
G36*
X179646089Y-64125014D02*
G01*
X179649516Y-64133287D01*
X179649506Y-64133762D01*
X179640418Y-64357580D01*
X179640413Y-64357707D01*
X179632172Y-64517737D01*
X179629960Y-64797352D01*
X179648453Y-64953610D01*
X179646022Y-64962229D01*
X179638209Y-64966604D01*
X179636834Y-64966685D01*
X179555450Y-64966685D01*
X179547177Y-64963258D01*
X179546493Y-64962512D01*
X179539012Y-64953610D01*
X179166201Y-64509964D01*
X179163502Y-64501426D01*
X179167631Y-64493480D01*
X179175181Y-64490737D01*
X179182126Y-64490752D01*
X179182131Y-64490751D01*
X179230665Y-64480990D01*
X179254197Y-64470011D01*
X179274353Y-64460609D01*
X179322494Y-64422698D01*
X179362941Y-64374617D01*
X179402372Y-64306547D01*
X179430000Y-64235676D01*
X179448303Y-64131266D01*
X179453107Y-64123710D01*
X179459827Y-64121587D01*
X179637816Y-64121587D01*
X179646089Y-64125014D01*
G37*
%TD.AperFunction*%
%TD*%
%TA.AperFunction,Conductor*%
%TO.N,/NRST*%
G36*
X179886576Y-62773926D02*
G01*
X179890965Y-62775170D01*
X179892703Y-62776058D01*
X179898415Y-62782597D01*
X179898934Y-62784074D01*
X179899590Y-62788313D01*
X179897398Y-62859610D01*
X179897371Y-62860127D01*
X179897331Y-62860659D01*
X179897279Y-62861191D01*
X179883214Y-62977128D01*
X179883102Y-62977855D01*
X179882967Y-62978582D01*
X179882813Y-62979289D01*
X179859227Y-63073442D01*
X179858959Y-63074354D01*
X179858652Y-63075260D01*
X179858309Y-63076152D01*
X179792347Y-63228569D01*
X179792217Y-63228858D01*
X179792076Y-63229161D01*
X179791940Y-63229443D01*
X179714522Y-63384826D01*
X179667821Y-63540003D01*
X179654728Y-63635064D01*
X179650566Y-63734479D01*
X179649487Y-63738919D01*
X179648676Y-63740665D01*
X179642323Y-63746634D01*
X179640836Y-63747215D01*
X179636578Y-63748017D01*
X179464042Y-63748017D01*
X179459565Y-63747126D01*
X179457916Y-63746443D01*
X179451587Y-63740112D01*
X179450906Y-63738469D01*
X179450017Y-63733981D01*
X179450021Y-63730729D01*
X179450021Y-63730728D01*
X179450046Y-63711401D01*
X179442088Y-63502567D01*
X179412867Y-63402208D01*
X179385863Y-63359552D01*
X179348271Y-63320498D01*
X179348270Y-63320497D01*
X179348268Y-63320495D01*
X179285055Y-63275924D01*
X179285050Y-63275921D01*
X179214347Y-63240454D01*
X179210744Y-63237650D01*
X179209579Y-63236303D01*
X179206759Y-63227804D01*
X179206759Y-63227802D01*
X179206837Y-63226727D01*
X179209009Y-63220740D01*
X179544787Y-62754257D01*
X179548126Y-62751144D01*
X179550983Y-62749376D01*
X179558071Y-62747662D01*
X179886576Y-62773926D01*
G37*
%TD.AperFunction*%
%TD*%
%TA.AperFunction,Conductor*%
%TO.N,+3.3V*%
G36*
X153418111Y-70023350D02*
G01*
X153418676Y-70024021D01*
X153459112Y-70075968D01*
X153460206Y-70077655D01*
X153477674Y-70110455D01*
X153491694Y-70136781D01*
X153525387Y-70194466D01*
X153541981Y-70207746D01*
X153552240Y-70210123D01*
X153562499Y-70212500D01*
X153562499Y-70212499D01*
X153562500Y-70212500D01*
X153678430Y-70028657D01*
X153685742Y-70023488D01*
X153694568Y-70025002D01*
X153696600Y-70026626D01*
X153925458Y-70255484D01*
X153928885Y-70263757D01*
X153925458Y-70272030D01*
X153687889Y-70509598D01*
X153684093Y-70512134D01*
X153563270Y-70562181D01*
X153561702Y-70562704D01*
X153546157Y-70566683D01*
X153540194Y-70568210D01*
X153522429Y-70584037D01*
X153491685Y-70638233D01*
X153470301Y-70679983D01*
X153469312Y-70681583D01*
X153418610Y-70750491D01*
X153410947Y-70755124D01*
X153402252Y-70752981D01*
X153401328Y-70752225D01*
X153198341Y-70568210D01*
X153008560Y-70396166D01*
X153004733Y-70388073D01*
X153007751Y-70379642D01*
X153008554Y-70378838D01*
X153401587Y-70022538D01*
X153410016Y-70019522D01*
X153418111Y-70023350D01*
G37*
%TD.AperFunction*%
%TD*%
%TA.AperFunction,Conductor*%
%TO.N,+3.3V*%
G36*
X171171573Y-66649137D02*
G01*
X171175000Y-66657410D01*
X171175000Y-66742135D01*
X171174964Y-66743049D01*
X171160630Y-66925965D01*
X171160604Y-66926251D01*
X171147696Y-67051445D01*
X171147695Y-67051470D01*
X171143776Y-67272728D01*
X171143777Y-67272736D01*
X171173288Y-67500295D01*
X171170953Y-67508940D01*
X171163190Y-67513403D01*
X171161685Y-67513500D01*
X171025000Y-67513500D01*
X170888574Y-67513500D01*
X170880301Y-67510073D01*
X170876874Y-67501800D01*
X170877001Y-67500085D01*
X170901738Y-67334262D01*
X170908282Y-67179669D01*
X170889381Y-66926106D01*
X170875036Y-66743049D01*
X170875000Y-66742135D01*
X170875000Y-66657410D01*
X170878427Y-66649137D01*
X170886700Y-66645710D01*
X171163300Y-66645710D01*
X171171573Y-66649137D01*
G37*
%TD.AperFunction*%
%TD*%
%TA.AperFunction,Conductor*%
%TO.N,+3.3V*%
G36*
X166967255Y-70528750D02*
G01*
X166971305Y-70536737D01*
X166971339Y-70537632D01*
X166971339Y-70864448D01*
X166967912Y-70872721D01*
X166960844Y-70876086D01*
X166825167Y-70890135D01*
X166825164Y-70890135D01*
X166699610Y-70929250D01*
X166699606Y-70929252D01*
X166614415Y-70983938D01*
X166614414Y-70983939D01*
X166565276Y-71051742D01*
X166553123Y-71091924D01*
X166551664Y-71113211D01*
X166547679Y-71121230D01*
X166539190Y-71124083D01*
X166532074Y-71121024D01*
X166523573Y-71113211D01*
X166077783Y-70703477D01*
X166074010Y-70695356D01*
X166074000Y-70694863D01*
X166074000Y-70576271D01*
X166077427Y-70567998D01*
X166085700Y-70564571D01*
X166087582Y-70564724D01*
X166201558Y-70583389D01*
X166348128Y-70583677D01*
X166351851Y-70583685D01*
X166351851Y-70583684D01*
X166351864Y-70583685D01*
X166675867Y-70551738D01*
X166768059Y-70540607D01*
X166768518Y-70540562D01*
X166958745Y-70525966D01*
X166967255Y-70528750D01*
G37*
%TD.AperFunction*%
%TD*%
%TA.AperFunction,Conductor*%
%TO.N,+3.3V*%
G36*
X166553666Y-64121495D02*
G01*
X166554918Y-64122192D01*
X166558105Y-64124794D01*
X166927857Y-64555515D01*
X166930097Y-64559492D01*
X166930799Y-64561634D01*
X166930461Y-64569825D01*
X166930016Y-64570880D01*
X166928017Y-64574065D01*
X166606053Y-64939742D01*
X166602425Y-64942514D01*
X166599891Y-64943757D01*
X166592747Y-64944782D01*
X166592469Y-64944734D01*
X166589814Y-64943943D01*
X166400493Y-64862034D01*
X166400426Y-64862005D01*
X166313659Y-64823820D01*
X166253549Y-64801423D01*
X166139194Y-64758814D01*
X166080319Y-64750240D01*
X166022317Y-64741793D01*
X166018014Y-64740266D01*
X166016064Y-64739104D01*
X166010947Y-64732734D01*
X166010594Y-64731669D01*
X166010000Y-64727988D01*
X166010000Y-64403294D01*
X166010890Y-64398818D01*
X166011656Y-64396967D01*
X166017634Y-64390788D01*
X166019000Y-64390170D01*
X166023064Y-64389153D01*
X166059201Y-64386814D01*
X166059439Y-64386807D01*
X166059516Y-64386800D01*
X166059707Y-64386761D01*
X166059978Y-64386708D01*
X166060143Y-64386662D01*
X166104880Y-64376831D01*
X166131702Y-64370938D01*
X166207092Y-64341703D01*
X166362379Y-64251893D01*
X166539087Y-64122753D01*
X166543222Y-64120833D01*
X166545214Y-64120349D01*
X166553666Y-64121495D01*
G37*
%TD.AperFunction*%
%TD*%
%TA.AperFunction,Conductor*%
%TO.N,+3.3V*%
G36*
X165769242Y-64277782D02*
G01*
X165773061Y-64278499D01*
X165915364Y-64330861D01*
X166020072Y-64369390D01*
X166020076Y-64369391D01*
X166147704Y-64388189D01*
X166152003Y-64389723D01*
X166153957Y-64390892D01*
X166159055Y-64397252D01*
X166159406Y-64398312D01*
X166159999Y-64401986D01*
X166159999Y-64726942D01*
X166159108Y-64731419D01*
X166158314Y-64733336D01*
X166152444Y-64739465D01*
X166151179Y-64740055D01*
X166147250Y-64741104D01*
X166082098Y-64746750D01*
X165996179Y-64767465D01*
X165773115Y-64851430D01*
X165769251Y-64852177D01*
X165765489Y-64852260D01*
X165761598Y-64851685D01*
X165178161Y-64661094D01*
X164920255Y-64576843D01*
X164916277Y-64574607D01*
X164915321Y-64573788D01*
X164911268Y-64565804D01*
X164914046Y-64557293D01*
X164914428Y-64556848D01*
X164919673Y-64553345D01*
X165761671Y-64278289D01*
X165765514Y-64277714D01*
X165769242Y-64277782D01*
G37*
%TD.AperFunction*%
%TD*%
%TA.AperFunction,Conductor*%
%TO.N,+3.3V*%
G36*
X171002967Y-65543447D02*
G01*
X171003961Y-65544420D01*
X171006856Y-65549020D01*
X171041942Y-65652382D01*
X171042140Y-65653024D01*
X171042317Y-65653664D01*
X171042478Y-65654319D01*
X171061907Y-65744507D01*
X171061936Y-65744649D01*
X171061952Y-65744728D01*
X171061962Y-65744776D01*
X171070922Y-65789996D01*
X171088887Y-65839760D01*
X171106853Y-65889528D01*
X171123129Y-65913866D01*
X171130667Y-65925138D01*
X171145474Y-65947282D01*
X171145479Y-65947288D01*
X171196685Y-66004255D01*
X171199016Y-66008180D01*
X171199670Y-66010032D01*
X171199324Y-66018692D01*
X171198694Y-66020105D01*
X171196281Y-66023614D01*
X171073768Y-66146127D01*
X171069973Y-66148663D01*
X171068177Y-66149407D01*
X171059482Y-66149512D01*
X171058016Y-66148945D01*
X171054367Y-66146692D01*
X170983216Y-66082052D01*
X170983208Y-66082046D01*
X170923080Y-66041316D01*
X170921668Y-66039173D01*
X170854464Y-66009260D01*
X170787320Y-65988228D01*
X170787204Y-65988191D01*
X170787050Y-65988141D01*
X170786849Y-65988074D01*
X170623740Y-65931833D01*
X170619798Y-65929532D01*
X170618464Y-65928351D01*
X170614542Y-65920308D01*
X170614442Y-65918668D01*
X170615158Y-65913871D01*
X170707411Y-65666849D01*
X170709809Y-65662972D01*
X170712648Y-65659925D01*
X170716607Y-65657145D01*
X170988413Y-65541066D01*
X170992875Y-65540128D01*
X170994659Y-65540109D01*
X171002967Y-65543447D01*
G37*
%TD.AperFunction*%
%TD*%
%TA.AperFunction,Conductor*%
%TO.N,+3.3V*%
G36*
X159033830Y-66803427D02*
G01*
X159037257Y-66811700D01*
X159037255Y-66811907D01*
X159036850Y-66831626D01*
X159039232Y-66950080D01*
X159060207Y-67033755D01*
X159098877Y-67081895D01*
X159113837Y-67088970D01*
X159127085Y-67095236D01*
X159127086Y-67095236D01*
X159127088Y-67095237D01*
X159139119Y-67096855D01*
X159146860Y-67101353D01*
X159149154Y-67110009D01*
X159145845Y-67116709D01*
X158870787Y-67392685D01*
X158862519Y-67396126D01*
X158854241Y-67392713D01*
X158854213Y-67392685D01*
X158578379Y-67115932D01*
X158574966Y-67107654D01*
X158578407Y-67099386D01*
X158584660Y-67096146D01*
X158606301Y-67092384D01*
X158638781Y-67071491D01*
X158661586Y-67040255D01*
X158676364Y-67001611D01*
X158688428Y-66913832D01*
X158688150Y-66831626D01*
X158687745Y-66811939D01*
X158691001Y-66803599D01*
X158699202Y-66800002D01*
X158699443Y-66800000D01*
X159025557Y-66800000D01*
X159033830Y-66803427D01*
G37*
%TD.AperFunction*%
%TD*%
%TA.AperFunction,Conductor*%
%TO.N,+3.3V*%
G36*
X156897543Y-71228427D02*
G01*
X156900926Y-71235690D01*
X156906750Y-71302899D01*
X156927465Y-71388817D01*
X157012022Y-71613452D01*
X157012007Y-71621735D01*
X156735935Y-72347262D01*
X156729790Y-72353776D01*
X156720839Y-72354036D01*
X156714325Y-72347891D01*
X156714065Y-72347262D01*
X156657399Y-72198343D01*
X156437973Y-71621686D01*
X156437929Y-71613490D01*
X156529391Y-71364923D01*
X156539032Y-71299466D01*
X156548528Y-71234995D01*
X156553124Y-71227310D01*
X156560103Y-71225000D01*
X156889270Y-71225000D01*
X156897543Y-71228427D01*
G37*
%TD.AperFunction*%
%TD*%
%TA.AperFunction,Conductor*%
%TO.N,+3.3V*%
G36*
X155896967Y-68064656D02*
G01*
X155900075Y-68070114D01*
X155921150Y-68154077D01*
X155921151Y-68154080D01*
X155949777Y-68205884D01*
X155949780Y-68205887D01*
X155949783Y-68205892D01*
X155986106Y-68248964D01*
X155986108Y-68248966D01*
X156039914Y-68291665D01*
X156100432Y-68323572D01*
X156180563Y-68350491D01*
X156260937Y-68366072D01*
X156389052Y-68374297D01*
X156397086Y-68378246D01*
X156400000Y-68385972D01*
X156400000Y-68713554D01*
X156396573Y-68721827D01*
X156388558Y-68725251D01*
X156347439Y-68726156D01*
X156347431Y-68726156D01*
X156347428Y-68726157D01*
X156196369Y-68745678D01*
X156135522Y-68767071D01*
X156074675Y-68788465D01*
X155985275Y-68851853D01*
X155925183Y-68936943D01*
X155906041Y-68989490D01*
X155899044Y-69027930D01*
X155894191Y-69035455D01*
X155885437Y-69037345D01*
X155879228Y-69034074D01*
X155407173Y-68558239D01*
X155403780Y-68549953D01*
X155407173Y-68541760D01*
X155880422Y-68064721D01*
X155888680Y-68061262D01*
X155896967Y-68064656D01*
G37*
%TD.AperFunction*%
%TD*%
%TA.AperFunction,Conductor*%
%TO.N,+3.3V*%
G36*
X171616078Y-66625890D02*
G01*
X171616718Y-66626155D01*
X171617897Y-66626643D01*
X171624101Y-66632674D01*
X171624731Y-66634082D01*
X171625731Y-66638208D01*
X171627900Y-66677387D01*
X171627903Y-66677407D01*
X171640656Y-66740134D01*
X171640661Y-66740152D01*
X171667669Y-66816702D01*
X171668310Y-66819815D01*
X171668516Y-66822898D01*
X171668296Y-66826066D01*
X171536928Y-67456274D01*
X171535144Y-67460472D01*
X171534435Y-67461513D01*
X171526946Y-67466422D01*
X171518179Y-67464597D01*
X171518143Y-67464572D01*
X171518032Y-67464495D01*
X171518005Y-67464476D01*
X171513284Y-67457296D01*
X171502991Y-67407919D01*
X171381647Y-66825799D01*
X171381417Y-66822803D01*
X171381569Y-66819877D01*
X171382109Y-66816925D01*
X171417294Y-66707156D01*
X171423788Y-66637918D01*
X171425093Y-66633547D01*
X171426075Y-66631689D01*
X171432449Y-66626155D01*
X171433731Y-66625693D01*
X171437698Y-66625000D01*
X171611603Y-66625000D01*
X171616078Y-66625890D01*
G37*
%TD.AperFunction*%
%TD*%
%TA.AperFunction,Conductor*%
%TO.N,+3.3V*%
G36*
X169077835Y-65166857D02*
G01*
X169082229Y-65168080D01*
X169083817Y-65168882D01*
X169089657Y-65175671D01*
X169089660Y-65175679D01*
X169090159Y-65177200D01*
X169090674Y-65182103D01*
X169083880Y-65245017D01*
X169083880Y-65245024D01*
X169083880Y-65245025D01*
X169083880Y-65245026D01*
X169090302Y-65268487D01*
X169098822Y-65299607D01*
X169098823Y-65299608D01*
X169098824Y-65299610D01*
X169103717Y-65305699D01*
X169132888Y-65342003D01*
X169132890Y-65342005D01*
X169132891Y-65342006D01*
X169132893Y-65342008D01*
X169181865Y-65382477D01*
X169182024Y-65382611D01*
X169249136Y-65440293D01*
X169261202Y-65450663D01*
X169264017Y-65454256D01*
X169264821Y-65455846D01*
X169265496Y-65464775D01*
X169265062Y-65466097D01*
X169262219Y-65470721D01*
X169069759Y-65663181D01*
X169065962Y-65665718D01*
X169064095Y-65666491D01*
X169055527Y-65666642D01*
X169054153Y-65666129D01*
X169050576Y-65664004D01*
X168985288Y-65607321D01*
X168927479Y-65557131D01*
X168927477Y-65557129D01*
X168927475Y-65557128D01*
X168927468Y-65557122D01*
X168927364Y-65557059D01*
X168918941Y-65551778D01*
X168824136Y-65492334D01*
X168824104Y-65492314D01*
X168824081Y-65492300D01*
X168824063Y-65492288D01*
X168824060Y-65492287D01*
X168739305Y-65440453D01*
X168738817Y-65440138D01*
X168738314Y-65439795D01*
X168737830Y-65439447D01*
X168670927Y-65388645D01*
X168670494Y-65388299D01*
X168670077Y-65387950D01*
X168669653Y-65387578D01*
X168664123Y-65382477D01*
X168620252Y-65342006D01*
X168598074Y-65321547D01*
X168595385Y-65317853D01*
X168594621Y-65316199D01*
X168594237Y-65307324D01*
X168594823Y-65305699D01*
X168597131Y-65301843D01*
X168736100Y-65147495D01*
X168739751Y-65144769D01*
X168743104Y-65143170D01*
X168749013Y-65142065D01*
X169077835Y-65166857D01*
G37*
%TD.AperFunction*%
%TD*%
%TA.AperFunction,Conductor*%
%TO.N,+3.3V*%
G36*
X160280302Y-65543083D02*
G01*
X160283841Y-65543723D01*
X160323484Y-65557463D01*
X160899381Y-65757055D01*
X160903318Y-65759360D01*
X160905323Y-65761142D01*
X160909032Y-65767626D01*
X160909130Y-65768123D01*
X160909327Y-65771139D01*
X160906244Y-65818966D01*
X160906448Y-65819681D01*
X160917609Y-65875897D01*
X160917614Y-65875922D01*
X160973742Y-65985248D01*
X160973748Y-65985259D01*
X161026278Y-66048980D01*
X161054718Y-66083480D01*
X161054722Y-66083484D01*
X161054726Y-66083488D01*
X161136826Y-66165306D01*
X161159381Y-66187240D01*
X161161793Y-66189586D01*
X161164381Y-66193344D01*
X161165086Y-66194980D01*
X161165213Y-66203934D01*
X161165212Y-66203936D01*
X161164584Y-66205514D01*
X161161986Y-66209461D01*
X160934502Y-66436945D01*
X160930710Y-66439480D01*
X160929065Y-66440162D01*
X160920110Y-66440164D01*
X160918528Y-66439509D01*
X160914632Y-66436870D01*
X160885806Y-66407317D01*
X160771324Y-66294380D01*
X160771318Y-66294374D01*
X160658569Y-66207754D01*
X160646058Y-66198142D01*
X160568995Y-66162568D01*
X160535955Y-66147315D01*
X160512799Y-66144470D01*
X160445688Y-66136222D01*
X160441352Y-66134791D01*
X160438686Y-66133282D01*
X160433218Y-66126380D01*
X160392002Y-65985259D01*
X160267712Y-65559695D01*
X160267313Y-65555147D01*
X160267494Y-65553488D01*
X160271798Y-65545635D01*
X160279413Y-65543061D01*
X160280302Y-65543083D01*
G37*
%TD.AperFunction*%
%TD*%
%TA.AperFunction,Conductor*%
%TO.N,+3.3V*%
G36*
X154914392Y-68348826D02*
G01*
X155393263Y-68546224D01*
X155399606Y-68552545D01*
X155400500Y-68557341D01*
X155382531Y-69258387D01*
X155378893Y-69266569D01*
X155370535Y-69269783D01*
X155366609Y-69268997D01*
X155338661Y-69258171D01*
X155338657Y-69258170D01*
X155299977Y-69250613D01*
X155275171Y-69245767D01*
X155275168Y-69245766D01*
X155275164Y-69245766D01*
X155209442Y-69244978D01*
X155209425Y-69244980D01*
X155125678Y-69258029D01*
X155125665Y-69258032D01*
X155070391Y-69275142D01*
X155042003Y-69283929D01*
X154936628Y-69331978D01*
X154839256Y-69390266D01*
X154746209Y-69458818D01*
X154746203Y-69458823D01*
X154682587Y-69515766D01*
X154674137Y-69518730D01*
X154666511Y-69515321D01*
X154434605Y-69283415D01*
X154431178Y-69275142D01*
X154434086Y-69267422D01*
X154572231Y-69110127D01*
X154720182Y-68894611D01*
X154824017Y-68688604D01*
X154867045Y-68552545D01*
X154882324Y-68504232D01*
X154882326Y-68504221D01*
X154889908Y-68435002D01*
X154898304Y-68358368D01*
X154902611Y-68350519D01*
X154911208Y-68348014D01*
X154914392Y-68348826D01*
G37*
%TD.AperFunction*%
%TD*%
%TA.AperFunction,Conductor*%
%TO.N,+3.3V*%
G36*
X159799089Y-65712998D02*
G01*
X159800207Y-65718304D01*
X159789531Y-66124826D01*
X159785888Y-66133006D01*
X159779151Y-66136145D01*
X159719728Y-66142873D01*
X159652184Y-66164617D01*
X159652168Y-66164624D01*
X159525093Y-66238485D01*
X159525085Y-66238491D01*
X159412140Y-66334119D01*
X159412127Y-66334130D01*
X159317468Y-66429035D01*
X159284884Y-66462404D01*
X159276652Y-66465929D01*
X159268339Y-66462601D01*
X159268240Y-66462503D01*
X159036395Y-66230658D01*
X159032968Y-66222385D01*
X159033970Y-66218468D01*
X159033746Y-66218396D01*
X159034085Y-66217352D01*
X159042425Y-66191649D01*
X159039125Y-66158675D01*
X159023684Y-66119934D01*
X159003903Y-66090828D01*
X159002087Y-66082060D01*
X159007004Y-66074575D01*
X159008566Y-66073682D01*
X159783514Y-65707418D01*
X159792456Y-65706982D01*
X159799089Y-65712998D01*
G37*
%TD.AperFunction*%
%TD*%
%TA.AperFunction,Conductor*%
%TO.N,+3.3V*%
G36*
X166740448Y-70221146D02*
G01*
X166741281Y-70221490D01*
X166742093Y-70221827D01*
X166748425Y-70228155D01*
X166748427Y-70228158D01*
X166749109Y-70229804D01*
X166750000Y-70234283D01*
X166750000Y-70496520D01*
X166749775Y-70498805D01*
X166749333Y-70501025D01*
X166748667Y-70503217D01*
X166699742Y-70621330D01*
X166698968Y-70622869D01*
X166698085Y-70624342D01*
X166697091Y-70625753D01*
X166626831Y-70711283D01*
X166568381Y-70831028D01*
X166568369Y-70831056D01*
X166540817Y-70973314D01*
X166540301Y-71054263D01*
X166547846Y-71123856D01*
X166547443Y-71128402D01*
X166546943Y-71130111D01*
X166541331Y-71137089D01*
X166541320Y-71137096D01*
X166540873Y-71137340D01*
X166531969Y-71138296D01*
X166531899Y-71138275D01*
X166081851Y-71002979D01*
X166077818Y-71000835D01*
X166074876Y-70998432D01*
X166071459Y-70993827D01*
X165901721Y-70581772D01*
X165900839Y-70577296D01*
X165900842Y-70575514D01*
X165904281Y-70567251D01*
X165904580Y-70566954D01*
X165910828Y-70563729D01*
X165910828Y-70563728D01*
X165910963Y-70563705D01*
X165913572Y-70563552D01*
X165957490Y-70565889D01*
X166052537Y-70562392D01*
X166137675Y-70549126D01*
X166222804Y-70524318D01*
X166296889Y-70491298D01*
X166382626Y-70436435D01*
X166451256Y-70376256D01*
X166405769Y-70237815D01*
X166405218Y-70233291D01*
X166405352Y-70231509D01*
X166409392Y-70223519D01*
X166409907Y-70223075D01*
X166417526Y-70220256D01*
X166735973Y-70220256D01*
X166740448Y-70221146D01*
G37*
%TD.AperFunction*%
%TD*%
%TA.AperFunction,Conductor*%
%TO.N,+3.3V*%
G36*
X157494541Y-67346042D02*
G01*
X157648482Y-67417488D01*
X157649094Y-67417795D01*
X157780040Y-67488625D01*
X157836616Y-67519896D01*
X157970030Y-67581613D01*
X158065319Y-67598304D01*
X158072877Y-67603107D01*
X158075000Y-67609829D01*
X158075000Y-67939617D01*
X158071573Y-67947890D01*
X158064691Y-67951234D01*
X158004943Y-67958387D01*
X158004940Y-67958387D01*
X158004939Y-67958388D01*
X157934959Y-67981650D01*
X157934956Y-67981651D01*
X157934952Y-67981653D01*
X157780044Y-68061373D01*
X157713763Y-68097993D01*
X157713190Y-68098289D01*
X157494614Y-68203766D01*
X157485674Y-68204276D01*
X157480298Y-68200418D01*
X157400764Y-68098289D01*
X157154597Y-67782188D01*
X157152218Y-67773556D01*
X157154597Y-67767812D01*
X157480388Y-67349466D01*
X157488174Y-67345045D01*
X157494541Y-67346042D01*
G37*
%TD.AperFunction*%
%TD*%
%TA.AperFunction,Conductor*%
%TO.N,+3.3V*%
G36*
X156692371Y-67619471D02*
G01*
X157145661Y-67772588D01*
X157152403Y-67778483D01*
X157152735Y-67779216D01*
X157329055Y-68207183D01*
X157329038Y-68216138D01*
X157322694Y-68222458D01*
X157317202Y-68223294D01*
X157300143Y-68221779D01*
X157300117Y-68221778D01*
X157092270Y-68219322D01*
X157092262Y-68219323D01*
X156961448Y-68247932D01*
X156900035Y-68280599D01*
X156848752Y-68323736D01*
X156848740Y-68323747D01*
X156569706Y-68602781D01*
X156561433Y-68606208D01*
X156553160Y-68602781D01*
X156322218Y-68371839D01*
X156318791Y-68363566D01*
X156322216Y-68355296D01*
X156601256Y-68076256D01*
X156607553Y-68069815D01*
X156663366Y-67987830D01*
X156681453Y-67932123D01*
X156691055Y-67863588D01*
X156690451Y-67754532D01*
X156676998Y-67631830D01*
X156679502Y-67623235D01*
X156687353Y-67618927D01*
X156692371Y-67619471D01*
G37*
%TD.AperFunction*%
%TD*%
%TA.AperFunction,Conductor*%
%TO.N,+3.3V*%
G36*
X164199696Y-64270807D02*
G01*
X164204456Y-64278392D01*
X164204166Y-64283572D01*
X164041261Y-64851226D01*
X164035685Y-64858233D01*
X164028710Y-64859626D01*
X163996507Y-64856011D01*
X163996505Y-64856011D01*
X163981135Y-64857107D01*
X163888799Y-64863696D01*
X163888791Y-64863698D01*
X163850810Y-64878964D01*
X163850804Y-64878967D01*
X163829728Y-64894783D01*
X163821054Y-64897008D01*
X163814433Y-64893698D01*
X163582868Y-64662133D01*
X163579441Y-64653860D01*
X163582868Y-64645587D01*
X163583338Y-64645142D01*
X163699564Y-64541113D01*
X163699695Y-64540999D01*
X163724075Y-64520245D01*
X163951382Y-64311278D01*
X163957347Y-64308356D01*
X164190967Y-64268809D01*
X164199696Y-64270807D01*
G37*
%TD.AperFunction*%
%TD*%
%TA.AperFunction,Conductor*%
%TO.N,+3.3V*%
G36*
X168805367Y-63953311D02*
G01*
X168805577Y-63953398D01*
X168807934Y-63954711D01*
X169239693Y-64265467D01*
X169242804Y-64268801D01*
X169243957Y-64270665D01*
X169245537Y-64278816D01*
X169245382Y-64279720D01*
X169245327Y-64280037D01*
X169244045Y-64283688D01*
X169162221Y-64432160D01*
X169162017Y-64432515D01*
X169161812Y-64432858D01*
X169161592Y-64433212D01*
X169079118Y-64560660D01*
X169079077Y-64560723D01*
X169029421Y-64636386D01*
X169029415Y-64636395D01*
X169029374Y-64636478D01*
X168968501Y-64752773D01*
X168952245Y-64838201D01*
X168950531Y-64842436D01*
X168949206Y-64844454D01*
X168942874Y-64849212D01*
X168942005Y-64849480D01*
X168938557Y-64850000D01*
X168662516Y-64850000D01*
X168658038Y-64849109D01*
X168655962Y-64848249D01*
X168649965Y-64842652D01*
X168649451Y-64841619D01*
X168648337Y-64838015D01*
X168640278Y-64779918D01*
X168613316Y-64711041D01*
X168520894Y-64560679D01*
X168468474Y-64481119D01*
X168468273Y-64480801D01*
X168468075Y-64480477D01*
X168467888Y-64480160D01*
X168356347Y-64284045D01*
X168354909Y-64279723D01*
X168354642Y-64277590D01*
X168356645Y-64269456D01*
X168357389Y-64268386D01*
X168360153Y-64265577D01*
X168791280Y-63955274D01*
X168795428Y-63953385D01*
X168798213Y-63952730D01*
X168805367Y-63953311D01*
G37*
%TD.AperFunction*%
%TD*%
%TA.AperFunction,Conductor*%
%TO.N,+3.3V*%
G36*
X168941067Y-64503455D02*
G01*
X168942887Y-64504209D01*
X168949095Y-64510247D01*
X168949723Y-64511653D01*
X168950723Y-64515786D01*
X168955573Y-64604454D01*
X168970491Y-64681859D01*
X169017567Y-64799302D01*
X169058987Y-64895022D01*
X169059252Y-64895689D01*
X169059499Y-64896372D01*
X169059719Y-64897044D01*
X169080401Y-64967241D01*
X169080561Y-64967844D01*
X169080704Y-64968446D01*
X169080834Y-64969068D01*
X169094858Y-65046611D01*
X169094779Y-65051173D01*
X169094401Y-65052916D01*
X169089299Y-65060273D01*
X169089295Y-65060276D01*
X169089293Y-65060278D01*
X169087966Y-65061131D01*
X169083304Y-65062870D01*
X168802492Y-65103208D01*
X168800828Y-65103327D01*
X168799172Y-65103327D01*
X168797508Y-65103208D01*
X168517392Y-65062970D01*
X168513091Y-65061454D01*
X168511559Y-65060546D01*
X168506190Y-65053381D01*
X168505845Y-65052033D01*
X168505766Y-65046585D01*
X168537358Y-64905808D01*
X168537633Y-64904801D01*
X168537952Y-64903810D01*
X168538317Y-64902827D01*
X168582319Y-64799563D01*
X168582366Y-64799456D01*
X168582470Y-64799226D01*
X168582569Y-64799014D01*
X168589553Y-64784443D01*
X168589557Y-64784435D01*
X168632720Y-64669495D01*
X168632722Y-64669491D01*
X168645340Y-64596526D01*
X168649332Y-64516007D01*
X168650445Y-64511580D01*
X168651280Y-64509818D01*
X168657648Y-64503910D01*
X168659111Y-64503346D01*
X168663311Y-64502567D01*
X168936595Y-64502567D01*
X168941067Y-64503455D01*
G37*
%TD.AperFunction*%
%TD*%
%TA.AperFunction,Conductor*%
%TO.N,GND*%
G36*
X175673356Y-61691373D02*
G01*
X175671650Y-61800062D01*
X175676394Y-62115033D01*
X175697260Y-62286911D01*
X175725000Y-62362500D01*
X175575000Y-62735423D01*
X174975000Y-62112500D01*
X175036205Y-62109365D01*
X175099772Y-62094376D01*
X175159320Y-62068800D01*
X175223478Y-62027546D01*
X175281351Y-61976394D01*
X175339623Y-61908474D01*
X175388353Y-61834460D01*
X175427673Y-61756298D01*
X175455609Y-61679710D01*
X175475000Y-61562500D01*
X175675000Y-61562500D01*
X175673356Y-61691373D01*
G37*
%TD.AperFunction*%
%TD*%
%TA.AperFunction,Conductor*%
%TO.N,GND*%
G36*
X175852164Y-61677305D02*
G01*
X175802161Y-61782727D01*
X175757791Y-61858570D01*
X175738930Y-61889751D01*
X175693543Y-61991130D01*
X175679818Y-62063247D01*
X175675000Y-62159933D01*
X175475000Y-62159933D01*
X175469076Y-62054186D01*
X175452303Y-61977463D01*
X175426180Y-61916635D01*
X175392209Y-61858571D01*
X175377912Y-61835094D01*
X175297836Y-61677305D01*
X175575000Y-61558933D01*
X175852164Y-61677305D01*
G37*
%TD.AperFunction*%
%TD*%
%TA.AperFunction,Conductor*%
%TO.N,GND*%
G36*
X170044406Y-64350167D02*
G01*
X170059073Y-64408281D01*
X170086308Y-64460385D01*
X170193750Y-64581987D01*
X169937500Y-64798547D01*
X169681250Y-64793750D01*
X169693807Y-64659190D01*
X169730310Y-64551737D01*
X169776239Y-64464092D01*
X169820254Y-64352276D01*
X169832844Y-64283247D01*
X169837500Y-64197547D01*
X170037500Y-64197547D01*
X170044406Y-64350167D01*
G37*
%TD.AperFunction*%
%TD*%
%TA.AperFunction,Conductor*%
%TO.N,GND*%
G36*
X174340152Y-62567168D02*
G01*
X175019662Y-62710517D01*
X175027049Y-62715578D01*
X175028062Y-62717503D01*
X175266872Y-63296367D01*
X175266859Y-63305322D01*
X175260518Y-63311645D01*
X175256329Y-63312526D01*
X175153859Y-63314919D01*
X175065515Y-63325821D01*
X175036065Y-63329455D01*
X175036059Y-63329456D01*
X175036048Y-63329458D01*
X174899564Y-63358657D01*
X174899553Y-63358660D01*
X174833537Y-63378374D01*
X174762899Y-63399470D01*
X174762896Y-63399470D01*
X174762893Y-63399472D01*
X174762880Y-63399476D01*
X174620601Y-63453407D01*
X174620577Y-63453417D01*
X174484829Y-63515889D01*
X174255269Y-63651075D01*
X174112810Y-63767601D01*
X174104236Y-63770187D01*
X174097129Y-63766818D01*
X173971057Y-63640746D01*
X173967630Y-63632473D01*
X173970646Y-63624632D01*
X174009899Y-63581161D01*
X174075232Y-63492522D01*
X174138395Y-63388032D01*
X174245100Y-63154462D01*
X174311580Y-62926345D01*
X174336331Y-62727427D01*
X174326071Y-62579425D01*
X174328918Y-62570936D01*
X174336934Y-62566945D01*
X174340152Y-62567168D01*
G37*
%TD.AperFunction*%
%TD*%
%TA.AperFunction,Conductor*%
%TO.N,GND*%
G36*
X173885668Y-63724641D02*
G01*
X174012470Y-63851443D01*
X174015897Y-63859716D01*
X174013237Y-63867144D01*
X173900220Y-64004688D01*
X173795507Y-64184835D01*
X173795500Y-64184847D01*
X173691977Y-64409458D01*
X173658926Y-64488861D01*
X173658031Y-64490590D01*
X173627900Y-64538544D01*
X173601190Y-64581055D01*
X173601189Y-64581058D01*
X173601188Y-64581058D01*
X173563939Y-64687509D01*
X173563884Y-64687833D01*
X173563866Y-64688167D01*
X173559489Y-64727004D01*
X173558682Y-64730149D01*
X173510576Y-64846982D01*
X173504257Y-64853327D01*
X173495302Y-64853346D01*
X173494941Y-64853190D01*
X173081196Y-64666324D01*
X173075067Y-64659795D01*
X173074312Y-64655631D01*
X173074737Y-64489764D01*
X173076412Y-63835721D01*
X173079860Y-63827459D01*
X173088142Y-63824053D01*
X173095099Y-63826368D01*
X173106277Y-63834690D01*
X173124283Y-63848095D01*
X173184256Y-63877796D01*
X173249048Y-63897065D01*
X173329924Y-63907687D01*
X173413478Y-63906672D01*
X173510312Y-63893104D01*
X173604445Y-63868560D01*
X173694251Y-63834695D01*
X173774185Y-63794471D01*
X173870454Y-63723496D01*
X173879145Y-63721346D01*
X173885668Y-63724641D01*
G37*
%TD.AperFunction*%
%TD*%
%TA.AperFunction,Conductor*%
%TO.N,GND*%
G36*
X172622203Y-66628427D02*
G01*
X172625612Y-66636053D01*
X172627902Y-66677398D01*
X172640658Y-66740139D01*
X172640660Y-66740147D01*
X172668203Y-66818216D01*
X172668624Y-66824497D01*
X172536454Y-67458552D01*
X172531411Y-67465951D01*
X172522612Y-67467618D01*
X172515213Y-67462575D01*
X172513546Y-67458552D01*
X172502991Y-67407919D01*
X172381338Y-66824316D01*
X172381649Y-66818363D01*
X172417294Y-66707156D01*
X172424005Y-66635606D01*
X172428190Y-66627690D01*
X172435654Y-66625000D01*
X172613930Y-66625000D01*
X172622203Y-66628427D01*
G37*
%TD.AperFunction*%
%TD*%
%TA.AperFunction,Conductor*%
%TO.N,GND*%
G36*
X170298770Y-64749713D02*
G01*
X170346233Y-64783246D01*
X170404436Y-64793174D01*
X170476073Y-64790818D01*
X170550798Y-64788000D01*
X170564056Y-64788000D01*
X170564056Y-64987500D01*
X170398311Y-65002273D01*
X170286111Y-65035649D01*
X170155888Y-65077090D01*
X170079355Y-65089167D01*
X169981250Y-65093750D01*
X169963056Y-64887500D01*
X170259357Y-64681250D01*
X170298770Y-64749713D01*
G37*
%TD.AperFunction*%
%TD*%
%TA.AperFunction,Conductor*%
%TO.N,GND*%
G36*
X170004158Y-64487347D02*
G01*
X170015538Y-64501187D01*
X170054929Y-64510902D01*
X170118896Y-64527191D01*
X169900073Y-64808576D01*
X169681250Y-64793750D01*
X169686377Y-64736094D01*
X169699889Y-64692315D01*
X169740856Y-64627834D01*
X169783231Y-64559614D01*
X169795468Y-64517336D01*
X169800073Y-64462427D01*
X170000073Y-64462427D01*
X170004158Y-64487347D01*
G37*
%TD.AperFunction*%
%TD*%
%TA.AperFunction,Conductor*%
%TO.N,GND*%
G36*
X170110617Y-61979597D02*
G01*
X170225219Y-62064521D01*
X170386407Y-62138283D01*
X170536608Y-62172977D01*
X170661516Y-62170983D01*
X170744133Y-62143287D01*
X170753065Y-62143906D01*
X170758944Y-62150661D01*
X170759487Y-62155607D01*
X170701344Y-62707160D01*
X170697068Y-62715028D01*
X170695392Y-62716160D01*
X170378612Y-62892220D01*
X170369716Y-62893243D01*
X170362701Y-62887677D01*
X170362119Y-62886468D01*
X170322157Y-62789631D01*
X170177698Y-62451175D01*
X170070720Y-62252240D01*
X169967622Y-62123187D01*
X169965136Y-62114586D01*
X169968490Y-62107614D01*
X170095380Y-61980724D01*
X170103652Y-61977298D01*
X170110617Y-61979597D01*
G37*
%TD.AperFunction*%
%TD*%
%TA.AperFunction,Conductor*%
%TO.N,5V*%
G36*
X162806265Y-67128619D02*
G01*
X163260023Y-67390770D01*
X163265472Y-67397875D01*
X163264301Y-67406753D01*
X163260837Y-67410514D01*
X162568879Y-67890356D01*
X162560128Y-67892255D01*
X162552598Y-67887409D01*
X162550863Y-67883586D01*
X162533753Y-67815244D01*
X162492822Y-67751947D01*
X162436730Y-67707014D01*
X162370030Y-67677354D01*
X162354142Y-67673536D01*
X162297275Y-67659873D01*
X162223003Y-67651478D01*
X162088145Y-67649578D01*
X162061829Y-67649869D01*
X162053519Y-67646534D01*
X162050001Y-67638299D01*
X162050000Y-67638170D01*
X162050000Y-67162807D01*
X162053427Y-67154534D01*
X162061700Y-67151107D01*
X162062747Y-67151154D01*
X162253152Y-67168401D01*
X162253273Y-67168413D01*
X162459502Y-67189844D01*
X162459870Y-67189844D01*
X162630723Y-67189968D01*
X162737113Y-67166559D01*
X162793962Y-67128989D01*
X162802754Y-67127288D01*
X162806265Y-67128619D01*
G37*
%TD.AperFunction*%
%TD*%
%TA.AperFunction,Conductor*%
%TO.N,5V*%
G36*
X161656207Y-67108673D02*
G01*
X161675528Y-67135670D01*
X161675529Y-67135670D01*
X161675530Y-67135672D01*
X161709148Y-67160041D01*
X161794158Y-67181642D01*
X161794159Y-67181641D01*
X161794160Y-67181642D01*
X161808141Y-67181172D01*
X161892044Y-67178356D01*
X161989730Y-67163744D01*
X161989904Y-67163720D01*
X162086854Y-67151638D01*
X162095487Y-67154015D01*
X162099910Y-67161801D01*
X162100000Y-67163248D01*
X162100000Y-67636751D01*
X162096573Y-67645024D01*
X162088300Y-67648451D01*
X162086853Y-67648361D01*
X161989937Y-67636283D01*
X161989713Y-67636253D01*
X161879092Y-67620291D01*
X161879090Y-67620291D01*
X161769383Y-67621174D01*
X161729104Y-67635567D01*
X161696946Y-67647059D01*
X161696944Y-67647059D01*
X161670587Y-67669533D01*
X161656134Y-67690921D01*
X161648662Y-67695857D01*
X161640538Y-67694472D01*
X161153791Y-67410102D01*
X161148376Y-67402970D01*
X161149591Y-67394098D01*
X161153791Y-67389898D01*
X161515881Y-67178356D01*
X161640791Y-67105379D01*
X161649663Y-67104165D01*
X161656207Y-67108673D01*
G37*
%TD.AperFunction*%
%TD*%
%TA.AperFunction,Conductor*%
%TO.N,5V*%
G36*
X163852310Y-67146902D02*
G01*
X164066192Y-67239438D01*
X164066238Y-67239458D01*
X164185736Y-67291774D01*
X164185758Y-67291783D01*
X164214873Y-67302292D01*
X164364013Y-67356125D01*
X164489909Y-67373599D01*
X164497632Y-67378131D01*
X164500000Y-67385188D01*
X164500000Y-67864420D01*
X164496573Y-67872693D01*
X164489474Y-67876061D01*
X164403971Y-67884680D01*
X164403968Y-67884680D01*
X164403966Y-67884681D01*
X164363565Y-67895772D01*
X164304043Y-67912114D01*
X164135592Y-67981837D01*
X164066192Y-68010562D01*
X164066173Y-68010569D01*
X164066159Y-68010576D01*
X163852312Y-68103096D01*
X163843358Y-68103236D01*
X163840134Y-68101311D01*
X163284641Y-67633953D01*
X163280516Y-67626004D01*
X163283220Y-67617468D01*
X163284641Y-67616047D01*
X163840134Y-67148687D01*
X163848670Y-67145984D01*
X163852310Y-67146902D01*
G37*
%TD.AperFunction*%
%TD*%
%TA.AperFunction,Conductor*%
%TO.N,5V*%
G36*
X164898516Y-67184369D02*
G01*
X164901858Y-67186653D01*
X165343244Y-67617431D01*
X165346771Y-67625662D01*
X165344045Y-67633312D01*
X165107916Y-67915537D01*
X165099979Y-67919683D01*
X165091435Y-67917002D01*
X165090970Y-67916592D01*
X165061673Y-67889314D01*
X165011186Y-67864945D01*
X164883503Y-67843351D01*
X164736521Y-67846656D01*
X164736509Y-67846657D01*
X164589937Y-67861280D01*
X164589746Y-67861298D01*
X164437670Y-67873946D01*
X164429141Y-67871216D01*
X164425040Y-67863256D01*
X164425000Y-67862286D01*
X164425000Y-67386952D01*
X164428427Y-67378679D01*
X164436700Y-67375252D01*
X164436887Y-67375254D01*
X164472129Y-67376008D01*
X164479695Y-67376165D01*
X164532648Y-67377266D01*
X164532653Y-67377266D01*
X164532654Y-67377265D01*
X164532662Y-67377266D01*
X164662119Y-67366673D01*
X164761088Y-67332011D01*
X164836250Y-67270773D01*
X164836253Y-67270770D01*
X164848979Y-67252389D01*
X164865951Y-67227878D01*
X164883031Y-67190193D01*
X164889566Y-67184075D01*
X164898516Y-67184369D01*
G37*
%TD.AperFunction*%
%TD*%
%TA.AperFunction,Conductor*%
%TO.N,5V*%
G36*
X163352173Y-67702571D02*
G01*
X163354676Y-67705297D01*
X163621608Y-68109119D01*
X163623312Y-68117911D01*
X163618300Y-68125331D01*
X163613196Y-68127193D01*
X163500090Y-68140314D01*
X163500088Y-68140315D01*
X163370473Y-68182238D01*
X163370463Y-68182242D01*
X163245121Y-68244751D01*
X163245116Y-68244754D01*
X163125916Y-68321831D01*
X163125914Y-68321833D01*
X162913486Y-68495591D01*
X162756494Y-68647336D01*
X162748164Y-68650621D01*
X162740090Y-68647196D01*
X162402896Y-68310002D01*
X162399469Y-68301729D01*
X162402848Y-68293505D01*
X162427378Y-68268701D01*
X162533161Y-68145194D01*
X162596105Y-68035960D01*
X162617960Y-67944633D01*
X162604202Y-67865622D01*
X162582734Y-67828315D01*
X162582735Y-67828315D01*
X162565610Y-67809785D01*
X162562512Y-67801383D01*
X162566262Y-67793251D01*
X162572843Y-67790223D01*
X163343559Y-67700128D01*
X163352173Y-67702571D01*
G37*
%TD.AperFunction*%
%TD*%
%TA.AperFunction,Conductor*%
%TO.N,5V*%
G36*
X161843659Y-68869695D02*
G01*
X161845374Y-68871111D01*
X162179919Y-69205656D01*
X162183346Y-69213929D01*
X162179919Y-69222202D01*
X162179207Y-69222858D01*
X162123147Y-69270330D01*
X162122249Y-69271018D01*
X162044877Y-69324621D01*
X162044851Y-69324640D01*
X161993626Y-69360545D01*
X161927385Y-69406976D01*
X161758678Y-69553792D01*
X161752637Y-69556551D01*
X161468661Y-69596751D01*
X161459989Y-69594517D01*
X161455436Y-69586806D01*
X161455789Y-69581890D01*
X161619910Y-69019948D01*
X161625518Y-69012970D01*
X161634420Y-69012000D01*
X161639770Y-69015331D01*
X161650023Y-69026532D01*
X161650027Y-69026535D01*
X161673704Y-69037420D01*
X161673705Y-69037420D01*
X161673707Y-69037421D01*
X161696666Y-69035244D01*
X161718779Y-69022585D01*
X161738815Y-69000000D01*
X161759972Y-68976150D01*
X161759972Y-68976148D01*
X161759978Y-68976143D01*
X161796247Y-68918877D01*
X161796428Y-68918602D01*
X161827413Y-68872825D01*
X161834887Y-68867895D01*
X161843659Y-68869695D01*
G37*
%TD.AperFunction*%
%TD*%
%TA.AperFunction,Conductor*%
%TO.N,/SWDIO*%
G36*
X170031724Y-75885337D02*
G01*
X170031751Y-75885355D01*
X170036715Y-75892702D01*
X170168030Y-76522653D01*
X170168168Y-76526629D01*
X170167652Y-76530395D01*
X170166451Y-76534184D01*
X170143455Y-76578617D01*
X170143444Y-76578640D01*
X170143435Y-76578660D01*
X170125036Y-76624906D01*
X170125035Y-76624905D01*
X170124970Y-76625069D01*
X170124961Y-76625093D01*
X170116045Y-76646618D01*
X170097042Y-76692494D01*
X170095962Y-76694514D01*
X170094705Y-76696396D01*
X170093249Y-76698171D01*
X170034918Y-76756502D01*
X170031126Y-76759037D01*
X170029481Y-76759719D01*
X170020526Y-76759721D01*
X170018874Y-76759037D01*
X170015081Y-76756502D01*
X169905197Y-76646618D01*
X169902661Y-76642823D01*
X169902178Y-76641656D01*
X169902179Y-76632702D01*
X169908509Y-76626373D01*
X169909684Y-76625887D01*
X169914152Y-76625000D01*
X169925000Y-76625000D01*
X169925000Y-76624998D01*
X169924999Y-76624997D01*
X169924962Y-76624905D01*
X169920428Y-76613509D01*
X169906862Y-76579410D01*
X169906688Y-76578866D01*
X169906573Y-76578612D01*
X169906278Y-76578109D01*
X169883546Y-76534184D01*
X169882345Y-76530393D01*
X169881830Y-76526627D01*
X169881967Y-76522659D01*
X170013072Y-75893718D01*
X170014858Y-75889520D01*
X170015571Y-75888474D01*
X170023066Y-75883575D01*
X170031724Y-75885337D01*
G37*
%TD.AperFunction*%
%TD*%
%TA.AperFunction,Conductor*%
%TO.N,/SWDIO*%
G36*
X160774744Y-72091773D02*
G01*
X160778059Y-72098522D01*
X160780048Y-72113807D01*
X160780049Y-72113813D01*
X160785758Y-72126574D01*
X160798262Y-72154523D01*
X160827153Y-72188530D01*
X160881689Y-72226401D01*
X160881693Y-72226403D01*
X160944411Y-72252564D01*
X160944416Y-72252566D01*
X161015663Y-72269696D01*
X161064342Y-72274047D01*
X161072277Y-72278197D01*
X161075000Y-72285701D01*
X161075000Y-72463756D01*
X161071573Y-72472029D01*
X161063766Y-72475447D01*
X161052331Y-72475902D01*
X161052329Y-72475902D01*
X160934908Y-72500623D01*
X160845384Y-72546372D01*
X160845383Y-72546373D01*
X160793134Y-72604042D01*
X160780075Y-72655138D01*
X160774706Y-72662305D01*
X160765842Y-72663577D01*
X160760480Y-72660528D01*
X160645943Y-72546372D01*
X160482313Y-72383285D01*
X160478873Y-72375019D01*
X160482285Y-72366741D01*
X160758200Y-72091744D01*
X160766476Y-72088332D01*
X160774744Y-72091773D01*
G37*
%TD.AperFunction*%
%TD*%
%TA.AperFunction,Conductor*%
%TO.N,/SWCLK*%
G36*
X169390451Y-75702849D02*
G01*
X169517643Y-75829199D01*
X169521097Y-75837461D01*
X169517698Y-75845746D01*
X169517643Y-75845801D01*
X169388023Y-75974563D01*
X169379738Y-75977962D01*
X169371476Y-75974508D01*
X169368771Y-75970232D01*
X169362453Y-75952718D01*
X169362453Y-75952717D01*
X169331213Y-75936931D01*
X169331210Y-75936930D01*
X169331211Y-75936930D01*
X169251055Y-75935893D01*
X169237419Y-75936734D01*
X169228951Y-75933822D01*
X169225022Y-75925775D01*
X169225000Y-75925056D01*
X169225000Y-75749943D01*
X169228427Y-75741670D01*
X169236700Y-75738243D01*
X169237395Y-75738264D01*
X169251048Y-75739106D01*
X169312786Y-75740808D01*
X169357689Y-75726522D01*
X169370336Y-75710842D01*
X169370732Y-75708857D01*
X169375711Y-75701418D01*
X169384495Y-75699676D01*
X169390451Y-75702849D01*
G37*
%TD.AperFunction*%
%TD*%
%TA.AperFunction,Conductor*%
%TO.N,/SWCLK*%
G36*
X163920914Y-73777104D02*
G01*
X163997850Y-73831191D01*
X163997851Y-73831191D01*
X163997852Y-73831192D01*
X164114271Y-73874638D01*
X164217086Y-73882246D01*
X164300187Y-73857631D01*
X164334946Y-73833456D01*
X164347309Y-73819999D01*
X164355428Y-73816227D01*
X164363839Y-73819301D01*
X164367594Y-73827095D01*
X164407862Y-74398789D01*
X164405025Y-74407282D01*
X164399065Y-74410953D01*
X164149789Y-74474113D01*
X164140927Y-74472823D01*
X164136221Y-74467517D01*
X164088184Y-74359273D01*
X164006930Y-74207035D01*
X164006929Y-74207033D01*
X164006928Y-74207031D01*
X163927308Y-74088473D01*
X163927301Y-74088465D01*
X163927297Y-74088458D01*
X163848953Y-73993727D01*
X163848930Y-73993702D01*
X163779373Y-73921137D01*
X163776122Y-73912794D01*
X163779545Y-73904769D01*
X163905913Y-73778401D01*
X163914185Y-73774975D01*
X163920914Y-73777104D01*
G37*
%TD.AperFunction*%
%TD*%
%TA.AperFunction,Conductor*%
%TO.N,/SWCLK*%
G36*
X164957991Y-73819012D02*
G01*
X164960851Y-73820048D01*
X165119247Y-73902086D01*
X165119876Y-73902438D01*
X165120406Y-73902757D01*
X165120524Y-73902829D01*
X165121141Y-73903228D01*
X165163786Y-73932769D01*
X165247578Y-73990813D01*
X165247639Y-73990908D01*
X165247664Y-73990874D01*
X165247841Y-73990999D01*
X165247959Y-73991083D01*
X165290041Y-74021646D01*
X165390776Y-74081755D01*
X165463502Y-74097509D01*
X165467689Y-74099327D01*
X165469741Y-74100749D01*
X165474300Y-74107060D01*
X165474523Y-74107817D01*
X165475000Y-74111123D01*
X165475000Y-74287570D01*
X165474109Y-74292049D01*
X165473238Y-74294151D01*
X165467687Y-74300124D01*
X165466691Y-74300625D01*
X165463140Y-74301748D01*
X165418166Y-74308378D01*
X165363429Y-74331426D01*
X165363413Y-74331434D01*
X165247697Y-74409101D01*
X165120854Y-74496950D01*
X165120219Y-74497361D01*
X165119570Y-74497751D01*
X165118923Y-74498112D01*
X164961558Y-74579586D01*
X164957176Y-74580853D01*
X164954522Y-74581080D01*
X164947228Y-74579284D01*
X164946777Y-74578996D01*
X164944450Y-74577042D01*
X164607810Y-74209616D01*
X164605442Y-74205709D01*
X164604733Y-74203758D01*
X164604920Y-74195285D01*
X164605451Y-74194003D01*
X164607631Y-74190578D01*
X164943918Y-73823538D01*
X164947593Y-73820844D01*
X164950009Y-73819717D01*
X164957462Y-73818896D01*
X164957991Y-73819012D01*
G37*
%TD.AperFunction*%
%TD*%
%TA.AperFunction,Conductor*%
%TO.N,/SWCLK*%
G36*
X159415803Y-71533525D02*
G01*
X159487733Y-71550404D01*
X159488638Y-71551030D01*
X159491632Y-71551397D01*
X159492980Y-71551643D01*
X159528901Y-71560410D01*
X159539953Y-71563108D01*
X159539954Y-71563108D01*
X159539962Y-71563110D01*
X159539995Y-71563113D01*
X159540074Y-71563123D01*
X159540168Y-71563134D01*
X159540549Y-71563180D01*
X159540600Y-71563183D01*
X159619599Y-71572160D01*
X159656970Y-71555753D01*
X159661424Y-71554770D01*
X159664429Y-71554707D01*
X159672771Y-71557959D01*
X159672946Y-71558131D01*
X159798573Y-71683758D01*
X159801109Y-71687553D01*
X159801897Y-71689455D01*
X159802072Y-71697963D01*
X159801584Y-71699293D01*
X159799522Y-71702832D01*
X159703960Y-71815481D01*
X159602013Y-71980428D01*
X159543228Y-72130831D01*
X159526771Y-72246279D01*
X159525258Y-72250585D01*
X159524121Y-72252507D01*
X159517714Y-72257662D01*
X159516599Y-72258029D01*
X159512847Y-72258617D01*
X159123711Y-72255584D01*
X159119237Y-72254657D01*
X159117597Y-72253962D01*
X159111319Y-72247583D01*
X159111118Y-72247087D01*
X159111153Y-72238213D01*
X159336853Y-71693677D01*
X159399650Y-71542167D01*
X159402185Y-71538375D01*
X159403832Y-71536728D01*
X159411155Y-71533340D01*
X159411527Y-71533309D01*
X159412186Y-71533256D01*
X159415803Y-71533525D01*
G37*
%TD.AperFunction*%
%TD*%
%TA.AperFunction,Conductor*%
%TO.N,Net-(D1-K)*%
G36*
X153032441Y-71966711D02*
G01*
X153450228Y-72259275D01*
X153455039Y-72266828D01*
X153454072Y-72273906D01*
X153409375Y-72367380D01*
X153408822Y-72368403D01*
X153356212Y-72455091D01*
X153355564Y-72456049D01*
X153249931Y-72596656D01*
X153249772Y-72596863D01*
X153202705Y-72656681D01*
X153143340Y-72752944D01*
X153127000Y-72828280D01*
X153121897Y-72835639D01*
X153115566Y-72837500D01*
X152934967Y-72837500D01*
X152926694Y-72834073D01*
X152923416Y-72827660D01*
X152921021Y-72812790D01*
X152910589Y-72747988D01*
X152868274Y-72657308D01*
X152867825Y-72656681D01*
X152799572Y-72561285D01*
X152597396Y-72344843D01*
X152594253Y-72336457D01*
X152597959Y-72328306D01*
X152598257Y-72328038D01*
X153018109Y-71967418D01*
X153026615Y-71964629D01*
X153032441Y-71966711D01*
G37*
%TD.AperFunction*%
%TD*%
%TA.AperFunction,Conductor*%
%TO.N,Net-(D1-K)*%
G36*
X153121971Y-72728427D02*
G01*
X153125391Y-72736295D01*
X153125711Y-72745568D01*
X153135151Y-72802917D01*
X153155884Y-72861601D01*
X153192683Y-72928834D01*
X153192685Y-72928837D01*
X153244504Y-72998638D01*
X153244505Y-72998639D01*
X153323900Y-73083206D01*
X153415083Y-73163837D01*
X153419011Y-73171884D01*
X153416098Y-73180351D01*
X153415080Y-73181369D01*
X153032747Y-73519155D01*
X153024278Y-73522065D01*
X153017253Y-73519155D01*
X152634973Y-73181417D01*
X152631042Y-73173371D01*
X152633952Y-73164902D01*
X152635011Y-73163847D01*
X152713790Y-73094928D01*
X152839260Y-72955259D01*
X152904511Y-72835991D01*
X152919939Y-72779938D01*
X152924021Y-72735626D01*
X152928193Y-72727703D01*
X152935672Y-72725000D01*
X153113698Y-72725000D01*
X153121971Y-72728427D01*
G37*
%TD.AperFunction*%
%TD*%
%TA.AperFunction,Conductor*%
%TO.N,Net-(D2-K)*%
G36*
X164888556Y-70839733D02*
G01*
X164896543Y-70843769D01*
X164896962Y-70844256D01*
X164899792Y-70852024D01*
X164899034Y-70916568D01*
X164899039Y-70916615D01*
X164910042Y-71001701D01*
X164910046Y-71001727D01*
X164910050Y-71001752D01*
X164937191Y-71107137D01*
X164937389Y-71107666D01*
X164937407Y-71107706D01*
X164976328Y-71210857D01*
X164976373Y-71210984D01*
X164976410Y-71211074D01*
X165030548Y-71321471D01*
X165030552Y-71321478D01*
X165091324Y-71421618D01*
X165196985Y-71553573D01*
X165199087Y-71557622D01*
X165199688Y-71559695D01*
X165198998Y-71568022D01*
X165198442Y-71569179D01*
X165196169Y-71572384D01*
X165073006Y-71695547D01*
X165069209Y-71698084D01*
X165067376Y-71698843D01*
X165058749Y-71698971D01*
X165057330Y-71698433D01*
X165053718Y-71696246D01*
X165005607Y-71653544D01*
X165005465Y-71653410D01*
X165005349Y-71653316D01*
X164879619Y-71570975D01*
X164831708Y-71539598D01*
X164831706Y-71539597D01*
X164831703Y-71539595D01*
X164650461Y-71460596D01*
X164650451Y-71460593D01*
X164650445Y-71460591D01*
X164495091Y-71425000D01*
X164490840Y-71424026D01*
X164490839Y-71424026D01*
X164376814Y-71424869D01*
X164372332Y-71424012D01*
X164370682Y-71423343D01*
X164364302Y-71417058D01*
X164363989Y-71416318D01*
X164363428Y-71408871D01*
X164472133Y-70982758D01*
X164474098Y-70978649D01*
X164476154Y-70975903D01*
X164481859Y-70971804D01*
X164882248Y-70840150D01*
X164886775Y-70839599D01*
X164888556Y-70839733D01*
G37*
%TD.AperFunction*%
%TD*%
%TA.AperFunction,Conductor*%
%TO.N,Net-(D2-K)*%
G36*
X165454154Y-71812877D02*
G01*
X165457728Y-71814997D01*
X165486387Y-71839834D01*
X165528743Y-71876542D01*
X165528882Y-71876672D01*
X165529013Y-71876781D01*
X165529180Y-71876891D01*
X165529373Y-71877020D01*
X165529527Y-71877107D01*
X165721560Y-71999132D01*
X165924363Y-72087129D01*
X165924367Y-72087130D01*
X166012772Y-72108945D01*
X166104718Y-72131635D01*
X166105365Y-72131847D01*
X166105758Y-72131854D01*
X166237124Y-72136782D01*
X166241560Y-72137839D01*
X166243184Y-72138585D01*
X166249270Y-72145148D01*
X166249477Y-72145706D01*
X166249325Y-72154231D01*
X166078713Y-72568408D01*
X166076184Y-72572210D01*
X166073503Y-72574901D01*
X166068582Y-72577848D01*
X165619341Y-72712903D01*
X165614797Y-72713339D01*
X165613025Y-72713160D01*
X165605139Y-72708919D01*
X165604824Y-72708533D01*
X165602252Y-72699956D01*
X165602267Y-72699812D01*
X165604592Y-72680441D01*
X165604601Y-72593701D01*
X165604600Y-72593693D01*
X165604600Y-72593689D01*
X165592405Y-72503982D01*
X165592405Y-72503979D01*
X165564479Y-72396016D01*
X165564457Y-72395923D01*
X165564445Y-72395885D01*
X165564444Y-72395877D01*
X165524812Y-72289762D01*
X165472469Y-72181297D01*
X165414015Y-72083368D01*
X165314410Y-71957891D01*
X165312325Y-71953831D01*
X165311730Y-71951747D01*
X165312445Y-71943446D01*
X165312997Y-71942303D01*
X165315254Y-71939127D01*
X165438555Y-71815826D01*
X165442345Y-71813293D01*
X165444221Y-71812516D01*
X165452784Y-71812366D01*
X165454154Y-71812877D01*
G37*
%TD.AperFunction*%
%TD*%
%TA.AperFunction,Conductor*%
%TO.N,/LED*%
G36*
X164886039Y-72587857D02*
G01*
X164887786Y-72588222D01*
X164895183Y-72593263D01*
X164895581Y-72593870D01*
X164897425Y-72601521D01*
X164890759Y-72663868D01*
X164894958Y-72739845D01*
X164894960Y-72739863D01*
X164894964Y-72739883D01*
X164914021Y-72835292D01*
X164914021Y-72835293D01*
X164914023Y-72835299D01*
X164914025Y-72835307D01*
X164945481Y-72930115D01*
X164992419Y-73033336D01*
X165017251Y-73076165D01*
X165046756Y-73127053D01*
X165046765Y-73127067D01*
X165046849Y-73127171D01*
X165142170Y-73248602D01*
X165144233Y-73252668D01*
X165144822Y-73254774D01*
X165144078Y-73263050D01*
X165143535Y-73264166D01*
X165141287Y-73267320D01*
X165018148Y-73390459D01*
X165014349Y-73392997D01*
X165012561Y-73393737D01*
X165003854Y-73393833D01*
X165002377Y-73393260D01*
X164998721Y-73390991D01*
X164960291Y-73355874D01*
X164779282Y-73230197D01*
X164779279Y-73230196D01*
X164583503Y-73136207D01*
X164583492Y-73136203D01*
X164583480Y-73136198D01*
X164415775Y-73088183D01*
X164413167Y-73086110D01*
X164277768Y-73076332D01*
X164273368Y-73075122D01*
X164273302Y-73075089D01*
X164271775Y-73074323D01*
X164265916Y-73067553D01*
X164265703Y-73066910D01*
X164265990Y-73058780D01*
X164420994Y-72682302D01*
X164423520Y-72678505D01*
X164425957Y-72676058D01*
X164432071Y-72672821D01*
X164881483Y-72587816D01*
X164886039Y-72587857D01*
G37*
%TD.AperFunction*%
%TD*%
%TA.AperFunction,Conductor*%
%TO.N,/LED*%
G36*
X168014144Y-73904289D02*
G01*
X168058552Y-73913546D01*
X168065951Y-73918589D01*
X168067618Y-73927388D01*
X168062575Y-73934787D01*
X168058552Y-73936454D01*
X167425831Y-74068346D01*
X167417347Y-74066879D01*
X167376199Y-74041763D01*
X167376196Y-74041761D01*
X167376187Y-74041756D01*
X167342583Y-74024996D01*
X167274029Y-73996601D01*
X167270233Y-73994065D01*
X167197002Y-73920833D01*
X167193576Y-73912562D01*
X167197002Y-73904290D01*
X167315229Y-73786063D01*
X167323501Y-73782637D01*
X167331774Y-73786064D01*
X167334900Y-73791703D01*
X167342590Y-73825000D01*
X167376199Y-73808237D01*
X167417349Y-73783119D01*
X167425829Y-73781653D01*
X168014144Y-73904289D01*
G37*
%TD.AperFunction*%
%TD*%
%TA.AperFunction,Conductor*%
%TO.N,/OSC+*%
G36*
X172817384Y-62710036D02*
G01*
X172821579Y-62711830D01*
X172824479Y-62713817D01*
X172828682Y-62719007D01*
X173065984Y-63294216D01*
X173066868Y-63298691D01*
X173066866Y-63300472D01*
X173063430Y-63308741D01*
X173063418Y-63308753D01*
X173063016Y-63309153D01*
X173055037Y-63312556D01*
X172953853Y-63314919D01*
X172865515Y-63325821D01*
X172836068Y-63329454D01*
X172836058Y-63329455D01*
X172836050Y-63329457D01*
X172699565Y-63358656D01*
X172699544Y-63358662D01*
X172633537Y-63378374D01*
X172564536Y-63398981D01*
X172564487Y-63398988D01*
X172562099Y-63399710D01*
X172561656Y-63399939D01*
X172420611Y-63453402D01*
X172420562Y-63453423D01*
X172284829Y-63515888D01*
X172284827Y-63515889D01*
X172055271Y-63651073D01*
X171914612Y-63766126D01*
X171910583Y-63768271D01*
X171908551Y-63768884D01*
X171900160Y-63768255D01*
X171898955Y-63767683D01*
X171895697Y-63765386D01*
X171772702Y-63642391D01*
X171770167Y-63638598D01*
X171769416Y-63636786D01*
X171769307Y-63628112D01*
X171769866Y-63626658D01*
X171772099Y-63623022D01*
X171809899Y-63581161D01*
X171875232Y-63492522D01*
X171938395Y-63388032D01*
X172045100Y-63154462D01*
X172111580Y-62926345D01*
X172136331Y-62727427D01*
X172126232Y-62581747D01*
X172126811Y-62577218D01*
X172127377Y-62575530D01*
X172133256Y-62568776D01*
X172133933Y-62568439D01*
X172141560Y-62567465D01*
X172817384Y-62710036D01*
G37*
%TD.AperFunction*%
%TD*%
%TA.AperFunction,Conductor*%
%TO.N,/OSC+*%
G36*
X172157347Y-62275532D02*
G01*
X172445019Y-62463527D01*
X172809063Y-62701432D01*
X172812323Y-62704624D01*
X172813329Y-62706096D01*
X172815167Y-62714860D01*
X172815166Y-62714867D01*
X172815076Y-62715344D01*
X172810175Y-62722839D01*
X172809979Y-62722969D01*
X172157964Y-63149063D01*
X172153732Y-63150766D01*
X172151982Y-63151096D01*
X172143217Y-63149262D01*
X172143211Y-63149258D01*
X172142424Y-63148720D01*
X172138154Y-63143381D01*
X172105106Y-63060191D01*
X172104205Y-63058147D01*
X172042684Y-62918516D01*
X172030386Y-62890604D01*
X172030232Y-62890221D01*
X172029900Y-62889858D01*
X172018054Y-62875678D01*
X171981074Y-62831408D01*
X171981072Y-62831407D01*
X171967029Y-62823920D01*
X171954736Y-62817365D01*
X171954735Y-62817364D01*
X171954734Y-62817364D01*
X171925000Y-62812500D01*
X171924999Y-62812500D01*
X171722564Y-63054461D01*
X171719008Y-63057323D01*
X171717431Y-63058147D01*
X171708512Y-63058941D01*
X171707235Y-63058540D01*
X171702465Y-63055650D01*
X171581364Y-62934549D01*
X171578827Y-62930751D01*
X171578146Y-62929106D01*
X171578143Y-62920161D01*
X171578826Y-62918510D01*
X171581358Y-62914719D01*
X171851836Y-62644240D01*
X171853600Y-62642793D01*
X171855485Y-62641534D01*
X171857494Y-62640461D01*
X171923124Y-62613276D01*
X171924394Y-62612834D01*
X171925684Y-62612467D01*
X171927001Y-62612173D01*
X171954571Y-62607692D01*
X171980783Y-62593804D01*
X172025813Y-62542005D01*
X172065462Y-62463532D01*
X172105102Y-62364819D01*
X172137884Y-62282296D01*
X172140363Y-62278467D01*
X172141604Y-62277189D01*
X172149823Y-62273642D01*
X172150780Y-62273628D01*
X172157347Y-62275532D01*
G37*
%TD.AperFunction*%
%TD*%
%TA.AperFunction,Conductor*%
%TO.N,/OSC+*%
G36*
X173116078Y-66625890D02*
G01*
X173116718Y-66626155D01*
X173117897Y-66626643D01*
X173124101Y-66632674D01*
X173124731Y-66634082D01*
X173125731Y-66638208D01*
X173127900Y-66677387D01*
X173127903Y-66677407D01*
X173140656Y-66740134D01*
X173140661Y-66740152D01*
X173167669Y-66816702D01*
X173168310Y-66819815D01*
X173168516Y-66822898D01*
X173168296Y-66826066D01*
X173036928Y-67456274D01*
X173035144Y-67460472D01*
X173034435Y-67461513D01*
X173026946Y-67466422D01*
X173018179Y-67464597D01*
X173018143Y-67464572D01*
X173018032Y-67464495D01*
X173018005Y-67464476D01*
X173013284Y-67457296D01*
X173002991Y-67407919D01*
X172881647Y-66825799D01*
X172881417Y-66822803D01*
X172881569Y-66819877D01*
X172882109Y-66816925D01*
X172917294Y-66707156D01*
X172923788Y-66637918D01*
X172925093Y-66633547D01*
X172926075Y-66631689D01*
X172932449Y-66626155D01*
X172933731Y-66625693D01*
X172937698Y-66625000D01*
X173111603Y-66625000D01*
X173116078Y-66625890D01*
G37*
%TD.AperFunction*%
%TD*%
%TA.AperFunction,Conductor*%
%TO.N,/OSC+*%
G36*
X171201940Y-63304948D02*
G01*
X171203375Y-63305585D01*
X171206900Y-63308005D01*
X171329265Y-63430370D01*
X171331802Y-63434166D01*
X171332528Y-63435919D01*
X171332602Y-63444689D01*
X171332004Y-63446205D01*
X171329672Y-63449897D01*
X171328008Y-63451678D01*
X171327996Y-63451694D01*
X171257430Y-63566093D01*
X171217062Y-63695736D01*
X171212846Y-63809411D01*
X171240625Y-63901460D01*
X171283791Y-63954122D01*
X171285940Y-63958148D01*
X171286410Y-63959700D01*
X171285528Y-63968611D01*
X171279420Y-63974008D01*
X171278543Y-63974346D01*
X171274903Y-63975115D01*
X170641235Y-64005912D01*
X170636718Y-64005239D01*
X170635734Y-64004886D01*
X170633856Y-64004213D01*
X170627226Y-63998195D01*
X170627222Y-63998187D01*
X170616308Y-63975024D01*
X170538270Y-63809411D01*
X170494979Y-63717539D01*
X170493877Y-63713116D01*
X170493793Y-63711332D01*
X170496818Y-63702910D01*
X170497941Y-63701675D01*
X170501829Y-63698864D01*
X170800206Y-63565936D01*
X171029660Y-63435861D01*
X171119443Y-63369281D01*
X171164174Y-63328764D01*
X171187510Y-63307628D01*
X171191424Y-63305284D01*
X171193258Y-63304628D01*
X171201940Y-63304948D01*
G37*
%TD.AperFunction*%
%TD*%
%TA.AperFunction,Conductor*%
%TO.N,/NRST*%
G36*
X174031724Y-67560337D02*
G01*
X174031751Y-67560355D01*
X174036715Y-67567702D01*
X174167890Y-68196984D01*
X174167965Y-68201364D01*
X174167259Y-68205450D01*
X174165717Y-68209554D01*
X174141767Y-68248793D01*
X174141757Y-68248807D01*
X174125000Y-68282407D01*
X174124999Y-68282410D01*
X174135235Y-68284773D01*
X174156030Y-68289575D01*
X174160192Y-68291452D01*
X174160984Y-68292017D01*
X174161641Y-68292486D01*
X174166383Y-68300082D01*
X174166384Y-68300085D01*
X174166388Y-68300109D01*
X174165081Y-68307703D01*
X174164733Y-68308331D01*
X174162772Y-68310933D01*
X174047355Y-68426350D01*
X174043557Y-68428887D01*
X174041912Y-68429568D01*
X174032962Y-68429568D01*
X174031317Y-68428887D01*
X174027519Y-68426350D01*
X173956749Y-68355581D01*
X173955293Y-68353806D01*
X173954036Y-68351924D01*
X173952956Y-68349903D01*
X173936333Y-68309771D01*
X173925003Y-68282416D01*
X173913957Y-68260270D01*
X173908243Y-68248812D01*
X173908239Y-68248805D01*
X173908237Y-68248801D01*
X173884279Y-68209550D01*
X173882738Y-68205448D01*
X173882033Y-68201366D01*
X173882108Y-68196987D01*
X173882109Y-68196984D01*
X174013072Y-67568718D01*
X174014858Y-67564520D01*
X174015571Y-67563474D01*
X174023066Y-67558575D01*
X174031724Y-67560337D01*
G37*
%TD.AperFunction*%
%TD*%
%TA.AperFunction,Conductor*%
%TO.N,/NRST*%
G36*
X179885054Y-64465170D02*
G01*
X179885962Y-64465988D01*
X180009925Y-64589951D01*
X180013352Y-64598224D01*
X180009925Y-64606497D01*
X179772356Y-64844065D01*
X179768560Y-64846601D01*
X179700396Y-64874835D01*
X179699609Y-64875129D01*
X179666509Y-64886129D01*
X179650247Y-64919515D01*
X179650246Y-64919519D01*
X179647433Y-65053063D01*
X179649388Y-65145950D01*
X179646136Y-65154293D01*
X179637937Y-65157893D01*
X179629594Y-65154641D01*
X179629428Y-65154479D01*
X179259170Y-64785144D01*
X179255733Y-64776876D01*
X179259150Y-64768598D01*
X179260987Y-64767097D01*
X179582119Y-64555395D01*
X179590912Y-64553703D01*
X179598000Y-64558254D01*
X179645808Y-64623582D01*
X179646148Y-64624074D01*
X179667987Y-64657360D01*
X179667990Y-64657363D01*
X179699998Y-64674999D01*
X179700000Y-64675000D01*
X179868598Y-64466895D01*
X179876469Y-64462625D01*
X179885054Y-64465170D01*
G37*
%TD.AperFunction*%
%TD*%
%TA.AperFunction,Conductor*%
%TO.N,/NRST*%
G36*
X178876169Y-64616583D02*
G01*
X179119700Y-64670777D01*
X179123879Y-64672620D01*
X179125337Y-64673643D01*
X179130141Y-64681198D01*
X179130435Y-64682873D01*
X179130296Y-64687593D01*
X178962062Y-65397876D01*
X178960163Y-65402027D01*
X178959122Y-65403469D01*
X178951503Y-65408171D01*
X178950742Y-65408294D01*
X178943231Y-65406993D01*
X178926674Y-65397876D01*
X178876170Y-65370065D01*
X178752049Y-65306085D01*
X178684283Y-65291090D01*
X178684282Y-65291090D01*
X178684281Y-65291090D01*
X178659256Y-65296426D01*
X178647797Y-65304213D01*
X178643593Y-65305993D01*
X178641226Y-65306483D01*
X178633381Y-65305367D01*
X178632574Y-65304939D01*
X178629780Y-65302875D01*
X178506078Y-65179173D01*
X178503544Y-65175382D01*
X178502813Y-65173619D01*
X178502736Y-65164859D01*
X178503331Y-65163347D01*
X178505655Y-65159659D01*
X178619925Y-65037030D01*
X178743428Y-64861584D01*
X178803983Y-64749637D01*
X178860347Y-64624933D01*
X178863003Y-64621222D01*
X178864807Y-64619530D01*
X178871982Y-64616393D01*
X178872815Y-64616334D01*
X178876169Y-64616583D01*
G37*
%TD.AperFunction*%
%TD*%
%TA.AperFunction,Conductor*%
%TO.N,/CAN_TX*%
G36*
X165771653Y-61738482D02*
G01*
X165884294Y-61793164D01*
X165885196Y-61793652D01*
X165976810Y-61848568D01*
X166080483Y-61907027D01*
X166150878Y-61922938D01*
X166158192Y-61928104D01*
X166159999Y-61934350D01*
X166159999Y-62114730D01*
X166156572Y-62123003D01*
X166149816Y-62126331D01*
X166115506Y-62130817D01*
X166071724Y-62146882D01*
X165976799Y-62201437D01*
X165928681Y-62231105D01*
X165927866Y-62231564D01*
X165771735Y-62311367D01*
X165762809Y-62312081D01*
X165762777Y-62312071D01*
X165257102Y-62146882D01*
X164918044Y-62036121D01*
X164911245Y-62030295D01*
X164910556Y-62021367D01*
X164916383Y-62014567D01*
X164918043Y-62013878D01*
X165762911Y-61737885D01*
X165771653Y-61738482D01*
G37*
%TD.AperFunction*%
%TD*%
%TA.AperFunction,Conductor*%
%TO.N,/CAN_TX*%
G36*
X168120829Y-68628427D02*
G01*
X168124256Y-68636700D01*
X168124234Y-68637420D01*
X168123394Y-68651039D01*
X168121692Y-68712788D01*
X168135977Y-68757689D01*
X168151656Y-68770335D01*
X168151657Y-68770335D01*
X168151658Y-68770336D01*
X168153642Y-68770732D01*
X168161082Y-68775712D01*
X168162823Y-68784496D01*
X168159650Y-68790451D01*
X168033301Y-68917643D01*
X168025039Y-68921097D01*
X168016754Y-68917698D01*
X168016699Y-68917643D01*
X167956851Y-68857397D01*
X167887935Y-68788021D01*
X167884537Y-68779738D01*
X167887991Y-68771476D01*
X167892265Y-68768771D01*
X167909783Y-68762453D01*
X167925569Y-68731213D01*
X167926606Y-68651048D01*
X167925766Y-68637419D01*
X167928678Y-68628951D01*
X167936725Y-68625022D01*
X167937444Y-68625000D01*
X168112556Y-68625000D01*
X168120829Y-68628427D01*
G37*
%TD.AperFunction*%
%TD*%
%TA.AperFunction,Conductor*%
%TO.N,/CAN_RX*%
G36*
X167428011Y-69282108D02*
G01*
X167633770Y-69324999D01*
X168014144Y-69404289D01*
X168056274Y-69413071D01*
X168060472Y-69414855D01*
X168061513Y-69415564D01*
X168066422Y-69423053D01*
X168064597Y-69431820D01*
X168064495Y-69431967D01*
X168064476Y-69431994D01*
X168057296Y-69436715D01*
X167428014Y-69567890D01*
X167423634Y-69567965D01*
X167419547Y-69567259D01*
X167415443Y-69565717D01*
X167376199Y-69541763D01*
X167376199Y-69541762D01*
X167376184Y-69541754D01*
X167359168Y-69533268D01*
X167342583Y-69524996D01*
X167342576Y-69524993D01*
X167275095Y-69497042D01*
X167273074Y-69495962D01*
X167271192Y-69494705D01*
X167269417Y-69493249D01*
X167198647Y-69422478D01*
X167196112Y-69418685D01*
X167196072Y-69418589D01*
X167195430Y-69417040D01*
X167195429Y-69408087D01*
X167196114Y-69406433D01*
X167198645Y-69402646D01*
X167313585Y-69287706D01*
X167317380Y-69285171D01*
X167318057Y-69284891D01*
X167319028Y-69284490D01*
X167327846Y-69284438D01*
X167327866Y-69284446D01*
X167333752Y-69289633D01*
X167334101Y-69290262D01*
X167335270Y-69293305D01*
X167342589Y-69324999D01*
X167342590Y-69324999D01*
X167342590Y-69325000D01*
X167376199Y-69308237D01*
X167376203Y-69308234D01*
X167376210Y-69308231D01*
X167415445Y-69284281D01*
X167419547Y-69282738D01*
X167422509Y-69282226D01*
X167423632Y-69282033D01*
X167428011Y-69282108D01*
G37*
%TD.AperFunction*%
%TD*%
%TA.AperFunction,Conductor*%
%TO.N,/CAN_RX*%
G36*
X165771653Y-65548482D02*
G01*
X165884294Y-65603164D01*
X165885196Y-65603652D01*
X165976810Y-65658568D01*
X166080483Y-65717027D01*
X166150878Y-65732938D01*
X166158192Y-65738104D01*
X166159999Y-65744350D01*
X166159999Y-65924730D01*
X166156572Y-65933003D01*
X166149816Y-65936331D01*
X166115506Y-65940817D01*
X166071724Y-65956882D01*
X165976799Y-66011437D01*
X165928681Y-66041105D01*
X165927866Y-66041564D01*
X165771735Y-66121367D01*
X165762809Y-66122081D01*
X165762777Y-66122071D01*
X165257102Y-65956882D01*
X164918044Y-65846121D01*
X164911245Y-65840295D01*
X164910556Y-65831367D01*
X164916383Y-65824567D01*
X164918043Y-65823878D01*
X165762911Y-65547885D01*
X165771653Y-65548482D01*
G37*
%TD.AperFunction*%
%TD*%
%TA.AperFunction,Conductor*%
%TO.N,/CAN-*%
G36*
X159059412Y-64278644D02*
G01*
X159635991Y-64466996D01*
X159899741Y-64553155D01*
X159903719Y-64555392D01*
X159904675Y-64556211D01*
X159908728Y-64564196D01*
X159905948Y-64572708D01*
X159905945Y-64572712D01*
X159905572Y-64573147D01*
X159900323Y-64576653D01*
X159059248Y-64851408D01*
X159054816Y-64851958D01*
X159054407Y-64851931D01*
X159050609Y-64851671D01*
X159046298Y-64850523D01*
X158935945Y-64796952D01*
X158935489Y-64796718D01*
X158935012Y-64796460D01*
X158934563Y-64796204D01*
X158843196Y-64741436D01*
X158739512Y-64682971D01*
X158739513Y-64682971D01*
X158671390Y-64667574D01*
X158667219Y-64665718D01*
X158665155Y-64664260D01*
X158660662Y-64657943D01*
X158660456Y-64657228D01*
X158659999Y-64653989D01*
X158659999Y-64477596D01*
X158660889Y-64473120D01*
X158661740Y-64471065D01*
X158667378Y-64465048D01*
X158668448Y-64464521D01*
X158672096Y-64463417D01*
X158704494Y-64459182D01*
X158748274Y-64443117D01*
X158843188Y-64388568D01*
X158891145Y-64358998D01*
X158891540Y-64358767D01*
X158891924Y-64358551D01*
X158892335Y-64358330D01*
X159046194Y-64279688D01*
X159050579Y-64278446D01*
X159054854Y-64278104D01*
X159059412Y-64278644D01*
G37*
%TD.AperFunction*%
%TD*%
%TA.AperFunction,Conductor*%
%TO.N,/CAN-*%
G36*
X156709132Y-64268402D02*
G01*
X156713899Y-64269571D01*
X156815585Y-64318935D01*
X156824056Y-64323048D01*
X156824501Y-64323276D01*
X156824970Y-64323529D01*
X156825407Y-64323778D01*
X156916811Y-64378568D01*
X157020484Y-64437027D01*
X157088609Y-64452424D01*
X157092779Y-64454280D01*
X157094844Y-64455739D01*
X157099329Y-64462033D01*
X157099536Y-64462746D01*
X157100000Y-64466008D01*
X157100000Y-64642402D01*
X157099109Y-64646880D01*
X157098259Y-64648932D01*
X157092612Y-64654954D01*
X157091542Y-64655480D01*
X157087897Y-64656581D01*
X157055513Y-64660816D01*
X157055505Y-64660817D01*
X157011725Y-64676881D01*
X156916789Y-64731442D01*
X156868874Y-64760986D01*
X156868486Y-64761215D01*
X156868073Y-64761448D01*
X156867669Y-64761664D01*
X156714103Y-64840156D01*
X156709711Y-64841401D01*
X156705698Y-64841722D01*
X156700604Y-64840994D01*
X156184813Y-64644730D01*
X155979912Y-64566762D01*
X155976045Y-64564338D01*
X155975129Y-64563474D01*
X155971462Y-64555305D01*
X155974641Y-64546940D01*
X155975295Y-64546246D01*
X155979643Y-64543338D01*
X156700507Y-64269041D01*
X156705003Y-64268282D01*
X156709132Y-64268402D01*
G37*
%TD.AperFunction*%
%TD*%
%TA.AperFunction,Conductor*%
%TO.N,/CAN+*%
G36*
X159059412Y-63008644D02*
G01*
X159635991Y-63196996D01*
X159899741Y-63283155D01*
X159903719Y-63285392D01*
X159904675Y-63286211D01*
X159908728Y-63294196D01*
X159905948Y-63302708D01*
X159905945Y-63302712D01*
X159905572Y-63303147D01*
X159900323Y-63306653D01*
X159059248Y-63581408D01*
X159054816Y-63581958D01*
X159054407Y-63581931D01*
X159050609Y-63581671D01*
X159046298Y-63580523D01*
X158935945Y-63526952D01*
X158935489Y-63526718D01*
X158935012Y-63526460D01*
X158934563Y-63526204D01*
X158843196Y-63471436D01*
X158739512Y-63412971D01*
X158739513Y-63412971D01*
X158671390Y-63397574D01*
X158667219Y-63395718D01*
X158665155Y-63394260D01*
X158660662Y-63387943D01*
X158660456Y-63387228D01*
X158659999Y-63383989D01*
X158659999Y-63207596D01*
X158660889Y-63203120D01*
X158661740Y-63201065D01*
X158667378Y-63195048D01*
X158668448Y-63194521D01*
X158672096Y-63193417D01*
X158704494Y-63189182D01*
X158748274Y-63173117D01*
X158843188Y-63118568D01*
X158891145Y-63088998D01*
X158891540Y-63088767D01*
X158891924Y-63088551D01*
X158892335Y-63088330D01*
X159046194Y-63009688D01*
X159050579Y-63008446D01*
X159054854Y-63008104D01*
X159059412Y-63008644D01*
G37*
%TD.AperFunction*%
%TD*%
%TA.AperFunction,Conductor*%
%TO.N,/CAN+*%
G36*
X156711630Y-63018475D02*
G01*
X156711927Y-63018614D01*
X156824295Y-63073164D01*
X156825197Y-63073652D01*
X156916811Y-63128568D01*
X157020484Y-63187027D01*
X157090879Y-63202938D01*
X157098193Y-63208104D01*
X157100000Y-63214350D01*
X157100000Y-63394730D01*
X157096573Y-63403003D01*
X157089817Y-63406331D01*
X157055507Y-63410817D01*
X157011725Y-63426882D01*
X156916800Y-63481437D01*
X156868682Y-63511105D01*
X156867867Y-63511564D01*
X156712031Y-63591216D01*
X156703105Y-63591930D01*
X156702545Y-63591733D01*
X156184813Y-63394730D01*
X155977736Y-63315934D01*
X155971223Y-63309790D01*
X155970963Y-63300839D01*
X155977108Y-63294325D01*
X155977730Y-63294067D01*
X156702680Y-63018215D01*
X156711630Y-63018475D01*
G37*
%TD.AperFunction*%
%TD*%
%TA.AperFunction,Conductor*%
%TO.N,/OSC-*%
G36*
X173595423Y-66628427D02*
G01*
X173598850Y-66636700D01*
X173598842Y-66637120D01*
X173598492Y-66646871D01*
X173598490Y-66646935D01*
X173597626Y-66667785D01*
X173597627Y-66667789D01*
X173607042Y-66734549D01*
X173607042Y-66734551D01*
X173607043Y-66734552D01*
X173622720Y-66764750D01*
X173645340Y-66790053D01*
X173648299Y-66798505D01*
X173648070Y-66800240D01*
X173511347Y-67455636D01*
X173506303Y-67463035D01*
X173497505Y-67464700D01*
X173490106Y-67459656D01*
X173488395Y-67455404D01*
X173376022Y-66855458D01*
X173377867Y-66846697D01*
X173378573Y-66845769D01*
X173400432Y-66819894D01*
X173410039Y-66776580D01*
X173404059Y-66677432D01*
X173400441Y-66637762D01*
X173403103Y-66629212D01*
X173411030Y-66625048D01*
X173412093Y-66625000D01*
X173587150Y-66625000D01*
X173595423Y-66628427D01*
G37*
%TD.AperFunction*%
%TD*%
%TA.AperFunction,Conductor*%
%TO.N,/OSC-*%
G36*
X176667650Y-63710748D02*
G01*
X176668414Y-63711281D01*
X176670952Y-63713688D01*
X176993971Y-64128475D01*
X176996020Y-64132556D01*
X176996713Y-64135071D01*
X176996247Y-64142645D01*
X176996012Y-64143214D01*
X176994429Y-64145937D01*
X176671088Y-64561135D01*
X176667638Y-64564118D01*
X176665451Y-64565361D01*
X176657809Y-64566740D01*
X176657058Y-64566619D01*
X176653909Y-64565641D01*
X176560439Y-64521352D01*
X176559954Y-64521108D01*
X176559469Y-64520850D01*
X176558997Y-64520585D01*
X176513409Y-64493555D01*
X176471176Y-64468515D01*
X176470728Y-64468234D01*
X176470561Y-64468125D01*
X176470265Y-64467930D01*
X176469837Y-64467634D01*
X176326028Y-64363370D01*
X176325802Y-64363202D01*
X176325749Y-64363161D01*
X176262548Y-64315354D01*
X176162345Y-64255852D01*
X176086571Y-64239930D01*
X176082374Y-64238139D01*
X176082317Y-64238100D01*
X176080328Y-64236740D01*
X176075718Y-64230417D01*
X176075482Y-64229625D01*
X176075000Y-64226301D01*
X176075000Y-64049874D01*
X176075889Y-64045402D01*
X176076226Y-64044585D01*
X176076767Y-64043280D01*
X176082291Y-64037316D01*
X176083265Y-64036823D01*
X176086774Y-64035698D01*
X176138347Y-64027814D01*
X176198947Y-64001186D01*
X176325942Y-63911692D01*
X176488534Y-63795461D01*
X176489220Y-63795008D01*
X176489919Y-63794581D01*
X176490630Y-63794179D01*
X176653197Y-63710155D01*
X176657582Y-63708891D01*
X176659978Y-63708689D01*
X176667650Y-63710748D01*
G37*
%TD.AperFunction*%
%TD*%
%TA.AperFunction,Conductor*%
%TO.N,/OSC-*%
G36*
X175575785Y-63833503D02*
G01*
X175866149Y-63945544D01*
X176115953Y-64015998D01*
X176223130Y-64032312D01*
X176313896Y-64036934D01*
X176321983Y-64040777D01*
X176325000Y-64048619D01*
X176325000Y-64227519D01*
X176321573Y-64235792D01*
X176315144Y-64239073D01*
X176197295Y-64257886D01*
X176034652Y-64324291D01*
X176034648Y-64324293D01*
X175896984Y-64417019D01*
X175800059Y-64520226D01*
X175743701Y-64627146D01*
X175728450Y-64717134D01*
X175723689Y-64724718D01*
X175714960Y-64726714D01*
X175709307Y-64724068D01*
X175036742Y-64148406D01*
X175032685Y-64140423D01*
X175035461Y-64131909D01*
X175038631Y-64129311D01*
X175565876Y-63834213D01*
X175574766Y-63833164D01*
X175575785Y-63833503D01*
G37*
%TD.AperFunction*%
%TD*%
M02*
