%TF.GenerationSoftware,KiCad,Pcbnew,10.0.5*%
%TF.CreationDate,2026-09-30T20:25:46+08:00*%
%TF.ProjectId,TTLtoCANforTOF,54544c74-6f43-4414-9e66-6f72544f462e,rev?*%
%TF.SameCoordinates,Original*%
%TF.FileFunction,Soldermask,Top*%
%TF.FilePolarity,Negative*%
%FSLAX46Y46*%
G04 Gerber Fmt 4.6, Leading zero omitted, Abs format (unit mm)*
G04 Created by KiCad (PCBNEW 10.0.5) date 2026-09-30 20:25:46*
%MOMM*%
%LPD*%
G01*
G04 APERTURE LIST*
G04 Aperture macros list*
%AMRoundRect*
0 Rectangle with rounded corners*
0 $1 Rounding radius*
0 $2 $3 $4 $5 $6 $7 $8 $9 X,Y pos of 4 corners*
0 Add a 4 corners polygon primitive as box body*
4,1,4,$2,$3,$4,$5,$6,$7,$8,$9,$2,$3,0*
0 Add four circle primitives for the rounded corners*
1,1,$1+$1,$2,$3*
1,1,$1+$1,$4,$5*
1,1,$1+$1,$6,$7*
1,1,$1+$1,$8,$9*
0 Add four rect primitives between the rounded corners*
20,1,$1+$1,$2,$3,$4,$5,0*
20,1,$1+$1,$4,$5,$6,$7,0*
20,1,$1+$1,$6,$7,$8,$9,0*
20,1,$1+$1,$8,$9,$2,$3,0*%
%AMFreePoly0*
4,1,9,2.975000,-2.350000,1.425000,-2.350000,1.425000,-2.100000,-1.650000,-2.100000,-1.650000,2.100000,1.425000,2.100000,1.425000,2.350000,2.975000,2.350000,2.975000,-2.350000,2.975000,-2.350000,$1*%
G04 Aperture macros list end*
%ADD10RoundRect,0.200000X-0.200000X-0.275000X0.200000X-0.275000X0.200000X0.275000X-0.200000X0.275000X0*%
%ADD11RoundRect,0.200000X-0.275000X0.200000X-0.275000X-0.200000X0.275000X-0.200000X0.275000X0.200000X0*%
%ADD12RoundRect,0.225000X0.250000X-0.225000X0.250000X0.225000X-0.250000X0.225000X-0.250000X-0.225000X0*%
%ADD13RoundRect,0.162500X0.162500X-0.825000X0.162500X0.825000X-0.162500X0.825000X-0.162500X-0.825000X0*%
%ADD14RoundRect,0.150000X0.150000X-0.587500X0.150000X0.587500X-0.150000X0.587500X-0.150000X-0.587500X0*%
%ADD15RoundRect,0.150000X0.200000X-0.150000X0.200000X0.150000X-0.200000X0.150000X-0.200000X-0.150000X0*%
%ADD16RoundRect,0.225000X-0.250000X0.225000X-0.250000X-0.225000X0.250000X-0.225000X0.250000X0.225000X0*%
%ADD17RoundRect,0.225000X0.225000X0.250000X-0.225000X0.250000X-0.225000X-0.250000X0.225000X-0.250000X0*%
%ADD18RoundRect,0.250000X-1.412500X-0.550000X1.412500X-0.550000X1.412500X0.550000X-1.412500X0.550000X0*%
%ADD19RoundRect,0.250000X-0.262500X-0.450000X0.262500X-0.450000X0.262500X0.450000X-0.262500X0.450000X0*%
%ADD20RoundRect,0.760000X1.140000X1.140000X-1.140000X1.140000X-1.140000X-1.140000X1.140000X-1.140000X0*%
%ADD21C,4.000000*%
%ADD22RoundRect,0.250000X-0.475000X0.250000X-0.475000X-0.250000X0.475000X-0.250000X0.475000X0.250000X0*%
%ADD23RoundRect,0.175000X0.400000X-0.175000X0.400000X0.175000X-0.400000X0.175000X-0.400000X-0.175000X0*%
%ADD24FreePoly0,180.000000*%
%ADD25RoundRect,0.200000X0.200000X0.275000X-0.200000X0.275000X-0.200000X-0.275000X0.200000X-0.275000X0*%
%ADD26RoundRect,0.200000X0.275000X-0.200000X0.275000X0.200000X-0.275000X0.200000X-0.275000X-0.200000X0*%
%ADD27R,2.200000X1.500000*%
%ADD28RoundRect,0.150000X-0.512500X-0.150000X0.512500X-0.150000X0.512500X0.150000X-0.512500X0.150000X0*%
%ADD29RoundRect,0.250000X-0.325000X-1.100000X0.325000X-1.100000X0.325000X1.100000X-0.325000X1.100000X0*%
%ADD30RoundRect,0.250000X0.900000X-1.000000X0.900000X1.000000X-0.900000X1.000000X-0.900000X-1.000000X0*%
%ADD31RoundRect,0.250000X-1.100000X0.325000X-1.100000X-0.325000X1.100000X-0.325000X1.100000X0.325000X0*%
%ADD32RoundRect,0.150000X0.150000X0.200000X-0.150000X0.200000X-0.150000X-0.200000X0.150000X-0.200000X0*%
G04 APERTURE END LIST*
D10*
%TO.C,R9*%
X121890000Y-52155852D03*
X123540000Y-52155852D03*
%TD*%
D11*
%TO.C,R4*%
X122187500Y-34550000D03*
X122187500Y-36200000D03*
%TD*%
D12*
%TO.C,C15*%
X106125000Y-49900000D03*
X106125000Y-48350000D03*
%TD*%
D11*
%TO.C,R8*%
X115275000Y-51300000D03*
X115275000Y-52950000D03*
%TD*%
D13*
%TO.C,Q3*%
X112315000Y-48400000D03*
X113585000Y-48400000D03*
X114855000Y-48400000D03*
X116125000Y-48400000D03*
X116125000Y-43325000D03*
X114855000Y-43325000D03*
X113585000Y-43325000D03*
X112315000Y-43325000D03*
%TD*%
D14*
%TO.C,Q2*%
X110150000Y-52337500D03*
X112050000Y-52337500D03*
X111100000Y-50462500D03*
%TD*%
D11*
%TO.C,R10*%
X113700000Y-51400000D03*
X113700000Y-53050000D03*
%TD*%
D15*
%TO.C,D4*%
X113550000Y-54425000D03*
X113550000Y-55825000D03*
%TD*%
D16*
%TO.C,C7*%
X120587500Y-34575000D03*
X120587500Y-36125000D03*
%TD*%
%TO.C,C20*%
X115250000Y-32500000D03*
X115250000Y-34050000D03*
%TD*%
%TO.C,C5*%
X115275000Y-54475000D03*
X115275000Y-56025000D03*
%TD*%
D12*
%TO.C,C13*%
X104475000Y-49025000D03*
X104475000Y-47475000D03*
%TD*%
D11*
%TO.C,R13*%
X109575000Y-47775000D03*
X109575000Y-49425000D03*
%TD*%
D17*
%TO.C,C2*%
X119475000Y-43825000D03*
X117925000Y-43825000D03*
%TD*%
%TO.C,C24*%
X110625000Y-46225000D03*
X109075000Y-46225000D03*
%TD*%
D18*
%TO.C,C22*%
X121375000Y-41025000D03*
X126450000Y-41025000D03*
%TD*%
D19*
%TO.C,R3*%
X120612500Y-32825000D03*
X122437500Y-32825000D03*
%TD*%
D20*
%TO.C,J4*%
X125600000Y-48025000D03*
D21*
X120600000Y-48025000D03*
%TD*%
D22*
%TO.C,C6*%
X111043969Y-33125000D03*
X111043969Y-35025000D03*
%TD*%
D17*
%TO.C,C1*%
X118950000Y-33875000D03*
X117400000Y-33875000D03*
%TD*%
D23*
%TO.C,Q1*%
X127585000Y-57740852D03*
X127585000Y-56470852D03*
X127585000Y-55190852D03*
X127585000Y-53920852D03*
D24*
X124315000Y-55830852D03*
%TD*%
D12*
%TO.C,C23*%
X108550000Y-52500000D03*
X108550000Y-50950000D03*
%TD*%
D25*
%TO.C,R11*%
X111375000Y-54300000D03*
X109725000Y-54300000D03*
%TD*%
D17*
%TO.C,C14*%
X104550000Y-50700000D03*
X103000000Y-50700000D03*
%TD*%
D26*
%TO.C,R5*%
X123812500Y-36200000D03*
X123812500Y-34550000D03*
%TD*%
D27*
%TO.C,L1*%
X106118969Y-33475000D03*
X106118969Y-39875000D03*
%TD*%
D28*
%TO.C,U1*%
X116170092Y-35450000D03*
X116170092Y-36400000D03*
X116170092Y-37350000D03*
X118445092Y-37350000D03*
X118445092Y-36400000D03*
X118445092Y-35450000D03*
%TD*%
D26*
%TO.C,R12*%
X107775000Y-49425000D03*
X107775000Y-47775000D03*
%TD*%
D29*
%TO.C,C4*%
X105650000Y-43200000D03*
X108600000Y-43200000D03*
%TD*%
D26*
%TO.C,R1*%
X116400000Y-40500000D03*
X116400000Y-38850000D03*
%TD*%
D30*
%TO.C,D1*%
X118525000Y-57225000D03*
X118525000Y-52925000D03*
%TD*%
D22*
%TO.C,C8*%
X113314061Y-33000000D03*
X113314061Y-34900000D03*
%TD*%
D31*
%TO.C,C3*%
X111775000Y-37525000D03*
X111775000Y-40475000D03*
%TD*%
D32*
%TO.C,D3*%
X125115000Y-52105852D03*
X126515000Y-52105852D03*
%TD*%
D10*
%TO.C,R2*%
X117875000Y-38925000D03*
X119525000Y-38925000D03*
%TD*%
D11*
%TO.C,R14*%
X110575000Y-42850000D03*
X110575000Y-44500000D03*
%TD*%
M02*
