%TF.GenerationSoftware,KiCad,Pcbnew,10.0.5*%
%TF.CreationDate,2026-10-03T22:29:29+08:00*%
%TF.ProjectId,TTLtoCANforTOF,54544c74-6f43-4414-9e66-6f72544f462e,rev?*%
%TF.SameCoordinates,Original*%
%TF.FileFunction,Copper,L1,Top*%
%TF.FilePolarity,Positive*%
%FSLAX46Y46*%
G04 Gerber Fmt 4.6, Leading zero omitted, Abs format (unit mm)*
G04 Created by KiCad (PCBNEW 10.0.5) date 2026-10-03 22:29:29*
%MOMM*%
%LPD*%
G01*
G04 APERTURE LIST*
G04 Aperture macros list*
%AMRoundRect*
0 Rectangle with rounded corners*
0 $1 Rounding radius*
0 $2 $3 $4 $5 $6 $7 $8 $9 X,Y pos of 4 corners*
0 Add a 4 corners polygon primitive as box body*
4,1,4,$2,$3,$4,$5,$6,$7,$8,$9,$2,$3,0*
0 Add four circle primitives for the rounded corners*
1,1,$1+$1,$2,$3*
1,1,$1+$1,$4,$5*
1,1,$1+$1,$6,$7*
1,1,$1+$1,$8,$9*
0 Add four rect primitives between the rounded corners*
20,1,$1+$1,$2,$3,$4,$5,0*
20,1,$1+$1,$4,$5,$6,$7,0*
20,1,$1+$1,$6,$7,$8,$9,0*
20,1,$1+$1,$8,$9,$2,$3,0*%
G04 Aperture macros list end*
%TA.AperFunction,Conductor*%
%ADD10C,0.200000*%
%TD*%
%TA.AperFunction,SMDPad,CuDef*%
%ADD11RoundRect,0.200000X-0.200000X-0.275000X0.200000X-0.275000X0.200000X0.275000X-0.200000X0.275000X0*%
%TD*%
%TA.AperFunction,SMDPad,CuDef*%
%ADD12RoundRect,0.225000X0.225000X0.250000X-0.225000X0.250000X-0.225000X-0.250000X0.225000X-0.250000X0*%
%TD*%
%TA.AperFunction,SMDPad,CuDef*%
%ADD13RoundRect,0.150000X-0.587500X-0.150000X0.587500X-0.150000X0.587500X0.150000X-0.587500X0.150000X0*%
%TD*%
%TA.AperFunction,SMDPad,CuDef*%
%ADD14RoundRect,0.200000X0.275000X-0.200000X0.275000X0.200000X-0.275000X0.200000X-0.275000X-0.200000X0*%
%TD*%
%TA.AperFunction,SMDPad,CuDef*%
%ADD15RoundRect,0.225000X-0.225000X-0.250000X0.225000X-0.250000X0.225000X0.250000X-0.225000X0.250000X0*%
%TD*%
%TA.AperFunction,SMDPad,CuDef*%
%ADD16RoundRect,0.225000X0.375000X-0.225000X0.375000X0.225000X-0.375000X0.225000X-0.375000X-0.225000X0*%
%TD*%
%TA.AperFunction,SMDPad,CuDef*%
%ADD17RoundRect,0.225000X-0.250000X0.225000X-0.250000X-0.225000X0.250000X-0.225000X0.250000X0.225000X0*%
%TD*%
%TA.AperFunction,SMDPad,CuDef*%
%ADD18RoundRect,0.250000X-0.550000X1.412500X-0.550000X-1.412500X0.550000X-1.412500X0.550000X1.412500X0*%
%TD*%
%TA.AperFunction,SMDPad,CuDef*%
%ADD19RoundRect,0.250000X-0.262500X-0.450000X0.262500X-0.450000X0.262500X0.450000X-0.262500X0.450000X0*%
%TD*%
%TA.AperFunction,ComponentPad*%
%ADD20RoundRect,0.760000X1.140000X-1.140000X1.140000X1.140000X-1.140000X1.140000X-1.140000X-1.140000X0*%
%TD*%
%TA.AperFunction,ComponentPad*%
%ADD21C,4.000000*%
%TD*%
%TA.AperFunction,SMDPad,CuDef*%
%ADD22RoundRect,0.250000X-0.250000X-0.475000X0.250000X-0.475000X0.250000X0.475000X-0.250000X0.475000X0*%
%TD*%
%TA.AperFunction,SMDPad,CuDef*%
%ADD23R,1.500000X2.200000*%
%TD*%
%TA.AperFunction,SMDPad,CuDef*%
%ADD24RoundRect,0.150000X0.150000X-0.512500X0.150000X0.512500X-0.150000X0.512500X-0.150000X-0.512500X0*%
%TD*%
%TA.AperFunction,SMDPad,CuDef*%
%ADD25RoundRect,0.250000X1.100000X-0.325000X1.100000X0.325000X-1.100000X0.325000X-1.100000X-0.325000X0*%
%TD*%
%TA.AperFunction,ViaPad*%
%ADD26C,0.600000*%
%TD*%
%TA.AperFunction,Conductor*%
%ADD27C,0.600000*%
%TD*%
%TA.AperFunction,Conductor*%
%ADD28C,0.500000*%
%TD*%
G04 APERTURE END LIST*
D10*
%TO.N,VCC_IN*%
X178325000Y-70650000D02*
X178325000Y-73150000D01*
X179275000Y-74175000D01*
X181825000Y-74175000D01*
X182825000Y-73175000D01*
X182850000Y-70950000D01*
X182825000Y-66825000D01*
X182475000Y-66450000D01*
X180025000Y-66450000D01*
X179887798Y-66587202D01*
X179862517Y-68736045D01*
X179175000Y-69350000D01*
X178325000Y-69975000D01*
X178325000Y-70650000D01*
%TA.AperFunction,Conductor*%
G36*
X182825000Y-66825000D02*
G01*
X182850000Y-70950000D01*
X182825000Y-73175000D01*
X181825000Y-74175000D01*
X179275000Y-74175000D01*
X178325000Y-73150000D01*
X178325000Y-70650000D01*
X178325000Y-69975000D01*
X179175000Y-69350000D01*
X179862517Y-68736045D01*
X179887798Y-66587202D01*
X180025000Y-66450000D01*
X182475000Y-66450000D01*
X182825000Y-66825000D01*
G37*
%TD.AperFunction*%
%TO.N,+24V*%
X162750000Y-69233333D02*
X162775000Y-72358333D01*
X163450000Y-72958333D01*
X171975000Y-72983333D01*
X172500000Y-73558333D01*
X172500000Y-74858333D01*
X172775000Y-75108333D01*
X176975000Y-75133333D01*
X177225000Y-74883333D01*
X177273042Y-69046190D01*
X177926021Y-68354801D01*
X179300000Y-68333333D01*
X179375000Y-68252083D01*
X179375000Y-67608333D01*
X179325000Y-67558333D01*
X177466667Y-67558333D01*
X176616667Y-68408333D01*
X175918055Y-68408333D01*
X175250000Y-69025000D01*
X175250000Y-69458333D01*
X174975000Y-69683333D01*
X171600000Y-69733333D01*
X171100000Y-70258333D01*
X171100000Y-70783333D01*
X170675000Y-71208333D01*
X166340748Y-71224876D01*
X165377002Y-70467644D01*
X165370304Y-69321546D01*
X165242537Y-69091565D01*
X162847086Y-69108508D01*
X162750000Y-69233333D01*
%TA.AperFunction,Conductor*%
G36*
X179375000Y-67608333D02*
G01*
X179375000Y-68252083D01*
X179300000Y-68333333D01*
X177926021Y-68354801D01*
X177273042Y-69046190D01*
X177225000Y-74883333D01*
X176975000Y-75133333D01*
X172775000Y-75108333D01*
X172500000Y-74858333D01*
X172500000Y-73558333D01*
X171975000Y-72983333D01*
X163450000Y-72958333D01*
X162775000Y-72358333D01*
X162750000Y-69233333D01*
X162847086Y-69108508D01*
X165242537Y-69091565D01*
X165370304Y-69321546D01*
X165377002Y-70467644D01*
X166340748Y-71224876D01*
X170675000Y-71208333D01*
X171100000Y-70783333D01*
X171100000Y-70258333D01*
X171600000Y-69733333D01*
X174975000Y-69683333D01*
X175250000Y-69458333D01*
X175250000Y-69025000D01*
X175918055Y-68408333D01*
X176616667Y-68408333D01*
X177466667Y-67558333D01*
X179325000Y-67558333D01*
X179375000Y-67608333D01*
G37*
%TD.AperFunction*%
%TD*%
D11*
%TO.P,R4,1*%
%TO.N,Net-(C7-Pad1)*%
X160400000Y-63300000D03*
%TO.P,R4,2*%
%TO.N,Net-(U1-FB)*%
X162050000Y-63300000D03*
%TD*%
D12*
%TO.P,C15,1*%
%TO.N,+3.3V*%
X169050000Y-66300000D03*
%TO.P,C15,2*%
%TO.N,GND*%
X167500000Y-66300000D03*
%TD*%
D13*
%TO.P,Q2,1,G_1*%
%TO.N,Net-(D3-A)*%
X178650000Y-66050000D03*
%TO.P,Q2,2,S_2*%
%TO.N,+24V*%
X178650000Y-67950000D03*
%TO.P,Q2,3,D_3*%
%TO.N,VCC_IN*%
X180525000Y-67000000D03*
%TD*%
D14*
%TO.P,R9,1*%
%TO.N,+24V*%
X174050000Y-70300000D03*
%TO.P,R9,2*%
%TO.N,Net-(D3-A)*%
X174050000Y-68650000D03*
%TD*%
D15*
%TO.P,C7,1*%
%TO.N,Net-(C7-Pad1)*%
X160475000Y-65200000D03*
%TO.P,C7,2*%
%TO.N,Net-(U1-FB)*%
X162025000Y-65200000D03*
%TD*%
%TO.P,C20,1*%
%TO.N,GND*%
X154250000Y-70575000D03*
%TO.P,C20,2*%
%TO.N,5V*%
X155800000Y-70575000D03*
%TD*%
D16*
%TO.P,D3,1,K_1*%
%TO.N,+24V*%
X176200000Y-70375000D03*
%TO.P,D3,2,A_2*%
%TO.N,Net-(D3-A)*%
X176200000Y-67075000D03*
%TD*%
D12*
%TO.P,C13,1*%
%TO.N,+3.3V*%
X169025000Y-68075000D03*
%TO.P,C13,2*%
%TO.N,GND*%
X167475000Y-68075000D03*
%TD*%
D17*
%TO.P,C2,1*%
%TO.N,GND*%
X172400000Y-68650000D03*
%TO.P,C2,2*%
%TO.N,+24V*%
X172400000Y-70200000D03*
%TD*%
D18*
%TO.P,C22,1*%
%TO.N,+24V*%
X173425000Y-73212500D03*
%TO.P,C22,2*%
%TO.N,GND*%
X173425000Y-78287500D03*
%TD*%
D11*
%TO.P,R8,1*%
%TO.N,GND*%
X172375000Y-67175000D03*
%TO.P,R8,2*%
%TO.N,Net-(D3-A)*%
X174025000Y-67175000D03*
%TD*%
D19*
%TO.P,R3,1*%
%TO.N,5V*%
X155987500Y-63350000D03*
%TO.P,R3,2*%
%TO.N,Net-(C7-Pad1)*%
X157812500Y-63350000D03*
%TD*%
D20*
%TO.P,J4,1,Pin_1_1*%
%TO.N,GND*%
X180475000Y-76975000D03*
D21*
%TO.P,J4,2,Pin_2_2*%
%TO.N,VCC_IN*%
X180475000Y-71975000D03*
%TD*%
D22*
%TO.P,C6,1*%
%TO.N,GND*%
X154000000Y-65575000D03*
%TO.P,C6,2*%
%TO.N,5V*%
X155900000Y-65575000D03*
%TD*%
D17*
%TO.P,C1,1*%
%TO.N,Net-(U1-BOOT)*%
X159575000Y-67057592D03*
%TO.P,C1,2*%
%TO.N,Net-(U1-SW)*%
X159575000Y-68607592D03*
%TD*%
D12*
%TO.P,C14,1*%
%TO.N,+3.3V*%
X169075000Y-69800000D03*
%TO.P,C14,2*%
%TO.N,GND*%
X167525000Y-69800000D03*
%TD*%
D11*
%TO.P,R5,1*%
%TO.N,Net-(U1-FB)*%
X164100000Y-63450000D03*
%TO.P,R5,2*%
%TO.N,GND*%
X165750000Y-63450000D03*
%TD*%
D23*
%TO.P,L1,1*%
%TO.N,5V*%
X155600000Y-75600000D03*
%TO.P,L1,2*%
%TO.N,Net-(U1-SW)*%
X162000000Y-75600000D03*
%TD*%
D24*
%TO.P,U1,1,GND_1*%
%TO.N,GND*%
X161150000Y-69837500D03*
%TO.P,U1,2,SW_2*%
%TO.N,Net-(U1-SW)*%
X162100000Y-69837500D03*
%TO.P,U1,3,VIN_3*%
%TO.N,+24V*%
X163050000Y-69837500D03*
%TO.P,U1,4,FB_4*%
%TO.N,Net-(U1-FB)*%
X163050000Y-67562500D03*
%TO.P,U1,5,EN_5*%
%TO.N,Net-(U1-EN)*%
X162100000Y-67562500D03*
%TO.P,U1,6,BOOT_6*%
%TO.N,Net-(U1-BOOT)*%
X161150000Y-67562500D03*
%TD*%
D25*
%TO.P,C4,1*%
%TO.N,GND*%
X168175000Y-75250000D03*
%TO.P,C4,2*%
%TO.N,+24V*%
X168175000Y-72300000D03*
%TD*%
D14*
%TO.P,R1,1*%
%TO.N,+24V*%
X164850000Y-69925000D03*
%TO.P,R1,2*%
%TO.N,Net-(U1-EN)*%
X164850000Y-68275000D03*
%TD*%
D22*
%TO.P,C8,1*%
%TO.N,GND*%
X153825000Y-68500000D03*
%TO.P,C8,2*%
%TO.N,5V*%
X155725000Y-68500000D03*
%TD*%
D25*
%TO.P,C3,1*%
%TO.N,GND*%
X164825000Y-75300000D03*
%TO.P,C3,2*%
%TO.N,+24V*%
X164825000Y-72350000D03*
%TD*%
D11*
%TO.P,R2,1*%
%TO.N,Net-(U1-EN)*%
X164150000Y-65125000D03*
%TO.P,R2,2*%
%TO.N,GND*%
X165800000Y-65125000D03*
%TD*%
D26*
%TO.N,+3.3V*%
X170032183Y-68769373D03*
X170375000Y-66075000D03*
X170225000Y-69900000D03*
%TO.N,GND*%
X172600000Y-78225000D03*
X172992229Y-65188003D03*
X154600000Y-78825000D03*
X152375000Y-71350000D03*
X175575000Y-61562500D03*
X150500000Y-68375000D03*
X150425000Y-77875000D03*
X171975000Y-78875000D03*
X169875000Y-64737500D03*
X150450000Y-74800000D03*
X151200000Y-64400000D03*
X182675000Y-64000000D03*
X151075000Y-74150000D03*
X177125000Y-65312500D03*
X164900000Y-78275000D03*
X151750000Y-70725000D03*
X151125000Y-69000000D03*
X164275000Y-78925000D03*
X164900000Y-78900000D03*
X172600000Y-78850000D03*
X177875000Y-61712500D03*
X182350000Y-75100000D03*
X171975000Y-78225000D03*
X175600000Y-78875000D03*
X150575000Y-64425000D03*
X172325000Y-61562500D03*
X176150000Y-65912500D03*
X182050000Y-63375000D03*
X152375000Y-70725000D03*
X176225000Y-78850000D03*
X164275000Y-78275000D03*
X176225000Y-78225000D03*
X151200000Y-63775000D03*
X182050000Y-64025000D03*
X182975000Y-75725000D03*
X154600000Y-78200000D03*
X182975000Y-75100000D03*
X182675000Y-63375000D03*
X150500000Y-69025000D03*
X151050000Y-77875000D03*
X151075000Y-74775000D03*
X170012500Y-61875000D03*
X182350000Y-75750000D03*
X151750000Y-71375000D03*
X178125000Y-63912500D03*
X150425000Y-78525000D03*
X151125000Y-68375000D03*
X150575000Y-63775000D03*
X151050000Y-78500000D03*
X150450000Y-74150000D03*
X153975000Y-78200000D03*
X153975000Y-78850000D03*
X175600000Y-78225000D03*
%TO.N,5V*%
X156000000Y-68387500D03*
X157107412Y-66775000D03*
X156475000Y-75600000D03*
%TD*%
%TO.N,Net-(C7-Pad1)*%
D10*
X160262500Y-65525000D02*
X160475000Y-65312500D01*
X160350000Y-63350000D02*
X160400000Y-63300000D01*
X157812500Y-63350000D02*
X160350000Y-63350000D01*
X160475000Y-65312500D02*
X160475000Y-63812500D01*
%TO.N,Net-(U1-FB)*%
X162050000Y-63737500D02*
X162050000Y-65287500D01*
X162050000Y-63300000D02*
X163950000Y-63300000D01*
X162050000Y-65287500D02*
X162025000Y-65312500D01*
X162850000Y-67362500D02*
X163050000Y-67562500D01*
X163050000Y-66225000D02*
X162025000Y-65200000D01*
X162212500Y-65575000D02*
X162025000Y-65575000D01*
X162075000Y-63712500D02*
X162050000Y-63737500D01*
X163950000Y-63300000D02*
X164100000Y-63450000D01*
X163050000Y-67562500D02*
X163050000Y-66225000D01*
%TO.N,+3.3V*%
X170300000Y-69900000D02*
X170225000Y-69900000D01*
X169250000Y-66100000D02*
X169050000Y-66300000D01*
X170225000Y-69900000D02*
X170175000Y-69900000D01*
X170175000Y-69900000D02*
X169175000Y-69900000D01*
X170225000Y-66100000D02*
X169250000Y-66100000D01*
X169175000Y-69900000D02*
X169075000Y-69800000D01*
X169719373Y-68769373D02*
X169025000Y-68075000D01*
X170032183Y-68769373D02*
X169719373Y-68769373D01*
%TO.N,Net-(D3-A)*%
X176100000Y-67175000D02*
X176200000Y-67075000D01*
D27*
X178650000Y-66050000D02*
X177850000Y-66050000D01*
X174025000Y-67175000D02*
X176100000Y-67175000D01*
D10*
X174025000Y-68500000D02*
X174150000Y-68625000D01*
D27*
X174025000Y-67175000D02*
X174025000Y-68500000D01*
X176825000Y-67075000D02*
X176200000Y-67075000D01*
X177850000Y-66050000D02*
X176825000Y-67075000D01*
%TO.N,5V*%
X156000000Y-66950000D02*
X156000000Y-65775000D01*
X156175000Y-66775000D02*
X156000000Y-66950000D01*
X157107412Y-66775000D02*
X156175000Y-66775000D01*
D10*
X155987500Y-65437500D02*
X155825000Y-65600000D01*
D27*
X155975000Y-75225000D02*
X155975000Y-73175000D01*
X155975000Y-73175000D02*
X155975000Y-68412500D01*
D10*
X156000000Y-65775000D02*
X155825000Y-65600000D01*
D27*
X155987500Y-63350000D02*
X155987500Y-65437500D01*
X155975000Y-68412500D02*
X156000000Y-68387500D01*
D10*
X155600000Y-74075000D02*
X155600000Y-75600000D01*
D27*
X156000000Y-68387500D02*
X156000000Y-66950000D01*
%TO.N,Net-(U1-BOOT)*%
D10*
X159575000Y-67057592D02*
X160645092Y-67057592D01*
X160645092Y-67057592D02*
X161150000Y-67562500D01*
%TO.N,Net-(U1-SW)*%
X161378052Y-68762500D02*
X160225000Y-68762500D01*
X161378052Y-68762500D02*
X162100000Y-69484448D01*
D28*
X162000000Y-75600000D02*
X162100000Y-75500000D01*
D27*
X162100000Y-75500000D02*
X162100000Y-70087500D01*
D28*
X162100000Y-70087500D02*
X162125000Y-70062500D01*
D10*
X162100000Y-69484448D02*
X162100000Y-69837500D01*
X160225000Y-68762500D02*
X160045092Y-68582592D01*
%TO.N,Net-(U1-EN)*%
X163604908Y-68662500D02*
X163992408Y-68275000D01*
X164350000Y-67775000D02*
X164350000Y-65325000D01*
X164350000Y-65325000D02*
X164150000Y-65125000D01*
X162100000Y-67915552D02*
X162100000Y-67562500D01*
X162846948Y-68662500D02*
X163604908Y-68662500D01*
X163992408Y-68275000D02*
X164850000Y-68275000D01*
X164850000Y-68275000D02*
X164350000Y-67775000D01*
X162846948Y-68662500D02*
X162100000Y-67915552D01*
%TD*%
%TA.AperFunction,Conductor*%
%TO.N,+3.3V*%
G36*
X169472920Y-67893167D02*
G01*
X169479240Y-67899511D01*
X169479326Y-67899727D01*
X169780151Y-68673126D01*
X169779956Y-68682078D01*
X169773488Y-68688271D01*
X169764769Y-68688176D01*
X169744741Y-68679879D01*
X169744741Y-68857673D01*
X169741314Y-68865946D01*
X169733041Y-68869373D01*
X169721699Y-68869373D01*
X169717222Y-68868482D01*
X169648678Y-68840090D01*
X168874274Y-68553942D01*
X168867701Y-68547860D01*
X168867244Y-68539223D01*
X169022589Y-68079336D01*
X169028483Y-68072596D01*
X169029197Y-68072272D01*
X169463965Y-67893150D01*
X169472920Y-67893167D01*
G37*
%TD.AperFunction*%
%TD*%
%TA.AperFunction,Conductor*%
%TO.N,Net-(U1-FB)*%
G36*
X163824815Y-62993373D02*
G01*
X163828927Y-62996323D01*
X164018498Y-63207915D01*
X164093600Y-63291740D01*
X164096568Y-63300188D01*
X164093149Y-63307830D01*
X163707175Y-63692842D01*
X163698897Y-63696259D01*
X163691892Y-63693919D01*
X163304680Y-63403510D01*
X163300118Y-63395805D01*
X163300000Y-63394150D01*
X163300000Y-63207915D01*
X163303427Y-63199642D01*
X163307346Y-63197055D01*
X163815862Y-62993270D01*
X163824815Y-62993373D01*
G37*
%TD.AperFunction*%
%TD*%
%TA.AperFunction,Conductor*%
%TO.N,GND*%
G36*
X182497280Y-60900618D02*
G01*
X182502692Y-60900854D01*
X182508085Y-60901207D01*
X182535721Y-60903625D01*
X182657371Y-60914268D01*
X182668081Y-60915678D01*
X182678700Y-60917550D01*
X182689252Y-60919888D01*
X182801188Y-60949882D01*
X182826153Y-60956571D01*
X182836446Y-60959816D01*
X182846604Y-60963514D01*
X182856590Y-60967651D01*
X182985004Y-61027532D01*
X182994597Y-61032526D01*
X183003947Y-61037924D01*
X183013058Y-61043727D01*
X183129155Y-61125019D01*
X183137728Y-61131598D01*
X183145993Y-61138533D01*
X183153969Y-61145842D01*
X183254156Y-61246029D01*
X183261465Y-61254005D01*
X183268400Y-61262270D01*
X183274981Y-61270846D01*
X183356267Y-61386934D01*
X183362074Y-61396051D01*
X183367472Y-61405401D01*
X183372466Y-61414994D01*
X183432347Y-61543408D01*
X183436485Y-61553396D01*
X183440175Y-61563534D01*
X183440177Y-61563538D01*
X183443432Y-61573862D01*
X183480106Y-61710734D01*
X183482448Y-61721297D01*
X183484320Y-61731915D01*
X183485731Y-61742637D01*
X183498791Y-61891906D01*
X183499144Y-61897284D01*
X183499381Y-61902691D01*
X183499500Y-61908121D01*
X183499500Y-66331677D01*
X183494476Y-66366615D01*
X183491289Y-66377468D01*
X183453514Y-66436245D01*
X183389957Y-66465268D01*
X183320807Y-66455327D01*
X183318142Y-66454109D01*
X183271289Y-66415477D01*
X183270959Y-66415758D01*
X183269406Y-66413925D01*
X183268736Y-66413372D01*
X183268492Y-66413031D01*
X183267650Y-66411851D01*
X183267648Y-66411849D01*
X183267647Y-66411847D01*
X183267289Y-66411424D01*
X183266186Y-66410283D01*
X183261683Y-66405458D01*
X182917676Y-66036879D01*
X182903155Y-66021849D01*
X182903152Y-66021846D01*
X182903151Y-66021845D01*
X182903150Y-66021844D01*
X182777756Y-65925626D01*
X182777754Y-65925625D01*
X182777753Y-65925624D01*
X182777750Y-65925622D01*
X182777747Y-65925620D01*
X182683344Y-65886517D01*
X182657529Y-65875824D01*
X182631716Y-65865132D01*
X182621920Y-65863842D01*
X182612125Y-65862553D01*
X182612123Y-65862552D01*
X182475007Y-65844500D01*
X182475000Y-65844500D01*
X180025000Y-65844500D01*
X180024999Y-65844500D01*
X180024997Y-65844500D01*
X180020956Y-65844765D01*
X180020920Y-65844216D01*
X179991358Y-65843861D01*
X179976236Y-65841502D01*
X179975914Y-65841451D01*
X179912711Y-65811670D01*
X179912707Y-65811667D01*
X179907845Y-65807351D01*
X179871090Y-65749215D01*
X179839506Y-65640504D01*
X179839259Y-65639628D01*
X179814022Y-65596955D01*
X179755581Y-65498135D01*
X179755580Y-65498134D01*
X179755578Y-65498130D01*
X179639375Y-65381927D01*
X179639364Y-65381918D01*
X179639357Y-65381914D01*
X179497899Y-65298256D01*
X179497886Y-65298252D01*
X179340079Y-65252403D01*
X179340073Y-65252402D01*
X179340072Y-65252401D01*
X179340070Y-65252401D01*
X179303208Y-65249500D01*
X179303201Y-65249500D01*
X179303194Y-65249500D01*
X178728842Y-65249500D01*
X177928842Y-65249500D01*
X177771158Y-65249500D01*
X177771155Y-65249500D01*
X177771153Y-65249500D01*
X177616527Y-65280257D01*
X177616496Y-65280264D01*
X177470833Y-65340598D01*
X177470824Y-65340603D01*
X177470807Y-65340613D01*
X177339708Y-65428211D01*
X177339707Y-65428212D01*
X177339701Y-65428217D01*
X176692346Y-66075573D01*
X176664095Y-66096722D01*
X176641007Y-66109330D01*
X176581577Y-66124500D01*
X175776662Y-66124500D01*
X175776644Y-66124501D01*
X175776636Y-66124501D01*
X175776617Y-66124503D01*
X175710861Y-66131220D01*
X175677292Y-66134650D01*
X175677290Y-66134650D01*
X175677286Y-66134651D01*
X175677282Y-66134651D01*
X175677121Y-66134706D01*
X175516304Y-66187996D01*
X175516295Y-66188000D01*
X175516292Y-66188002D01*
X175371974Y-66277018D01*
X175371957Y-66277030D01*
X175371949Y-66277037D01*
X175323410Y-66325576D01*
X175295159Y-66346725D01*
X175272074Y-66359331D01*
X175212645Y-66374500D01*
X174759062Y-66374500D01*
X174724125Y-66369476D01*
X174695482Y-66361065D01*
X174666269Y-66348206D01*
X174638927Y-66331677D01*
X174514606Y-66256522D01*
X174514604Y-66256521D01*
X174514602Y-66256520D01*
X174514603Y-66256520D01*
X174361779Y-66208899D01*
X174357436Y-66207150D01*
X174350859Y-66205597D01*
X174346590Y-66205404D01*
X174334902Y-66204342D01*
X174302778Y-66201423D01*
X174302777Y-66201422D01*
X174283538Y-66199674D01*
X174281616Y-66199500D01*
X174281615Y-66199500D01*
X173768380Y-66199500D01*
X173757390Y-66200498D01*
X173749145Y-66201248D01*
X173732109Y-66202796D01*
X173697805Y-66205913D01*
X173535392Y-66256522D01*
X173389807Y-66344532D01*
X173269532Y-66464807D01*
X173181522Y-66610392D01*
X173154312Y-66697715D01*
X173130913Y-66772807D01*
X173129860Y-66784397D01*
X173124500Y-66843384D01*
X173124500Y-67506616D01*
X173125673Y-67519528D01*
X173130913Y-67577192D01*
X173130913Y-67577194D01*
X173130914Y-67577196D01*
X173181522Y-67739606D01*
X173181523Y-67739607D01*
X173181524Y-67739611D01*
X173187979Y-67750288D01*
X173187978Y-67750288D01*
X173197839Y-67766598D01*
X173211169Y-67797450D01*
X173219945Y-67828930D01*
X173224500Y-67862226D01*
X173224500Y-67955063D01*
X173219945Y-67988359D01*
X173216804Y-67999630D01*
X173211171Y-68019835D01*
X173197845Y-68050679D01*
X173183820Y-68073881D01*
X173183818Y-68073885D01*
X173131522Y-68160392D01*
X173080911Y-68322811D01*
X173074500Y-68393377D01*
X173074500Y-68906622D01*
X173078866Y-68954673D01*
X173077026Y-68989916D01*
X173074470Y-69002862D01*
X173074076Y-69004856D01*
X173041776Y-69066811D01*
X172985122Y-69100443D01*
X172973972Y-69103491D01*
X172943112Y-69107866D01*
X171591240Y-69127895D01*
X171591168Y-69127896D01*
X171591127Y-69127897D01*
X171588494Y-69127948D01*
X171588451Y-69127948D01*
X171585246Y-69128012D01*
X171585234Y-69128013D01*
X171557358Y-69132377D01*
X171429067Y-69152459D01*
X171284558Y-69216487D01*
X171161710Y-69315603D01*
X171161673Y-69315618D01*
X171161535Y-69315744D01*
X171066646Y-69415378D01*
X171038918Y-69437210D01*
X171037799Y-69437857D01*
X171026903Y-69444156D01*
X170959014Y-69460669D01*
X170892973Y-69437857D01*
X170892970Y-69437855D01*
X170892063Y-69437210D01*
X170884838Y-69432071D01*
X170853604Y-69399910D01*
X170846798Y-69389723D01*
X170846787Y-69389708D01*
X170820079Y-69363000D01*
X170771685Y-69314606D01*
X170750535Y-69286351D01*
X170750147Y-69285641D01*
X170743044Y-69272631D01*
X170728193Y-69204371D01*
X170728779Y-69196177D01*
X170742091Y-69148507D01*
X170751462Y-69130205D01*
X170751411Y-69127336D01*
X170756432Y-69112689D01*
X170792735Y-69025045D01*
X170801920Y-69002870D01*
X170832683Y-68848215D01*
X170832683Y-68690531D01*
X170832683Y-68690528D01*
X170832683Y-68690344D01*
X170832247Y-68688339D01*
X170821380Y-68633706D01*
X170801920Y-68535876D01*
X170801918Y-68535871D01*
X170741580Y-68390200D01*
X170741573Y-68390187D01*
X170653972Y-68259084D01*
X170653969Y-68259080D01*
X170653964Y-68259074D01*
X170542480Y-68147590D01*
X170542474Y-68147585D01*
X170542473Y-68147584D01*
X170411374Y-68059986D01*
X170411373Y-68059985D01*
X170411368Y-68059982D01*
X170411355Y-68059975D01*
X170411348Y-68059971D01*
X170265685Y-67999637D01*
X170265654Y-67999630D01*
X170110095Y-67968687D01*
X170048184Y-67936302D01*
X170018721Y-67892020D01*
X170011013Y-67872204D01*
X169982171Y-67798053D01*
X169974380Y-67765709D01*
X169965349Y-67677292D01*
X169965348Y-67677289D01*
X169952929Y-67639811D01*
X169950493Y-67632461D01*
X169911984Y-67516246D01*
X169911901Y-67516072D01*
X169910861Y-67514450D01*
X169822980Y-67371974D01*
X169822966Y-67371954D01*
X169795085Y-67344073D01*
X169751296Y-67300284D01*
X169730146Y-67272029D01*
X169722655Y-67258309D01*
X169707804Y-67190051D01*
X169707933Y-67188242D01*
X169727299Y-67130047D01*
X169731492Y-67123523D01*
X169748116Y-67102895D01*
X169763694Y-67087318D01*
X169847968Y-67003044D01*
X169920685Y-66885150D01*
X169943295Y-66858059D01*
X169953025Y-66849308D01*
X170016031Y-66819115D01*
X170073231Y-66823245D01*
X170098434Y-66831192D01*
X170118017Y-66836934D01*
X170118019Y-66836934D01*
X170122868Y-66838356D01*
X170122788Y-66838625D01*
X170138137Y-66843343D01*
X170138241Y-66843386D01*
X170141503Y-66844737D01*
X170288513Y-66873979D01*
X170291247Y-66874703D01*
X170296155Y-66875500D01*
X170453844Y-66875500D01*
X170457964Y-66875500D01*
X170465814Y-66873118D01*
X170608497Y-66844737D01*
X170754179Y-66784394D01*
X170885289Y-66696789D01*
X170996789Y-66585289D01*
X171084394Y-66454179D01*
X171086459Y-66449195D01*
X171101927Y-66411851D01*
X171144737Y-66308497D01*
X171175500Y-66153842D01*
X171175500Y-65996158D01*
X171175500Y-65996155D01*
X171175500Y-65995976D01*
X171175074Y-65994018D01*
X171149437Y-65865132D01*
X171144737Y-65841503D01*
X171111267Y-65760699D01*
X171110439Y-65758701D01*
X171084402Y-65695840D01*
X171084397Y-65695827D01*
X171084390Y-65695814D01*
X170996789Y-65564711D01*
X170996786Y-65564707D01*
X170996781Y-65564701D01*
X170885297Y-65453217D01*
X170885291Y-65453212D01*
X170885290Y-65453211D01*
X170754191Y-65365613D01*
X170754190Y-65365612D01*
X170754185Y-65365609D01*
X170754172Y-65365602D01*
X170754165Y-65365598D01*
X170608502Y-65305264D01*
X170608471Y-65305257D01*
X170453847Y-65274500D01*
X170453845Y-65274500D01*
X170453842Y-65274500D01*
X170296158Y-65274500D01*
X170296155Y-65274500D01*
X170296153Y-65274500D01*
X170141527Y-65305257D01*
X170141496Y-65305264D01*
X170096427Y-65323932D01*
X170080125Y-65329394D01*
X170053850Y-65336212D01*
X170053836Y-65336217D01*
X169847977Y-65422448D01*
X169778538Y-65430193D01*
X169767961Y-65427848D01*
X169497823Y-65355429D01*
X169497819Y-65355428D01*
X169465752Y-65348261D01*
X169453818Y-65344959D01*
X169422709Y-65334651D01*
X169410288Y-65333382D01*
X169323353Y-65324500D01*
X169323346Y-65324500D01*
X168776662Y-65324500D01*
X168776644Y-65324501D01*
X168776636Y-65324501D01*
X168776617Y-65324503D01*
X168710861Y-65331220D01*
X168677292Y-65334650D01*
X168677290Y-65334650D01*
X168677286Y-65334651D01*
X168677282Y-65334651D01*
X168677121Y-65334706D01*
X168516304Y-65387996D01*
X168516295Y-65388000D01*
X168516292Y-65388002D01*
X168371974Y-65477018D01*
X168371952Y-65477034D01*
X168371949Y-65477036D01*
X168252036Y-65596949D01*
X168252034Y-65596952D01*
X168252018Y-65596974D01*
X168163002Y-65741292D01*
X168163000Y-65741295D01*
X168162993Y-65741309D01*
X168109652Y-65902285D01*
X168109650Y-65902295D01*
X168099500Y-66001639D01*
X168099500Y-66598334D01*
X168099503Y-66598381D01*
X168105176Y-66653909D01*
X168109650Y-66697707D01*
X168109651Y-66697710D01*
X168162996Y-66858694D01*
X168163001Y-66858705D01*
X168177227Y-66881769D01*
X168252018Y-67003024D01*
X168252027Y-67003037D01*
X168252029Y-67003040D01*
X168252032Y-67003044D01*
X168323701Y-67074713D01*
X168344852Y-67102969D01*
X168352343Y-67116689D01*
X168367194Y-67184947D01*
X168367065Y-67186753D01*
X168347694Y-67244959D01*
X168343514Y-67251463D01*
X168326883Y-67272102D01*
X168227030Y-67371957D01*
X168227018Y-67371974D01*
X168138002Y-67516292D01*
X168138000Y-67516295D01*
X168137993Y-67516309D01*
X168095662Y-67644060D01*
X168084652Y-67677289D01*
X168084650Y-67677295D01*
X168074500Y-67776639D01*
X168074500Y-68373334D01*
X168074503Y-68373381D01*
X168084650Y-68472707D01*
X168084653Y-68472715D01*
X168084720Y-68472918D01*
X168137995Y-68633691D01*
X168138000Y-68633703D01*
X168138002Y-68633706D01*
X168227018Y-68778024D01*
X168227027Y-68778037D01*
X168227029Y-68778040D01*
X168227032Y-68778044D01*
X168311201Y-68862213D01*
X168332352Y-68890469D01*
X168339843Y-68904189D01*
X168354694Y-68972447D01*
X168354565Y-68974253D01*
X168335199Y-69032452D01*
X168331017Y-69038960D01*
X168314380Y-69059606D01*
X168277027Y-69096959D01*
X168188002Y-69241292D01*
X168188000Y-69241295D01*
X168187993Y-69241309D01*
X168134652Y-69402285D01*
X168134650Y-69402295D01*
X168124500Y-69501639D01*
X168124500Y-70098334D01*
X168124503Y-70098381D01*
X168134650Y-70197707D01*
X168134653Y-70197715D01*
X168134720Y-70197918D01*
X168187992Y-70358683D01*
X168187999Y-70358701D01*
X168218590Y-70408295D01*
X168232656Y-70440669D01*
X168236319Y-70454057D01*
X168235024Y-70523915D01*
X168196167Y-70581983D01*
X168196067Y-70582066D01*
X168195457Y-70582574D01*
X168141581Y-70608644D01*
X168135255Y-70609972D01*
X168110252Y-70612616D01*
X166610129Y-70618341D01*
X166575178Y-70613452D01*
X166546812Y-70605241D01*
X166504680Y-70583634D01*
X166041840Y-70219973D01*
X166017477Y-70194445D01*
X166003720Y-70175144D01*
X165982481Y-70124127D01*
X165982153Y-70122212D01*
X165980374Y-70102004D01*
X165975794Y-69318007D01*
X165957678Y-69174503D01*
X165899606Y-69027490D01*
X165818183Y-68880929D01*
X165797561Y-68843809D01*
X165784985Y-68810829D01*
X165779316Y-68785653D01*
X165781902Y-68721522D01*
X165819086Y-68602196D01*
X165825500Y-68531616D01*
X165825500Y-68018384D01*
X165819086Y-67947804D01*
X165768478Y-67785394D01*
X165683035Y-67644056D01*
X165681150Y-67640634D01*
X165680719Y-67640061D01*
X165560185Y-67519527D01*
X165554852Y-67516304D01*
X165554851Y-67516304D01*
X165414606Y-67431522D01*
X165414604Y-67431521D01*
X165414602Y-67431520D01*
X165414603Y-67431520D01*
X165261779Y-67383899D01*
X165257436Y-67382150D01*
X165250859Y-67380597D01*
X165246590Y-67380404D01*
X165202778Y-67376423D01*
X165202777Y-67376422D01*
X165183538Y-67374674D01*
X165181616Y-67374500D01*
X165181615Y-67374500D01*
X165121635Y-67374500D01*
X165087436Y-67369691D01*
X165053009Y-67359813D01*
X165053010Y-67359813D01*
X165052853Y-67359768D01*
X165040295Y-67356164D01*
X164981286Y-67318750D01*
X164951873Y-67255374D01*
X164950500Y-67236975D01*
X164950500Y-66082099D01*
X164952187Y-66061714D01*
X164960191Y-66013693D01*
X165036639Y-65554993D01*
X165040568Y-65538483D01*
X165044086Y-65527196D01*
X165047073Y-65494316D01*
X165047724Y-65488620D01*
X165047827Y-65487868D01*
X165047830Y-65487851D01*
X165049005Y-65477036D01*
X165051591Y-65453213D01*
X165054046Y-65430609D01*
X165051020Y-65397671D01*
X165050500Y-65386327D01*
X165050500Y-64793386D01*
X165044255Y-64724666D01*
X165044086Y-64722804D01*
X164993478Y-64560394D01*
X164905472Y-64414815D01*
X164905470Y-64414813D01*
X164905469Y-64414811D01*
X164853443Y-64362785D01*
X164832292Y-64334531D01*
X164824802Y-64320814D01*
X164809949Y-64252552D01*
X164810078Y-64250743D01*
X164829441Y-64192553D01*
X164833090Y-64186875D01*
X164847803Y-64168199D01*
X164854537Y-64161161D01*
X164856453Y-64159202D01*
X164857075Y-64158579D01*
X164860315Y-64152172D01*
X164943478Y-64014606D01*
X164994086Y-63852196D01*
X165000500Y-63781616D01*
X165000500Y-63118384D01*
X164994086Y-63047804D01*
X164943478Y-62885394D01*
X164858035Y-62744056D01*
X164856150Y-62740634D01*
X164855719Y-62740061D01*
X164735187Y-62619529D01*
X164735183Y-62619526D01*
X164686026Y-62589810D01*
X164686025Y-62589810D01*
X164589606Y-62531522D01*
X164589604Y-62531521D01*
X164589602Y-62531520D01*
X164589603Y-62531520D01*
X164436779Y-62483899D01*
X164432436Y-62482150D01*
X164425859Y-62480597D01*
X164421590Y-62480404D01*
X164377778Y-62476423D01*
X164377777Y-62476422D01*
X164358538Y-62474674D01*
X164356616Y-62474500D01*
X164356615Y-62474500D01*
X163843380Y-62474500D01*
X163832390Y-62475498D01*
X163824145Y-62476248D01*
X163813877Y-62477181D01*
X163772803Y-62480913D01*
X163661374Y-62515634D01*
X163653767Y-62517741D01*
X163627828Y-62524044D01*
X163627823Y-62524045D01*
X163261014Y-62671042D01*
X163242396Y-62678504D01*
X163212207Y-62690602D01*
X163166081Y-62699500D01*
X163048903Y-62699500D01*
X162981864Y-62679815D01*
X162979866Y-62678504D01*
X162876876Y-62609477D01*
X162730044Y-62511065D01*
X162711404Y-62495746D01*
X162685188Y-62469530D01*
X162660209Y-62454429D01*
X162618891Y-62429451D01*
X162618891Y-62429452D01*
X162539606Y-62381522D01*
X162539604Y-62381521D01*
X162539602Y-62381520D01*
X162539603Y-62381520D01*
X162386779Y-62333899D01*
X162382436Y-62332150D01*
X162375859Y-62330597D01*
X162371590Y-62330404D01*
X162327778Y-62326423D01*
X162327777Y-62326422D01*
X162308538Y-62324674D01*
X162306616Y-62324500D01*
X162306615Y-62324500D01*
X161793380Y-62324500D01*
X161782390Y-62325498D01*
X161774145Y-62326248D01*
X161757032Y-62327803D01*
X161722805Y-62330913D01*
X161560392Y-62381522D01*
X161414812Y-62469529D01*
X161414811Y-62469529D01*
X161414811Y-62469530D01*
X161414810Y-62469531D01*
X161368707Y-62515634D01*
X161325285Y-62559056D01*
X161297027Y-62580208D01*
X161283309Y-62587698D01*
X161215051Y-62602549D01*
X161213245Y-62602420D01*
X161155044Y-62583052D01*
X161148529Y-62578865D01*
X161127897Y-62562239D01*
X161035188Y-62469530D01*
X161035186Y-62469529D01*
X160968891Y-62429451D01*
X160968891Y-62429452D01*
X160889606Y-62381522D01*
X160889604Y-62381521D01*
X160889602Y-62381520D01*
X160889603Y-62381520D01*
X160736779Y-62333899D01*
X160732436Y-62332150D01*
X160725859Y-62330597D01*
X160721590Y-62330404D01*
X160677778Y-62326423D01*
X160677777Y-62326422D01*
X160658538Y-62324674D01*
X160656616Y-62324500D01*
X160656615Y-62324500D01*
X160143380Y-62324500D01*
X160132390Y-62325498D01*
X160124145Y-62326248D01*
X160107032Y-62327803D01*
X160072805Y-62330913D01*
X159910392Y-62381522D01*
X159764807Y-62469532D01*
X159644530Y-62589810D01*
X159644148Y-62590250D01*
X159643464Y-62590875D01*
X159641419Y-62592921D01*
X159641328Y-62592830D01*
X159623138Y-62609477D01*
X159525857Y-62679815D01*
X159466132Y-62722999D01*
X159462002Y-62725985D01*
X159396142Y-62749314D01*
X159389347Y-62749500D01*
X159061606Y-62749500D01*
X158994567Y-62729815D01*
X158984990Y-62722999D01*
X158828672Y-62600162D01*
X158735722Y-62527120D01*
X158706802Y-62494721D01*
X158667712Y-62431344D01*
X158543656Y-62307288D01*
X158394334Y-62215186D01*
X158236265Y-62162807D01*
X158233445Y-62161641D01*
X158227792Y-62159999D01*
X158125019Y-62149500D01*
X158125010Y-62149500D01*
X157499998Y-62149500D01*
X157499980Y-62149501D01*
X157499972Y-62149501D01*
X157499953Y-62149503D01*
X157397197Y-62160000D01*
X157397193Y-62160001D01*
X157397032Y-62160056D01*
X157230667Y-62215185D01*
X157230665Y-62215186D01*
X157230663Y-62215187D01*
X157156002Y-62261238D01*
X157081338Y-62307291D01*
X157000285Y-62388345D01*
X156972027Y-62409498D01*
X156958309Y-62416988D01*
X156890051Y-62431839D01*
X156888245Y-62431710D01*
X156830044Y-62412342D01*
X156823529Y-62408155D01*
X156802893Y-62391525D01*
X156718657Y-62307289D01*
X156718656Y-62307288D01*
X156569334Y-62215186D01*
X156411265Y-62162807D01*
X156408445Y-62161641D01*
X156402792Y-62159999D01*
X156300019Y-62149500D01*
X156300010Y-62149500D01*
X155674998Y-62149500D01*
X155674980Y-62149501D01*
X155674972Y-62149501D01*
X155674953Y-62149503D01*
X155572197Y-62160000D01*
X155572193Y-62160001D01*
X155572032Y-62160056D01*
X155405667Y-62215185D01*
X155405665Y-62215186D01*
X155405663Y-62215187D01*
X155306115Y-62276588D01*
X155256340Y-62307290D01*
X155132290Y-62431340D01*
X155093198Y-62494719D01*
X155041293Y-62578871D01*
X155040186Y-62580665D01*
X155040180Y-62580681D01*
X155032074Y-62605146D01*
X155032074Y-62605147D01*
X154995299Y-62716123D01*
X154986852Y-62729067D01*
X154985365Y-62743630D01*
X154984542Y-62749881D01*
X154984359Y-62753476D01*
X154974500Y-62849973D01*
X154974500Y-63849998D01*
X154974503Y-63850045D01*
X154982191Y-63925300D01*
X154985000Y-63952796D01*
X154985001Y-63952799D01*
X155003528Y-64008711D01*
X155003561Y-64008809D01*
X155008649Y-64030559D01*
X155010366Y-64042781D01*
X155010367Y-64042787D01*
X155111592Y-64391677D01*
X155111367Y-64461547D01*
X155109365Y-64467693D01*
X155047598Y-64641775D01*
X155036276Y-64665406D01*
X154965187Y-64780663D01*
X154965186Y-64780663D01*
X154958020Y-64802292D01*
X154958020Y-64802293D01*
X154920299Y-64916123D01*
X154911852Y-64929067D01*
X154910365Y-64943630D01*
X154909542Y-64949881D01*
X154909359Y-64953476D01*
X154899500Y-65049973D01*
X154899500Y-66099998D01*
X154899503Y-66100045D01*
X154910000Y-66202796D01*
X154910003Y-66202804D01*
X154910070Y-66203007D01*
X154960374Y-66354815D01*
X154965185Y-66369331D01*
X154965187Y-66369336D01*
X154991408Y-66411847D01*
X154991412Y-66411852D01*
X154991413Y-66411855D01*
X154995558Y-66418575D01*
X155015775Y-66451353D01*
X155028661Y-66472245D01*
X155060384Y-66523674D01*
X155071510Y-66546754D01*
X155183859Y-66858706D01*
X155192165Y-66881769D01*
X155199500Y-66923785D01*
X155199500Y-67145237D01*
X155190471Y-67191688D01*
X155137355Y-67323154D01*
X155093990Y-67377938D01*
X155087482Y-67382241D01*
X155006340Y-67432290D01*
X154882290Y-67556340D01*
X154860728Y-67591298D01*
X154793989Y-67699500D01*
X154790185Y-67705667D01*
X154790182Y-67705675D01*
X154766662Y-67776656D01*
X154766661Y-67776658D01*
X154745298Y-67841124D01*
X154736852Y-67854067D01*
X154735365Y-67868630D01*
X154734542Y-67874881D01*
X154734359Y-67878476D01*
X154724500Y-67974973D01*
X154724500Y-69024998D01*
X154724503Y-69025045D01*
X154731850Y-69096959D01*
X154735000Y-69127796D01*
X154735001Y-69127799D01*
X154790185Y-69294331D01*
X154790187Y-69294336D01*
X154825069Y-69350888D01*
X154882288Y-69443656D01*
X154882290Y-69443658D01*
X154994489Y-69555857D01*
X155027974Y-69617180D01*
X155024456Y-69682717D01*
X154916443Y-70007066D01*
X154914051Y-70013169D01*
X154914201Y-70013228D01*
X154912994Y-70016309D01*
X154859652Y-70177285D01*
X154859650Y-70177295D01*
X154849500Y-70276639D01*
X154849500Y-70873334D01*
X154849503Y-70873381D01*
X154859650Y-70972707D01*
X154859653Y-70972715D01*
X154859720Y-70972919D01*
X154887505Y-71056771D01*
X154892117Y-71075418D01*
X154892749Y-71079215D01*
X154892752Y-71079228D01*
X155078308Y-71663408D01*
X155112136Y-71734557D01*
X155137279Y-71787439D01*
X155140731Y-71792707D01*
X155150909Y-71806753D01*
X155174306Y-71872587D01*
X155174500Y-71879512D01*
X155174500Y-73567301D01*
X155156829Y-73631099D01*
X155107973Y-73712525D01*
X155069503Y-73752511D01*
X154583311Y-74070407D01*
X154583258Y-74070441D01*
X154583257Y-74070443D01*
X154575526Y-74075600D01*
X154575429Y-74075666D01*
X154532166Y-74108643D01*
X154532165Y-74108644D01*
X154532164Y-74108644D01*
X154530016Y-74111080D01*
X154511342Y-74128313D01*
X154492455Y-74142452D01*
X154492444Y-74142464D01*
X154437718Y-74215567D01*
X154437201Y-74216253D01*
X154435404Y-74218618D01*
X154434905Y-74219324D01*
X154406211Y-74257656D01*
X154406202Y-74257670D01*
X154385376Y-74313505D01*
X154384888Y-74314618D01*
X154382259Y-74321850D01*
X154381907Y-74322805D01*
X154355907Y-74392516D01*
X154349500Y-74452125D01*
X154349500Y-76747876D01*
X154349659Y-76749806D01*
X154349885Y-76751454D01*
X154355907Y-76807482D01*
X154383690Y-76881971D01*
X154406202Y-76942328D01*
X154406203Y-76942330D01*
X154406204Y-76942332D01*
X154406205Y-76942333D01*
X154492450Y-77057542D01*
X154492452Y-77057544D01*
X154492455Y-77057547D01*
X154607664Y-77143793D01*
X154607671Y-77143797D01*
X154657155Y-77162253D01*
X154692513Y-77188721D01*
X154749444Y-77194835D01*
X154749443Y-77194839D01*
X154749458Y-77194836D01*
X154802127Y-77200500D01*
X156397872Y-77200499D01*
X156457483Y-77194091D01*
X156592331Y-77143796D01*
X156707546Y-77057546D01*
X156793796Y-76942331D01*
X156844091Y-76807483D01*
X156850500Y-76747873D01*
X156850499Y-76395957D01*
X156855521Y-76361028D01*
X156856580Y-76357418D01*
X156861431Y-76340898D01*
X156891956Y-76288928D01*
X156896669Y-76284131D01*
X156916224Y-76267936D01*
X156951627Y-76244281D01*
X156985289Y-76221789D01*
X157096789Y-76110289D01*
X157184394Y-75979179D01*
X157244737Y-75833497D01*
X157275500Y-75678842D01*
X157275500Y-75521158D01*
X157275500Y-75521155D01*
X157275500Y-75520973D01*
X157275065Y-75518972D01*
X157245397Y-75369824D01*
X157244994Y-75367467D01*
X157244738Y-75366508D01*
X157244737Y-75366506D01*
X157244737Y-75366503D01*
X157244735Y-75366498D01*
X157184397Y-75220827D01*
X157184390Y-75220814D01*
X157096789Y-75089711D01*
X157096786Y-75089707D01*
X157096781Y-75089701D01*
X156985294Y-74978214D01*
X156920430Y-74934873D01*
X156894173Y-74911286D01*
X156880720Y-74895188D01*
X156854472Y-74840945D01*
X156853102Y-74834364D01*
X156850499Y-74809092D01*
X156850499Y-74574843D01*
X156851310Y-74560683D01*
X156851944Y-74555164D01*
X156851945Y-74555159D01*
X156852738Y-74447172D01*
X156779045Y-73710237D01*
X156776519Y-73690656D01*
X156775500Y-73674791D01*
X156775500Y-69738430D01*
X156776145Y-69725799D01*
X156778184Y-69705885D01*
X156779583Y-69692225D01*
X156775603Y-69594632D01*
X156775500Y-69589580D01*
X156775500Y-68610337D01*
X156776097Y-68598187D01*
X156777287Y-68586101D01*
X156779069Y-68574081D01*
X156786670Y-68535871D01*
X156800500Y-68466343D01*
X156800500Y-68308658D01*
X156800500Y-67717329D01*
X156805523Y-67682393D01*
X156807022Y-67677290D01*
X156809927Y-67667394D01*
X156847672Y-67608644D01*
X156849041Y-67607457D01*
X156903920Y-67579977D01*
X156911479Y-67578333D01*
X156937832Y-67575500D01*
X157190376Y-67575500D01*
X157198226Y-67573118D01*
X157340909Y-67544737D01*
X157486591Y-67484394D01*
X157617701Y-67396789D01*
X157729201Y-67285289D01*
X157816806Y-67154179D01*
X157877149Y-67008497D01*
X157907912Y-66853842D01*
X157907912Y-66696158D01*
X157907912Y-66696155D01*
X157907912Y-66695973D01*
X157907477Y-66693972D01*
X157899508Y-66653910D01*
X157899508Y-66653909D01*
X157877150Y-66541507D01*
X157877150Y-66541506D01*
X157877149Y-66541503D01*
X157876734Y-66540501D01*
X157842046Y-66456756D01*
X157816812Y-66395833D01*
X157816807Y-66395824D01*
X157816802Y-66395814D01*
X157729201Y-66264711D01*
X157729198Y-66264707D01*
X157729193Y-66264701D01*
X157617709Y-66153217D01*
X157617703Y-66153212D01*
X157617702Y-66153211D01*
X157486603Y-66065613D01*
X157486602Y-66065612D01*
X157486597Y-66065609D01*
X157486584Y-66065602D01*
X157486577Y-66065598D01*
X157340914Y-66005264D01*
X157340883Y-66005257D01*
X157186259Y-65974500D01*
X157186257Y-65974500D01*
X157186254Y-65974500D01*
X157042330Y-65974500D01*
X157007389Y-65969475D01*
X156992390Y-65965070D01*
X156933644Y-65927327D01*
X156932457Y-65925958D01*
X156904981Y-65871097D01*
X156903683Y-65865132D01*
X156903335Y-65863533D01*
X156900499Y-65837177D01*
X156900499Y-65049998D01*
X156900498Y-65049980D01*
X156899819Y-65043336D01*
X156899178Y-65031477D01*
X156899107Y-65019688D01*
X156894195Y-64986946D01*
X156893473Y-64981216D01*
X156889999Y-64947203D01*
X156889998Y-64947200D01*
X156889998Y-64947199D01*
X156889539Y-64945068D01*
X156885197Y-64926959D01*
X156828872Y-64551450D01*
X156832410Y-64498514D01*
X156853738Y-64425001D01*
X156891322Y-64366105D01*
X156954784Y-64336876D01*
X157023974Y-64346596D01*
X157060507Y-64371875D01*
X157081344Y-64392712D01*
X157230666Y-64484814D01*
X157397203Y-64539999D01*
X157499991Y-64550500D01*
X158125008Y-64550499D01*
X158125058Y-64550499D01*
X158125225Y-64550489D01*
X158126331Y-64550363D01*
X158171459Y-64545753D01*
X158181303Y-64544748D01*
X158181303Y-64544747D01*
X158227797Y-64539999D01*
X158394334Y-64484814D01*
X158543656Y-64392712D01*
X158667712Y-64268656D01*
X158706804Y-64205276D01*
X158735724Y-64172877D01*
X158831822Y-64097361D01*
X158984991Y-63977001D01*
X159049865Y-63951057D01*
X159061606Y-63950500D01*
X159419763Y-63950500D01*
X159482741Y-63967683D01*
X159741851Y-64120451D01*
X159789603Y-64171456D01*
X159802199Y-64240181D01*
X159786822Y-64288285D01*
X159607949Y-64604736D01*
X159603088Y-64615199D01*
X159596177Y-64628037D01*
X159588002Y-64641291D01*
X159588000Y-64641294D01*
X159587994Y-64641309D01*
X159582866Y-64656784D01*
X159577622Y-64670011D01*
X159574102Y-64677587D01*
X159572815Y-64681054D01*
X159572811Y-64681066D01*
X159562000Y-64719358D01*
X159560372Y-64724666D01*
X159534652Y-64802284D01*
X159524500Y-64901639D01*
X159524500Y-65498334D01*
X159524503Y-65498381D01*
X159527447Y-65527195D01*
X159534650Y-65597707D01*
X159534651Y-65597710D01*
X159587996Y-65758694D01*
X159588001Y-65758705D01*
X159675024Y-65899790D01*
X159684481Y-65918497D01*
X159690749Y-65934037D01*
X159697570Y-66003573D01*
X159665715Y-66065758D01*
X159608008Y-66100152D01*
X159598094Y-66102823D01*
X159565837Y-66107092D01*
X159276660Y-66107092D01*
X159276654Y-66107092D01*
X159276644Y-66107093D01*
X159177292Y-66117242D01*
X159177290Y-66117242D01*
X159177286Y-66117243D01*
X159177282Y-66117243D01*
X159177121Y-66117298D01*
X159016304Y-66170588D01*
X159016295Y-66170592D01*
X159016292Y-66170594D01*
X158871974Y-66259610D01*
X158871952Y-66259626D01*
X158871949Y-66259628D01*
X158752036Y-66379541D01*
X158752034Y-66379544D01*
X158752018Y-66379566D01*
X158663002Y-66523884D01*
X158663000Y-66523887D01*
X158662993Y-66523901D01*
X158609652Y-66684877D01*
X158609650Y-66684887D01*
X158599500Y-66784231D01*
X158599500Y-67330926D01*
X158599503Y-67330973D01*
X158606227Y-67396789D01*
X158609650Y-67430299D01*
X158609651Y-67430302D01*
X158610310Y-67432290D01*
X158662995Y-67591283D01*
X158663000Y-67591295D01*
X158663002Y-67591298D01*
X158752018Y-67735616D01*
X158752025Y-67735626D01*
X158752029Y-67735632D01*
X158752032Y-67735636D01*
X158752034Y-67735638D01*
X158754645Y-67738649D01*
X158769803Y-67760471D01*
X158777343Y-67774280D01*
X158792195Y-67842540D01*
X158792066Y-67844346D01*
X158772696Y-67902551D01*
X158768518Y-67909052D01*
X158754777Y-67926105D01*
X158754914Y-67926224D01*
X158752034Y-67929543D01*
X158752033Y-67929544D01*
X158752018Y-67929566D01*
X158663004Y-68073881D01*
X158663002Y-68073885D01*
X158662993Y-68073901D01*
X158609652Y-68234877D01*
X158609650Y-68234887D01*
X158599500Y-68334231D01*
X158599500Y-68880926D01*
X158599503Y-68880973D01*
X158605139Y-68936141D01*
X158609650Y-68980299D01*
X158609651Y-68980302D01*
X158662996Y-69141286D01*
X158663001Y-69141297D01*
X158670945Y-69154176D01*
X158752018Y-69285616D01*
X158752025Y-69285626D01*
X158752029Y-69285632D01*
X158752032Y-69285636D01*
X158752034Y-69285638D01*
X158752036Y-69285641D01*
X158871949Y-69405554D01*
X158871952Y-69405556D01*
X158871955Y-69405559D01*
X158871959Y-69405562D01*
X158871967Y-69405567D01*
X158871974Y-69405572D01*
X159014450Y-69493453D01*
X159016072Y-69494493D01*
X159016244Y-69494575D01*
X159016301Y-69494594D01*
X159016303Y-69494595D01*
X159177292Y-69547941D01*
X159276655Y-69558092D01*
X159873344Y-69558091D01*
X159873394Y-69558091D01*
X159873561Y-69558081D01*
X159874667Y-69557955D01*
X159927760Y-69552532D01*
X159972708Y-69547941D01*
X160133697Y-69494595D01*
X160188279Y-69460928D01*
X160278041Y-69405562D01*
X160281370Y-69402930D01*
X160298855Y-69391363D01*
X160301859Y-69389723D01*
X160313863Y-69383167D01*
X160373290Y-69368000D01*
X160415815Y-69368000D01*
X160431254Y-69367172D01*
X160469859Y-69365102D01*
X160469866Y-69365100D01*
X160474284Y-69364425D01*
X160493030Y-69363000D01*
X161054471Y-69363000D01*
X161121510Y-69382685D01*
X161167265Y-69435489D01*
X161171985Y-69447425D01*
X161176532Y-69460928D01*
X161177116Y-69462477D01*
X161183758Y-69478338D01*
X161191184Y-69496073D01*
X161288076Y-69705885D01*
X161299500Y-69757873D01*
X161299500Y-73567303D01*
X161281829Y-73631101D01*
X161053403Y-74011809D01*
X161010608Y-74053706D01*
X161010868Y-74054103D01*
X161008851Y-74055426D01*
X161008606Y-74055667D01*
X161007674Y-74056199D01*
X161007665Y-74056205D01*
X160892456Y-74142450D01*
X160892450Y-74142456D01*
X160806205Y-74257665D01*
X160806203Y-74257668D01*
X160755908Y-74392516D01*
X160749500Y-74452125D01*
X160749500Y-76747876D01*
X160749659Y-76749806D01*
X160749885Y-76751454D01*
X160755907Y-76807482D01*
X160783690Y-76881971D01*
X160806202Y-76942328D01*
X160806203Y-76942330D01*
X160806204Y-76942332D01*
X160806205Y-76942333D01*
X160892450Y-77057542D01*
X160892452Y-77057544D01*
X160892455Y-77057547D01*
X161007664Y-77143793D01*
X161007671Y-77143797D01*
X161057155Y-77162253D01*
X161092513Y-77188721D01*
X161149444Y-77194835D01*
X161149443Y-77194839D01*
X161149458Y-77194836D01*
X161202127Y-77200500D01*
X162797872Y-77200499D01*
X162857483Y-77194091D01*
X162992331Y-77143796D01*
X163107546Y-77057546D01*
X163193796Y-76942331D01*
X163244091Y-76807483D01*
X163250500Y-76747873D01*
X163250499Y-74510417D01*
X163251104Y-74498187D01*
X163252796Y-74481116D01*
X163252402Y-74472170D01*
X163250828Y-74456084D01*
X163250603Y-74453096D01*
X163249917Y-74446718D01*
X163249805Y-74445632D01*
X163247138Y-74418358D01*
X163247137Y-74418356D01*
X163246939Y-74416326D01*
X163245961Y-74409917D01*
X163244091Y-74392518D01*
X163244091Y-74392517D01*
X163244091Y-74392516D01*
X163220164Y-74328369D01*
X163217669Y-74320971D01*
X163217379Y-74320014D01*
X163205468Y-74280644D01*
X163194746Y-74257668D01*
X162912133Y-73652067D01*
X162909600Y-73635427D01*
X162902234Y-73620295D01*
X162900500Y-73599629D01*
X162900500Y-73564983D01*
X162905523Y-73530049D01*
X162909180Y-73517594D01*
X162946953Y-73458816D01*
X163010509Y-73429790D01*
X163074698Y-73437594D01*
X163080132Y-73439794D01*
X163083249Y-73441057D01*
X163109418Y-73455546D01*
X163145714Y-73481821D01*
X163145716Y-73481822D01*
X163145718Y-73481823D01*
X163254071Y-73527077D01*
X163291571Y-73542739D01*
X163291572Y-73542739D01*
X163291575Y-73542740D01*
X163292604Y-73542878D01*
X163294220Y-73543310D01*
X163295459Y-73543518D01*
X163295743Y-73543574D01*
X163299790Y-73543846D01*
X163363864Y-73552472D01*
X163448224Y-73563830D01*
X171634908Y-73587836D01*
X171669823Y-73592961D01*
X171684466Y-73597307D01*
X171694220Y-73600203D01*
X171750504Y-73635465D01*
X171850052Y-73744494D01*
X171869895Y-73773674D01*
X171881917Y-73798284D01*
X171894500Y-73852711D01*
X171894500Y-74858331D01*
X171895183Y-74887126D01*
X171895185Y-74887140D01*
X171923246Y-75042684D01*
X171923247Y-75042687D01*
X171923251Y-75042700D01*
X171965407Y-75132178D01*
X171988257Y-75180679D01*
X171990367Y-75185731D01*
X171993944Y-75189619D01*
X172082688Y-75294533D01*
X172082690Y-75294537D01*
X172082691Y-75294537D01*
X172092699Y-75306370D01*
X172280851Y-75477416D01*
X172367697Y-75556367D01*
X172469134Y-75630900D01*
X172614807Y-75692258D01*
X172771396Y-75713822D01*
X176971396Y-75738822D01*
X176971420Y-75738822D01*
X176971576Y-75738823D01*
X176971575Y-75738823D01*
X176974995Y-75738833D01*
X176974995Y-75738832D01*
X176975000Y-75738833D01*
X177131715Y-75718201D01*
X177277750Y-75657711D01*
X177403153Y-75561486D01*
X177653153Y-75311486D01*
X177746869Y-75190388D01*
X177808558Y-75044856D01*
X177830479Y-74888316D01*
X177839027Y-73849574D01*
X177844337Y-73814686D01*
X177847613Y-73803859D01*
X177885868Y-73745396D01*
X177949659Y-73716894D01*
X178018729Y-73727404D01*
X178024668Y-73730175D01*
X178063167Y-73758247D01*
X178831169Y-74586880D01*
X178831710Y-74587431D01*
X178846905Y-74603213D01*
X178847836Y-74603913D01*
X178945579Y-74678912D01*
X178945580Y-74678914D01*
X178972249Y-74699377D01*
X178972250Y-74699378D01*
X179118285Y-74759868D01*
X179275000Y-74780500D01*
X179275007Y-74780500D01*
X181824993Y-74780500D01*
X181825000Y-74780500D01*
X181981715Y-74759868D01*
X182127750Y-74699378D01*
X182253153Y-74603153D01*
X183253153Y-73603153D01*
X183266619Y-73585805D01*
X183292004Y-73561294D01*
X183301178Y-73554674D01*
X183367059Y-73531408D01*
X183435061Y-73547453D01*
X183483582Y-73597694D01*
X183485344Y-73601058D01*
X183499500Y-73658592D01*
X183499500Y-78941878D01*
X183499381Y-78947309D01*
X183499144Y-78952715D01*
X183498791Y-78958092D01*
X183485731Y-79107361D01*
X183484320Y-79118083D01*
X183482448Y-79128701D01*
X183480106Y-79139264D01*
X183443432Y-79276136D01*
X183440177Y-79286460D01*
X183436485Y-79296602D01*
X183432347Y-79306590D01*
X183372466Y-79435004D01*
X183367472Y-79444597D01*
X183362074Y-79453947D01*
X183356261Y-79463073D01*
X183274985Y-79579147D01*
X183268400Y-79587728D01*
X183261465Y-79595993D01*
X183254156Y-79603969D01*
X183153969Y-79704156D01*
X183145993Y-79711465D01*
X183137728Y-79718400D01*
X183129147Y-79724985D01*
X183013073Y-79806261D01*
X183003947Y-79812074D01*
X182994597Y-79817472D01*
X182985004Y-79822466D01*
X182856590Y-79882347D01*
X182846602Y-79886485D01*
X182836460Y-79890177D01*
X182826136Y-79893432D01*
X182689264Y-79930106D01*
X182678701Y-79932448D01*
X182668083Y-79934320D01*
X182657361Y-79935731D01*
X182508093Y-79948791D01*
X182502716Y-79949144D01*
X182497310Y-79949381D01*
X182491879Y-79949500D01*
X149508121Y-79949500D01*
X149502691Y-79949381D01*
X149497284Y-79949144D01*
X149491906Y-79948791D01*
X149342637Y-79935731D01*
X149331915Y-79934320D01*
X149330095Y-79933999D01*
X149321293Y-79932447D01*
X149310734Y-79930106D01*
X149173862Y-79893432D01*
X149163545Y-79890179D01*
X149157652Y-79888034D01*
X149153396Y-79886485D01*
X149143408Y-79882347D01*
X149014994Y-79822466D01*
X149005401Y-79817472D01*
X148996051Y-79812074D01*
X148986934Y-79806267D01*
X148870846Y-79724981D01*
X148862270Y-79718400D01*
X148854005Y-79711465D01*
X148846029Y-79704156D01*
X148745842Y-79603969D01*
X148738533Y-79595993D01*
X148731598Y-79587728D01*
X148725019Y-79579155D01*
X148643727Y-79463058D01*
X148637924Y-79453947D01*
X148632526Y-79444597D01*
X148627532Y-79435004D01*
X148567651Y-79306590D01*
X148563513Y-79296602D01*
X148559814Y-79286439D01*
X148556571Y-79276153D01*
X148519887Y-79139245D01*
X148517555Y-79128728D01*
X148515673Y-79118054D01*
X148514267Y-79107361D01*
X148501208Y-78958093D01*
X148500854Y-78952690D01*
X148500618Y-78947280D01*
X148500500Y-78941876D01*
X148500500Y-61908122D01*
X148500618Y-61902716D01*
X148500854Y-61897308D01*
X148501208Y-61891906D01*
X148506265Y-61834107D01*
X148514268Y-61742625D01*
X148515679Y-61731909D01*
X148517552Y-61721289D01*
X148519892Y-61710733D01*
X148556571Y-61573842D01*
X148559815Y-61563554D01*
X148563518Y-61553383D01*
X148567643Y-61543425D01*
X148627541Y-61414973D01*
X148632530Y-61405392D01*
X148637929Y-61396042D01*
X148643715Y-61386957D01*
X148725022Y-61270839D01*
X148731591Y-61262279D01*
X148731599Y-61262270D01*
X148738534Y-61254004D01*
X148745829Y-61246042D01*
X148846042Y-61145829D01*
X148854005Y-61138533D01*
X148862279Y-61131591D01*
X148870839Y-61125022D01*
X148986957Y-61043715D01*
X148996042Y-61037929D01*
X149005399Y-61032526D01*
X149014983Y-61027537D01*
X149143418Y-60967647D01*
X149153399Y-60963512D01*
X149163550Y-60959816D01*
X149173836Y-60956573D01*
X149310736Y-60919891D01*
X149321279Y-60917553D01*
X149331931Y-60915675D01*
X149342617Y-60914268D01*
X149469885Y-60903134D01*
X149491936Y-60901205D01*
X149497262Y-60900855D01*
X149502740Y-60900616D01*
X149508122Y-60900500D01*
X182491878Y-60900500D01*
X182497280Y-60900618D01*
G37*
%TD.AperFunction*%
%TD*%
%TA.AperFunction,Conductor*%
%TO.N,Net-(C7-Pad1)*%
G36*
X158320823Y-62843987D02*
G01*
X158833029Y-63246487D01*
X158837417Y-63254292D01*
X158837500Y-63255685D01*
X158837500Y-63444314D01*
X158834073Y-63452587D01*
X158833029Y-63453513D01*
X158320823Y-63856012D01*
X158312201Y-63858430D01*
X158305228Y-63854992D01*
X157912704Y-63453513D01*
X157819495Y-63358178D01*
X157816163Y-63349868D01*
X157819495Y-63341821D01*
X158305228Y-62845006D01*
X158313462Y-62841487D01*
X158320823Y-62843987D01*
G37*
%TD.AperFunction*%
%TD*%
%TA.AperFunction,Conductor*%
%TO.N,5V*%
G36*
X156164202Y-69674891D02*
G01*
X156172171Y-69678974D01*
X156174877Y-69685189D01*
X156249087Y-70317228D01*
X156246648Y-70325844D01*
X156243166Y-70328810D01*
X155806928Y-70572087D01*
X155798033Y-70573124D01*
X155793748Y-70570865D01*
X155383057Y-70229360D01*
X155378887Y-70221436D01*
X155379437Y-70216667D01*
X155556427Y-69685189D01*
X155572816Y-69635972D01*
X155578682Y-69629207D01*
X155584860Y-69628008D01*
X156164202Y-69674891D01*
G37*
%TD.AperFunction*%
%TD*%
%TA.AperFunction,Conductor*%
%TO.N,Net-(U1-EN)*%
G36*
X162391124Y-67790302D02*
G01*
X162395477Y-67791682D01*
X162398419Y-67793302D01*
X162403397Y-67798646D01*
X162549871Y-68115825D01*
X162550465Y-68117399D01*
X162550942Y-68119005D01*
X162551304Y-68120649D01*
X162559425Y-68176389D01*
X162610802Y-68281485D01*
X162610803Y-68281486D01*
X162634497Y-68305179D01*
X162637033Y-68308973D01*
X162637715Y-68310619D01*
X162637716Y-68319574D01*
X162637714Y-68319579D01*
X162637032Y-68321224D01*
X162634497Y-68325016D01*
X162508636Y-68450877D01*
X162504840Y-68453414D01*
X162502090Y-68454553D01*
X162495113Y-68455173D01*
X162495081Y-68455166D01*
X162492762Y-68454398D01*
X162206484Y-68325016D01*
X161993255Y-68228648D01*
X161989544Y-68225992D01*
X161987229Y-68223525D01*
X161984159Y-68217010D01*
X161978949Y-68176389D01*
X161924955Y-67755382D01*
X161925267Y-67750834D01*
X161925735Y-67749110D01*
X161931206Y-67742028D01*
X161931949Y-67741603D01*
X161939052Y-67740126D01*
X162391124Y-67790302D01*
G37*
%TD.AperFunction*%
%TD*%
%TA.AperFunction,Conductor*%
%TO.N,+3.3V*%
G36*
X170264459Y-65808733D02*
G01*
X170264562Y-65808985D01*
X170376731Y-66095315D01*
X170376558Y-66104268D01*
X170376428Y-66104555D01*
X170264543Y-66342899D01*
X170257925Y-66348932D01*
X170250434Y-66349086D01*
X169785749Y-66202579D01*
X169778889Y-66196823D01*
X169777567Y-66191420D01*
X169777567Y-66007783D01*
X169780994Y-65999510D01*
X169784745Y-65996993D01*
X170249151Y-65802461D01*
X170258102Y-65802426D01*
X170264459Y-65808733D01*
G37*
%TD.AperFunction*%
%TD*%
%TA.AperFunction,Conductor*%
%TO.N,Net-(U1-FB)*%
G36*
X162057902Y-63306240D02*
G01*
X162428029Y-63645355D01*
X162431814Y-63653471D01*
X162430403Y-63659573D01*
X162153323Y-64168891D01*
X162146359Y-64174521D01*
X162143045Y-64175000D01*
X161956955Y-64175000D01*
X161948682Y-64171573D01*
X161946677Y-64168891D01*
X161669596Y-63659573D01*
X161668653Y-63650668D01*
X161671968Y-63645357D01*
X162042097Y-63306240D01*
X162050511Y-63303179D01*
X162057902Y-63306240D01*
G37*
%TD.AperFunction*%
%TD*%
%TA.AperFunction,Conductor*%
%TO.N,5V*%
G36*
X156272685Y-73753427D02*
G01*
X156276054Y-73760536D01*
X156349747Y-74497471D01*
X156349180Y-74502407D01*
X155982554Y-75578820D01*
X155976643Y-75585547D01*
X155967707Y-75586123D01*
X155961809Y-75581635D01*
X155654721Y-75130830D01*
X155229213Y-74506185D01*
X155227389Y-74497420D01*
X155228849Y-74493584D01*
X155671592Y-73755680D01*
X155678787Y-73750349D01*
X155681625Y-73750000D01*
X156264412Y-73750000D01*
X156272685Y-73753427D01*
G37*
%TD.AperFunction*%
%TD*%
%TA.AperFunction,Conductor*%
%TO.N,Net-(U1-SW)*%
G36*
X161704623Y-68944771D02*
G01*
X161707228Y-68945596D01*
X162206745Y-69171352D01*
X162210454Y-69174006D01*
X162212769Y-69176473D01*
X162215840Y-69182989D01*
X162275044Y-69644614D01*
X162274729Y-69649171D01*
X162274262Y-69650889D01*
X162268790Y-69657971D01*
X162268052Y-69658394D01*
X162260943Y-69659872D01*
X161808873Y-69609696D01*
X161804522Y-69608317D01*
X161801579Y-69606696D01*
X161796602Y-69601354D01*
X161650116Y-69284148D01*
X161649532Y-69282599D01*
X161649054Y-69280991D01*
X161648696Y-69279369D01*
X161640573Y-69223607D01*
X161589347Y-69118823D01*
X161589217Y-69118534D01*
X161565501Y-69094819D01*
X161562964Y-69091021D01*
X161562283Y-69089376D01*
X161562282Y-69080428D01*
X161562963Y-69078782D01*
X161565498Y-69074985D01*
X161691365Y-68949118D01*
X161695158Y-68946584D01*
X161697913Y-68945444D01*
X161704597Y-68944766D01*
X161704623Y-68944771D01*
G37*
%TD.AperFunction*%
%TD*%
%TA.AperFunction,Conductor*%
%TO.N,5V*%
G36*
X156222041Y-68502427D02*
G01*
X156225458Y-68510223D01*
X156274503Y-69712823D01*
X156271416Y-69721229D01*
X156263290Y-69724990D01*
X156262813Y-69725000D01*
X155682921Y-69725000D01*
X155674648Y-69721573D01*
X155672058Y-69717645D01*
X155670129Y-69712823D01*
X155477327Y-69230817D01*
X155477436Y-69221865D01*
X155478549Y-69219845D01*
X155971512Y-68504063D01*
X155979027Y-68499194D01*
X155981148Y-68499000D01*
X156213768Y-68499000D01*
X156222041Y-68502427D01*
G37*
%TD.AperFunction*%
%TD*%
%TA.AperFunction,Conductor*%
%TO.N,Net-(U1-EN)*%
G36*
X164356844Y-65134040D02*
G01*
X164358791Y-65136132D01*
X164547128Y-65396037D01*
X164549208Y-65404747D01*
X164549195Y-65404825D01*
X164451630Y-65990223D01*
X164446890Y-65997821D01*
X164440089Y-66000000D01*
X164255850Y-66000000D01*
X164247577Y-65996573D01*
X164246490Y-65995320D01*
X164242667Y-65990223D01*
X163955573Y-65607431D01*
X163953352Y-65598758D01*
X163955975Y-65592888D01*
X164340362Y-65135468D01*
X164348306Y-65131341D01*
X164356844Y-65134040D01*
G37*
%TD.AperFunction*%
%TD*%
%TA.AperFunction,Conductor*%
%TO.N,Net-(C7-Pad1)*%
G36*
X160021965Y-62957301D02*
G01*
X160394166Y-63342920D01*
X160397446Y-63351251D01*
X160395196Y-63357945D01*
X160115087Y-63741436D01*
X160107440Y-63746096D01*
X160099697Y-63744614D01*
X159605758Y-63453394D01*
X159600371Y-63446240D01*
X159600000Y-63443315D01*
X159600000Y-63255977D01*
X159603427Y-63247704D01*
X159604838Y-63246501D01*
X160006694Y-62955945D01*
X160015405Y-62953875D01*
X160021965Y-62957301D01*
G37*
%TD.AperFunction*%
%TD*%
%TA.AperFunction,Conductor*%
%TO.N,Net-(U1-EN)*%
G36*
X164444021Y-67560207D02*
G01*
X164447448Y-67568480D01*
X164447224Y-67570759D01*
X164420710Y-67704289D01*
X164845688Y-67826224D01*
X164913594Y-67845708D01*
X165003114Y-67871393D01*
X165010121Y-67876968D01*
X165011133Y-67885866D01*
X165010706Y-67887093D01*
X164853121Y-68269843D01*
X164846802Y-68276189D01*
X164844476Y-68276885D01*
X164386552Y-68363499D01*
X164377787Y-68361670D01*
X164372882Y-68354177D01*
X164372871Y-68354121D01*
X164279289Y-67845711D01*
X164250891Y-67777151D01*
X164250000Y-67772674D01*
X164250000Y-67568480D01*
X164253427Y-67560207D01*
X164261700Y-67556780D01*
X164435748Y-67556780D01*
X164444021Y-67560207D01*
G37*
%TD.AperFunction*%
%TD*%
%TA.AperFunction,Conductor*%
%TO.N,Net-(U1-FB)*%
G36*
X162473045Y-65018115D02*
G01*
X162479365Y-65024459D01*
X162479402Y-65024550D01*
X162805136Y-65834427D01*
X162805044Y-65843381D01*
X162802554Y-65847066D01*
X162671971Y-65977649D01*
X162663698Y-65981076D01*
X162659508Y-65980300D01*
X161874094Y-65679024D01*
X161867597Y-65672861D01*
X161867199Y-65664356D01*
X162022589Y-65204336D01*
X162028483Y-65197596D01*
X162029197Y-65197272D01*
X162464092Y-65018098D01*
X162473045Y-65018115D01*
G37*
%TD.AperFunction*%
%TD*%
%TA.AperFunction,Conductor*%
%TO.N,Net-(U1-SW)*%
G36*
X160027303Y-68295973D02*
G01*
X160035225Y-68300146D01*
X160035969Y-68301145D01*
X160295711Y-68691789D01*
X160413277Y-68665663D01*
X160422094Y-68667213D01*
X160427234Y-68674546D01*
X160427513Y-68677084D01*
X160427513Y-68850800D01*
X160424086Y-68859073D01*
X160415813Y-68862500D01*
X160227326Y-68862500D01*
X160222849Y-68861609D01*
X160154289Y-68833210D01*
X160154287Y-68833211D01*
X159997202Y-68979488D01*
X159988812Y-68982619D01*
X159980667Y-68978899D01*
X159978186Y-68974792D01*
X159737109Y-68285783D01*
X159737612Y-68276844D01*
X159744289Y-68270877D01*
X159749229Y-68270271D01*
X160027303Y-68295973D01*
G37*
%TD.AperFunction*%
%TD*%
%TA.AperFunction,Conductor*%
%TO.N,5V*%
G36*
X156285697Y-64353427D02*
G01*
X156288995Y-64359964D01*
X156399200Y-65094673D01*
X156397038Y-65103363D01*
X156396471Y-65104071D01*
X155996968Y-65565073D01*
X155988960Y-65569081D01*
X155980464Y-65566253D01*
X155978788Y-65564460D01*
X155491294Y-64918709D01*
X155489044Y-64910042D01*
X155489603Y-64907755D01*
X155684737Y-64357788D01*
X155690734Y-64351137D01*
X155695764Y-64350000D01*
X156277424Y-64350000D01*
X156285697Y-64353427D01*
G37*
%TD.AperFunction*%
%TD*%
%TA.AperFunction,Conductor*%
%TO.N,+3.3V*%
G36*
X169366925Y-65843687D02*
G01*
X169941331Y-65997676D01*
X169948433Y-66003127D01*
X169950000Y-66008976D01*
X169950000Y-66194278D01*
X169946573Y-66202551D01*
X169945483Y-66203513D01*
X169508143Y-66543665D01*
X169499509Y-66546040D01*
X169492696Y-66542712D01*
X169149222Y-66200000D01*
X169058116Y-66109096D01*
X169054681Y-66100828D01*
X169058099Y-66092551D01*
X169058914Y-66091808D01*
X169356453Y-65845969D01*
X169365011Y-65843343D01*
X169366925Y-65843687D01*
G37*
%TD.AperFunction*%
%TD*%
%TA.AperFunction,Conductor*%
%TO.N,5V*%
G36*
X155702916Y-74076906D02*
G01*
X156340020Y-74493475D01*
X156345069Y-74500870D01*
X156343410Y-74509670D01*
X156343287Y-74509854D01*
X155609670Y-75586804D01*
X155602180Y-75591712D01*
X155593413Y-75589887D01*
X155590330Y-75586804D01*
X155326611Y-75199665D01*
X154856711Y-74509852D01*
X154854887Y-74501087D01*
X154859795Y-74493597D01*
X154859892Y-74493531D01*
X155497083Y-74076906D01*
X155503486Y-74075000D01*
X155696514Y-74075000D01*
X155702916Y-74076906D01*
G37*
%TD.AperFunction*%
%TD*%
%TA.AperFunction,Conductor*%
%TO.N,Net-(C7-Pad1)*%
G36*
X160570322Y-64275889D02*
G01*
X160573362Y-64277149D01*
X160579070Y-64282201D01*
X160901760Y-64853082D01*
X160903188Y-64857417D01*
X160903465Y-64859679D01*
X160901577Y-64867606D01*
X160900961Y-64868527D01*
X160898425Y-64871253D01*
X160484024Y-65193971D01*
X160479943Y-65196020D01*
X160477428Y-65196713D01*
X160469854Y-65196247D01*
X160469569Y-65196129D01*
X160469282Y-65196010D01*
X160466565Y-65194430D01*
X160262832Y-65035772D01*
X160051923Y-64871525D01*
X160048940Y-64868074D01*
X160047813Y-64866090D01*
X160046510Y-64858048D01*
X160046727Y-64856949D01*
X160048016Y-64853476D01*
X160370497Y-64282965D01*
X160373472Y-64279510D01*
X160375061Y-64278267D01*
X160376069Y-64277481D01*
X160383273Y-64275000D01*
X160565847Y-64275000D01*
X160570322Y-64275889D01*
G37*
%TD.AperFunction*%
%TD*%
%TA.AperFunction,Conductor*%
%TO.N,5V*%
G36*
X156007541Y-65583458D02*
G01*
X156009505Y-65585311D01*
X156396677Y-66046046D01*
X156399376Y-66054584D01*
X156399317Y-66055119D01*
X156301354Y-66789846D01*
X156296864Y-66797594D01*
X156289757Y-66800000D01*
X155708222Y-66800000D01*
X155699949Y-66796573D01*
X155697214Y-66792264D01*
X155502130Y-66250583D01*
X155502551Y-66241639D01*
X155503754Y-66239632D01*
X155991170Y-65585843D01*
X155998860Y-65581260D01*
X156007541Y-65583458D01*
G37*
%TD.AperFunction*%
%TD*%
%TA.AperFunction,Conductor*%
%TO.N,Net-(U1-BOOT)*%
G36*
X160924234Y-66922988D02*
G01*
X160932085Y-66927021D01*
X160933178Y-66928294D01*
X160935374Y-66932138D01*
X161146400Y-67550587D01*
X161147003Y-67555112D01*
X161146876Y-67557097D01*
X161143193Y-67564894D01*
X161142091Y-67565925D01*
X161138545Y-67568203D01*
X160862256Y-67681727D01*
X160857774Y-67682605D01*
X160855759Y-67682599D01*
X160847787Y-67679430D01*
X160846712Y-67678421D01*
X160844227Y-67675068D01*
X160791085Y-67567390D01*
X160589173Y-67158276D01*
X160587991Y-67153870D01*
X160587908Y-67152615D01*
X160590781Y-67144134D01*
X160598810Y-67140169D01*
X160598812Y-67140168D01*
X160599731Y-67140108D01*
X160604972Y-67140973D01*
X160634875Y-67153360D01*
X160634876Y-67153360D01*
X160634876Y-67153359D01*
X160634876Y-66973197D01*
X160635765Y-66968724D01*
X160635799Y-66968639D01*
X160636447Y-66967076D01*
X160642772Y-66960745D01*
X160643266Y-66960541D01*
X160652215Y-66960541D01*
X160715803Y-66986881D01*
X160917845Y-66923318D01*
X160922379Y-66922825D01*
X160924234Y-66922988D01*
G37*
%TD.AperFunction*%
%TD*%
%TA.AperFunction,Conductor*%
%TO.N,Net-(U1-SW)*%
G36*
X162400822Y-73753427D02*
G01*
X162403151Y-73756752D01*
X162747392Y-74494412D01*
X162747786Y-74503358D01*
X162746865Y-74505308D01*
X162109369Y-75585129D01*
X162102212Y-75590511D01*
X162093346Y-75589256D01*
X162089624Y-75585768D01*
X162062881Y-75546510D01*
X161354213Y-74506185D01*
X161352389Y-74497420D01*
X161353849Y-74493584D01*
X161796592Y-73755680D01*
X161803787Y-73750349D01*
X161806625Y-73750000D01*
X162392549Y-73750000D01*
X162400822Y-73753427D01*
G37*
%TD.AperFunction*%
%TD*%
%TA.AperFunction,Conductor*%
%TO.N,Net-(U1-FB)*%
G36*
X163144789Y-66600889D02*
G01*
X163147696Y-66602094D01*
X163153765Y-66607837D01*
X163335076Y-66985300D01*
X163336212Y-66989720D01*
X163336416Y-66993408D01*
X163335176Y-66999332D01*
X163061491Y-67540765D01*
X163058674Y-67544361D01*
X163057437Y-67545424D01*
X163048929Y-67548217D01*
X163041539Y-67544823D01*
X163040882Y-67544166D01*
X163038713Y-67541171D01*
X162765068Y-66999818D01*
X162763844Y-66995424D01*
X162763565Y-66991735D01*
X162764685Y-66985794D01*
X162945806Y-66608728D01*
X162948545Y-66605082D01*
X162950891Y-66602981D01*
X162958694Y-66600000D01*
X163140314Y-66600000D01*
X163144789Y-66600889D01*
G37*
%TD.AperFunction*%
%TD*%
%TA.AperFunction,Conductor*%
%TO.N,Net-(U1-BOOT)*%
G36*
X159918043Y-66629318D02*
G01*
X159921525Y-66630609D01*
X160492032Y-66953087D01*
X160495489Y-66956064D01*
X160497516Y-66958656D01*
X160500000Y-66965863D01*
X160500000Y-67148438D01*
X160499109Y-67152916D01*
X160497850Y-67155955D01*
X160492798Y-67161662D01*
X159921916Y-67484352D01*
X159917581Y-67485780D01*
X159915318Y-67486057D01*
X159907390Y-67484168D01*
X159906466Y-67483549D01*
X159903747Y-67481019D01*
X159581025Y-67066614D01*
X159578980Y-67062542D01*
X159578285Y-67060020D01*
X159578754Y-67052437D01*
X159578994Y-67051858D01*
X159580566Y-67049159D01*
X159903476Y-66634511D01*
X159906921Y-66631533D01*
X159908910Y-66630404D01*
X159916949Y-66629102D01*
X159918043Y-66629318D01*
G37*
%TD.AperFunction*%
%TD*%
%TA.AperFunction,Conductor*%
%TO.N,Net-(U1-FB)*%
G36*
X162151187Y-64278427D02*
G01*
X162153283Y-64281279D01*
X162453481Y-64855495D01*
X162454277Y-64864415D01*
X162450566Y-64869934D01*
X162057220Y-65195032D01*
X162048660Y-65197662D01*
X162042597Y-65195260D01*
X161608245Y-64858505D01*
X161603807Y-64850728D01*
X161605410Y-64843192D01*
X161946584Y-64280633D01*
X161953804Y-64275336D01*
X161956588Y-64275000D01*
X162142914Y-64275000D01*
X162151187Y-64278427D01*
G37*
%TD.AperFunction*%
%TD*%
%TA.AperFunction,Conductor*%
%TO.N,Net-(U1-FB)*%
G36*
X162410895Y-62905698D02*
G01*
X162844814Y-63196524D01*
X162849778Y-63203977D01*
X162850000Y-63206243D01*
X162850000Y-63393756D01*
X162846573Y-63402029D01*
X162844814Y-63403475D01*
X162410897Y-63694300D01*
X162402117Y-63696059D01*
X162395615Y-63692328D01*
X162055844Y-63307747D01*
X162052934Y-63299278D01*
X162055844Y-63292253D01*
X162395616Y-62907670D01*
X162403661Y-62903740D01*
X162410895Y-62905698D01*
G37*
%TD.AperFunction*%
%TD*%
%TA.AperFunction,Conductor*%
%TO.N,Net-(U1-EN)*%
G36*
X164504735Y-67897070D02*
G01*
X164843758Y-68267096D01*
X164846820Y-68275511D01*
X164843758Y-68282904D01*
X164504735Y-68652929D01*
X164496619Y-68656714D01*
X164490370Y-68655221D01*
X164013373Y-68386798D01*
X164007844Y-68379755D01*
X164008915Y-68370864D01*
X164014632Y-68365794D01*
X164045711Y-68352921D01*
X163917661Y-68224871D01*
X163914234Y-68216598D01*
X163917658Y-68208328D01*
X163920053Y-68205932D01*
X163923843Y-68203399D01*
X163992408Y-68175000D01*
X164490370Y-67894777D01*
X164499261Y-67893707D01*
X164504735Y-67897070D01*
G37*
%TD.AperFunction*%
%TD*%
%TA.AperFunction,Conductor*%
%TO.N,5V*%
G36*
X156295832Y-67283400D02*
G01*
X156299259Y-67291673D01*
X156299237Y-67292390D01*
X156225675Y-68490017D01*
X156221747Y-68498065D01*
X156213997Y-68501000D01*
X156006148Y-68501000D01*
X155997875Y-68497573D01*
X155996512Y-68495936D01*
X155992436Y-68490017D01*
X155503568Y-67780181D01*
X155501699Y-67771426D01*
X155502354Y-67769171D01*
X155697044Y-67287290D01*
X155703320Y-67280903D01*
X155707892Y-67279973D01*
X156287559Y-67279973D01*
X156295832Y-67283400D01*
G37*
%TD.AperFunction*%
%TD*%
%TA.AperFunction,Conductor*%
%TO.N,+3.3V*%
G36*
X169506922Y-69456123D02*
G01*
X169970227Y-69796493D01*
X169974865Y-69804153D01*
X169975000Y-69805922D01*
X169975000Y-69992351D01*
X169971573Y-70000624D01*
X169967993Y-70003068D01*
X169393970Y-70254428D01*
X169385017Y-70254608D01*
X169380460Y-70251402D01*
X169080976Y-69907999D01*
X169078121Y-69899512D01*
X169081284Y-69892280D01*
X169171662Y-69796493D01*
X169491489Y-69457523D01*
X169499658Y-69453858D01*
X169506922Y-69456123D01*
G37*
%TD.AperFunction*%
%TD*%
%TA.AperFunction,Conductor*%
%TO.N,5V*%
G36*
X155806822Y-70577844D02*
G01*
X156243035Y-70821116D01*
X156248591Y-70828137D01*
X156248930Y-70832902D01*
X156162793Y-71469373D01*
X156158288Y-71477112D01*
X156151985Y-71479478D01*
X155572027Y-71518513D01*
X155563542Y-71515649D01*
X155560090Y-71510381D01*
X155374529Y-70926186D01*
X155375291Y-70917264D01*
X155378339Y-70913534D01*
X155793788Y-70578950D01*
X155802380Y-70576430D01*
X155806822Y-70577844D01*
G37*
%TD.AperFunction*%
%TD*%
%TA.AperFunction,Conductor*%
%TO.N,5V*%
G36*
X155995340Y-63357776D02*
G01*
X155996185Y-63358621D01*
X156476601Y-63890831D01*
X156479601Y-63899269D01*
X156479153Y-63901931D01*
X156289949Y-64554060D01*
X156284352Y-64561051D01*
X156278712Y-64562500D01*
X155696288Y-64562500D01*
X155688015Y-64559073D01*
X155685051Y-64554060D01*
X155495846Y-63901931D01*
X155496832Y-63893031D01*
X155498394Y-63890836D01*
X155978815Y-63358620D01*
X155986902Y-63354776D01*
X155995340Y-63357776D01*
G37*
%TD.AperFunction*%
%TD*%
M02*
