%TF.GenerationSoftware,KiCad,Pcbnew,10.0.5*%
%TF.CreationDate,2026-09-30T20:25:46+08:00*%
%TF.ProjectId,TTLtoCANforTOF,54544c74-6f43-4414-9e66-6f72544f462e,rev?*%
%TF.SameCoordinates,Original*%
%TF.FileFunction,Copper,L2,Bot*%
%TF.FilePolarity,Positive*%
%FSLAX46Y46*%
G04 Gerber Fmt 4.6, Leading zero omitted, Abs format (unit mm)*
G04 Created by KiCad (PCBNEW 10.0.5) date 2026-09-30 20:25:46*
%MOMM*%
%LPD*%
G01*
G04 APERTURE LIST*
G04 Aperture macros list*
%AMRoundRect*
0 Rectangle with rounded corners*
0 $1 Rounding radius*
0 $2 $3 $4 $5 $6 $7 $8 $9 X,Y pos of 4 corners*
0 Add a 4 corners polygon primitive as box body*
4,1,4,$2,$3,$4,$5,$6,$7,$8,$9,$2,$3,0*
0 Add four circle primitives for the rounded corners*
1,1,$1+$1,$2,$3*
1,1,$1+$1,$4,$5*
1,1,$1+$1,$6,$7*
1,1,$1+$1,$8,$9*
0 Add four rect primitives between the rounded corners*
20,1,$1+$1,$2,$3,$4,$5,0*
20,1,$1+$1,$4,$5,$6,$7,0*
20,1,$1+$1,$6,$7,$8,$9,0*
20,1,$1+$1,$8,$9,$2,$3,0*%
G04 Aperture macros list end*
%TA.AperFunction,ComponentPad*%
%ADD10RoundRect,0.760000X1.140000X1.140000X-1.140000X1.140000X-1.140000X-1.140000X1.140000X-1.140000X0*%
%TD*%
%TA.AperFunction,ComponentPad*%
%ADD11C,4.000000*%
%TD*%
%TA.AperFunction,SMDPad,CuDef*%
%ADD12RoundRect,0.150000X-0.150000X-0.700000X0.150000X-0.700000X0.150000X0.700000X-0.150000X0.700000X0*%
%TD*%
%TA.AperFunction,SMDPad,CuDef*%
%ADD13RoundRect,0.250000X-0.250000X-1.100000X0.250000X-1.100000X0.250000X1.100000X-0.250000X1.100000X0*%
%TD*%
%TA.AperFunction,SMDPad,CuDef*%
%ADD14RoundRect,0.200000X0.275000X-0.200000X0.275000X0.200000X-0.275000X0.200000X-0.275000X-0.200000X0*%
%TD*%
%TA.AperFunction,SMDPad,CuDef*%
%ADD15RoundRect,0.225000X0.250000X-0.225000X0.250000X0.225000X-0.250000X0.225000X-0.250000X-0.225000X0*%
%TD*%
%TA.AperFunction,SMDPad,CuDef*%
%ADD16RoundRect,0.225000X-0.250000X0.225000X-0.250000X-0.225000X0.250000X-0.225000X0.250000X0.225000X0*%
%TD*%
%TA.AperFunction,SMDPad,CuDef*%
%ADD17RoundRect,0.200000X0.200000X0.275000X-0.200000X0.275000X-0.200000X-0.275000X0.200000X-0.275000X0*%
%TD*%
%TA.AperFunction,SMDPad,CuDef*%
%ADD18R,1.700000X0.900000*%
%TD*%
%TA.AperFunction,SMDPad,CuDef*%
%ADD19RoundRect,0.150000X-0.825000X-0.150000X0.825000X-0.150000X0.825000X0.150000X-0.825000X0.150000X0*%
%TD*%
%TA.AperFunction,SMDPad,CuDef*%
%ADD20RoundRect,0.250000X0.475000X-0.250000X0.475000X0.250000X-0.475000X0.250000X-0.475000X-0.250000X0*%
%TD*%
%TA.AperFunction,SMDPad,CuDef*%
%ADD21RoundRect,0.150000X-0.700000X0.150000X-0.700000X-0.150000X0.700000X-0.150000X0.700000X0.150000X0*%
%TD*%
%TA.AperFunction,SMDPad,CuDef*%
%ADD22RoundRect,0.250000X-1.100000X0.250000X-1.100000X-0.250000X1.100000X-0.250000X1.100000X0.250000X0*%
%TD*%
%TA.AperFunction,SMDPad,CuDef*%
%ADD23RoundRect,0.075000X0.075000X-0.662500X0.075000X0.662500X-0.075000X0.662500X-0.075000X-0.662500X0*%
%TD*%
%TA.AperFunction,SMDPad,CuDef*%
%ADD24RoundRect,0.075000X0.662500X-0.075000X0.662500X0.075000X-0.662500X0.075000X-0.662500X-0.075000X0*%
%TD*%
%TA.AperFunction,SMDPad,CuDef*%
%ADD25RoundRect,0.250000X0.450000X0.350000X-0.450000X0.350000X-0.450000X-0.350000X0.450000X-0.350000X0*%
%TD*%
%TA.AperFunction,SMDPad,CuDef*%
%ADD26RoundRect,0.225000X0.225000X0.250000X-0.225000X0.250000X-0.225000X-0.250000X0.225000X-0.250000X0*%
%TD*%
%TA.AperFunction,SMDPad,CuDef*%
%ADD27RoundRect,0.150000X-0.150000X0.512500X-0.150000X-0.512500X0.150000X-0.512500X0.150000X0.512500X0*%
%TD*%
%TA.AperFunction,ViaPad*%
%ADD28C,0.600000*%
%TD*%
%TA.AperFunction,Conductor*%
%ADD29C,0.200000*%
%TD*%
%TA.AperFunction,Conductor*%
%ADD30C,0.300000*%
%TD*%
%TA.AperFunction,Conductor*%
%ADD31C,0.600000*%
%TD*%
%TA.AperFunction,Conductor*%
%ADD32C,0.500000*%
%TD*%
G04 APERTURE END LIST*
D10*
%TO.P,J4,1,Pin_1_1*%
%TO.N,GND*%
X125600000Y-48025000D03*
D11*
%TO.P,J4,2,Pin_2_2*%
%TO.N,VCC_IN*%
X120600000Y-48025000D03*
%TD*%
D12*
%TO.P,J6,1,Pin_1_1*%
%TO.N,/SWDIO*%
X120475000Y-36675000D03*
%TO.P,J6,2,Pin_2_2*%
%TO.N,/SWCLK*%
X121725000Y-36675000D03*
%TO.P,J6,3,Pin_3_3*%
%TO.N,GND*%
X122975000Y-36675000D03*
%TO.P,J6,4,Pin_4_4*%
%TO.N,+3.3V*%
X124225000Y-36675000D03*
D13*
%TO.P,J6,MP,MountPin_MP*%
%TO.N,GND*%
X118625000Y-33475000D03*
X126075000Y-33475000D03*
%TD*%
D14*
%TO.P,R7,1*%
%TO.N,/SWCLK*%
X108500000Y-40475000D03*
%TO.P,R7,2*%
%TO.N,GND*%
X108500000Y-38825000D03*
%TD*%
D15*
%TO.P,C12,1*%
%TO.N,+3.3V*%
X112650000Y-38925000D03*
%TO.P,C12,2*%
%TO.N,GND*%
X112650000Y-37375000D03*
%TD*%
D16*
%TO.P,C19,1*%
%TO.N,+3.3V*%
X108775000Y-54150000D03*
%TO.P,C19,2*%
%TO.N,GND*%
X108775000Y-55700000D03*
%TD*%
D15*
%TO.P,C16,1*%
%TO.N,GND*%
X106582500Y-55562499D03*
%TO.P,C16,2*%
%TO.N,/OSC+*%
X106582500Y-54012499D03*
%TD*%
D17*
%TO.P,R6,1*%
%TO.N,+3.3V*%
X104650000Y-40175000D03*
%TO.P,R6,2*%
%TO.N,/NRST*%
X103000000Y-40175000D03*
%TD*%
D18*
%TO.P,SW1,1,A_1*%
%TO.N,/NRST*%
X100250000Y-38175000D03*
%TO.P,SW1,2,B_2*%
%TO.N,GND*%
X100250000Y-34775000D03*
%TD*%
D19*
%TO.P,U6,1,TXD_1*%
%TO.N,/CAN_TX*%
X113150000Y-56705000D03*
%TO.P,U6,2,GND_2*%
%TO.N,GND*%
X113150000Y-55435000D03*
%TO.P,U6,3,VCC_3*%
%TO.N,+3.3V*%
X113150000Y-54165000D03*
%TO.P,U6,4,RXD_4*%
%TO.N,/CAN_RX*%
X113150000Y-52895000D03*
%TO.P,U6,5,VIO_5*%
%TO.N,+3.3V*%
X118100000Y-52895000D03*
%TO.P,U6,6,CANL_6*%
%TO.N,/CAN-*%
X118100000Y-54165000D03*
%TO.P,U6,7,CANH_7*%
%TO.N,/CAN+*%
X118100000Y-55435000D03*
%TO.P,U6,8,STB_8*%
%TO.N,GND*%
X118100000Y-56705000D03*
%TD*%
D20*
%TO.P,C11,1*%
%TO.N,+3.3V*%
X126225000Y-39950000D03*
%TO.P,C11,2*%
%TO.N,GND*%
X126225000Y-38050000D03*
%TD*%
D12*
%TO.P,J3,1,Pin_1_1*%
%TO.N,/USART1_TX*%
X105100000Y-36750000D03*
%TO.P,J3,2,Pin_2_2*%
%TO.N,/USART1_RX*%
X106350000Y-36750000D03*
%TO.P,J3,3,Pin_3_3*%
%TO.N,GND*%
X107600000Y-36750000D03*
%TO.P,J3,4,Pin_4_4*%
%TO.N,5V*%
X108850000Y-36750000D03*
D13*
%TO.P,J3,MP,MountPin_MP*%
%TO.N,GND*%
X103250000Y-33550000D03*
X110700000Y-33550000D03*
%TD*%
D16*
%TO.P,C21,1*%
%TO.N,+3.3V*%
X111000000Y-54225000D03*
%TO.P,C21,2*%
%TO.N,GND*%
X111000000Y-55775000D03*
%TD*%
D21*
%TO.P,J2,1,Pin_1_1*%
%TO.N,/CAN-*%
X123425000Y-54175000D03*
%TO.P,J2,2,Pin_2_2*%
%TO.N,/CAN+*%
X123425000Y-55425000D03*
D22*
%TO.P,J2,MP,MountPin_MP*%
%TO.N,GND*%
X126625000Y-52325000D03*
X126625000Y-57275000D03*
%TD*%
D15*
%TO.P,C17,1*%
%TO.N,GND*%
X100407500Y-55562499D03*
%TO.P,C17,2*%
%TO.N,/OSC-*%
X100407500Y-54012499D03*
%TD*%
%TO.P,C10,1*%
%TO.N,5V*%
X116200000Y-34662500D03*
%TO.P,C10,2*%
%TO.N,GND*%
X116200000Y-33112500D03*
%TD*%
D20*
%TO.P,C9,1*%
%TO.N,5V*%
X114250000Y-34662500D03*
%TO.P,C9,2*%
%TO.N,GND*%
X114250000Y-32762500D03*
%TD*%
D23*
%TO.P,U3,1,PC13_1*%
%TO.N,unconnected-(U3-PC13-Pad1)*%
X107882500Y-50637499D03*
%TO.P,U3,2,PC14_2*%
%TO.N,unconnected-(U3-PC14-Pad2)*%
X107382500Y-50637499D03*
%TO.P,U3,3,PC15_3*%
%TO.N,unconnected-(U3-PC15-Pad3)*%
X106882500Y-50637499D03*
%TO.P,U3,4,VBAT_4*%
%TO.N,+3.3V*%
X106382500Y-50637499D03*
%TO.P,U3,5,VREF+_5*%
X105882500Y-50637499D03*
%TO.P,U3,6,VDD_6*%
X105382500Y-50637499D03*
%TO.P,U3,7,VSS_7*%
%TO.N,GND*%
X104882500Y-50637499D03*
%TO.P,U3,8,PF0_8*%
%TO.N,/OSC+*%
X104382500Y-50637499D03*
%TO.P,U3,9,PF1_9*%
%TO.N,/OSC-*%
X103882500Y-50637499D03*
%TO.P,U3,10,PF2_10*%
%TO.N,/NRST*%
X103382500Y-50637499D03*
%TO.P,U3,11,PA0_11*%
%TO.N,unconnected-(U3-PA0-Pad11)*%
X102882500Y-50637499D03*
%TO.P,U3,12,PA1_12*%
%TO.N,unconnected-(U3-PA1-Pad12)*%
X102382500Y-50637499D03*
D24*
%TO.P,U3,13,PA2_13*%
%TO.N,unconnected-(U3-PA2-Pad13)*%
X100970000Y-49224999D03*
%TO.P,U3,14,PA3_14*%
%TO.N,unconnected-(U3-PA3-Pad14)*%
X100970000Y-48724999D03*
%TO.P,U3,15,PA4_15*%
%TO.N,unconnected-(U3-PA4-Pad15)*%
X100970000Y-48224999D03*
%TO.P,U3,16,PA5_16*%
%TO.N,unconnected-(U3-PA5-Pad16)*%
X100970000Y-47724999D03*
%TO.P,U3,17,PA6_17*%
%TO.N,unconnected-(U3-PA6-Pad17)*%
X100970000Y-47224999D03*
%TO.P,U3,19,PB0_19*%
%TO.N,unconnected-(U3-PB0-Pad19)*%
X100970000Y-46224999D03*
%TO.P,U3,20,PB1_20*%
%TO.N,unconnected-(U3-PB1-Pad20)*%
X100970000Y-45724999D03*
%TO.P,U3,21,PB2_21*%
%TO.N,unconnected-(U3-PB2-Pad21)*%
X100970000Y-45224999D03*
%TO.P,U3,22,PB10_22*%
%TO.N,unconnected-(U3-PB10-Pad22)*%
X100970000Y-44724999D03*
%TO.P,U3,23,PB11_23*%
%TO.N,unconnected-(U3-PB11-Pad23)*%
X100970000Y-44224999D03*
%TO.P,U3,24,PB12_24*%
%TO.N,unconnected-(U3-PB12-Pad24)*%
X100970000Y-43724999D03*
D23*
%TO.P,U3,25,PB13_25*%
%TO.N,unconnected-(U3-PB13-Pad25)*%
X102382500Y-42312499D03*
%TO.P,U3,26,PB14_26*%
%TO.N,unconnected-(U3-PB14-Pad26)*%
X102882500Y-42312499D03*
%TO.P,U3,27,PB15_27*%
%TO.N,unconnected-(U3-PB15-Pad27)*%
X103382500Y-42312499D03*
%TO.P,U3,28,PA8_28*%
%TO.N,unconnected-(U3-PA8-Pad28)*%
X103882500Y-42312499D03*
%TO.P,U3,30,PC6_30*%
%TO.N,unconnected-(U3-PC6-Pad30)*%
X104882500Y-42312499D03*
%TO.P,U3,31,PC7_31*%
%TO.N,unconnected-(U3-PC7-Pad31)*%
X105382500Y-42312499D03*
%TO.P,U3,32,PA10/UCPD1_DBCC2_32*%
%TO.N,unconnected-(U3-PA10{slash}UCPD1_DBCC2-Pad32)*%
X105882500Y-42312499D03*
%TO.P,U3,33,PA9/PA11_33*%
%TO.N,/USART1_TX*%
X106382500Y-42312499D03*
%TO.P,U3,34,PA10/PA12_34*%
%TO.N,/USART1_RX*%
X106882500Y-42312499D03*
%TO.P,U3,35,PA13_35*%
%TO.N,/SWDIO*%
X107382500Y-42312499D03*
%TO.P,U3,36,PA14_36*%
%TO.N,/SWCLK*%
X107882500Y-42312499D03*
D24*
%TO.P,U3,37,PA15_37*%
%TO.N,unconnected-(U3-PA15-Pad37)*%
X109295000Y-43724999D03*
%TO.P,U3,38,PD0_38*%
%TO.N,unconnected-(U3-PD0-Pad38)*%
X109295000Y-44224999D03*
%TO.P,U3,39,PD1_39*%
%TO.N,unconnected-(U3-PD1-Pad39)*%
X109295000Y-44724999D03*
%TO.P,U3,40,PD2_40*%
%TO.N,unconnected-(U3-PD2-Pad40)*%
X109295000Y-45224999D03*
%TO.P,U3,41,PD3_41*%
%TO.N,unconnected-(U3-PD3-Pad41)*%
X109295000Y-45724999D03*
%TO.P,U3,42,PB3_42*%
%TO.N,unconnected-(U3-PB3-Pad42)*%
X109295000Y-46224999D03*
%TO.P,U3,43,PB4_43*%
%TO.N,unconnected-(U3-PB4-Pad43)*%
X109295000Y-46724999D03*
%TO.P,U3,44,PB5_44*%
%TO.N,unconnected-(U3-PB5-Pad44)*%
X109295000Y-47224999D03*
%TO.P,U3,46,PB7_46*%
%TO.N,unconnected-(U3-PB7-Pad46)*%
X109295000Y-48224999D03*
%TO.P,U3,47,PB8_47*%
%TO.N,/CAN_RX*%
X109295000Y-48724999D03*
%TO.P,U3,48,PB9_48*%
%TO.N,/CAN_TX*%
X109295000Y-49224999D03*
%TD*%
D25*
%TO.P,Y1,1,1_1*%
%TO.N,/OSC+*%
X104582500Y-55437499D03*
%TO.P,Y1,2,2_2*%
%TO.N,GND*%
X102382500Y-55437499D03*
%TO.P,Y1,3,3_3*%
%TO.N,/OSC-*%
X102382500Y-53737499D03*
%TO.P,Y1,4*%
%TO.N,GND*%
X104582500Y-53737499D03*
%TD*%
D26*
%TO.P,C18,1*%
%TO.N,/NRST*%
X101375000Y-40075000D03*
%TO.P,C18,2*%
%TO.N,GND*%
X99825000Y-40075000D03*
%TD*%
D27*
%TO.P,U2,1,V_{IN}_1*%
%TO.N,5V*%
X114350000Y-36600000D03*
%TO.P,U2,2,V_{SS}_2*%
%TO.N,GND*%
X115300000Y-36600000D03*
%TO.P,U2,3,CE_3*%
%TO.N,5V*%
X116250000Y-36600000D03*
%TO.P,U2,4,NC_4*%
%TO.N,unconnected-(U2-NC-Pad4)*%
X116250000Y-38875000D03*
%TO.P,U2,5,V_{OUT}_5*%
%TO.N,+3.3V*%
X114350000Y-38875000D03*
%TD*%
D28*
%TO.N,+3.3V*%
X104475000Y-49025000D03*
X106997545Y-52022454D03*
X105932500Y-51587499D03*
%TO.N,GND*%
X100050000Y-41650000D03*
X128275000Y-50375000D03*
X125875000Y-32750000D03*
X104415271Y-52961996D03*
X127650000Y-51025000D03*
X124925000Y-44300000D03*
X127600000Y-44250000D03*
X101832500Y-56587499D03*
X99400000Y-44925000D03*
X99325000Y-47625000D03*
X100450000Y-34075000D03*
X116300000Y-45600000D03*
X127400000Y-38550000D03*
X102300000Y-58300000D03*
X98700000Y-47650000D03*
X120750000Y-43825000D03*
X127500000Y-35675000D03*
X107532500Y-53412499D03*
X126500000Y-33375000D03*
X128125000Y-35675000D03*
X124300000Y-44325000D03*
X100282500Y-52837499D03*
X113850000Y-45525000D03*
X106225000Y-58500000D03*
X101075000Y-34700000D03*
X102975000Y-32225000D03*
X124800000Y-41950000D03*
X110850000Y-32300000D03*
X105600000Y-58525000D03*
X99532500Y-56437499D03*
X108775000Y-57500000D03*
X128225000Y-44225000D03*
X105082500Y-56587499D03*
X101257500Y-52237499D03*
X112625000Y-45525000D03*
X124800000Y-41325000D03*
X126500000Y-32750000D03*
X99400000Y-44300000D03*
X111475000Y-32300000D03*
X108775000Y-58150000D03*
X127650000Y-50375000D03*
X105600000Y-57875000D03*
X115125000Y-45550000D03*
X128025000Y-38525000D03*
X121375000Y-43825000D03*
X98700000Y-47000000D03*
X99425000Y-42300000D03*
X121375000Y-44450000D03*
X99600000Y-50975000D03*
X100050000Y-42275000D03*
X128125000Y-36300000D03*
X128025000Y-37900000D03*
X100450000Y-34725000D03*
X99325000Y-47000000D03*
X99600000Y-50325000D03*
X102925000Y-57650000D03*
X102975000Y-31575000D03*
X103600000Y-32200000D03*
X103600000Y-31575000D03*
X107395000Y-56274999D03*
X110850000Y-32950000D03*
X120750000Y-44475000D03*
X127500000Y-36325000D03*
X100225000Y-50950000D03*
X125875000Y-33400000D03*
X109400000Y-58125000D03*
X99282500Y-54237499D03*
X128275000Y-51000000D03*
X101075000Y-34075000D03*
X99425000Y-41650000D03*
X124300000Y-43675000D03*
X100225000Y-50325000D03*
X102925000Y-58275000D03*
X102300000Y-57650000D03*
X124175000Y-41325000D03*
X98775000Y-44300000D03*
X98775000Y-44950000D03*
X127400000Y-37900000D03*
X109400000Y-57500000D03*
X124175000Y-41975000D03*
X124925000Y-43675000D03*
X106225000Y-57875000D03*
X127600000Y-43600000D03*
X128225000Y-43600000D03*
X111475000Y-32925000D03*
%TO.N,5V*%
X106118969Y-33475000D03*
%TD*%
%TO.N,+3.3V*%
D29*
X108207500Y-53232409D02*
X108207500Y-53582500D01*
X105882500Y-51362499D02*
X105882500Y-50637499D01*
D30*
X115775000Y-47750000D02*
X115825000Y-47750000D01*
X124225000Y-36675000D02*
X124225000Y-39400000D01*
X116050000Y-47750000D02*
X116075000Y-47775000D01*
D29*
X105882500Y-47475000D02*
X105882500Y-47544999D01*
X105857500Y-51387499D02*
X105882500Y-51362499D01*
X115800000Y-52875000D02*
X115800000Y-52895000D01*
X115394999Y-52895000D02*
X115800000Y-52895000D01*
D30*
X116075000Y-47550000D02*
X116075000Y-47775000D01*
D29*
X124225000Y-35825001D02*
X124225000Y-36675000D01*
X114300000Y-38925000D02*
X114350000Y-38875000D01*
X114350000Y-38875000D02*
X115400000Y-37825000D01*
X106382500Y-50637499D02*
X106382500Y-51407409D01*
X116075000Y-52895000D02*
X116350000Y-52895000D01*
X117150000Y-37825000D02*
X120125000Y-34850000D01*
D30*
X115875000Y-47750000D02*
X116075000Y-47550000D01*
D29*
X105882500Y-47762499D02*
X105882500Y-48025000D01*
X106157500Y-47750000D02*
X115775000Y-47750000D01*
X104332500Y-40492500D02*
X104650000Y-40175000D01*
X113032500Y-54047500D02*
X113150000Y-54165000D01*
X105882500Y-47762499D02*
X105882500Y-47475000D01*
D30*
X124225000Y-39400000D02*
X115875000Y-47750000D01*
D29*
X104870001Y-49025000D02*
X105247500Y-49402500D01*
X123249999Y-34850000D02*
X124225000Y-35825001D01*
X124225000Y-37950000D02*
X126225000Y-39950000D01*
X116075000Y-52600000D02*
X116075000Y-52895000D01*
X105882500Y-47762499D02*
X106100000Y-47762499D01*
X106382500Y-51407409D02*
X108207500Y-53232409D01*
D30*
X116075000Y-48000000D02*
X116075000Y-52600000D01*
D29*
X116350000Y-52895000D02*
X118100000Y-52895000D01*
X116075000Y-52600000D02*
X115800000Y-52875000D01*
X105382500Y-49537499D02*
X105547500Y-49372500D01*
X105547500Y-49372500D02*
X105882500Y-49037499D01*
X105882500Y-47237499D02*
X104332500Y-45687499D01*
X104332500Y-45687499D02*
X104332500Y-40492500D01*
X115800000Y-52895000D02*
X116075000Y-52895000D01*
X108207500Y-53582500D02*
X108775000Y-54150000D01*
D30*
X115875000Y-47750000D02*
X116050000Y-47750000D01*
D29*
X106100000Y-47807500D02*
X106157500Y-47750000D01*
X114124999Y-54165000D02*
X115394999Y-52895000D01*
X115400000Y-37825000D02*
X117150000Y-37825000D01*
X105382500Y-50637499D02*
X105382500Y-49537499D01*
X105277500Y-49372500D02*
X105547500Y-49372500D01*
X105932500Y-51587499D02*
X105857500Y-51512499D01*
D30*
X115825000Y-47750000D02*
X116075000Y-48000000D01*
D29*
X105882500Y-48025000D02*
X105882500Y-49037499D01*
X106382500Y-49537499D02*
X105882500Y-49037499D01*
X113150000Y-54165000D02*
X114124999Y-54165000D01*
X105882500Y-47544999D02*
X106100000Y-47762499D01*
X124225000Y-36675000D02*
X124225000Y-37950000D01*
X120125000Y-34850000D02*
X123249999Y-34850000D01*
X112650000Y-38925000D02*
X114300000Y-38925000D01*
X106100000Y-47762499D02*
X106100000Y-47807500D01*
D30*
X116075000Y-47775000D02*
X116075000Y-48000000D01*
D29*
X104475000Y-49025000D02*
X104870001Y-49025000D01*
X105882500Y-49037499D02*
X105882500Y-50637499D01*
X116075000Y-52600000D02*
X116075000Y-52620000D01*
X105247500Y-49402500D02*
X105277500Y-49372500D01*
X105857500Y-51512499D02*
X105857500Y-51387499D01*
X105882500Y-47475000D02*
X105882500Y-47237499D01*
D30*
X115775000Y-47750000D02*
X115875000Y-47750000D01*
D29*
X116075000Y-52620000D02*
X116350000Y-52895000D01*
X106100000Y-47807500D02*
X105882500Y-48025000D01*
X105247500Y-49402500D02*
X105382500Y-49537499D01*
X111025000Y-54047500D02*
X113032500Y-54047500D01*
X106382500Y-50637499D02*
X106382500Y-49537499D01*
%TO.N,GND*%
X101257500Y-52237499D02*
X100657500Y-52837499D01*
D31*
X106582500Y-55562499D02*
X106582500Y-55712499D01*
D29*
X101832500Y-56587499D02*
X101832500Y-55987499D01*
X107507427Y-53437426D02*
X107507427Y-53687572D01*
X104882500Y-51537499D02*
X106607500Y-53262499D01*
X100657500Y-52837499D02*
X100282500Y-52837499D01*
X104057500Y-56587499D02*
X107307500Y-56587499D01*
X107470000Y-53499999D02*
X107470000Y-56199999D01*
X99432500Y-56337499D02*
X99532500Y-56437499D01*
X101832500Y-55987499D02*
X102382500Y-55437499D01*
X104082500Y-53737499D02*
X102382500Y-55437499D01*
X99532500Y-56437499D02*
X99532500Y-56462499D01*
X106607500Y-53262499D02*
X107332500Y-53262499D01*
X101832500Y-56587499D02*
X104057500Y-56587499D01*
X99582500Y-56512499D02*
X101832500Y-56512499D01*
X104882500Y-50637499D02*
X104882500Y-51537499D01*
X107332500Y-53262499D02*
X107507427Y-53437426D01*
X126725000Y-52363052D02*
X126725000Y-52222500D01*
X107395000Y-56274999D02*
X107470000Y-56199999D01*
X99532500Y-56462499D02*
X99582500Y-56512499D01*
X99532500Y-56437499D02*
X100407500Y-55562499D01*
X104582500Y-53737499D02*
X104082500Y-53737499D01*
X106670000Y-55399999D02*
X107470000Y-56199999D01*
X99432500Y-53687499D02*
X99432500Y-56337499D01*
X99432500Y-53687499D02*
X100282500Y-52837499D01*
%TO.N,5V*%
D32*
X109250000Y-36350000D02*
X114100000Y-36350000D01*
X106118969Y-33475000D02*
X108617157Y-35973188D01*
X116250000Y-36600000D02*
X116250000Y-34712500D01*
X109250000Y-36350000D02*
X108850000Y-36750000D01*
X108850000Y-36206031D02*
X108617157Y-35973188D01*
X116200000Y-34662500D02*
X116250000Y-34712500D01*
D29*
X114250000Y-36500000D02*
X114350000Y-36600000D01*
D32*
X114100000Y-36350000D02*
X114350000Y-36600000D01*
X114250000Y-34662500D02*
X116200000Y-34662500D01*
X114250000Y-34662500D02*
X114250000Y-36500000D01*
X108850000Y-36750000D02*
X108850000Y-36206031D01*
%TO.N,/SWDIO*%
D29*
X116950000Y-40200000D02*
X111275000Y-40200000D01*
X107382500Y-40242500D02*
X107382500Y-42312499D01*
X120475000Y-36675000D02*
X116950000Y-40200000D01*
X111275000Y-40200000D02*
X110850000Y-39775000D01*
X107850000Y-39775000D02*
X107382500Y-40242500D01*
X110850000Y-39775000D02*
X107850000Y-39775000D01*
%TO.N,/SWCLK*%
X116937500Y-42312499D02*
X107882500Y-42312499D01*
X107882500Y-42312499D02*
X107882500Y-41092500D01*
X121725000Y-36675000D02*
X121725000Y-37524999D01*
X107882500Y-41092500D02*
X108500000Y-40475000D01*
X121725000Y-37524999D02*
X116937500Y-42312499D01*
%TO.N,/OSC+*%
X105582500Y-53152755D02*
X105088104Y-52658359D01*
X104582500Y-55437499D02*
X105582500Y-54437499D01*
X105088104Y-52658359D02*
X104382500Y-51952755D01*
X104582500Y-55437499D02*
X105482500Y-55437499D01*
X104382500Y-51952755D02*
X104382500Y-50637499D01*
X105482500Y-55437499D02*
X106582500Y-54337499D01*
X106582500Y-54337499D02*
X106582500Y-54012499D01*
X105582500Y-54437499D02*
X105582500Y-53152755D01*
%TO.N,/NRST*%
X101375000Y-40075000D02*
X102900000Y-40075000D01*
X102900000Y-40075000D02*
X103000000Y-40175000D01*
X103382500Y-50637499D02*
X103382500Y-44867589D01*
X101375000Y-40075000D02*
X101375000Y-39300000D01*
X101375000Y-42860089D02*
X101375000Y-40075000D01*
X103382500Y-44867589D02*
X101375000Y-42860089D01*
X101375000Y-39300000D02*
X100250000Y-38175000D01*
%TO.N,/CAN_TX*%
X110330000Y-56705000D02*
X113150000Y-56705000D01*
X109800000Y-56175000D02*
X110330000Y-56705000D01*
X109295000Y-49224999D02*
X109800000Y-49729999D01*
X109800000Y-49729999D02*
X109800000Y-56175000D01*
%TO.N,/CAN_RX*%
X113150000Y-49449999D02*
X113150000Y-52895000D01*
X109295000Y-48724999D02*
X112425000Y-48724999D01*
X112425000Y-48724999D02*
X113150000Y-49449999D01*
%TO.N,/CAN-*%
X119972501Y-54575000D02*
X119562501Y-54165000D01*
X123425000Y-54175000D02*
X122149999Y-54175000D01*
X119562501Y-54165000D02*
X118100000Y-54165000D01*
X122149999Y-54175000D02*
X121749999Y-54575000D01*
X121749999Y-54575000D02*
X119972501Y-54575000D01*
%TO.N,/CAN+*%
X122149999Y-55425000D02*
X121749999Y-55025000D01*
X119972501Y-55025000D02*
X119562501Y-55435000D01*
X119562501Y-55435000D02*
X118100000Y-55435000D01*
X123425000Y-55425000D02*
X122149999Y-55425000D01*
X121749999Y-55025000D02*
X119972501Y-55025000D01*
%TO.N,/USART1_TX*%
X106382500Y-39032500D02*
X105100000Y-37750000D01*
X106382500Y-39032500D02*
X106382500Y-42312499D01*
X105100000Y-37750000D02*
X105100000Y-36750000D01*
%TO.N,/USART1_RX*%
X106350000Y-38209314D02*
X106350000Y-36750000D01*
X106882500Y-38741814D02*
X106882500Y-42312499D01*
X106882500Y-38741814D02*
X106350000Y-38209314D01*
%TO.N,/OSC-*%
X103493941Y-53208992D02*
X103318893Y-53033944D01*
X103882500Y-50637499D02*
X103908223Y-50663222D01*
X103743163Y-52326837D02*
X103908223Y-52161776D01*
X102189761Y-53880238D02*
X102682500Y-53387499D01*
X102965342Y-53387499D02*
X103140389Y-53562546D01*
X103177475Y-52892524D02*
X103036054Y-52751103D01*
X103177472Y-52892523D02*
X103177475Y-52892524D01*
X103908223Y-50663222D02*
X103908223Y-52054956D01*
X103672452Y-52397549D02*
X103743163Y-52326837D01*
X100407500Y-54012499D02*
X102107500Y-54012499D01*
X102719610Y-52151817D02*
X102790324Y-52081104D01*
X103908223Y-52054956D02*
X103908223Y-52161776D01*
X103318893Y-53033944D02*
X103177472Y-52892523D01*
X103036054Y-52751103D02*
X102719610Y-52434659D01*
X103073166Y-52081104D02*
X103389610Y-52397548D01*
X103423231Y-53562546D02*
X103493941Y-53491835D01*
X102790324Y-52081104D02*
G75*
G02*
X103073166Y-52081104I141421J-141426D01*
G01*
X103140389Y-53562546D02*
G75*
G03*
X103423231Y-53562546I141421J141423D01*
G01*
X102719610Y-52434659D02*
G75*
G02*
X102719572Y-52151779I141390J141459D01*
G01*
X103389610Y-52397548D02*
G75*
G03*
X103672421Y-52397518I141390J141448D01*
G01*
X103493941Y-53491835D02*
G75*
G03*
X103493955Y-53208979I-141441J141435D01*
G01*
X102682500Y-53387499D02*
G75*
G02*
X102965342Y-53387499I141421J-141423D01*
G01*
%TD*%
%TA.AperFunction,Conductor*%
%TO.N,+3.3V*%
G36*
X106392287Y-50687423D02*
G01*
X106393954Y-50691446D01*
X106525895Y-51324401D01*
X106524637Y-51332527D01*
X106482499Y-51407407D01*
X106482500Y-51407408D01*
X106482500Y-51407409D01*
X106515795Y-51415098D01*
X106523084Y-51420297D01*
X106524562Y-51429129D01*
X106521435Y-51434770D01*
X106403210Y-51552995D01*
X106394937Y-51556422D01*
X106386665Y-51552995D01*
X106313433Y-51479764D01*
X106310898Y-51475969D01*
X106282505Y-51407421D01*
X106282504Y-51407420D01*
X106282500Y-51407409D01*
X106240361Y-51332525D01*
X106239104Y-51324404D01*
X106371046Y-50691445D01*
X106376089Y-50684047D01*
X106384888Y-50682380D01*
X106392287Y-50687423D01*
G37*
%TD.AperFunction*%
%TD*%
%TA.AperFunction,Conductor*%
%TO.N,+3.3V*%
G36*
X124091774Y-35548896D02*
G01*
X124261095Y-35688095D01*
X124477689Y-35866158D01*
X124481795Y-35873243D01*
X124521190Y-36105968D01*
X124519192Y-36114697D01*
X124511607Y-36119457D01*
X124506427Y-36119167D01*
X124329458Y-36068380D01*
X123938170Y-35956088D01*
X123931163Y-35950512D01*
X123929710Y-35944286D01*
X123941941Y-35688093D01*
X123945354Y-35680381D01*
X124076074Y-35549661D01*
X124084346Y-35546235D01*
X124091774Y-35548896D01*
G37*
%TD.AperFunction*%
%TD*%
%TA.AperFunction,Conductor*%
%TO.N,+3.3V*%
G36*
X114261904Y-53881941D02*
G01*
X114269619Y-53885355D01*
X114400337Y-54016073D01*
X114403764Y-54024346D01*
X114401102Y-54031776D01*
X114083841Y-54417689D01*
X114076756Y-54421795D01*
X113844031Y-54461190D01*
X113835302Y-54459192D01*
X113830542Y-54451607D01*
X113830831Y-54446432D01*
X113993910Y-53878168D01*
X113999486Y-53871163D01*
X114005712Y-53869710D01*
X114261904Y-53881941D01*
G37*
%TD.AperFunction*%
%TD*%
%TA.AperFunction,Conductor*%
%TO.N,/SWCLK*%
G36*
X122015324Y-37231844D02*
G01*
X122020900Y-37238851D01*
X122021190Y-37244031D01*
X121981795Y-37476756D01*
X121977689Y-37483841D01*
X121591776Y-37801102D01*
X121583209Y-37803709D01*
X121576073Y-37800337D01*
X121445355Y-37669619D01*
X121441941Y-37661904D01*
X121433440Y-37483841D01*
X121429710Y-37405712D01*
X121432739Y-37397287D01*
X121438168Y-37393911D01*
X122006429Y-37230832D01*
X122015324Y-37231844D01*
G37*
%TD.AperFunction*%
%TD*%
%TA.AperFunction,Conductor*%
%TO.N,/CAN_TX*%
G36*
X109640978Y-49368289D02*
G01*
X109647304Y-49374627D01*
X109647295Y-49383582D01*
X109644763Y-49387367D01*
X109621776Y-49410354D01*
X109487363Y-49544766D01*
X109479090Y-49548193D01*
X109472290Y-49546014D01*
X109240392Y-49380373D01*
X109235651Y-49372775D01*
X109236356Y-49366439D01*
X109289847Y-49235198D01*
X109296143Y-49228831D01*
X109305098Y-49228780D01*
X109640978Y-49368289D01*
G37*
%TD.AperFunction*%
%TD*%
%TA.AperFunction,Conductor*%
%TO.N,/USART1_RX*%
G36*
X106975297Y-41425890D02*
G01*
X106977629Y-41426856D01*
X106983393Y-41432010D01*
X106983753Y-41432662D01*
X106984924Y-41435742D01*
X107025954Y-41617593D01*
X107026241Y-41620073D01*
X107026261Y-41622529D01*
X107026015Y-41625012D01*
X106894428Y-42256273D01*
X106892644Y-42260471D01*
X106891935Y-42261512D01*
X106884446Y-42266421D01*
X106875679Y-42264596D01*
X106875643Y-42264571D01*
X106875532Y-42264494D01*
X106875505Y-42264475D01*
X106870784Y-42257295D01*
X106738983Y-41625012D01*
X106738737Y-41622529D01*
X106738757Y-41620066D01*
X106739043Y-41617600D01*
X106779929Y-41436392D01*
X106781783Y-41432223D01*
X106783240Y-41430159D01*
X106789553Y-41425665D01*
X106790270Y-41425458D01*
X106793515Y-41424999D01*
X106970819Y-41424999D01*
X106975297Y-41425890D01*
G37*
%TD.AperFunction*%
%TD*%
%TA.AperFunction,Conductor*%
%TO.N,/OSC+*%
G36*
X104389318Y-50685399D02*
G01*
X104389381Y-50685442D01*
X104389467Y-50685502D01*
X104389494Y-50685521D01*
X104394215Y-50692701D01*
X104526015Y-51324984D01*
X104526261Y-51327467D01*
X104526241Y-51329923D01*
X104525954Y-51332403D01*
X104485071Y-51513602D01*
X104483216Y-51517774D01*
X104481759Y-51519838D01*
X104475465Y-51524327D01*
X104474749Y-51524535D01*
X104471485Y-51524999D01*
X104294181Y-51524999D01*
X104289701Y-51524107D01*
X104287368Y-51523140D01*
X104281606Y-51517987D01*
X104281246Y-51517335D01*
X104280076Y-51514259D01*
X104239043Y-51332397D01*
X104238757Y-51329928D01*
X104238737Y-51327463D01*
X104238983Y-51324984D01*
X104370571Y-50693723D01*
X104372355Y-50689525D01*
X104373065Y-50688483D01*
X104380553Y-50683575D01*
X104389318Y-50685399D01*
G37*
%TD.AperFunction*%
%TD*%
%TA.AperFunction,Conductor*%
%TO.N,5V*%
G36*
X116257581Y-34667301D02*
G01*
X116651654Y-34968845D01*
X116656142Y-34976594D01*
X116655845Y-34981167D01*
X116502324Y-35553830D01*
X116496872Y-35560933D01*
X116491023Y-35562500D01*
X116007978Y-35562500D01*
X115999705Y-35559073D01*
X115997086Y-35555073D01*
X115996598Y-35553830D01*
X115803015Y-35060363D01*
X115803184Y-35051411D01*
X115806230Y-35047262D01*
X116242795Y-34667762D01*
X116251287Y-34664922D01*
X116257581Y-34667301D01*
G37*
%TD.AperFunction*%
%TD*%
%TA.AperFunction,Conductor*%
%TO.N,/CAN_RX*%
G36*
X109987429Y-48581256D02*
G01*
X109989898Y-48581542D01*
X110077197Y-48601239D01*
X110171104Y-48622427D01*
X110175275Y-48624282D01*
X110177339Y-48625739D01*
X110181828Y-48632033D01*
X110182036Y-48632749D01*
X110182500Y-48636013D01*
X110182500Y-48813316D01*
X110181608Y-48817796D01*
X110180641Y-48820129D01*
X110175488Y-48825891D01*
X110174836Y-48826251D01*
X110171756Y-48827422D01*
X109989904Y-48868453D01*
X109987424Y-48868740D01*
X109984968Y-48868760D01*
X109982485Y-48868514D01*
X109457716Y-48759126D01*
X109351222Y-48736926D01*
X109347019Y-48735139D01*
X109345978Y-48734429D01*
X109341076Y-48726937D01*
X109342730Y-48718437D01*
X109342748Y-48718409D01*
X109350104Y-48713303D01*
X109982488Y-48581481D01*
X109984964Y-48581236D01*
X109987429Y-48581256D01*
G37*
%TD.AperFunction*%
%TD*%
%TA.AperFunction,Conductor*%
%TO.N,GND*%
G36*
X105079933Y-56607297D02*
G01*
X105079933Y-56687499D01*
X104785067Y-56626657D01*
X105079933Y-56487499D01*
X105079933Y-56607297D01*
G37*
%TD.AperFunction*%
%TD*%
%TA.AperFunction,Conductor*%
%TO.N,GND*%
G36*
X105679933Y-56487499D02*
G01*
X105679933Y-56687499D01*
X105197305Y-56864663D01*
X105078933Y-56587499D01*
X105197305Y-56310335D01*
X105679933Y-56487499D01*
G37*
%TD.AperFunction*%
%TD*%
%TA.AperFunction,Conductor*%
%TO.N,GND*%
G36*
X105086067Y-56587499D02*
G01*
X104967695Y-56864663D01*
X104485067Y-56687499D01*
X104485067Y-56487499D01*
X104967695Y-56310335D01*
X105086067Y-56587499D01*
G37*
%TD.AperFunction*%
%TD*%
%TA.AperFunction,Conductor*%
%TO.N,/OSC+*%
G36*
X106770779Y-54144758D02*
G01*
X106773639Y-54145783D01*
X106780271Y-54151800D01*
X106780276Y-54151810D01*
X106913007Y-54433497D01*
X106914110Y-54437926D01*
X106914208Y-54439977D01*
X106911485Y-54448054D01*
X106910569Y-54449146D01*
X106907422Y-54451778D01*
X106219796Y-54845800D01*
X106215465Y-54847254D01*
X106212818Y-54847593D01*
X106205470Y-54846113D01*
X106205014Y-54845849D01*
X106202603Y-54843997D01*
X106074022Y-54715416D01*
X106071487Y-54711623D01*
X106069983Y-54707992D01*
X106069125Y-54702669D01*
X106087876Y-54445372D01*
X106088741Y-54433497D01*
X106106578Y-54188748D01*
X106107788Y-54184358D01*
X106108775Y-54182393D01*
X106114876Y-54176787D01*
X106116030Y-54176326D01*
X106119799Y-54175505D01*
X106766264Y-54144086D01*
X106770779Y-54144758D01*
G37*
%TD.AperFunction*%
%TD*%
%TA.AperFunction,Conductor*%
%TO.N,/CAN_TX*%
G36*
X112791446Y-56587544D02*
G01*
X113116953Y-56693878D01*
X113123753Y-56699705D01*
X113124442Y-56708633D01*
X113118615Y-56715433D01*
X113116953Y-56716122D01*
X112272061Y-56992123D01*
X112263362Y-56991547D01*
X111881634Y-56808186D01*
X111875660Y-56801515D01*
X111875000Y-56797640D01*
X111875000Y-56612359D01*
X111878427Y-56604086D01*
X111881632Y-56601814D01*
X112263362Y-56418451D01*
X112272060Y-56417876D01*
X112791446Y-56587544D01*
G37*
%TD.AperFunction*%
%TD*%
%TA.AperFunction,Conductor*%
%TO.N,GND*%
G36*
X102109664Y-56472694D02*
G01*
X101832500Y-56591066D01*
X101555336Y-56472694D01*
X101732500Y-55990066D01*
X101932500Y-55990066D01*
X102109664Y-56472694D01*
G37*
%TD.AperFunction*%
%TD*%
%TA.AperFunction,Conductor*%
%TO.N,+3.3V*%
G36*
X105975297Y-49750890D02*
G01*
X105977629Y-49751856D01*
X105983393Y-49757010D01*
X105983753Y-49757662D01*
X105984924Y-49760742D01*
X106025954Y-49942593D01*
X106026241Y-49945073D01*
X106026261Y-49947529D01*
X106026015Y-49950012D01*
X105894428Y-50581273D01*
X105892644Y-50585471D01*
X105891935Y-50586512D01*
X105884446Y-50591421D01*
X105875679Y-50589596D01*
X105875643Y-50589571D01*
X105875532Y-50589494D01*
X105875505Y-50589475D01*
X105870784Y-50582295D01*
X105738983Y-49950012D01*
X105738737Y-49947529D01*
X105738757Y-49945066D01*
X105739043Y-49942600D01*
X105779929Y-49761392D01*
X105781783Y-49757223D01*
X105783240Y-49755159D01*
X105789553Y-49750665D01*
X105790270Y-49750458D01*
X105793515Y-49749999D01*
X105970819Y-49749999D01*
X105975297Y-49750890D01*
G37*
%TD.AperFunction*%
%TD*%
%TA.AperFunction,Conductor*%
%TO.N,GND*%
G36*
X99582500Y-54237499D02*
G01*
X99432500Y-54496307D01*
X99282500Y-54537499D01*
X99332500Y-54194343D01*
X99532500Y-54194343D01*
X99582500Y-54237499D01*
G37*
%TD.AperFunction*%
%TD*%
%TA.AperFunction,Conductor*%
%TO.N,/NRST*%
G36*
X100260673Y-38180322D02*
G01*
X101093457Y-38621533D01*
X101099164Y-38628435D01*
X101099668Y-38632396D01*
X101089111Y-38867949D01*
X101085696Y-38875698D01*
X100953146Y-39008248D01*
X100944873Y-39011675D01*
X100940161Y-39010684D01*
X100074062Y-38629601D01*
X100067870Y-38623133D01*
X100067955Y-38614436D01*
X100244384Y-38186206D01*
X100250704Y-38179863D01*
X100259659Y-38179846D01*
X100260673Y-38180322D01*
G37*
%TD.AperFunction*%
%TD*%
%TA.AperFunction,Conductor*%
%TO.N,+3.3V*%
G36*
X114056781Y-38631759D02*
G01*
X114342685Y-38916713D01*
X114346126Y-38924981D01*
X114342713Y-38933259D01*
X114342685Y-38933287D01*
X114056781Y-39218240D01*
X114048503Y-39221653D01*
X114042032Y-39219688D01*
X113755210Y-39028473D01*
X113750227Y-39021033D01*
X113750000Y-39018738D01*
X113750000Y-38831261D01*
X113753427Y-38822988D01*
X113755205Y-38821529D01*
X114042034Y-38630310D01*
X114050817Y-38628573D01*
X114056781Y-38631759D01*
G37*
%TD.AperFunction*%
%TD*%
%TA.AperFunction,Conductor*%
%TO.N,5V*%
G36*
X109405152Y-36103427D02*
G01*
X109408579Y-36111700D01*
X109408579Y-36536482D01*
X109410935Y-36540008D01*
X109409189Y-36548791D01*
X109408615Y-36549577D01*
X109408580Y-36549619D01*
X109408579Y-36549625D01*
X109408579Y-36588300D01*
X109405152Y-36596573D01*
X109396879Y-36600000D01*
X109368453Y-36600000D01*
X109155473Y-36867392D01*
X109147638Y-36871729D01*
X109141874Y-36870925D01*
X108859169Y-36754764D01*
X108852819Y-36748450D01*
X108852433Y-36740501D01*
X109032153Y-36156439D01*
X109037861Y-36149542D01*
X109046776Y-36148699D01*
X109051608Y-36151609D01*
X109073222Y-36173223D01*
X109073223Y-36173223D01*
X109247849Y-36100891D01*
X109252326Y-36100000D01*
X109396879Y-36100000D01*
X109405152Y-36103427D01*
G37*
%TD.AperFunction*%
%TD*%
%TA.AperFunction,Conductor*%
%TO.N,+3.3V*%
G36*
X105475297Y-49750890D02*
G01*
X105477629Y-49751856D01*
X105483393Y-49757010D01*
X105483753Y-49757662D01*
X105484924Y-49760742D01*
X105525954Y-49942593D01*
X105526241Y-49945073D01*
X105526261Y-49947529D01*
X105526015Y-49950012D01*
X105394428Y-50581273D01*
X105392644Y-50585471D01*
X105391935Y-50586512D01*
X105384446Y-50591421D01*
X105375679Y-50589596D01*
X105375643Y-50589571D01*
X105375532Y-50589494D01*
X105375505Y-50589475D01*
X105370784Y-50582295D01*
X105238983Y-49950012D01*
X105238737Y-49947529D01*
X105238757Y-49945066D01*
X105239043Y-49942600D01*
X105279929Y-49761392D01*
X105281783Y-49757223D01*
X105283240Y-49755159D01*
X105289553Y-49750665D01*
X105290270Y-49750458D01*
X105293515Y-49749999D01*
X105470819Y-49749999D01*
X105475297Y-49750890D01*
G37*
%TD.AperFunction*%
%TD*%
%TA.AperFunction,Conductor*%
%TO.N,GND*%
G36*
X107607132Y-56062867D02*
G01*
X107485199Y-56215198D01*
X107130039Y-56134302D01*
X106989518Y-55860938D01*
X107130939Y-55719517D01*
X107607132Y-56062867D01*
G37*
%TD.AperFunction*%
%TD*%
%TA.AperFunction,Conductor*%
%TO.N,+3.3V*%
G36*
X124235675Y-36702108D02*
G01*
X124235935Y-36702737D01*
X124512056Y-37428393D01*
X124512154Y-37436448D01*
X124377755Y-37817194D01*
X124371770Y-37823855D01*
X124366722Y-37825000D01*
X124083278Y-37825000D01*
X124075005Y-37821573D01*
X124072245Y-37817194D01*
X124027042Y-37689138D01*
X123937845Y-37436445D01*
X123937942Y-37428395D01*
X124214065Y-36702736D01*
X124220210Y-36696223D01*
X124229161Y-36695963D01*
X124235675Y-36702108D01*
G37*
%TD.AperFunction*%
%TD*%
%TA.AperFunction,Conductor*%
%TO.N,/OSC+*%
G36*
X105266337Y-54999394D02*
G01*
X105267741Y-55000353D01*
X105271025Y-55003752D01*
X105482497Y-55337495D01*
X105482499Y-55337498D01*
X105482500Y-55337499D01*
X105684937Y-55095532D01*
X105688487Y-55092676D01*
X105690071Y-55091848D01*
X105698984Y-55091056D01*
X105700264Y-55091457D01*
X105705033Y-55094347D01*
X105826134Y-55215448D01*
X105828670Y-55219242D01*
X105829352Y-55220888D01*
X105829353Y-55229843D01*
X105829351Y-55229848D01*
X105828669Y-55231493D01*
X105826134Y-55235285D01*
X105555671Y-55505748D01*
X105553896Y-55507204D01*
X105552014Y-55508461D01*
X105549993Y-55509541D01*
X105482501Y-55537497D01*
X105482497Y-55537501D01*
X105271066Y-55871180D01*
X105267916Y-55874486D01*
X105266458Y-55875512D01*
X105257720Y-55877470D01*
X105257128Y-55877368D01*
X105256047Y-55877180D01*
X105251652Y-55875447D01*
X104598434Y-55448564D01*
X104595175Y-55445373D01*
X104594170Y-55443903D01*
X104592330Y-55435142D01*
X104592422Y-55434652D01*
X104597323Y-55427159D01*
X104597455Y-55427071D01*
X105251592Y-54999588D01*
X105255823Y-54997886D01*
X105257575Y-54997557D01*
X105266337Y-54999394D01*
G37*
%TD.AperFunction*%
%TD*%
%TA.AperFunction,Conductor*%
%TO.N,5V*%
G36*
X108564366Y-35565437D02*
G01*
X108965356Y-35897617D01*
X108969196Y-35903610D01*
X109117521Y-36459349D01*
X109116344Y-36468226D01*
X109109234Y-36473670D01*
X109103282Y-36473692D01*
X108553652Y-36331241D01*
X108547588Y-36327392D01*
X108209428Y-35920399D01*
X108206777Y-35911846D01*
X108210153Y-35904650D01*
X108548630Y-35566173D01*
X108556902Y-35562747D01*
X108564366Y-35565437D01*
G37*
%TD.AperFunction*%
%TD*%
%TA.AperFunction,Conductor*%
%TO.N,/NRST*%
G36*
X102729327Y-39722826D02*
G01*
X102923858Y-39975000D01*
X102994748Y-40066895D01*
X102997088Y-40075538D01*
X102993798Y-40082273D01*
X102612104Y-40467796D01*
X102603848Y-40471264D01*
X102596826Y-40468965D01*
X102204736Y-40178508D01*
X102200128Y-40170830D01*
X102200000Y-40169107D01*
X102200000Y-39982254D01*
X102203427Y-39973981D01*
X102206495Y-39971776D01*
X102714862Y-39719491D01*
X102723796Y-39718884D01*
X102729327Y-39722826D01*
G37*
%TD.AperFunction*%
%TD*%
%TA.AperFunction,Conductor*%
%TO.N,/SWDIO*%
G36*
X107475297Y-41425890D02*
G01*
X107477629Y-41426856D01*
X107483393Y-41432010D01*
X107483753Y-41432662D01*
X107484924Y-41435742D01*
X107525954Y-41617593D01*
X107526241Y-41620073D01*
X107526261Y-41622529D01*
X107526015Y-41625012D01*
X107394428Y-42256273D01*
X107392644Y-42260471D01*
X107391935Y-42261512D01*
X107384446Y-42266421D01*
X107375679Y-42264596D01*
X107375643Y-42264571D01*
X107375532Y-42264494D01*
X107375505Y-42264475D01*
X107370784Y-42257295D01*
X107238983Y-41625012D01*
X107238737Y-41622529D01*
X107238757Y-41620066D01*
X107239043Y-41617600D01*
X107279929Y-41436392D01*
X107281783Y-41432223D01*
X107283240Y-41430159D01*
X107289553Y-41425665D01*
X107290270Y-41425458D01*
X107293515Y-41424999D01*
X107470819Y-41424999D01*
X107475297Y-41425890D01*
G37*
%TD.AperFunction*%
%TD*%
%TA.AperFunction,Conductor*%
%TO.N,/OSC-*%
G36*
X100750543Y-53584225D02*
G01*
X100754025Y-53585516D01*
X101324532Y-53907994D01*
X101327989Y-53910971D01*
X101330016Y-53913563D01*
X101332500Y-53920770D01*
X101332500Y-54103345D01*
X101331609Y-54107823D01*
X101330350Y-54110862D01*
X101325298Y-54116569D01*
X100754416Y-54439259D01*
X100750081Y-54440687D01*
X100747818Y-54440964D01*
X100739890Y-54439075D01*
X100738966Y-54438456D01*
X100736247Y-54435926D01*
X100413525Y-54021521D01*
X100411480Y-54017449D01*
X100410785Y-54014927D01*
X100411254Y-54007344D01*
X100411494Y-54006765D01*
X100413066Y-54004066D01*
X100735976Y-53589418D01*
X100739421Y-53586440D01*
X100741410Y-53585311D01*
X100749449Y-53584009D01*
X100750543Y-53584225D01*
G37*
%TD.AperFunction*%
%TD*%
%TA.AperFunction,Conductor*%
%TO.N,/NRST*%
G36*
X101707132Y-39630606D02*
G01*
X102269368Y-39971584D01*
X102274664Y-39978803D01*
X102275000Y-39981587D01*
X102275000Y-40168412D01*
X102271573Y-40176685D01*
X102269367Y-40178416D01*
X101707133Y-40519392D01*
X101698282Y-40520752D01*
X101691570Y-40516223D01*
X101589041Y-40373773D01*
X101378918Y-40081834D01*
X101376867Y-40073118D01*
X101378919Y-40068165D01*
X101691570Y-39633775D01*
X101699184Y-39629063D01*
X101707132Y-39630606D01*
G37*
%TD.AperFunction*%
%TD*%
%TA.AperFunction,Conductor*%
%TO.N,+3.3V*%
G36*
X107030543Y-51964455D02*
G01*
X107036233Y-51971369D01*
X107035368Y-51980282D01*
X107033315Y-51983054D01*
X106929102Y-52087267D01*
X106920829Y-52090694D01*
X106919295Y-52090593D01*
X106753561Y-52068679D01*
X106745809Y-52064197D01*
X106743496Y-52055546D01*
X106747978Y-52047794D01*
X106751680Y-52045890D01*
X107021631Y-51963590D01*
X107030543Y-51964455D01*
G37*
%TD.AperFunction*%
%TD*%
%TA.AperFunction,Conductor*%
%TO.N,+3.3V*%
G36*
X107268684Y-51911833D02*
G01*
X107276702Y-51915134D01*
X107277819Y-51916218D01*
X107280286Y-51919696D01*
X107458339Y-52304285D01*
X107486294Y-52364665D01*
X107487367Y-52369105D01*
X107487487Y-52372050D01*
X107485686Y-52378779D01*
X107485643Y-52378847D01*
X107484027Y-52380867D01*
X107356703Y-52508191D01*
X107352906Y-52510728D01*
X107350184Y-52511855D01*
X107343247Y-52512483D01*
X107343168Y-52512466D01*
X107340714Y-52511645D01*
X106894932Y-52305262D01*
X106891244Y-52302575D01*
X106889915Y-52301132D01*
X106886821Y-52293034D01*
X106886844Y-52291476D01*
X106887684Y-52287299D01*
X106992294Y-52026726D01*
X106994785Y-52022908D01*
X106997713Y-52019916D01*
X107001706Y-52017247D01*
X107262245Y-51912652D01*
X107266724Y-51911812D01*
X107268684Y-51911833D01*
G37*
%TD.AperFunction*%
%TD*%
%TA.AperFunction,Conductor*%
%TO.N,+3.3V*%
G36*
X106652028Y-51532463D02*
G01*
X106654364Y-51533257D01*
X106673806Y-51542257D01*
X106674588Y-51542657D01*
X106675394Y-51543109D01*
X106676138Y-51543566D01*
X106700005Y-51559514D01*
X106717373Y-51562968D01*
X106718712Y-51563318D01*
X106720031Y-51563748D01*
X106721320Y-51564255D01*
X107100156Y-51739644D01*
X107103845Y-51742333D01*
X107105171Y-51743772D01*
X107108266Y-51751873D01*
X107108243Y-51753426D01*
X107107402Y-51757612D01*
X107002795Y-52018177D01*
X107000301Y-52022000D01*
X106997381Y-52024985D01*
X106993376Y-52027661D01*
X106732847Y-52132253D01*
X106728362Y-52133094D01*
X106726406Y-52133073D01*
X106718385Y-52129771D01*
X106717268Y-52128687D01*
X106714802Y-52125209D01*
X106508794Y-51680237D01*
X106507721Y-51675799D01*
X106507601Y-51672857D01*
X106509402Y-51666127D01*
X106509445Y-51666059D01*
X106511057Y-51664044D01*
X106638388Y-51536712D01*
X106642178Y-51534179D01*
X106644904Y-51533050D01*
X106651949Y-51532446D01*
X106652028Y-51532463D01*
G37*
%TD.AperFunction*%
%TD*%
%TA.AperFunction,Conductor*%
%TO.N,+3.3V*%
G36*
X112994889Y-38497092D02*
G01*
X113569058Y-38821641D01*
X113574573Y-38828694D01*
X113575000Y-38831825D01*
X113575000Y-39018174D01*
X113571573Y-39026447D01*
X113569057Y-39028359D01*
X112994890Y-39352906D01*
X112986002Y-39353994D01*
X112979903Y-39349911D01*
X112654597Y-38932188D01*
X112652218Y-38923556D01*
X112654597Y-38917812D01*
X112979904Y-38500087D01*
X112987689Y-38495667D01*
X112994889Y-38497092D01*
G37*
%TD.AperFunction*%
%TD*%
%TA.AperFunction,Conductor*%
%TO.N,GND*%
G36*
X100657500Y-52737499D02*
G01*
X100744073Y-52609505D01*
X100885494Y-52750926D01*
X100728211Y-52908210D01*
X100657500Y-52937499D01*
X100465128Y-53075505D01*
X100278933Y-52837499D01*
X100465128Y-52599493D01*
X100657500Y-52737499D01*
G37*
%TD.AperFunction*%
%TD*%
%TA.AperFunction,Conductor*%
%TO.N,+3.3V*%
G36*
X112326144Y-53865488D02*
G01*
X112328453Y-53865762D01*
X112705078Y-53948976D01*
X113105568Y-54037462D01*
X113109746Y-54039296D01*
X113110781Y-54040020D01*
X113115595Y-54047571D01*
X113113680Y-54056286D01*
X113113534Y-54056496D01*
X113107387Y-54060994D01*
X112188938Y-54345186D01*
X112184397Y-54345659D01*
X112180575Y-54345304D01*
X112175263Y-54343452D01*
X111882255Y-54152234D01*
X111878991Y-54149040D01*
X111877042Y-54146190D01*
X111875000Y-54139586D01*
X111875000Y-53959576D01*
X111875890Y-53955100D01*
X111876806Y-53952888D01*
X111882174Y-53947008D01*
X111883011Y-53946569D01*
X111886334Y-53945421D01*
X112321535Y-53865635D01*
X112323838Y-53865446D01*
X112326144Y-53865488D01*
G37*
%TD.AperFunction*%
%TD*%
%TA.AperFunction,Conductor*%
%TO.N,5V*%
G36*
X116497801Y-35640927D02*
G01*
X116501156Y-35647908D01*
X116549572Y-36083650D01*
X116548046Y-36090844D01*
X116260102Y-36583708D01*
X116252970Y-36589123D01*
X116244098Y-36587908D01*
X116239898Y-36583708D01*
X116124720Y-36386562D01*
X115951952Y-36090842D01*
X115950427Y-36083652D01*
X115998844Y-35647908D01*
X116003163Y-35640064D01*
X116010472Y-35637500D01*
X116489528Y-35637500D01*
X116497801Y-35640927D01*
G37*
%TD.AperFunction*%
%TD*%
%TA.AperFunction,Conductor*%
%TO.N,+3.3V*%
G36*
X117224208Y-52608577D02*
G01*
X117741446Y-52777544D01*
X118064742Y-52883155D01*
X118068720Y-52885392D01*
X118069676Y-52886211D01*
X118073729Y-52894196D01*
X118070949Y-52902708D01*
X118070946Y-52902712D01*
X118070573Y-52903147D01*
X118065324Y-52906653D01*
X117224208Y-53181421D01*
X117219802Y-53181973D01*
X117215617Y-53181696D01*
X117211324Y-53180568D01*
X116833731Y-52999193D01*
X116830081Y-52996452D01*
X116827984Y-52994110D01*
X116825000Y-52986305D01*
X116825000Y-52804686D01*
X116825890Y-52800211D01*
X116826221Y-52799410D01*
X116827094Y-52797303D01*
X116832834Y-52791236D01*
X117211322Y-52609430D01*
X117215614Y-52608302D01*
X117219804Y-52608025D01*
X117224208Y-52608577D01*
G37*
%TD.AperFunction*%
%TD*%
%TA.AperFunction,Conductor*%
%TO.N,GND*%
G36*
X101260022Y-52234977D02*
G01*
X101372305Y-52514663D01*
X100905762Y-52730658D01*
X100764341Y-52589237D01*
X100980336Y-52122694D01*
X101260022Y-52234977D01*
G37*
%TD.AperFunction*%
%TD*%
%TA.AperFunction,Conductor*%
%TO.N,GND*%
G36*
X107707500Y-53656169D02*
G01*
X107570000Y-54003678D01*
X107370000Y-54003678D01*
X107232500Y-53412499D01*
X107470000Y-53402678D01*
X107707500Y-53656169D01*
G37*
%TD.AperFunction*%
%TD*%
%TA.AperFunction,Conductor*%
%TO.N,GND*%
G36*
X107045754Y-55261790D02*
G01*
X107045915Y-55262091D01*
X107442468Y-56027384D01*
X107443232Y-56036306D01*
X107440353Y-56041040D01*
X107309664Y-56171729D01*
X107301391Y-56175156D01*
X107298567Y-56174810D01*
X106655983Y-56014956D01*
X106648781Y-56009633D01*
X106647171Y-56002375D01*
X106706155Y-55442836D01*
X106710431Y-55434970D01*
X106712102Y-55433841D01*
X107029843Y-55257246D01*
X107038739Y-55256224D01*
X107045754Y-55261790D01*
G37*
%TD.AperFunction*%
%TD*%
%TA.AperFunction,Conductor*%
%TO.N,5V*%
G36*
X114498309Y-35640927D02*
G01*
X114501587Y-35647337D01*
X114549433Y-35943934D01*
X114548515Y-35950678D01*
X114253130Y-36594181D01*
X114246564Y-36600270D01*
X114242497Y-36601000D01*
X114061108Y-36601000D01*
X114052835Y-36597573D01*
X114049424Y-36589906D01*
X114000639Y-35649806D01*
X114003632Y-35641367D01*
X114011717Y-35637516D01*
X114012323Y-35637500D01*
X114490036Y-35637500D01*
X114498309Y-35640927D01*
G37*
%TD.AperFunction*%
%TD*%
%TA.AperFunction,Conductor*%
%TO.N,5V*%
G36*
X114826975Y-34183755D02*
G01*
X115467195Y-34409744D01*
X115473855Y-34415729D01*
X115475000Y-34420777D01*
X115475000Y-34904222D01*
X115471573Y-34912495D01*
X115467194Y-34915255D01*
X114826978Y-35141243D01*
X114818036Y-35140765D01*
X114815552Y-35139163D01*
X114259641Y-34671453D01*
X114255516Y-34663504D01*
X114258220Y-34654968D01*
X114259641Y-34653547D01*
X114815553Y-34185835D01*
X114824088Y-34183132D01*
X114826975Y-34183755D01*
G37*
%TD.AperFunction*%
%TD*%
%TA.AperFunction,Conductor*%
%TO.N,/OSC-*%
G36*
X103917393Y-50690342D02*
G01*
X103919105Y-50694597D01*
X104031800Y-51296266D01*
X104032000Y-51298420D01*
X104032000Y-51303998D01*
X104031932Y-51305253D01*
X104009350Y-51514554D01*
X104005056Y-51522412D01*
X103997718Y-51524999D01*
X103816970Y-51524999D01*
X103808697Y-51521572D01*
X103805748Y-51516610D01*
X103794485Y-51478440D01*
X103759053Y-51358356D01*
X103758823Y-51352664D01*
X103896152Y-50694361D01*
X103901196Y-50686963D01*
X103909994Y-50685298D01*
X103917393Y-50690342D01*
G37*
%TD.AperFunction*%
%TD*%
%TA.AperFunction,Conductor*%
%TO.N,+3.3V*%
G36*
X125453574Y-39032981D02*
G01*
X126248538Y-39371769D01*
X126421469Y-39445467D01*
X126427736Y-39451863D01*
X126427699Y-39460689D01*
X126228775Y-39943263D01*
X126222454Y-39949606D01*
X126217658Y-39950500D01*
X125508837Y-39932332D01*
X125500655Y-39928694D01*
X125497804Y-39923543D01*
X125306541Y-39177768D01*
X125307805Y-39168902D01*
X125309597Y-39166592D01*
X125440718Y-39035471D01*
X125448990Y-39032045D01*
X125453574Y-39032981D01*
G37*
%TD.AperFunction*%
%TD*%
%TA.AperFunction,Conductor*%
%TO.N,+3.3V*%
G36*
X105976759Y-50993861D02*
G01*
X105977509Y-50994171D01*
X105979554Y-50995018D01*
X105985887Y-51001348D01*
X105985926Y-51001442D01*
X106128590Y-51354223D01*
X106129443Y-51358707D01*
X106129418Y-51361680D01*
X106127277Y-51368329D01*
X106127253Y-51368363D01*
X106125617Y-51370225D01*
X105887664Y-51589216D01*
X105883852Y-51591561D01*
X105879895Y-51593046D01*
X105875481Y-51593788D01*
X105649445Y-51587937D01*
X105644991Y-51586930D01*
X105643362Y-51586205D01*
X105637197Y-51579710D01*
X105636874Y-51578870D01*
X105636455Y-51571820D01*
X105687532Y-51369377D01*
X105779701Y-51004062D01*
X105781656Y-50999944D01*
X105783216Y-50997848D01*
X105789495Y-50993555D01*
X105790096Y-50993389D01*
X105793197Y-50992971D01*
X105972284Y-50992971D01*
X105976759Y-50993861D01*
G37*
%TD.AperFunction*%
%TD*%
%TA.AperFunction,Conductor*%
%TO.N,+3.3V*%
G36*
X104335323Y-40177427D02*
G01*
X104336007Y-40178173D01*
X104726178Y-40642477D01*
X104728877Y-40651015D01*
X104726182Y-40657526D01*
X104436007Y-41003227D01*
X104428064Y-41007361D01*
X104427046Y-41007405D01*
X104244448Y-41007405D01*
X104236175Y-41003978D01*
X104232748Y-40995705D01*
X104232751Y-40995459D01*
X104239847Y-40657526D01*
X104249759Y-40185452D01*
X104253358Y-40177255D01*
X104261456Y-40174000D01*
X104327050Y-40174000D01*
X104335323Y-40177427D01*
G37*
%TD.AperFunction*%
%TD*%
%TA.AperFunction,Conductor*%
%TO.N,+3.3V*%
G36*
X108295117Y-53378596D02*
G01*
X108295950Y-53378940D01*
X108296762Y-53379277D01*
X108303095Y-53385607D01*
X108303444Y-53386449D01*
X108304066Y-53393426D01*
X108278211Y-53511778D01*
X108278210Y-53511788D01*
X108278210Y-53511868D01*
X108278342Y-53512020D01*
X108279730Y-53512207D01*
X108546562Y-53585717D01*
X108791572Y-53653215D01*
X108946404Y-53695870D01*
X108950482Y-53697916D01*
X108951888Y-53699010D01*
X108956313Y-53706795D01*
X108956313Y-53706798D01*
X108956462Y-53707994D01*
X108955670Y-53713897D01*
X108778621Y-54143632D01*
X108776091Y-54147433D01*
X108773311Y-54150223D01*
X108768767Y-54153050D01*
X108314244Y-54306583D01*
X108309718Y-54307172D01*
X108307941Y-54307053D01*
X108299916Y-54303081D01*
X108299018Y-54302054D01*
X108296473Y-54297173D01*
X108136789Y-53653211D01*
X108108830Y-53585712D01*
X108108167Y-53583528D01*
X108107723Y-53581299D01*
X108107500Y-53579020D01*
X108107500Y-53391733D01*
X108108389Y-53387260D01*
X108108725Y-53386449D01*
X108109071Y-53385612D01*
X108115396Y-53379281D01*
X108116969Y-53378629D01*
X108117054Y-53378595D01*
X108121527Y-53377706D01*
X108290642Y-53377706D01*
X108295117Y-53378596D01*
G37*
%TD.AperFunction*%
%TD*%
%TA.AperFunction,Conductor*%
%TO.N,/CAN+*%
G36*
X122674337Y-55138982D02*
G01*
X123395087Y-55413237D01*
X123398952Y-55415660D01*
X123399869Y-55416525D01*
X123403536Y-55424695D01*
X123400357Y-55433059D01*
X123399706Y-55433750D01*
X123395351Y-55436662D01*
X122674467Y-55710966D01*
X122669965Y-55711726D01*
X122665817Y-55711605D01*
X122661092Y-55710456D01*
X122283731Y-55529193D01*
X122280081Y-55526452D01*
X122277984Y-55524110D01*
X122275000Y-55516305D01*
X122275000Y-55334686D01*
X122275890Y-55330211D01*
X122276221Y-55329410D01*
X122277094Y-55327303D01*
X122282834Y-55321236D01*
X122660973Y-55139598D01*
X122665386Y-55138465D01*
X122669535Y-55138236D01*
X122674337Y-55138982D01*
G37*
%TD.AperFunction*%
%TD*%
%TA.AperFunction,Conductor*%
%TO.N,GND*%
G36*
X102429933Y-56487499D02*
G01*
X102429933Y-56687499D01*
X101947305Y-56864663D01*
X101828933Y-56587499D01*
X101947305Y-56310335D01*
X102429933Y-56487499D01*
G37*
%TD.AperFunction*%
%TD*%
%TA.AperFunction,Conductor*%
%TO.N,GND*%
G36*
X104961686Y-51500076D02*
G01*
X104968672Y-51503266D01*
X105004839Y-51528376D01*
X105086289Y-51609826D01*
X105198470Y-51664668D01*
X105198737Y-51664912D01*
X105199469Y-51665162D01*
X105199564Y-51665209D01*
X105202637Y-51665787D01*
X105207756Y-51666158D01*
X105238524Y-51670641D01*
X105272370Y-51680648D01*
X105286574Y-51687167D01*
X105339292Y-51733020D01*
X105339292Y-51733021D01*
X105347022Y-51745099D01*
X105362356Y-51779848D01*
X105369671Y-51807148D01*
X105373861Y-51842196D01*
X105373549Y-51855291D01*
X105352273Y-51921842D01*
X105298394Y-51966326D01*
X105234799Y-51975452D01*
X105225814Y-51974373D01*
X105197158Y-51967400D01*
X104880257Y-51848868D01*
X104849297Y-51831925D01*
X104836792Y-51822546D01*
X104794972Y-51766574D01*
X104794970Y-51766569D01*
X104790777Y-51755294D01*
X104783000Y-51712072D01*
X104783000Y-51623728D01*
X104788021Y-51588801D01*
X104791207Y-51577948D01*
X104828977Y-51519167D01*
X104892531Y-51490138D01*
X104961686Y-51500076D01*
G37*
%TD.AperFunction*%
%TA.AperFunction,Conductor*%
G36*
X123049846Y-35255521D02*
G01*
X123075090Y-35262934D01*
X123127836Y-35294230D01*
X123584678Y-35751072D01*
X123605830Y-35779328D01*
X123612967Y-35792399D01*
X123627993Y-35857735D01*
X123625627Y-35907310D01*
X123625228Y-35912963D01*
X123624500Y-35920730D01*
X123624500Y-37429269D01*
X123625005Y-37434650D01*
X123626812Y-37453929D01*
X123626978Y-37457499D01*
X123627352Y-37459701D01*
X123641716Y-37500747D01*
X123647018Y-37521501D01*
X123649762Y-37538123D01*
X123649765Y-37538134D01*
X123691021Y-37655010D01*
X123732689Y-37773056D01*
X123738963Y-37790828D01*
X123767429Y-37871469D01*
X123774500Y-37912744D01*
X123774500Y-39144204D01*
X123769476Y-39179141D01*
X123762064Y-39204382D01*
X123730769Y-39257126D01*
X115802716Y-47185179D01*
X115802715Y-47185181D01*
X115798388Y-47189508D01*
X115798385Y-47189510D01*
X115749370Y-47238524D01*
X115713440Y-47274453D01*
X115687761Y-47294157D01*
X115660447Y-47309927D01*
X115630543Y-47322314D01*
X115601112Y-47330200D01*
X115600304Y-47330547D01*
X115583570Y-47336340D01*
X115550229Y-47345274D01*
X115518137Y-47349500D01*
X110474830Y-47349500D01*
X110439889Y-47344475D01*
X110424890Y-47340070D01*
X110366144Y-47302327D01*
X110364957Y-47300958D01*
X110337477Y-47246083D01*
X110335832Y-47238521D01*
X110333000Y-47212168D01*
X110333000Y-47114368D01*
X110333000Y-47114367D01*
X110333000Y-47114363D01*
X110322366Y-47041374D01*
X110322364Y-47041370D01*
X110322364Y-47041368D01*
X110319523Y-47032172D01*
X110320031Y-47032015D01*
X110313541Y-47011888D01*
X110309610Y-46988870D01*
X110312869Y-46933042D01*
X110313585Y-46930605D01*
X110321161Y-46911088D01*
X110322366Y-46908624D01*
X110333000Y-46835635D01*
X110333000Y-46614363D01*
X110322366Y-46541374D01*
X110322364Y-46541370D01*
X110322364Y-46541368D01*
X110319523Y-46532172D01*
X110320031Y-46532015D01*
X110313541Y-46511888D01*
X110309610Y-46488870D01*
X110312869Y-46433042D01*
X110313585Y-46430605D01*
X110321161Y-46411088D01*
X110322366Y-46408624D01*
X110333000Y-46335635D01*
X110333000Y-46114363D01*
X110322366Y-46041374D01*
X110322364Y-46041370D01*
X110322364Y-46041368D01*
X110319523Y-46032172D01*
X110320031Y-46032015D01*
X110313541Y-46011888D01*
X110309610Y-45988870D01*
X110312869Y-45933042D01*
X110313037Y-45932472D01*
X110313585Y-45930605D01*
X110321161Y-45911088D01*
X110322366Y-45908624D01*
X110333000Y-45835635D01*
X110333000Y-45614363D01*
X110322366Y-45541374D01*
X110322364Y-45541370D01*
X110322364Y-45541368D01*
X110319523Y-45532172D01*
X110320031Y-45532015D01*
X110313541Y-45511888D01*
X110309610Y-45488870D01*
X110312869Y-45433042D01*
X110313585Y-45430605D01*
X110321161Y-45411088D01*
X110322366Y-45408624D01*
X110333000Y-45335635D01*
X110333000Y-45114363D01*
X110322366Y-45041374D01*
X110322364Y-45041370D01*
X110322364Y-45041368D01*
X110319523Y-45032172D01*
X110320031Y-45032015D01*
X110313541Y-45011888D01*
X110309610Y-44988870D01*
X110312869Y-44933042D01*
X110313585Y-44930605D01*
X110321161Y-44911088D01*
X110322366Y-44908624D01*
X110333000Y-44835635D01*
X110333000Y-44614363D01*
X110322366Y-44541374D01*
X110322364Y-44541370D01*
X110322364Y-44541368D01*
X110319523Y-44532172D01*
X110320031Y-44532015D01*
X110313541Y-44511888D01*
X110309610Y-44488870D01*
X110312869Y-44433042D01*
X110313585Y-44430605D01*
X110321161Y-44411088D01*
X110322366Y-44408624D01*
X110333000Y-44335635D01*
X110333000Y-44114363D01*
X110322366Y-44041374D01*
X110322364Y-44041370D01*
X110322364Y-44041368D01*
X110319523Y-44032172D01*
X110320031Y-44032015D01*
X110313541Y-44011888D01*
X110309610Y-43988870D01*
X110312869Y-43933042D01*
X110313585Y-43930605D01*
X110321161Y-43911088D01*
X110322366Y-43908624D01*
X110333000Y-43835635D01*
X110333000Y-43614363D01*
X110322366Y-43541374D01*
X110320018Y-43536571D01*
X110267327Y-43428788D01*
X110267325Y-43428786D01*
X110267325Y-43428785D01*
X110178712Y-43340172D01*
X110102197Y-43302767D01*
X110066576Y-43285353D01*
X110066135Y-43285134D01*
X110062149Y-43284193D01*
X110057237Y-43283838D01*
X110047867Y-43282473D01*
X109993136Y-43274499D01*
X109993131Y-43274499D01*
X108596863Y-43274499D01*
X108542121Y-43282474D01*
X108542120Y-43282473D01*
X108523872Y-43285132D01*
X108470149Y-43311397D01*
X108436550Y-43322230D01*
X108425400Y-43324133D01*
X108356004Y-43316007D01*
X108302018Y-43271654D01*
X108280581Y-43205176D01*
X108280481Y-43201345D01*
X108293035Y-43143619D01*
X108322366Y-43083624D01*
X108333000Y-43010635D01*
X108333000Y-42854828D01*
X108338023Y-42819892D01*
X108342427Y-42804894D01*
X108380172Y-42746143D01*
X108381541Y-42744956D01*
X108436420Y-42717476D01*
X108443979Y-42715832D01*
X108470332Y-42712999D01*
X116990225Y-42712999D01*
X116990227Y-42712999D01*
X117092088Y-42685706D01*
X117183413Y-42632979D01*
X121758902Y-38057486D01*
X121781286Y-38040672D01*
X121781039Y-38040308D01*
X121785776Y-38037096D01*
X121785784Y-38037092D01*
X122171697Y-37719831D01*
X122171701Y-37719825D01*
X122175649Y-37715941D01*
X122175808Y-37716102D01*
X122192138Y-37700848D01*
X122197150Y-37697150D01*
X122235811Y-37644764D01*
X122241046Y-37638157D01*
X122242009Y-37637024D01*
X122242012Y-37637019D01*
X122245147Y-37632575D01*
X122247857Y-37628442D01*
X122277793Y-37587882D01*
X122306963Y-37504520D01*
X122322646Y-37459701D01*
X122322647Y-37459699D01*
X122323020Y-37457497D01*
X122323188Y-37453919D01*
X122325500Y-37429270D01*
X122325500Y-37243141D01*
X122325694Y-37236213D01*
X122326212Y-37226954D01*
X122325922Y-37221774D01*
X122325920Y-37221766D01*
X122325708Y-37217964D01*
X122325912Y-37217952D01*
X122325500Y-37210908D01*
X122325500Y-35920728D01*
X122323188Y-35896079D01*
X122323020Y-35892501D01*
X122322645Y-35890297D01*
X122317003Y-35874171D01*
X122281419Y-35772479D01*
X122277794Y-35762121D01*
X122277793Y-35762118D01*
X122268210Y-35749134D01*
X122197150Y-35652850D01*
X122087882Y-35572207D01*
X122087880Y-35572206D01*
X121959704Y-35527354D01*
X121959702Y-35527353D01*
X121959700Y-35527353D01*
X121929270Y-35524500D01*
X121929266Y-35524500D01*
X121929264Y-35524500D01*
X121520734Y-35524500D01*
X121520730Y-35524500D01*
X121502074Y-35526249D01*
X121496069Y-35526812D01*
X121492499Y-35526978D01*
X121490297Y-35527353D01*
X121362118Y-35572206D01*
X121252852Y-35652847D01*
X121252851Y-35652849D01*
X121210356Y-35710426D01*
X121185577Y-35735544D01*
X121174523Y-35743938D01*
X121109228Y-35768804D01*
X121040855Y-35754422D01*
X121040846Y-35754417D01*
X121034339Y-35750921D01*
X120993256Y-35715322D01*
X120984321Y-35703215D01*
X120947150Y-35652850D01*
X120837882Y-35572207D01*
X120837880Y-35572206D01*
X120709704Y-35527354D01*
X120709702Y-35527353D01*
X120709700Y-35527353D01*
X120679270Y-35524500D01*
X120679266Y-35524500D01*
X120679264Y-35524500D01*
X120334085Y-35524500D01*
X120299150Y-35519477D01*
X120288296Y-35516290D01*
X120229518Y-35478516D01*
X120200493Y-35414960D01*
X120210433Y-35345811D01*
X120213623Y-35338824D01*
X120238732Y-35302660D01*
X120241969Y-35299423D01*
X120270219Y-35278275D01*
X120293311Y-35265667D01*
X120352736Y-35250500D01*
X123014914Y-35250500D01*
X123049846Y-35255521D01*
G37*
%TD.AperFunction*%
%TA.AperFunction,Conductor*%
G36*
X127947279Y-31025618D02*
G01*
X127952691Y-31025854D01*
X127958084Y-31026207D01*
X127985720Y-31028625D01*
X128107370Y-31039268D01*
X128118080Y-31040678D01*
X128128699Y-31042550D01*
X128139251Y-31044888D01*
X128251187Y-31074882D01*
X128276152Y-31081571D01*
X128286445Y-31084816D01*
X128296603Y-31088514D01*
X128306589Y-31092651D01*
X128435003Y-31152532D01*
X128444596Y-31157526D01*
X128453946Y-31162924D01*
X128463057Y-31168727D01*
X128579154Y-31250019D01*
X128587727Y-31256598D01*
X128595992Y-31263533D01*
X128603968Y-31270842D01*
X128704155Y-31371029D01*
X128711464Y-31379005D01*
X128718399Y-31387270D01*
X128724980Y-31395846D01*
X128806266Y-31511934D01*
X128812073Y-31521051D01*
X128817471Y-31530401D01*
X128822465Y-31539994D01*
X128882346Y-31668408D01*
X128886484Y-31678396D01*
X128890174Y-31688534D01*
X128890176Y-31688538D01*
X128893431Y-31698862D01*
X128930105Y-31835734D01*
X128932447Y-31846297D01*
X128934319Y-31856915D01*
X128935730Y-31867637D01*
X128948790Y-32016906D01*
X128949143Y-32022284D01*
X128949380Y-32027691D01*
X128949499Y-32033121D01*
X128949499Y-58316878D01*
X128949380Y-58322309D01*
X128949143Y-58327715D01*
X128948790Y-58333092D01*
X128935730Y-58482361D01*
X128934319Y-58493083D01*
X128932447Y-58503701D01*
X128930105Y-58514264D01*
X128893431Y-58651136D01*
X128890176Y-58661460D01*
X128886484Y-58671602D01*
X128882346Y-58681590D01*
X128822465Y-58810004D01*
X128817471Y-58819597D01*
X128812073Y-58828947D01*
X128806260Y-58838073D01*
X128724984Y-58954147D01*
X128718399Y-58962728D01*
X128711464Y-58970993D01*
X128704155Y-58978969D01*
X128603968Y-59079156D01*
X128595992Y-59086465D01*
X128587727Y-59093400D01*
X128579146Y-59099985D01*
X128463072Y-59181261D01*
X128453946Y-59187074D01*
X128444596Y-59192472D01*
X128435003Y-59197466D01*
X128306589Y-59257347D01*
X128296601Y-59261485D01*
X128286459Y-59265177D01*
X128276135Y-59268432D01*
X128139263Y-59305106D01*
X128128700Y-59307448D01*
X128118082Y-59309320D01*
X128107360Y-59310731D01*
X127958092Y-59323791D01*
X127952715Y-59324144D01*
X127947309Y-59324381D01*
X127941878Y-59324500D01*
X99258120Y-59324500D01*
X99252690Y-59324381D01*
X99247283Y-59324144D01*
X99241905Y-59323791D01*
X99092636Y-59310731D01*
X99081914Y-59309320D01*
X99080094Y-59308999D01*
X99071292Y-59307447D01*
X99060733Y-59305106D01*
X98923861Y-59268432D01*
X98913544Y-59265179D01*
X98907651Y-59263034D01*
X98903395Y-59261485D01*
X98893407Y-59257347D01*
X98764993Y-59197466D01*
X98755400Y-59192472D01*
X98746050Y-59187074D01*
X98736933Y-59181267D01*
X98620845Y-59099981D01*
X98612269Y-59093400D01*
X98604004Y-59086465D01*
X98596028Y-59079156D01*
X98495841Y-58978969D01*
X98488532Y-58970993D01*
X98481597Y-58962728D01*
X98475018Y-58954155D01*
X98393726Y-58838058D01*
X98387923Y-58828947D01*
X98382525Y-58819597D01*
X98377531Y-58810004D01*
X98317650Y-58681590D01*
X98313512Y-58671602D01*
X98309813Y-58661439D01*
X98306570Y-58651153D01*
X98269886Y-58514245D01*
X98267554Y-58503728D01*
X98265672Y-58493054D01*
X98264266Y-58482361D01*
X98251207Y-58333093D01*
X98250853Y-58327690D01*
X98250617Y-58322280D01*
X98250499Y-58316876D01*
X98250499Y-37680131D01*
X99099500Y-37680131D01*
X99099500Y-37682828D01*
X99099500Y-38669849D01*
X99099502Y-38669885D01*
X99102414Y-38694993D01*
X99102546Y-38695438D01*
X99103609Y-38697696D01*
X99138441Y-38776584D01*
X99147793Y-38797764D01*
X99147794Y-38797765D01*
X99227235Y-38877206D01*
X99330009Y-38922585D01*
X99355135Y-38925500D01*
X99961927Y-38925499D01*
X100011866Y-38935999D01*
X100724947Y-39249755D01*
X100730250Y-39252088D01*
X100783684Y-39297105D01*
X100804298Y-39363864D01*
X100785547Y-39431171D01*
X100778255Y-39441631D01*
X100755720Y-39470655D01*
X100755714Y-39470664D01*
X100750853Y-39479492D01*
X100741040Y-39494598D01*
X100687636Y-39565021D01*
X100634639Y-39699412D01*
X100631326Y-39727011D01*
X100629065Y-39745841D01*
X100624500Y-39783856D01*
X100624500Y-40366144D01*
X100628023Y-40395479D01*
X100628023Y-40395480D01*
X100634639Y-40450586D01*
X100675660Y-40554610D01*
X100677625Y-40559948D01*
X100681140Y-40570221D01*
X100683489Y-40575450D01*
X100683351Y-40575511D01*
X100686537Y-40582192D01*
X100687632Y-40584969D01*
X100687638Y-40584980D01*
X100689844Y-40587889D01*
X100698985Y-40601792D01*
X100958448Y-41060813D01*
X100974500Y-41121830D01*
X100974500Y-42807362D01*
X100974500Y-42912816D01*
X101000709Y-43010629D01*
X101000710Y-43010634D01*
X101001793Y-43014677D01*
X101001795Y-43014682D01*
X101035501Y-43073063D01*
X101048616Y-43105821D01*
X101051888Y-43119305D01*
X101048567Y-43189096D01*
X101008042Y-43246012D01*
X101008025Y-43246026D01*
X101006748Y-43247030D01*
X100953584Y-43271307D01*
X100948662Y-43272256D01*
X100925186Y-43274499D01*
X100271864Y-43274499D01*
X100217133Y-43282473D01*
X100207763Y-43283838D01*
X100202849Y-43284193D01*
X100198861Y-43285135D01*
X100198420Y-43285354D01*
X100086286Y-43340172D01*
X99997673Y-43428785D01*
X99942855Y-43540919D01*
X99942636Y-43541360D01*
X99941694Y-43545348D01*
X99941339Y-43550262D01*
X99932000Y-43614363D01*
X99932000Y-43835635D01*
X99942634Y-43908624D01*
X99942635Y-43908629D01*
X99945477Y-43917826D01*
X99944968Y-43917983D01*
X99951460Y-43938115D01*
X99955390Y-43961136D01*
X99952131Y-44016952D01*
X99951416Y-44019386D01*
X99943850Y-44038885D01*
X99942635Y-44041370D01*
X99942634Y-44041372D01*
X99942634Y-44041374D01*
X99932000Y-44114363D01*
X99932000Y-44335635D01*
X99932513Y-44339153D01*
X99941339Y-44399734D01*
X99941686Y-44404528D01*
X99944367Y-44416119D01*
X99951460Y-44438115D01*
X99955390Y-44461135D01*
X99952131Y-44516952D01*
X99951416Y-44519386D01*
X99943850Y-44538885D01*
X99942635Y-44541370D01*
X99942634Y-44541372D01*
X99942634Y-44541374D01*
X99932000Y-44614363D01*
X99932000Y-44835635D01*
X99942634Y-44908624D01*
X99942635Y-44908629D01*
X99945477Y-44917826D01*
X99944968Y-44917983D01*
X99951460Y-44938115D01*
X99955390Y-44961136D01*
X99952131Y-45016952D01*
X99951416Y-45019386D01*
X99943850Y-45038885D01*
X99942635Y-45041370D01*
X99942634Y-45041372D01*
X99942634Y-45041374D01*
X99932000Y-45114363D01*
X99932000Y-45335635D01*
X99942634Y-45408624D01*
X99942635Y-45408629D01*
X99945477Y-45417826D01*
X99944968Y-45417983D01*
X99951460Y-45438115D01*
X99955390Y-45461136D01*
X99952131Y-45516952D01*
X99951416Y-45519386D01*
X99943850Y-45538885D01*
X99942635Y-45541370D01*
X99942634Y-45541372D01*
X99942634Y-45541374D01*
X99932000Y-45614363D01*
X99932000Y-45835635D01*
X99939010Y-45883750D01*
X99942221Y-45905790D01*
X99942634Y-45908623D01*
X99945476Y-45917818D01*
X99944966Y-45917975D01*
X99951460Y-45938115D01*
X99955390Y-45961137D01*
X99952131Y-46016952D01*
X99951416Y-46019386D01*
X99943850Y-46038885D01*
X99942635Y-46041370D01*
X99942634Y-46041372D01*
X99942634Y-46041374D01*
X99932000Y-46114363D01*
X99932000Y-46335635D01*
X99941339Y-46399735D01*
X99941694Y-46404648D01*
X99942635Y-46408634D01*
X99942855Y-46409077D01*
X99997673Y-46521211D01*
X100086287Y-46609825D01*
X100094648Y-46615795D01*
X100094017Y-46616677D01*
X100107163Y-46625618D01*
X100116286Y-46633953D01*
X100152499Y-46693702D01*
X100150661Y-46763547D01*
X100113849Y-46819206D01*
X100107922Y-46824342D01*
X100092739Y-46833720D01*
X99997672Y-46928787D01*
X99942855Y-47040919D01*
X99942636Y-47041360D01*
X99941694Y-47045348D01*
X99941339Y-47050262D01*
X99932000Y-47114363D01*
X99932000Y-47335635D01*
X99941872Y-47403392D01*
X99942634Y-47408624D01*
X99942634Y-47408625D01*
X99942635Y-47408627D01*
X99945477Y-47417825D01*
X99944968Y-47417982D01*
X99951460Y-47438115D01*
X99955390Y-47461137D01*
X99952131Y-47516952D01*
X99951416Y-47519386D01*
X99943850Y-47538885D01*
X99942635Y-47541370D01*
X99942634Y-47541372D01*
X99942634Y-47541374D01*
X99932000Y-47614363D01*
X99932000Y-47835635D01*
X99934536Y-47853045D01*
X99937621Y-47874221D01*
X99942633Y-47908622D01*
X99945478Y-47917829D01*
X99944969Y-47917986D01*
X99951459Y-47938116D01*
X99955389Y-47961135D01*
X99952131Y-48016952D01*
X99951416Y-48019386D01*
X99943850Y-48038885D01*
X99942635Y-48041370D01*
X99942634Y-48041372D01*
X99942634Y-48041374D01*
X99932000Y-48114363D01*
X99932000Y-48335635D01*
X99938739Y-48381887D01*
X99942634Y-48408624D01*
X99942635Y-48408626D01*
X99945478Y-48417828D01*
X99944969Y-48417985D01*
X99951460Y-48438115D01*
X99955390Y-48461136D01*
X99952131Y-48516952D01*
X99951416Y-48519386D01*
X99943850Y-48538885D01*
X99942636Y-48541369D01*
X99942634Y-48541374D01*
X99932000Y-48614363D01*
X99932000Y-48835635D01*
X99937241Y-48871604D01*
X99937241Y-48871617D01*
X99942633Y-48908621D01*
X99945478Y-48917828D01*
X99944969Y-48917985D01*
X99951460Y-48938115D01*
X99955390Y-48961136D01*
X99952131Y-49016952D01*
X99951416Y-49019386D01*
X99943850Y-49038885D01*
X99942635Y-49041370D01*
X99942634Y-49041372D01*
X99942634Y-49041374D01*
X99932000Y-49114363D01*
X99932000Y-49335635D01*
X99938888Y-49382911D01*
X99941339Y-49399735D01*
X99941694Y-49404648D01*
X99942635Y-49408634D01*
X99942855Y-49409077D01*
X99997673Y-49521211D01*
X100086286Y-49609824D01*
X100086287Y-49609824D01*
X100086289Y-49609826D01*
X100173956Y-49652683D01*
X100198875Y-49664865D01*
X100271864Y-49675499D01*
X100271870Y-49675499D01*
X101668130Y-49675499D01*
X101668136Y-49675499D01*
X101741125Y-49664865D01*
X101794857Y-49638596D01*
X101828443Y-49627767D01*
X101839591Y-49625864D01*
X101908987Y-49633985D01*
X101962976Y-49678335D01*
X101984417Y-49744824D01*
X101984518Y-49748651D01*
X101971961Y-49806383D01*
X101942633Y-49866371D01*
X101941686Y-49870467D01*
X101941339Y-49875262D01*
X101932000Y-49939363D01*
X101932000Y-51335635D01*
X101941339Y-51399735D01*
X101941694Y-51404648D01*
X101942635Y-51408634D01*
X101942855Y-51409077D01*
X101997673Y-51521211D01*
X102086286Y-51609824D01*
X102086287Y-51609824D01*
X102086289Y-51609826D01*
X102194072Y-51662517D01*
X102194071Y-51662517D01*
X102198470Y-51664667D01*
X102198875Y-51664865D01*
X102271864Y-51675499D01*
X102271870Y-51675499D01*
X102312343Y-51675499D01*
X102347270Y-51680520D01*
X102358123Y-51683706D01*
X102416904Y-51721476D01*
X102445933Y-51785030D01*
X102435994Y-51854189D01*
X102435993Y-51854191D01*
X102432808Y-51861166D01*
X102407697Y-51897336D01*
X102399137Y-51905897D01*
X102399127Y-51905907D01*
X102388571Y-51916461D01*
X102388561Y-51916473D01*
X102385704Y-51921022D01*
X102364988Y-51946007D01*
X102341798Y-51967493D01*
X102315309Y-51986246D01*
X99607486Y-53412505D01*
X99182500Y-53637497D01*
X99182499Y-53637499D01*
X99182499Y-53637501D01*
X99157499Y-56837471D01*
X99157499Y-56842476D01*
X99172888Y-56845514D01*
X99182649Y-56840184D01*
X99208651Y-56837351D01*
X107689305Y-56812769D01*
X107782500Y-56812499D01*
X107815240Y-54676648D01*
X107820797Y-54641803D01*
X107823454Y-54633242D01*
X107862127Y-54575054D01*
X107926122Y-54547010D01*
X107995119Y-54558016D01*
X108043611Y-54599106D01*
X108046552Y-54603326D01*
X108060174Y-54628735D01*
X108062635Y-54634975D01*
X108067807Y-54641795D01*
X108149920Y-54750078D01*
X108203598Y-54790783D01*
X108258272Y-54832243D01*
X108261468Y-54835031D01*
X108261484Y-54835041D01*
X108264760Y-54837353D01*
X108267965Y-54838524D01*
X108353380Y-54872207D01*
X108399410Y-54890359D01*
X108483856Y-54900500D01*
X108483862Y-54900500D01*
X109066138Y-54900500D01*
X109066144Y-54900500D01*
X109150590Y-54890359D01*
X109196620Y-54872207D01*
X109213425Y-54865579D01*
X109247760Y-54857437D01*
X109261587Y-54856189D01*
X109330124Y-54869766D01*
X109380436Y-54918233D01*
X109383200Y-54923077D01*
X109399500Y-54984531D01*
X109399500Y-56227729D01*
X109426791Y-56329586D01*
X109434025Y-56342116D01*
X109453156Y-56375250D01*
X109479520Y-56420913D01*
X110084087Y-57025480D01*
X110175412Y-57078207D01*
X110277273Y-57105500D01*
X110382727Y-57105500D01*
X111766788Y-57105500D01*
X111820477Y-57117725D01*
X112131086Y-57266925D01*
X112134422Y-57268503D01*
X112160318Y-57275140D01*
X112170472Y-57278213D01*
X112201872Y-57289199D01*
X112240299Y-57302646D01*
X112240301Y-57302646D01*
X112240303Y-57302647D01*
X112258742Y-57304375D01*
X112270730Y-57305500D01*
X112270734Y-57305500D01*
X112270739Y-57305500D01*
X114029270Y-57305500D01*
X114029271Y-57305500D01*
X114053920Y-57303188D01*
X114057498Y-57303020D01*
X114059699Y-57302646D01*
X114059701Y-57302646D01*
X114123790Y-57280219D01*
X114187882Y-57257793D01*
X114297150Y-57177150D01*
X114377793Y-57067882D01*
X114400219Y-57003790D01*
X114422646Y-56939701D01*
X114422646Y-56939699D01*
X114423020Y-56937499D01*
X114423188Y-56933919D01*
X114425500Y-56909270D01*
X114425500Y-56500728D01*
X114423188Y-56476079D01*
X114423020Y-56472502D01*
X114422646Y-56470300D01*
X114422646Y-56470298D01*
X114377793Y-56342119D01*
X114377792Y-56342117D01*
X114377792Y-56342116D01*
X114368549Y-56329594D01*
X114368546Y-56329588D01*
X114368546Y-56329589D01*
X114323225Y-56268181D01*
X114297150Y-56232850D01*
X114187882Y-56152207D01*
X114187880Y-56152206D01*
X114161774Y-56143071D01*
X114059704Y-56107354D01*
X114059702Y-56107353D01*
X114059700Y-56107353D01*
X114029270Y-56104500D01*
X114029266Y-56104500D01*
X114029264Y-56104500D01*
X112270734Y-56104500D01*
X112270730Y-56104500D01*
X112252074Y-56106249D01*
X112246069Y-56106812D01*
X112242498Y-56106978D01*
X112240298Y-56107352D01*
X112166337Y-56133233D01*
X112157627Y-56135925D01*
X112131088Y-56143071D01*
X112131083Y-56143073D01*
X111820474Y-56292274D01*
X111766784Y-56304500D01*
X110565085Y-56304500D01*
X110530149Y-56299477D01*
X110504907Y-56292065D01*
X110452162Y-56260769D01*
X110249426Y-56058033D01*
X110228274Y-56029777D01*
X110215667Y-56006688D01*
X110200500Y-55947263D01*
X110200500Y-54960292D01*
X110205523Y-54925358D01*
X110209067Y-54913288D01*
X110246841Y-54854509D01*
X110310396Y-54825484D01*
X110375852Y-54833809D01*
X110384872Y-54837578D01*
X110411990Y-54853188D01*
X110483270Y-54907242D01*
X110486469Y-54910031D01*
X110486482Y-54910040D01*
X110489758Y-54912353D01*
X110492969Y-54913525D01*
X110624410Y-54965359D01*
X110708856Y-54975500D01*
X110708862Y-54975500D01*
X111291138Y-54975500D01*
X111291144Y-54975500D01*
X111375590Y-54965359D01*
X111509975Y-54912364D01*
X111625078Y-54825078D01*
X111712364Y-54709975D01*
X111712368Y-54709963D01*
X111715982Y-54703539D01*
X111748925Y-54665673D01*
X111824325Y-54608234D01*
X111889580Y-54583270D01*
X111957975Y-54597547D01*
X111974589Y-54611021D01*
X111991880Y-54622287D01*
X112002848Y-54637148D01*
X112002849Y-54637148D01*
X112002850Y-54637150D01*
X112112118Y-54717793D01*
X112154845Y-54732744D01*
X112220955Y-54755877D01*
X112240299Y-54762646D01*
X112240303Y-54762647D01*
X112258742Y-54764375D01*
X112270730Y-54765500D01*
X112270734Y-54765500D01*
X112270739Y-54765500D01*
X114029270Y-54765500D01*
X114029271Y-54765500D01*
X114053920Y-54763188D01*
X114057498Y-54763020D01*
X114059699Y-54762646D01*
X114059701Y-54762646D01*
X114123790Y-54740219D01*
X114187882Y-54717793D01*
X114187884Y-54717791D01*
X114187887Y-54717790D01*
X114221127Y-54693256D01*
X114228438Y-54687860D01*
X114232570Y-54685151D01*
X114237019Y-54682012D01*
X114237019Y-54682011D01*
X114237024Y-54682009D01*
X114238157Y-54681046D01*
X114244764Y-54675811D01*
X114297150Y-54637150D01*
X114300848Y-54632138D01*
X114316102Y-54615808D01*
X114315941Y-54615649D01*
X114319825Y-54611701D01*
X114319831Y-54611697D01*
X114637092Y-54225784D01*
X114637299Y-54225417D01*
X114637756Y-54224818D01*
X114640119Y-54221380D01*
X114640286Y-54221494D01*
X114657474Y-54198915D01*
X115511968Y-53344423D01*
X115540218Y-53323275D01*
X115563310Y-53310667D01*
X115622735Y-53295500D01*
X116287710Y-53295500D01*
X116287773Y-53295501D01*
X116410323Y-53295501D01*
X116412227Y-53295501D01*
X116412290Y-53295500D01*
X116716788Y-53295500D01*
X116770477Y-53307725D01*
X116993408Y-53414809D01*
X117010182Y-53422866D01*
X117062088Y-53469637D01*
X117080469Y-53537045D01*
X117065703Y-53593367D01*
X117064449Y-53595699D01*
X117028882Y-53636734D01*
X117015919Y-53646303D01*
X117014975Y-53647000D01*
X116972885Y-53678063D01*
X116952848Y-53692851D01*
X116952847Y-53692852D01*
X116872206Y-53802118D01*
X116827353Y-53930297D01*
X116826978Y-53932499D01*
X116826812Y-53936069D01*
X116824500Y-53960733D01*
X116824500Y-54369265D01*
X116826812Y-54393929D01*
X116826978Y-54397499D01*
X116827352Y-54399701D01*
X116844252Y-54447995D01*
X116862657Y-54500590D01*
X116872207Y-54527882D01*
X116952850Y-54637150D01*
X117023980Y-54689645D01*
X117049103Y-54714431D01*
X117057496Y-54725486D01*
X117082355Y-54790783D01*
X117067970Y-54859147D01*
X117064475Y-54865653D01*
X117028874Y-54906741D01*
X116980476Y-54942461D01*
X116980473Y-54942463D01*
X116952850Y-54962848D01*
X116872206Y-55072118D01*
X116827353Y-55200297D01*
X116826978Y-55202499D01*
X116826812Y-55206069D01*
X116824500Y-55230733D01*
X116824500Y-55639265D01*
X116826812Y-55663929D01*
X116826978Y-55667499D01*
X116827353Y-55669699D01*
X116827353Y-55669701D01*
X116872206Y-55797880D01*
X116872207Y-55797882D01*
X116952850Y-55907150D01*
X117057118Y-55984103D01*
X117062118Y-55987793D01*
X117190299Y-56032646D01*
X117190303Y-56032647D01*
X117208742Y-56034375D01*
X117220730Y-56035500D01*
X117220734Y-56035500D01*
X117220739Y-56035500D01*
X118979270Y-56035500D01*
X118979271Y-56035500D01*
X119003920Y-56033188D01*
X119007497Y-56033020D01*
X119009695Y-56032647D01*
X119009697Y-56032646D01*
X119009699Y-56032646D01*
X119009701Y-56032646D01*
X119036630Y-56023222D01*
X119057641Y-56017879D01*
X119062017Y-56017167D01*
X119066310Y-56016039D01*
X119120950Y-55995946D01*
X119429521Y-55847725D01*
X119483211Y-55835500D01*
X119615226Y-55835500D01*
X119615228Y-55835500D01*
X119717089Y-55808207D01*
X119808414Y-55755480D01*
X120089471Y-55474420D01*
X120117721Y-55453273D01*
X120140811Y-55440665D01*
X120200235Y-55425500D01*
X121514914Y-55425500D01*
X121549846Y-55430521D01*
X121575090Y-55437934D01*
X121627836Y-55469230D01*
X121829518Y-55670912D01*
X121829519Y-55670913D01*
X121904086Y-55745480D01*
X121995412Y-55798207D01*
X122097272Y-55825500D01*
X122166789Y-55825500D01*
X122220478Y-55837725D01*
X122528816Y-55985834D01*
X122588906Y-56007305D01*
X122593631Y-56008454D01*
X122593657Y-56008457D01*
X122596820Y-56009054D01*
X122596741Y-56009468D01*
X122615470Y-56013958D01*
X122631680Y-56019630D01*
X122640299Y-56022646D01*
X122640304Y-56022646D01*
X122640307Y-56022647D01*
X122651892Y-56023733D01*
X122670730Y-56025500D01*
X122670734Y-56025500D01*
X122670739Y-56025500D01*
X124179270Y-56025500D01*
X124179271Y-56025500D01*
X124203920Y-56023188D01*
X124207498Y-56023020D01*
X124209699Y-56022646D01*
X124209701Y-56022646D01*
X124273790Y-56000219D01*
X124337882Y-55977793D01*
X124447150Y-55897150D01*
X124527793Y-55787882D01*
X124550219Y-55723790D01*
X124572646Y-55659701D01*
X124572646Y-55659699D01*
X124573020Y-55657499D01*
X124573188Y-55653919D01*
X124575500Y-55629270D01*
X124575500Y-55220728D01*
X124573188Y-55196079D01*
X124573020Y-55192502D01*
X124572646Y-55190300D01*
X124572646Y-55190298D01*
X124527793Y-55062119D01*
X124527792Y-55062117D01*
X124507410Y-55034500D01*
X124453354Y-54961256D01*
X124448961Y-54954117D01*
X124444130Y-54950310D01*
X124442425Y-54948875D01*
X124438543Y-54946497D01*
X124389574Y-54910357D01*
X124364448Y-54885571D01*
X124356055Y-54874517D01*
X124331193Y-54809220D01*
X124345577Y-54740854D01*
X124349076Y-54734341D01*
X124384677Y-54693256D01*
X124391981Y-54687865D01*
X124395371Y-54685363D01*
X124447150Y-54647150D01*
X124527793Y-54537882D01*
X124540842Y-54500590D01*
X124559245Y-54448000D01*
X124559245Y-54447997D01*
X124572646Y-54409701D01*
X124572646Y-54409699D01*
X124573020Y-54407499D01*
X124573188Y-54403919D01*
X124575500Y-54379270D01*
X124575500Y-53970728D01*
X124573188Y-53946079D01*
X124573020Y-53942502D01*
X124572646Y-53940300D01*
X124572646Y-53940298D01*
X124527793Y-53812119D01*
X124527792Y-53812117D01*
X124520414Y-53802120D01*
X124520413Y-53802119D01*
X124520412Y-53802118D01*
X124483626Y-53752274D01*
X124447150Y-53702850D01*
X124337882Y-53622207D01*
X124337880Y-53622206D01*
X124320448Y-53616106D01*
X124209704Y-53577354D01*
X124209702Y-53577353D01*
X124209700Y-53577353D01*
X124179270Y-53574500D01*
X124179266Y-53574500D01*
X124179264Y-53574500D01*
X122670734Y-53574500D01*
X122670730Y-53574500D01*
X122652074Y-53576249D01*
X122646069Y-53576812D01*
X122642500Y-53576978D01*
X122640296Y-53577353D01*
X122565547Y-53603508D01*
X122556838Y-53606200D01*
X122530798Y-53613212D01*
X122530785Y-53613216D01*
X122220474Y-53762274D01*
X122166784Y-53774500D01*
X122097272Y-53774500D01*
X121995414Y-53801792D01*
X121995412Y-53801793D01*
X121995409Y-53801794D01*
X121995407Y-53801794D01*
X121995396Y-53801800D01*
X121922160Y-53844082D01*
X121922152Y-53844089D01*
X121921467Y-53844485D01*
X121921408Y-53844519D01*
X121904086Y-53854520D01*
X121904080Y-53854524D01*
X121633032Y-54125573D01*
X121604781Y-54146722D01*
X121581693Y-54159330D01*
X121522263Y-54174500D01*
X120207585Y-54174500D01*
X120172649Y-54169477D01*
X120147407Y-54162065D01*
X120094663Y-54130770D01*
X119808414Y-53844520D01*
X119769817Y-53822235D01*
X119717090Y-53791793D01*
X119717089Y-53791792D01*
X119717086Y-53791791D01*
X119652550Y-53774500D01*
X119615229Y-53764500D01*
X119615228Y-53764500D01*
X119615227Y-53764500D01*
X119483214Y-53764500D01*
X119429524Y-53752274D01*
X119189817Y-53637132D01*
X119137911Y-53590361D01*
X119119530Y-53522952D01*
X119134258Y-53466701D01*
X119135511Y-53464367D01*
X119171126Y-53423257D01*
X119171656Y-53422866D01*
X119247150Y-53367150D01*
X119327793Y-53257882D01*
X119355156Y-53179682D01*
X119372646Y-53129701D01*
X119372646Y-53129699D01*
X119373020Y-53127499D01*
X119373188Y-53123919D01*
X119375500Y-53099270D01*
X119375500Y-52690728D01*
X119373188Y-52666079D01*
X119373020Y-52662502D01*
X119372646Y-52660300D01*
X119372646Y-52660298D01*
X119327793Y-52532119D01*
X119327792Y-52532117D01*
X119327792Y-52532116D01*
X119320175Y-52521796D01*
X119320174Y-52521795D01*
X119320172Y-52521792D01*
X119247150Y-52422850D01*
X119137882Y-52342207D01*
X119137880Y-52342206D01*
X119057171Y-52313964D01*
X119009704Y-52297354D01*
X119009702Y-52297353D01*
X119009700Y-52297353D01*
X118979270Y-52294500D01*
X118979266Y-52294500D01*
X118979264Y-52294500D01*
X117220734Y-52294500D01*
X117220730Y-52294500D01*
X117202074Y-52296249D01*
X117196069Y-52296812D01*
X117192498Y-52296978D01*
X117190296Y-52297353D01*
X117163372Y-52306774D01*
X117142376Y-52312115D01*
X117137973Y-52312832D01*
X117137972Y-52312833D01*
X117133666Y-52313964D01*
X117079052Y-52334049D01*
X117079046Y-52334051D01*
X116770473Y-52482274D01*
X116716783Y-52494500D01*
X116667330Y-52494500D01*
X116632389Y-52489475D01*
X116617390Y-52485070D01*
X116558644Y-52447327D01*
X116557457Y-52445958D01*
X116529977Y-52391083D01*
X116528332Y-52383521D01*
X116525500Y-52357168D01*
X116525500Y-47874221D01*
X118299500Y-47874221D01*
X118299500Y-48175770D01*
X118299501Y-48175799D01*
X118338859Y-48474755D01*
X118338860Y-48474760D01*
X118338861Y-48474766D01*
X118373633Y-48604535D01*
X118416912Y-48766058D01*
X118485070Y-48930605D01*
X118530952Y-49041374D01*
X118532032Y-49043980D01*
X118532292Y-49044618D01*
X118532316Y-49044668D01*
X118532318Y-49044671D01*
X118683099Y-49305831D01*
X118683100Y-49305832D01*
X118683102Y-49305835D01*
X118866672Y-49545070D01*
X118866676Y-49545075D01*
X118866679Y-49545078D01*
X118866685Y-49545085D01*
X119079914Y-49758314D01*
X119079921Y-49758320D01*
X119079924Y-49758322D01*
X119079928Y-49758326D01*
X119220740Y-49866374D01*
X119319168Y-49941900D01*
X119576892Y-50090697D01*
X119578633Y-50091779D01*
X119582095Y-50093702D01*
X119582683Y-50094042D01*
X119587828Y-50095787D01*
X119766072Y-50169619D01*
X119766071Y-50169619D01*
X119854881Y-50206405D01*
X119856710Y-50207240D01*
X119857194Y-50207424D01*
X119859584Y-50208372D01*
X119862842Y-50209132D01*
X120150232Y-50286138D01*
X120449217Y-50325500D01*
X120449224Y-50325500D01*
X120750776Y-50325500D01*
X120750783Y-50325500D01*
X121049768Y-50286138D01*
X121341058Y-50208087D01*
X121619668Y-50092683D01*
X121880832Y-49941900D01*
X122120080Y-49758319D01*
X122333319Y-49545080D01*
X122516900Y-49305832D01*
X122667683Y-49044668D01*
X122783087Y-48766058D01*
X122861138Y-48474768D01*
X122900500Y-48175783D01*
X122900500Y-47874217D01*
X122861138Y-47575232D01*
X122783087Y-47283942D01*
X122782517Y-47282567D01*
X122712847Y-47114368D01*
X122667683Y-47005332D01*
X122665445Y-47001456D01*
X122659748Y-46991588D01*
X122659746Y-46991586D01*
X122659744Y-46991583D01*
X122516900Y-46744168D01*
X122504694Y-46728261D01*
X122333326Y-46504928D01*
X122333322Y-46504924D01*
X122333320Y-46504921D01*
X122333314Y-46504914D01*
X122120085Y-46291685D01*
X122120078Y-46291679D01*
X122120075Y-46291676D01*
X122120070Y-46291672D01*
X121880835Y-46108102D01*
X121880834Y-46108101D01*
X121880831Y-46108099D01*
X121619671Y-45957318D01*
X121619672Y-45957318D01*
X121619668Y-45957316D01*
X121619618Y-45957292D01*
X121618980Y-45957032D01*
X121596979Y-45947919D01*
X121341060Y-45841913D01*
X121341061Y-45841913D01*
X121341058Y-45841912D01*
X121195413Y-45802887D01*
X121049766Y-45763861D01*
X121049760Y-45763860D01*
X121049755Y-45763859D01*
X120754883Y-45725039D01*
X120752867Y-45724705D01*
X120750793Y-45724500D01*
X120750788Y-45724500D01*
X120750783Y-45724500D01*
X120449217Y-45724500D01*
X120449211Y-45724500D01*
X120449206Y-45724500D01*
X120447129Y-45724705D01*
X120445115Y-45725039D01*
X120150243Y-45763859D01*
X120150236Y-45763860D01*
X120150233Y-45763861D01*
X120088673Y-45780355D01*
X119858940Y-45841912D01*
X119581018Y-45957032D01*
X119580388Y-45957288D01*
X119580330Y-45957316D01*
X119319163Y-46108102D01*
X119079928Y-46291672D01*
X119079913Y-46291686D01*
X119079905Y-46291693D01*
X118866693Y-46504905D01*
X118866686Y-46504913D01*
X118866672Y-46504928D01*
X118683102Y-46744163D01*
X118532316Y-47005330D01*
X118532288Y-47005388D01*
X118532032Y-47006018D01*
X118416912Y-47283940D01*
X118371143Y-47454754D01*
X118338862Y-47575232D01*
X118338859Y-47575243D01*
X118299501Y-47874199D01*
X118299500Y-47874221D01*
X116525500Y-47874221D01*
X116525500Y-47805794D01*
X116530522Y-47770861D01*
X116537934Y-47745616D01*
X116569228Y-47692874D01*
X120426474Y-43835629D01*
X124585489Y-39676614D01*
X124644799Y-39573887D01*
X124657877Y-39525078D01*
X124675500Y-39459309D01*
X124675500Y-39284084D01*
X124680521Y-39249157D01*
X124683707Y-39238304D01*
X124721477Y-39179523D01*
X124785031Y-39150494D01*
X124854186Y-39160432D01*
X124861172Y-39163622D01*
X124897342Y-39188735D01*
X125003293Y-39294686D01*
X125035725Y-39351562D01*
X125099475Y-39600134D01*
X125164102Y-39852129D01*
X125195613Y-39974994D01*
X125199500Y-40005799D01*
X125199500Y-40243102D01*
X125205126Y-40289954D01*
X125210122Y-40331561D01*
X125257059Y-40450586D01*
X125265640Y-40472345D01*
X125357076Y-40592922D01*
X125470904Y-40679240D01*
X125474102Y-40682029D01*
X125474107Y-40682032D01*
X125477390Y-40684349D01*
X125480596Y-40685519D01*
X125618436Y-40739877D01*
X125706898Y-40750500D01*
X125706903Y-40750500D01*
X126743097Y-40750500D01*
X126743102Y-40750500D01*
X126831564Y-40739877D01*
X126972342Y-40684361D01*
X127092922Y-40592922D01*
X127184361Y-40472342D01*
X127239877Y-40331564D01*
X127250500Y-40243102D01*
X127250500Y-39656898D01*
X127239877Y-39568436D01*
X127185519Y-39430596D01*
X127184349Y-39427390D01*
X127182032Y-39424107D01*
X127182029Y-39424102D01*
X127179240Y-39420904D01*
X127092922Y-39307076D01*
X126972345Y-39215640D01*
X126972343Y-39215639D01*
X126836410Y-39162034D01*
X126831559Y-39160121D01*
X126792152Y-39155389D01*
X126785926Y-39154642D01*
X126785925Y-39154641D01*
X126758220Y-39151315D01*
X126743102Y-39149500D01*
X126743098Y-39149500D01*
X126531543Y-39149500D01*
X126482928Y-39139573D01*
X126356784Y-39085813D01*
X126356778Y-39085812D01*
X126346385Y-39081383D01*
X125945523Y-38910548D01*
X125630261Y-38776193D01*
X125591194Y-38749801D01*
X124745734Y-37904341D01*
X124712249Y-37843018D01*
X124716485Y-37775388D01*
X124800233Y-37538137D01*
X124802976Y-37521517D01*
X124808276Y-37500765D01*
X124822646Y-37459701D01*
X124822646Y-37459699D01*
X124822646Y-37459696D01*
X124823020Y-37457497D01*
X124823188Y-37453919D01*
X124825500Y-37429270D01*
X124825500Y-35920728D01*
X124823188Y-35896079D01*
X124823020Y-35892501D01*
X124822645Y-35890297D01*
X124817003Y-35874171D01*
X124781419Y-35772479D01*
X124777794Y-35762121D01*
X124777793Y-35762118D01*
X124772113Y-35754422D01*
X124747854Y-35721551D01*
X124745118Y-35717379D01*
X124742005Y-35712969D01*
X124741027Y-35711817D01*
X124735783Y-35705196D01*
X124697152Y-35652852D01*
X124697148Y-35652849D01*
X124697145Y-35652846D01*
X124692136Y-35649149D01*
X124675803Y-35633893D01*
X124675645Y-35634054D01*
X124671691Y-35630162D01*
X124455103Y-35452105D01*
X124285782Y-35312906D01*
X124285401Y-35312690D01*
X124284789Y-35312223D01*
X124281391Y-35309889D01*
X124281504Y-35309723D01*
X124258915Y-35292523D01*
X123495914Y-34529522D01*
X123495913Y-34529521D01*
X123495912Y-34529520D01*
X123485118Y-34523288D01*
X123450249Y-34503155D01*
X123450249Y-34503156D01*
X123404588Y-34476793D01*
X123353656Y-34463146D01*
X123353655Y-34463145D01*
X123302729Y-34449500D01*
X123302726Y-34449500D01*
X120072273Y-34449500D01*
X119970413Y-34476792D01*
X119970408Y-34476795D01*
X119879088Y-34529518D01*
X119879082Y-34529523D01*
X117048610Y-37359995D01*
X117020358Y-37381145D01*
X117011372Y-37386052D01*
X116943100Y-37400905D01*
X116877635Y-37376490D01*
X116835762Y-37320557D01*
X116829032Y-37260823D01*
X116829203Y-37259545D01*
X116829603Y-37256543D01*
X116835471Y-37231989D01*
X116847646Y-37197199D01*
X116847853Y-37194999D01*
X116850500Y-37166769D01*
X116850500Y-36107885D01*
X116850650Y-36101789D01*
X116853203Y-36049917D01*
X116848610Y-36008579D01*
X116806678Y-35631191D01*
X116810149Y-35585393D01*
X116825708Y-35527354D01*
X116950925Y-35060273D01*
X116951773Y-35055124D01*
X116958766Y-35029804D01*
X116965359Y-35013090D01*
X116975500Y-34928644D01*
X116975500Y-34396356D01*
X116965359Y-34311910D01*
X116951940Y-34277883D01*
X116913524Y-34180465D01*
X116912353Y-34177260D01*
X116910041Y-34173984D01*
X116910031Y-34173968D01*
X116907240Y-34170768D01*
X116884026Y-34140156D01*
X116874654Y-34127796D01*
X116825078Y-34062420D01*
X116709977Y-33975136D01*
X116575586Y-33922139D01*
X116532242Y-33916935D01*
X116532242Y-33916934D01*
X116504476Y-33913600D01*
X116491144Y-33912000D01*
X116491140Y-33912000D01*
X115908860Y-33912000D01*
X115908856Y-33912000D01*
X115898245Y-33913274D01*
X115870839Y-33916564D01*
X115870840Y-33916565D01*
X115824410Y-33922140D01*
X115798889Y-33932204D01*
X115767791Y-33940011D01*
X115765568Y-33940270D01*
X115426821Y-34045462D01*
X115356959Y-34046544D01*
X115348773Y-34043969D01*
X114928665Y-33895676D01*
X114902151Y-33888168D01*
X114891417Y-33885129D01*
X114891413Y-33885128D01*
X114891395Y-33885123D01*
X114890761Y-33884965D01*
X114890190Y-33884782D01*
X114889526Y-33884594D01*
X114889532Y-33884571D01*
X114875305Y-33880012D01*
X114856563Y-33872622D01*
X114826137Y-33868968D01*
X114810926Y-33867142D01*
X114810925Y-33867141D01*
X114783220Y-33863815D01*
X114768102Y-33862000D01*
X114768098Y-33862000D01*
X113731901Y-33862000D01*
X113731898Y-33862000D01*
X113721560Y-33863241D01*
X113692853Y-33866687D01*
X113692853Y-33866688D01*
X113686920Y-33867400D01*
X113643439Y-33872621D01*
X113502653Y-33928140D01*
X113382076Y-34019576D01*
X113290640Y-34140153D01*
X113290639Y-34140156D01*
X113235122Y-34280938D01*
X113231403Y-34311910D01*
X113224500Y-34369398D01*
X113224500Y-34955602D01*
X113230126Y-35002454D01*
X113235122Y-35044061D01*
X113241516Y-35060274D01*
X113290640Y-35184845D01*
X113382076Y-35305422D01*
X113502658Y-35396862D01*
X113503849Y-35397532D01*
X113504723Y-35398428D01*
X113509416Y-35401987D01*
X113508881Y-35402691D01*
X113552639Y-35447546D01*
X113554205Y-35450602D01*
X113638310Y-35620485D01*
X113650413Y-35689297D01*
X113623392Y-35753730D01*
X113565825Y-35793325D01*
X113527183Y-35799500D01*
X109455458Y-35799500D01*
X109420520Y-35794476D01*
X109398913Y-35788131D01*
X109349048Y-35759623D01*
X109346110Y-35756869D01*
X109331142Y-35740033D01*
X109322154Y-35727855D01*
X109322152Y-35727853D01*
X109322150Y-35727850D01*
X109212882Y-35647207D01*
X109212880Y-35647206D01*
X109164173Y-35630162D01*
X109111100Y-35611590D01*
X109072952Y-35590040D01*
X108919154Y-35462634D01*
X108759257Y-35330176D01*
X108758322Y-35329642D01*
X108756751Y-35328442D01*
X108754846Y-35327124D01*
X108754907Y-35327034D01*
X108732144Y-35309650D01*
X106965600Y-33543106D01*
X106948131Y-33520156D01*
X106948070Y-33520199D01*
X106947064Y-33518754D01*
X106945416Y-33516589D01*
X106944798Y-33515499D01*
X106944794Y-33515494D01*
X106944790Y-33515488D01*
X106597629Y-33103857D01*
X106596094Y-33102340D01*
X106590178Y-33096973D01*
X106487686Y-32994481D01*
X106487678Y-32994475D01*
X106461116Y-32979140D01*
X106350776Y-32915435D01*
X106350752Y-32915422D01*
X106238948Y-32885464D01*
X106198026Y-32874500D01*
X106198025Y-32874500D01*
X106039912Y-32874500D01*
X105887187Y-32915422D01*
X105887180Y-32915424D01*
X105887179Y-32915425D01*
X105887169Y-32915430D01*
X105750267Y-32994470D01*
X105750263Y-32994472D01*
X105750259Y-32994475D01*
X105750251Y-32994481D01*
X105750247Y-32994484D01*
X105750245Y-32994485D01*
X105638454Y-33106276D01*
X105638453Y-33106278D01*
X105638450Y-33106281D01*
X105638450Y-33106282D01*
X105638444Y-33106290D01*
X105638441Y-33106294D01*
X105638439Y-33106298D01*
X105559399Y-33243200D01*
X105559394Y-33243210D01*
X105559393Y-33243211D01*
X105559391Y-33243218D01*
X105518469Y-33395943D01*
X105518469Y-33554055D01*
X105559391Y-33706780D01*
X105559393Y-33706787D01*
X105559394Y-33706788D01*
X105559397Y-33706793D01*
X105636598Y-33840513D01*
X105637981Y-33843084D01*
X105638367Y-33843634D01*
X105740891Y-33946158D01*
X105746009Y-33951814D01*
X105747818Y-33953651D01*
X105747824Y-33953658D01*
X106159468Y-34300829D01*
X106159470Y-34300830D01*
X106161644Y-34302091D01*
X106187126Y-34321682D01*
X107953890Y-36088446D01*
X107970978Y-36111066D01*
X107971212Y-36110907D01*
X107974450Y-36115631D01*
X108220875Y-36412216D01*
X108248577Y-36476359D01*
X108249500Y-36491460D01*
X108249500Y-37504269D01*
X108250534Y-37515293D01*
X108251812Y-37528929D01*
X108251978Y-37532499D01*
X108252352Y-37534701D01*
X108288549Y-37638139D01*
X108294452Y-37655009D01*
X108297207Y-37662882D01*
X108377850Y-37772150D01*
X108487118Y-37852793D01*
X108508878Y-37860407D01*
X108615299Y-37897646D01*
X108615304Y-37897646D01*
X108615307Y-37897647D01*
X108626892Y-37898733D01*
X108645730Y-37900500D01*
X108645734Y-37900500D01*
X108645739Y-37900500D01*
X109054270Y-37900500D01*
X109054271Y-37900500D01*
X109078920Y-37898188D01*
X109082496Y-37898020D01*
X109084696Y-37897646D01*
X109084699Y-37897646D01*
X109084701Y-37897646D01*
X109156745Y-37872436D01*
X109212882Y-37852793D01*
X109322150Y-37772150D01*
X109402793Y-37662882D01*
X109418733Y-37617326D01*
X109441511Y-37552235D01*
X109441511Y-37552232D01*
X109447646Y-37534701D01*
X109447646Y-37534699D01*
X109447646Y-37534694D01*
X109448020Y-37532497D01*
X109448188Y-37528919D01*
X109450500Y-37504270D01*
X109450500Y-37042326D01*
X109455521Y-37007398D01*
X109459925Y-36992399D01*
X109497692Y-36933624D01*
X109499109Y-36932397D01*
X109553920Y-36904977D01*
X109561479Y-36903333D01*
X109587832Y-36900500D01*
X113607670Y-36900500D01*
X113642606Y-36905523D01*
X113657604Y-36909927D01*
X113716355Y-36947672D01*
X113717542Y-36949041D01*
X113745018Y-37003902D01*
X113746663Y-37011460D01*
X113749500Y-37037831D01*
X113749500Y-37166765D01*
X113751812Y-37191429D01*
X113751978Y-37194999D01*
X113752353Y-37197199D01*
X113752353Y-37197201D01*
X113797206Y-37325380D01*
X113797207Y-37325382D01*
X113877850Y-37434650D01*
X113967409Y-37500747D01*
X113987118Y-37515293D01*
X114115299Y-37560146D01*
X114115303Y-37560147D01*
X114133742Y-37561875D01*
X114145730Y-37563000D01*
X114145734Y-37563000D01*
X114145739Y-37563000D01*
X114554270Y-37563000D01*
X114554271Y-37563000D01*
X114578920Y-37560688D01*
X114580128Y-37560923D01*
X114584700Y-37560146D01*
X114584701Y-37560146D01*
X114657417Y-37534701D01*
X114712882Y-37515293D01*
X114822150Y-37434650D01*
X114902793Y-37325382D01*
X114931282Y-37243965D01*
X114947646Y-37197201D01*
X114947646Y-37197199D01*
X114947647Y-37197193D01*
X114948020Y-37194997D01*
X114948188Y-37191419D01*
X114950500Y-37166770D01*
X114950500Y-36033228D01*
X114948188Y-36008579D01*
X114948020Y-36005002D01*
X114947646Y-36002797D01*
X114908280Y-35890300D01*
X114908279Y-35890297D01*
X114908019Y-35889555D01*
X114902793Y-35874618D01*
X114850145Y-35803282D01*
X114827501Y-35749404D01*
X114826539Y-35743440D01*
X114835295Y-35674125D01*
X114837817Y-35668702D01*
X114939838Y-35462631D01*
X114987221Y-35411288D01*
X115009681Y-35400724D01*
X115348776Y-35281027D01*
X115418541Y-35277275D01*
X115426821Y-35279536D01*
X115522516Y-35309253D01*
X115580702Y-35347933D01*
X115601177Y-35382389D01*
X115683335Y-35591819D01*
X115691142Y-35650797D01*
X115646795Y-36049917D01*
X115648692Y-36088446D01*
X115649348Y-36101789D01*
X115649350Y-36101818D01*
X115649500Y-36107913D01*
X115649500Y-37166769D01*
X115652353Y-37197199D01*
X115652353Y-37197200D01*
X115652354Y-37197202D01*
X115653488Y-37201167D01*
X115654957Y-37204641D01*
X115668280Y-37242717D01*
X115675077Y-37277346D01*
X115675785Y-37291208D01*
X115659545Y-37359164D01*
X115609144Y-37407552D01*
X115603435Y-37410520D01*
X115546239Y-37424500D01*
X115347271Y-37424500D01*
X115245411Y-37451792D01*
X115245408Y-37451793D01*
X115154097Y-37504513D01*
X115154083Y-37504522D01*
X115154078Y-37504526D01*
X114770224Y-37888380D01*
X114741970Y-37909531D01*
X114727647Y-37917352D01*
X114694063Y-37924837D01*
X114693938Y-37924926D01*
X114693596Y-37924941D01*
X114660634Y-37932288D01*
X114646130Y-37931399D01*
X114628546Y-37927854D01*
X114624138Y-37928052D01*
X114621276Y-37926388D01*
X114612764Y-37924673D01*
X114584699Y-37914853D01*
X114584694Y-37914852D01*
X114554274Y-37912000D01*
X114554270Y-37912000D01*
X114554266Y-37912000D01*
X114145734Y-37912000D01*
X114145730Y-37912000D01*
X114127074Y-37913749D01*
X114121069Y-37914312D01*
X114117499Y-37914478D01*
X114115297Y-37914853D01*
X113987118Y-37959706D01*
X113877849Y-38040349D01*
X113797206Y-38149618D01*
X113752353Y-38277797D01*
X113751978Y-38279999D01*
X113751812Y-38283569D01*
X113749500Y-38308233D01*
X113749500Y-38360179D01*
X113729815Y-38427218D01*
X113677011Y-38472973D01*
X113607853Y-38482917D01*
X113564482Y-38468127D01*
X113176792Y-38248986D01*
X113162880Y-38239838D01*
X113159978Y-38237637D01*
X113159976Y-38237636D01*
X113157201Y-38236541D01*
X113149807Y-38233014D01*
X113149710Y-38233225D01*
X113145223Y-38231141D01*
X113145219Y-38231139D01*
X113130002Y-38225499D01*
X113117821Y-38220984D01*
X113115428Y-38220068D01*
X113025589Y-38184640D01*
X112982242Y-38179435D01*
X112982242Y-38179434D01*
X112954476Y-38176100D01*
X112941144Y-38174500D01*
X112941140Y-38174500D01*
X112358860Y-38174500D01*
X112358856Y-38174500D01*
X112348245Y-38175774D01*
X112320839Y-38179064D01*
X112320840Y-38179065D01*
X112274412Y-38184639D01*
X112140021Y-38237636D01*
X112024920Y-38324920D01*
X111937636Y-38440021D01*
X111884639Y-38574412D01*
X111879065Y-38620840D01*
X111874500Y-38658859D01*
X111874500Y-39191145D01*
X111877441Y-39215634D01*
X111877441Y-39215639D01*
X111877442Y-39215639D01*
X111884639Y-39275586D01*
X111937636Y-39409977D01*
X112024917Y-39525073D01*
X112024921Y-39525078D01*
X112077594Y-39565021D01*
X112078784Y-39565923D01*
X112103588Y-39591038D01*
X112110309Y-39600134D01*
X112134317Y-39665749D01*
X112119039Y-39733928D01*
X112069345Y-39783014D01*
X112066229Y-39784691D01*
X112007464Y-39799500D01*
X111510084Y-39799500D01*
X111475148Y-39794477D01*
X111449906Y-39787065D01*
X111397162Y-39755770D01*
X111095913Y-39454520D01*
X111095901Y-39454513D01*
X111049384Y-39427655D01*
X111049384Y-39427656D01*
X111004589Y-39401793D01*
X110953657Y-39388146D01*
X110953656Y-39388145D01*
X110902730Y-39374500D01*
X110902727Y-39374500D01*
X107902727Y-39374500D01*
X107797273Y-39374500D01*
X107797271Y-39374500D01*
X107695411Y-39401792D01*
X107695408Y-39401793D01*
X107604097Y-39454513D01*
X107604086Y-39454520D01*
X107507285Y-39551321D01*
X107479032Y-39572471D01*
X107469108Y-39577890D01*
X107400835Y-39592742D01*
X107335370Y-39568326D01*
X107293499Y-39512392D01*
X107293497Y-39512388D01*
X107290813Y-39505190D01*
X107283000Y-39461870D01*
X107283000Y-38806935D01*
X107283001Y-38806884D01*
X107283001Y-38689088D01*
X107277855Y-38669882D01*
X107255707Y-38587227D01*
X107255506Y-38586879D01*
X107248309Y-38574412D01*
X107248307Y-38574410D01*
X107213022Y-38513294D01*
X107202981Y-38495902D01*
X107124082Y-38417003D01*
X107123060Y-38415981D01*
X107123017Y-38415939D01*
X106799426Y-38092347D01*
X106778275Y-38064094D01*
X106772472Y-38053466D01*
X106757622Y-37985195D01*
X106769531Y-37940354D01*
X106910835Y-37646181D01*
X106932305Y-37586092D01*
X106933454Y-37581367D01*
X106933458Y-37581336D01*
X106934054Y-37578178D01*
X106934470Y-37578256D01*
X106938960Y-37559521D01*
X106941511Y-37552232D01*
X106941512Y-37552230D01*
X106947646Y-37534701D01*
X106947646Y-37534699D01*
X106948020Y-37532497D01*
X106948188Y-37528919D01*
X106950500Y-37504270D01*
X106950500Y-35995728D01*
X106948188Y-35971079D01*
X106948020Y-35967502D01*
X106947646Y-35965300D01*
X106947646Y-35965298D01*
X106902793Y-35837119D01*
X106902792Y-35837117D01*
X106902792Y-35837116D01*
X106822151Y-35727851D01*
X106822150Y-35727850D01*
X106712882Y-35647207D01*
X106712880Y-35647206D01*
X106694019Y-35640606D01*
X106584704Y-35602354D01*
X106584702Y-35602353D01*
X106584700Y-35602353D01*
X106554270Y-35599500D01*
X106554266Y-35599500D01*
X106554264Y-35599500D01*
X106145734Y-35599500D01*
X106145730Y-35599500D01*
X106127074Y-35601249D01*
X106121069Y-35601812D01*
X106117499Y-35601978D01*
X106115297Y-35602353D01*
X105987118Y-35647206D01*
X105877852Y-35727847D01*
X105877850Y-35727849D01*
X105877850Y-35727850D01*
X105872172Y-35735544D01*
X105835356Y-35785426D01*
X105810577Y-35810544D01*
X105799523Y-35818938D01*
X105734228Y-35843804D01*
X105665855Y-35829422D01*
X105665846Y-35829417D01*
X105659339Y-35825921D01*
X105618256Y-35790322D01*
X105610501Y-35779815D01*
X105605088Y-35772480D01*
X105572150Y-35727850D01*
X105462882Y-35647207D01*
X105462880Y-35647206D01*
X105444019Y-35640606D01*
X105334704Y-35602354D01*
X105334702Y-35602353D01*
X105334700Y-35602353D01*
X105304270Y-35599500D01*
X105304266Y-35599500D01*
X105304264Y-35599500D01*
X104895734Y-35599500D01*
X104895730Y-35599500D01*
X104877074Y-35601249D01*
X104871069Y-35601812D01*
X104867499Y-35601978D01*
X104865297Y-35602353D01*
X104737118Y-35647206D01*
X104627849Y-35727849D01*
X104547206Y-35837118D01*
X104502353Y-35965297D01*
X104501978Y-35967499D01*
X104501812Y-35971069D01*
X104499500Y-35995730D01*
X104499500Y-37504269D01*
X104500534Y-37515293D01*
X104501812Y-37528929D01*
X104501978Y-37532499D01*
X104502352Y-37534701D01*
X104538549Y-37638139D01*
X104544452Y-37655009D01*
X104547207Y-37662882D01*
X104574974Y-37700506D01*
X104595315Y-37728068D01*
X104604783Y-37743025D01*
X104606827Y-37746830D01*
X104609101Y-37751065D01*
X104609867Y-37752490D01*
X104709892Y-37876785D01*
X104723631Y-37899185D01*
X104723663Y-37899167D01*
X104724348Y-37900354D01*
X104726373Y-37903655D01*
X104726792Y-37904587D01*
X104732721Y-37914856D01*
X104764189Y-37969359D01*
X104766166Y-37972918D01*
X104774362Y-37988256D01*
X104774365Y-37988261D01*
X104777538Y-37993011D01*
X104778583Y-37994692D01*
X104780177Y-37996769D01*
X104786432Y-38003670D01*
X104814912Y-38038376D01*
X104814914Y-38038378D01*
X104911084Y-38134547D01*
X104916093Y-38139443D01*
X104925227Y-38145395D01*
X104945210Y-38161603D01*
X105933073Y-39149466D01*
X105954223Y-39177718D01*
X105966831Y-39200807D01*
X105982000Y-39260236D01*
X105982000Y-41132669D01*
X105976975Y-41167613D01*
X105972570Y-41182611D01*
X105934827Y-41241354D01*
X105933458Y-41242541D01*
X105878597Y-41270017D01*
X105871039Y-41271662D01*
X105844668Y-41274499D01*
X105771864Y-41274499D01*
X105709302Y-41283613D01*
X105709298Y-41283613D01*
X105698876Y-41285132D01*
X105689680Y-41287975D01*
X105689522Y-41287465D01*
X105669382Y-41293959D01*
X105646360Y-41297889D01*
X105590564Y-41294635D01*
X105588132Y-41293921D01*
X105568603Y-41286344D01*
X105566129Y-41285134D01*
X105566126Y-41285133D01*
X105555698Y-41283613D01*
X105493136Y-41274499D01*
X105493130Y-41274499D01*
X105271864Y-41274499D01*
X105209302Y-41283613D01*
X105209298Y-41283613D01*
X105198876Y-41285132D01*
X105197585Y-41285531D01*
X105197400Y-41285685D01*
X105190421Y-41287745D01*
X105189680Y-41287975D01*
X105189677Y-41287965D01*
X105169382Y-41293959D01*
X105146360Y-41297889D01*
X105090564Y-41294635D01*
X105088132Y-41293921D01*
X105068603Y-41286344D01*
X105066129Y-41285134D01*
X105066126Y-41285133D01*
X105055698Y-41283613D01*
X104993136Y-41274499D01*
X104993130Y-41274499D01*
X104874830Y-41274499D01*
X104839851Y-41269463D01*
X104838494Y-41269064D01*
X104779730Y-41231268D01*
X104750729Y-41167701D01*
X104760698Y-41098547D01*
X104778493Y-41070383D01*
X104845172Y-40990946D01*
X104869105Y-40975028D01*
X104891263Y-40956711D01*
X104897836Y-40955920D01*
X104903349Y-40952255D01*
X104926893Y-40947379D01*
X104957483Y-40944091D01*
X105092331Y-40893796D01*
X105207546Y-40807546D01*
X105293796Y-40692331D01*
X105344091Y-40557483D01*
X105350500Y-40497873D01*
X105350499Y-39852128D01*
X105344091Y-39792517D01*
X105340861Y-39783859D01*
X105339359Y-39779831D01*
X105339351Y-39779810D01*
X105333351Y-39763724D01*
X105293797Y-39657671D01*
X105293793Y-39657664D01*
X105226998Y-39568438D01*
X105207548Y-39542456D01*
X105207542Y-39542450D01*
X105113700Y-39472200D01*
X105092335Y-39456206D01*
X105092331Y-39456204D01*
X105092327Y-39456201D01*
X105092325Y-39456200D01*
X104959579Y-39406690D01*
X104956562Y-39405503D01*
X104950871Y-39405198D01*
X104897883Y-39399501D01*
X104897881Y-39399500D01*
X104897873Y-39399500D01*
X104897865Y-39399500D01*
X104402123Y-39399500D01*
X104400192Y-39399659D01*
X104398545Y-39399885D01*
X104349121Y-39405198D01*
X104342516Y-39405908D01*
X104207677Y-39456200D01*
X104207666Y-39456204D01*
X104207665Y-39456205D01*
X104092456Y-39542450D01*
X104092450Y-39542456D01*
X104006205Y-39657665D01*
X104006203Y-39657668D01*
X103955908Y-39792516D01*
X103949500Y-39852125D01*
X103949500Y-40141447D01*
X103946881Y-40166797D01*
X103945880Y-40171590D01*
X103912906Y-40233189D01*
X103851863Y-40267183D01*
X103782133Y-40262778D01*
X103725853Y-40221373D01*
X103700893Y-40156114D01*
X103700499Y-40146240D01*
X103700499Y-39852129D01*
X103700499Y-39852128D01*
X103694091Y-39792517D01*
X103689353Y-39779815D01*
X103643797Y-39657671D01*
X103643793Y-39657664D01*
X103576998Y-39568438D01*
X103557548Y-39542456D01*
X103557542Y-39542450D01*
X103463700Y-39472200D01*
X103442335Y-39456206D01*
X103442331Y-39456204D01*
X103442327Y-39456201D01*
X103442325Y-39456200D01*
X103309579Y-39406690D01*
X103306562Y-39405503D01*
X103300871Y-39405198D01*
X103247883Y-39399501D01*
X103247881Y-39399500D01*
X103247873Y-39399500D01*
X103247865Y-39399500D01*
X102757186Y-39399500D01*
X102752129Y-39399500D01*
X102752123Y-39399501D01*
X102692516Y-39405908D01*
X102605637Y-39438311D01*
X102579056Y-39445836D01*
X102559671Y-39455455D01*
X102557671Y-39456202D01*
X102557664Y-39456206D01*
X102556688Y-39456936D01*
X102541778Y-39464335D01*
X102541769Y-39464338D01*
X102317076Y-39575846D01*
X102248275Y-39588015D01*
X102197654Y-39570798D01*
X101979828Y-39438695D01*
X101946185Y-39408716D01*
X101944612Y-39406690D01*
X101846298Y-39280067D01*
X101846297Y-39280064D01*
X101765827Y-39176425D01*
X101749207Y-39147826D01*
X101748208Y-39145414D01*
X101748207Y-39145412D01*
X101710783Y-39080592D01*
X101708826Y-39077071D01*
X101700628Y-39061731D01*
X101698092Y-39057935D01*
X101698088Y-39057930D01*
X101697474Y-39057011D01*
X101696410Y-39055300D01*
X101695483Y-39054092D01*
X101695480Y-39054087D01*
X101695475Y-39054082D01*
X101694821Y-39053230D01*
X101688569Y-39046331D01*
X101660088Y-39011624D01*
X101563877Y-38915414D01*
X101558898Y-38910548D01*
X101558895Y-38910546D01*
X101558892Y-38910544D01*
X101558891Y-38910543D01*
X101549760Y-38904593D01*
X101542928Y-38896607D01*
X101529779Y-38888386D01*
X101446233Y-38804840D01*
X101425081Y-38776584D01*
X101417583Y-38762852D01*
X101402540Y-38697874D01*
X101402650Y-38695438D01*
X101404862Y-38646074D01*
X101402725Y-38593835D01*
X101402221Y-38589874D01*
X101402220Y-38589872D01*
X101401840Y-38586879D01*
X101402046Y-38586852D01*
X101400499Y-38569255D01*
X101400499Y-37680142D01*
X101400499Y-37680136D01*
X101400497Y-37680117D01*
X101398409Y-37662113D01*
X101398078Y-37656390D01*
X101397955Y-37655630D01*
X101396406Y-37652339D01*
X101352206Y-37552235D01*
X101272765Y-37472794D01*
X101272763Y-37472793D01*
X101272759Y-37472790D01*
X101243109Y-37459699D01*
X101243108Y-37459699D01*
X101169993Y-37427415D01*
X101169994Y-37427415D01*
X101144868Y-37424500D01*
X101144865Y-37424500D01*
X99355143Y-37424500D01*
X99355127Y-37424501D01*
X99355113Y-37424502D01*
X99337255Y-37426573D01*
X99330012Y-37427413D01*
X99330011Y-37427413D01*
X99330005Y-37427414D01*
X99329559Y-37427547D01*
X99327303Y-37428609D01*
X99227236Y-37472792D01*
X99147793Y-37552234D01*
X99102414Y-37655005D01*
X99101844Y-37657710D01*
X99101743Y-37659454D01*
X99101781Y-37660360D01*
X99101689Y-37661256D01*
X99099500Y-37680131D01*
X98250499Y-37680131D01*
X98250499Y-32033122D01*
X98250617Y-32027716D01*
X98250853Y-32022308D01*
X98251207Y-32016906D01*
X98256264Y-31959107D01*
X98264267Y-31867625D01*
X98265678Y-31856909D01*
X98267551Y-31846289D01*
X98269891Y-31835733D01*
X98306570Y-31698842D01*
X98309814Y-31688554D01*
X98313517Y-31678383D01*
X98317642Y-31668425D01*
X98377540Y-31539973D01*
X98382529Y-31530392D01*
X98387928Y-31521042D01*
X98393714Y-31511957D01*
X98475021Y-31395839D01*
X98481590Y-31387279D01*
X98481598Y-31387270D01*
X98488533Y-31379004D01*
X98495828Y-31371042D01*
X98596041Y-31270829D01*
X98604004Y-31263533D01*
X98612278Y-31256591D01*
X98620838Y-31250022D01*
X98736956Y-31168715D01*
X98746041Y-31162929D01*
X98755398Y-31157526D01*
X98764982Y-31152537D01*
X98893417Y-31092647D01*
X98903398Y-31088512D01*
X98913549Y-31084816D01*
X98923835Y-31081573D01*
X99060735Y-31044891D01*
X99071278Y-31042553D01*
X99081930Y-31040675D01*
X99092616Y-31039268D01*
X99219884Y-31028134D01*
X99241935Y-31026205D01*
X99247261Y-31025855D01*
X99252739Y-31025616D01*
X99258121Y-31025500D01*
X127941877Y-31025500D01*
X127947279Y-31025618D01*
G37*
%TD.AperFunction*%
%TD*%
%TA.AperFunction,Conductor*%
%TO.N,+3.3V*%
G36*
X114788419Y-38291341D02*
G01*
X114793621Y-38294358D01*
X114926879Y-38427616D01*
X114930306Y-38435889D01*
X114929071Y-38441121D01*
X114654860Y-38989543D01*
X114648095Y-38995411D01*
X114639948Y-38995133D01*
X114359473Y-38879890D01*
X114353123Y-38873576D01*
X114352847Y-38865290D01*
X114565495Y-38242085D01*
X114571409Y-38235363D01*
X114579637Y-38234575D01*
X114788419Y-38291341D01*
G37*
%TD.AperFunction*%
%TD*%
%TA.AperFunction,Conductor*%
%TO.N,5V*%
G36*
X114060180Y-36053028D02*
G01*
X114061702Y-36054336D01*
X114205931Y-36201739D01*
X114342892Y-36341714D01*
X114346228Y-36350024D01*
X114342788Y-36358184D01*
X114054255Y-36645758D01*
X114045977Y-36649171D01*
X114044073Y-36649012D01*
X113759777Y-36601629D01*
X113752179Y-36596888D01*
X113750000Y-36590088D01*
X113750000Y-36109950D01*
X113753427Y-36101677D01*
X113759819Y-36098403D01*
X114051466Y-36050974D01*
X114060180Y-36053028D01*
G37*
%TD.AperFunction*%
%TD*%
%TA.AperFunction,Conductor*%
%TO.N,GND*%
G36*
X100025659Y-56085761D02*
G01*
X99809664Y-56552304D01*
X99529978Y-56440021D01*
X99417695Y-56160335D01*
X99884238Y-55944340D01*
X100025659Y-56085761D01*
G37*
%TD.AperFunction*%
%TD*%
%TA.AperFunction,Conductor*%
%TO.N,GND*%
G36*
X101845037Y-55427592D02*
G01*
X102424904Y-56029613D01*
X102428175Y-56037949D01*
X102425134Y-56045600D01*
X101935982Y-56583669D01*
X101927882Y-56587486D01*
X101927325Y-56587499D01*
X101743491Y-56587499D01*
X101735218Y-56584072D01*
X101731814Y-56576529D01*
X101682665Y-55790140D01*
X101683487Y-55785044D01*
X101825756Y-55431341D01*
X101832022Y-55424946D01*
X101840976Y-55424854D01*
X101845037Y-55427592D01*
G37*
%TD.AperFunction*%
%TD*%
%TA.AperFunction,Conductor*%
%TO.N,/CAN-*%
G36*
X122672293Y-53888205D02*
G01*
X123397262Y-54164065D01*
X123403776Y-54170210D01*
X123404036Y-54179161D01*
X123397891Y-54185675D01*
X123397262Y-54185935D01*
X122672293Y-54461794D01*
X122663342Y-54461534D01*
X122663066Y-54461405D01*
X122281634Y-54278186D01*
X122275660Y-54271515D01*
X122275000Y-54267640D01*
X122275000Y-54082359D01*
X122278427Y-54074086D01*
X122281632Y-54071814D01*
X122663067Y-53888593D01*
X122672007Y-53888100D01*
X122672293Y-53888205D01*
G37*
%TD.AperFunction*%
%TD*%
%TA.AperFunction,Conductor*%
%TO.N,5V*%
G36*
X115865084Y-34232847D02*
G01*
X115868868Y-34236012D01*
X116195401Y-34655311D01*
X116197781Y-34663944D01*
X116195401Y-34669689D01*
X115868868Y-35088987D01*
X115861081Y-35093409D01*
X115856167Y-35092972D01*
X115283230Y-34915055D01*
X115276346Y-34909328D01*
X115275000Y-34903881D01*
X115275000Y-34421118D01*
X115278427Y-34412845D01*
X115283228Y-34409944D01*
X115856167Y-34232027D01*
X115865084Y-34232847D01*
G37*
%TD.AperFunction*%
%TD*%
%TA.AperFunction,Conductor*%
%TO.N,/OSC+*%
G36*
X105501141Y-54378604D02*
G01*
X105509219Y-54382029D01*
X105637519Y-54510329D01*
X105640055Y-54514125D01*
X105641267Y-54517051D01*
X105641540Y-54525279D01*
X105286577Y-55573979D01*
X105284299Y-55577934D01*
X105282861Y-55579577D01*
X105275523Y-55583479D01*
X105274288Y-55583635D01*
X105270407Y-55583475D01*
X104590114Y-55439961D01*
X104585918Y-55438166D01*
X104583018Y-55436179D01*
X104578816Y-55430990D01*
X104339388Y-54850628D01*
X104338504Y-54846153D01*
X104338506Y-54844369D01*
X104341940Y-54836105D01*
X104343148Y-54834901D01*
X104347101Y-54832311D01*
X105091412Y-54538254D01*
X105092969Y-54537764D01*
X105094561Y-54537383D01*
X105096170Y-54537116D01*
X105117199Y-54535145D01*
X105117202Y-54535144D01*
X105117206Y-54535143D01*
X105200980Y-54505829D01*
X105244615Y-54490561D01*
X105245061Y-54490438D01*
X105245819Y-54490138D01*
X105246012Y-54490070D01*
X105246878Y-54489187D01*
X105281084Y-54463942D01*
X105282328Y-54463143D01*
X105283653Y-54462409D01*
X105285004Y-54461771D01*
X105493582Y-54379368D01*
X105498071Y-54378553D01*
X105501141Y-54378604D01*
G37*
%TD.AperFunction*%
%TD*%
%TA.AperFunction,Conductor*%
%TO.N,GND*%
G36*
X99632500Y-56154656D02*
G01*
X99432500Y-56457368D01*
X99232500Y-56437499D01*
X99332500Y-55856368D01*
X99532500Y-55856368D01*
X99632500Y-56154656D01*
G37*
%TD.AperFunction*%
%TD*%
%TA.AperFunction,Conductor*%
%TO.N,GND*%
G36*
X101845671Y-56512499D02*
G01*
X101572692Y-56737499D01*
X101244671Y-56612499D01*
X101244671Y-56412499D01*
X101832500Y-56287499D01*
X101845671Y-56512499D01*
G37*
%TD.AperFunction*%
%TD*%
%TA.AperFunction,Conductor*%
%TO.N,5V*%
G36*
X114258239Y-34669673D02*
G01*
X114744013Y-35151587D01*
X114747473Y-35159846D01*
X114746258Y-35165084D01*
X114503222Y-35655991D01*
X114496481Y-35661885D01*
X114492737Y-35662500D01*
X114007263Y-35662500D01*
X113998990Y-35659073D01*
X113996778Y-35655991D01*
X113753741Y-35165084D01*
X113753141Y-35156149D01*
X113755983Y-35151591D01*
X114241760Y-34669673D01*
X114250047Y-34666280D01*
X114258239Y-34669673D01*
G37*
%TD.AperFunction*%
%TD*%
%TA.AperFunction,Conductor*%
%TO.N,GND*%
G36*
X107531486Y-53116030D02*
G01*
X107535210Y-53121706D01*
X107573740Y-53252594D01*
X107572789Y-53261498D01*
X107567191Y-53266624D01*
X107235835Y-53411045D01*
X107228924Y-53411802D01*
X107160290Y-53398441D01*
X106985120Y-53364341D01*
X106977654Y-53359397D01*
X106975656Y-53352857D01*
X106975656Y-53173195D01*
X106979083Y-53164922D01*
X106986309Y-53161542D01*
X107522941Y-53113357D01*
X107531486Y-53116030D01*
G37*
%TD.AperFunction*%
%TD*%
%TA.AperFunction,Conductor*%
%TO.N,5V*%
G36*
X106364093Y-33300812D02*
G01*
X106711264Y-33712456D01*
X106713978Y-33720990D01*
X106710593Y-33728272D01*
X106372241Y-34066624D01*
X106363968Y-34070051D01*
X106356425Y-34067295D01*
X105944781Y-33720124D01*
X105940666Y-33712171D01*
X105942958Y-33704168D01*
X106115445Y-33473815D01*
X106117784Y-33471476D01*
X106348137Y-33298989D01*
X106356813Y-33296774D01*
X106364093Y-33300812D01*
G37*
%TD.AperFunction*%
%TD*%
%TA.AperFunction,Conductor*%
%TO.N,/SWDIO*%
G36*
X120185051Y-36554866D02*
G01*
X120464879Y-36669844D01*
X120471229Y-36676158D01*
X120471254Y-36685113D01*
X120471252Y-36685118D01*
X120185503Y-37379495D01*
X120179185Y-37385842D01*
X120170231Y-37385863D01*
X120166649Y-37383548D01*
X120033705Y-37257961D01*
X120033466Y-37257729D01*
X119898120Y-37122383D01*
X119894693Y-37114110D01*
X119895926Y-37108883D01*
X120170140Y-36560454D01*
X120176904Y-36554588D01*
X120185051Y-36554866D01*
G37*
%TD.AperFunction*%
%TD*%
%TA.AperFunction,Conductor*%
%TO.N,/USART1_TX*%
G36*
X106481419Y-41428426D02*
G01*
X106484559Y-41434124D01*
X106526231Y-41618820D01*
X106526272Y-41623783D01*
X106393954Y-42258551D01*
X106388911Y-42265950D01*
X106380112Y-42267617D01*
X106372713Y-42262574D01*
X106371046Y-42258551D01*
X106238727Y-41623783D01*
X106238768Y-41618820D01*
X106280441Y-41434124D01*
X106285605Y-41426808D01*
X106291854Y-41424999D01*
X106473146Y-41424999D01*
X106481419Y-41428426D01*
G37*
%TD.AperFunction*%
%TD*%
%TA.AperFunction,Conductor*%
%TO.N,/USART1_RX*%
G36*
X106358059Y-36774641D02*
G01*
X106358750Y-36775292D01*
X106361662Y-36779647D01*
X106635966Y-37500531D01*
X106636726Y-37505033D01*
X106636605Y-37509181D01*
X106635456Y-37513906D01*
X106454194Y-37891268D01*
X106451454Y-37894917D01*
X106449111Y-37897015D01*
X106441306Y-37900000D01*
X106259686Y-37900000D01*
X106255208Y-37899109D01*
X106252302Y-37897905D01*
X106246235Y-37892163D01*
X106064600Y-37514028D01*
X106063465Y-37509613D01*
X106063236Y-37505462D01*
X106063982Y-37500663D01*
X106338238Y-36779908D01*
X106340660Y-36776046D01*
X106341525Y-36775129D01*
X106349695Y-36771462D01*
X106358059Y-36774641D01*
G37*
%TD.AperFunction*%
%TD*%
%TA.AperFunction,Conductor*%
%TO.N,/NRST*%
G36*
X103475297Y-49750890D02*
G01*
X103477629Y-49751856D01*
X103483393Y-49757010D01*
X103483753Y-49757662D01*
X103484924Y-49760742D01*
X103525954Y-49942593D01*
X103526241Y-49945073D01*
X103526261Y-49947529D01*
X103526015Y-49950012D01*
X103394428Y-50581273D01*
X103392644Y-50585471D01*
X103391935Y-50586512D01*
X103384446Y-50591421D01*
X103375679Y-50589596D01*
X103375643Y-50589571D01*
X103375532Y-50589494D01*
X103375505Y-50589475D01*
X103370784Y-50582295D01*
X103238983Y-49950012D01*
X103238737Y-49947529D01*
X103238757Y-49945066D01*
X103239043Y-49942600D01*
X103279929Y-49761392D01*
X103281783Y-49757223D01*
X103283240Y-49755159D01*
X103289553Y-49750665D01*
X103290270Y-49750458D01*
X103293515Y-49749999D01*
X103470819Y-49749999D01*
X103475297Y-49750890D01*
G37*
%TD.AperFunction*%
%TD*%
%TA.AperFunction,Conductor*%
%TO.N,GND*%
G36*
X100285022Y-52834977D02*
G01*
X100397305Y-53114663D01*
X99930762Y-53330658D01*
X99789341Y-53189237D01*
X100005336Y-52722694D01*
X100285022Y-52834977D01*
G37*
%TD.AperFunction*%
%TD*%
%TA.AperFunction,Conductor*%
%TO.N,/NRST*%
G36*
X101382187Y-40079597D02*
G01*
X101799910Y-40404903D01*
X101804332Y-40412689D01*
X101802906Y-40419890D01*
X101478359Y-40994057D01*
X101471305Y-40999573D01*
X101468174Y-41000000D01*
X101281826Y-41000000D01*
X101273553Y-40996573D01*
X101271641Y-40994057D01*
X100947093Y-40419890D01*
X100946005Y-40411002D01*
X100950086Y-40404905D01*
X101367811Y-40079597D01*
X101376444Y-40077218D01*
X101382187Y-40079597D01*
G37*
%TD.AperFunction*%
%TD*%
%TA.AperFunction,Conductor*%
%TO.N,/SWCLK*%
G36*
X107981419Y-41428426D02*
G01*
X107984559Y-41434124D01*
X108026231Y-41618820D01*
X108026272Y-41623783D01*
X107893954Y-42258551D01*
X107888911Y-42265950D01*
X107880112Y-42267617D01*
X107872713Y-42262574D01*
X107871046Y-42258551D01*
X107738727Y-41623783D01*
X107738768Y-41618820D01*
X107780441Y-41434124D01*
X107785605Y-41426808D01*
X107791854Y-41424999D01*
X107973146Y-41424999D01*
X107981419Y-41428426D01*
G37*
%TD.AperFunction*%
%TD*%
%TA.AperFunction,Conductor*%
%TO.N,+3.3V*%
G36*
X111343362Y-53794041D02*
G01*
X111914035Y-53944607D01*
X111918136Y-53946610D01*
X111920238Y-53948210D01*
X111924444Y-53954459D01*
X111924592Y-53955005D01*
X111925000Y-53958066D01*
X111925000Y-54139376D01*
X111924109Y-54143855D01*
X111922700Y-54147255D01*
X111918981Y-54152083D01*
X111475389Y-54490005D01*
X111471285Y-54492011D01*
X111469065Y-54492597D01*
X111460976Y-54491813D01*
X111460000Y-54491340D01*
X111456981Y-54489232D01*
X111010516Y-54058607D01*
X111007911Y-54054857D01*
X111007199Y-54053222D01*
X111007035Y-54044277D01*
X111007435Y-54043258D01*
X111011256Y-54038213D01*
X111329710Y-53796969D01*
X111333813Y-53794977D01*
X111337423Y-53794035D01*
X111343362Y-53794041D01*
G37*
%TD.AperFunction*%
%TD*%
%TA.AperFunction,Conductor*%
%TO.N,GND*%
G36*
X103304696Y-54378663D02*
G01*
X103308314Y-54381124D01*
X103439165Y-54511975D01*
X103442592Y-54520248D01*
X103441974Y-54523999D01*
X103085831Y-55576185D01*
X103079933Y-55582923D01*
X103072334Y-55583882D01*
X102387838Y-55439481D01*
X102380450Y-55434420D01*
X102379437Y-55432495D01*
X102138501Y-54848478D01*
X102138514Y-54839523D01*
X102144855Y-54833200D01*
X102144914Y-54833175D01*
X102892161Y-54537958D01*
X102895362Y-54537192D01*
X102917199Y-54535145D01*
X102917202Y-54535144D01*
X102917206Y-54535143D01*
X102983416Y-54511975D01*
X103044615Y-54490561D01*
X103045061Y-54490438D01*
X103045819Y-54490138D01*
X103046012Y-54490070D01*
X103046878Y-54489187D01*
X103081674Y-54463505D01*
X103084311Y-54462044D01*
X103295743Y-54378515D01*
X103304696Y-54378663D01*
G37*
%TD.AperFunction*%
%TD*%
%TA.AperFunction,Conductor*%
%TO.N,+3.3V*%
G36*
X104666613Y-48792832D02*
G01*
X104670618Y-48795435D01*
X104870006Y-48925003D01*
X104938561Y-48953398D01*
X104942356Y-48955933D01*
X105075579Y-49089157D01*
X105079006Y-49097429D01*
X105075579Y-49105702D01*
X104952745Y-49228536D01*
X104944472Y-49231963D01*
X104936199Y-49228536D01*
X104934604Y-49226548D01*
X104870001Y-49125000D01*
X104666614Y-49257166D01*
X104657810Y-49258800D01*
X104651024Y-49254564D01*
X104534567Y-49105702D01*
X104477071Y-49032207D01*
X104474673Y-49023582D01*
X104477071Y-49017792D01*
X104651024Y-48795434D01*
X104658821Y-48791030D01*
X104666613Y-48792832D01*
G37*
%TD.AperFunction*%
%TD*%
%TA.AperFunction,Conductor*%
%TO.N,/OSC-*%
G36*
X101687394Y-53417823D02*
G01*
X101688324Y-53418215D01*
X101691388Y-53420107D01*
X102368989Y-54000079D01*
X102371811Y-54003667D01*
X102372617Y-54005253D01*
X102373312Y-54014177D01*
X102373127Y-54014745D01*
X102367716Y-54021332D01*
X101843012Y-54315006D01*
X101838722Y-54316409D01*
X101834497Y-54316927D01*
X101829991Y-54316601D01*
X101093362Y-54115464D01*
X101089277Y-54113425D01*
X101087166Y-54111789D01*
X101083023Y-54105537D01*
X101082890Y-54105035D01*
X101082500Y-54102039D01*
X101082500Y-53920305D01*
X101083390Y-53915829D01*
X101084863Y-53912271D01*
X101088180Y-53907764D01*
X101673124Y-53420311D01*
X101677128Y-53418132D01*
X101679373Y-53417433D01*
X101687394Y-53417823D01*
G37*
%TD.AperFunction*%
%TD*%
%TA.AperFunction,Conductor*%
%TO.N,/SWCLK*%
G36*
X108039334Y-42164777D02*
G01*
X108174500Y-42209832D01*
X108181265Y-42215700D01*
X108182500Y-42220932D01*
X108182500Y-42404065D01*
X108179073Y-42412338D01*
X108174500Y-42415165D01*
X108039334Y-42460220D01*
X108030402Y-42459585D01*
X108027388Y-42457421D01*
X107984850Y-42415165D01*
X107889855Y-42320799D01*
X107886402Y-42312538D01*
X107889801Y-42304253D01*
X107889856Y-42304198D01*
X107973677Y-42220932D01*
X108027389Y-42167575D01*
X108035673Y-42164177D01*
X108039334Y-42164777D01*
G37*
%TD.AperFunction*%
%TD*%
%TA.AperFunction,Conductor*%
%TO.N,/CAN+*%
G36*
X118984384Y-55148302D02*
G01*
X118988671Y-55149429D01*
X119366268Y-55330805D01*
X119369914Y-55333542D01*
X119372016Y-55335889D01*
X119375000Y-55343693D01*
X119375000Y-55525312D01*
X119374109Y-55529790D01*
X119372905Y-55532696D01*
X119367162Y-55538764D01*
X118988674Y-55720568D01*
X118984381Y-55721696D01*
X118980196Y-55721973D01*
X118975790Y-55721421D01*
X118373093Y-55524538D01*
X118135256Y-55446843D01*
X118131278Y-55444607D01*
X118130322Y-55443788D01*
X118126269Y-55435804D01*
X118129047Y-55427293D01*
X118129429Y-55426848D01*
X118134674Y-55423345D01*
X118975794Y-55148576D01*
X118980194Y-55148025D01*
X118984384Y-55148302D01*
G37*
%TD.AperFunction*%
%TD*%
%TA.AperFunction,Conductor*%
%TO.N,/CAN_RX*%
G36*
X113252011Y-52298427D02*
G01*
X113253473Y-52300210D01*
X113444688Y-52587032D01*
X113446426Y-52595817D01*
X113443240Y-52601781D01*
X113158287Y-52887685D01*
X113150019Y-52891126D01*
X113141741Y-52887713D01*
X113141713Y-52887685D01*
X112856759Y-52601781D01*
X112853346Y-52593503D01*
X112855310Y-52587034D01*
X113046527Y-52300210D01*
X113053967Y-52295227D01*
X113056262Y-52295000D01*
X113243738Y-52295000D01*
X113252011Y-52298427D01*
G37*
%TD.AperFunction*%
%TD*%
%TA.AperFunction,Conductor*%
%TO.N,+3.3V*%
G36*
X106481419Y-49753426D02*
G01*
X106484559Y-49759124D01*
X106526231Y-49943820D01*
X106526272Y-49948783D01*
X106393954Y-50583551D01*
X106388911Y-50590950D01*
X106380112Y-50592617D01*
X106372713Y-50587574D01*
X106371046Y-50583551D01*
X106238727Y-49948783D01*
X106238768Y-49943820D01*
X106280441Y-49759124D01*
X106285605Y-49751808D01*
X106291854Y-49749999D01*
X106473146Y-49749999D01*
X106481419Y-49753426D01*
G37*
%TD.AperFunction*%
%TD*%
%TA.AperFunction,Conductor*%
%TO.N,GND*%
G36*
X104892287Y-50687423D02*
G01*
X104893954Y-50691446D01*
X105026272Y-51326214D01*
X105026231Y-51331177D01*
X104984559Y-51515874D01*
X104979395Y-51523190D01*
X104973146Y-51524999D01*
X104791854Y-51524999D01*
X104783581Y-51521572D01*
X104780441Y-51515874D01*
X104738768Y-51331177D01*
X104738727Y-51326214D01*
X104871046Y-50691446D01*
X104876089Y-50684047D01*
X104884888Y-50682380D01*
X104892287Y-50687423D01*
G37*
%TD.AperFunction*%
%TD*%
%TA.AperFunction,Conductor*%
%TO.N,/USART1_TX*%
G36*
X105110388Y-36782302D02*
G01*
X105111152Y-36784148D01*
X105354167Y-37550083D01*
X105353403Y-37559005D01*
X105352130Y-37560956D01*
X105199999Y-37749999D01*
X105200000Y-37750000D01*
X105261521Y-37778330D01*
X105267602Y-37784903D01*
X105267254Y-37793851D01*
X105264900Y-37797230D01*
X105143627Y-37918503D01*
X105135354Y-37921930D01*
X105127082Y-37918503D01*
X105030933Y-37822355D01*
X105028398Y-37818560D01*
X105000002Y-37750003D01*
X105000001Y-37750001D01*
X104847869Y-37560956D01*
X104845352Y-37552362D01*
X104845832Y-37550083D01*
X105088848Y-36784148D01*
X105094616Y-36777298D01*
X105103538Y-36776534D01*
X105110388Y-36782302D01*
G37*
%TD.AperFunction*%
%TD*%
%TA.AperFunction,Conductor*%
%TO.N,/CAN-*%
G36*
X118986637Y-53878452D02*
G01*
X119368366Y-54061813D01*
X119374340Y-54068484D01*
X119375000Y-54072359D01*
X119375000Y-54257640D01*
X119371573Y-54265913D01*
X119368366Y-54268186D01*
X118986637Y-54451547D01*
X118977938Y-54452123D01*
X118373093Y-54254538D01*
X118133045Y-54176121D01*
X118126246Y-54170295D01*
X118125557Y-54161367D01*
X118131384Y-54154567D01*
X118133044Y-54153878D01*
X118977939Y-53877876D01*
X118986637Y-53878452D01*
G37*
%TD.AperFunction*%
%TD*%
%TA.AperFunction,Conductor*%
%TO.N,GND*%
G36*
X103911661Y-53296403D02*
G01*
X104233256Y-53441650D01*
X104326303Y-53483674D01*
X104332432Y-53490203D01*
X104333187Y-53494367D01*
X104331054Y-54327129D01*
X104327606Y-54335393D01*
X104320730Y-54338718D01*
X103534582Y-54431805D01*
X103525963Y-54429375D01*
X103524933Y-54428459D01*
X103393561Y-54297087D01*
X103390134Y-54288814D01*
X103391430Y-54283462D01*
X103670406Y-53741128D01*
X103672533Y-53738213D01*
X103719002Y-53691745D01*
X103746302Y-53664446D01*
X103806308Y-53568947D01*
X103843559Y-53462490D01*
X103851682Y-53390393D01*
X103852901Y-53386359D01*
X103896444Y-53301713D01*
X103903275Y-53295926D01*
X103911661Y-53296403D01*
G37*
%TD.AperFunction*%
%TD*%
%TA.AperFunction,Conductor*%
%TO.N,GND*%
G36*
X107695000Y-56274999D02*
G01*
X107470000Y-56288170D01*
X107245000Y-56015191D01*
X107370000Y-55687170D01*
X107570000Y-55687170D01*
X107695000Y-56274999D01*
G37*
%TD.AperFunction*%
%TD*%
%TA.AperFunction,Conductor*%
%TO.N,GND*%
G36*
X100403161Y-55560087D02*
G01*
X100409903Y-55565982D01*
X100410235Y-55566715D01*
X100589401Y-56001589D01*
X100589384Y-56010544D01*
X100583040Y-56016864D01*
X100582949Y-56016901D01*
X99773072Y-56342635D01*
X99764118Y-56342543D01*
X99760433Y-56340053D01*
X99629850Y-56209470D01*
X99626423Y-56201197D01*
X99627199Y-56197007D01*
X99696300Y-56016864D01*
X99928476Y-55411590D01*
X99934638Y-55405096D01*
X99943143Y-55404698D01*
X100403161Y-55560087D01*
G37*
%TD.AperFunction*%
%TD*%
%TA.AperFunction,Conductor*%
%TO.N,/SWCLK*%
G36*
X108036910Y-40386566D02*
G01*
X108492189Y-40472681D01*
X108496420Y-40474386D01*
X108499310Y-40476278D01*
X108503721Y-40481613D01*
X108660318Y-40861962D01*
X108661199Y-40866442D01*
X108661195Y-40868223D01*
X108657750Y-40876487D01*
X108657748Y-40876489D01*
X108657748Y-40876490D01*
X108656512Y-40877720D01*
X108652647Y-40880273D01*
X107980096Y-41152334D01*
X107975613Y-41153188D01*
X107973143Y-41153168D01*
X107965774Y-41150478D01*
X107965133Y-41149947D01*
X107962871Y-41147440D01*
X107960940Y-41144550D01*
X107960939Y-41144550D01*
X107796527Y-41144550D01*
X107792050Y-41143659D01*
X107790401Y-41142976D01*
X107784072Y-41136645D01*
X107783389Y-41134995D01*
X107782500Y-41130522D01*
X107782500Y-41095978D01*
X107782724Y-41093698D01*
X107783168Y-41091467D01*
X107783828Y-41089292D01*
X107811784Y-41021802D01*
X107811786Y-41021796D01*
X107811789Y-41021789D01*
X108021025Y-40396197D01*
X108023289Y-40392236D01*
X108024760Y-40390545D01*
X108031975Y-40386634D01*
X108033132Y-40386474D01*
X108036910Y-40386566D01*
G37*
%TD.AperFunction*%
%TD*%
%TA.AperFunction,Conductor*%
%TO.N,GND*%
G36*
X100120329Y-56412499D02*
G01*
X100120329Y-56612499D01*
X99532500Y-56737499D01*
X99519329Y-56512499D01*
X99792308Y-56287499D01*
X100120329Y-56412499D01*
G37*
%TD.AperFunction*%
%TD*%
%TA.AperFunction,Conductor*%
%TO.N,+3.3V*%
G36*
X106023684Y-51218705D02*
G01*
X106028970Y-51225933D01*
X106029169Y-51230459D01*
X106010994Y-51349998D01*
X106008640Y-51355450D01*
X105928211Y-51458208D01*
X105928211Y-51458210D01*
X105948191Y-51495244D01*
X105949103Y-51504152D01*
X105943449Y-51511096D01*
X105937894Y-51512499D01*
X105769200Y-51512499D01*
X105760927Y-51509072D01*
X105757500Y-51500799D01*
X105757500Y-51389824D01*
X105758391Y-51385347D01*
X105786789Y-51316788D01*
X105786789Y-51316787D01*
X105766153Y-51296152D01*
X105762726Y-51287879D01*
X105766153Y-51279606D01*
X105771658Y-51276511D01*
X106014837Y-51217332D01*
X106023684Y-51218705D01*
G37*
%TD.AperFunction*%
%TD*%
%TA.AperFunction,Conductor*%
%TO.N,+3.3V*%
G36*
X124235675Y-36702108D02*
G01*
X124235935Y-36702737D01*
X124511794Y-37427706D01*
X124511534Y-37436657D01*
X124511405Y-37436933D01*
X124328187Y-37818366D01*
X124321516Y-37824340D01*
X124317641Y-37825000D01*
X124132359Y-37825000D01*
X124124086Y-37821573D01*
X124121813Y-37818366D01*
X123938594Y-37436933D01*
X123938100Y-37427992D01*
X123938205Y-37427706D01*
X124214065Y-36702737D01*
X124220210Y-36696223D01*
X124229161Y-36695963D01*
X124235675Y-36702108D01*
G37*
%TD.AperFunction*%
%TD*%
%TA.AperFunction,Conductor*%
%TO.N,/NRST*%
G36*
X101347916Y-39131495D02*
G01*
X101444065Y-39227643D01*
X101446601Y-39231439D01*
X101474996Y-39299994D01*
X101475001Y-39300002D01*
X101592328Y-39451111D01*
X101752976Y-39658015D01*
X101755343Y-39666650D01*
X101752274Y-39673187D01*
X101383539Y-40066882D01*
X101375383Y-40070578D01*
X101367002Y-40067423D01*
X101366461Y-40066882D01*
X100997725Y-39673187D01*
X100994570Y-39664806D01*
X100997021Y-39658018D01*
X101275000Y-39300000D01*
X101275000Y-39299999D01*
X101213478Y-39271669D01*
X101207397Y-39265096D01*
X101207745Y-39256148D01*
X101210096Y-39252772D01*
X101331373Y-39131495D01*
X101339645Y-39128069D01*
X101347916Y-39131495D01*
G37*
%TD.AperFunction*%
%TD*%
M02*
