%TF.GenerationSoftware,KiCad,Pcbnew,10.0.5*%
%TF.CreationDate,2026-10-03T22:29:29+08:00*%
%TF.ProjectId,TTLtoCANforTOF,54544c74-6f43-4414-9e66-6f72544f462e,rev?*%
%TF.SameCoordinates,Original*%
%TF.FileFunction,Soldermask,Bot*%
%TF.FilePolarity,Negative*%
%FSLAX46Y46*%
G04 Gerber Fmt 4.6, Leading zero omitted, Abs format (unit mm)*
G04 Created by KiCad (PCBNEW 10.0.5) date 2026-10-03 22:29:29*
%MOMM*%
%LPD*%
G01*
G04 APERTURE LIST*
G04 Aperture macros list*
%AMRoundRect*
0 Rectangle with rounded corners*
0 $1 Rounding radius*
0 $2 $3 $4 $5 $6 $7 $8 $9 X,Y pos of 4 corners*
0 Add a 4 corners polygon primitive as box body*
4,1,4,$2,$3,$4,$5,$6,$7,$8,$9,$2,$3,0*
0 Add four circle primitives for the rounded corners*
1,1,$1+$1,$2,$3*
1,1,$1+$1,$4,$5*
1,1,$1+$1,$6,$7*
1,1,$1+$1,$8,$9*
0 Add four rect primitives between the rounded corners*
20,1,$1+$1,$2,$3,$4,$5,0*
20,1,$1+$1,$4,$5,$6,$7,0*
20,1,$1+$1,$6,$7,$8,$9,0*
20,1,$1+$1,$8,$9,$2,$3,0*%
G04 Aperture macros list end*
%ADD10RoundRect,0.760000X1.140000X-1.140000X1.140000X1.140000X-1.140000X1.140000X-1.140000X-1.140000X0*%
%ADD11C,4.000000*%
%ADD12RoundRect,0.150000X0.700000X-0.150000X0.700000X0.150000X-0.700000X0.150000X-0.700000X-0.150000X0*%
%ADD13RoundRect,0.250000X1.100000X-0.250000X1.100000X0.250000X-1.100000X0.250000X-1.100000X-0.250000X0*%
%ADD14RoundRect,0.200000X0.275000X-0.200000X0.275000X0.200000X-0.275000X0.200000X-0.275000X-0.200000X0*%
%ADD15RoundRect,0.225000X-0.250000X0.225000X-0.250000X-0.225000X0.250000X-0.225000X0.250000X0.225000X0*%
%ADD16RoundRect,0.225000X0.250000X-0.225000X0.250000X0.225000X-0.250000X0.225000X-0.250000X-0.225000X0*%
%ADD17R,1.700000X0.900000*%
%ADD18RoundRect,0.150000X0.825000X0.150000X-0.825000X0.150000X-0.825000X-0.150000X0.825000X-0.150000X0*%
%ADD19RoundRect,0.250000X-0.475000X0.250000X-0.475000X-0.250000X0.475000X-0.250000X0.475000X0.250000X0*%
%ADD20RoundRect,0.150000X0.150000X0.700000X-0.150000X0.700000X-0.150000X-0.700000X0.150000X-0.700000X0*%
%ADD21RoundRect,0.250000X0.250000X1.100000X-0.250000X1.100000X-0.250000X-1.100000X0.250000X-1.100000X0*%
%ADD22RoundRect,0.225000X0.225000X0.250000X-0.225000X0.250000X-0.225000X-0.250000X0.225000X-0.250000X0*%
%ADD23RoundRect,0.250000X0.250000X0.475000X-0.250000X0.475000X-0.250000X-0.475000X0.250000X-0.475000X0*%
%ADD24RoundRect,0.075000X-0.075000X0.662500X-0.075000X-0.662500X0.075000X-0.662500X0.075000X0.662500X0*%
%ADD25RoundRect,0.075000X-0.662500X0.075000X-0.662500X-0.075000X0.662500X-0.075000X0.662500X0.075000X0*%
%ADD26RoundRect,0.250000X-0.450000X-0.350000X0.450000X-0.350000X0.450000X0.350000X-0.450000X0.350000X0*%
%ADD27RoundRect,0.225000X-0.225000X-0.250000X0.225000X-0.250000X0.225000X0.250000X-0.225000X0.250000X0*%
%ADD28RoundRect,0.150000X-0.512500X-0.150000X0.512500X-0.150000X0.512500X0.150000X-0.512500X0.150000X0*%
G04 APERTURE END LIST*
D10*
%TO.C,J4*%
X180475000Y-76975000D03*
D11*
X180475000Y-71975000D03*
%TD*%
D12*
%TO.C,J6*%
X154074000Y-76099980D03*
X154074000Y-74849980D03*
X154074000Y-73599980D03*
X154074000Y-72349980D03*
D13*
X150874000Y-77949980D03*
X150874000Y-70499980D03*
%TD*%
D14*
%TO.C,R7*%
X165500000Y-73325000D03*
X165500000Y-71675000D03*
%TD*%
D15*
%TO.C,C12*%
X163550000Y-68075000D03*
X163550000Y-69625000D03*
%TD*%
D16*
%TO.C,C19*%
X168632500Y-63999999D03*
X168632500Y-62449999D03*
%TD*%
D15*
%TO.C,C16*%
X170825000Y-62587500D03*
X170825000Y-64137500D03*
%TD*%
D14*
%TO.C,R6*%
X178625000Y-68650000D03*
X178625000Y-67000000D03*
%TD*%
D17*
%TO.C,SW1*%
X180325000Y-65375000D03*
X180325000Y-61975000D03*
%TD*%
D18*
%TO.C,U6*%
X164899999Y-62460000D03*
X164899999Y-63730000D03*
X164899999Y-65000000D03*
X164899999Y-66270000D03*
X159949999Y-66270000D03*
X159949999Y-65000000D03*
X159949999Y-63730000D03*
X159949999Y-62460000D03*
%TD*%
D19*
%TO.C,C11*%
X165550000Y-68250000D03*
X165550000Y-70150000D03*
%TD*%
D20*
%TO.C,J3*%
X162750000Y-75275000D03*
X161500000Y-75275000D03*
X160250000Y-75275000D03*
X159000000Y-75275000D03*
D21*
X164600000Y-78475000D03*
X157150000Y-78475000D03*
%TD*%
D16*
%TO.C,C21*%
X166950000Y-64950000D03*
X166950000Y-63400000D03*
%TD*%
D12*
%TO.C,J2*%
X154074000Y-64990000D03*
X154074000Y-63740000D03*
D13*
X150874000Y-66840000D03*
X150874000Y-61890000D03*
%TD*%
D15*
%TO.C,C17*%
X177000000Y-62587500D03*
X177000000Y-64137500D03*
%TD*%
D22*
%TO.C,C10*%
X157550000Y-66800000D03*
X156000000Y-66800000D03*
%TD*%
D23*
%TO.C,C9*%
X157600000Y-70075000D03*
X155700000Y-70075000D03*
%TD*%
D24*
%TO.C,U3*%
X169525000Y-67512500D03*
X170025000Y-67512500D03*
X170525000Y-67512500D03*
X171025000Y-67512500D03*
X171525000Y-67512500D03*
X172025000Y-67512500D03*
X172525000Y-67512500D03*
X173025000Y-67512500D03*
X173525000Y-67512500D03*
X174025000Y-67512500D03*
X174525000Y-67512500D03*
X175025000Y-67512500D03*
D25*
X176437500Y-71425000D03*
X176437500Y-69425000D03*
X176437500Y-69925000D03*
X176437500Y-70425000D03*
X176437500Y-70925000D03*
X176437500Y-71925000D03*
X176437500Y-72425000D03*
X176437500Y-72925000D03*
X176437500Y-73425000D03*
X176437500Y-73925000D03*
X176437500Y-74425000D03*
D24*
X175025000Y-75837500D03*
X174525000Y-75837500D03*
X174025000Y-75837500D03*
X173525000Y-75837500D03*
X172525000Y-75837500D03*
X172025000Y-75837500D03*
X171525000Y-75837500D03*
X171025000Y-75837500D03*
X170525000Y-75837500D03*
X170025000Y-75837500D03*
X169525000Y-75837500D03*
D25*
X168112500Y-74425000D03*
X168112500Y-73925000D03*
X168112500Y-73425000D03*
X168112500Y-72925000D03*
X168112500Y-72425000D03*
X168112500Y-71925000D03*
X168112500Y-71425000D03*
X168112500Y-70925000D03*
X168112500Y-69925000D03*
X168112500Y-69425000D03*
X168112500Y-68925000D03*
%TD*%
D26*
%TO.C,Y1*%
X172825000Y-62712500D03*
X175025000Y-62712500D03*
X175025000Y-64412500D03*
X172825000Y-64412500D03*
%TD*%
D27*
%TO.C,C18*%
X180375000Y-67050000D03*
X181925000Y-67050000D03*
%TD*%
D28*
%TO.C,U2*%
X159400000Y-69750000D03*
X159400000Y-68800000D03*
X159400000Y-67850000D03*
X161675000Y-67850000D03*
X161675000Y-69750000D03*
%TD*%
M02*
