%TF.GenerationSoftware,KiCad,Pcbnew,10.0.5*%
%TF.CreationDate,2026-10-05T21:51:47+08:00*%
%TF.ProjectId,TTLtoCANforTOF,54544c74-6f43-4414-9e66-6f72544f462e,rev?*%
%TF.SameCoordinates,Original*%
%TF.FileFunction,Copper,L1,Top*%
%TF.FilePolarity,Positive*%
%FSLAX46Y46*%
G04 Gerber Fmt 4.6, Leading zero omitted, Abs format (unit mm)*
G04 Created by KiCad (PCBNEW 10.0.5) date 2026-10-05 21:51:47*
%MOMM*%
%LPD*%
G01*
G04 APERTURE LIST*
G04 Aperture macros list*
%AMRoundRect*
0 Rectangle with rounded corners*
0 $1 Rounding radius*
0 $2 $3 $4 $5 $6 $7 $8 $9 X,Y pos of 4 corners*
0 Add a 4 corners polygon primitive as box body*
4,1,4,$2,$3,$4,$5,$6,$7,$8,$9,$2,$3,0*
0 Add four circle primitives for the rounded corners*
1,1,$1+$1,$2,$3*
1,1,$1+$1,$4,$5*
1,1,$1+$1,$6,$7*
1,1,$1+$1,$8,$9*
0 Add four rect primitives between the rounded corners*
20,1,$1+$1,$2,$3,$4,$5,0*
20,1,$1+$1,$4,$5,$6,$7,0*
20,1,$1+$1,$6,$7,$8,$9,0*
20,1,$1+$1,$8,$9,$2,$3,0*%
G04 Aperture macros list end*
%TA.AperFunction,Conductor*%
%ADD10C,0.200000*%
%TD*%
%TA.AperFunction,SMDPad,CuDef*%
%ADD11RoundRect,0.200000X-0.275000X0.200000X-0.275000X-0.200000X0.275000X-0.200000X0.275000X0.200000X0*%
%TD*%
%TA.AperFunction,SMDPad,CuDef*%
%ADD12RoundRect,0.225000X-0.225000X-0.250000X0.225000X-0.250000X0.225000X0.250000X-0.225000X0.250000X0*%
%TD*%
%TA.AperFunction,SMDPad,CuDef*%
%ADD13RoundRect,0.150000X-0.150000X0.587500X-0.150000X-0.587500X0.150000X-0.587500X0.150000X0.587500X0*%
%TD*%
%TA.AperFunction,SMDPad,CuDef*%
%ADD14RoundRect,0.200000X0.275000X-0.200000X0.275000X0.200000X-0.275000X0.200000X-0.275000X-0.200000X0*%
%TD*%
%TA.AperFunction,SMDPad,CuDef*%
%ADD15RoundRect,0.200000X-0.200000X-0.275000X0.200000X-0.275000X0.200000X0.275000X-0.200000X0.275000X0*%
%TD*%
%TA.AperFunction,SMDPad,CuDef*%
%ADD16RoundRect,0.225000X0.250000X-0.225000X0.250000X0.225000X-0.250000X0.225000X-0.250000X-0.225000X0*%
%TD*%
%TA.AperFunction,SMDPad,CuDef*%
%ADD17RoundRect,0.225000X-0.225000X-0.375000X0.225000X-0.375000X0.225000X0.375000X-0.225000X0.375000X0*%
%TD*%
%TA.AperFunction,SMDPad,CuDef*%
%ADD18RoundRect,0.150000X0.150000X-0.512500X0.150000X0.512500X-0.150000X0.512500X-0.150000X-0.512500X0*%
%TD*%
%TA.AperFunction,SMDPad,CuDef*%
%ADD19RoundRect,0.250000X0.475000X-0.250000X0.475000X0.250000X-0.475000X0.250000X-0.475000X-0.250000X0*%
%TD*%
%TA.AperFunction,SMDPad,CuDef*%
%ADD20RoundRect,0.150000X0.700000X-0.150000X0.700000X0.150000X-0.700000X0.150000X-0.700000X-0.150000X0*%
%TD*%
%TA.AperFunction,SMDPad,CuDef*%
%ADD21RoundRect,0.250000X1.150000X-0.250000X1.150000X0.250000X-1.150000X0.250000X-1.150000X-0.250000X0*%
%TD*%
%TA.AperFunction,SMDPad,CuDef*%
%ADD22RoundRect,0.249999X1.850001X-0.450001X1.850001X0.450001X-1.850001X0.450001X-1.850001X-0.450001X0*%
%TD*%
%TA.AperFunction,SMDPad,CuDef*%
%ADD23RoundRect,0.250000X-1.100000X0.325000X-1.100000X-0.325000X1.100000X-0.325000X1.100000X0.325000X0*%
%TD*%
%TA.AperFunction,ComponentPad*%
%ADD24RoundRect,0.760000X-1.140000X1.140000X-1.140000X-1.140000X1.140000X-1.140000X1.140000X1.140000X0*%
%TD*%
%TA.AperFunction,ComponentPad*%
%ADD25C,4.000000*%
%TD*%
%TA.AperFunction,ViaPad*%
%ADD26C,0.600000*%
%TD*%
%TA.AperFunction,Conductor*%
%ADD27C,1.000000*%
%TD*%
%TA.AperFunction,Conductor*%
%ADD28C,0.300000*%
%TD*%
%TA.AperFunction,Conductor*%
%ADD29C,0.600000*%
%TD*%
%TA.AperFunction,Conductor*%
%ADD30C,0.500000*%
%TD*%
G04 APERTURE END LIST*
D10*
%TO.N,VCC_IN*%
X175838253Y-74479395D02*
X175875000Y-74425000D01*
X178525456Y-74425000D01*
X178853547Y-74049060D01*
X178846616Y-72732421D01*
X179599938Y-71976066D01*
X181767584Y-71982226D01*
X182650000Y-72995372D01*
X182650000Y-75416669D01*
X182164705Y-75875000D01*
X175934999Y-75875000D01*
X175725000Y-75612501D01*
X175729916Y-74696068D01*
X175838253Y-74479395D01*
%TA.AperFunction,Conductor*%
G36*
X181767584Y-71982226D02*
G01*
X182650000Y-72995372D01*
X182650000Y-75416669D01*
X182164705Y-75875000D01*
X175934999Y-75875000D01*
X175725000Y-75612501D01*
X175729916Y-74696068D01*
X175838253Y-74479395D01*
X175875000Y-74425000D01*
X178525456Y-74425000D01*
X178853547Y-74049060D01*
X178846616Y-72732421D01*
X179599938Y-71976066D01*
X181767584Y-71982226D01*
G37*
%TD.AperFunction*%
%TO.N,+24V*%
X174775000Y-73950000D02*
X174925000Y-74100000D01*
X175425000Y-74100000D01*
X175500000Y-73950000D01*
X175500000Y-69800000D01*
X175800000Y-69525000D01*
X175800000Y-68875000D01*
X175625000Y-68700000D01*
X173175000Y-68650000D01*
X173025000Y-68850000D01*
X173025000Y-72375000D01*
X174775000Y-73950000D01*
%TA.AperFunction,Conductor*%
G36*
X175625000Y-68700000D02*
G01*
X175800000Y-68875000D01*
X175800000Y-69525000D01*
X175500000Y-69800000D01*
X175500000Y-73950000D01*
X175425000Y-74100000D01*
X174925000Y-74100000D01*
X174775000Y-73950000D01*
X173025000Y-72375000D01*
X173025000Y-68850000D01*
X173175000Y-68650000D01*
X175625000Y-68700000D01*
G37*
%TD.AperFunction*%
%TD*%
D11*
%TO.P,R4,1*%
%TO.N,5V*%
X158750000Y-68775000D03*
%TO.P,R4,2*%
%TO.N,Net-(U4-FB)*%
X158750000Y-70425000D03*
%TD*%
D12*
%TO.P,C15,1*%
%TO.N,+3.3V*%
X173000000Y-65975000D03*
%TO.P,C15,2*%
%TO.N,GND*%
X174550000Y-65975000D03*
%TD*%
D13*
%TO.P,Q2,1,G_1*%
%TO.N,Net-(D3-A)*%
X177050000Y-73337500D03*
%TO.P,Q2,2,S_2*%
%TO.N,+24V*%
X175150000Y-73337500D03*
%TO.P,Q2,3,D_3*%
%TO.N,VCC_IN*%
X176100000Y-75212500D03*
%TD*%
D14*
%TO.P,R9,1*%
%TO.N,+24V*%
X175275000Y-69150000D03*
%TO.P,R9,2*%
%TO.N,Net-(D3-A)*%
X175275000Y-67500000D03*
%TD*%
D15*
%TO.P,R5,1*%
%TO.N,Net-(U4-FB)*%
X160675000Y-70550000D03*
%TO.P,R5,2*%
%TO.N,GND*%
X162325000Y-70550000D03*
%TD*%
D16*
%TO.P,C20,1*%
%TO.N,GND*%
X156750000Y-73500000D03*
%TO.P,C20,2*%
%TO.N,5V*%
X156750000Y-71950000D03*
%TD*%
D17*
%TO.P,D3,1,K_1*%
%TO.N,+24V*%
X173600000Y-71025000D03*
%TO.P,D3,2,A_2*%
%TO.N,Net-(D3-A)*%
X176900000Y-71025000D03*
%TD*%
D12*
%TO.P,C2,1*%
%TO.N,GND*%
X158662500Y-63837500D03*
%TO.P,C2,2*%
%TO.N,+24V*%
X160212500Y-63837500D03*
%TD*%
D16*
%TO.P,C13,1*%
%TO.N,+3.3V*%
X168450000Y-64675000D03*
%TO.P,C13,2*%
%TO.N,GND*%
X168450000Y-63125000D03*
%TD*%
D11*
%TO.P,R8,1*%
%TO.N,GND*%
X176900000Y-67475000D03*
%TO.P,R8,2*%
%TO.N,Net-(D3-A)*%
X176900000Y-69125000D03*
%TD*%
D18*
%TO.P,U4,1,BS_1*%
%TO.N,Net-(U4-BS)*%
X160175000Y-68025000D03*
%TO.P,U4,2,GND_2*%
%TO.N,GND*%
X161125000Y-68025000D03*
%TO.P,U4,3,FB_3*%
%TO.N,Net-(U4-FB)*%
X162075000Y-68025000D03*
%TO.P,U4,4,EN_4*%
%TO.N,Net-(U4-EN)*%
X162075000Y-65750000D03*
%TO.P,U4,5,VIN_5*%
%TO.N,+24V*%
X161125000Y-65750000D03*
%TO.P,U4,6,SW_6*%
%TO.N,Net-(U4-SW)*%
X160175000Y-65750000D03*
%TD*%
D19*
%TO.P,C6,1*%
%TO.N,GND*%
X154900000Y-73750000D03*
%TO.P,C6,2*%
%TO.N,5V*%
X154900000Y-71850000D03*
%TD*%
D16*
%TO.P,C1,1*%
%TO.N,Net-(U4-BS)*%
X158625000Y-67250000D03*
%TO.P,C1,2*%
%TO.N,Net-(U4-SW)*%
X158625000Y-65700000D03*
%TD*%
D20*
%TO.P,J3,1,Pin_1_1*%
%TO.N,/USART1_TX*%
X169150000Y-72950000D03*
%TO.P,J3,2,Pin_2_2*%
%TO.N,/USART1_RX*%
X169150000Y-71700000D03*
%TO.P,J3,3,Pin_3_3*%
%TO.N,GND*%
X169150000Y-70450000D03*
%TO.P,J3,4,Pin_4_4*%
%TO.N,5V*%
X169150000Y-69200000D03*
D21*
%TO.P,J3,MP,MountPin_MP*%
%TO.N,GND*%
X165800000Y-74800000D03*
X165800000Y-67350000D03*
%TD*%
D16*
%TO.P,C14,1*%
%TO.N,+3.3V*%
X171425000Y-65925000D03*
%TO.P,C14,2*%
%TO.N,GND*%
X171425000Y-64375000D03*
%TD*%
D22*
%TO.P,L1,1*%
%TO.N,5V*%
X155050000Y-69400000D03*
%TO.P,L1,2*%
%TO.N,Net-(U4-SW)*%
X155050000Y-65700000D03*
%TD*%
D11*
%TO.P,R1,2*%
%TO.N,Net-(U4-EN)*%
X163700000Y-65550000D03*
%TO.P,R1,1*%
%TO.N,+24V*%
X163700000Y-63900000D03*
%TD*%
D23*
%TO.P,C3,1*%
%TO.N,GND*%
X166050000Y-61900000D03*
%TO.P,C3,2*%
%TO.N,+24V*%
X166050000Y-64850000D03*
%TD*%
D24*
%TO.P,J4,1,Pin_1_1*%
%TO.N,GND*%
X180750000Y-68900000D03*
D25*
%TO.P,J4,2,Pin_2_2*%
%TO.N,VCC_IN*%
X180750000Y-73900000D03*
%TD*%
D26*
%TO.N,+3.3V*%
X168800000Y-65100000D03*
X170725000Y-65650000D03*
%TO.N,GND*%
X157175000Y-62025000D03*
X173000000Y-64825000D03*
X151925000Y-71350000D03*
X175575000Y-61562500D03*
X182850000Y-66425000D03*
X164825000Y-68725000D03*
X164150000Y-76425000D03*
X154900000Y-73750000D03*
X169981250Y-64793750D03*
X156225000Y-75800000D03*
X182850000Y-67050000D03*
X153100000Y-75125000D03*
X155600000Y-76450000D03*
X168800000Y-62400000D03*
X177218750Y-65218750D03*
X156550000Y-62050000D03*
X152450000Y-62550000D03*
X164775000Y-75775000D03*
X153100000Y-75750000D03*
X182325000Y-70050000D03*
X153075000Y-62550000D03*
X152475000Y-75775000D03*
X178000000Y-61600000D03*
X162325000Y-70550000D03*
X162525000Y-75825000D03*
X152450000Y-63200000D03*
X157175000Y-61400000D03*
X172325000Y-61562500D03*
X176075000Y-66275000D03*
X182325000Y-70700000D03*
X152475000Y-75125000D03*
X151300000Y-71350000D03*
X161900000Y-75825000D03*
X151975000Y-67725000D03*
X164150000Y-75775000D03*
X182225000Y-66425000D03*
X151350000Y-67725000D03*
X151300000Y-72000000D03*
X151925000Y-71975000D03*
X153075000Y-63175000D03*
X156550000Y-61400000D03*
X164775000Y-76400000D03*
X182950000Y-70050000D03*
X169950000Y-61525000D03*
X182950000Y-70675000D03*
X151350000Y-68375000D03*
X155600000Y-75800000D03*
X161125000Y-68200000D03*
X177975000Y-63425000D03*
X151975000Y-68350000D03*
X156225000Y-76425000D03*
X182225000Y-67075000D03*
X161900000Y-76475000D03*
X162525000Y-76450000D03*
X163275000Y-69525000D03*
X166935000Y-62965000D03*
%TO.N,5V*%
X161150000Y-69300000D03*
%TO.N,/USART1_TX*%
X171400000Y-74400000D03*
%TO.N,/USART1_RX*%
X170925000Y-73425000D03*
%TD*%
%TO.N,+24V*%
D27*
X164937500Y-63837500D02*
X161150000Y-63837500D01*
X169750000Y-66100000D02*
X167200000Y-66100000D01*
X172910618Y-68675000D02*
X171310618Y-67075000D01*
X172925000Y-68675000D02*
X172910618Y-68675000D01*
X170725000Y-67075000D02*
X169750000Y-66100000D01*
X167200000Y-66100000D02*
X164937500Y-63837500D01*
X173600000Y-69350000D02*
X172925000Y-68675000D01*
X173600000Y-71025000D02*
X173600000Y-69350000D01*
X171310618Y-67075000D02*
X170725000Y-67075000D01*
%TO.N,+3.3V*%
D28*
X172950000Y-65925000D02*
X173000000Y-65975000D01*
X171425000Y-65925000D02*
X172950000Y-65925000D01*
D10*
X170725000Y-65650000D02*
X171075000Y-66000000D01*
%TO.N,/USART1_TX*%
X170600000Y-74400000D02*
X169150000Y-72950000D01*
X171400000Y-74400000D02*
X170600000Y-74400000D01*
X171400000Y-74400000D02*
X171375000Y-74375000D01*
X171400000Y-74400000D02*
X171400000Y-74409754D01*
%TO.N,/USART1_RX*%
X170375000Y-71700000D02*
X169150000Y-71700000D01*
X170925000Y-73425000D02*
X170925000Y-72250000D01*
X170925000Y-72250000D02*
X170375000Y-71700000D01*
%TO.N,+24V*%
D29*
X161125000Y-65750000D02*
X161125000Y-63862500D01*
%TO.N,Net-(U4-FB)*%
D10*
X162075000Y-68250000D02*
X162262500Y-68062500D01*
X162075000Y-69450000D02*
X162075000Y-68250000D01*
X160675000Y-70550000D02*
X160975000Y-70550000D01*
X160975000Y-70550000D02*
X162075000Y-69450000D01*
%TO.N,Net-(U4-EN)*%
D30*
X163650000Y-65600000D02*
X163700000Y-65550000D01*
X162225000Y-65600000D02*
X163650000Y-65600000D01*
X162075000Y-65750000D02*
X162225000Y-65600000D01*
D10*
X163500000Y-65750000D02*
X163700000Y-65550000D01*
%TO.N,Net-(U4-SW)*%
D29*
X155225000Y-65700000D02*
X155137500Y-65787500D01*
X160150000Y-65700000D02*
X155225000Y-65700000D01*
X160187500Y-65737500D02*
X160150000Y-65700000D01*
%TO.N,+3.3V*%
D10*
X168740588Y-65134412D02*
X168675000Y-65200000D01*
X168625000Y-65200000D02*
X168400000Y-64975000D01*
X168675000Y-65200000D02*
X168625000Y-65200000D01*
X168400000Y-64975000D02*
X168400000Y-64675000D01*
X168800000Y-65100000D02*
X168765588Y-65134412D01*
X168765588Y-65134412D02*
X168740588Y-65134412D01*
%TO.N,Net-(D3-A)*%
D29*
X176900000Y-69125000D02*
X176900000Y-71025000D01*
X177050000Y-73337500D02*
X177050000Y-71175000D01*
D30*
X175275000Y-67500000D02*
X176900000Y-69125000D01*
D10*
X177050000Y-71175000D02*
X176900000Y-71025000D01*
%TO.N,+24V*%
D27*
X161150000Y-63837500D02*
X160212500Y-63837500D01*
%TO.N,5V*%
D29*
X159500000Y-69300000D02*
X161150000Y-69300000D01*
X163275000Y-71950000D02*
X166025000Y-69200000D01*
X155675000Y-68775000D02*
X158975000Y-68775000D01*
X155050000Y-69400000D02*
X155675000Y-68775000D01*
X154900000Y-71850000D02*
X156650000Y-71850000D01*
X158975000Y-68775000D02*
X159500000Y-69300000D01*
D10*
X155050000Y-71700000D02*
X154900000Y-71850000D01*
D29*
X166025000Y-69200000D02*
X169150000Y-69200000D01*
X156750000Y-71950000D02*
X163275000Y-71950000D01*
X155050000Y-69400000D02*
X155050000Y-71700000D01*
D10*
X156650000Y-71850000D02*
X156750000Y-71950000D01*
%TO.N,Net-(U4-SW)*%
X155137500Y-65787500D02*
X155050000Y-65700000D01*
X155137500Y-65612500D02*
X155050000Y-65700000D01*
%TO.N,Net-(U4-BS)*%
D28*
X159575000Y-67275000D02*
X160362500Y-68062500D01*
X158750000Y-67275000D02*
X159575000Y-67275000D01*
%TO.N,Net-(U4-FB)*%
D10*
X159100000Y-70550000D02*
X159000000Y-70450000D01*
X160675000Y-70550000D02*
X159100000Y-70550000D01*
%TD*%
%TA.AperFunction,Conductor*%
%TO.N,GND*%
G36*
X161447372Y-66898857D02*
G01*
X161497003Y-66926140D01*
X161512809Y-66980506D01*
X161512656Y-66981896D01*
X161491426Y-67026126D01*
X161406919Y-67110633D01*
X161323256Y-67252098D01*
X161277402Y-67409927D01*
X161274500Y-67446806D01*
X161274500Y-68410781D01*
X161272796Y-68414894D01*
X161268867Y-68439099D01*
X161264556Y-68449507D01*
X161254148Y-68459915D01*
X161252826Y-68463107D01*
X161249387Y-68464676D01*
X161224508Y-68489555D01*
X161224507Y-68489556D01*
X161214099Y-68493867D01*
X161185781Y-68499500D01*
X161064219Y-68499500D01*
X161035904Y-68493868D01*
X161025495Y-68489557D01*
X161016878Y-68480941D01*
X161005319Y-68477087D01*
X160997621Y-68461686D01*
X160985446Y-68449513D01*
X160981129Y-68439091D01*
X160975500Y-68410781D01*
X160975500Y-68304430D01*
X160976921Y-68289997D01*
X160979711Y-68275967D01*
X160983923Y-68262087D01*
X160987999Y-68252247D01*
X160988001Y-68252243D01*
X161012999Y-68126569D01*
X161012999Y-67998431D01*
X160988001Y-67872756D01*
X160988000Y-67872754D01*
X160987999Y-67872749D01*
X160983923Y-67862912D01*
X160979709Y-67849024D01*
X160976919Y-67834996D01*
X160975500Y-67820568D01*
X160975500Y-67446805D01*
X160974634Y-67435805D01*
X160974634Y-67435804D01*
X160974286Y-67431384D01*
X160972598Y-67409931D01*
X160926744Y-67252102D01*
X160921589Y-67243386D01*
X160843080Y-67110634D01*
X160762609Y-67030163D01*
X160746569Y-67006157D01*
X160743519Y-66998793D01*
X160743521Y-66942158D01*
X160783535Y-66902125D01*
X160784833Y-66901587D01*
X160833820Y-66898881D01*
X160865994Y-66908228D01*
X160866704Y-66908507D01*
X160871988Y-66909975D01*
X160872828Y-66910213D01*
X160872841Y-66910216D01*
X160872994Y-66910233D01*
X160875311Y-66910324D01*
X160909306Y-66913000D01*
X160909307Y-66913000D01*
X161340693Y-66913000D01*
X161340694Y-66913000D01*
X161374688Y-66910324D01*
X161377001Y-66910233D01*
X161377158Y-66910216D01*
X161378003Y-66909977D01*
X161383298Y-66908506D01*
X161384004Y-66908228D01*
X161410693Y-66900474D01*
X161439448Y-66897983D01*
X161447372Y-66898857D01*
G37*
%TD.AperFunction*%
%TA.AperFunction,Conductor*%
G36*
X182498369Y-60900569D02*
G01*
X182501619Y-60900711D01*
X182504810Y-60900921D01*
X182535772Y-60903629D01*
X182542266Y-60904197D01*
X182663890Y-60914838D01*
X182670274Y-60915678D01*
X182673684Y-60916278D01*
X182676623Y-60916796D01*
X182682918Y-60918191D01*
X182832479Y-60958266D01*
X182838630Y-60960206D01*
X182844682Y-60962409D01*
X182850644Y-60964878D01*
X182990966Y-61030312D01*
X182996677Y-61033285D01*
X183002263Y-61036510D01*
X183007688Y-61039966D01*
X183134518Y-61128774D01*
X183139635Y-61132700D01*
X183144571Y-61136842D01*
X183149329Y-61141202D01*
X183258796Y-61250669D01*
X183263156Y-61255427D01*
X183267298Y-61260363D01*
X183271229Y-61265486D01*
X183360022Y-61392295D01*
X183363490Y-61397739D01*
X183366710Y-61403316D01*
X183369692Y-61409043D01*
X183435120Y-61549355D01*
X183437589Y-61555315D01*
X183439790Y-61561361D01*
X183441733Y-61567522D01*
X183481803Y-61717066D01*
X183483199Y-61723367D01*
X183484318Y-61729712D01*
X183485161Y-61736114D01*
X183499077Y-61895169D01*
X183499288Y-61898377D01*
X183499429Y-61901592D01*
X183499500Y-61904834D01*
X183499500Y-75995164D01*
X183499429Y-75998406D01*
X183499288Y-76001621D01*
X183499077Y-76004829D01*
X183485161Y-76163884D01*
X183484318Y-76170286D01*
X183483199Y-76176631D01*
X183481803Y-76182932D01*
X183441733Y-76332476D01*
X183439790Y-76338637D01*
X183437589Y-76344683D01*
X183435120Y-76350643D01*
X183369692Y-76490955D01*
X183366710Y-76496682D01*
X183363490Y-76502259D01*
X183360022Y-76507703D01*
X183271229Y-76634512D01*
X183267298Y-76639635D01*
X183263156Y-76644571D01*
X183258796Y-76649329D01*
X183149329Y-76758796D01*
X183144571Y-76763156D01*
X183139635Y-76767298D01*
X183134512Y-76771229D01*
X183007703Y-76860022D01*
X183002259Y-76863490D01*
X182996682Y-76866710D01*
X182990955Y-76869692D01*
X182850643Y-76935120D01*
X182844683Y-76937589D01*
X182838637Y-76939790D01*
X182832476Y-76941733D01*
X182682932Y-76981803D01*
X182676631Y-76983199D01*
X182670286Y-76984318D01*
X182663884Y-76985161D01*
X182504829Y-76999077D01*
X182501622Y-76999287D01*
X182498385Y-76999429D01*
X182495165Y-76999500D01*
X152004835Y-76999500D01*
X152001613Y-76999429D01*
X151998377Y-76999287D01*
X151995170Y-76999077D01*
X151836114Y-76985161D01*
X151829712Y-76984318D01*
X151823367Y-76983199D01*
X151817066Y-76981803D01*
X151667522Y-76941733D01*
X151661361Y-76939790D01*
X151655315Y-76937589D01*
X151649355Y-76935120D01*
X151509043Y-76869692D01*
X151503316Y-76866710D01*
X151497739Y-76863490D01*
X151492295Y-76860022D01*
X151365486Y-76771229D01*
X151360363Y-76767298D01*
X151355427Y-76763156D01*
X151350669Y-76758796D01*
X151241202Y-76649329D01*
X151236842Y-76644571D01*
X151232700Y-76639635D01*
X151228769Y-76634512D01*
X151139976Y-76507703D01*
X151139966Y-76507688D01*
X151136510Y-76502263D01*
X151133285Y-76496677D01*
X151130312Y-76490966D01*
X151117787Y-76464106D01*
X151064869Y-76350625D01*
X151062406Y-76344676D01*
X151060205Y-76338628D01*
X151058264Y-76332472D01*
X151053640Y-76315214D01*
X151018189Y-76182911D01*
X151016798Y-76176631D01*
X151015675Y-76170257D01*
X151014840Y-76163908D01*
X151000919Y-76004795D01*
X151000712Y-76001621D01*
X151000569Y-75998368D01*
X151000500Y-75995163D01*
X151000500Y-65199993D01*
X152449500Y-65199993D01*
X152449500Y-65201746D01*
X152449500Y-66200004D01*
X152460001Y-66302802D01*
X152460883Y-66305461D01*
X152460884Y-66305472D01*
X152460887Y-66305472D01*
X152515186Y-66469335D01*
X152607288Y-66618656D01*
X152731344Y-66742712D01*
X152880665Y-66834814D01*
X153047202Y-66889999D01*
X153149990Y-66900500D01*
X153149995Y-66900500D01*
X156950005Y-66900500D01*
X156950010Y-66900500D01*
X157052798Y-66889999D01*
X157219335Y-66834814D01*
X157219337Y-66834813D01*
X157219508Y-66834733D01*
X157226223Y-66831079D01*
X157251534Y-66819044D01*
X157486655Y-66707248D01*
X157501019Y-66700137D01*
X157501687Y-66699793D01*
X157516191Y-66692022D01*
X157601379Y-66644582D01*
X157657638Y-66638061D01*
X157702032Y-66673231D01*
X157708554Y-66729491D01*
X157707625Y-66732510D01*
X157659651Y-66877286D01*
X157658002Y-66893430D01*
X157656286Y-66910233D01*
X157656232Y-66910757D01*
X157650443Y-66967427D01*
X157649500Y-66976655D01*
X157649500Y-67523339D01*
X157649619Y-67524784D01*
X157649739Y-67525676D01*
X157659651Y-67622709D01*
X157712994Y-67783691D01*
X157713005Y-67783712D01*
X157749314Y-67842576D01*
X157753353Y-67849124D01*
X157763427Y-67876190D01*
X157765219Y-67887301D01*
X157752153Y-67942411D01*
X157703946Y-67972140D01*
X157695884Y-67972990D01*
X157667762Y-67974406D01*
X157664041Y-67974500D01*
X155596157Y-67974500D01*
X155552314Y-67983219D01*
X155552314Y-67983220D01*
X155515713Y-67990500D01*
X155441510Y-68005260D01*
X155441490Y-68005267D01*
X155425769Y-68011779D01*
X155416967Y-68015426D01*
X155295825Y-68065602D01*
X155164441Y-68153390D01*
X155163065Y-68154856D01*
X155150505Y-68167416D01*
X155126497Y-68183457D01*
X155113617Y-68188792D01*
X155085448Y-68194425D01*
X155063461Y-68194469D01*
X155061994Y-68194472D01*
X155061988Y-68194472D01*
X155061978Y-68194473D01*
X155015561Y-68199130D01*
X155008175Y-68199500D01*
X153149989Y-68199500D01*
X153088317Y-68205799D01*
X153088317Y-68205800D01*
X153079303Y-68206721D01*
X153047197Y-68210001D01*
X152880665Y-68265186D01*
X152731344Y-68357288D01*
X152607288Y-68481344D01*
X152515186Y-68630665D01*
X152460000Y-68797201D01*
X152459720Y-68798936D01*
X152459618Y-68800950D01*
X152449500Y-68899991D01*
X152449500Y-69900009D01*
X152454785Y-69951743D01*
X152460001Y-70002798D01*
X152460000Y-70002798D01*
X152471348Y-70037042D01*
X152487593Y-70086066D01*
X152515186Y-70169335D01*
X152607288Y-70318656D01*
X152731344Y-70442712D01*
X152880665Y-70534814D01*
X153047202Y-70589999D01*
X153149990Y-70600500D01*
X154158758Y-70600500D01*
X154211084Y-70622174D01*
X154232425Y-70667484D01*
X154244072Y-70789772D01*
X154244317Y-70794283D01*
X154244354Y-70794282D01*
X154244389Y-70795192D01*
X154245021Y-70805118D01*
X154239538Y-70838133D01*
X154236981Y-70844307D01*
X154207481Y-70878962D01*
X154206159Y-70879778D01*
X154190568Y-70887052D01*
X154105666Y-70915186D01*
X153956344Y-71007288D01*
X153832288Y-71131344D01*
X153740186Y-71280666D01*
X153685001Y-71447198D01*
X153683825Y-71458712D01*
X153674627Y-71548752D01*
X153674626Y-71548762D01*
X153674500Y-71549993D01*
X153674500Y-72150074D01*
X153674580Y-72150786D01*
X153685001Y-72252798D01*
X153696094Y-72286274D01*
X153740186Y-72419334D01*
X153832288Y-72568656D01*
X153956344Y-72692712D01*
X154105666Y-72784814D01*
X154272203Y-72839999D01*
X154374991Y-72850500D01*
X155425008Y-72850499D01*
X155527797Y-72839999D01*
X155621847Y-72808833D01*
X155628375Y-72806998D01*
X155631019Y-72806384D01*
X155660430Y-72799552D01*
X155881595Y-72713501D01*
X155887149Y-72711589D01*
X155939746Y-72695804D01*
X155996092Y-72701522D01*
X156013343Y-72714355D01*
X156046956Y-72747968D01*
X156191303Y-72837003D01*
X156352292Y-72890349D01*
X156451655Y-72900500D01*
X157048344Y-72900499D01*
X157147708Y-72890349D01*
X157235120Y-72861383D01*
X157242225Y-72859417D01*
X157273533Y-72852420D01*
X157394845Y-72806381D01*
X157399825Y-72804691D01*
X157472309Y-72782957D01*
X157481227Y-72780877D01*
X157612967Y-72758669D01*
X157622609Y-72757689D01*
X157681731Y-72755581D01*
X157726737Y-72751958D01*
X157726742Y-72751956D01*
X157728672Y-72751618D01*
X157741486Y-72750500D01*
X163353840Y-72750500D01*
X163353842Y-72750500D01*
X163508497Y-72719737D01*
X163654179Y-72659394D01*
X163785289Y-72571789D01*
X164872771Y-71484306D01*
X167799500Y-71484306D01*
X167799500Y-71915692D01*
X167802402Y-71952571D01*
X167848256Y-72110400D01*
X167931919Y-72251865D01*
X167942320Y-72262266D01*
X167958361Y-72286274D01*
X167962672Y-72296682D01*
X167962672Y-72353319D01*
X167962670Y-72353322D01*
X167958359Y-72363728D01*
X167942322Y-72387730D01*
X167931918Y-72398134D01*
X167848256Y-72539598D01*
X167802402Y-72697427D01*
X167799500Y-72734306D01*
X167799500Y-73165692D01*
X167802402Y-73202571D01*
X167848256Y-73360400D01*
X167931919Y-73501865D01*
X168048135Y-73618081D01*
X168083572Y-73639038D01*
X168151290Y-73679087D01*
X168170768Y-73690606D01*
X168189602Y-73701744D01*
X168347431Y-73747598D01*
X168384306Y-73750500D01*
X168952894Y-73750500D01*
X168970471Y-73752618D01*
X168971575Y-73752888D01*
X168971581Y-73752888D01*
X168971586Y-73752890D01*
X169015721Y-73759180D01*
X169032215Y-73763518D01*
X169071019Y-73778685D01*
X169082984Y-73784659D01*
X169166173Y-73836073D01*
X169175134Y-73842586D01*
X169253369Y-73908955D01*
X169253430Y-73909073D01*
X169253463Y-73909035D01*
X169253536Y-73909097D01*
X169253537Y-73909097D01*
X169253653Y-73909196D01*
X169254663Y-73910052D01*
X169270524Y-73921267D01*
X169280127Y-73929362D01*
X170231284Y-74880520D01*
X170282846Y-74910289D01*
X170282845Y-74910289D01*
X170368216Y-74959577D01*
X170368218Y-74959578D01*
X170475570Y-74988343D01*
X170516263Y-74999246D01*
X170519958Y-75000501D01*
X170683588Y-75000501D01*
X170684711Y-75000501D01*
X170684775Y-75000500D01*
X170751518Y-75000500D01*
X170762419Y-75001307D01*
X170766097Y-75001854D01*
X170790853Y-75005542D01*
X170800986Y-75006046D01*
X170810683Y-75006530D01*
X170844913Y-75016887D01*
X170845166Y-75017038D01*
X170845237Y-75017080D01*
X170845296Y-75017115D01*
X170848823Y-75019198D01*
X170923850Y-75063091D01*
X170933951Y-75068845D01*
X170933981Y-75068862D01*
X170934347Y-75069065D01*
X170934375Y-75069080D01*
X170934400Y-75069094D01*
X170943694Y-75074122D01*
X170944166Y-75074371D01*
X170952332Y-75078571D01*
X170953549Y-75079197D01*
X170954034Y-75079440D01*
X170960726Y-75082702D01*
X170963846Y-75084224D01*
X171055650Y-75127767D01*
X171113215Y-75147797D01*
X171117171Y-75149303D01*
X171166498Y-75169735D01*
X171166503Y-75169737D01*
X171321158Y-75200500D01*
X171321160Y-75200500D01*
X171478840Y-75200500D01*
X171478842Y-75200500D01*
X171633497Y-75169737D01*
X171779179Y-75109394D01*
X171910289Y-75021789D01*
X172021789Y-74910289D01*
X172109394Y-74779179D01*
X172169737Y-74633497D01*
X172200500Y-74478842D01*
X172200500Y-74321158D01*
X172169737Y-74166503D01*
X172109394Y-74020821D01*
X172021789Y-73889711D01*
X171910289Y-73778211D01*
X171910285Y-73778208D01*
X171910283Y-73778206D01*
X171864474Y-73747598D01*
X171860750Y-73745110D01*
X171779178Y-73690605D01*
X171764969Y-73684719D01*
X171740962Y-73668679D01*
X171730043Y-73657759D01*
X171708727Y-73612692D01*
X171708187Y-73607212D01*
X171709251Y-73585524D01*
X171725500Y-73503842D01*
X171725500Y-73346158D01*
X171694737Y-73191503D01*
X171660623Y-73109144D01*
X171658912Y-73104598D01*
X171647283Y-73070289D01*
X171573072Y-72924055D01*
X171573068Y-72924047D01*
X171563932Y-72906871D01*
X171563465Y-72906033D01*
X171553594Y-72889093D01*
X171542474Y-72870834D01*
X171531791Y-72836479D01*
X171530328Y-72810346D01*
X171526512Y-72770518D01*
X171526511Y-72770517D01*
X171526190Y-72767157D01*
X171526334Y-72767143D01*
X171525500Y-72758231D01*
X171525500Y-72170943D01*
X171520098Y-72150786D01*
X171519890Y-72150008D01*
X171519888Y-72150000D01*
X171515403Y-72133260D01*
X171515403Y-72133259D01*
X171510533Y-72115085D01*
X171510533Y-72115082D01*
X171495886Y-72060423D01*
X171484731Y-72018791D01*
X171484590Y-72018248D01*
X171484578Y-72018218D01*
X171405519Y-71881283D01*
X171293724Y-71769488D01*
X171293716Y-71769480D01*
X171291137Y-71766901D01*
X171291126Y-71766891D01*
X170862326Y-71338091D01*
X170862322Y-71338086D01*
X170743716Y-71219480D01*
X170632679Y-71155373D01*
X170617353Y-71143613D01*
X170616983Y-71143243D01*
X170610379Y-71141473D01*
X170610276Y-71141747D01*
X170607841Y-71140823D01*
X170607771Y-71140954D01*
X170607107Y-71140596D01*
X170607070Y-71140587D01*
X170606815Y-71140439D01*
X170606777Y-71140419D01*
X170454061Y-71099499D01*
X170454059Y-71099499D01*
X170454057Y-71099499D01*
X170413347Y-71099499D01*
X170376994Y-71089953D01*
X170371785Y-71087016D01*
X170370111Y-71086043D01*
X170285092Y-71035080D01*
X170265736Y-71024050D01*
X170265729Y-71024046D01*
X170264833Y-71023561D01*
X170249200Y-71015542D01*
X170245056Y-71013417D01*
X170245046Y-71013412D01*
X170132751Y-70958897D01*
X170126139Y-70955745D01*
X170125916Y-70955641D01*
X170125912Y-70955639D01*
X170125905Y-70955636D01*
X170125896Y-70955632D01*
X170125881Y-70955626D01*
X170122235Y-70954186D01*
X170111747Y-70949053D01*
X170110402Y-70948257D01*
X170110396Y-70948255D01*
X170101701Y-70945728D01*
X170095170Y-70943494D01*
X170068072Y-70932791D01*
X170045046Y-70928795D01*
X170037054Y-70926947D01*
X169952572Y-70902402D01*
X169944375Y-70901757D01*
X169927985Y-70900467D01*
X169927983Y-70900466D01*
X169915695Y-70899500D01*
X169915694Y-70899500D01*
X168384306Y-70899500D01*
X168384298Y-70899500D01*
X168375089Y-70900224D01*
X168375087Y-70900225D01*
X168358491Y-70901531D01*
X168347426Y-70902402D01*
X168189598Y-70948256D01*
X168048133Y-71031919D01*
X167931919Y-71148133D01*
X167848256Y-71289598D01*
X167802402Y-71447427D01*
X167799500Y-71484306D01*
X164872771Y-71484306D01*
X166324497Y-70032578D01*
X166348505Y-70016539D01*
X166373633Y-70006132D01*
X166401948Y-70000500D01*
X169915693Y-70000500D01*
X169915694Y-70000500D01*
X169952569Y-69997598D01*
X170110398Y-69951744D01*
X170251865Y-69868081D01*
X170368081Y-69751865D01*
X170451744Y-69610398D01*
X170497598Y-69452569D01*
X170500500Y-69415694D01*
X170500500Y-68984306D01*
X170497598Y-68947431D01*
X170451744Y-68789602D01*
X170368081Y-68648135D01*
X170251865Y-68531919D01*
X170212404Y-68508582D01*
X170187524Y-68493868D01*
X170110400Y-68448256D01*
X169952572Y-68402402D01*
X169944375Y-68401757D01*
X169927985Y-68400467D01*
X169927983Y-68400466D01*
X169915695Y-68399500D01*
X169915694Y-68399500D01*
X169228842Y-68399500D01*
X166103842Y-68399500D01*
X165946157Y-68399500D01*
X165865188Y-68415606D01*
X165865187Y-68415606D01*
X165791508Y-68430260D01*
X165791493Y-68430265D01*
X165645825Y-68490602D01*
X165514441Y-68578390D01*
X165513065Y-68579856D01*
X162975503Y-71117418D01*
X162951497Y-71133458D01*
X162926367Y-71143867D01*
X162898051Y-71149500D01*
X161622892Y-71149500D01*
X161594577Y-71143868D01*
X161584168Y-71139557D01*
X161544119Y-71099513D01*
X161542420Y-71095412D01*
X161540141Y-71045086D01*
X161540402Y-71044250D01*
X161549786Y-71014132D01*
X161569086Y-70952196D01*
X161575500Y-70881616D01*
X161575500Y-70844104D01*
X161581132Y-70815788D01*
X161582204Y-70813200D01*
X161591540Y-70790658D01*
X161607577Y-70766656D01*
X162443713Y-69930521D01*
X162443716Y-69930520D01*
X162555520Y-69818716D01*
X162619469Y-69707952D01*
X162634577Y-69681785D01*
X162670368Y-69548209D01*
X162675501Y-69539320D01*
X162675501Y-69365424D01*
X162675500Y-69365350D01*
X162675500Y-69052316D01*
X162681131Y-69024002D01*
X162691542Y-68998867D01*
X162707579Y-68974866D01*
X162743081Y-68939365D01*
X162826744Y-68797898D01*
X162872598Y-68640069D01*
X162875500Y-68603194D01*
X162875500Y-67446806D01*
X162872598Y-67409931D01*
X162826744Y-67252102D01*
X162821589Y-67243386D01*
X162743080Y-67110634D01*
X162626865Y-66994419D01*
X162626862Y-66994416D01*
X162613699Y-66986632D01*
X162613698Y-66986632D01*
X162566445Y-66958687D01*
X162544937Y-66939422D01*
X162538173Y-66930413D01*
X162524088Y-66875558D01*
X162524272Y-66874263D01*
X162545205Y-66832374D01*
X162547170Y-66830409D01*
X162561812Y-66819052D01*
X162626865Y-66780581D01*
X162743081Y-66664365D01*
X162826744Y-66522898D01*
X162857223Y-66417985D01*
X162870531Y-66392366D01*
X162881306Y-66378918D01*
X162920661Y-66353511D01*
X162923343Y-66352822D01*
X162941737Y-66350500D01*
X163033552Y-66350500D01*
X163053416Y-66353216D01*
X163072206Y-66358454D01*
X163090612Y-66366405D01*
X163135394Y-66393478D01*
X163297804Y-66444086D01*
X163368384Y-66450500D01*
X163368386Y-66450500D01*
X164031614Y-66450500D01*
X164031616Y-66450500D01*
X164102196Y-66444086D01*
X164264606Y-66393478D01*
X164410185Y-66305472D01*
X164530472Y-66185185D01*
X164618478Y-66039606D01*
X164643608Y-65958955D01*
X164657410Y-65933598D01*
X164664625Y-65924939D01*
X164714767Y-65898623D01*
X164725331Y-65897663D01*
X164755303Y-65901114D01*
X164797203Y-65914999D01*
X164899991Y-65925500D01*
X165565208Y-65925499D01*
X165593522Y-65931130D01*
X165618654Y-65941540D01*
X165642660Y-65957580D01*
X166420118Y-66735038D01*
X166420133Y-66735054D01*
X166421004Y-66735925D01*
X166422861Y-66737782D01*
X166562218Y-66877139D01*
X166684978Y-66959164D01*
X166694623Y-66973599D01*
X166722937Y-66985327D01*
X166723576Y-66985627D01*
X166725639Y-66986452D01*
X166726389Y-66986758D01*
X166765793Y-67003079D01*
X166854834Y-67039961D01*
X166854833Y-67039961D01*
X166893227Y-67055864D01*
X166908164Y-67062051D01*
X167004812Y-67081275D01*
X167101459Y-67100500D01*
X167101460Y-67100500D01*
X167298540Y-67100500D01*
X169290209Y-67100500D01*
X169318523Y-67106131D01*
X169343655Y-67116541D01*
X169367661Y-67132581D01*
X169945118Y-67710038D01*
X169945133Y-67710054D01*
X169946004Y-67710925D01*
X169947861Y-67712782D01*
X170087218Y-67852139D01*
X170209978Y-67934164D01*
X170219623Y-67948599D01*
X170247938Y-67960327D01*
X170248577Y-67960627D01*
X170250634Y-67961450D01*
X170251342Y-67961738D01*
X170282152Y-67974500D01*
X170379834Y-68014961D01*
X170409620Y-68027299D01*
X170409619Y-68027299D01*
X170419371Y-68031337D01*
X170433164Y-68037051D01*
X170501209Y-68050586D01*
X170626459Y-68075500D01*
X170626460Y-68075500D01*
X170823540Y-68075500D01*
X170850827Y-68075500D01*
X170879141Y-68081131D01*
X170904273Y-68091541D01*
X170928278Y-68107580D01*
X172272836Y-69452139D01*
X172272837Y-69452140D01*
X172307098Y-69475032D01*
X172312931Y-69479358D01*
X172318524Y-69483948D01*
X172323905Y-69488825D01*
X172387418Y-69552338D01*
X172403457Y-69576341D01*
X172413868Y-69601475D01*
X172419500Y-69629790D01*
X172419500Y-72375033D01*
X172420335Y-72406807D01*
X172420335Y-72406819D01*
X172444976Y-72539598D01*
X172449177Y-72562238D01*
X172466102Y-72597702D01*
X172517257Y-72704890D01*
X172619936Y-72825058D01*
X172619949Y-72825072D01*
X172619955Y-72825078D01*
X174355925Y-74387450D01*
X174357342Y-74388759D01*
X174358774Y-74390117D01*
X174360180Y-74391486D01*
X174496847Y-74528153D01*
X174622250Y-74624378D01*
X174768285Y-74684868D01*
X174925000Y-74705500D01*
X175035240Y-74705500D01*
X175063550Y-74711129D01*
X175073962Y-74715442D01*
X175114011Y-74755484D01*
X175118249Y-74765716D01*
X175123880Y-74794427D01*
X175119508Y-75609242D01*
X175119510Y-75609291D01*
X175126401Y-75703668D01*
X175167302Y-75844817D01*
X175170393Y-75855485D01*
X175170395Y-75855489D01*
X175170396Y-75855491D01*
X175226354Y-75948036D01*
X175252194Y-75990771D01*
X175252228Y-75990820D01*
X175252632Y-75991315D01*
X175462172Y-76253242D01*
X175506845Y-76303153D01*
X175564918Y-76347714D01*
X175564920Y-76347715D01*
X175564922Y-76347716D01*
X175632249Y-76399378D01*
X175778284Y-76459868D01*
X175934999Y-76480500D01*
X175935001Y-76480500D01*
X182164697Y-76480500D01*
X182164705Y-76480500D01*
X182304650Y-76464106D01*
X182452354Y-76407812D01*
X182580454Y-76315208D01*
X183065749Y-75856877D01*
X183078153Y-75844822D01*
X183078158Y-75844817D01*
X183129900Y-75777383D01*
X183174378Y-75719419D01*
X183234868Y-75573384D01*
X183255500Y-75416669D01*
X183255500Y-72995372D01*
X183244265Y-72879269D01*
X183204740Y-72761517D01*
X183193968Y-72729423D01*
X183193964Y-72729414D01*
X183106604Y-72597702D01*
X183106601Y-72597698D01*
X183106597Y-72597692D01*
X183106595Y-72597690D01*
X183106591Y-72597684D01*
X183056001Y-72539599D01*
X183056001Y-72539600D01*
X182224161Y-71584522D01*
X182196959Y-71555297D01*
X182196958Y-71555296D01*
X182196956Y-71555294D01*
X182188501Y-71548768D01*
X182071823Y-71458710D01*
X182056471Y-71452300D01*
X182030522Y-71441465D01*
X181925960Y-71397806D01*
X181769305Y-71376728D01*
X179601946Y-71370568D01*
X179601731Y-71370567D01*
X179601716Y-71370566D01*
X179598718Y-71370565D01*
X179442063Y-71391510D01*
X179442049Y-71391512D01*
X179442043Y-71391514D01*
X179296144Y-71452292D01*
X179296128Y-71452300D01*
X179170932Y-71548768D01*
X179164430Y-71554185D01*
X179161817Y-71557919D01*
X178417591Y-72305142D01*
X178417590Y-72305141D01*
X178417048Y-72305686D01*
X178417005Y-72305731D01*
X178416215Y-72306527D01*
X178416212Y-72306529D01*
X178320647Y-72432438D01*
X178262000Y-72576163D01*
X178261172Y-72577990D01*
X178260931Y-72578782D01*
X178241122Y-72735620D01*
X178246360Y-73730389D01*
X178240877Y-73758736D01*
X178236620Y-73769169D01*
X178196784Y-73809428D01*
X178186585Y-73813716D01*
X178157905Y-73819500D01*
X177939219Y-73819500D01*
X177910904Y-73813868D01*
X177900495Y-73809557D01*
X177860446Y-73769513D01*
X177856129Y-73759091D01*
X177850500Y-73730781D01*
X177850500Y-72060423D01*
X177850637Y-72055918D01*
X177852767Y-72020992D01*
X177850748Y-71996392D01*
X177850500Y-71990339D01*
X177850500Y-71088881D01*
X177850499Y-71088852D01*
X177850499Y-70601663D01*
X177850499Y-70601656D01*
X177840349Y-70502292D01*
X177811984Y-70416695D01*
X177810017Y-70409585D01*
X177802895Y-70377718D01*
X177756379Y-70255145D01*
X177754688Y-70250161D01*
X177732958Y-70177692D01*
X177730877Y-70168766D01*
X177708669Y-70037032D01*
X177707688Y-70027386D01*
X177705581Y-69968269D01*
X177701958Y-69923263D01*
X177701957Y-69923259D01*
X177701618Y-69921328D01*
X177700500Y-69908514D01*
X177700500Y-69903752D01*
X177700606Y-69899786D01*
X177702353Y-69867245D01*
X177700794Y-69849806D01*
X177700500Y-69843218D01*
X177700500Y-69835527D01*
X177706131Y-69807213D01*
X177716542Y-69782078D01*
X177728441Y-69764280D01*
X177727712Y-69763709D01*
X177730468Y-69760190D01*
X177730469Y-69760187D01*
X177730472Y-69760185D01*
X177818478Y-69614606D01*
X177869086Y-69452196D01*
X177875500Y-69381616D01*
X177875500Y-68868384D01*
X177869086Y-68797804D01*
X177818478Y-68635394D01*
X177730472Y-68489815D01*
X177610185Y-68369528D01*
X177589938Y-68357288D01*
X177464607Y-68281522D01*
X177464601Y-68281520D01*
X177302930Y-68231142D01*
X177302247Y-68230922D01*
X177302194Y-68230913D01*
X177302193Y-68230913D01*
X177302192Y-68230913D01*
X177300888Y-68230701D01*
X177298846Y-68230609D01*
X177289425Y-68229752D01*
X177231628Y-68224500D01*
X177231623Y-68224500D01*
X177231616Y-68224500D01*
X177128911Y-68224500D01*
X177110478Y-68222167D01*
X177105181Y-68220805D01*
X177105180Y-68220804D01*
X177105177Y-68220804D01*
X177096768Y-68219884D01*
X177062063Y-68206721D01*
X177051862Y-68199500D01*
X177021070Y-68177702D01*
X177012567Y-68170676D01*
X176898262Y-68060893D01*
X176895595Y-68058197D01*
X176873282Y-68034452D01*
X176859858Y-68020166D01*
X176859769Y-68020071D01*
X176857318Y-68017482D01*
X176796681Y-67953856D01*
X176791058Y-67948048D01*
X176790882Y-67947870D01*
X176790878Y-67947866D01*
X176784027Y-67941662D01*
X176747737Y-67908797D01*
X176747730Y-67908792D01*
X176744751Y-67906594D01*
X176744949Y-67906325D01*
X176734841Y-67898473D01*
X176472111Y-67635743D01*
X176466424Y-67629358D01*
X176444943Y-67602232D01*
X176444942Y-67602231D01*
X176391730Y-67551837D01*
X176391436Y-67551556D01*
X176371892Y-67532787D01*
X176305166Y-67468706D01*
X176300088Y-67463316D01*
X176275496Y-67434443D01*
X176263463Y-67414775D01*
X176256132Y-67397074D01*
X176250500Y-67368759D01*
X176250500Y-67243384D01*
X176250498Y-67243364D01*
X176250494Y-67243322D01*
X176244390Y-67176153D01*
X176244302Y-67174224D01*
X176244087Y-67172810D01*
X176244086Y-67172806D01*
X176244086Y-67172804D01*
X176193478Y-67010394D01*
X176105472Y-66864815D01*
X175985185Y-66744528D01*
X175911729Y-66700122D01*
X175839607Y-66656522D01*
X175839601Y-66656520D01*
X175677930Y-66606142D01*
X175677247Y-66605922D01*
X175677194Y-66605913D01*
X175677193Y-66605913D01*
X175677192Y-66605913D01*
X175675888Y-66605701D01*
X175673846Y-66605609D01*
X175664425Y-66604752D01*
X175606628Y-66599500D01*
X175606623Y-66599500D01*
X175606616Y-66599500D01*
X174943384Y-66599500D01*
X174943376Y-66599500D01*
X174943370Y-66599500D01*
X174884601Y-66604841D01*
X174876153Y-66605609D01*
X174872773Y-66605762D01*
X174869589Y-66606915D01*
X174721148Y-66653171D01*
X174710927Y-66654726D01*
X174702700Y-66661172D01*
X174564813Y-66744528D01*
X174444528Y-66864813D01*
X174370885Y-66986634D01*
X174370884Y-66986633D01*
X174356524Y-67010388D01*
X174356520Y-67010398D01*
X174321690Y-67122172D01*
X174321691Y-67122173D01*
X174305912Y-67172812D01*
X174305696Y-67174229D01*
X174305609Y-67176155D01*
X174299500Y-67243370D01*
X174299500Y-67756630D01*
X174305911Y-67827179D01*
X174305911Y-67827182D01*
X174305913Y-67827194D01*
X174305914Y-67827199D01*
X174320110Y-67872754D01*
X174320110Y-67872756D01*
X174320111Y-67872756D01*
X174346312Y-67956842D01*
X174349358Y-67985557D01*
X174348338Y-67996775D01*
X174322015Y-68046923D01*
X174322014Y-68046924D01*
X174318823Y-68049583D01*
X174269941Y-68066718D01*
X173764511Y-68056403D01*
X173737006Y-68050492D01*
X173712554Y-68040070D01*
X173689243Y-68024322D01*
X173562778Y-67897857D01*
X173528514Y-67874962D01*
X173522687Y-67870641D01*
X173521593Y-67869744D01*
X173517097Y-67866053D01*
X173511718Y-67861179D01*
X172737771Y-67087232D01*
X172721731Y-67063226D01*
X172718681Y-67055862D01*
X172718683Y-66999227D01*
X172758731Y-66959179D01*
X172766091Y-66956131D01*
X172794408Y-66950499D01*
X173273337Y-66950499D01*
X173273344Y-66950499D01*
X173372708Y-66940349D01*
X173533697Y-66887003D01*
X173678044Y-66797968D01*
X173797968Y-66678044D01*
X173887003Y-66533697D01*
X173940349Y-66372708D01*
X173950500Y-66273345D01*
X173950499Y-65676656D01*
X173940349Y-65577292D01*
X173887003Y-65416303D01*
X173797968Y-65271956D01*
X173678044Y-65152032D01*
X173678043Y-65152031D01*
X173678042Y-65152030D01*
X173589143Y-65097197D01*
X173533695Y-65062996D01*
X173468894Y-65041523D01*
X173372712Y-65009651D01*
X173353782Y-65007717D01*
X173344318Y-65006750D01*
X173344317Y-65006749D01*
X173284133Y-65000602D01*
X173273345Y-64999500D01*
X173273343Y-64999500D01*
X172720238Y-64999500D01*
X172715871Y-65000602D01*
X172682027Y-65004059D01*
X172676974Y-65004576D01*
X172627289Y-65009651D01*
X172466308Y-65062994D01*
X172465226Y-65063498D01*
X172460894Y-65065871D01*
X172278455Y-65153909D01*
X172221909Y-65157130D01*
X172208252Y-65150736D01*
X172197460Y-65144268D01*
X172178276Y-65133331D01*
X172177354Y-65132832D01*
X172162294Y-65125104D01*
X172157434Y-65122611D01*
X172157422Y-65122605D01*
X171990402Y-65041523D01*
X171990384Y-65041515D01*
X171989365Y-65041022D01*
X171989366Y-65041022D01*
X171989192Y-65040938D01*
X171984595Y-65038416D01*
X171983697Y-65037997D01*
X171983695Y-65037996D01*
X171983692Y-65037995D01*
X171983690Y-65037994D01*
X171822712Y-64984651D01*
X171800628Y-64982395D01*
X171789587Y-64981267D01*
X171789586Y-64981266D01*
X171735622Y-64975754D01*
X171723345Y-64974500D01*
X171723343Y-64974500D01*
X171188332Y-64974500D01*
X171166774Y-64971290D01*
X171166091Y-64971082D01*
X171154254Y-64961346D01*
X170958505Y-64880265D01*
X170958500Y-64880263D01*
X170958489Y-64880260D01*
X170854925Y-64859661D01*
X170854924Y-64859660D01*
X170803842Y-64849500D01*
X170646158Y-64849500D01*
X170602314Y-64858219D01*
X170602315Y-64858220D01*
X170491511Y-64880259D01*
X170491493Y-64880265D01*
X170345825Y-64940602D01*
X170214711Y-65028209D01*
X170131850Y-65111070D01*
X170107842Y-65127111D01*
X170089853Y-65134562D01*
X170047104Y-65138774D01*
X170017775Y-65132942D01*
X170017186Y-65133044D01*
X169971158Y-65123889D01*
X169971155Y-65123887D01*
X169864574Y-65102689D01*
X169848541Y-65099500D01*
X169848540Y-65099500D01*
X169689219Y-65099500D01*
X169660904Y-65093868D01*
X169650495Y-65089557D01*
X169610446Y-65049513D01*
X169604947Y-65036237D01*
X169600739Y-65022362D01*
X169597633Y-65006749D01*
X169584476Y-64940603D01*
X169569737Y-64866503D01*
X169569633Y-64866253D01*
X169509394Y-64720821D01*
X169469070Y-64660471D01*
X169469070Y-64660470D01*
X169444069Y-64623055D01*
X169434784Y-64603424D01*
X169428684Y-64583314D01*
X169425499Y-64561836D01*
X169425499Y-64401663D01*
X169425499Y-64401656D01*
X169415349Y-64302292D01*
X169362003Y-64141303D01*
X169272968Y-63996956D01*
X169153044Y-63877032D01*
X169153043Y-63877031D01*
X169153042Y-63877030D01*
X169093308Y-63840186D01*
X169008695Y-63787996D01*
X168953312Y-63769644D01*
X168847712Y-63734651D01*
X168828782Y-63732717D01*
X168819318Y-63731750D01*
X168819317Y-63731749D01*
X168759133Y-63725602D01*
X168748345Y-63724500D01*
X168748343Y-63724500D01*
X168145238Y-63724500D01*
X168140871Y-63725602D01*
X168107027Y-63729059D01*
X168101974Y-63729576D01*
X168052289Y-63734651D01*
X167891305Y-63787995D01*
X167746952Y-63877032D01*
X167715612Y-63908373D01*
X167691604Y-63924414D01*
X167676642Y-63930611D01*
X167628137Y-63933436D01*
X167623937Y-63932245D01*
X167605278Y-63924035D01*
X167469335Y-63840186D01*
X167386065Y-63812593D01*
X167302800Y-63785001D01*
X167292518Y-63783950D01*
X167282239Y-63782900D01*
X167282237Y-63782899D01*
X167216807Y-63776215D01*
X167200009Y-63774500D01*
X167200007Y-63774500D01*
X166345426Y-63774500D01*
X166329861Y-63772306D01*
X166329757Y-63772799D01*
X166327162Y-63772248D01*
X166317749Y-63770945D01*
X166299584Y-63766012D01*
X166281344Y-63758457D01*
X166257336Y-63742416D01*
X165831613Y-63316693D01*
X165826962Y-63311586D01*
X165813236Y-63295024D01*
X165802033Y-63281966D01*
X165801518Y-63281386D01*
X165789742Y-63268574D01*
X165752560Y-63229491D01*
X165704408Y-63178878D01*
X165691690Y-63165980D01*
X165691088Y-63165391D01*
X165635895Y-63118632D01*
X165635893Y-63118631D01*
X165635892Y-63118630D01*
X165634451Y-63117653D01*
X165623647Y-63108726D01*
X165575280Y-63060359D01*
X165411412Y-62950866D01*
X165367233Y-62932566D01*
X165335994Y-62919627D01*
X165335993Y-62919626D01*
X165289401Y-62900328D01*
X165289394Y-62900324D01*
X165229343Y-62875451D01*
X165229333Y-62875447D01*
X165229328Y-62875446D01*
X165158657Y-62861389D01*
X165158654Y-62861387D01*
X165052074Y-62840189D01*
X165036041Y-62837000D01*
X161248541Y-62837000D01*
X160113959Y-62837000D01*
X159998981Y-62859869D01*
X159991808Y-62860933D01*
X159984602Y-62861643D01*
X159977355Y-62862000D01*
X159939164Y-62862000D01*
X159938965Y-62862012D01*
X159938316Y-62862086D01*
X159839788Y-62872151D01*
X159678805Y-62925495D01*
X159534456Y-63014530D01*
X159414530Y-63134456D01*
X159325496Y-63278804D01*
X159272151Y-63439786D01*
X159266546Y-63494638D01*
X159264679Y-63505224D01*
X159262069Y-63515565D01*
X159258688Y-63525770D01*
X159250448Y-63545665D01*
X159250447Y-63545669D01*
X159214876Y-63724500D01*
X159212000Y-63738960D01*
X159212000Y-63936039D01*
X159250448Y-64129334D01*
X159250450Y-64129339D01*
X159258691Y-64149237D01*
X159262071Y-64159439D01*
X159264680Y-64169777D01*
X159266547Y-64180363D01*
X159272151Y-64235211D01*
X159272151Y-64235213D01*
X159294378Y-64302286D01*
X159294380Y-64302292D01*
X159325497Y-64396197D01*
X159359219Y-64450868D01*
X159395692Y-64510001D01*
X159413642Y-64539101D01*
X159414533Y-64540545D01*
X159534803Y-64660815D01*
X159536644Y-64662044D01*
X159538249Y-64663202D01*
X159554940Y-64679885D01*
X159561319Y-64688718D01*
X159574385Y-64743827D01*
X159574384Y-64743834D01*
X159573513Y-64749231D01*
X159552784Y-64789766D01*
X159506923Y-64835627D01*
X159506917Y-64835637D01*
X159506913Y-64835643D01*
X159500289Y-64846844D01*
X159454995Y-64880849D01*
X159423025Y-64881918D01*
X159357073Y-64869615D01*
X159355408Y-64869210D01*
X159355219Y-64869245D01*
X159355036Y-64869119D01*
X159349276Y-64867718D01*
X159273406Y-64844837D01*
X159268488Y-64843163D01*
X159150076Y-64798168D01*
X159150075Y-64798167D01*
X159150068Y-64798165D01*
X159091056Y-64779783D01*
X159091048Y-64779781D01*
X159088305Y-64779107D01*
X159077990Y-64777218D01*
X159068048Y-64774673D01*
X159022715Y-64759652D01*
X159022712Y-64759651D01*
X159003782Y-64757717D01*
X158994318Y-64756750D01*
X158994317Y-64756749D01*
X158934133Y-64750602D01*
X158923345Y-64749500D01*
X158923343Y-64749500D01*
X158320238Y-64749500D01*
X158315871Y-64750602D01*
X158282027Y-64754059D01*
X158276974Y-64754576D01*
X158227285Y-64759651D01*
X158227284Y-64759651D01*
X158227283Y-64759652D01*
X158161800Y-64781351D01*
X158157875Y-64782532D01*
X158099292Y-64798403D01*
X158099288Y-64798404D01*
X157980143Y-64843619D01*
X157975141Y-64845315D01*
X157902706Y-64867034D01*
X157893758Y-64869121D01*
X157854951Y-64875664D01*
X157814327Y-64871058D01*
X157802729Y-64866253D01*
X157795344Y-64862703D01*
X157671502Y-64794476D01*
X157671463Y-64794454D01*
X157480439Y-64689065D01*
X157465481Y-64681138D01*
X157465444Y-64681119D01*
X157464752Y-64680767D01*
X157455259Y-64676132D01*
X157449898Y-64673515D01*
X157449879Y-64673506D01*
X157422407Y-64660646D01*
X157422397Y-64660640D01*
X157225875Y-64568646D01*
X157220301Y-64565636D01*
X157218751Y-64564913D01*
X157215186Y-64563546D01*
X157215171Y-64563584D01*
X157214315Y-64563235D01*
X157214302Y-64563229D01*
X157166776Y-64543858D01*
X157166770Y-64543857D01*
X157166766Y-64543855D01*
X157166768Y-64543855D01*
X157142500Y-64539101D01*
X157133450Y-64536726D01*
X157052801Y-64510001D01*
X157042519Y-64508950D01*
X157032240Y-64507900D01*
X157032238Y-64507899D01*
X156966808Y-64501215D01*
X156950010Y-64499500D01*
X156950008Y-64499500D01*
X153149989Y-64499500D01*
X153088317Y-64505799D01*
X153088317Y-64505800D01*
X153078037Y-64506850D01*
X153047197Y-64510001D01*
X152880665Y-64565186D01*
X152731344Y-64657288D01*
X152607288Y-64781344D01*
X152515186Y-64930665D01*
X152460001Y-65097196D01*
X152460001Y-65097197D01*
X152460001Y-65097200D01*
X152455838Y-65137947D01*
X152455838Y-65137950D01*
X152455837Y-65137949D01*
X152454426Y-65151770D01*
X152454405Y-65151982D01*
X152454400Y-65152032D01*
X152449500Y-65199993D01*
X151000500Y-65199993D01*
X151000500Y-61904835D01*
X151000570Y-61901617D01*
X151000571Y-61901592D01*
X151000712Y-61898355D01*
X151000919Y-61895200D01*
X151006265Y-61834108D01*
X151014838Y-61736102D01*
X151015678Y-61729717D01*
X151016796Y-61723376D01*
X151018192Y-61717081D01*
X151058268Y-61567513D01*
X151060200Y-61561384D01*
X151062417Y-61555293D01*
X151064865Y-61549382D01*
X151130322Y-61409010D01*
X151133286Y-61403316D01*
X151136507Y-61397739D01*
X151139960Y-61392318D01*
X151228789Y-61265457D01*
X151232689Y-61260374D01*
X151236848Y-61255418D01*
X151241179Y-61250692D01*
X151350692Y-61141179D01*
X151355418Y-61136848D01*
X151360374Y-61132689D01*
X151365457Y-61128789D01*
X151492318Y-61039960D01*
X151497742Y-61036505D01*
X151503314Y-61033288D01*
X151509020Y-61030317D01*
X151649379Y-60964866D01*
X151655311Y-60962409D01*
X151661374Y-60960203D01*
X151667505Y-60958270D01*
X151817085Y-60918191D01*
X151823367Y-60916798D01*
X151829726Y-60915677D01*
X151836097Y-60914839D01*
X151964227Y-60903629D01*
X151995190Y-60900920D01*
X151998379Y-60900711D01*
X152001629Y-60900569D01*
X152004836Y-60900500D01*
X182495164Y-60900500D01*
X182498369Y-60900569D01*
G37*
%TD.AperFunction*%
%TD*%
%TA.AperFunction,Conductor*%
%TO.N,+24V*%
G36*
X165337568Y-63526714D02*
G01*
X165338170Y-63527303D01*
X165423510Y-63617006D01*
X165424041Y-63617604D01*
X165526516Y-63741248D01*
X165696981Y-63943002D01*
X165855967Y-64098197D01*
X165999862Y-64199016D01*
X165999863Y-64199017D01*
X165999864Y-64199017D01*
X165999865Y-64199018D01*
X166136619Y-64256194D01*
X166257864Y-64272976D01*
X166265589Y-64277505D01*
X166267850Y-64286170D01*
X166267178Y-64288772D01*
X166054722Y-64840334D01*
X166048550Y-64846822D01*
X166040199Y-64847259D01*
X164734382Y-64424334D01*
X164727567Y-64418525D01*
X164726507Y-64410947D01*
X164734521Y-64370197D01*
X164720897Y-64327519D01*
X164720895Y-64327517D01*
X164720895Y-64327515D01*
X164665540Y-64265871D01*
X164665261Y-64265623D01*
X164661356Y-64257564D01*
X164664293Y-64249105D01*
X165321043Y-63527490D01*
X165329143Y-63523680D01*
X165337568Y-63526714D01*
G37*
%TD.AperFunction*%
%TD*%
%TA.AperFunction,Conductor*%
%TO.N,+24V*%
G36*
X166057649Y-64853595D02*
G01*
X166061999Y-64854474D01*
X167305832Y-65365771D01*
X167313298Y-65362539D01*
X167317759Y-65361578D01*
X167320023Y-65361543D01*
X167328347Y-65364842D01*
X167331432Y-65369957D01*
X167332022Y-65371974D01*
X167332491Y-65375464D01*
X167331542Y-65429509D01*
X167331536Y-65429728D01*
X167331527Y-65429976D01*
X167331518Y-65430183D01*
X167328968Y-65477360D01*
X167334263Y-65500754D01*
X167334383Y-65505320D01*
X167333823Y-65508577D01*
X167330214Y-65515204D01*
X166611361Y-66176548D01*
X166607461Y-66178925D01*
X166605789Y-66179537D01*
X166596848Y-66179166D01*
X166595594Y-66178585D01*
X166591313Y-66175198D01*
X166575401Y-66154947D01*
X166522804Y-66088008D01*
X166522543Y-66087662D01*
X166522316Y-66087350D01*
X166522077Y-66087009D01*
X166438581Y-65963216D01*
X166294771Y-65754989D01*
X166294768Y-65754985D01*
X166162043Y-65600376D01*
X166143466Y-65585247D01*
X166039381Y-65500481D01*
X166039378Y-65500479D01*
X165919985Y-65443807D01*
X165815011Y-65427665D01*
X165810722Y-65426105D01*
X165809199Y-65425181D01*
X165803904Y-65417964D01*
X165803714Y-65417189D01*
X165804355Y-65409719D01*
X165823565Y-65365771D01*
X166043808Y-64861879D01*
X166046415Y-64858136D01*
X166047756Y-64856847D01*
X166055961Y-64853581D01*
X166057649Y-64853595D01*
G37*
%TD.AperFunction*%
%TD*%
%TA.AperFunction,Conductor*%
%TO.N,+3.3V*%
G36*
X172694688Y-65524696D02*
G01*
X172995198Y-65917418D01*
X172997504Y-65926071D01*
X172994736Y-65932204D01*
X172618163Y-66365403D01*
X172610149Y-66369398D01*
X172601657Y-66366557D01*
X172600950Y-66365888D01*
X172523843Y-66286683D01*
X172368940Y-66162871D01*
X172362636Y-66159331D01*
X172298821Y-66123496D01*
X172264696Y-66109735D01*
X172231484Y-66096341D01*
X172180795Y-66084080D01*
X172164622Y-66080168D01*
X172135268Y-66077820D01*
X172110767Y-66075861D01*
X172102794Y-66071785D01*
X172100000Y-66064198D01*
X172100000Y-65785382D01*
X172103427Y-65777109D01*
X172110306Y-65773766D01*
X172170061Y-65766612D01*
X172240041Y-65743350D01*
X172394960Y-65663625D01*
X172461267Y-65626989D01*
X172461775Y-65626727D01*
X172680312Y-65521268D01*
X172689251Y-65520759D01*
X172694688Y-65524696D01*
G37*
%TD.AperFunction*%
%TD*%
%TA.AperFunction,Conductor*%
%TO.N,+3.3V*%
G36*
X171769623Y-65496262D02*
G01*
X171936673Y-65577358D01*
X171937578Y-65577848D01*
X172075140Y-65660306D01*
X172075275Y-65660388D01*
X172132705Y-65695871D01*
X172252432Y-65756655D01*
X172340463Y-65773206D01*
X172347959Y-65778103D01*
X172350000Y-65784705D01*
X172350000Y-66064730D01*
X172346573Y-66073003D01*
X172339817Y-66076331D01*
X172283260Y-66083726D01*
X172217587Y-66107824D01*
X172075203Y-66189654D01*
X171964768Y-66256727D01*
X171963897Y-66257207D01*
X171769664Y-66353623D01*
X171760730Y-66354232D01*
X171755231Y-66350332D01*
X171682537Y-66256986D01*
X171429597Y-65932188D01*
X171427218Y-65923556D01*
X171429597Y-65917812D01*
X171755285Y-65499597D01*
X171763071Y-65495177D01*
X171769623Y-65496262D01*
G37*
%TD.AperFunction*%
%TD*%
%TA.AperFunction,Conductor*%
%TO.N,+3.3V*%
G36*
X171091659Y-65503763D02*
G01*
X171092420Y-65505868D01*
X171265652Y-66181224D01*
X171264388Y-66190089D01*
X171257226Y-66195464D01*
X171255939Y-66195718D01*
X170975970Y-66234867D01*
X170967302Y-66232619D01*
X170963601Y-66227900D01*
X170929296Y-66148077D01*
X170929293Y-66148070D01*
X170804118Y-65908689D01*
X170804113Y-65908683D01*
X170804111Y-65908678D01*
X170730254Y-65804978D01*
X170661728Y-65728962D01*
X170658734Y-65720523D01*
X170662144Y-65712856D01*
X170789709Y-65585291D01*
X170797981Y-65581865D01*
X170803278Y-65583133D01*
X170828750Y-65596071D01*
X170828750Y-65596070D01*
X170828751Y-65596071D01*
X170849426Y-65594180D01*
X170870102Y-65592289D01*
X170870103Y-65592289D01*
X170977698Y-65544837D01*
X170984543Y-65541592D01*
X171076078Y-65498202D01*
X171085019Y-65497755D01*
X171091659Y-65503763D01*
G37*
%TD.AperFunction*%
%TD*%
%TA.AperFunction,Conductor*%
%TO.N,+3.3V*%
G36*
X170999349Y-65540017D02*
G01*
X171005612Y-65546418D01*
X171005927Y-65547305D01*
X171033533Y-65636131D01*
X171033949Y-65637997D01*
X171044741Y-65715852D01*
X171044785Y-65716216D01*
X171047684Y-65743408D01*
X171047686Y-65743414D01*
X171069982Y-65828174D01*
X171098506Y-65875375D01*
X171098508Y-65875378D01*
X171138497Y-65921051D01*
X171141368Y-65929533D01*
X171137967Y-65937031D01*
X171011954Y-66063044D01*
X171003681Y-66066471D01*
X170996062Y-66063650D01*
X170943554Y-66018594D01*
X170943543Y-66018586D01*
X170890926Y-65989690D01*
X170890921Y-65989688D01*
X170791043Y-65969767D01*
X170791033Y-65969766D01*
X170737778Y-65963378D01*
X170735965Y-65963013D01*
X170622684Y-65930723D01*
X170615667Y-65925159D01*
X170614639Y-65916264D01*
X170615033Y-65915112D01*
X170630986Y-65875375D01*
X170720616Y-65652114D01*
X170726879Y-65645714D01*
X170727084Y-65645628D01*
X170990396Y-65539919D01*
X170999349Y-65540017D01*
G37*
%TD.AperFunction*%
%TD*%
%TA.AperFunction,Conductor*%
%TO.N,/USART1_TX*%
G36*
X169162263Y-72954630D02*
G01*
X169842873Y-73234713D01*
X169846222Y-73236091D01*
X169868656Y-73245323D01*
X169872457Y-73247850D01*
X169873720Y-73249107D01*
X169877167Y-73257372D01*
X169877167Y-73257413D01*
X169874628Y-73264691D01*
X169874172Y-73265265D01*
X169871801Y-73267515D01*
X169830670Y-73296827D01*
X169830548Y-73296913D01*
X169830362Y-73297042D01*
X169830209Y-73297146D01*
X169788841Y-73324877D01*
X169735930Y-73369551D01*
X169733654Y-73385664D01*
X169732538Y-73389252D01*
X169730925Y-73392484D01*
X169728729Y-73395532D01*
X169600688Y-73523573D01*
X169596893Y-73526109D01*
X169594991Y-73526897D01*
X169586483Y-73527072D01*
X169585153Y-73526584D01*
X169581614Y-73524522D01*
X169580495Y-73523573D01*
X169469326Y-73429266D01*
X169469172Y-73429124D01*
X169468959Y-73428955D01*
X169310853Y-73331238D01*
X169309294Y-73329075D01*
X169161635Y-73271363D01*
X169159199Y-73269024D01*
X169042923Y-73252449D01*
X169038617Y-73250935D01*
X169037080Y-73250026D01*
X169031710Y-73242868D01*
X169031504Y-73242065D01*
X169032014Y-73234716D01*
X169143961Y-72962267D01*
X169146483Y-72958470D01*
X169147741Y-72957205D01*
X169156001Y-72953756D01*
X169157782Y-72953751D01*
X169162263Y-72954630D01*
G37*
%TD.AperFunction*%
%TD*%
%TA.AperFunction,Conductor*%
%TO.N,/USART1_TX*%
G36*
X171286656Y-74130956D02*
G01*
X171287749Y-74131892D01*
X171290893Y-74136179D01*
X171400690Y-74393266D01*
X171401629Y-74397732D01*
X171401675Y-74401903D01*
X171400736Y-74406627D01*
X171290888Y-74663831D01*
X171288309Y-74667600D01*
X171287034Y-74668847D01*
X171278726Y-74672182D01*
X171277166Y-74672165D01*
X171272279Y-74671037D01*
X171180475Y-74627494D01*
X171180030Y-74627271D01*
X171179558Y-74627022D01*
X171179109Y-74626773D01*
X171104082Y-74582880D01*
X171103983Y-74582821D01*
X171103861Y-74582748D01*
X171103868Y-74582734D01*
X171103812Y-74582719D01*
X171084098Y-74570795D01*
X171078423Y-74567362D01*
X171072749Y-74563930D01*
X171022059Y-74541236D01*
X170971370Y-74518543D01*
X170899314Y-74504829D01*
X170899255Y-74504818D01*
X170899238Y-74504815D01*
X170816009Y-74500668D01*
X170811583Y-74499557D01*
X170809820Y-74498722D01*
X170803909Y-74492351D01*
X170803347Y-74490892D01*
X170802567Y-74486690D01*
X170802567Y-74313390D01*
X170803454Y-74308920D01*
X170804211Y-74307091D01*
X170810243Y-74300888D01*
X170811647Y-74300260D01*
X170815762Y-74299260D01*
X170887391Y-74295248D01*
X170908315Y-74294076D01*
X170920351Y-74291443D01*
X170922074Y-74291067D01*
X170922074Y-74291066D01*
X170922078Y-74291066D01*
X170985036Y-74277303D01*
X171045864Y-74251181D01*
X171103928Y-74217209D01*
X171126861Y-74203241D01*
X171127217Y-74203035D01*
X171127356Y-74202957D01*
X171127619Y-74202810D01*
X171127960Y-74202628D01*
X171271974Y-74129543D01*
X171276367Y-74128313D01*
X171278147Y-74128176D01*
X171286656Y-74130956D01*
G37*
%TD.AperFunction*%
%TD*%
%TA.AperFunction,Conductor*%
%TO.N,/USART1_RX*%
G36*
X169911630Y-71413475D02*
G01*
X169911927Y-71413614D01*
X170024295Y-71468164D01*
X170025197Y-71468652D01*
X170116811Y-71523568D01*
X170220484Y-71582027D01*
X170290879Y-71597938D01*
X170298193Y-71603104D01*
X170300000Y-71609350D01*
X170300000Y-71789730D01*
X170296573Y-71798003D01*
X170289817Y-71801331D01*
X170255507Y-71805817D01*
X170211725Y-71821882D01*
X170116800Y-71876437D01*
X170068682Y-71906105D01*
X170067867Y-71906564D01*
X169912031Y-71986216D01*
X169903105Y-71986930D01*
X169902545Y-71986733D01*
X169384813Y-71789730D01*
X169177736Y-71710934D01*
X169171223Y-71704790D01*
X169170963Y-71695839D01*
X169177108Y-71689325D01*
X169177730Y-71689067D01*
X169902680Y-71413215D01*
X169911630Y-71413475D01*
G37*
%TD.AperFunction*%
%TD*%
%TA.AperFunction,Conductor*%
%TO.N,/USART1_RX*%
G36*
X171022210Y-72830994D02*
G01*
X171025619Y-72838613D01*
X171030923Y-72933316D01*
X171044708Y-72996367D01*
X171047697Y-73010037D01*
X171073819Y-73070865D01*
X171107791Y-73128929D01*
X171107800Y-73128944D01*
X171121856Y-73152025D01*
X171122296Y-73152815D01*
X171196507Y-73299049D01*
X171197195Y-73307978D01*
X171191369Y-73314777D01*
X171190669Y-73315104D01*
X170929595Y-73426604D01*
X170920641Y-73426702D01*
X170920405Y-73426604D01*
X170659026Y-73314974D01*
X170652763Y-73308573D01*
X170652861Y-73299619D01*
X170653030Y-73299243D01*
X170697628Y-73205216D01*
X170698083Y-73204353D01*
X170742200Y-73128944D01*
X170742220Y-73128909D01*
X170761071Y-73097747D01*
X170806457Y-72996369D01*
X170820182Y-72924253D01*
X170821015Y-72907524D01*
X170824447Y-72838685D01*
X170828281Y-72830592D01*
X170836132Y-72827567D01*
X171013937Y-72827567D01*
X171022210Y-72830994D01*
G37*
%TD.AperFunction*%
%TD*%
%TA.AperFunction,Conductor*%
%TO.N,Net-(U4-EN)*%
G36*
X163303659Y-65207159D02*
G01*
X163433499Y-65335529D01*
X163693563Y-65592647D01*
X163697037Y-65600900D01*
X163694524Y-65608212D01*
X163434038Y-65938537D01*
X163426224Y-65942911D01*
X163417606Y-65940479D01*
X163415780Y-65938681D01*
X163388275Y-65904914D01*
X163339471Y-65872727D01*
X163281203Y-65851528D01*
X163216080Y-65839402D01*
X163075769Y-65834713D01*
X163075748Y-65834713D01*
X163075746Y-65834713D01*
X163075745Y-65834713D01*
X162939364Y-65843347D01*
X162939304Y-65843350D01*
X162837379Y-65849279D01*
X162828921Y-65846339D01*
X162825020Y-65838278D01*
X162825000Y-65837599D01*
X162825000Y-65361740D01*
X162828427Y-65353467D01*
X162836698Y-65350040D01*
X162847278Y-65350077D01*
X162900644Y-65349911D01*
X163035931Y-65335529D01*
X163164305Y-65289652D01*
X163229077Y-65251483D01*
X163288330Y-65206183D01*
X163296981Y-65203882D01*
X163303659Y-65207159D01*
G37*
%TD.AperFunction*%
%TD*%
%TA.AperFunction,Conductor*%
%TO.N,Net-(U4-SW)*%
G36*
X156999990Y-65021051D02*
G01*
X157202260Y-65115736D01*
X157235566Y-65131327D01*
X157236258Y-65131679D01*
X157428650Y-65237822D01*
X157579555Y-65320959D01*
X157725313Y-65381349D01*
X157840031Y-65398509D01*
X157847705Y-65403121D01*
X157849999Y-65410079D01*
X157849999Y-65989638D01*
X157846572Y-65997911D01*
X157839714Y-66001252D01*
X157749462Y-66012244D01*
X157749460Y-66012244D01*
X157649345Y-66046163D01*
X157649341Y-66046165D01*
X157428656Y-66162173D01*
X157270254Y-66250383D01*
X157269586Y-66250727D01*
X157000017Y-66378903D01*
X156991130Y-66379381D01*
X155080571Y-65711044D01*
X155073893Y-65705077D01*
X155073390Y-65696137D01*
X155079357Y-65689459D01*
X155080571Y-65688956D01*
X156991171Y-65020604D01*
X156999990Y-65021051D01*
G37*
%TD.AperFunction*%
%TD*%
%TA.AperFunction,Conductor*%
%TO.N,Net-(U4-SW)*%
G36*
X158285926Y-65270344D02*
G01*
X158292786Y-65272829D01*
X158293063Y-65273046D01*
X158295078Y-65275066D01*
X158362592Y-65361760D01*
X158618971Y-65690975D01*
X158621020Y-65695056D01*
X158621713Y-65697571D01*
X158621247Y-65705145D01*
X158621012Y-65705714D01*
X158619429Y-65708437D01*
X158295634Y-66124218D01*
X158292183Y-66127202D01*
X158289770Y-66128573D01*
X158282608Y-66130018D01*
X158282255Y-66129976D01*
X158279481Y-66129295D01*
X158142971Y-66077424D01*
X158142517Y-66077207D01*
X158142123Y-66077094D01*
X158141966Y-66077048D01*
X158016558Y-66039227D01*
X157847168Y-66007627D01*
X157846410Y-66007402D01*
X157846259Y-66007402D01*
X157845666Y-66007387D01*
X157713430Y-66000680D01*
X157709005Y-65999564D01*
X157707240Y-65998726D01*
X157701337Y-65992355D01*
X157700779Y-65990902D01*
X157700000Y-65986705D01*
X157700000Y-65413617D01*
X157700889Y-65409143D01*
X157701618Y-65407382D01*
X157707752Y-65401133D01*
X157709247Y-65400482D01*
X157713492Y-65399518D01*
X157808484Y-65396132D01*
X158012374Y-65361759D01*
X158013156Y-65361694D01*
X158013893Y-65361432D01*
X158140166Y-65323569D01*
X158278649Y-65271015D01*
X158283144Y-65270260D01*
X158285926Y-65270344D01*
G37*
%TD.AperFunction*%
%TD*%
%TA.AperFunction,Conductor*%
%TO.N,Net-(U4-SW)*%
G36*
X158967758Y-65270024D02*
G01*
X158970511Y-65270700D01*
X159107963Y-65322930D01*
X159233442Y-65360773D01*
X159404034Y-65392597D01*
X159536569Y-65399318D01*
X159540992Y-65400433D01*
X159542756Y-65401270D01*
X159548658Y-65407635D01*
X159549218Y-65409089D01*
X159550000Y-65413294D01*
X159550000Y-65986381D01*
X159549108Y-65990863D01*
X159548379Y-65992621D01*
X159542243Y-65998866D01*
X159540753Y-65999515D01*
X159536498Y-66000481D01*
X159521705Y-66001008D01*
X159441516Y-66003868D01*
X159441509Y-66003868D01*
X159441507Y-66003869D01*
X159441489Y-66003871D01*
X159236817Y-66038375D01*
X159236669Y-66038398D01*
X159109848Y-66076424D01*
X159109843Y-66076426D01*
X159109817Y-66076435D01*
X158971355Y-66128982D01*
X158966850Y-66129738D01*
X158964073Y-66129654D01*
X158957212Y-66127169D01*
X158956935Y-66126952D01*
X158954919Y-66124931D01*
X158887530Y-66038398D01*
X158848439Y-65988201D01*
X158631025Y-65709022D01*
X158628980Y-65704950D01*
X158628285Y-65702428D01*
X158628754Y-65694845D01*
X158628994Y-65694266D01*
X158630566Y-65691567D01*
X158954368Y-65275774D01*
X158957817Y-65272794D01*
X158960233Y-65271422D01*
X158967389Y-65269979D01*
X158967758Y-65270024D01*
G37*
%TD.AperFunction*%
%TD*%
%TA.AperFunction,Conductor*%
%TO.N,+3.3V*%
G36*
X168491818Y-64823479D02*
G01*
X168495245Y-64831752D01*
X168494596Y-64835594D01*
X168470711Y-64904287D01*
X168470711Y-64904289D01*
X168497473Y-64942706D01*
X168497692Y-64943032D01*
X168512260Y-64965538D01*
X168523227Y-64971742D01*
X168523490Y-64971474D01*
X168531736Y-64967983D01*
X168540035Y-64971345D01*
X168542088Y-64974061D01*
X168707517Y-65276007D01*
X168708487Y-65284909D01*
X168702878Y-65291890D01*
X168699221Y-65293163D01*
X168593939Y-65311097D01*
X168585208Y-65309108D01*
X168583578Y-65307712D01*
X168458578Y-65178921D01*
X168330845Y-65047314D01*
X168328432Y-65043642D01*
X168300891Y-64977151D01*
X168300000Y-64972674D01*
X168300000Y-64831752D01*
X168303427Y-64823479D01*
X168311700Y-64820052D01*
X168483545Y-64820052D01*
X168491818Y-64823479D01*
G37*
%TD.AperFunction*%
%TD*%
%TA.AperFunction,Conductor*%
%TO.N,Net-(D3-A)*%
G36*
X177196982Y-69978427D02*
G01*
X177200402Y-69986283D01*
X177203868Y-70083483D01*
X177203869Y-70083490D01*
X177238402Y-70288338D01*
X177238402Y-70288342D01*
X177276428Y-70415159D01*
X177276433Y-70415173D01*
X177330283Y-70557072D01*
X177330014Y-70566023D01*
X177327883Y-70569222D01*
X176908539Y-71016884D01*
X176900382Y-71020579D01*
X176892001Y-71017424D01*
X176891461Y-71016884D01*
X176472118Y-70569224D01*
X176468963Y-70560843D01*
X176469718Y-70557075D01*
X176522930Y-70417037D01*
X176560773Y-70291558D01*
X176592597Y-70120966D01*
X176599437Y-69986107D01*
X176603279Y-69978018D01*
X176611122Y-69975000D01*
X177188709Y-69975000D01*
X177196982Y-69978427D01*
G37*
%TD.AperFunction*%
%TD*%
%TA.AperFunction,Conductor*%
%TO.N,Net-(D3-A)*%
G36*
X176907747Y-69130844D02*
G01*
X177290543Y-69469038D01*
X177294474Y-69477084D01*
X177291564Y-69485553D01*
X177290954Y-69486192D01*
X177254818Y-69521344D01*
X177222480Y-69567080D01*
X177188802Y-69661276D01*
X177183872Y-69754766D01*
X177183872Y-69754772D01*
X177192597Y-69842205D01*
X177192603Y-69842326D01*
X177192609Y-69842326D01*
X177198861Y-69912258D01*
X177196184Y-69920804D01*
X177188249Y-69924954D01*
X177187207Y-69925000D01*
X176612793Y-69925000D01*
X176604520Y-69921573D01*
X176601093Y-69913300D01*
X176601139Y-69912258D01*
X176607391Y-69842326D01*
X176615583Y-69764464D01*
X176610031Y-69655047D01*
X176574469Y-69561877D01*
X176543004Y-69518825D01*
X176509132Y-69486191D01*
X176505552Y-69477983D01*
X176508824Y-69469647D01*
X176509503Y-69468997D01*
X176892253Y-69130844D01*
X176900722Y-69127934D01*
X176907747Y-69130844D01*
G37*
%TD.AperFunction*%
%TD*%
%TA.AperFunction,Conductor*%
%TO.N,Net-(D3-A)*%
G36*
X177341058Y-71027427D02*
G01*
X177344485Y-71035700D01*
X177343664Y-71040006D01*
X177317318Y-71106562D01*
X177317318Y-71106564D01*
X177296523Y-71196016D01*
X177283437Y-71389079D01*
X177296441Y-71590073D01*
X177296443Y-71590096D01*
X177321231Y-71785857D01*
X177334174Y-71882379D01*
X177334239Y-71882977D01*
X177348961Y-72062343D01*
X177346222Y-72070869D01*
X177338257Y-72074961D01*
X177337300Y-72075000D01*
X176762570Y-72075000D01*
X176754297Y-72071573D01*
X176750870Y-72063300D01*
X176750900Y-72062462D01*
X176755721Y-71995305D01*
X176755744Y-71995031D01*
X176759605Y-71954588D01*
X176761102Y-71825885D01*
X176737411Y-71731221D01*
X176686690Y-71660519D01*
X176648476Y-71632478D01*
X176648473Y-71632476D01*
X176613285Y-71616219D01*
X176607212Y-71609638D01*
X176607571Y-71600691D01*
X176608909Y-71598477D01*
X177046487Y-71028574D01*
X177054243Y-71024100D01*
X177055767Y-71024000D01*
X177332785Y-71024000D01*
X177341058Y-71027427D01*
G37*
%TD.AperFunction*%
%TD*%
%TA.AperFunction,Conductor*%
%TO.N,Net-(D3-A)*%
G36*
X176430543Y-68302393D02*
G01*
X176430726Y-68302579D01*
X176491473Y-68366320D01*
X176537391Y-68415187D01*
X176693647Y-68565261D01*
X176829546Y-68661461D01*
X176910941Y-68695503D01*
X176951636Y-68712523D01*
X176951639Y-68712524D01*
X177050212Y-68723307D01*
X177058064Y-68727614D01*
X177060571Y-68736210D01*
X177059759Y-68739392D01*
X176903121Y-69119843D01*
X176896802Y-69126189D01*
X176894476Y-69126885D01*
X176439999Y-69212847D01*
X176431234Y-69211018D01*
X176426329Y-69203525D01*
X176426159Y-69200463D01*
X176430566Y-69142594D01*
X176430566Y-69142591D01*
X176430566Y-69142589D01*
X176416728Y-69070967D01*
X176387165Y-69001448D01*
X176345556Y-68934662D01*
X176240914Y-68811805D01*
X176132235Y-68707434D01*
X176132206Y-68707406D01*
X176077648Y-68655738D01*
X176073997Y-68647561D01*
X176077198Y-68639198D01*
X176077383Y-68639008D01*
X176413998Y-68302392D01*
X176422270Y-68298966D01*
X176430543Y-68302393D01*
G37*
%TD.AperFunction*%
%TD*%
%TA.AperFunction,Conductor*%
%TO.N,Net-(D3-A)*%
G36*
X175743765Y-67413980D02*
G01*
X175748670Y-67421473D01*
X175748840Y-67424535D01*
X175744433Y-67482404D01*
X175744433Y-67482407D01*
X175747696Y-67499293D01*
X175758272Y-67554033D01*
X175787835Y-67623552D01*
X175829444Y-67690338D01*
X175934085Y-67813194D01*
X176021751Y-67897385D01*
X176042784Y-67917584D01*
X176097351Y-67969261D01*
X176101002Y-67977438D01*
X176097801Y-67985801D01*
X176097579Y-67986029D01*
X175761002Y-68322606D01*
X175752729Y-68326033D01*
X175744456Y-68322606D01*
X175744259Y-68322405D01*
X175683527Y-68258680D01*
X175683471Y-68258620D01*
X175637610Y-68209815D01*
X175637600Y-68209805D01*
X175481357Y-68059744D01*
X175481352Y-68059739D01*
X175345453Y-67963539D01*
X175345446Y-67963536D01*
X175223362Y-67912476D01*
X175124786Y-67901692D01*
X175116934Y-67897385D01*
X175114427Y-67888789D01*
X175115237Y-67885612D01*
X175271879Y-67505154D01*
X175278197Y-67498810D01*
X175280517Y-67498115D01*
X175735000Y-67412151D01*
X175743765Y-67413980D01*
G37*
%TD.AperFunction*%
%TD*%
%TA.AperFunction,Conductor*%
%TO.N,5V*%
G36*
X158478381Y-68384449D02*
G01*
X158484672Y-68389017D01*
X158560909Y-68499506D01*
X158745091Y-68766438D01*
X158746901Y-68770630D01*
X158747527Y-68773549D01*
X158746806Y-68780692D01*
X158746799Y-68780708D01*
X158745710Y-68782663D01*
X158485794Y-69159355D01*
X158482514Y-69162537D01*
X158481019Y-69163503D01*
X158472219Y-69165117D01*
X158471626Y-69164990D01*
X158464550Y-69160341D01*
X158439223Y-69124820D01*
X158439217Y-69124813D01*
X158391826Y-69089430D01*
X158335282Y-69066651D01*
X158335276Y-69066649D01*
X158335274Y-69066648D01*
X158335253Y-69066641D01*
X158335081Y-69066611D01*
X158324622Y-69064563D01*
X158272003Y-69054257D01*
X158135082Y-69051845D01*
X158000765Y-69064550D01*
X158000644Y-69064561D01*
X158000537Y-69064570D01*
X158000525Y-69064571D01*
X157889987Y-69073754D01*
X157885449Y-69073236D01*
X157883754Y-69072693D01*
X157876921Y-69066907D01*
X157876298Y-69065697D01*
X157875000Y-69060341D01*
X157875000Y-68490039D01*
X157875889Y-68485566D01*
X157875951Y-68485417D01*
X157876571Y-68483918D01*
X157882896Y-68477587D01*
X157884165Y-68477061D01*
X157889607Y-68476213D01*
X158000462Y-68485422D01*
X158000558Y-68485431D01*
X158000796Y-68485455D01*
X158053559Y-68491283D01*
X158222482Y-68499506D01*
X158340058Y-68481947D01*
X158421148Y-68441284D01*
X158463691Y-68388918D01*
X158467200Y-68386009D01*
X158468769Y-68385160D01*
X158477670Y-68384238D01*
X158478381Y-68384449D01*
G37*
%TD.AperFunction*%
%TD*%
%TA.AperFunction,Conductor*%
%TO.N,5V*%
G36*
X157767864Y-68476398D02*
G01*
X157769100Y-68476838D01*
X157769541Y-68476995D01*
X157776185Y-68482997D01*
X157776834Y-68484365D01*
X157777964Y-68489380D01*
X157777964Y-69061158D01*
X157777572Y-69062102D01*
X157777072Y-69065638D01*
X157776369Y-69067334D01*
X157774715Y-69069001D01*
X157774537Y-69069431D01*
X157774061Y-69069659D01*
X157770127Y-69073626D01*
X157768551Y-69074294D01*
X157764173Y-69075220D01*
X157743020Y-69075559D01*
X157742239Y-69075572D01*
X157742114Y-69075573D01*
X157741626Y-69075621D01*
X157741563Y-69075631D01*
X157623843Y-69087933D01*
X157552882Y-69095349D01*
X157392950Y-69138895D01*
X157276767Y-69199493D01*
X157199974Y-69273759D01*
X157157346Y-69363393D01*
X157157345Y-69363396D01*
X157157343Y-69363409D01*
X157148819Y-69416213D01*
X157148819Y-69416216D01*
X157149620Y-69456097D01*
X157148818Y-69460594D01*
X157148169Y-69462253D01*
X157141976Y-69468704D01*
X157141411Y-69468952D01*
X157133010Y-69469339D01*
X157131848Y-69468952D01*
X156518774Y-69264691D01*
X155059209Y-68778401D01*
X155055244Y-68776142D01*
X155053090Y-68774274D01*
X155049357Y-68768079D01*
X155049302Y-68767844D01*
X155049000Y-68765202D01*
X155049000Y-68714003D01*
X155049889Y-68709529D01*
X155050574Y-68707874D01*
X155056892Y-68701547D01*
X155058531Y-68700866D01*
X155062992Y-68699971D01*
X155489514Y-68699129D01*
X155925400Y-68670770D01*
X156120939Y-68649772D01*
X156350116Y-68625163D01*
X156562911Y-68597650D01*
X156754581Y-68572870D01*
X156758321Y-68573125D01*
X156760592Y-68572129D01*
X157425283Y-68492787D01*
X157425629Y-68492752D01*
X157426081Y-68492714D01*
X157426415Y-68492692D01*
X157763352Y-68475735D01*
X157767864Y-68476398D01*
G37*
%TD.AperFunction*%
%TD*%
%TA.AperFunction,Conductor*%
%TO.N,5V*%
G36*
X156506803Y-71509674D02*
G01*
X156507824Y-71510910D01*
X156745325Y-71842087D01*
X156747361Y-71850807D01*
X156744249Y-71857016D01*
X156327215Y-72290542D01*
X156319010Y-72294129D01*
X156310672Y-72290863D01*
X156309761Y-72289881D01*
X156270620Y-72242481D01*
X156270617Y-72242477D01*
X156235918Y-72213886D01*
X156219544Y-72200394D01*
X156219542Y-72200393D01*
X156219541Y-72200392D01*
X156165966Y-72171495D01*
X156165962Y-72171493D01*
X156165954Y-72171490D01*
X156110975Y-72153541D01*
X156001035Y-72141468D01*
X155929429Y-72144766D01*
X155898356Y-72146197D01*
X155898321Y-72146198D01*
X155837306Y-72149361D01*
X155828866Y-72146367D01*
X155825016Y-72138283D01*
X155825000Y-72137677D01*
X155825000Y-71563013D01*
X155828427Y-71554740D01*
X155836700Y-71551313D01*
X155837929Y-71551378D01*
X155995936Y-71568223D01*
X155995955Y-71568233D01*
X155995956Y-71568226D01*
X156221106Y-71592642D01*
X156354971Y-71584968D01*
X156443340Y-71553772D01*
X156490263Y-71509240D01*
X156498622Y-71506032D01*
X156506803Y-71509674D01*
G37*
%TD.AperFunction*%
%TD*%
%TA.AperFunction,Conductor*%
%TO.N,5V*%
G36*
X155477149Y-71371572D02*
G01*
X155695536Y-71457284D01*
X155933868Y-71528691D01*
X156032059Y-71544836D01*
X156106326Y-71548962D01*
X156113949Y-71549386D01*
X156122019Y-71553267D01*
X156125000Y-71561068D01*
X156125000Y-72138406D01*
X156121573Y-72146679D01*
X156114124Y-72150076D01*
X156093189Y-72151555D01*
X156017437Y-72156906D01*
X156017432Y-72156906D01*
X156017431Y-72156907D01*
X155914159Y-72175711D01*
X155914143Y-72175715D01*
X155719776Y-72234048D01*
X155477136Y-72328454D01*
X155468184Y-72328260D01*
X155465362Y-72326503D01*
X154909641Y-71858953D01*
X154905516Y-71851004D01*
X154908220Y-71842468D01*
X154909641Y-71841047D01*
X155465345Y-71373510D01*
X155473880Y-71370807D01*
X155477149Y-71371572D01*
G37*
%TD.AperFunction*%
%TD*%
%TA.AperFunction,Conductor*%
%TO.N,5V*%
G36*
X159170564Y-68439872D02*
G01*
X159171773Y-68440514D01*
X159174948Y-68442987D01*
X159383734Y-68673333D01*
X159384038Y-68673682D01*
X159384347Y-68674053D01*
X159384637Y-68674414D01*
X159534999Y-68870249D01*
X159535025Y-68870328D01*
X159535047Y-68870312D01*
X159535153Y-68870452D01*
X159575897Y-68925205D01*
X159586660Y-68939669D01*
X159703223Y-69077422D01*
X159705434Y-69081415D01*
X159706062Y-69083379D01*
X159705531Y-69091867D01*
X159704937Y-69093147D01*
X159702597Y-69096495D01*
X159298072Y-69501020D01*
X159294280Y-69503555D01*
X159292635Y-69504237D01*
X159283680Y-69504239D01*
X159282428Y-69503721D01*
X159277959Y-69500450D01*
X159209132Y-69418712D01*
X159209059Y-69418624D01*
X159208955Y-69418498D01*
X159208854Y-69418374D01*
X159175896Y-69376971D01*
X159175895Y-69376970D01*
X159175888Y-69376961D01*
X159175765Y-69376825D01*
X159175729Y-69376784D01*
X159175717Y-69376772D01*
X159066016Y-69255659D01*
X158974032Y-69188496D01*
X158974027Y-69188494D01*
X158891452Y-69163033D01*
X158891334Y-69162995D01*
X158891327Y-69162995D01*
X158850822Y-69164037D01*
X158850819Y-69164037D01*
X158850808Y-69164039D01*
X158850802Y-69164041D01*
X158827908Y-69170087D01*
X158823356Y-69170370D01*
X158822954Y-69170315D01*
X158821591Y-69170131D01*
X158813854Y-69165630D01*
X158813805Y-69165566D01*
X158813485Y-69165144D01*
X158811167Y-69156883D01*
X158819111Y-69079197D01*
X158861034Y-68669206D01*
X158862375Y-68664844D01*
X158864310Y-68661255D01*
X158867588Y-68657450D01*
X159156036Y-68441358D01*
X159160149Y-68439389D01*
X159162183Y-68438870D01*
X159170564Y-68439872D01*
G37*
%TD.AperFunction*%
%TD*%
%TA.AperFunction,Conductor*%
%TO.N,5V*%
G36*
X157094180Y-71520195D02*
G01*
X157232963Y-71572930D01*
X157358442Y-71610773D01*
X157529034Y-71642597D01*
X157663894Y-71649436D01*
X157671982Y-71653277D01*
X157675000Y-71661121D01*
X157675000Y-72238709D01*
X157671573Y-72246982D01*
X157663717Y-72250402D01*
X157566516Y-72253868D01*
X157566509Y-72253869D01*
X157361661Y-72288402D01*
X157361657Y-72288402D01*
X157234840Y-72326428D01*
X157234826Y-72326433D01*
X157094179Y-72379808D01*
X157085228Y-72379539D01*
X157080797Y-72376058D01*
X156973439Y-72238201D01*
X156754597Y-71957188D01*
X156752218Y-71948556D01*
X156754597Y-71942812D01*
X157080796Y-71523942D01*
X157088581Y-71519522D01*
X157094180Y-71520195D01*
G37*
%TD.AperFunction*%
%TD*%
%TA.AperFunction,Conductor*%
%TO.N,5V*%
G36*
X155058265Y-69407276D02*
G01*
X155529571Y-69879255D01*
X155732251Y-70082225D01*
X155735672Y-70090500D01*
X155732239Y-70098771D01*
X155724986Y-70102148D01*
X155690556Y-70105143D01*
X155690553Y-70105143D01*
X155637426Y-70119813D01*
X155584850Y-70146216D01*
X155538955Y-70181855D01*
X155538948Y-70181861D01*
X155491130Y-70236155D01*
X155451891Y-70299714D01*
X155410840Y-70396467D01*
X155382171Y-70499174D01*
X155356520Y-70664757D01*
X155356519Y-70664771D01*
X155350537Y-70788862D01*
X155346716Y-70796961D01*
X155338851Y-70799999D01*
X154761545Y-70799999D01*
X154753272Y-70796572D01*
X154749846Y-70788456D01*
X154749537Y-70765396D01*
X154749537Y-70765387D01*
X154730250Y-70562870D01*
X154714245Y-70499174D01*
X154686560Y-70388995D01*
X154686559Y-70388993D01*
X154686558Y-70388989D01*
X154625076Y-70259868D01*
X154549692Y-70171746D01*
X154549691Y-70171745D01*
X154459784Y-70118770D01*
X154459777Y-70118767D01*
X154407760Y-70104846D01*
X154407747Y-70104843D01*
X154375096Y-70102104D01*
X154367138Y-70097997D01*
X154364415Y-70089467D01*
X154367794Y-70082179D01*
X155041722Y-69407288D01*
X155049992Y-69403856D01*
X155058265Y-69407276D01*
G37*
%TD.AperFunction*%
%TD*%
%TA.AperFunction,Conductor*%
%TO.N,5V*%
G36*
X155346521Y-70853427D02*
G01*
X155349948Y-70861700D01*
X155349948Y-70861752D01*
X155349869Y-70879405D01*
X155354156Y-71021772D01*
X155382513Y-71161419D01*
X155444506Y-71292777D01*
X155490772Y-71357095D01*
X155490793Y-71357121D01*
X155541872Y-71413124D01*
X155544916Y-71421545D01*
X155541112Y-71429652D01*
X155540846Y-71429888D01*
X155058234Y-71843935D01*
X155049724Y-71846721D01*
X155042335Y-71843320D01*
X154565943Y-71365974D01*
X154562524Y-71357697D01*
X154565959Y-71349428D01*
X154572240Y-71346179D01*
X154621669Y-71337688D01*
X154674583Y-71303864D01*
X154711482Y-71253195D01*
X154735107Y-71190349D01*
X154742775Y-71130486D01*
X154753495Y-71046810D01*
X154753495Y-71046805D01*
X154753496Y-71046798D01*
X154751676Y-70910553D01*
X154750333Y-70862024D01*
X154753530Y-70853659D01*
X154761705Y-70850004D01*
X154762029Y-70850000D01*
X155338248Y-70850000D01*
X155346521Y-70853427D01*
G37*
%TD.AperFunction*%
%TD*%
%TA.AperFunction,Conductor*%
%TO.N,Net-(U4-BS)*%
G36*
X158979832Y-66829481D02*
G01*
X158983274Y-66830724D01*
X159132160Y-66912777D01*
X159132496Y-66912970D01*
X159132863Y-66913189D01*
X159133218Y-66913408D01*
X159260677Y-66995893D01*
X159336385Y-67045577D01*
X159452773Y-67106497D01*
X159538202Y-67122754D01*
X159542432Y-67124465D01*
X159544451Y-67125790D01*
X159549213Y-67132126D01*
X159549482Y-67133002D01*
X159550000Y-67136442D01*
X159550000Y-67412289D01*
X159549108Y-67416770D01*
X159548271Y-67418789D01*
X159542578Y-67424831D01*
X159541463Y-67425373D01*
X159537739Y-67426467D01*
X159480636Y-67433304D01*
X159480019Y-67433340D01*
X159479537Y-67433521D01*
X159445866Y-67444713D01*
X159409959Y-67456650D01*
X159409956Y-67456651D01*
X159409952Y-67456653D01*
X159255048Y-67536371D01*
X159188908Y-67572912D01*
X159188635Y-67573058D01*
X159188336Y-67573213D01*
X159188036Y-67573363D01*
X158971460Y-67677874D01*
X158967039Y-67679018D01*
X158964454Y-67679165D01*
X158957113Y-67677092D01*
X158956578Y-67676720D01*
X158954241Y-67674569D01*
X158774132Y-67456650D01*
X158631448Y-67284012D01*
X158629284Y-67279998D01*
X158628542Y-67277583D01*
X158628848Y-67269842D01*
X158629128Y-67269136D01*
X158630753Y-67266288D01*
X158965331Y-66834744D01*
X158968772Y-66831755D01*
X158970781Y-66830609D01*
X158978778Y-66829280D01*
X158979832Y-66829481D01*
G37*
%TD.AperFunction*%
%TD*%
%TA.AperFunction,Conductor*%
%TO.N,Net-(U4-FB)*%
G36*
X159215459Y-70160824D02*
G01*
X159216965Y-70163024D01*
X159265581Y-70255006D01*
X159265583Y-70255008D01*
X159311526Y-70312734D01*
X159311527Y-70312735D01*
X159311530Y-70312738D01*
X159361582Y-70358711D01*
X159422866Y-70398778D01*
X159485255Y-70426126D01*
X159485256Y-70426126D01*
X159485258Y-70426127D01*
X159508570Y-70432013D01*
X159558081Y-70444515D01*
X159558084Y-70444515D01*
X159558087Y-70444516D01*
X159614257Y-70449119D01*
X159622221Y-70453210D01*
X159625000Y-70460780D01*
X159625000Y-70639395D01*
X159621573Y-70647668D01*
X159614447Y-70651039D01*
X159573598Y-70655061D01*
X159521038Y-70660238D01*
X159521036Y-70660238D01*
X159521031Y-70660239D01*
X159406775Y-70690614D01*
X159107542Y-70807431D01*
X159098589Y-70807247D01*
X159096346Y-70805951D01*
X158760770Y-70558673D01*
X158756144Y-70551007D01*
X158758293Y-70542314D01*
X158760039Y-70540422D01*
X159198955Y-70159652D01*
X159207449Y-70156820D01*
X159215459Y-70160824D01*
G37*
%TD.AperFunction*%
%TD*%
M02*
