%TF.GenerationSoftware,KiCad,Pcbnew,10.0.5*%
%TF.CreationDate,2026-10-04T17:43:01+08:00*%
%TF.ProjectId,TTLtoCANforTOF,54544c74-6f43-4414-9e66-6f72544f462e,rev?*%
%TF.SameCoordinates,Original*%
%TF.FileFunction,Copper,L1,Top*%
%TF.FilePolarity,Positive*%
%FSLAX46Y46*%
G04 Gerber Fmt 4.6, Leading zero omitted, Abs format (unit mm)*
G04 Created by KiCad (PCBNEW 10.0.5) date 2026-10-04 17:43:01*
%MOMM*%
%LPD*%
G01*
G04 APERTURE LIST*
G04 Aperture macros list*
%AMRoundRect*
0 Rectangle with rounded corners*
0 $1 Rounding radius*
0 $2 $3 $4 $5 $6 $7 $8 $9 X,Y pos of 4 corners*
0 Add a 4 corners polygon primitive as box body*
4,1,4,$2,$3,$4,$5,$6,$7,$8,$9,$2,$3,0*
0 Add four circle primitives for the rounded corners*
1,1,$1+$1,$2,$3*
1,1,$1+$1,$4,$5*
1,1,$1+$1,$6,$7*
1,1,$1+$1,$8,$9*
0 Add four rect primitives between the rounded corners*
20,1,$1+$1,$2,$3,$4,$5,0*
20,1,$1+$1,$4,$5,$6,$7,0*
20,1,$1+$1,$6,$7,$8,$9,0*
20,1,$1+$1,$8,$9,$2,$3,0*%
G04 Aperture macros list end*
%TA.AperFunction,Conductor*%
%ADD10C,0.200000*%
%TD*%
%TA.AperFunction,SMDPad,CuDef*%
%ADD11RoundRect,0.200000X-0.200000X-0.275000X0.200000X-0.275000X0.200000X0.275000X-0.200000X0.275000X0*%
%TD*%
%TA.AperFunction,SMDPad,CuDef*%
%ADD12RoundRect,0.225000X-0.225000X-0.250000X0.225000X-0.250000X0.225000X0.250000X-0.225000X0.250000X0*%
%TD*%
%TA.AperFunction,SMDPad,CuDef*%
%ADD13RoundRect,0.150000X-0.150000X0.587500X-0.150000X-0.587500X0.150000X-0.587500X0.150000X0.587500X0*%
%TD*%
%TA.AperFunction,SMDPad,CuDef*%
%ADD14RoundRect,0.200000X0.275000X-0.200000X0.275000X0.200000X-0.275000X0.200000X-0.275000X-0.200000X0*%
%TD*%
%TA.AperFunction,SMDPad,CuDef*%
%ADD15RoundRect,0.225000X-0.225000X-0.375000X0.225000X-0.375000X0.225000X0.375000X-0.225000X0.375000X0*%
%TD*%
%TA.AperFunction,SMDPad,CuDef*%
%ADD16RoundRect,0.225000X-0.250000X0.225000X-0.250000X-0.225000X0.250000X-0.225000X0.250000X0.225000X0*%
%TD*%
%TA.AperFunction,SMDPad,CuDef*%
%ADD17RoundRect,0.200000X-0.275000X0.200000X-0.275000X-0.200000X0.275000X-0.200000X0.275000X0.200000X0*%
%TD*%
%TA.AperFunction,SMDPad,CuDef*%
%ADD18RoundRect,0.250000X0.450000X-0.262500X0.450000X0.262500X-0.450000X0.262500X-0.450000X-0.262500X0*%
%TD*%
%TA.AperFunction,SMDPad,CuDef*%
%ADD19RoundRect,0.250000X-0.250000X-0.475000X0.250000X-0.475000X0.250000X0.475000X-0.250000X0.475000X0*%
%TD*%
%TA.AperFunction,SMDPad,CuDef*%
%ADD20RoundRect,0.150000X0.700000X-0.150000X0.700000X0.150000X-0.700000X0.150000X-0.700000X-0.150000X0*%
%TD*%
%TA.AperFunction,SMDPad,CuDef*%
%ADD21RoundRect,0.250000X1.150000X-0.250000X1.150000X0.250000X-1.150000X0.250000X-1.150000X-0.250000X0*%
%TD*%
%TA.AperFunction,SMDPad,CuDef*%
%ADD22R,1.500000X2.200000*%
%TD*%
%TA.AperFunction,SMDPad,CuDef*%
%ADD23RoundRect,0.150000X0.150000X-0.512500X0.150000X0.512500X-0.150000X0.512500X-0.150000X-0.512500X0*%
%TD*%
%TA.AperFunction,SMDPad,CuDef*%
%ADD24RoundRect,0.250000X1.100000X-0.325000X1.100000X0.325000X-1.100000X0.325000X-1.100000X-0.325000X0*%
%TD*%
%TA.AperFunction,ComponentPad*%
%ADD25RoundRect,0.760000X-1.140000X1.140000X-1.140000X-1.140000X1.140000X-1.140000X1.140000X1.140000X0*%
%TD*%
%TA.AperFunction,ComponentPad*%
%ADD26C,4.000000*%
%TD*%
%TA.AperFunction,ViaPad*%
%ADD27C,0.600000*%
%TD*%
%TA.AperFunction,Conductor*%
%ADD28C,0.600000*%
%TD*%
%TA.AperFunction,Conductor*%
%ADD29C,0.500000*%
%TD*%
G04 APERTURE END LIST*
D10*
%TO.N,VCC_IN*%
X175750000Y-74600000D02*
X175875000Y-74425000D01*
X178200000Y-74425000D01*
X178600000Y-74050000D01*
X178600000Y-72350000D01*
X179025000Y-71875000D01*
X182425000Y-71875000D01*
X182875000Y-72475000D01*
X182875000Y-75625000D01*
X182425000Y-76050000D01*
X175825000Y-76050000D01*
X175725000Y-75925000D01*
X175725000Y-74650000D01*
X175750000Y-74600000D01*
%TA.AperFunction,Conductor*%
G36*
X182875000Y-72475000D02*
G01*
X182875000Y-75625000D01*
X182425000Y-76050000D01*
X175825000Y-76050000D01*
X175725000Y-75925000D01*
X175725000Y-74650000D01*
X175750000Y-74600000D01*
X175875000Y-74425000D01*
X178200000Y-74425000D01*
X178600000Y-74050000D01*
X178600000Y-72350000D01*
X179025000Y-71875000D01*
X182425000Y-71875000D01*
X182875000Y-72475000D01*
G37*
%TD.AperFunction*%
%TO.N,+24V*%
X165600000Y-66900000D02*
X165725000Y-66650000D01*
X167925000Y-66650000D01*
X168075000Y-66925000D01*
X168075000Y-69050000D01*
X168350000Y-69325000D01*
X172650000Y-69325000D01*
X172900000Y-69075000D01*
X172600000Y-69225000D01*
X173050000Y-68650000D01*
X175525000Y-68675000D01*
X175750000Y-68925000D01*
X175800000Y-73575000D01*
X175645594Y-73787308D01*
X167978210Y-73812613D01*
X167875000Y-73675000D01*
X167875000Y-71163889D01*
X166903125Y-70300000D01*
X165700000Y-70300000D01*
X165600000Y-70175000D01*
X165600000Y-66900000D01*
%TA.AperFunction,Conductor*%
G36*
X168075000Y-66925000D02*
G01*
X168075000Y-69050000D01*
X168350000Y-69325000D01*
X172650000Y-69325000D01*
X172900000Y-69075000D01*
X172600000Y-69225000D01*
X173050000Y-68650000D01*
X175525000Y-68675000D01*
X175750000Y-68925000D01*
X175800000Y-73575000D01*
X175645594Y-73787308D01*
X167978210Y-73812613D01*
X167875000Y-73675000D01*
X167875000Y-71163889D01*
X166903125Y-70300000D01*
X165700000Y-70300000D01*
X165600000Y-70175000D01*
X165600000Y-66900000D01*
X165725000Y-66650000D01*
X167925000Y-66650000D01*
X168075000Y-66925000D01*
G37*
%TD.AperFunction*%
%TD*%
D11*
%TO.P,R4,1*%
%TO.N,Net-(C7-Pad1)*%
X163950000Y-61450000D03*
%TO.P,R4,2*%
%TO.N,Net-(U1-FB)*%
X165600000Y-61450000D03*
%TD*%
D12*
%TO.P,C15,1*%
%TO.N,+3.3V*%
X172625000Y-66000000D03*
%TO.P,C15,2*%
%TO.N,GND*%
X174175000Y-66000000D03*
%TD*%
D13*
%TO.P,Q2,1,G_1*%
%TO.N,Net-(D3-A)*%
X177050000Y-73337500D03*
%TO.P,Q2,2,S_2*%
%TO.N,+24V*%
X175150000Y-73337500D03*
%TO.P,Q2,3,D_3*%
%TO.N,VCC_IN*%
X176100000Y-75212500D03*
%TD*%
D14*
%TO.P,R9,1*%
%TO.N,+24V*%
X175275000Y-69150000D03*
%TO.P,R9,2*%
%TO.N,Net-(D3-A)*%
X175275000Y-67500000D03*
%TD*%
D12*
%TO.P,C7,1*%
%TO.N,Net-(C7-Pad1)*%
X163925000Y-63125000D03*
%TO.P,C7,2*%
%TO.N,Net-(U1-FB)*%
X165475000Y-63125000D03*
%TD*%
%TO.P,C20,1*%
%TO.N,GND*%
X158725000Y-67125000D03*
%TO.P,C20,2*%
%TO.N,5V*%
X160275000Y-67125000D03*
%TD*%
D15*
%TO.P,D3,1,K_1*%
%TO.N,+24V*%
X173600000Y-71025000D03*
%TO.P,D3,2,A_2*%
%TO.N,Net-(D3-A)*%
X176900000Y-71025000D03*
%TD*%
D12*
%TO.P,C13,1*%
%TO.N,+3.3V*%
X169475000Y-66050000D03*
%TO.P,C13,2*%
%TO.N,GND*%
X171025000Y-66050000D03*
%TD*%
D16*
%TO.P,C2,1*%
%TO.N,GND*%
X173550000Y-67525000D03*
%TO.P,C2,2*%
%TO.N,+24V*%
X173550000Y-69075000D03*
%TD*%
D17*
%TO.P,R8,1*%
%TO.N,GND*%
X176900000Y-67475000D03*
%TO.P,R8,2*%
%TO.N,Net-(D3-A)*%
X176900000Y-69125000D03*
%TD*%
D18*
%TO.P,R3,1*%
%TO.N,5V*%
X162125000Y-63275000D03*
%TO.P,R3,2*%
%TO.N,Net-(C7-Pad1)*%
X162125000Y-61450000D03*
%TD*%
D19*
%TO.P,C6,1*%
%TO.N,GND*%
X158350000Y-63125000D03*
%TO.P,C6,2*%
%TO.N,5V*%
X160250000Y-63125000D03*
%TD*%
D16*
%TO.P,C1,1*%
%TO.N,Net-(U1-BOOT)*%
X162300000Y-64850000D03*
%TO.P,C1,2*%
%TO.N,Net-(U1-SW)*%
X162300000Y-66400000D03*
%TD*%
D20*
%TO.P,J3,1,Pin_1_1*%
%TO.N,/USART1_TX*%
X155925000Y-73875000D03*
%TO.P,J3,2,Pin_2_2*%
%TO.N,/USART1_RX*%
X155925000Y-72625000D03*
%TO.P,J3,3,Pin_3_3*%
%TO.N,GND*%
X155925000Y-71375000D03*
%TO.P,J3,4,Pin_4_4*%
%TO.N,5V*%
X155925000Y-70125000D03*
D21*
%TO.P,J3,MP,MountPin_MP*%
%TO.N,GND*%
X152575000Y-75725000D03*
X152575000Y-68275000D03*
%TD*%
D12*
%TO.P,C14,1*%
%TO.N,+3.3V*%
X169475000Y-67625000D03*
%TO.P,C14,2*%
%TO.N,GND*%
X171025000Y-67625000D03*
%TD*%
D11*
%TO.P,R5,1*%
%TO.N,Net-(U1-FB)*%
X167325000Y-61525000D03*
%TO.P,R5,2*%
%TO.N,GND*%
X168975000Y-61525000D03*
%TD*%
D22*
%TO.P,L1,1*%
%TO.N,5V*%
X160200000Y-72275000D03*
%TO.P,L1,2*%
%TO.N,Net-(U1-SW)*%
X166600000Y-72275000D03*
%TD*%
D23*
%TO.P,U1,1,GND_1*%
%TO.N,GND*%
X163959389Y-67316599D03*
%TO.P,U1,2,SW_2*%
%TO.N,Net-(U1-SW)*%
X164909389Y-67316599D03*
%TO.P,U1,3,VIN_3*%
%TO.N,+24V*%
X165859389Y-67316599D03*
%TO.P,U1,4,FB_4*%
%TO.N,Net-(U1-FB)*%
X165859389Y-65041599D03*
%TO.P,U1,5,EN_5*%
%TO.N,Net-(U1-EN)*%
X164909389Y-65041599D03*
%TO.P,U1,6,BOOT_6*%
%TO.N,Net-(U1-BOOT)*%
X163959389Y-65041599D03*
%TD*%
D24*
%TO.P,C4,1*%
%TO.N,GND*%
X169325000Y-76125000D03*
%TO.P,C4,2*%
%TO.N,+24V*%
X169325000Y-73175000D03*
%TD*%
D14*
%TO.P,R1,1*%
%TO.N,+24V*%
X167375000Y-67425000D03*
%TO.P,R1,2*%
%TO.N,Net-(U1-EN)*%
X167375000Y-65775000D03*
%TD*%
D19*
%TO.P,C8,1*%
%TO.N,GND*%
X158300000Y-65250000D03*
%TO.P,C8,2*%
%TO.N,5V*%
X160200000Y-65250000D03*
%TD*%
D24*
%TO.P,C3,1*%
%TO.N,GND*%
X172725000Y-76100000D03*
%TO.P,C3,2*%
%TO.N,+24V*%
X172725000Y-73150000D03*
%TD*%
D11*
%TO.P,R2,1*%
%TO.N,Net-(U1-EN)*%
X167325000Y-63250000D03*
%TO.P,R2,2*%
%TO.N,GND*%
X168975000Y-63250000D03*
%TD*%
D25*
%TO.P,J4,1,Pin_1_1*%
%TO.N,GND*%
X180750000Y-68900000D03*
D26*
%TO.P,J4,2,Pin_2_2*%
%TO.N,VCC_IN*%
X180750000Y-73900000D03*
%TD*%
D27*
%TO.N,+3.3V*%
X169475000Y-66050000D03*
X171500000Y-68675000D03*
X172157136Y-68670518D03*
%TO.N,GND*%
X173000000Y-64825000D03*
X175575000Y-61562500D03*
X152175000Y-64275000D03*
X182850000Y-66425000D03*
X155475000Y-65925000D03*
X155475000Y-66550000D03*
X155850000Y-61325000D03*
X152175000Y-63625000D03*
X169875000Y-64737500D03*
X182850000Y-67050000D03*
X152275000Y-68750000D03*
X177125000Y-65312500D03*
X154850000Y-66575000D03*
X156475000Y-61325000D03*
X152800000Y-63625000D03*
X182325000Y-70050000D03*
X155850000Y-61975000D03*
X177875000Y-61712500D03*
X154850000Y-65925000D03*
X151650000Y-68775000D03*
X172325000Y-61562500D03*
X176150000Y-65912500D03*
X182325000Y-70700000D03*
X152275000Y-68125000D03*
X182225000Y-66425000D03*
X156475000Y-61950000D03*
X182950000Y-70050000D03*
X170012500Y-61875000D03*
X182950000Y-70675000D03*
X178125000Y-63912500D03*
X151650000Y-68125000D03*
X152800000Y-64250000D03*
X182225000Y-67075000D03*
%TO.N,5V*%
X161300000Y-69400000D03*
X161137500Y-67400000D03*
%TO.N,/USART1_TX*%
X171043716Y-74766038D03*
%TO.N,/USART1_RX*%
X169875546Y-74429609D03*
%TD*%
%TO.N,Net-(C7-Pad1)*%
D10*
X163950000Y-61450000D02*
X163950000Y-63100000D01*
X162125000Y-61287500D02*
X163787500Y-61287500D01*
X163787500Y-61287500D02*
X163950000Y-61450000D01*
X163950000Y-63100000D02*
X163925000Y-63125000D01*
%TO.N,Net-(U1-FB)*%
X165475000Y-61575000D02*
X165600000Y-61450000D01*
X167250000Y-61450000D02*
X167325000Y-61525000D01*
X165859389Y-65041599D02*
X165859389Y-63509389D01*
X165475000Y-63125000D02*
X165475000Y-61575000D01*
X165600000Y-61450000D02*
X167250000Y-61450000D01*
X165859389Y-63509389D02*
X165475000Y-63125000D01*
%TO.N,+3.3V*%
X172157136Y-68670518D02*
X172157136Y-66617864D01*
X171500000Y-68675000D02*
X171325000Y-68500000D01*
X170350000Y-68500000D02*
X169475000Y-67625000D01*
X172157136Y-66617864D02*
X172700000Y-66075000D01*
X172700000Y-66075000D02*
X172725000Y-66075000D01*
X171325000Y-68500000D02*
X170350000Y-68500000D01*
%TO.N,Net-(D3-A)*%
D28*
X176900000Y-69125000D02*
X176900000Y-71025000D01*
X177050000Y-73337500D02*
X177050000Y-71175000D01*
D29*
X175275000Y-67500000D02*
X176900000Y-69125000D01*
D10*
X177050000Y-71175000D02*
X176900000Y-71025000D01*
%TO.N,5V*%
D29*
X158437500Y-70100000D02*
X159162500Y-69375000D01*
X160275000Y-72625000D02*
X160275000Y-69775000D01*
X160275000Y-67125000D02*
X160275000Y-65325000D01*
X158437500Y-70100000D02*
X155925000Y-70100000D01*
X159850000Y-69375000D02*
X159875000Y-69375000D01*
X160275000Y-68950000D02*
X160275000Y-67125000D01*
D10*
X161300000Y-69400000D02*
X161125000Y-69400000D01*
D29*
X159162500Y-69375000D02*
X159850000Y-69375000D01*
X160275000Y-68950000D02*
X160675000Y-69350000D01*
X159875000Y-69375000D02*
X160275000Y-69775000D01*
X160250000Y-63125000D02*
X162112500Y-63125000D01*
X160675000Y-69375000D02*
X160275000Y-69375000D01*
D10*
X162112500Y-63125000D02*
X162125000Y-63112500D01*
D29*
X159850000Y-69375000D02*
X160275000Y-69375000D01*
X161137500Y-67400000D02*
X160550000Y-67400000D01*
X160275000Y-69775000D02*
X160275000Y-69375000D01*
X159850000Y-69375000D02*
X160275000Y-68950000D01*
X161100000Y-69375000D02*
X160675000Y-69375000D01*
D10*
X161125000Y-69400000D02*
X161100000Y-69375000D01*
D29*
X160675000Y-69375000D02*
X160275000Y-69775000D01*
D10*
X160275000Y-65325000D02*
X160200000Y-65250000D01*
D29*
X160675000Y-69350000D02*
X160675000Y-69375000D01*
X160250000Y-63125000D02*
X160250000Y-65200000D01*
X160275000Y-69375000D02*
X160275000Y-68950000D01*
D10*
X160250000Y-65200000D02*
X160200000Y-65250000D01*
D29*
X160550000Y-67400000D02*
X160275000Y-67125000D01*
%TO.N,Net-(U1-BOOT)*%
D10*
X163667790Y-64750000D02*
X163959389Y-65041599D01*
X162325000Y-64750000D02*
X163667790Y-64750000D01*
%TO.N,Net-(U1-SW)*%
D28*
X164909389Y-70559389D02*
X164909389Y-67316599D01*
D10*
X162325000Y-66300000D02*
X164245842Y-66300000D01*
X166675000Y-72625000D02*
X166675000Y-72325000D01*
X164245842Y-66300000D02*
X164909389Y-66963547D01*
D28*
X166675000Y-72325000D02*
X164909389Y-70559389D01*
D10*
X164909389Y-66963547D02*
X164909389Y-67316599D01*
%TO.N,/USART1_TX*%
X167990256Y-75250000D02*
X166990255Y-76250000D01*
X170559754Y-75250000D02*
X167990256Y-75250000D01*
X166990255Y-76250000D02*
X158375000Y-76250000D01*
X158375000Y-76250000D02*
X155975000Y-73850000D01*
X155975000Y-73850000D02*
X155925000Y-73850000D01*
X171043716Y-74766038D02*
X170559754Y-75250000D01*
%TO.N,/USART1_RX*%
X169875546Y-74429609D02*
X168244961Y-74429609D01*
X166824570Y-75850000D02*
X158775000Y-75850000D01*
X158775000Y-75850000D02*
X157150000Y-74225000D01*
X168244961Y-74429609D02*
X166824570Y-75850000D01*
X156725000Y-72600000D02*
X155925000Y-72600000D01*
X157150000Y-73025000D02*
X156725000Y-72600000D01*
X157150000Y-74225000D02*
X157150000Y-73025000D01*
%TO.N,Net-(U1-EN)*%
X164909389Y-65041599D02*
X164909389Y-65394651D01*
X167325000Y-63250000D02*
X167325000Y-65725000D01*
X167145901Y-66004099D02*
X167375000Y-65775000D01*
X165518837Y-66004099D02*
X167145901Y-66004099D01*
X164909389Y-65394651D02*
X165518837Y-66004099D01*
X167325000Y-65725000D02*
X167375000Y-65775000D01*
%TD*%
%TA.AperFunction,Conductor*%
%TO.N,Net-(U1-EN)*%
G36*
X167329706Y-63254917D02*
G01*
X167330990Y-63255448D01*
X167334421Y-63257631D01*
X167334617Y-63257811D01*
X167701312Y-63593782D01*
X167704011Y-63597463D01*
X167705109Y-63599817D01*
X167705905Y-63607401D01*
X167705762Y-63608019D01*
X167704641Y-63610972D01*
X167429435Y-64116845D01*
X167426516Y-64120350D01*
X167423987Y-64122396D01*
X167416628Y-64125000D01*
X167234282Y-64125000D01*
X167229802Y-64124108D01*
X167226798Y-64122863D01*
X167221000Y-64117646D01*
X166945707Y-63611616D01*
X166944350Y-63607257D01*
X166944077Y-63604672D01*
X166945781Y-63597258D01*
X166946123Y-63596709D01*
X166948137Y-63594285D01*
X167315384Y-63257808D01*
X167319281Y-63255445D01*
X167321239Y-63254733D01*
X167329706Y-63254917D01*
G37*
%TD.AperFunction*%
%TD*%
%TA.AperFunction,Conductor*%
%TO.N,Net-(U1-FB)*%
G36*
X165922012Y-63086092D02*
G01*
X165925430Y-63093919D01*
X165958925Y-63971519D01*
X165955817Y-63979917D01*
X165947680Y-63983656D01*
X165947234Y-63983665D01*
X165764553Y-63983665D01*
X165756280Y-63980238D01*
X165755909Y-63979850D01*
X165416413Y-63607700D01*
X165413369Y-63599279D01*
X165416229Y-63592136D01*
X165849600Y-63093919D01*
X165855891Y-63086685D01*
X165863907Y-63082693D01*
X165864719Y-63082665D01*
X165913739Y-63082665D01*
X165922012Y-63086092D01*
G37*
%TD.AperFunction*%
%TD*%
%TA.AperFunction,Conductor*%
%TO.N,GND*%
G36*
X160890584Y-60906129D02*
G01*
X160900996Y-60910442D01*
X160941046Y-60950485D01*
X160941051Y-60950497D01*
X160942652Y-60954363D01*
X160944526Y-61005954D01*
X160935000Y-61034696D01*
X160934720Y-61036431D01*
X160934618Y-61038453D01*
X160925202Y-61130623D01*
X160924500Y-61137491D01*
X160924500Y-61762503D01*
X160924619Y-61763948D01*
X160924739Y-61764840D01*
X160935001Y-61865301D01*
X160935001Y-61865303D01*
X160937736Y-61873554D01*
X160941296Y-61902211D01*
X160940717Y-61910154D01*
X160915296Y-61960766D01*
X160861535Y-61978578D01*
X160856361Y-61978201D01*
X160822891Y-61967380D01*
X160819336Y-61965187D01*
X160819335Y-61965186D01*
X160819334Y-61965186D01*
X160652798Y-61910001D01*
X160652795Y-61910000D01*
X160652793Y-61910000D01*
X160652789Y-61909999D01*
X160635667Y-61908249D01*
X160635667Y-61908250D01*
X160592837Y-61903875D01*
X160550009Y-61899500D01*
X160550007Y-61899500D01*
X159943574Y-61899500D01*
X159939207Y-61900602D01*
X159903848Y-61904214D01*
X159898597Y-61904751D01*
X159872899Y-61907376D01*
X159847201Y-61910001D01*
X159847199Y-61910001D01*
X159680666Y-61965186D01*
X159531344Y-62057288D01*
X159407288Y-62181344D01*
X159315186Y-62330666D01*
X159260001Y-62497197D01*
X159260001Y-62497199D01*
X159249500Y-62599995D01*
X159249500Y-63650500D01*
X159249723Y-63652189D01*
X159260001Y-63752797D01*
X159260002Y-63752802D01*
X159286615Y-63833115D01*
X159288946Y-63841939D01*
X159294580Y-63870235D01*
X159294583Y-63870245D01*
X159387946Y-64134738D01*
X159386606Y-64187512D01*
X159300946Y-64395829D01*
X159295490Y-64406534D01*
X159265185Y-64455667D01*
X159210001Y-64622197D01*
X159210001Y-64622199D01*
X159199500Y-64724995D01*
X159199500Y-65775500D01*
X159199723Y-65777189D01*
X159210001Y-65877798D01*
X159265187Y-66044336D01*
X159330833Y-66150768D01*
X159335657Y-66159981D01*
X159425438Y-66365413D01*
X159428302Y-66416992D01*
X159361769Y-66631247D01*
X159361768Y-66631248D01*
X159355728Y-66661841D01*
X159353375Y-66670780D01*
X159334650Y-66727292D01*
X159334370Y-66729026D01*
X159334268Y-66731041D01*
X159329010Y-66782513D01*
X159324500Y-66826659D01*
X159324500Y-67423339D01*
X159324619Y-67424784D01*
X159324739Y-67425676D01*
X159334651Y-67522710D01*
X159334652Y-67522713D01*
X159355507Y-67585653D01*
X159358337Y-67597260D01*
X159361767Y-67618741D01*
X159361768Y-67618747D01*
X159452303Y-67910290D01*
X159504059Y-68076959D01*
X159521171Y-68132062D01*
X159524500Y-68154008D01*
X159524500Y-68535781D01*
X159518867Y-68564099D01*
X159514556Y-68574507D01*
X159474508Y-68614555D01*
X159474507Y-68614556D01*
X159464099Y-68618867D01*
X159435781Y-68624500D01*
X159088582Y-68624500D01*
X159047477Y-68632676D01*
X158943595Y-68653338D01*
X158943583Y-68653342D01*
X158807006Y-68709914D01*
X158775320Y-68731087D01*
X158775318Y-68731088D01*
X158690142Y-68787999D01*
X158685822Y-68790308D01*
X158158713Y-69317418D01*
X158134707Y-69333458D01*
X158109577Y-69343867D01*
X158081261Y-69349500D01*
X156819402Y-69349500D01*
X156808971Y-69348761D01*
X156798696Y-69347298D01*
X156788482Y-69345099D01*
X156777532Y-69341917D01*
X156727571Y-69327402D01*
X156702985Y-69325467D01*
X156702983Y-69325466D01*
X156690695Y-69324500D01*
X156690694Y-69324500D01*
X155159306Y-69324500D01*
X155159298Y-69324500D01*
X155150089Y-69325224D01*
X155150087Y-69325225D01*
X155133491Y-69326531D01*
X155122426Y-69327402D01*
X154964598Y-69373256D01*
X154823133Y-69456919D01*
X154706919Y-69573133D01*
X154623256Y-69714598D01*
X154577402Y-69872427D01*
X154574500Y-69909306D01*
X154574500Y-70340692D01*
X154577402Y-70377571D01*
X154623256Y-70535400D01*
X154662440Y-70601656D01*
X154662441Y-70601657D01*
X154706919Y-70676865D01*
X154823135Y-70793081D01*
X154871458Y-70821659D01*
X154964598Y-70876742D01*
X154964602Y-70876744D01*
X155122431Y-70922598D01*
X155159306Y-70925500D01*
X155159307Y-70925500D01*
X156690693Y-70925500D01*
X156690694Y-70925500D01*
X156727569Y-70922598D01*
X156885398Y-70876744D01*
X156903792Y-70865866D01*
X156921936Y-70858183D01*
X156940433Y-70853123D01*
X156959959Y-70850500D01*
X158511416Y-70850500D01*
X158511417Y-70850500D01*
X158511418Y-70850500D01*
X158656413Y-70821658D01*
X158792995Y-70765084D01*
X158848266Y-70728153D01*
X158915916Y-70682952D01*
X159376216Y-70222651D01*
X159428541Y-70200978D01*
X159480867Y-70222652D01*
X159502541Y-70274978D01*
X159490114Y-70316024D01*
X159477888Y-70334364D01*
X159477887Y-70334366D01*
X159226138Y-70711987D01*
X159212797Y-70725108D01*
X159213281Y-70725592D01*
X159211400Y-70727472D01*
X159203435Y-70734371D01*
X159092457Y-70817450D01*
X159092453Y-70817454D01*
X159009373Y-70928433D01*
X159007635Y-70930438D01*
X159006202Y-70932669D01*
X158955911Y-71067505D01*
X158955909Y-71067511D01*
X158949500Y-71127125D01*
X158949500Y-73422873D01*
X158955909Y-73482484D01*
X158955910Y-73482489D01*
X159006202Y-73617329D01*
X159007632Y-73619555D01*
X159009367Y-73621557D01*
X159010017Y-73622425D01*
X159010022Y-73622431D01*
X159092454Y-73732546D01*
X159166101Y-73787678D01*
X159203432Y-73815624D01*
X159205441Y-73817365D01*
X159207665Y-73818794D01*
X159207667Y-73818794D01*
X159207669Y-73818796D01*
X159207670Y-73818797D01*
X159318605Y-73860172D01*
X159342517Y-73869091D01*
X159402127Y-73875500D01*
X160997872Y-73875499D01*
X161057483Y-73869091D01*
X161124907Y-73843943D01*
X161124908Y-73843943D01*
X161165314Y-73828872D01*
X161191106Y-73819252D01*
X161193587Y-73818377D01*
X161196256Y-73817488D01*
X161201925Y-73811613D01*
X161307546Y-73732546D01*
X161393796Y-73617331D01*
X161444091Y-73482483D01*
X161450500Y-73422873D01*
X161450499Y-71127128D01*
X161449681Y-71119521D01*
X161449417Y-71116200D01*
X161449380Y-71115907D01*
X161449381Y-71115900D01*
X161448758Y-71110862D01*
X161448634Y-71109781D01*
X161444091Y-71067521D01*
X161444091Y-71067517D01*
X161444089Y-71067512D01*
X161444088Y-71067510D01*
X161444070Y-71067434D01*
X161443796Y-71066724D01*
X161416453Y-70993415D01*
X161393797Y-70932670D01*
X161393796Y-70932669D01*
X161393789Y-70932660D01*
X161391451Y-70929020D01*
X161386885Y-70920811D01*
X161386398Y-70919787D01*
X161386395Y-70919782D01*
X161386394Y-70919779D01*
X161035853Y-70301177D01*
X161028913Y-70244967D01*
X161031860Y-70236394D01*
X161035442Y-70227746D01*
X161075481Y-70187698D01*
X161081135Y-70185356D01*
X161123879Y-70181149D01*
X161221158Y-70200500D01*
X161221160Y-70200500D01*
X161378840Y-70200500D01*
X161378842Y-70200500D01*
X161533497Y-70169737D01*
X161679179Y-70109394D01*
X161810289Y-70021789D01*
X161921789Y-69910289D01*
X162009394Y-69779179D01*
X162069737Y-69633497D01*
X162100500Y-69478842D01*
X162100500Y-69321158D01*
X162069737Y-69166503D01*
X162009394Y-69020821D01*
X161921789Y-68889711D01*
X161810289Y-68778211D01*
X161720285Y-68718072D01*
X161710639Y-68703635D01*
X161533505Y-68630265D01*
X161533500Y-68630263D01*
X161533489Y-68630260D01*
X161429925Y-68609661D01*
X161429924Y-68609660D01*
X161378842Y-68599500D01*
X161221158Y-68599500D01*
X161128373Y-68617955D01*
X161099501Y-68617955D01*
X161088450Y-68615757D01*
X161041359Y-68584293D01*
X161037965Y-68579213D01*
X161025500Y-68538110D01*
X161025500Y-68289218D01*
X161031129Y-68260909D01*
X161035443Y-68250494D01*
X161075482Y-68210448D01*
X161085911Y-68206128D01*
X161114219Y-68200500D01*
X161216340Y-68200500D01*
X161216342Y-68200500D01*
X161370997Y-68169737D01*
X161516679Y-68109394D01*
X161647789Y-68021789D01*
X161759289Y-67910289D01*
X161846894Y-67779179D01*
X161907237Y-67633497D01*
X161938000Y-67478842D01*
X161938000Y-67439217D01*
X161943630Y-67410906D01*
X161947943Y-67400492D01*
X161987987Y-67360445D01*
X161987992Y-67360443D01*
X161998400Y-67356132D01*
X162026718Y-67350499D01*
X162598337Y-67350499D01*
X162598344Y-67350499D01*
X162697708Y-67340349D01*
X162858697Y-67287003D01*
X163003044Y-67197968D01*
X163069425Y-67131585D01*
X163078908Y-67123576D01*
X163373964Y-66914154D01*
X163416795Y-66900500D01*
X163921166Y-66900500D01*
X163973492Y-66922174D01*
X163990401Y-66948377D01*
X164000229Y-66974426D01*
X164000235Y-66974441D01*
X164102071Y-67194958D01*
X164108889Y-67225983D01*
X164108889Y-70638230D01*
X164116104Y-70674502D01*
X164116104Y-70674503D01*
X164139649Y-70792878D01*
X164139652Y-70792889D01*
X164139654Y-70792894D01*
X164199991Y-70938562D01*
X164287598Y-71069676D01*
X164681702Y-71463780D01*
X164694531Y-71481023D01*
X165194376Y-72409306D01*
X165240332Y-72494651D01*
X165340655Y-72680966D01*
X165349500Y-72716047D01*
X165349500Y-73422873D01*
X165355909Y-73482484D01*
X165355910Y-73482489D01*
X165406202Y-73617329D01*
X165407632Y-73619555D01*
X165409367Y-73621557D01*
X165410017Y-73622425D01*
X165410022Y-73622431D01*
X165492454Y-73732546D01*
X165566101Y-73787678D01*
X165603432Y-73815624D01*
X165605441Y-73817365D01*
X165607665Y-73818794D01*
X165607667Y-73818794D01*
X165607669Y-73818796D01*
X165607670Y-73818797D01*
X165718605Y-73860172D01*
X165742517Y-73869091D01*
X165802127Y-73875500D01*
X167240991Y-73875499D01*
X167269305Y-73881130D01*
X167288502Y-73889081D01*
X167324672Y-73921155D01*
X167360230Y-73984337D01*
X167367885Y-73997939D01*
X167390600Y-74038301D01*
X167429894Y-74090693D01*
X167493804Y-74175907D01*
X167511230Y-74195933D01*
X167525569Y-74220992D01*
X167529623Y-74233087D01*
X167526805Y-74287271D01*
X167522944Y-74295750D01*
X167507924Y-74317409D01*
X166607916Y-75217418D01*
X166583910Y-75233458D01*
X166558780Y-75243867D01*
X166530464Y-75249500D01*
X159069106Y-75249500D01*
X159040788Y-75243867D01*
X159015659Y-75233458D01*
X158991653Y-75217418D01*
X157782581Y-74008346D01*
X157766541Y-73984340D01*
X157756131Y-73959208D01*
X157750500Y-73930894D01*
X157750500Y-73111462D01*
X157750501Y-73111436D01*
X157750501Y-72944957D01*
X157749246Y-72941263D01*
X157709578Y-72793218D01*
X157630519Y-72656283D01*
X157262311Y-72288076D01*
X157250943Y-72273420D01*
X157241723Y-72257830D01*
X157234356Y-72240804D01*
X157226912Y-72215179D01*
X157226752Y-72214616D01*
X157226743Y-72214600D01*
X157143081Y-72073135D01*
X157026865Y-71956919D01*
X157026864Y-71956918D01*
X157008835Y-71946256D01*
X156885400Y-71873256D01*
X156727572Y-71827402D01*
X156719375Y-71826757D01*
X156702985Y-71825467D01*
X156702983Y-71825466D01*
X156690695Y-71824500D01*
X156690694Y-71824500D01*
X155159306Y-71824500D01*
X155159298Y-71824500D01*
X155150089Y-71825224D01*
X155150087Y-71825225D01*
X155133491Y-71826531D01*
X155122426Y-71827402D01*
X154964598Y-71873256D01*
X154823133Y-71956919D01*
X154706919Y-72073133D01*
X154623256Y-72214598D01*
X154577402Y-72372427D01*
X154574500Y-72409306D01*
X154574500Y-72840692D01*
X154577402Y-72877571D01*
X154623256Y-73035400D01*
X154706919Y-73176865D01*
X154717320Y-73187266D01*
X154733361Y-73211274D01*
X154737672Y-73221682D01*
X154737672Y-73278319D01*
X154737670Y-73278322D01*
X154733359Y-73288728D01*
X154717322Y-73312730D01*
X154706918Y-73323134D01*
X154623256Y-73464598D01*
X154585701Y-73593860D01*
X154577402Y-73622428D01*
X154577402Y-73622434D01*
X154574500Y-73659306D01*
X154574500Y-74090692D01*
X154577402Y-74127571D01*
X154623256Y-74285400D01*
X154688914Y-74396421D01*
X154688915Y-74396422D01*
X154706919Y-74426865D01*
X154823135Y-74543081D01*
X154964602Y-74626744D01*
X155122431Y-74672598D01*
X155159306Y-74675500D01*
X155905895Y-74675500D01*
X155934208Y-74681131D01*
X155959340Y-74691540D01*
X155983344Y-74707579D01*
X158006284Y-76730520D01*
X158067151Y-76765661D01*
X158143218Y-76809578D01*
X158250570Y-76838343D01*
X158291263Y-76849246D01*
X158294958Y-76850501D01*
X158458588Y-76850501D01*
X158459711Y-76850501D01*
X158459775Y-76850500D01*
X166911197Y-76850500D01*
X167069312Y-76850501D01*
X167176666Y-76821734D01*
X167222036Y-76809578D01*
X167222036Y-76809577D01*
X167222037Y-76809577D01*
X167222039Y-76809577D01*
X167222040Y-76809576D01*
X167228307Y-76807897D01*
X167234781Y-76802219D01*
X167358971Y-76730520D01*
X168206912Y-75882578D01*
X168230915Y-75866541D01*
X168256046Y-75856131D01*
X168284362Y-75850500D01*
X170474980Y-75850500D01*
X170475044Y-75850501D01*
X170638813Y-75850501D01*
X170649075Y-75850501D01*
X170657963Y-75845368D01*
X170791539Y-75809577D01*
X170841658Y-75780639D01*
X170928470Y-75730520D01*
X171040274Y-75618716D01*
X171040275Y-75618714D01*
X171060373Y-75598615D01*
X171084375Y-75582578D01*
X171116869Y-75569118D01*
X171130748Y-75564908D01*
X171277213Y-75535775D01*
X171422895Y-75475432D01*
X171554005Y-75387827D01*
X171665505Y-75276327D01*
X171753110Y-75145217D01*
X171813453Y-74999535D01*
X171844216Y-74844880D01*
X171844216Y-74687196D01*
X171813453Y-74532541D01*
X171811052Y-74526744D01*
X171808749Y-74521184D01*
X171803116Y-74492866D01*
X171803116Y-74481600D01*
X171824778Y-74429285D01*
X171827140Y-74426923D01*
X171879229Y-74405240D01*
X174505964Y-74396571D01*
X174534300Y-74402112D01*
X174559345Y-74412390D01*
X174583577Y-74428523D01*
X174598135Y-74443081D01*
X174682317Y-74492866D01*
X174730200Y-74521184D01*
X174739602Y-74526744D01*
X174897431Y-74572598D01*
X174934306Y-74575500D01*
X175030781Y-74575500D01*
X175059091Y-74581129D01*
X175069503Y-74585442D01*
X175109552Y-74625484D01*
X175113867Y-74635900D01*
X175119500Y-74664218D01*
X175119500Y-75925000D01*
X175120190Y-75934111D01*
X175125783Y-76007985D01*
X175126403Y-76016170D01*
X175140612Y-76065204D01*
X175170140Y-76167108D01*
X175170397Y-76167992D01*
X175252195Y-76303272D01*
X175252224Y-76303314D01*
X175252587Y-76303758D01*
X175352175Y-76428243D01*
X175396849Y-76478155D01*
X175431906Y-76505055D01*
X175522250Y-76574378D01*
X175668285Y-76634868D01*
X175825000Y-76655500D01*
X175825002Y-76655500D01*
X182424992Y-76655500D01*
X182425000Y-76655500D01*
X182564947Y-76639105D01*
X182655907Y-76604437D01*
X182710894Y-76583480D01*
X182714459Y-76582225D01*
X182717083Y-76581375D01*
X182722982Y-76575341D01*
X182840751Y-76490206D01*
X183290751Y-76065206D01*
X183303153Y-76053153D01*
X183356008Y-75984270D01*
X183377709Y-75965237D01*
X183384612Y-75961252D01*
X183440762Y-75953860D01*
X183485684Y-75988318D01*
X183486891Y-75990407D01*
X183496535Y-76033877D01*
X183485161Y-76163883D01*
X183484318Y-76170286D01*
X183483199Y-76176631D01*
X183481803Y-76182932D01*
X183441733Y-76332476D01*
X183439790Y-76338637D01*
X183437589Y-76344683D01*
X183435120Y-76350643D01*
X183369692Y-76490955D01*
X183366710Y-76496682D01*
X183363490Y-76502259D01*
X183360022Y-76507703D01*
X183271229Y-76634512D01*
X183267298Y-76639635D01*
X183263156Y-76644571D01*
X183258796Y-76649329D01*
X183149329Y-76758796D01*
X183144571Y-76763156D01*
X183139635Y-76767298D01*
X183134512Y-76771229D01*
X183007703Y-76860022D01*
X183002259Y-76863490D01*
X182996682Y-76866710D01*
X182990955Y-76869692D01*
X182850643Y-76935120D01*
X182844683Y-76937589D01*
X182838637Y-76939790D01*
X182832476Y-76941733D01*
X182682932Y-76981803D01*
X182676631Y-76983199D01*
X182670286Y-76984318D01*
X182663884Y-76985161D01*
X182504829Y-76999077D01*
X182501622Y-76999287D01*
X182498385Y-76999429D01*
X182495165Y-76999500D01*
X152004835Y-76999500D01*
X152001613Y-76999429D01*
X151998377Y-76999287D01*
X151995170Y-76999077D01*
X151836114Y-76985161D01*
X151829712Y-76984318D01*
X151823367Y-76983199D01*
X151817066Y-76981803D01*
X151667522Y-76941733D01*
X151661361Y-76939790D01*
X151655315Y-76937589D01*
X151649355Y-76935120D01*
X151509043Y-76869692D01*
X151503316Y-76866710D01*
X151497739Y-76863490D01*
X151492295Y-76860022D01*
X151365486Y-76771229D01*
X151360363Y-76767298D01*
X151355427Y-76763156D01*
X151350669Y-76758796D01*
X151241202Y-76649329D01*
X151236841Y-76644570D01*
X151232700Y-76639635D01*
X151228770Y-76634513D01*
X151228769Y-76634512D01*
X151139966Y-76507688D01*
X151136510Y-76502263D01*
X151133285Y-76496677D01*
X151130312Y-76490966D01*
X151124338Y-76478154D01*
X151064869Y-76350625D01*
X151062405Y-76344673D01*
X151060205Y-76338627D01*
X151058265Y-76332475D01*
X151050435Y-76303252D01*
X151050435Y-76303251D01*
X151018193Y-76182921D01*
X151016798Y-76176631D01*
X151015675Y-76170257D01*
X151014840Y-76163908D01*
X151000919Y-76004795D01*
X151000712Y-76001640D01*
X151000569Y-75998368D01*
X151000500Y-75995163D01*
X151000500Y-61904835D01*
X151000570Y-61901617D01*
X151000571Y-61901592D01*
X151000712Y-61898355D01*
X151000919Y-61895200D01*
X151006265Y-61834108D01*
X151014838Y-61736102D01*
X151015678Y-61729717D01*
X151016796Y-61723376D01*
X151018192Y-61717081D01*
X151058268Y-61567513D01*
X151060200Y-61561384D01*
X151062417Y-61555293D01*
X151064865Y-61549382D01*
X151130322Y-61409010D01*
X151133286Y-61403316D01*
X151136507Y-61397739D01*
X151139960Y-61392318D01*
X151228789Y-61265457D01*
X151232689Y-61260374D01*
X151236848Y-61255418D01*
X151241179Y-61250692D01*
X151350692Y-61141179D01*
X151355418Y-61136848D01*
X151360374Y-61132689D01*
X151365457Y-61128789D01*
X151492318Y-61039960D01*
X151497742Y-61036505D01*
X151503314Y-61033288D01*
X151509020Y-61030317D01*
X151649379Y-60964866D01*
X151655311Y-60962409D01*
X151661374Y-60960203D01*
X151667505Y-60958270D01*
X151817085Y-60918191D01*
X151823367Y-60916798D01*
X151829726Y-60915677D01*
X151836097Y-60914839D01*
X151964227Y-60903629D01*
X151995190Y-60900920D01*
X151998379Y-60900711D01*
X152001629Y-60900569D01*
X152004836Y-60900500D01*
X160862274Y-60900500D01*
X160890584Y-60906129D01*
G37*
%TD.AperFunction*%
%TA.AperFunction,Conductor*%
G36*
X182498366Y-60900569D02*
G01*
X182501643Y-60900712D01*
X182504793Y-60900919D01*
X182538290Y-60903850D01*
X182663887Y-60914838D01*
X182670274Y-60915678D01*
X182673684Y-60916278D01*
X182676623Y-60916796D01*
X182682918Y-60918191D01*
X182832479Y-60958266D01*
X182838630Y-60960206D01*
X182844682Y-60962409D01*
X182850644Y-60964878D01*
X182990966Y-61030312D01*
X182996677Y-61033285D01*
X183002263Y-61036510D01*
X183007688Y-61039966D01*
X183134518Y-61128774D01*
X183139635Y-61132700D01*
X183144571Y-61136842D01*
X183149329Y-61141202D01*
X183258796Y-61250669D01*
X183263156Y-61255427D01*
X183267298Y-61260363D01*
X183271229Y-61265486D01*
X183360022Y-61392295D01*
X183363490Y-61397739D01*
X183366710Y-61403316D01*
X183369692Y-61409043D01*
X183435120Y-61549355D01*
X183437589Y-61555315D01*
X183439790Y-61561361D01*
X183441733Y-61567522D01*
X183481803Y-61717066D01*
X183483199Y-61723367D01*
X183484318Y-61729712D01*
X183485161Y-61736114D01*
X183499077Y-61895169D01*
X183499287Y-61898376D01*
X183499385Y-61900602D01*
X183499429Y-61901592D01*
X183499500Y-61904834D01*
X183499500Y-72063550D01*
X183493864Y-72091875D01*
X183490815Y-72099234D01*
X183450763Y-72139279D01*
X183394127Y-72139274D01*
X183392351Y-72138538D01*
X183360457Y-72113180D01*
X183359401Y-72111701D01*
X183330476Y-72073135D01*
X183330475Y-72073134D01*
X182909400Y-71511700D01*
X182853153Y-71446847D01*
X182727750Y-71350622D01*
X182581714Y-71290131D01*
X182461461Y-71274300D01*
X182461461Y-71274299D01*
X182429240Y-71270058D01*
X182425000Y-71269500D01*
X182424999Y-71269500D01*
X179025016Y-71269500D01*
X179025000Y-71269500D01*
X178994948Y-71270333D01*
X178994938Y-71270333D01*
X178992445Y-71270403D01*
X178991587Y-71270415D01*
X178991408Y-71270431D01*
X178836084Y-71299725D01*
X178693625Y-71368225D01*
X178573764Y-71471246D01*
X178573760Y-71471250D01*
X178148758Y-71946252D01*
X178075620Y-72047252D01*
X178015130Y-72193286D01*
X178014657Y-72195668D01*
X178014498Y-72198095D01*
X177999788Y-72309830D01*
X177990509Y-72337168D01*
X177988791Y-72340144D01*
X177943859Y-72374625D01*
X177887706Y-72367235D01*
X177854618Y-72326899D01*
X177854415Y-72326300D01*
X177850500Y-72302548D01*
X177850500Y-71088881D01*
X177850499Y-71088852D01*
X177850499Y-70601657D01*
X177850499Y-70601656D01*
X177840349Y-70502292D01*
X177787003Y-70341303D01*
X177716917Y-70227676D01*
X177708709Y-70209019D01*
X177703307Y-70189968D01*
X177700500Y-70169781D01*
X177700500Y-69835527D01*
X177706131Y-69807213D01*
X177716542Y-69782078D01*
X177728441Y-69764280D01*
X177727712Y-69763709D01*
X177730468Y-69760190D01*
X177730469Y-69760187D01*
X177730472Y-69760185D01*
X177818478Y-69614606D01*
X177869086Y-69452196D01*
X177875500Y-69381616D01*
X177875500Y-68868384D01*
X177869086Y-68797804D01*
X177818478Y-68635394D01*
X177730472Y-68489815D01*
X177610185Y-68369528D01*
X177464607Y-68281522D01*
X177464601Y-68281520D01*
X177302930Y-68231142D01*
X177302247Y-68230922D01*
X177302194Y-68230913D01*
X177302193Y-68230913D01*
X177302192Y-68230913D01*
X177300888Y-68230701D01*
X177298846Y-68230609D01*
X177289425Y-68229752D01*
X177231628Y-68224500D01*
X177231623Y-68224500D01*
X177231616Y-68224500D01*
X177106239Y-68224500D01*
X177077921Y-68218867D01*
X177052792Y-68208458D01*
X177028786Y-68192418D01*
X176282581Y-67446213D01*
X176266541Y-67422207D01*
X176256131Y-67397075D01*
X176250500Y-67368761D01*
X176250500Y-67243391D01*
X176250498Y-67243360D01*
X176250485Y-67243229D01*
X176244086Y-67172804D01*
X176193478Y-67010394D01*
X176105472Y-66864815D01*
X175985185Y-66744528D01*
X175959542Y-66729026D01*
X175839607Y-66656522D01*
X175839601Y-66656520D01*
X175677930Y-66606142D01*
X175677247Y-66605922D01*
X175677194Y-66605913D01*
X175677193Y-66605913D01*
X175677192Y-66605913D01*
X175675888Y-66605701D01*
X175673846Y-66605609D01*
X175664425Y-66604752D01*
X175606628Y-66599500D01*
X175606623Y-66599500D01*
X175606616Y-66599500D01*
X174943384Y-66599500D01*
X174943376Y-66599500D01*
X174943370Y-66599500D01*
X174884601Y-66604841D01*
X174876153Y-66605609D01*
X174872773Y-66605762D01*
X174869589Y-66606915D01*
X174721148Y-66653171D01*
X174710927Y-66654726D01*
X174702700Y-66661172D01*
X174564813Y-66744528D01*
X174444528Y-66864813D01*
X174377617Y-66975498D01*
X174356522Y-67010392D01*
X174356522Y-67010393D01*
X174356522Y-67010394D01*
X174339100Y-67066304D01*
X174309739Y-67160528D01*
X174305911Y-67172814D01*
X174305696Y-67174229D01*
X174305609Y-67176155D01*
X174299500Y-67243370D01*
X174299500Y-67756630D01*
X174305911Y-67827179D01*
X174305911Y-67827182D01*
X174305913Y-67827194D01*
X174305914Y-67827199D01*
X174314215Y-67853836D01*
X174314215Y-67853838D01*
X174314216Y-67853838D01*
X174343180Y-67946791D01*
X174346226Y-67975506D01*
X174345206Y-67986724D01*
X174318887Y-68036869D01*
X174315591Y-68039616D01*
X174267467Y-68056766D01*
X173056141Y-68044529D01*
X173023970Y-68046320D01*
X173023969Y-68046319D01*
X172976713Y-68048951D01*
X172976704Y-68048952D01*
X172976699Y-68048952D01*
X172976699Y-68048953D01*
X172976694Y-68048954D01*
X172976678Y-68048958D01*
X172976670Y-68048960D01*
X172868033Y-68076959D01*
X172811954Y-68069030D01*
X172780097Y-68030801D01*
X172762168Y-67981959D01*
X172757636Y-67956459D01*
X172757636Y-67101368D01*
X172779310Y-67049042D01*
X172808716Y-67031007D01*
X173078554Y-66943113D01*
X173133978Y-66921372D01*
X173136474Y-66920219D01*
X173136474Y-66920218D01*
X173138364Y-66919346D01*
X173138443Y-66919518D01*
X173146666Y-66915988D01*
X173158697Y-66912003D01*
X173303044Y-66822968D01*
X173422968Y-66703044D01*
X173512003Y-66558697D01*
X173565349Y-66397708D01*
X173575500Y-66298345D01*
X173575499Y-65701656D01*
X173565349Y-65602292D01*
X173512003Y-65441303D01*
X173422968Y-65296956D01*
X173303044Y-65177032D01*
X173303043Y-65177031D01*
X173303042Y-65177030D01*
X173239759Y-65137997D01*
X173158695Y-65087996D01*
X173105033Y-65070214D01*
X172997712Y-65034651D01*
X172978782Y-65032717D01*
X172969318Y-65031750D01*
X172969317Y-65031749D01*
X172909133Y-65025602D01*
X172898345Y-65024500D01*
X172898343Y-65024500D01*
X172345238Y-65024500D01*
X172340871Y-65025602D01*
X172307027Y-65029059D01*
X172301974Y-65029576D01*
X172252289Y-65034651D01*
X172091305Y-65087995D01*
X171946956Y-65177030D01*
X171827030Y-65296956D01*
X171737996Y-65441304D01*
X171684650Y-65602290D01*
X171684370Y-65604026D01*
X171684268Y-65606041D01*
X171676986Y-65677325D01*
X171674500Y-65701658D01*
X171674500Y-65886922D01*
X171673662Y-65898027D01*
X171602102Y-66369477D01*
X171598161Y-66383975D01*
X171598248Y-66384004D01*
X171597731Y-66385555D01*
X171597656Y-66385834D01*
X171597555Y-66386085D01*
X171564407Y-66509793D01*
X171563745Y-66512114D01*
X171562250Y-66517042D01*
X171562095Y-66517822D01*
X171561002Y-66522503D01*
X171556635Y-66538802D01*
X171556635Y-66565824D01*
X171556278Y-66573082D01*
X171551636Y-66620182D01*
X171551636Y-66830672D01*
X171554534Y-66884709D01*
X171555084Y-66888304D01*
X171554889Y-66888333D01*
X171556636Y-66902238D01*
X171556636Y-67785781D01*
X171551003Y-67814099D01*
X171546692Y-67824507D01*
X171506644Y-67864555D01*
X171506643Y-67864556D01*
X171496235Y-67868867D01*
X171467917Y-67874500D01*
X171421158Y-67874500D01*
X171306198Y-67897366D01*
X171299024Y-67898431D01*
X171291814Y-67899142D01*
X171284552Y-67899499D01*
X171240290Y-67899499D01*
X171240226Y-67899500D01*
X170705225Y-67899500D01*
X170652899Y-67877826D01*
X170636570Y-67853113D01*
X170606832Y-67779174D01*
X170429625Y-67338582D01*
X170424665Y-67318497D01*
X170415349Y-67227292D01*
X170362003Y-67066303D01*
X170272968Y-66921956D01*
X170251245Y-66900233D01*
X170235205Y-66876227D01*
X170230894Y-66865820D01*
X170230892Y-66809185D01*
X170235205Y-66798771D01*
X170251243Y-66774768D01*
X170272968Y-66753044D01*
X170362003Y-66608697D01*
X170415349Y-66447708D01*
X170425500Y-66348345D01*
X170425499Y-65751656D01*
X170415349Y-65652292D01*
X170362003Y-65491303D01*
X170272968Y-65346956D01*
X170153044Y-65227032D01*
X170153043Y-65227031D01*
X170153042Y-65227030D01*
X170016059Y-65142538D01*
X170012095Y-65139404D01*
X170001076Y-65134839D01*
X169997361Y-65134240D01*
X169943920Y-65116531D01*
X169847712Y-65084651D01*
X169828782Y-65082717D01*
X169819318Y-65081750D01*
X169819317Y-65081749D01*
X169759133Y-65075602D01*
X169748345Y-65074500D01*
X169748343Y-65074500D01*
X169195238Y-65074500D01*
X169190871Y-65075602D01*
X169157027Y-65079059D01*
X169151974Y-65079576D01*
X169102289Y-65084651D01*
X168941305Y-65137995D01*
X168796956Y-65227030D01*
X168677030Y-65346956D01*
X168587996Y-65491304D01*
X168534651Y-65652288D01*
X168524500Y-65751659D01*
X168524500Y-66212435D01*
X168518864Y-66240760D01*
X168515815Y-66248119D01*
X168475763Y-66288164D01*
X168419128Y-66288159D01*
X168415319Y-66286581D01*
X168384934Y-66263264D01*
X168363898Y-66235849D01*
X168358470Y-66227714D01*
X168339965Y-66195562D01*
X168330379Y-66152240D01*
X168330418Y-66151795D01*
X168333488Y-66136204D01*
X168344086Y-66102196D01*
X168350500Y-66031616D01*
X168350500Y-65518384D01*
X168344086Y-65447804D01*
X168293478Y-65285394D01*
X168205472Y-65139815D01*
X168085185Y-65019528D01*
X168085182Y-65019525D01*
X168083714Y-65018375D01*
X168069383Y-65003481D01*
X167939533Y-64823890D01*
X167925500Y-64780532D01*
X167925500Y-64281614D01*
X167934497Y-64246251D01*
X167966452Y-64187512D01*
X168148684Y-63852541D01*
X168156858Y-63834740D01*
X168160772Y-63827350D01*
X168168478Y-63814606D01*
X168172066Y-63803088D01*
X168175466Y-63794225D01*
X168177235Y-63790375D01*
X168178356Y-63787422D01*
X168198250Y-63721976D01*
X168198393Y-63721358D01*
X168199359Y-63716689D01*
X168201165Y-63709705D01*
X168219086Y-63652196D01*
X168225500Y-63581616D01*
X168225500Y-62918384D01*
X168219086Y-62847804D01*
X168168478Y-62685394D01*
X168080472Y-62539815D01*
X167990890Y-62450233D01*
X167974850Y-62426227D01*
X167970539Y-62415820D01*
X167970537Y-62359185D01*
X167974850Y-62348771D01*
X167990888Y-62324768D01*
X168029966Y-62285691D01*
X168080472Y-62235185D01*
X168168478Y-62089606D01*
X168219086Y-61927196D01*
X168225500Y-61856616D01*
X168225500Y-61193384D01*
X168219086Y-61122804D01*
X168184111Y-61010565D01*
X168181065Y-60981855D01*
X168182085Y-60970631D01*
X168208407Y-60920485D01*
X168211811Y-60917649D01*
X168259181Y-60900500D01*
X182495164Y-60900500D01*
X182498366Y-60900569D01*
G37*
%TD.AperFunction*%
%TD*%
%TA.AperFunction,Conductor*%
%TO.N,Net-(U1-FB)*%
G36*
X167054491Y-61073582D02*
G01*
X167320241Y-61442016D01*
X167322302Y-61450730D01*
X167319118Y-61457039D01*
X166942036Y-61842747D01*
X166933802Y-61846267D01*
X166926761Y-61844010D01*
X166529790Y-61553505D01*
X166525138Y-61545854D01*
X166525000Y-61544063D01*
X166525000Y-61356954D01*
X166528427Y-61348681D01*
X166531106Y-61346678D01*
X167039412Y-61070147D01*
X167048316Y-61069205D01*
X167054491Y-61073582D01*
G37*
%TD.AperFunction*%
%TD*%
%TA.AperFunction,Conductor*%
%TO.N,Net-(U1-EN)*%
G36*
X165200513Y-65269401D02*
G01*
X165204866Y-65270781D01*
X165207808Y-65272401D01*
X165212786Y-65277745D01*
X165359260Y-65594924D01*
X165359854Y-65596498D01*
X165360331Y-65598104D01*
X165360693Y-65599748D01*
X165368814Y-65655488D01*
X165420191Y-65760584D01*
X165420192Y-65760585D01*
X165443886Y-65784278D01*
X165446422Y-65788072D01*
X165447104Y-65789718D01*
X165447105Y-65798673D01*
X165447103Y-65798678D01*
X165446421Y-65800323D01*
X165443886Y-65804115D01*
X165318025Y-65929976D01*
X165314229Y-65932513D01*
X165311479Y-65933652D01*
X165304502Y-65934272D01*
X165304470Y-65934265D01*
X165302151Y-65933497D01*
X165015873Y-65804115D01*
X164802644Y-65707747D01*
X164798933Y-65705091D01*
X164796618Y-65702624D01*
X164793548Y-65696109D01*
X164788338Y-65655488D01*
X164734344Y-65234481D01*
X164734656Y-65229933D01*
X164735124Y-65228209D01*
X164740595Y-65221127D01*
X164741338Y-65220702D01*
X164748441Y-65219225D01*
X165200513Y-65269401D01*
G37*
%TD.AperFunction*%
%TD*%
%TA.AperFunction,Conductor*%
%TO.N,5V*%
G36*
X161678630Y-62765428D02*
G01*
X161678969Y-62765690D01*
X161814966Y-62875000D01*
X162114292Y-63115590D01*
X162118593Y-63123444D01*
X162116081Y-63132039D01*
X162114010Y-63134048D01*
X161452668Y-63633163D01*
X161444000Y-63635411D01*
X161440462Y-63634326D01*
X160919042Y-63378213D01*
X160913127Y-63371489D01*
X160912500Y-63367711D01*
X160912500Y-62885100D01*
X160915927Y-62876827D01*
X160922489Y-62873526D01*
X161669947Y-62763245D01*
X161678630Y-62765428D01*
G37*
%TD.AperFunction*%
%TD*%
%TA.AperFunction,Conductor*%
%TO.N,Net-(U1-SW)*%
G36*
X164515487Y-66424185D02*
G01*
X165018251Y-66651408D01*
X165024377Y-66657937D01*
X165025036Y-66660581D01*
X165084729Y-67126021D01*
X165082382Y-67134663D01*
X165074612Y-67139114D01*
X165071833Y-67139138D01*
X164615951Y-67088539D01*
X164608107Y-67084220D01*
X164606620Y-67081815D01*
X164459157Y-66762493D01*
X164458206Y-66759293D01*
X164449962Y-66702706D01*
X164398587Y-66597616D01*
X164398586Y-66597615D01*
X164398586Y-66597614D01*
X164373245Y-66572273D01*
X164369818Y-66564000D01*
X164373244Y-66555728D01*
X164502398Y-66426574D01*
X164510670Y-66423148D01*
X164515487Y-66424185D01*
G37*
%TD.AperFunction*%
%TD*%
%TA.AperFunction,Conductor*%
%TO.N,Net-(C7-Pad1)*%
G36*
X162675853Y-60958325D02*
G01*
X163329630Y-61184774D01*
X163336325Y-61190719D01*
X163337500Y-61195829D01*
X163337500Y-61381781D01*
X163334073Y-61390054D01*
X163332987Y-61391013D01*
X162814648Y-61794509D01*
X162806015Y-61796887D01*
X162800443Y-61794638D01*
X162137865Y-61297894D01*
X162133301Y-61290190D01*
X162135522Y-61281515D01*
X162138820Y-61278527D01*
X162665974Y-60959373D01*
X162674823Y-60958021D01*
X162675853Y-60958325D01*
G37*
%TD.AperFunction*%
%TD*%
%TA.AperFunction,Conductor*%
%TO.N,Net-(U1-SW)*%
G36*
X163215440Y-66196219D02*
G01*
X163219270Y-66198689D01*
X163221438Y-66200788D01*
X163224998Y-66209004D01*
X163225000Y-66209193D01*
X163225000Y-66391628D01*
X163224109Y-66396106D01*
X163222743Y-66399403D01*
X163218706Y-66404466D01*
X162741997Y-66742820D01*
X162737829Y-66744685D01*
X162735604Y-66745193D01*
X162727532Y-66744130D01*
X162726556Y-66743614D01*
X162723593Y-66741383D01*
X162398560Y-66403497D01*
X162308618Y-66309998D01*
X162306158Y-66306160D01*
X162305491Y-66304456D01*
X162305633Y-66295569D01*
X162306314Y-66293983D01*
X162308842Y-66290280D01*
X162390960Y-66209193D01*
X162629021Y-65974119D01*
X162632830Y-65971610D01*
X162635686Y-65970448D01*
X162644394Y-65970405D01*
X163215440Y-66196219D01*
G37*
%TD.AperFunction*%
%TD*%
%TA.AperFunction,Conductor*%
%TO.N,Net-(U1-EN)*%
G36*
X166907165Y-65610120D02*
G01*
X167363628Y-65993702D01*
X167367757Y-66001648D01*
X167365058Y-66010186D01*
X167362261Y-66012606D01*
X167103482Y-66172844D01*
X167095936Y-66174515D01*
X166516102Y-66105329D01*
X166508293Y-66100946D01*
X166505788Y-66093711D01*
X166505788Y-65909897D01*
X166509215Y-65901624D01*
X166510394Y-65900593D01*
X166892553Y-65609765D01*
X166901211Y-65607483D01*
X166907165Y-65610120D01*
G37*
%TD.AperFunction*%
%TD*%
%TA.AperFunction,Conductor*%
%TO.N,5V*%
G36*
X160257532Y-63133220D02*
G01*
X160258953Y-63134641D01*
X160726663Y-63690552D01*
X160729367Y-63699088D01*
X160728743Y-63701978D01*
X160502755Y-64342194D01*
X160496770Y-64348855D01*
X160491722Y-64350000D01*
X160008278Y-64350000D01*
X160000005Y-64346573D01*
X159997245Y-64342194D01*
X159771256Y-63701978D01*
X159771734Y-63693036D01*
X159773333Y-63690556D01*
X160241047Y-63134640D01*
X160248996Y-63130516D01*
X160257532Y-63133220D01*
G37*
%TD.AperFunction*%
%TD*%
%TA.AperFunction,Conductor*%
%TO.N,5V*%
G36*
X160282187Y-67129597D02*
G01*
X160600857Y-67377764D01*
X160701487Y-67456131D01*
X160705909Y-67463918D01*
X160705472Y-67468832D01*
X160527556Y-68041770D01*
X160521829Y-68048654D01*
X160516382Y-68050000D01*
X160033618Y-68050000D01*
X160025345Y-68046573D01*
X160022444Y-68041770D01*
X159844527Y-67468832D01*
X159845347Y-67459915D01*
X159848510Y-67456132D01*
X160267811Y-67129597D01*
X160276444Y-67127218D01*
X160282187Y-67129597D01*
G37*
%TD.AperFunction*%
%TD*%
%TA.AperFunction,Conductor*%
%TO.N,5V*%
G36*
X160499369Y-64028427D02*
G01*
X160502373Y-64033581D01*
X160679432Y-64673771D01*
X160678334Y-64682658D01*
X160677498Y-64683933D01*
X160259017Y-65239038D01*
X160251300Y-65243581D01*
X160242631Y-65241338D01*
X160240578Y-65239354D01*
X159754363Y-64638371D01*
X159751824Y-64629784D01*
X159752638Y-64626562D01*
X159997019Y-64032250D01*
X160003335Y-64025902D01*
X160007840Y-64025000D01*
X160491096Y-64025000D01*
X160499369Y-64028427D01*
G37*
%TD.AperFunction*%
%TD*%
%TA.AperFunction,Conductor*%
%TO.N,Net-(U1-FB)*%
G36*
X165960895Y-61055698D02*
G01*
X166394814Y-61346524D01*
X166399778Y-61353977D01*
X166400000Y-61356243D01*
X166400000Y-61543756D01*
X166396573Y-61552029D01*
X166394814Y-61553475D01*
X165960897Y-61844300D01*
X165952117Y-61846059D01*
X165945615Y-61842328D01*
X165605844Y-61457747D01*
X165602934Y-61449278D01*
X165605844Y-61442253D01*
X165945616Y-61057670D01*
X165953661Y-61053740D01*
X165960895Y-61055698D01*
G37*
%TD.AperFunction*%
%TD*%
%TA.AperFunction,Conductor*%
%TO.N,5V*%
G36*
X160526455Y-70428427D02*
G01*
X160528361Y-70430932D01*
X160946598Y-71168997D01*
X160947696Y-71177884D01*
X160946394Y-71180880D01*
X160284457Y-72260573D01*
X160277211Y-72265835D01*
X160268367Y-72264433D01*
X160264813Y-72261046D01*
X159529437Y-71181514D01*
X159527613Y-71172749D01*
X159529371Y-71168442D01*
X159898488Y-70614767D01*
X160021527Y-70430210D01*
X160028967Y-70425227D01*
X160031262Y-70425000D01*
X160518182Y-70425000D01*
X160526455Y-70428427D01*
G37*
%TD.AperFunction*%
%TD*%
%TA.AperFunction,Conductor*%
%TO.N,5V*%
G36*
X160524655Y-66203427D02*
G01*
X160527556Y-66208230D01*
X160705472Y-66781167D01*
X160704652Y-66790084D01*
X160701487Y-66793868D01*
X160282189Y-67120401D01*
X160273556Y-67122781D01*
X160267811Y-67120401D01*
X159848512Y-66793868D01*
X159844090Y-66786081D01*
X159844527Y-66781167D01*
X160022444Y-66208230D01*
X160028171Y-66201346D01*
X160033618Y-66200000D01*
X160516382Y-66200000D01*
X160524655Y-66203427D01*
G37*
%TD.AperFunction*%
%TD*%
%TA.AperFunction,Conductor*%
%TO.N,Net-(U1-FB)*%
G36*
X165570322Y-62200889D02*
G01*
X165573362Y-62202149D01*
X165579070Y-62207201D01*
X165901760Y-62778082D01*
X165903188Y-62782417D01*
X165903465Y-62784679D01*
X165901577Y-62792606D01*
X165900961Y-62793527D01*
X165898425Y-62796253D01*
X165484024Y-63118971D01*
X165479943Y-63121020D01*
X165477428Y-63121713D01*
X165469854Y-63121247D01*
X165469569Y-63121129D01*
X165469282Y-63121010D01*
X165466565Y-63119430D01*
X165262832Y-62960772D01*
X165051923Y-62796525D01*
X165048940Y-62793074D01*
X165047813Y-62791090D01*
X165046510Y-62783048D01*
X165046727Y-62781949D01*
X165048016Y-62778476D01*
X165370497Y-62207965D01*
X165373472Y-62204510D01*
X165375061Y-62203267D01*
X165376069Y-62202481D01*
X165383273Y-62200000D01*
X165565847Y-62200000D01*
X165570322Y-62200889D01*
G37*
%TD.AperFunction*%
%TD*%
%TA.AperFunction,Conductor*%
%TO.N,+3.3V*%
G36*
X169923045Y-67443115D02*
G01*
X169929365Y-67449459D01*
X169929402Y-67449550D01*
X170255136Y-68259427D01*
X170255044Y-68268381D01*
X170252554Y-68272066D01*
X170121971Y-68402649D01*
X170113698Y-68406076D01*
X170109508Y-68405300D01*
X169324094Y-68104024D01*
X169317597Y-68097861D01*
X169317199Y-68089356D01*
X169472589Y-67629336D01*
X169478483Y-67622596D01*
X169479197Y-67622272D01*
X169914092Y-67443098D01*
X169923045Y-67443115D01*
G37*
%TD.AperFunction*%
%TD*%
%TA.AperFunction,Conductor*%
%TO.N,Net-(C7-Pad1)*%
G36*
X163954706Y-61454917D02*
G01*
X163955990Y-61455448D01*
X163959421Y-61457631D01*
X163959617Y-61457811D01*
X164326312Y-61793782D01*
X164329011Y-61797463D01*
X164330109Y-61799817D01*
X164330905Y-61807401D01*
X164330762Y-61808019D01*
X164329641Y-61810972D01*
X164054435Y-62316845D01*
X164051516Y-62320350D01*
X164048987Y-62322396D01*
X164041628Y-62325000D01*
X163859282Y-62325000D01*
X163854802Y-62324108D01*
X163851798Y-62322863D01*
X163846000Y-62317646D01*
X163570707Y-61811616D01*
X163569350Y-61807257D01*
X163569077Y-61804672D01*
X163570781Y-61797258D01*
X163571123Y-61796709D01*
X163573137Y-61794285D01*
X163940384Y-61457808D01*
X163944281Y-61455445D01*
X163946239Y-61454733D01*
X163954706Y-61454917D01*
G37*
%TD.AperFunction*%
%TD*%
%TA.AperFunction,Conductor*%
%TO.N,+3.3V*%
G36*
X172257241Y-68076512D02*
G01*
X172259951Y-68080753D01*
X172430471Y-68545284D01*
X172430105Y-68554232D01*
X172424083Y-68560076D01*
X172161731Y-68672122D01*
X172152777Y-68672220D01*
X172152541Y-68672122D01*
X171890188Y-68560076D01*
X171883925Y-68553675D01*
X171883800Y-68545284D01*
X172054321Y-68080753D01*
X172060388Y-68074168D01*
X172065304Y-68073085D01*
X172248968Y-68073085D01*
X172257241Y-68076512D01*
G37*
%TD.AperFunction*%
%TD*%
%TA.AperFunction,Conductor*%
%TO.N,Net-(U1-BOOT)*%
G36*
X162643196Y-64419931D02*
G01*
X163217602Y-64647074D01*
X163224036Y-64653303D01*
X163225000Y-64657954D01*
X163225000Y-64843956D01*
X163221573Y-64852229D01*
X163220072Y-64853497D01*
X162740100Y-65194167D01*
X162731370Y-65196161D01*
X162724896Y-65192737D01*
X162307005Y-64758322D01*
X162303739Y-64749984D01*
X162307215Y-64741887D01*
X162630676Y-64422486D01*
X162638970Y-64419112D01*
X162643196Y-64419931D01*
G37*
%TD.AperFunction*%
%TD*%
%TA.AperFunction,Conductor*%
%TO.N,5V*%
G36*
X160752582Y-62628740D02*
G01*
X161243491Y-62871777D01*
X161249385Y-62878518D01*
X161250000Y-62882262D01*
X161250000Y-63367737D01*
X161246573Y-63376010D01*
X161243491Y-63378222D01*
X160752584Y-63621258D01*
X160743649Y-63621858D01*
X160739088Y-63619013D01*
X160257173Y-63133239D01*
X160253780Y-63124953D01*
X160257173Y-63116760D01*
X160739089Y-62630984D01*
X160747346Y-62627526D01*
X160752582Y-62628740D01*
G37*
%TD.AperFunction*%
%TD*%
%TA.AperFunction,Conductor*%
%TO.N,5V*%
G36*
X160281758Y-65259422D02*
G01*
X160284191Y-65261943D01*
X160677897Y-65816344D01*
X160679893Y-65825073D01*
X160679739Y-65825831D01*
X160527142Y-66466013D01*
X160521890Y-66473266D01*
X160515761Y-66475000D01*
X160032655Y-66475000D01*
X160024382Y-66471573D01*
X160021934Y-66467985D01*
X159777760Y-65909279D01*
X159777587Y-65900326D01*
X159779183Y-65897491D01*
X160265358Y-65261609D01*
X160273105Y-65257120D01*
X160281758Y-65259422D01*
G37*
%TD.AperFunction*%
%TD*%
%TA.AperFunction,Conductor*%
%TO.N,Net-(U1-BOOT)*%
G36*
X163691823Y-64457110D02*
G01*
X163952804Y-64741728D01*
X163955870Y-64750141D01*
X163952440Y-64757922D01*
X163666170Y-65043240D01*
X163657892Y-65046653D01*
X163651421Y-65044688D01*
X163364599Y-64853473D01*
X163359616Y-64846033D01*
X163359389Y-64843738D01*
X163359389Y-64656547D01*
X163362816Y-64648274D01*
X163364970Y-64646575D01*
X163677083Y-64455044D01*
X163685924Y-64453639D01*
X163691823Y-64457110D01*
G37*
%TD.AperFunction*%
%TD*%
%TA.AperFunction,Conductor*%
%TO.N,Net-(U1-FB)*%
G36*
X165482685Y-61458293D02*
G01*
X165484582Y-61460045D01*
X165868922Y-61903075D01*
X165871755Y-61911570D01*
X165869565Y-61917597D01*
X165578503Y-62320155D01*
X165570879Y-62324852D01*
X165569022Y-62325000D01*
X165383661Y-62325000D01*
X165375388Y-62321573D01*
X165372471Y-62316716D01*
X165216940Y-61807159D01*
X165217802Y-61798247D01*
X165218707Y-61796809D01*
X165466327Y-61460769D01*
X165473992Y-61456144D01*
X165482685Y-61458293D01*
G37*
%TD.AperFunction*%
%TD*%
%TA.AperFunction,Conductor*%
%TO.N,Net-(U1-FB)*%
G36*
X165954178Y-64079988D02*
G01*
X165957085Y-64081193D01*
X165963154Y-64086936D01*
X166144465Y-64464399D01*
X166145601Y-64468819D01*
X166145805Y-64472507D01*
X166144565Y-64478431D01*
X165870880Y-65019864D01*
X165868063Y-65023460D01*
X165866826Y-65024523D01*
X165858318Y-65027316D01*
X165850928Y-65023922D01*
X165850271Y-65023265D01*
X165848102Y-65020270D01*
X165574457Y-64478917D01*
X165573233Y-64474523D01*
X165572954Y-64470834D01*
X165574074Y-64464893D01*
X165755195Y-64087827D01*
X165757934Y-64084181D01*
X165760280Y-64082080D01*
X165768083Y-64079099D01*
X165949703Y-64079099D01*
X165954178Y-64079988D01*
G37*
%TD.AperFunction*%
%TD*%
%TA.AperFunction,Conductor*%
%TO.N,Net-(C7-Pad1)*%
G36*
X163675081Y-60993275D02*
G01*
X163678809Y-60995950D01*
X163943275Y-61279226D01*
X163946416Y-61287612D01*
X163942986Y-61295493D01*
X163557175Y-61680342D01*
X163548897Y-61683759D01*
X163541892Y-61681419D01*
X163154680Y-61391010D01*
X163150118Y-61383305D01*
X163150000Y-61381650D01*
X163150000Y-61195593D01*
X163153427Y-61187320D01*
X163157571Y-61184646D01*
X163666133Y-60992986D01*
X163675081Y-60993275D01*
G37*
%TD.AperFunction*%
%TD*%
%TA.AperFunction,Conductor*%
%TO.N,Net-(C7-Pad1)*%
G36*
X164045061Y-62200889D02*
G01*
X164048035Y-62202121D01*
X164053926Y-62207509D01*
X164352402Y-62778432D01*
X164353687Y-62782812D01*
X164353908Y-62785285D01*
X164351964Y-62792853D01*
X164351513Y-62793524D01*
X164349257Y-62796015D01*
X163959013Y-63118549D01*
X163954993Y-63120716D01*
X163952583Y-63121456D01*
X163944841Y-63121149D01*
X163944144Y-63120873D01*
X163941283Y-63119241D01*
X163510085Y-62784931D01*
X163507094Y-62781488D01*
X163506527Y-62780495D01*
X163506017Y-62779601D01*
X163504734Y-62771368D01*
X163504998Y-62770127D01*
X163506435Y-62766501D01*
X163845379Y-62207619D01*
X163848458Y-62204257D01*
X163851175Y-62202264D01*
X163858093Y-62200000D01*
X164040587Y-62200000D01*
X164045061Y-62200889D01*
G37*
%TD.AperFunction*%
%TD*%
%TA.AperFunction,Conductor*%
%TO.N,+3.3V*%
G36*
X172187088Y-65966149D02*
G01*
X172695779Y-66073255D01*
X172703168Y-66078313D01*
X172703340Y-66078584D01*
X172928341Y-66445224D01*
X172929747Y-66454068D01*
X172924489Y-66461316D01*
X172921993Y-66462469D01*
X172227846Y-66688575D01*
X172254491Y-66828472D01*
X172252673Y-66837240D01*
X172245187Y-66842154D01*
X172242998Y-66842361D01*
X172068836Y-66842361D01*
X172060563Y-66838934D01*
X172057136Y-66830661D01*
X172057136Y-66620189D01*
X172058027Y-66615712D01*
X172086423Y-66547157D01*
X172086425Y-66547153D01*
X172173141Y-65975846D01*
X172177771Y-65968183D01*
X172186465Y-65966036D01*
X172187088Y-65966149D01*
G37*
%TD.AperFunction*%
%TD*%
%TA.AperFunction,Conductor*%
%TO.N,5V*%
G36*
X160732436Y-66953605D02*
G01*
X161130905Y-67146802D01*
X161136854Y-67153494D01*
X161137500Y-67157329D01*
X161137500Y-67637606D01*
X161134073Y-67645879D01*
X161125800Y-67649306D01*
X161125128Y-67649287D01*
X160280055Y-67600634D01*
X160271992Y-67596737D01*
X160269027Y-67588953D01*
X160269027Y-67404891D01*
X160272454Y-67396618D01*
X160272462Y-67396609D01*
X160719117Y-66955805D01*
X160727411Y-66952434D01*
X160732436Y-66953605D01*
G37*
%TD.AperFunction*%
%TD*%
%TA.AperFunction,Conductor*%
%TO.N,Net-(U1-EN)*%
G36*
X167421173Y-64975891D02*
G01*
X167424494Y-64977267D01*
X167429497Y-64981221D01*
X167717688Y-65379806D01*
X167719589Y-65383954D01*
X167720112Y-65386153D01*
X167719098Y-65394281D01*
X167718571Y-65395289D01*
X167716328Y-65398286D01*
X167333755Y-65767548D01*
X167329917Y-65770016D01*
X167327718Y-65770882D01*
X167319699Y-65771085D01*
X167318763Y-65770770D01*
X167315594Y-65769129D01*
X167253156Y-65723524D01*
X166935440Y-65491458D01*
X166932352Y-65488100D01*
X166931249Y-65486291D01*
X166929751Y-65478005D01*
X166930003Y-65476687D01*
X166931413Y-65472952D01*
X167220424Y-64982759D01*
X167223463Y-64979357D01*
X167226128Y-64977351D01*
X167233163Y-64975000D01*
X167416695Y-64975000D01*
X167421173Y-64975891D01*
G37*
%TD.AperFunction*%
%TD*%
%TA.AperFunction,Conductor*%
%TO.N,Net-(U1-SW)*%
G36*
X165538944Y-70760367D02*
G01*
X166578468Y-71172151D01*
X166584898Y-71178384D01*
X166585855Y-71182733D01*
X166612999Y-72254993D01*
X166609783Y-72263350D01*
X166605552Y-72266190D01*
X165859644Y-72556901D01*
X165850691Y-72556713D01*
X165845093Y-72551547D01*
X165685410Y-72254993D01*
X165111663Y-71189464D01*
X165110759Y-71180557D01*
X165113691Y-71175648D01*
X165526367Y-70762972D01*
X165534639Y-70759546D01*
X165538944Y-70760367D01*
G37*
%TD.AperFunction*%
%TD*%
M02*
