%TF.GenerationSoftware,KiCad,Pcbnew,10.0.5*%
%TF.CreationDate,2026-10-05T21:51:47+08:00*%
%TF.ProjectId,TTLtoCANforTOF,54544c74-6f43-4414-9e66-6f72544f462e,rev?*%
%TF.SameCoordinates,Original*%
%TF.FileFunction,Legend,Top*%
%TF.FilePolarity,Positive*%
%FSLAX46Y46*%
G04 Gerber Fmt 4.6, Leading zero omitted, Abs format (unit mm)*
G04 Created by KiCad (PCBNEW 10.0.5) date 2026-10-05 21:51:47*
%MOMM*%
%LPD*%
G01*
G04 APERTURE LIST*
%ADD10C,0.100000*%
%ADD11C,0.080000*%
%ADD12C,0.150000*%
%ADD13C,0.120000*%
%ADD14C,0.000000*%
G04 APERTURE END LIST*
D10*
X176950000Y-65075000D02*
X176950000Y-61375000D01*
D11*
X177550250Y-61834649D02*
X177835964Y-61834649D01*
X177693107Y-62334649D02*
X177693107Y-61834649D01*
X177931202Y-61834649D02*
X178216916Y-61834649D01*
X178074059Y-62334649D02*
X178074059Y-61834649D01*
X178621677Y-62334649D02*
X178383582Y-62334649D01*
X178383582Y-62334649D02*
X178383582Y-61834649D01*
X178716916Y-62001316D02*
X178907392Y-62001316D01*
X178788344Y-61834649D02*
X178788344Y-62263220D01*
X178788344Y-62263220D02*
X178812154Y-62310840D01*
X178812154Y-62310840D02*
X178859773Y-62334649D01*
X178859773Y-62334649D02*
X178907392Y-62334649D01*
X179145487Y-62334649D02*
X179097868Y-62310840D01*
X179097868Y-62310840D02*
X179074058Y-62287030D01*
X179074058Y-62287030D02*
X179050249Y-62239411D01*
X179050249Y-62239411D02*
X179050249Y-62096554D01*
X179050249Y-62096554D02*
X179074058Y-62048935D01*
X179074058Y-62048935D02*
X179097868Y-62025125D01*
X179097868Y-62025125D02*
X179145487Y-62001316D01*
X179145487Y-62001316D02*
X179216915Y-62001316D01*
X179216915Y-62001316D02*
X179264534Y-62025125D01*
X179264534Y-62025125D02*
X179288344Y-62048935D01*
X179288344Y-62048935D02*
X179312153Y-62096554D01*
X179312153Y-62096554D02*
X179312153Y-62239411D01*
X179312153Y-62239411D02*
X179288344Y-62287030D01*
X179288344Y-62287030D02*
X179264534Y-62310840D01*
X179264534Y-62310840D02*
X179216915Y-62334649D01*
X179216915Y-62334649D02*
X179145487Y-62334649D01*
X179812153Y-62287030D02*
X179788344Y-62310840D01*
X179788344Y-62310840D02*
X179716915Y-62334649D01*
X179716915Y-62334649D02*
X179669296Y-62334649D01*
X179669296Y-62334649D02*
X179597868Y-62310840D01*
X179597868Y-62310840D02*
X179550249Y-62263220D01*
X179550249Y-62263220D02*
X179526439Y-62215601D01*
X179526439Y-62215601D02*
X179502630Y-62120363D01*
X179502630Y-62120363D02*
X179502630Y-62048935D01*
X179502630Y-62048935D02*
X179526439Y-61953697D01*
X179526439Y-61953697D02*
X179550249Y-61906078D01*
X179550249Y-61906078D02*
X179597868Y-61858459D01*
X179597868Y-61858459D02*
X179669296Y-61834649D01*
X179669296Y-61834649D02*
X179716915Y-61834649D01*
X179716915Y-61834649D02*
X179788344Y-61858459D01*
X179788344Y-61858459D02*
X179812153Y-61882268D01*
X180002630Y-62191792D02*
X180240725Y-62191792D01*
X179955011Y-62334649D02*
X180121677Y-61834649D01*
X180121677Y-61834649D02*
X180288344Y-62334649D01*
X180455010Y-62334649D02*
X180455010Y-61834649D01*
X180455010Y-61834649D02*
X180740724Y-62334649D01*
X180740724Y-62334649D02*
X180740724Y-61834649D01*
X180907392Y-62001316D02*
X181097868Y-62001316D01*
X180978820Y-62334649D02*
X180978820Y-61906078D01*
X180978820Y-61906078D02*
X181002630Y-61858459D01*
X181002630Y-61858459D02*
X181050249Y-61834649D01*
X181050249Y-61834649D02*
X181097868Y-61834649D01*
X181335963Y-62334649D02*
X181288344Y-62310840D01*
X181288344Y-62310840D02*
X181264534Y-62287030D01*
X181264534Y-62287030D02*
X181240725Y-62239411D01*
X181240725Y-62239411D02*
X181240725Y-62096554D01*
X181240725Y-62096554D02*
X181264534Y-62048935D01*
X181264534Y-62048935D02*
X181288344Y-62025125D01*
X181288344Y-62025125D02*
X181335963Y-62001316D01*
X181335963Y-62001316D02*
X181407391Y-62001316D01*
X181407391Y-62001316D02*
X181455010Y-62025125D01*
X181455010Y-62025125D02*
X181478820Y-62048935D01*
X181478820Y-62048935D02*
X181502629Y-62096554D01*
X181502629Y-62096554D02*
X181502629Y-62239411D01*
X181502629Y-62239411D02*
X181478820Y-62287030D01*
X181478820Y-62287030D02*
X181455010Y-62310840D01*
X181455010Y-62310840D02*
X181407391Y-62334649D01*
X181407391Y-62334649D02*
X181335963Y-62334649D01*
X181716915Y-62334649D02*
X181716915Y-62001316D01*
X181716915Y-62096554D02*
X181740725Y-62048935D01*
X181740725Y-62048935D02*
X181764534Y-62025125D01*
X181764534Y-62025125D02*
X181812153Y-62001316D01*
X181812153Y-62001316D02*
X181859772Y-62001316D01*
X181955011Y-61834649D02*
X182240725Y-61834649D01*
X182097868Y-62334649D02*
X182097868Y-61834649D01*
X182502629Y-61834649D02*
X182597867Y-61834649D01*
X182597867Y-61834649D02*
X182645486Y-61858459D01*
X182645486Y-61858459D02*
X182693105Y-61906078D01*
X182693105Y-61906078D02*
X182716915Y-62001316D01*
X182716915Y-62001316D02*
X182716915Y-62167982D01*
X182716915Y-62167982D02*
X182693105Y-62263220D01*
X182693105Y-62263220D02*
X182645486Y-62310840D01*
X182645486Y-62310840D02*
X182597867Y-62334649D01*
X182597867Y-62334649D02*
X182502629Y-62334649D01*
X182502629Y-62334649D02*
X182455010Y-62310840D01*
X182455010Y-62310840D02*
X182407391Y-62263220D01*
X182407391Y-62263220D02*
X182383582Y-62167982D01*
X182383582Y-62167982D02*
X182383582Y-62001316D01*
X182383582Y-62001316D02*
X182407391Y-61906078D01*
X182407391Y-61906078D02*
X182455010Y-61858459D01*
X182455010Y-61858459D02*
X182502629Y-61834649D01*
X183097868Y-62072744D02*
X182931201Y-62072744D01*
X182931201Y-62334649D02*
X182931201Y-61834649D01*
X182931201Y-61834649D02*
X183169296Y-61834649D01*
X177647869Y-63057268D02*
X177671678Y-63033459D01*
X177671678Y-63033459D02*
X177719297Y-63009649D01*
X177719297Y-63009649D02*
X177838345Y-63009649D01*
X177838345Y-63009649D02*
X177885964Y-63033459D01*
X177885964Y-63033459D02*
X177909773Y-63057268D01*
X177909773Y-63057268D02*
X177933583Y-63104887D01*
X177933583Y-63104887D02*
X177933583Y-63152506D01*
X177933583Y-63152506D02*
X177909773Y-63223935D01*
X177909773Y-63223935D02*
X177624059Y-63509649D01*
X177624059Y-63509649D02*
X177933583Y-63509649D01*
X178243106Y-63009649D02*
X178290725Y-63009649D01*
X178290725Y-63009649D02*
X178338344Y-63033459D01*
X178338344Y-63033459D02*
X178362154Y-63057268D01*
X178362154Y-63057268D02*
X178385963Y-63104887D01*
X178385963Y-63104887D02*
X178409773Y-63200125D01*
X178409773Y-63200125D02*
X178409773Y-63319173D01*
X178409773Y-63319173D02*
X178385963Y-63414411D01*
X178385963Y-63414411D02*
X178362154Y-63462030D01*
X178362154Y-63462030D02*
X178338344Y-63485840D01*
X178338344Y-63485840D02*
X178290725Y-63509649D01*
X178290725Y-63509649D02*
X178243106Y-63509649D01*
X178243106Y-63509649D02*
X178195487Y-63485840D01*
X178195487Y-63485840D02*
X178171678Y-63462030D01*
X178171678Y-63462030D02*
X178147868Y-63414411D01*
X178147868Y-63414411D02*
X178124059Y-63319173D01*
X178124059Y-63319173D02*
X178124059Y-63200125D01*
X178124059Y-63200125D02*
X178147868Y-63104887D01*
X178147868Y-63104887D02*
X178171678Y-63057268D01*
X178171678Y-63057268D02*
X178195487Y-63033459D01*
X178195487Y-63033459D02*
X178243106Y-63009649D01*
X178600249Y-63057268D02*
X178624058Y-63033459D01*
X178624058Y-63033459D02*
X178671677Y-63009649D01*
X178671677Y-63009649D02*
X178790725Y-63009649D01*
X178790725Y-63009649D02*
X178838344Y-63033459D01*
X178838344Y-63033459D02*
X178862153Y-63057268D01*
X178862153Y-63057268D02*
X178885963Y-63104887D01*
X178885963Y-63104887D02*
X178885963Y-63152506D01*
X178885963Y-63152506D02*
X178862153Y-63223935D01*
X178862153Y-63223935D02*
X178576439Y-63509649D01*
X178576439Y-63509649D02*
X178885963Y-63509649D01*
X179314534Y-63009649D02*
X179219296Y-63009649D01*
X179219296Y-63009649D02*
X179171677Y-63033459D01*
X179171677Y-63033459D02*
X179147867Y-63057268D01*
X179147867Y-63057268D02*
X179100248Y-63128697D01*
X179100248Y-63128697D02*
X179076439Y-63223935D01*
X179076439Y-63223935D02*
X179076439Y-63414411D01*
X179076439Y-63414411D02*
X179100248Y-63462030D01*
X179100248Y-63462030D02*
X179124058Y-63485840D01*
X179124058Y-63485840D02*
X179171677Y-63509649D01*
X179171677Y-63509649D02*
X179266915Y-63509649D01*
X179266915Y-63509649D02*
X179314534Y-63485840D01*
X179314534Y-63485840D02*
X179338343Y-63462030D01*
X179338343Y-63462030D02*
X179362153Y-63414411D01*
X179362153Y-63414411D02*
X179362153Y-63295363D01*
X179362153Y-63295363D02*
X179338343Y-63247744D01*
X179338343Y-63247744D02*
X179314534Y-63223935D01*
X179314534Y-63223935D02*
X179266915Y-63200125D01*
X179266915Y-63200125D02*
X179171677Y-63200125D01*
X179171677Y-63200125D02*
X179124058Y-63223935D01*
X179124058Y-63223935D02*
X179100248Y-63247744D01*
X179100248Y-63247744D02*
X179076439Y-63295363D01*
X179576438Y-63462030D02*
X179600248Y-63485840D01*
X179600248Y-63485840D02*
X179576438Y-63509649D01*
X179576438Y-63509649D02*
X179552629Y-63485840D01*
X179552629Y-63485840D02*
X179576438Y-63462030D01*
X179576438Y-63462030D02*
X179576438Y-63509649D01*
X180076438Y-63509649D02*
X179790724Y-63509649D01*
X179933581Y-63509649D02*
X179933581Y-63009649D01*
X179933581Y-63009649D02*
X179885962Y-63081078D01*
X179885962Y-63081078D02*
X179838343Y-63128697D01*
X179838343Y-63128697D02*
X179790724Y-63152506D01*
X180385961Y-63009649D02*
X180433580Y-63009649D01*
X180433580Y-63009649D02*
X180481199Y-63033459D01*
X180481199Y-63033459D02*
X180505009Y-63057268D01*
X180505009Y-63057268D02*
X180528818Y-63104887D01*
X180528818Y-63104887D02*
X180552628Y-63200125D01*
X180552628Y-63200125D02*
X180552628Y-63319173D01*
X180552628Y-63319173D02*
X180528818Y-63414411D01*
X180528818Y-63414411D02*
X180505009Y-63462030D01*
X180505009Y-63462030D02*
X180481199Y-63485840D01*
X180481199Y-63485840D02*
X180433580Y-63509649D01*
X180433580Y-63509649D02*
X180385961Y-63509649D01*
X180385961Y-63509649D02*
X180338342Y-63485840D01*
X180338342Y-63485840D02*
X180314533Y-63462030D01*
X180314533Y-63462030D02*
X180290723Y-63414411D01*
X180290723Y-63414411D02*
X180266914Y-63319173D01*
X180266914Y-63319173D02*
X180266914Y-63200125D01*
X180266914Y-63200125D02*
X180290723Y-63104887D01*
X180290723Y-63104887D02*
X180314533Y-63057268D01*
X180314533Y-63057268D02*
X180338342Y-63033459D01*
X180338342Y-63033459D02*
X180385961Y-63009649D01*
X180766913Y-63462030D02*
X180790723Y-63485840D01*
X180790723Y-63485840D02*
X180766913Y-63509649D01*
X180766913Y-63509649D02*
X180743104Y-63485840D01*
X180743104Y-63485840D02*
X180766913Y-63462030D01*
X180766913Y-63462030D02*
X180766913Y-63509649D01*
X181243103Y-63009649D02*
X181005008Y-63009649D01*
X181005008Y-63009649D02*
X180981199Y-63247744D01*
X180981199Y-63247744D02*
X181005008Y-63223935D01*
X181005008Y-63223935D02*
X181052627Y-63200125D01*
X181052627Y-63200125D02*
X181171675Y-63200125D01*
X181171675Y-63200125D02*
X181219294Y-63223935D01*
X181219294Y-63223935D02*
X181243103Y-63247744D01*
X181243103Y-63247744D02*
X181266913Y-63295363D01*
X181266913Y-63295363D02*
X181266913Y-63414411D01*
X181266913Y-63414411D02*
X181243103Y-63462030D01*
X181243103Y-63462030D02*
X181219294Y-63485840D01*
X181219294Y-63485840D02*
X181171675Y-63509649D01*
X181171675Y-63509649D02*
X181052627Y-63509649D01*
X181052627Y-63509649D02*
X181005008Y-63485840D01*
X181005008Y-63485840D02*
X180981199Y-63462030D01*
X177959773Y-64559649D02*
X177721678Y-64559649D01*
X177721678Y-64559649D02*
X177721678Y-64059649D01*
X178078821Y-64226316D02*
X178197869Y-64559649D01*
X178316916Y-64226316D02*
X178197869Y-64559649D01*
X178197869Y-64559649D02*
X178150250Y-64678697D01*
X178150250Y-64678697D02*
X178126440Y-64702506D01*
X178126440Y-64702506D02*
X178078821Y-64726316D01*
X178507392Y-64226316D02*
X178507392Y-64559649D01*
X178507392Y-64273935D02*
X178531202Y-64250125D01*
X178531202Y-64250125D02*
X178578821Y-64226316D01*
X178578821Y-64226316D02*
X178650249Y-64226316D01*
X178650249Y-64226316D02*
X178697868Y-64250125D01*
X178697868Y-64250125D02*
X178721678Y-64297744D01*
X178721678Y-64297744D02*
X178721678Y-64559649D01*
X178959773Y-64226316D02*
X178959773Y-64559649D01*
X178959773Y-64273935D02*
X178983583Y-64250125D01*
X178983583Y-64250125D02*
X179031202Y-64226316D01*
X179031202Y-64226316D02*
X179102630Y-64226316D01*
X179102630Y-64226316D02*
X179150249Y-64250125D01*
X179150249Y-64250125D02*
X179174059Y-64297744D01*
X179174059Y-64297744D02*
X179174059Y-64559649D01*
X163379762Y-68902149D02*
X163141667Y-68902149D01*
X163141667Y-68902149D02*
X163117858Y-69140244D01*
X163117858Y-69140244D02*
X163141667Y-69116435D01*
X163141667Y-69116435D02*
X163189286Y-69092625D01*
X163189286Y-69092625D02*
X163308334Y-69092625D01*
X163308334Y-69092625D02*
X163355953Y-69116435D01*
X163355953Y-69116435D02*
X163379762Y-69140244D01*
X163379762Y-69140244D02*
X163403572Y-69187863D01*
X163403572Y-69187863D02*
X163403572Y-69306911D01*
X163403572Y-69306911D02*
X163379762Y-69354530D01*
X163379762Y-69354530D02*
X163355953Y-69378340D01*
X163355953Y-69378340D02*
X163308334Y-69402149D01*
X163308334Y-69402149D02*
X163189286Y-69402149D01*
X163189286Y-69402149D02*
X163141667Y-69378340D01*
X163141667Y-69378340D02*
X163117858Y-69354530D01*
X163546429Y-68902149D02*
X163713095Y-69402149D01*
X163713095Y-69402149D02*
X163879762Y-68902149D01*
X162794047Y-69925959D02*
X162746428Y-69902149D01*
X162746428Y-69902149D02*
X162674999Y-69902149D01*
X162674999Y-69902149D02*
X162603571Y-69925959D01*
X162603571Y-69925959D02*
X162555952Y-69973578D01*
X162555952Y-69973578D02*
X162532142Y-70021197D01*
X162532142Y-70021197D02*
X162508333Y-70116435D01*
X162508333Y-70116435D02*
X162508333Y-70187863D01*
X162508333Y-70187863D02*
X162532142Y-70283101D01*
X162532142Y-70283101D02*
X162555952Y-70330720D01*
X162555952Y-70330720D02*
X162603571Y-70378340D01*
X162603571Y-70378340D02*
X162674999Y-70402149D01*
X162674999Y-70402149D02*
X162722618Y-70402149D01*
X162722618Y-70402149D02*
X162794047Y-70378340D01*
X162794047Y-70378340D02*
X162817856Y-70354530D01*
X162817856Y-70354530D02*
X162817856Y-70187863D01*
X162817856Y-70187863D02*
X162722618Y-70187863D01*
X163032142Y-70402149D02*
X163032142Y-69902149D01*
X163032142Y-69902149D02*
X163317856Y-70402149D01*
X163317856Y-70402149D02*
X163317856Y-69902149D01*
X163555952Y-70402149D02*
X163555952Y-69902149D01*
X163555952Y-69902149D02*
X163675000Y-69902149D01*
X163675000Y-69902149D02*
X163746428Y-69925959D01*
X163746428Y-69925959D02*
X163794047Y-69973578D01*
X163794047Y-69973578D02*
X163817857Y-70021197D01*
X163817857Y-70021197D02*
X163841666Y-70116435D01*
X163841666Y-70116435D02*
X163841666Y-70187863D01*
X163841666Y-70187863D02*
X163817857Y-70283101D01*
X163817857Y-70283101D02*
X163794047Y-70330720D01*
X163794047Y-70330720D02*
X163746428Y-70378340D01*
X163746428Y-70378340D02*
X163675000Y-70402149D01*
X163675000Y-70402149D02*
X163555952Y-70402149D01*
X163291666Y-71802149D02*
X163125000Y-71564054D01*
X163005952Y-71802149D02*
X163005952Y-71302149D01*
X163005952Y-71302149D02*
X163196428Y-71302149D01*
X163196428Y-71302149D02*
X163244047Y-71325959D01*
X163244047Y-71325959D02*
X163267857Y-71349768D01*
X163267857Y-71349768D02*
X163291666Y-71397387D01*
X163291666Y-71397387D02*
X163291666Y-71468816D01*
X163291666Y-71468816D02*
X163267857Y-71516435D01*
X163267857Y-71516435D02*
X163244047Y-71540244D01*
X163244047Y-71540244D02*
X163196428Y-71564054D01*
X163196428Y-71564054D02*
X163005952Y-71564054D01*
X163458333Y-71302149D02*
X163791666Y-71802149D01*
X163791666Y-71302149D02*
X163458333Y-71802149D01*
X163069048Y-72327149D02*
X163354762Y-72327149D01*
X163211905Y-72827149D02*
X163211905Y-72327149D01*
X163473809Y-72327149D02*
X163807142Y-72827149D01*
X163807142Y-72327149D02*
X163473809Y-72827149D01*
D12*
X155504819Y-67716666D02*
X155504819Y-68192856D01*
X155504819Y-68192856D02*
X154504819Y-68192856D01*
X155504819Y-66859523D02*
X155504819Y-67430951D01*
X155504819Y-67145237D02*
X154504819Y-67145237D01*
X154504819Y-67145237D02*
X154647676Y-67240475D01*
X154647676Y-67240475D02*
X154742914Y-67335713D01*
X154742914Y-67335713D02*
X154790533Y-67430951D01*
%TO.C,R4*%
D13*
X158227500Y-69362742D02*
X158227500Y-69837258D01*
X159272500Y-69362742D02*
X159272500Y-69837258D01*
%TO.C,C15*%
X173634420Y-65465000D02*
X173915580Y-65465000D01*
X173634420Y-66485000D02*
X173915580Y-66485000D01*
%TO.C,Q2*%
X174540000Y-73515000D02*
X174590000Y-73515000D01*
X174540000Y-75035000D02*
X174540000Y-73515000D01*
X175540000Y-75035000D02*
X174540000Y-75035000D01*
X175710000Y-73515000D02*
X176490000Y-73515000D01*
X177610000Y-73515000D02*
X177660000Y-73515000D01*
X177660000Y-73515000D02*
X177660000Y-75035000D01*
X177660000Y-75035000D02*
X176660000Y-75035000D01*
X176480000Y-72975000D02*
X176150000Y-73215000D01*
X176150000Y-72735000D01*
X176480000Y-72975000D01*
G36*
X176480000Y-72975000D02*
G01*
X176150000Y-73215000D01*
X176150000Y-72735000D01*
X176480000Y-72975000D01*
G37*
%TO.C,R9*%
X174752500Y-68562258D02*
X174752500Y-68087742D01*
X175797500Y-68562258D02*
X175797500Y-68087742D01*
%TO.C,R5*%
X161262742Y-70027500D02*
X161737258Y-70027500D01*
X161262742Y-71072500D02*
X161737258Y-71072500D01*
%TO.C,C20*%
X156240000Y-72865580D02*
X156240000Y-72584420D01*
X157260000Y-72865580D02*
X157260000Y-72584420D01*
%TO.C,D3*%
X172890000Y-70025000D02*
X172890000Y-72025000D01*
X172890000Y-70025000D02*
X176900000Y-70025000D01*
X172890000Y-72025000D02*
X176900000Y-72025000D01*
%TO.C,C2*%
X159296920Y-63327500D02*
X159578080Y-63327500D01*
X159296920Y-64347500D02*
X159578080Y-64347500D01*
%TO.C,C13*%
X167940000Y-64040580D02*
X167940000Y-63759420D01*
X168960000Y-64040580D02*
X168960000Y-63759420D01*
%TO.C,R8*%
X176377500Y-68062742D02*
X176377500Y-68537258D01*
X177422500Y-68062742D02*
X177422500Y-68537258D01*
%TO.C,U4*%
X159565000Y-65977500D02*
X159615000Y-65977500D01*
X159565000Y-67797500D02*
X159565000Y-65977500D01*
X159615000Y-67797500D02*
X159565000Y-67797500D01*
X162635000Y-65977500D02*
X162685000Y-65977500D01*
X162685000Y-65977500D02*
X162685000Y-67797500D01*
X162685000Y-67797500D02*
X162635000Y-67797500D01*
X159615000Y-68337500D02*
X159285000Y-68577500D01*
X159285000Y-68097500D01*
X159615000Y-68337500D01*
G36*
X159615000Y-68337500D02*
G01*
X159285000Y-68577500D01*
X159285000Y-68097500D01*
X159615000Y-68337500D01*
G37*
D14*
%TO.C,G\u002A\u002A\u002A*%
G36*
X172906971Y-63696078D02*
G01*
X172906971Y-64020678D01*
X172767370Y-64020678D01*
X172627771Y-64020678D01*
X172628968Y-63697489D01*
X172630171Y-63374296D01*
X172768572Y-63372886D01*
X172906971Y-63371476D01*
X172906971Y-63696078D01*
G37*
G36*
X174325878Y-64770796D02*
G01*
X174325878Y-65020837D01*
X174284013Y-65020837D01*
X174242142Y-65020837D01*
X174242142Y-64770796D01*
X174242142Y-64520754D01*
X174284013Y-64520754D01*
X174325878Y-64520754D01*
X174325878Y-64770796D01*
G37*
G36*
X174353792Y-63696159D02*
G01*
X174353792Y-64020678D01*
X174216554Y-64020678D01*
X174079316Y-64020678D01*
X174079316Y-63696159D01*
X174079316Y-63371634D01*
X174216554Y-63371634D01*
X174353792Y-63371634D01*
X174353792Y-63696159D01*
G37*
G36*
X174860876Y-63520594D02*
G01*
X174860876Y-63680198D01*
X174723636Y-63680198D01*
X174586398Y-63680198D01*
X174586398Y-63520594D01*
X174586398Y-63360994D01*
X174723636Y-63360994D01*
X174860876Y-63360994D01*
X174860876Y-63520594D01*
G37*
G36*
X174860876Y-64706958D02*
G01*
X174860876Y-65031474D01*
X174723636Y-65031474D01*
X174586398Y-65031474D01*
X174586398Y-64706958D01*
X174586398Y-64382434D01*
X174723636Y-64382434D01*
X174860876Y-64382434D01*
X174860876Y-64706958D01*
G37*
G36*
X176166971Y-63378206D02*
G01*
X176305368Y-63379614D01*
X176305368Y-63536559D01*
X176305368Y-63693498D01*
X176166971Y-63694907D01*
X176028566Y-63696317D01*
X176028566Y-63536559D01*
X176028566Y-63376796D01*
X176166971Y-63378206D01*
G37*
G36*
X176306569Y-64705626D02*
G01*
X176305368Y-65028817D01*
X176166971Y-65030225D01*
X176028566Y-65031634D01*
X176028566Y-64707036D01*
X176028566Y-64382434D01*
X176168167Y-64382434D01*
X176307771Y-64382434D01*
X176306569Y-64705626D01*
G37*
G36*
X172688318Y-64733558D02*
G01*
X172688318Y-64946357D01*
X172865102Y-64946357D01*
X173041881Y-64946357D01*
X173041881Y-64983594D01*
X173041881Y-65020837D01*
X172823234Y-65020837D01*
X172604579Y-65020837D01*
X172604579Y-64770796D01*
X172604579Y-64520754D01*
X172646450Y-64520754D01*
X172688318Y-64520754D01*
X172688318Y-64733558D01*
G37*
G36*
X176319329Y-61991099D02*
G01*
X176319329Y-62241133D01*
X176278542Y-62242672D01*
X176257060Y-62242990D01*
X176243552Y-62241896D01*
X176236727Y-62239224D01*
X176235463Y-62237355D01*
X176235021Y-62230776D01*
X176234653Y-62214643D01*
X176234372Y-62190057D01*
X176234186Y-62158098D01*
X176234091Y-62119859D01*
X176234093Y-62076426D01*
X176234202Y-62028894D01*
X176234374Y-61985777D01*
X176235590Y-61741052D01*
X176277458Y-61741052D01*
X176319329Y-61741052D01*
X176319329Y-61991099D01*
G37*
G36*
X176037873Y-61775524D02*
G01*
X176037873Y-61812751D01*
X175855272Y-61814145D01*
X175672673Y-61815538D01*
X175672673Y-61876718D01*
X175672673Y-61937896D01*
X175845974Y-61939290D01*
X176019263Y-61940688D01*
X176019263Y-61977864D01*
X176019263Y-62015033D01*
X175844808Y-62015033D01*
X175670348Y-62015033D01*
X175670348Y-62089515D01*
X175670348Y-62163996D01*
X175854112Y-62163996D01*
X176037873Y-62163996D01*
X176037873Y-62203896D01*
X176037873Y-62243794D01*
X175814421Y-62243794D01*
X175760668Y-62243737D01*
X175715580Y-62243553D01*
X175678517Y-62243222D01*
X175648836Y-62242724D01*
X175625896Y-62242046D01*
X175609052Y-62241161D01*
X175597674Y-62240059D01*
X175591112Y-62238710D01*
X175588744Y-62237140D01*
X175588315Y-62230611D01*
X175587960Y-62214524D01*
X175587693Y-62189976D01*
X175587514Y-62158052D01*
X175587428Y-62119845D01*
X175587434Y-62076437D01*
X175587546Y-62028925D01*
X175587724Y-61985777D01*
X175588935Y-61741052D01*
X175813404Y-61739675D01*
X176037873Y-61738292D01*
X176037873Y-61775524D01*
G37*
G36*
X173738093Y-64655084D02*
G01*
X173761420Y-64695487D01*
X173786549Y-64739050D01*
X173812029Y-64783282D01*
X173836450Y-64825700D01*
X173858370Y-64863806D01*
X173873693Y-64890497D01*
X173890944Y-64920513D01*
X173906968Y-64948305D01*
X173920894Y-64972377D01*
X173931852Y-64991231D01*
X173938977Y-65003356D01*
X173940693Y-65006206D01*
X173949686Y-65020837D01*
X173901675Y-65020837D01*
X173853668Y-65020837D01*
X173818926Y-64958325D01*
X173802186Y-64928267D01*
X173783343Y-64894535D01*
X173764876Y-64861565D01*
X173751243Y-64837297D01*
X173736769Y-64811568D01*
X173719126Y-64780188D01*
X173700170Y-64746452D01*
X173681753Y-64713668D01*
X173674470Y-64700699D01*
X173630640Y-64622621D01*
X173583220Y-64706018D01*
X173566516Y-64735390D01*
X173546202Y-64771052D01*
X173523782Y-64810387D01*
X173500740Y-64850787D01*
X173478573Y-64889631D01*
X173469729Y-64905128D01*
X173403652Y-65020837D01*
X173357519Y-65020837D01*
X173336567Y-65020698D01*
X173323408Y-65020045D01*
X173316545Y-65018544D01*
X173314473Y-65015867D01*
X173315682Y-65011670D01*
X173315752Y-65011526D01*
X173319090Y-65005438D01*
X173327101Y-64991338D01*
X173339292Y-64970072D01*
X173355168Y-64942489D01*
X173374244Y-64909433D01*
X173396042Y-64871745D01*
X173420065Y-64830288D01*
X173445824Y-64785887D01*
X173459996Y-64761484D01*
X173599869Y-64520754D01*
X173630181Y-64520754D01*
X173660495Y-64520754D01*
X173738093Y-64655084D01*
G37*
G36*
X173637359Y-61573476D02*
G01*
X173637359Y-61812876D01*
X173995574Y-61812876D01*
X174353792Y-61812876D01*
X174353792Y-61972480D01*
X174353792Y-62132076D01*
X173995574Y-62132076D01*
X173637359Y-62132076D01*
X173637359Y-62477877D01*
X173637359Y-62823680D01*
X174474747Y-62823680D01*
X175312136Y-62823680D01*
X175312136Y-62640133D01*
X175312136Y-62456594D01*
X175451704Y-62456594D01*
X175591266Y-62456594D01*
X175591266Y-62640133D01*
X175591266Y-62823680D01*
X175949480Y-62823680D01*
X176307696Y-62823680D01*
X176307696Y-62983278D01*
X176307696Y-63142876D01*
X175949480Y-63142876D01*
X175591266Y-63142876D01*
X175591266Y-63488675D01*
X175591266Y-63834476D01*
X175949480Y-63834476D01*
X176307696Y-63834476D01*
X176307696Y-63994074D01*
X176307696Y-64153677D01*
X175949480Y-64153677D01*
X175591266Y-64153677D01*
X175591266Y-64592576D01*
X175591266Y-65031474D01*
X175451728Y-65031474D01*
X175312190Y-65031474D01*
X175311002Y-64593906D01*
X175309812Y-64156337D01*
X174948105Y-64154974D01*
X174586398Y-64153610D01*
X174586398Y-63994041D01*
X174586398Y-63834476D01*
X174949267Y-63834476D01*
X175312136Y-63834476D01*
X175312136Y-63488675D01*
X175312136Y-63142876D01*
X174474747Y-63142876D01*
X173637359Y-63142876D01*
X173637359Y-63581775D01*
X173637359Y-64020678D01*
X173497794Y-64020678D01*
X173358228Y-64020678D01*
X173358228Y-63581775D01*
X173358228Y-63142876D01*
X172997689Y-63142876D01*
X172637147Y-63142876D01*
X172637147Y-62983278D01*
X172637147Y-62823680D01*
X172997689Y-62823680D01*
X173358228Y-62823680D01*
X173358228Y-62477877D01*
X173358228Y-62132076D01*
X172995363Y-62132076D01*
X172632494Y-62132076D01*
X172632494Y-61972480D01*
X172632494Y-61812876D01*
X172995363Y-61812876D01*
X173358228Y-61812876D01*
X173358228Y-61573476D01*
X173358228Y-61334076D01*
X173497794Y-61334076D01*
X173637359Y-61334076D01*
X173637359Y-61573476D01*
G37*
G36*
X175055859Y-61782038D02*
G01*
X175085959Y-61857225D01*
X175116518Y-61934542D01*
X175145518Y-62008864D01*
X175153041Y-62028337D01*
X175162069Y-62051293D01*
X175171995Y-62075852D01*
X175177616Y-62089423D01*
X175189886Y-62118593D01*
X175199304Y-62097403D01*
X175203580Y-62087276D01*
X175211130Y-62068861D01*
X175221384Y-62043557D01*
X175233784Y-62012770D01*
X175247763Y-61977906D01*
X175262744Y-61940356D01*
X175267960Y-61927261D01*
X175283125Y-61889198D01*
X175297444Y-61853402D01*
X175310357Y-61821273D01*
X175321292Y-61794183D01*
X175329704Y-61773534D01*
X175335026Y-61760703D01*
X175336051Y-61758345D01*
X175344891Y-61738395D01*
X175384337Y-61738395D01*
X175402186Y-61738681D01*
X175415829Y-61739447D01*
X175423125Y-61740549D01*
X175423793Y-61741031D01*
X175421951Y-61746736D01*
X175417051Y-61759657D01*
X175410000Y-61777422D01*
X175406955Y-61784925D01*
X175396847Y-61809836D01*
X175386096Y-61836530D01*
X175376934Y-61859477D01*
X175376425Y-61860758D01*
X175367970Y-61881949D01*
X175359604Y-61902659D01*
X175353885Y-61916618D01*
X175348858Y-61928876D01*
X175340625Y-61949114D01*
X175329874Y-61975641D01*
X175317285Y-62006760D01*
X175303536Y-62040791D01*
X175289313Y-62076040D01*
X175275301Y-62110812D01*
X175262179Y-62143425D01*
X175250622Y-62172181D01*
X175241324Y-62195396D01*
X175234961Y-62211374D01*
X175234236Y-62213203D01*
X175222173Y-62243794D01*
X175191016Y-62243794D01*
X175159859Y-62243794D01*
X175144603Y-62205227D01*
X175137411Y-62187026D01*
X175127450Y-62161761D01*
X175115753Y-62132080D01*
X175103361Y-62100625D01*
X175095843Y-62081536D01*
X175077291Y-62034435D01*
X175062041Y-61995817D01*
X175049605Y-61964453D01*
X175039481Y-61939098D01*
X175031191Y-61918526D01*
X175024231Y-61901502D01*
X175019048Y-61889026D01*
X175007418Y-61861229D01*
X174933306Y-62045859D01*
X174916593Y-62087391D01*
X174900967Y-62126001D01*
X174886884Y-62160595D01*
X174874797Y-62190075D01*
X174865153Y-62213335D01*
X174858406Y-62229282D01*
X174855004Y-62236813D01*
X174854810Y-62237140D01*
X174847463Y-62241146D01*
X174833117Y-62243437D01*
X174823018Y-62243794D01*
X174807376Y-62243376D01*
X174798001Y-62241161D01*
X174791864Y-62235727D01*
X174786389Y-62226504D01*
X174780409Y-62214435D01*
X174777284Y-62206469D01*
X174777153Y-62205640D01*
X174775276Y-62199688D01*
X174770180Y-62186151D01*
X174762641Y-62167033D01*
X174753484Y-62144453D01*
X174743235Y-62119368D01*
X174730409Y-62087793D01*
X174716309Y-62052920D01*
X174702213Y-62017941D01*
X174694639Y-61999078D01*
X174679834Y-61962191D01*
X174663058Y-61920441D01*
X174646034Y-61878114D01*
X174630487Y-61839509D01*
X174625248Y-61826507D01*
X174614174Y-61798961D01*
X174604594Y-61774961D01*
X174597140Y-61756091D01*
X174592428Y-61743936D01*
X174591051Y-61740059D01*
X174595349Y-61739310D01*
X174606821Y-61738735D01*
X174623344Y-61738425D01*
X174630914Y-61738395D01*
X174670771Y-61738395D01*
X174691754Y-61790267D01*
X174704729Y-61822353D01*
X174714806Y-61847320D01*
X174722999Y-61867703D01*
X174730321Y-61886029D01*
X174737786Y-61904839D01*
X174746408Y-61926667D01*
X174753974Y-61945877D01*
X174764828Y-61973369D01*
X174775850Y-62001160D01*
X174785643Y-62025754D01*
X174792008Y-62041633D01*
X174800249Y-62062449D01*
X174807952Y-62082514D01*
X174812980Y-62096165D01*
X174819170Y-62110780D01*
X174824285Y-62115178D01*
X174829100Y-62109563D01*
X174832152Y-62101489D01*
X174835155Y-62093345D01*
X174841574Y-62076749D01*
X174850925Y-62052900D01*
X174862733Y-62023006D01*
X174876523Y-61988276D01*
X174891818Y-61949916D01*
X174906205Y-61913959D01*
X174975510Y-61741052D01*
X175006785Y-61739477D01*
X175038060Y-61737893D01*
X175055859Y-61782038D01*
G37*
%TO.C,C6*%
D13*
X154165000Y-73061252D02*
X154165000Y-72538748D01*
X155635000Y-73061252D02*
X155635000Y-72538748D01*
%TO.C,C1*%
X158115000Y-66615580D02*
X158115000Y-66334420D01*
X159135000Y-66615580D02*
X159135000Y-66334420D01*
%TO.C,J3*%
X164590000Y-74040000D02*
X164590000Y-68110000D01*
X167460000Y-66840000D02*
X169060000Y-66840000D01*
X167460000Y-75310000D02*
X169060000Y-75310000D01*
X169060000Y-66840000D02*
X169060000Y-68640000D01*
X169060000Y-73510000D02*
X170000000Y-73510000D01*
X169060000Y-75310000D02*
X169060000Y-73510000D01*
%TO.C,C14*%
X170915000Y-65290580D02*
X170915000Y-65009420D01*
X171935000Y-65290580D02*
X171935000Y-65009420D01*
%TO.C,L1*%
X152440000Y-64940000D02*
X152690000Y-64940000D01*
X152440000Y-70160000D02*
X152440000Y-64940000D01*
X152690000Y-70160000D02*
X152440000Y-70160000D01*
X157410000Y-64940000D02*
X157660000Y-64940000D01*
X157660000Y-64940000D02*
X157660000Y-70160000D01*
X157660000Y-70160000D02*
X157410000Y-70160000D01*
%TO.C,R1*%
X163177500Y-64487742D02*
X163177500Y-64962258D01*
X164222500Y-64487742D02*
X164222500Y-64962258D01*
%TO.C,C3*%
X164690000Y-62663748D02*
X164690000Y-64086252D01*
X167410000Y-62663748D02*
X167410000Y-64086252D01*
D14*
%TO.C,G\u002A\u002A\u002A*%
G36*
X160096940Y-75272287D02*
G01*
X160107054Y-75278320D01*
X160122488Y-75291108D01*
X160144601Y-75312050D01*
X160174744Y-75342542D01*
X160214275Y-75383980D01*
X160264556Y-75437767D01*
X160326935Y-75505289D01*
X160402762Y-75587942D01*
X160478807Y-75671134D01*
X160528951Y-75725933D01*
X160588344Y-75790660D01*
X160650023Y-75857727D01*
X160707030Y-75919566D01*
X160714357Y-75927500D01*
X160841441Y-76065082D01*
X160507967Y-76071042D01*
X160174493Y-76077006D01*
X160201435Y-76106812D01*
X160215600Y-76122293D01*
X160242689Y-76151728D01*
X160280154Y-76192351D01*
X160325432Y-76241412D01*
X160375973Y-76296127D01*
X160429222Y-76353747D01*
X160482617Y-76411501D01*
X160533610Y-76466628D01*
X160579644Y-76516359D01*
X160618159Y-76557939D01*
X160646608Y-76588593D01*
X160662428Y-76605561D01*
X160664620Y-76607871D01*
X160698469Y-76643563D01*
X160724640Y-76673674D01*
X160740102Y-76694473D01*
X160741819Y-76702244D01*
X160741635Y-76702240D01*
X160726729Y-76696735D01*
X160695984Y-76682578D01*
X160654653Y-76662263D01*
X160629004Y-76649195D01*
X160594837Y-76631814D01*
X160543808Y-76606179D01*
X160477972Y-76573303D01*
X160399401Y-76534203D01*
X160310149Y-76489910D01*
X160212290Y-76441419D01*
X160107884Y-76389766D01*
X159998995Y-76335959D01*
X159887691Y-76281021D01*
X159776040Y-76225970D01*
X159666093Y-76171817D01*
X159559927Y-76119591D01*
X159459606Y-76070299D01*
X159367188Y-76024966D01*
X159284740Y-75984603D01*
X159214335Y-75950229D01*
X159158024Y-75922871D01*
X159117884Y-75903534D01*
X159095967Y-75893239D01*
X159092464Y-75891802D01*
X159078071Y-75885061D01*
X159061231Y-75873580D01*
X159056482Y-75868499D01*
X159058715Y-75864489D01*
X159070180Y-75861446D01*
X159093151Y-75859246D01*
X159129885Y-75857779D01*
X159182638Y-75856928D01*
X159253667Y-75856588D01*
X159345241Y-75856640D01*
X159395109Y-75856761D01*
X159484515Y-75856711D01*
X159565561Y-75856077D01*
X159635354Y-75854916D01*
X159691014Y-75853317D01*
X159729662Y-75851336D01*
X159748396Y-75849055D01*
X159749709Y-75848157D01*
X159740865Y-75835515D01*
X159719706Y-75809983D01*
X159690106Y-75776187D01*
X159676441Y-75761021D01*
X159646863Y-75728464D01*
X159604878Y-75682267D01*
X159554117Y-75626426D01*
X159498219Y-75564940D01*
X159440813Y-75501810D01*
X159427132Y-75486764D01*
X159248220Y-75290019D01*
X159661375Y-75283548D01*
X159758809Y-75281871D01*
X159848988Y-75280043D01*
X159929058Y-75278142D01*
X159996158Y-75276246D01*
X160047438Y-75274432D01*
X160080039Y-75272784D01*
X160090786Y-75271618D01*
X160096940Y-75272287D01*
G37*
G36*
X159076927Y-73447851D02*
G01*
X159235478Y-73448125D01*
X159385434Y-73448569D01*
X159525200Y-73449165D01*
X159653180Y-73449905D01*
X159767784Y-73450771D01*
X159867425Y-73451753D01*
X159950502Y-73452839D01*
X160015430Y-73454016D01*
X160060612Y-73455270D01*
X160084456Y-73456588D01*
X160087888Y-73457371D01*
X160095138Y-73464726D01*
X160120037Y-73473892D01*
X160148230Y-73480885D01*
X160190725Y-73492963D01*
X160244251Y-73512565D01*
X160298826Y-73535975D01*
X160311462Y-73541981D01*
X160435797Y-73615098D01*
X160544053Y-73705138D01*
X160634980Y-73810847D01*
X160707315Y-73930962D01*
X160712947Y-73942606D01*
X160750869Y-74029352D01*
X160776492Y-74107053D01*
X160791757Y-74184555D01*
X160798612Y-74270699D01*
X160799473Y-74336096D01*
X160798289Y-74404459D01*
X160794800Y-74456886D01*
X160787963Y-74501263D01*
X160776719Y-74545453D01*
X160767606Y-74574575D01*
X160712289Y-74708924D01*
X160638841Y-74831334D01*
X160549280Y-74939517D01*
X160445607Y-75031169D01*
X160329823Y-75104008D01*
X160286645Y-75124699D01*
X160241370Y-75142167D01*
X160184465Y-75160604D01*
X160127673Y-75176231D01*
X160123585Y-75177229D01*
X160100769Y-75182365D01*
X160077328Y-75186693D01*
X160051069Y-75190264D01*
X160019790Y-75193172D01*
X159981285Y-75195471D01*
X159933361Y-75197231D01*
X159873810Y-75198532D01*
X159800448Y-75199434D01*
X159711062Y-75200015D01*
X159603455Y-75200338D01*
X159475436Y-75200478D01*
X159394143Y-75200503D01*
X158761448Y-75200587D01*
X158694398Y-75442052D01*
X158669740Y-75530974D01*
X158641055Y-75634553D01*
X158610658Y-75744458D01*
X158580850Y-75852344D01*
X158553937Y-75949886D01*
X158552589Y-75954785D01*
X158477825Y-76226052D01*
X158018193Y-76226017D01*
X157558559Y-76225982D01*
X157628733Y-76192921D01*
X157698903Y-76159863D01*
X157769086Y-75903801D01*
X157795791Y-75806486D01*
X157825240Y-75699373D01*
X157856661Y-75585261D01*
X157889277Y-75466956D01*
X157922315Y-75347257D01*
X157954996Y-75228959D01*
X157986554Y-75114872D01*
X158016213Y-75007784D01*
X158043189Y-74910502D01*
X158066714Y-74825835D01*
X158086015Y-74756571D01*
X158100318Y-74705521D01*
X158107002Y-74681888D01*
X158134227Y-74586503D01*
X159068607Y-74580534D01*
X160002985Y-74574575D01*
X160058590Y-74541889D01*
X160114828Y-74496312D01*
X160154196Y-74438457D01*
X160176122Y-74372917D01*
X160180023Y-74304285D01*
X160165335Y-74237156D01*
X160131469Y-74176134D01*
X160107683Y-74149827D01*
X160086534Y-74130227D01*
X160066606Y-74114030D01*
X160045468Y-74100909D01*
X160020717Y-74090535D01*
X159989928Y-74082596D01*
X159950671Y-74076760D01*
X159900532Y-74072703D01*
X159837100Y-74070105D01*
X159757948Y-74068638D01*
X159660655Y-74067979D01*
X159542805Y-74067809D01*
X159494983Y-74067804D01*
X159374111Y-74068085D01*
X159269343Y-74068907D01*
X159182033Y-74070238D01*
X159113530Y-74072045D01*
X159065200Y-74074292D01*
X159038389Y-74076951D01*
X159033169Y-74079080D01*
X159042121Y-74090891D01*
X159064839Y-74117381D01*
X159098847Y-74155771D01*
X159141672Y-74203272D01*
X159190835Y-74257101D01*
X159204077Y-74271493D01*
X159255362Y-74327389D01*
X159301813Y-74378490D01*
X159340725Y-74421788D01*
X159369406Y-74454267D01*
X159385154Y-74472926D01*
X159386594Y-74474847D01*
X159389869Y-74480595D01*
X159389372Y-74485255D01*
X159382925Y-74488943D01*
X159368346Y-74491775D01*
X159343464Y-74493853D01*
X159306095Y-74495307D01*
X159254062Y-74496241D01*
X159185195Y-74496769D01*
X159097307Y-74497007D01*
X158988231Y-74497067D01*
X158961252Y-74497067D01*
X158520324Y-74497067D01*
X158323052Y-74279455D01*
X158260362Y-74209663D01*
X158207353Y-74148824D01*
X158160617Y-74092479D01*
X158116740Y-74036174D01*
X158072304Y-73975453D01*
X158023913Y-73905860D01*
X157968142Y-73822944D01*
X157933344Y-73770418D01*
X157884130Y-73695679D01*
X157839158Y-73626970D01*
X157800130Y-73566915D01*
X157768747Y-73518158D01*
X157746716Y-73483329D01*
X157735729Y-73465063D01*
X157734903Y-73463371D01*
X157737443Y-73460743D01*
X157748023Y-73458418D01*
X157767883Y-73456368D01*
X157798241Y-73454586D01*
X157840350Y-73453053D01*
X157895424Y-73451750D01*
X157964716Y-73450668D01*
X158049445Y-73449786D01*
X158150848Y-73449081D01*
X158270172Y-73448551D01*
X158408632Y-73448165D01*
X158567468Y-73447915D01*
X158747921Y-73447786D01*
X158911366Y-73447756D01*
X159076927Y-73447851D01*
G37*
%TD*%
M02*
