%TF.GenerationSoftware,KiCad,Pcbnew,10.0.5*%
%TF.CreationDate,2026-09-30T20:25:46+08:00*%
%TF.ProjectId,TTLtoCANforTOF,54544c74-6f43-4414-9e66-6f72544f462e,rev?*%
%TF.SameCoordinates,Original*%
%TF.FileFunction,Legend,Top*%
%TF.FilePolarity,Positive*%
%FSLAX46Y46*%
G04 Gerber Fmt 4.6, Leading zero omitted, Abs format (unit mm)*
G04 Created by KiCad (PCBNEW 10.0.5) date 2026-09-30 20:25:46*
%MOMM*%
%LPD*%
G01*
G04 APERTURE LIST*
%ADD10C,0.150000*%
%ADD11C,0.120000*%
G04 APERTURE END LIST*
D10*
X122548333Y-52610671D02*
X122215000Y-52134480D01*
X121976905Y-52610671D02*
X121976905Y-51610671D01*
X121976905Y-51610671D02*
X122357857Y-51610671D01*
X122357857Y-51610671D02*
X122453095Y-51658290D01*
X122453095Y-51658290D02*
X122500714Y-51705909D01*
X122500714Y-51705909D02*
X122548333Y-51801147D01*
X122548333Y-51801147D02*
X122548333Y-51944004D01*
X122548333Y-51944004D02*
X122500714Y-52039242D01*
X122500714Y-52039242D02*
X122453095Y-52086861D01*
X122453095Y-52086861D02*
X122357857Y-52134480D01*
X122357857Y-52134480D02*
X121976905Y-52134480D01*
X123024524Y-52610671D02*
X123215000Y-52610671D01*
X123215000Y-52610671D02*
X123310238Y-52563052D01*
X123310238Y-52563052D02*
X123357857Y-52515432D01*
X123357857Y-52515432D02*
X123453095Y-52372575D01*
X123453095Y-52372575D02*
X123500714Y-52182099D01*
X123500714Y-52182099D02*
X123500714Y-51801147D01*
X123500714Y-51801147D02*
X123453095Y-51705909D01*
X123453095Y-51705909D02*
X123405476Y-51658290D01*
X123405476Y-51658290D02*
X123310238Y-51610671D01*
X123310238Y-51610671D02*
X123119762Y-51610671D01*
X123119762Y-51610671D02*
X123024524Y-51658290D01*
X123024524Y-51658290D02*
X122976905Y-51705909D01*
X122976905Y-51705909D02*
X122929286Y-51801147D01*
X122929286Y-51801147D02*
X122929286Y-52039242D01*
X122929286Y-52039242D02*
X122976905Y-52134480D01*
X122976905Y-52134480D02*
X123024524Y-52182099D01*
X123024524Y-52182099D02*
X123119762Y-52229718D01*
X123119762Y-52229718D02*
X123310238Y-52229718D01*
X123310238Y-52229718D02*
X123405476Y-52182099D01*
X123405476Y-52182099D02*
X123453095Y-52134480D01*
X123453095Y-52134480D02*
X123500714Y-52039242D01*
X115729819Y-52291666D02*
X115253628Y-52624999D01*
X115729819Y-52863094D02*
X114729819Y-52863094D01*
X114729819Y-52863094D02*
X114729819Y-52482142D01*
X114729819Y-52482142D02*
X114777438Y-52386904D01*
X114777438Y-52386904D02*
X114825057Y-52339285D01*
X114825057Y-52339285D02*
X114920295Y-52291666D01*
X114920295Y-52291666D02*
X115063152Y-52291666D01*
X115063152Y-52291666D02*
X115158390Y-52339285D01*
X115158390Y-52339285D02*
X115206009Y-52386904D01*
X115206009Y-52386904D02*
X115253628Y-52482142D01*
X115253628Y-52482142D02*
X115253628Y-52863094D01*
X115158390Y-51720237D02*
X115110771Y-51815475D01*
X115110771Y-51815475D02*
X115063152Y-51863094D01*
X115063152Y-51863094D02*
X114967914Y-51910713D01*
X114967914Y-51910713D02*
X114920295Y-51910713D01*
X114920295Y-51910713D02*
X114825057Y-51863094D01*
X114825057Y-51863094D02*
X114777438Y-51815475D01*
X114777438Y-51815475D02*
X114729819Y-51720237D01*
X114729819Y-51720237D02*
X114729819Y-51529761D01*
X114729819Y-51529761D02*
X114777438Y-51434523D01*
X114777438Y-51434523D02*
X114825057Y-51386904D01*
X114825057Y-51386904D02*
X114920295Y-51339285D01*
X114920295Y-51339285D02*
X114967914Y-51339285D01*
X114967914Y-51339285D02*
X115063152Y-51386904D01*
X115063152Y-51386904D02*
X115110771Y-51434523D01*
X115110771Y-51434523D02*
X115158390Y-51529761D01*
X115158390Y-51529761D02*
X115158390Y-51720237D01*
X115158390Y-51720237D02*
X115206009Y-51815475D01*
X115206009Y-51815475D02*
X115253628Y-51863094D01*
X115253628Y-51863094D02*
X115348866Y-51910713D01*
X115348866Y-51910713D02*
X115539342Y-51910713D01*
X115539342Y-51910713D02*
X115634580Y-51863094D01*
X115634580Y-51863094D02*
X115682200Y-51815475D01*
X115682200Y-51815475D02*
X115729819Y-51720237D01*
X115729819Y-51720237D02*
X115729819Y-51529761D01*
X115729819Y-51529761D02*
X115682200Y-51434523D01*
X115682200Y-51434523D02*
X115634580Y-51386904D01*
X115634580Y-51386904D02*
X115539342Y-51339285D01*
X115539342Y-51339285D02*
X115348866Y-51339285D01*
X115348866Y-51339285D02*
X115253628Y-51386904D01*
X115253628Y-51386904D02*
X115206009Y-51434523D01*
X115206009Y-51434523D02*
X115158390Y-51529761D01*
X114124761Y-46412557D02*
X114029523Y-46364938D01*
X114029523Y-46364938D02*
X113934285Y-46269700D01*
X113934285Y-46269700D02*
X113791428Y-46126842D01*
X113791428Y-46126842D02*
X113696190Y-46079223D01*
X113696190Y-46079223D02*
X113600952Y-46079223D01*
X113648571Y-46317319D02*
X113553333Y-46269700D01*
X113553333Y-46269700D02*
X113458095Y-46174461D01*
X113458095Y-46174461D02*
X113410476Y-45983985D01*
X113410476Y-45983985D02*
X113410476Y-45650652D01*
X113410476Y-45650652D02*
X113458095Y-45460176D01*
X113458095Y-45460176D02*
X113553333Y-45364938D01*
X113553333Y-45364938D02*
X113648571Y-45317319D01*
X113648571Y-45317319D02*
X113839047Y-45317319D01*
X113839047Y-45317319D02*
X113934285Y-45364938D01*
X113934285Y-45364938D02*
X114029523Y-45460176D01*
X114029523Y-45460176D02*
X114077142Y-45650652D01*
X114077142Y-45650652D02*
X114077142Y-45983985D01*
X114077142Y-45983985D02*
X114029523Y-46174461D01*
X114029523Y-46174461D02*
X113934285Y-46269700D01*
X113934285Y-46269700D02*
X113839047Y-46317319D01*
X113839047Y-46317319D02*
X113648571Y-46317319D01*
X114410476Y-45317319D02*
X115029523Y-45317319D01*
X115029523Y-45317319D02*
X114696190Y-45698271D01*
X114696190Y-45698271D02*
X114839047Y-45698271D01*
X114839047Y-45698271D02*
X114934285Y-45745890D01*
X114934285Y-45745890D02*
X114981904Y-45793509D01*
X114981904Y-45793509D02*
X115029523Y-45888747D01*
X115029523Y-45888747D02*
X115029523Y-46126842D01*
X115029523Y-46126842D02*
X114981904Y-46222080D01*
X114981904Y-46222080D02*
X114934285Y-46269700D01*
X114934285Y-46269700D02*
X114839047Y-46317319D01*
X114839047Y-46317319D02*
X114553333Y-46317319D01*
X114553333Y-46317319D02*
X114458095Y-46269700D01*
X114458095Y-46269700D02*
X114410476Y-46222080D01*
X111004761Y-51950057D02*
X110909523Y-51902438D01*
X110909523Y-51902438D02*
X110814285Y-51807200D01*
X110814285Y-51807200D02*
X110671428Y-51664342D01*
X110671428Y-51664342D02*
X110576190Y-51616723D01*
X110576190Y-51616723D02*
X110480952Y-51616723D01*
X110528571Y-51854819D02*
X110433333Y-51807200D01*
X110433333Y-51807200D02*
X110338095Y-51711961D01*
X110338095Y-51711961D02*
X110290476Y-51521485D01*
X110290476Y-51521485D02*
X110290476Y-51188152D01*
X110290476Y-51188152D02*
X110338095Y-50997676D01*
X110338095Y-50997676D02*
X110433333Y-50902438D01*
X110433333Y-50902438D02*
X110528571Y-50854819D01*
X110528571Y-50854819D02*
X110719047Y-50854819D01*
X110719047Y-50854819D02*
X110814285Y-50902438D01*
X110814285Y-50902438D02*
X110909523Y-50997676D01*
X110909523Y-50997676D02*
X110957142Y-51188152D01*
X110957142Y-51188152D02*
X110957142Y-51521485D01*
X110957142Y-51521485D02*
X110909523Y-51711961D01*
X110909523Y-51711961D02*
X110814285Y-51807200D01*
X110814285Y-51807200D02*
X110719047Y-51854819D01*
X110719047Y-51854819D02*
X110528571Y-51854819D01*
X111338095Y-50950057D02*
X111385714Y-50902438D01*
X111385714Y-50902438D02*
X111480952Y-50854819D01*
X111480952Y-50854819D02*
X111719047Y-50854819D01*
X111719047Y-50854819D02*
X111814285Y-50902438D01*
X111814285Y-50902438D02*
X111861904Y-50950057D01*
X111861904Y-50950057D02*
X111909523Y-51045295D01*
X111909523Y-51045295D02*
X111909523Y-51140533D01*
X111909523Y-51140533D02*
X111861904Y-51283390D01*
X111861904Y-51283390D02*
X111290476Y-51854819D01*
X111290476Y-51854819D02*
X111909523Y-51854819D01*
X114154819Y-52867857D02*
X113678628Y-53201190D01*
X114154819Y-53439285D02*
X113154819Y-53439285D01*
X113154819Y-53439285D02*
X113154819Y-53058333D01*
X113154819Y-53058333D02*
X113202438Y-52963095D01*
X113202438Y-52963095D02*
X113250057Y-52915476D01*
X113250057Y-52915476D02*
X113345295Y-52867857D01*
X113345295Y-52867857D02*
X113488152Y-52867857D01*
X113488152Y-52867857D02*
X113583390Y-52915476D01*
X113583390Y-52915476D02*
X113631009Y-52963095D01*
X113631009Y-52963095D02*
X113678628Y-53058333D01*
X113678628Y-53058333D02*
X113678628Y-53439285D01*
X114154819Y-51915476D02*
X114154819Y-52486904D01*
X114154819Y-52201190D02*
X113154819Y-52201190D01*
X113154819Y-52201190D02*
X113297676Y-52296428D01*
X113297676Y-52296428D02*
X113392914Y-52391666D01*
X113392914Y-52391666D02*
X113440533Y-52486904D01*
X113154819Y-51296428D02*
X113154819Y-51201190D01*
X113154819Y-51201190D02*
X113202438Y-51105952D01*
X113202438Y-51105952D02*
X113250057Y-51058333D01*
X113250057Y-51058333D02*
X113345295Y-51010714D01*
X113345295Y-51010714D02*
X113535771Y-50963095D01*
X113535771Y-50963095D02*
X113773866Y-50963095D01*
X113773866Y-50963095D02*
X113964342Y-51010714D01*
X113964342Y-51010714D02*
X114059580Y-51058333D01*
X114059580Y-51058333D02*
X114107200Y-51105952D01*
X114107200Y-51105952D02*
X114154819Y-51201190D01*
X114154819Y-51201190D02*
X114154819Y-51296428D01*
X114154819Y-51296428D02*
X114107200Y-51391666D01*
X114107200Y-51391666D02*
X114059580Y-51439285D01*
X114059580Y-51439285D02*
X113964342Y-51486904D01*
X113964342Y-51486904D02*
X113773866Y-51534523D01*
X113773866Y-51534523D02*
X113535771Y-51534523D01*
X113535771Y-51534523D02*
X113345295Y-51486904D01*
X113345295Y-51486904D02*
X113250057Y-51439285D01*
X113250057Y-51439285D02*
X113202438Y-51391666D01*
X113202438Y-51391666D02*
X113154819Y-51296428D01*
X114004819Y-55863094D02*
X113004819Y-55863094D01*
X113004819Y-55863094D02*
X113004819Y-55624999D01*
X113004819Y-55624999D02*
X113052438Y-55482142D01*
X113052438Y-55482142D02*
X113147676Y-55386904D01*
X113147676Y-55386904D02*
X113242914Y-55339285D01*
X113242914Y-55339285D02*
X113433390Y-55291666D01*
X113433390Y-55291666D02*
X113576247Y-55291666D01*
X113576247Y-55291666D02*
X113766723Y-55339285D01*
X113766723Y-55339285D02*
X113861961Y-55386904D01*
X113861961Y-55386904D02*
X113957200Y-55482142D01*
X113957200Y-55482142D02*
X114004819Y-55624999D01*
X114004819Y-55624999D02*
X114004819Y-55863094D01*
X113338152Y-54434523D02*
X114004819Y-54434523D01*
X112957200Y-54672618D02*
X113671485Y-54910713D01*
X113671485Y-54910713D02*
X113671485Y-54291666D01*
X115634580Y-55416666D02*
X115682200Y-55464285D01*
X115682200Y-55464285D02*
X115729819Y-55607142D01*
X115729819Y-55607142D02*
X115729819Y-55702380D01*
X115729819Y-55702380D02*
X115682200Y-55845237D01*
X115682200Y-55845237D02*
X115586961Y-55940475D01*
X115586961Y-55940475D02*
X115491723Y-55988094D01*
X115491723Y-55988094D02*
X115301247Y-56035713D01*
X115301247Y-56035713D02*
X115158390Y-56035713D01*
X115158390Y-56035713D02*
X114967914Y-55988094D01*
X114967914Y-55988094D02*
X114872676Y-55940475D01*
X114872676Y-55940475D02*
X114777438Y-55845237D01*
X114777438Y-55845237D02*
X114729819Y-55702380D01*
X114729819Y-55702380D02*
X114729819Y-55607142D01*
X114729819Y-55607142D02*
X114777438Y-55464285D01*
X114777438Y-55464285D02*
X114825057Y-55416666D01*
X114729819Y-54511904D02*
X114729819Y-54988094D01*
X114729819Y-54988094D02*
X115206009Y-55035713D01*
X115206009Y-55035713D02*
X115158390Y-54988094D01*
X115158390Y-54988094D02*
X115110771Y-54892856D01*
X115110771Y-54892856D02*
X115110771Y-54654761D01*
X115110771Y-54654761D02*
X115158390Y-54559523D01*
X115158390Y-54559523D02*
X115206009Y-54511904D01*
X115206009Y-54511904D02*
X115301247Y-54464285D01*
X115301247Y-54464285D02*
X115539342Y-54464285D01*
X115539342Y-54464285D02*
X115634580Y-54511904D01*
X115634580Y-54511904D02*
X115682200Y-54559523D01*
X115682200Y-54559523D02*
X115729819Y-54654761D01*
X115729819Y-54654761D02*
X115729819Y-54892856D01*
X115729819Y-54892856D02*
X115682200Y-54988094D01*
X115682200Y-54988094D02*
X115634580Y-55035713D01*
X110029819Y-49242857D02*
X109553628Y-49576190D01*
X110029819Y-49814285D02*
X109029819Y-49814285D01*
X109029819Y-49814285D02*
X109029819Y-49433333D01*
X109029819Y-49433333D02*
X109077438Y-49338095D01*
X109077438Y-49338095D02*
X109125057Y-49290476D01*
X109125057Y-49290476D02*
X109220295Y-49242857D01*
X109220295Y-49242857D02*
X109363152Y-49242857D01*
X109363152Y-49242857D02*
X109458390Y-49290476D01*
X109458390Y-49290476D02*
X109506009Y-49338095D01*
X109506009Y-49338095D02*
X109553628Y-49433333D01*
X109553628Y-49433333D02*
X109553628Y-49814285D01*
X110029819Y-48290476D02*
X110029819Y-48861904D01*
X110029819Y-48576190D02*
X109029819Y-48576190D01*
X109029819Y-48576190D02*
X109172676Y-48671428D01*
X109172676Y-48671428D02*
X109267914Y-48766666D01*
X109267914Y-48766666D02*
X109315533Y-48861904D01*
X109029819Y-47957142D02*
X109029819Y-47338095D01*
X109029819Y-47338095D02*
X109410771Y-47671428D01*
X109410771Y-47671428D02*
X109410771Y-47528571D01*
X109410771Y-47528571D02*
X109458390Y-47433333D01*
X109458390Y-47433333D02*
X109506009Y-47385714D01*
X109506009Y-47385714D02*
X109601247Y-47338095D01*
X109601247Y-47338095D02*
X109839342Y-47338095D01*
X109839342Y-47338095D02*
X109934580Y-47385714D01*
X109934580Y-47385714D02*
X109982200Y-47433333D01*
X109982200Y-47433333D02*
X110029819Y-47528571D01*
X110029819Y-47528571D02*
X110029819Y-47814285D01*
X110029819Y-47814285D02*
X109982200Y-47909523D01*
X109982200Y-47909523D02*
X109934580Y-47957142D01*
X109207142Y-46584580D02*
X109159523Y-46632200D01*
X109159523Y-46632200D02*
X109016666Y-46679819D01*
X109016666Y-46679819D02*
X108921428Y-46679819D01*
X108921428Y-46679819D02*
X108778571Y-46632200D01*
X108778571Y-46632200D02*
X108683333Y-46536961D01*
X108683333Y-46536961D02*
X108635714Y-46441723D01*
X108635714Y-46441723D02*
X108588095Y-46251247D01*
X108588095Y-46251247D02*
X108588095Y-46108390D01*
X108588095Y-46108390D02*
X108635714Y-45917914D01*
X108635714Y-45917914D02*
X108683333Y-45822676D01*
X108683333Y-45822676D02*
X108778571Y-45727438D01*
X108778571Y-45727438D02*
X108921428Y-45679819D01*
X108921428Y-45679819D02*
X109016666Y-45679819D01*
X109016666Y-45679819D02*
X109159523Y-45727438D01*
X109159523Y-45727438D02*
X109207142Y-45775057D01*
X109588095Y-45775057D02*
X109635714Y-45727438D01*
X109635714Y-45727438D02*
X109730952Y-45679819D01*
X109730952Y-45679819D02*
X109969047Y-45679819D01*
X109969047Y-45679819D02*
X110064285Y-45727438D01*
X110064285Y-45727438D02*
X110111904Y-45775057D01*
X110111904Y-45775057D02*
X110159523Y-45870295D01*
X110159523Y-45870295D02*
X110159523Y-45965533D01*
X110159523Y-45965533D02*
X110111904Y-46108390D01*
X110111904Y-46108390D02*
X109540476Y-46679819D01*
X109540476Y-46679819D02*
X110159523Y-46679819D01*
X111016666Y-46013152D02*
X111016666Y-46679819D01*
X110778571Y-45632200D02*
X110540476Y-46346485D01*
X110540476Y-46346485D02*
X111159523Y-46346485D01*
X119953571Y-48139700D02*
X121096429Y-48139700D01*
X120525000Y-48711128D02*
X120525000Y-47568271D01*
X125028571Y-48139700D02*
X126171429Y-48139700D01*
X124654761Y-56450058D02*
X124559523Y-56402439D01*
X124559523Y-56402439D02*
X124464285Y-56307201D01*
X124464285Y-56307201D02*
X124321428Y-56164343D01*
X124321428Y-56164343D02*
X124226190Y-56116724D01*
X124226190Y-56116724D02*
X124130952Y-56116724D01*
X124178571Y-56354820D02*
X124083333Y-56307201D01*
X124083333Y-56307201D02*
X123988095Y-56211962D01*
X123988095Y-56211962D02*
X123940476Y-56021486D01*
X123940476Y-56021486D02*
X123940476Y-55688153D01*
X123940476Y-55688153D02*
X123988095Y-55497677D01*
X123988095Y-55497677D02*
X124083333Y-55402439D01*
X124083333Y-55402439D02*
X124178571Y-55354820D01*
X124178571Y-55354820D02*
X124369047Y-55354820D01*
X124369047Y-55354820D02*
X124464285Y-55402439D01*
X124464285Y-55402439D02*
X124559523Y-55497677D01*
X124559523Y-55497677D02*
X124607142Y-55688153D01*
X124607142Y-55688153D02*
X124607142Y-56021486D01*
X124607142Y-56021486D02*
X124559523Y-56211962D01*
X124559523Y-56211962D02*
X124464285Y-56307201D01*
X124464285Y-56307201D02*
X124369047Y-56354820D01*
X124369047Y-56354820D02*
X124178571Y-56354820D01*
X125559523Y-56354820D02*
X124988095Y-56354820D01*
X125273809Y-56354820D02*
X125273809Y-55354820D01*
X125273809Y-55354820D02*
X125178571Y-55497677D01*
X125178571Y-55497677D02*
X125083333Y-55592915D01*
X125083333Y-55592915D02*
X124988095Y-55640534D01*
X108909580Y-52367857D02*
X108957200Y-52415476D01*
X108957200Y-52415476D02*
X109004819Y-52558333D01*
X109004819Y-52558333D02*
X109004819Y-52653571D01*
X109004819Y-52653571D02*
X108957200Y-52796428D01*
X108957200Y-52796428D02*
X108861961Y-52891666D01*
X108861961Y-52891666D02*
X108766723Y-52939285D01*
X108766723Y-52939285D02*
X108576247Y-52986904D01*
X108576247Y-52986904D02*
X108433390Y-52986904D01*
X108433390Y-52986904D02*
X108242914Y-52939285D01*
X108242914Y-52939285D02*
X108147676Y-52891666D01*
X108147676Y-52891666D02*
X108052438Y-52796428D01*
X108052438Y-52796428D02*
X108004819Y-52653571D01*
X108004819Y-52653571D02*
X108004819Y-52558333D01*
X108004819Y-52558333D02*
X108052438Y-52415476D01*
X108052438Y-52415476D02*
X108100057Y-52367857D01*
X108100057Y-51986904D02*
X108052438Y-51939285D01*
X108052438Y-51939285D02*
X108004819Y-51844047D01*
X108004819Y-51844047D02*
X108004819Y-51605952D01*
X108004819Y-51605952D02*
X108052438Y-51510714D01*
X108052438Y-51510714D02*
X108100057Y-51463095D01*
X108100057Y-51463095D02*
X108195295Y-51415476D01*
X108195295Y-51415476D02*
X108290533Y-51415476D01*
X108290533Y-51415476D02*
X108433390Y-51463095D01*
X108433390Y-51463095D02*
X109004819Y-52034523D01*
X109004819Y-52034523D02*
X109004819Y-51415476D01*
X108004819Y-51082142D02*
X108004819Y-50463095D01*
X108004819Y-50463095D02*
X108385771Y-50796428D01*
X108385771Y-50796428D02*
X108385771Y-50653571D01*
X108385771Y-50653571D02*
X108433390Y-50558333D01*
X108433390Y-50558333D02*
X108481009Y-50510714D01*
X108481009Y-50510714D02*
X108576247Y-50463095D01*
X108576247Y-50463095D02*
X108814342Y-50463095D01*
X108814342Y-50463095D02*
X108909580Y-50510714D01*
X108909580Y-50510714D02*
X108957200Y-50558333D01*
X108957200Y-50558333D02*
X109004819Y-50653571D01*
X109004819Y-50653571D02*
X109004819Y-50939285D01*
X109004819Y-50939285D02*
X108957200Y-51034523D01*
X108957200Y-51034523D02*
X108909580Y-51082142D01*
X109907142Y-54754819D02*
X109573809Y-54278628D01*
X109335714Y-54754819D02*
X109335714Y-53754819D01*
X109335714Y-53754819D02*
X109716666Y-53754819D01*
X109716666Y-53754819D02*
X109811904Y-53802438D01*
X109811904Y-53802438D02*
X109859523Y-53850057D01*
X109859523Y-53850057D02*
X109907142Y-53945295D01*
X109907142Y-53945295D02*
X109907142Y-54088152D01*
X109907142Y-54088152D02*
X109859523Y-54183390D01*
X109859523Y-54183390D02*
X109811904Y-54231009D01*
X109811904Y-54231009D02*
X109716666Y-54278628D01*
X109716666Y-54278628D02*
X109335714Y-54278628D01*
X110859523Y-54754819D02*
X110288095Y-54754819D01*
X110573809Y-54754819D02*
X110573809Y-53754819D01*
X110573809Y-53754819D02*
X110478571Y-53897676D01*
X110478571Y-53897676D02*
X110383333Y-53992914D01*
X110383333Y-53992914D02*
X110288095Y-54040533D01*
X111811904Y-54754819D02*
X111240476Y-54754819D01*
X111526190Y-54754819D02*
X111526190Y-53754819D01*
X111526190Y-53754819D02*
X111430952Y-53897676D01*
X111430952Y-53897676D02*
X111335714Y-53992914D01*
X111335714Y-53992914D02*
X111240476Y-54040533D01*
X106573788Y-36791666D02*
X106573788Y-37267856D01*
X106573788Y-37267856D02*
X105573788Y-37267856D01*
X106573788Y-35934523D02*
X106573788Y-36505951D01*
X106573788Y-36220237D02*
X105573788Y-36220237D01*
X105573788Y-36220237D02*
X105716645Y-36315475D01*
X105716645Y-36315475D02*
X105811883Y-36410713D01*
X105811883Y-36410713D02*
X105859502Y-36505951D01*
X108229819Y-49242857D02*
X107753628Y-49576190D01*
X108229819Y-49814285D02*
X107229819Y-49814285D01*
X107229819Y-49814285D02*
X107229819Y-49433333D01*
X107229819Y-49433333D02*
X107277438Y-49338095D01*
X107277438Y-49338095D02*
X107325057Y-49290476D01*
X107325057Y-49290476D02*
X107420295Y-49242857D01*
X107420295Y-49242857D02*
X107563152Y-49242857D01*
X107563152Y-49242857D02*
X107658390Y-49290476D01*
X107658390Y-49290476D02*
X107706009Y-49338095D01*
X107706009Y-49338095D02*
X107753628Y-49433333D01*
X107753628Y-49433333D02*
X107753628Y-49814285D01*
X108229819Y-48290476D02*
X108229819Y-48861904D01*
X108229819Y-48576190D02*
X107229819Y-48576190D01*
X107229819Y-48576190D02*
X107372676Y-48671428D01*
X107372676Y-48671428D02*
X107467914Y-48766666D01*
X107467914Y-48766666D02*
X107515533Y-48861904D01*
X107325057Y-47909523D02*
X107277438Y-47861904D01*
X107277438Y-47861904D02*
X107229819Y-47766666D01*
X107229819Y-47766666D02*
X107229819Y-47528571D01*
X107229819Y-47528571D02*
X107277438Y-47433333D01*
X107277438Y-47433333D02*
X107325057Y-47385714D01*
X107325057Y-47385714D02*
X107420295Y-47338095D01*
X107420295Y-47338095D02*
X107515533Y-47338095D01*
X107515533Y-47338095D02*
X107658390Y-47385714D01*
X107658390Y-47385714D02*
X108229819Y-47957142D01*
X108229819Y-47957142D02*
X108229819Y-47338095D01*
X118979819Y-55813094D02*
X117979819Y-55813094D01*
X117979819Y-55813094D02*
X117979819Y-55574999D01*
X117979819Y-55574999D02*
X118027438Y-55432142D01*
X118027438Y-55432142D02*
X118122676Y-55336904D01*
X118122676Y-55336904D02*
X118217914Y-55289285D01*
X118217914Y-55289285D02*
X118408390Y-55241666D01*
X118408390Y-55241666D02*
X118551247Y-55241666D01*
X118551247Y-55241666D02*
X118741723Y-55289285D01*
X118741723Y-55289285D02*
X118836961Y-55336904D01*
X118836961Y-55336904D02*
X118932200Y-55432142D01*
X118932200Y-55432142D02*
X118979819Y-55574999D01*
X118979819Y-55574999D02*
X118979819Y-55813094D01*
X118979819Y-54289285D02*
X118979819Y-54860713D01*
X118979819Y-54574999D02*
X117979819Y-54574999D01*
X117979819Y-54574999D02*
X118122676Y-54670237D01*
X118122676Y-54670237D02*
X118217914Y-54765475D01*
X118217914Y-54765475D02*
X118265533Y-54860713D01*
X125076905Y-52560671D02*
X125076905Y-51560671D01*
X125076905Y-51560671D02*
X125315000Y-51560671D01*
X125315000Y-51560671D02*
X125457857Y-51608290D01*
X125457857Y-51608290D02*
X125553095Y-51703528D01*
X125553095Y-51703528D02*
X125600714Y-51798766D01*
X125600714Y-51798766D02*
X125648333Y-51989242D01*
X125648333Y-51989242D02*
X125648333Y-52132099D01*
X125648333Y-52132099D02*
X125600714Y-52322575D01*
X125600714Y-52322575D02*
X125553095Y-52417813D01*
X125553095Y-52417813D02*
X125457857Y-52513052D01*
X125457857Y-52513052D02*
X125315000Y-52560671D01*
X125315000Y-52560671D02*
X125076905Y-52560671D01*
X125981667Y-51560671D02*
X126600714Y-51560671D01*
X126600714Y-51560671D02*
X126267381Y-51941623D01*
X126267381Y-51941623D02*
X126410238Y-51941623D01*
X126410238Y-51941623D02*
X126505476Y-51989242D01*
X126505476Y-51989242D02*
X126553095Y-52036861D01*
X126553095Y-52036861D02*
X126600714Y-52132099D01*
X126600714Y-52132099D02*
X126600714Y-52370194D01*
X126600714Y-52370194D02*
X126553095Y-52465432D01*
X126553095Y-52465432D02*
X126505476Y-52513052D01*
X126505476Y-52513052D02*
X126410238Y-52560671D01*
X126410238Y-52560671D02*
X126124524Y-52560671D01*
X126124524Y-52560671D02*
X126029286Y-52513052D01*
X126029286Y-52513052D02*
X125981667Y-52465432D01*
X111029819Y-44317857D02*
X110553628Y-44651190D01*
X111029819Y-44889285D02*
X110029819Y-44889285D01*
X110029819Y-44889285D02*
X110029819Y-44508333D01*
X110029819Y-44508333D02*
X110077438Y-44413095D01*
X110077438Y-44413095D02*
X110125057Y-44365476D01*
X110125057Y-44365476D02*
X110220295Y-44317857D01*
X110220295Y-44317857D02*
X110363152Y-44317857D01*
X110363152Y-44317857D02*
X110458390Y-44365476D01*
X110458390Y-44365476D02*
X110506009Y-44413095D01*
X110506009Y-44413095D02*
X110553628Y-44508333D01*
X110553628Y-44508333D02*
X110553628Y-44889285D01*
X111029819Y-43365476D02*
X111029819Y-43936904D01*
X111029819Y-43651190D02*
X110029819Y-43651190D01*
X110029819Y-43651190D02*
X110172676Y-43746428D01*
X110172676Y-43746428D02*
X110267914Y-43841666D01*
X110267914Y-43841666D02*
X110315533Y-43936904D01*
X110363152Y-42508333D02*
X111029819Y-42508333D01*
X109982200Y-42746428D02*
X110696485Y-42984523D01*
X110696485Y-42984523D02*
X110696485Y-42365476D01*
%TO.C,R9*%
D11*
X122477742Y-51633352D02*
X122952258Y-51633352D01*
X122477742Y-52678352D02*
X122952258Y-52678352D01*
%TO.C,R4*%
X121665000Y-35137742D02*
X121665000Y-35612258D01*
X122710000Y-35137742D02*
X122710000Y-35612258D01*
%TO.C,C15*%
X105615000Y-49265580D02*
X105615000Y-48984420D01*
X106635000Y-49265580D02*
X106635000Y-48984420D01*
%TO.C,R8*%
X114752500Y-51887742D02*
X114752500Y-52362258D01*
X115797500Y-51887742D02*
X115797500Y-52362258D01*
%TO.C,Q3*%
X111630000Y-43872500D02*
X111730000Y-43872500D01*
X111630000Y-47852500D02*
X111630000Y-43872500D01*
X111730000Y-47852500D02*
X111630000Y-47852500D01*
X116710000Y-43872500D02*
X116810000Y-43872500D01*
X116810000Y-43872500D02*
X116810000Y-47852500D01*
X116810000Y-47852500D02*
X116710000Y-47852500D01*
X111720000Y-48402500D02*
X111390000Y-48642500D01*
X111390000Y-48162500D01*
X111720000Y-48402500D01*
G36*
X111720000Y-48402500D02*
G01*
X111390000Y-48642500D01*
X111390000Y-48162500D01*
X111720000Y-48402500D01*
G37*
%TO.C,Q2*%
X109540000Y-50640000D02*
X110540000Y-50640000D01*
X109540000Y-52160000D02*
X109540000Y-50640000D01*
X109590000Y-52160000D02*
X109540000Y-52160000D01*
X111490000Y-52160000D02*
X110710000Y-52160000D01*
X111660000Y-50640000D02*
X112660000Y-50640000D01*
X112660000Y-50640000D02*
X112660000Y-52160000D01*
X112660000Y-52160000D02*
X112610000Y-52160000D01*
X110720000Y-52700000D02*
X111050000Y-52460000D01*
X111050000Y-52940000D01*
X110720000Y-52700000D01*
G36*
X111050000Y-52940000D02*
G01*
X110720000Y-52700000D01*
X111050000Y-52460000D01*
X111050000Y-52940000D01*
G37*
%TO.C,R10*%
X113177500Y-51987742D02*
X113177500Y-52462258D01*
X114222500Y-51987742D02*
X114222500Y-52462258D01*
%TO.C,D4*%
X112950000Y-55825000D02*
X112950000Y-53865000D01*
X114150000Y-53865000D02*
X112950000Y-53865000D01*
X114150000Y-55825000D02*
X114150000Y-53865000D01*
%TO.C,C7*%
X120077500Y-35209420D02*
X120077500Y-35490580D01*
X121097500Y-35209420D02*
X121097500Y-35490580D01*
%TO.C,C20*%
X114740000Y-33134420D02*
X114740000Y-33415580D01*
X115760000Y-33134420D02*
X115760000Y-33415580D01*
%TO.C,C5*%
X114765000Y-55109420D02*
X114765000Y-55390580D01*
X115785000Y-55109420D02*
X115785000Y-55390580D01*
%TO.C,C13*%
X103965000Y-48390580D02*
X103965000Y-48109420D01*
X104985000Y-48390580D02*
X104985000Y-48109420D01*
%TO.C,R13*%
X109052500Y-48362742D02*
X109052500Y-48837258D01*
X110097500Y-48362742D02*
X110097500Y-48837258D01*
%TO.C,C2*%
X118840580Y-43315000D02*
X118559420Y-43315000D01*
X118840580Y-44335000D02*
X118559420Y-44335000D01*
%TO.C,C24*%
X109990580Y-45715000D02*
X109709420Y-45715000D01*
X109990580Y-46735000D02*
X109709420Y-46735000D01*
%TO.C,C22*%
X120502500Y-38679437D02*
X120502500Y-39965000D01*
X120502500Y-38679437D02*
X121566937Y-37615000D01*
X120502500Y-43370563D02*
X120502500Y-42085000D01*
X120502500Y-43370563D02*
X121566937Y-44435000D01*
X121566937Y-37615000D02*
X127322500Y-37615000D01*
X121566937Y-44435000D02*
X127322500Y-44435000D01*
X127322500Y-37615000D02*
X127322500Y-39965000D01*
X127322500Y-44435000D02*
X127322500Y-42085000D01*
%TO.C,R3*%
X121297936Y-32090000D02*
X121752064Y-32090000D01*
X121297936Y-33560000D02*
X121752064Y-33560000D01*
%TO.C,J4*%
X117890000Y-50735000D02*
X117890000Y-45315000D01*
X126610000Y-45315000D02*
X117890000Y-45315000D01*
X126610000Y-50735000D02*
X117890000Y-50735000D01*
X128310000Y-46615000D02*
X126610000Y-45315000D01*
X128310000Y-49435000D02*
X126610000Y-50735000D01*
X128310000Y-49435000D02*
X128310000Y-46615000D01*
%TO.C,C6*%
X110308969Y-33813748D02*
X110308969Y-34336252D01*
X111778969Y-33813748D02*
X111778969Y-34336252D01*
%TO.C,C1*%
X118315580Y-33365000D02*
X118034420Y-33365000D01*
X118315580Y-34385000D02*
X118034420Y-34385000D01*
%TO.C,Q1*%
X122765000Y-58430852D02*
X127065000Y-58430852D01*
X127065000Y-53230852D02*
X122765000Y-53230852D01*
X127645000Y-58354149D02*
X127405000Y-58684149D01*
X127885000Y-58684149D01*
X127645000Y-58354149D01*
G36*
X127885000Y-58684149D02*
G01*
X127405000Y-58684149D01*
X127645000Y-58354149D01*
X127885000Y-58684149D01*
G37*
%TO.C,C23*%
X108040000Y-51865580D02*
X108040000Y-51584420D01*
X109060000Y-51865580D02*
X109060000Y-51584420D01*
%TO.C,R11*%
X110787258Y-53777500D02*
X110312742Y-53777500D01*
X110787258Y-54822500D02*
X110312742Y-54822500D01*
%TO.C,C14*%
X103915580Y-50190000D02*
X103634420Y-50190000D01*
X103915580Y-51210000D02*
X103634420Y-51210000D01*
%TO.C,R5*%
X123290000Y-35612258D02*
X123290000Y-35137742D01*
X124335000Y-35612258D02*
X124335000Y-35137742D01*
%TO.C,L1*%
X102418969Y-32975000D02*
X104718969Y-32975000D01*
X102418969Y-40375000D02*
X102418969Y-32975000D01*
X104718969Y-40375000D02*
X102418969Y-40375000D01*
X107518969Y-32975000D02*
X109818969Y-32975000D01*
X109818969Y-32975000D02*
X109818969Y-40375000D01*
X109818969Y-40375000D02*
X107518969Y-40375000D01*
%TO.C,U1*%
X116397592Y-34840000D02*
X118217592Y-34840000D01*
X116397592Y-34890000D02*
X116397592Y-34840000D01*
X116397592Y-37960000D02*
X116397592Y-37910000D01*
X118217592Y-34840000D02*
X118217592Y-34890000D01*
X118217592Y-37910000D02*
X118217592Y-37960000D01*
X118217592Y-37960000D02*
X116397592Y-37960000D01*
X115857592Y-34890000D02*
X115617592Y-34560000D01*
X116097592Y-34560000D01*
X115857592Y-34890000D01*
G36*
X115857592Y-34890000D02*
G01*
X115617592Y-34560000D01*
X116097592Y-34560000D01*
X115857592Y-34890000D01*
G37*
%TO.C,R12*%
X107252500Y-48837258D02*
X107252500Y-48362742D01*
X108297500Y-48837258D02*
X108297500Y-48362742D01*
%TO.C,C4*%
X106413748Y-41840000D02*
X107836252Y-41840000D01*
X106413748Y-44560000D02*
X107836252Y-44560000D01*
%TO.C,R1*%
X115877500Y-39912258D02*
X115877500Y-39437742D01*
X116922500Y-39912258D02*
X116922500Y-39437742D01*
%TO.C,D1*%
X116375000Y-58735000D02*
X116375000Y-52925000D01*
X116375000Y-58735000D02*
X120675000Y-58735000D01*
X120675000Y-58735000D02*
X120675000Y-52925000D01*
%TO.C,C8*%
X112579061Y-33688748D02*
X112579061Y-34211252D01*
X114049061Y-33688748D02*
X114049061Y-34211252D01*
%TO.C,C3*%
X110415000Y-38288748D02*
X110415000Y-39711252D01*
X113135000Y-38288748D02*
X113135000Y-39711252D01*
%TO.C,D3*%
X124555000Y-51505852D02*
X124555000Y-52705852D01*
X126515000Y-51505852D02*
X124555000Y-51505852D01*
X126515000Y-52705852D02*
X124555000Y-52705852D01*
%TO.C,R2*%
X118462742Y-38402500D02*
X118937258Y-38402500D01*
X118462742Y-39447500D02*
X118937258Y-39447500D01*
%TO.C,R14*%
X110052500Y-43437742D02*
X110052500Y-43912258D01*
X111097500Y-43437742D02*
X111097500Y-43912258D01*
%TD*%
M02*
