%TF.GenerationSoftware,KiCad,Pcbnew,10.0.5*%
%TF.CreationDate,2026-10-04T23:52:25+08:00*%
%TF.ProjectId,TTLtoCANforTOF,54544c74-6f43-4414-9e66-6f72544f462e,rev?*%
%TF.SameCoordinates,Original*%
%TF.FileFunction,Copper,L1,Top*%
%TF.FilePolarity,Positive*%
%FSLAX46Y46*%
G04 Gerber Fmt 4.6, Leading zero omitted, Abs format (unit mm)*
G04 Created by KiCad (PCBNEW 10.0.5) date 2026-10-04 23:52:25*
%MOMM*%
%LPD*%
G01*
G04 APERTURE LIST*
G04 Aperture macros list*
%AMRoundRect*
0 Rectangle with rounded corners*
0 $1 Rounding radius*
0 $2 $3 $4 $5 $6 $7 $8 $9 X,Y pos of 4 corners*
0 Add a 4 corners polygon primitive as box body*
4,1,4,$2,$3,$4,$5,$6,$7,$8,$9,$2,$3,0*
0 Add four circle primitives for the rounded corners*
1,1,$1+$1,$2,$3*
1,1,$1+$1,$4,$5*
1,1,$1+$1,$6,$7*
1,1,$1+$1,$8,$9*
0 Add four rect primitives between the rounded corners*
20,1,$1+$1,$2,$3,$4,$5,0*
20,1,$1+$1,$4,$5,$6,$7,0*
20,1,$1+$1,$6,$7,$8,$9,0*
20,1,$1+$1,$8,$9,$2,$3,0*%
G04 Aperture macros list end*
%TA.AperFunction,Conductor*%
%ADD10C,0.200000*%
%TD*%
%TA.AperFunction,SMDPad,CuDef*%
%ADD11RoundRect,0.250000X1.150000X-0.250000X1.150000X0.250000X-1.150000X0.250000X-1.150000X-0.250000X0*%
%TD*%
%TA.AperFunction,SMDPad,CuDef*%
%ADD12RoundRect,0.150000X0.700000X-0.150000X0.700000X0.150000X-0.700000X0.150000X-0.700000X-0.150000X0*%
%TD*%
%TA.AperFunction,SMDPad,CuDef*%
%ADD13RoundRect,0.200000X-0.275000X0.200000X-0.275000X-0.200000X0.275000X-0.200000X0.275000X0.200000X0*%
%TD*%
%TA.AperFunction,SMDPad,CuDef*%
%ADD14RoundRect,0.225000X-0.250000X0.225000X-0.250000X-0.225000X0.250000X-0.225000X0.250000X0.225000X0*%
%TD*%
%TA.AperFunction,SMDPad,CuDef*%
%ADD15RoundRect,0.250000X-0.262500X-0.450000X0.262500X-0.450000X0.262500X0.450000X-0.262500X0.450000X0*%
%TD*%
%TA.AperFunction,SMDPad,CuDef*%
%ADD16RoundRect,0.150000X0.150000X-0.512500X0.150000X0.512500X-0.150000X0.512500X-0.150000X-0.512500X0*%
%TD*%
%TA.AperFunction,SMDPad,CuDef*%
%ADD17RoundRect,0.200000X0.275000X-0.200000X0.275000X0.200000X-0.275000X0.200000X-0.275000X-0.200000X0*%
%TD*%
%TA.AperFunction,SMDPad,CuDef*%
%ADD18RoundRect,0.200000X-0.200000X-0.275000X0.200000X-0.275000X0.200000X0.275000X-0.200000X0.275000X0*%
%TD*%
%TA.AperFunction,SMDPad,CuDef*%
%ADD19RoundRect,0.225000X-0.225000X-0.250000X0.225000X-0.250000X0.225000X0.250000X-0.225000X0.250000X0*%
%TD*%
%TA.AperFunction,SMDPad,CuDef*%
%ADD20RoundRect,0.150000X-0.150000X0.587500X-0.150000X-0.587500X0.150000X-0.587500X0.150000X0.587500X0*%
%TD*%
%TA.AperFunction,SMDPad,CuDef*%
%ADD21RoundRect,0.225000X-0.225000X-0.375000X0.225000X-0.375000X0.225000X0.375000X-0.225000X0.375000X0*%
%TD*%
%TA.AperFunction,SMDPad,CuDef*%
%ADD22RoundRect,0.225000X0.250000X-0.225000X0.250000X0.225000X-0.250000X0.225000X-0.250000X-0.225000X0*%
%TD*%
%TA.AperFunction,SMDPad,CuDef*%
%ADD23RoundRect,0.250000X-0.250000X-0.475000X0.250000X-0.475000X0.250000X0.475000X-0.250000X0.475000X0*%
%TD*%
%TA.AperFunction,SMDPad,CuDef*%
%ADD24RoundRect,0.249999X-0.450001X-1.850001X0.450001X-1.850001X0.450001X1.850001X-0.450001X1.850001X0*%
%TD*%
%TA.AperFunction,SMDPad,CuDef*%
%ADD25RoundRect,0.250000X1.100000X-0.325000X1.100000X0.325000X-1.100000X0.325000X-1.100000X-0.325000X0*%
%TD*%
%TA.AperFunction,ComponentPad*%
%ADD26RoundRect,0.760000X-1.140000X1.140000X-1.140000X-1.140000X1.140000X-1.140000X1.140000X1.140000X0*%
%TD*%
%TA.AperFunction,ComponentPad*%
%ADD27C,4.000000*%
%TD*%
%TA.AperFunction,ViaPad*%
%ADD28C,0.600000*%
%TD*%
%TA.AperFunction,Conductor*%
%ADD29C,0.500000*%
%TD*%
%TA.AperFunction,Conductor*%
%ADD30C,1.000000*%
%TD*%
%TA.AperFunction,Conductor*%
%ADD31C,0.600000*%
%TD*%
%TA.AperFunction,Conductor*%
%ADD32C,0.300000*%
%TD*%
G04 APERTURE END LIST*
D10*
%TO.N,+24V*%
X174775000Y-73950000D02*
X174925000Y-74100000D01*
X175425000Y-74100000D01*
X175500000Y-73950000D01*
X175500000Y-69800000D01*
X175800000Y-69525000D01*
X175800000Y-68875000D01*
X175625000Y-68700000D01*
X173175000Y-68650000D01*
X173025000Y-68850000D01*
X173025000Y-72375000D01*
X174775000Y-73950000D01*
%TA.AperFunction,Conductor*%
G36*
X175625000Y-68700000D02*
G01*
X175800000Y-68875000D01*
X175800000Y-69525000D01*
X175500000Y-69800000D01*
X175500000Y-73950000D01*
X175425000Y-74100000D01*
X174925000Y-74100000D01*
X174775000Y-73950000D01*
X173025000Y-72375000D01*
X173025000Y-68850000D01*
X173175000Y-68650000D01*
X175625000Y-68700000D01*
G37*
%TD.AperFunction*%
X157325000Y-67597919D02*
X157325000Y-68250000D01*
X157500000Y-68425000D01*
X163225000Y-68450000D01*
X163550000Y-68225000D01*
X163550000Y-65850000D01*
X163225000Y-65500000D01*
X161975000Y-65525000D01*
X161625000Y-65050000D01*
X161150000Y-65050000D01*
X161025000Y-65143750D01*
X161025000Y-66500000D01*
X160300000Y-67225000D01*
X157560528Y-67225000D01*
X157325000Y-67597919D01*
%TA.AperFunction,Conductor*%
G36*
X161975000Y-65525000D02*
G01*
X163225000Y-65500000D01*
X163550000Y-65850000D01*
X163550000Y-68225000D01*
X163225000Y-68450000D01*
X157500000Y-68425000D01*
X157325000Y-68250000D01*
X157325000Y-67597919D01*
X157560528Y-67225000D01*
X160300000Y-67225000D01*
X161025000Y-66500000D01*
X161025000Y-65143750D01*
X161150000Y-65050000D01*
X161625000Y-65050000D01*
X161975000Y-65525000D01*
G37*
%TD.AperFunction*%
%TO.N,VCC_IN*%
X175750000Y-74600000D02*
X175875000Y-74425000D01*
X178200000Y-74425000D01*
X178600000Y-74050000D01*
X178600000Y-72350000D01*
X179025000Y-71875000D01*
X182425000Y-71875000D01*
X182875000Y-72475000D01*
X182875000Y-75625000D01*
X182425000Y-76050000D01*
X175825000Y-76050000D01*
X175725000Y-75925000D01*
X175725000Y-74650000D01*
X175750000Y-74600000D01*
%TA.AperFunction,Conductor*%
G36*
X182875000Y-72475000D02*
G01*
X182875000Y-75625000D01*
X182425000Y-76050000D01*
X175825000Y-76050000D01*
X175725000Y-75925000D01*
X175725000Y-74650000D01*
X175750000Y-74600000D01*
X175875000Y-74425000D01*
X178200000Y-74425000D01*
X178600000Y-74050000D01*
X178600000Y-72350000D01*
X179025000Y-71875000D01*
X182425000Y-71875000D01*
X182875000Y-72475000D01*
G37*
%TD.AperFunction*%
%TD*%
D11*
%TO.P,J3,MP,MountPin_MP*%
%TO.N,GND*%
X165800000Y-67350000D03*
X165800000Y-74800000D03*
D12*
%TO.P,J3,4,Pin_4_4*%
%TO.N,5V*%
X169150000Y-69200000D03*
%TO.P,J3,3,Pin_3_3*%
%TO.N,GND*%
X169150000Y-70450000D03*
%TO.P,J3,2,Pin_2_2*%
%TO.N,/USART1_RX*%
X169150000Y-71700000D03*
%TO.P,J3,1,Pin_1_1*%
%TO.N,/USART1_TX*%
X169150000Y-72950000D03*
%TD*%
D13*
%TO.P,R4,2*%
%TO.N,Net-(U1-FB)*%
X162938754Y-63113513D03*
%TO.P,R4,1*%
%TO.N,Net-(C7-Pad1)*%
X162938754Y-61463513D03*
%TD*%
D14*
%TO.P,C7,2*%
%TO.N,Net-(U1-FB)*%
X164513754Y-63063513D03*
%TO.P,C7,1*%
%TO.N,Net-(C7-Pad1)*%
X164513754Y-61513513D03*
%TD*%
%TO.P,C1,2*%
%TO.N,Net-(U1-SW)*%
X157838754Y-65313513D03*
%TO.P,C1,1*%
%TO.N,Net-(U1-BOOT)*%
X157838754Y-63763513D03*
%TD*%
D15*
%TO.P,R3,2*%
%TO.N,Net-(C7-Pad1)*%
X157976254Y-61913513D03*
%TO.P,R3,1*%
%TO.N,5V*%
X156151254Y-61913513D03*
%TD*%
D16*
%TO.P,U1,6,BOOT_6*%
%TO.N,Net-(U1-BOOT)*%
X159426254Y-63451013D03*
%TO.P,U1,5,EN_5*%
%TO.N,Net-(U1-EN)*%
X160376254Y-63451013D03*
%TO.P,U1,4,FB_4*%
%TO.N,Net-(U1-FB)*%
X161326254Y-63451013D03*
%TO.P,U1,3,VIN_3*%
%TO.N,+24V*%
X161326254Y-65726013D03*
%TO.P,U1,2,SW_2*%
%TO.N,Net-(U1-SW)*%
X160376254Y-65726013D03*
%TO.P,U1,1,GND_1*%
%TO.N,GND*%
X159426254Y-65726013D03*
%TD*%
D17*
%TO.P,R1,2*%
%TO.N,Net-(U1-EN)*%
X162890291Y-64503737D03*
%TO.P,R1,1*%
%TO.N,+24V*%
X162890291Y-66153737D03*
%TD*%
D18*
%TO.P,R2,2*%
%TO.N,GND*%
X166115291Y-64603737D03*
%TO.P,R2,1*%
%TO.N,Net-(U1-EN)*%
X164465291Y-64603737D03*
%TD*%
D19*
%TO.P,C15,1*%
%TO.N,+3.3V*%
X173000000Y-65975000D03*
%TO.P,C15,2*%
%TO.N,GND*%
X174550000Y-65975000D03*
%TD*%
D20*
%TO.P,Q2,1,G_1*%
%TO.N,Net-(D3-A)*%
X177050000Y-73337500D03*
%TO.P,Q2,2,S_2*%
%TO.N,+24V*%
X175150000Y-73337500D03*
%TO.P,Q2,3,D_3*%
%TO.N,VCC_IN*%
X176100000Y-75212500D03*
%TD*%
D17*
%TO.P,R9,1*%
%TO.N,+24V*%
X175275000Y-69150000D03*
%TO.P,R9,2*%
%TO.N,Net-(D3-A)*%
X175275000Y-67500000D03*
%TD*%
D19*
%TO.P,C20,1*%
%TO.N,GND*%
X154040291Y-73853737D03*
%TO.P,C20,2*%
%TO.N,5V*%
X155590291Y-73853737D03*
%TD*%
D21*
%TO.P,D3,1,K_1*%
%TO.N,+24V*%
X173600000Y-71025000D03*
%TO.P,D3,2,A_2*%
%TO.N,Net-(D3-A)*%
X176900000Y-71025000D03*
%TD*%
D22*
%TO.P,C13,1*%
%TO.N,+3.3V*%
X168400000Y-64675000D03*
%TO.P,C13,2*%
%TO.N,GND*%
X168400000Y-63125000D03*
%TD*%
D14*
%TO.P,C2,1*%
%TO.N,GND*%
X173550000Y-67525000D03*
%TO.P,C2,2*%
%TO.N,+24V*%
X173550000Y-69075000D03*
%TD*%
D13*
%TO.P,R8,1*%
%TO.N,GND*%
X176900000Y-67475000D03*
%TO.P,R8,2*%
%TO.N,Net-(D3-A)*%
X176900000Y-69125000D03*
%TD*%
D23*
%TO.P,C6,1*%
%TO.N,GND*%
X153690291Y-69803737D03*
%TO.P,C6,2*%
%TO.N,5V*%
X155590291Y-69803737D03*
%TD*%
D22*
%TO.P,C14,1*%
%TO.N,+3.3V*%
X171450000Y-66375000D03*
%TO.P,C14,2*%
%TO.N,GND*%
X171450000Y-64825000D03*
%TD*%
D13*
%TO.P,R5,1*%
%TO.N,Net-(U1-FB)*%
X166088754Y-61463513D03*
%TO.P,R5,2*%
%TO.N,GND*%
X166088754Y-63113513D03*
%TD*%
D24*
%TO.P,L1,1*%
%TO.N,5V*%
X152313754Y-65863513D03*
%TO.P,L1,2*%
%TO.N,Net-(U1-SW)*%
X156013754Y-65863513D03*
%TD*%
D25*
%TO.P,C4,1*%
%TO.N,GND*%
X158690291Y-70778737D03*
%TO.P,C4,2*%
%TO.N,+24V*%
X158690291Y-67828737D03*
%TD*%
D23*
%TO.P,C8,1*%
%TO.N,GND*%
X153690291Y-71928737D03*
%TO.P,C8,2*%
%TO.N,5V*%
X155590291Y-71928737D03*
%TD*%
D25*
%TO.P,C3,1*%
%TO.N,GND*%
X162115291Y-70753737D03*
%TO.P,C3,2*%
%TO.N,+24V*%
X162115291Y-67803737D03*
%TD*%
D26*
%TO.P,J4,1,Pin_1_1*%
%TO.N,GND*%
X180750000Y-68900000D03*
D27*
%TO.P,J4,2,Pin_2_2*%
%TO.N,VCC_IN*%
X180750000Y-73900000D03*
%TD*%
D28*
%TO.N,GND*%
X153100000Y-75750000D03*
X152475000Y-75125000D03*
X152475000Y-75775000D03*
X153100000Y-75125000D03*
X164775000Y-76400000D03*
X164150000Y-75775000D03*
X164150000Y-76425000D03*
X164775000Y-75775000D03*
X160950000Y-75900000D03*
X160325000Y-75275000D03*
X160325000Y-75925000D03*
X160950000Y-75275000D03*
%TO.N,5V*%
X161400000Y-69300000D03*
%TO.N,GND*%
X157425000Y-66450000D03*
%TO.N,+3.3V*%
X168800000Y-65100000D03*
X170725000Y-65650000D03*
%TO.N,GND*%
X173000000Y-64825000D03*
X175575000Y-61562500D03*
X182850000Y-66425000D03*
X169875000Y-64737500D03*
X158825000Y-75200000D03*
X182850000Y-67050000D03*
X158200000Y-75850000D03*
X177125000Y-65312500D03*
X182325000Y-70050000D03*
X177875000Y-61712500D03*
X172325000Y-61562500D03*
X176150000Y-65912500D03*
X182325000Y-70700000D03*
X182225000Y-66425000D03*
X182950000Y-70050000D03*
X170012500Y-61875000D03*
X182950000Y-70675000D03*
X158200000Y-75200000D03*
X178125000Y-63912500D03*
X158825000Y-75825000D03*
X182225000Y-67075000D03*
%TO.N,/USART1_TX*%
X171043716Y-74766038D03*
%TO.N,/USART1_RX*%
X172175000Y-73500000D03*
%TD*%
%TO.N,GND*%
D29*
X158702267Y-66450000D02*
X159426254Y-65726013D01*
X157425000Y-66450000D02*
X158702267Y-66450000D01*
%TO.N,+3.3V*%
D10*
X170725000Y-65650000D02*
X171450000Y-66375000D01*
%TO.N,+24V*%
D30*
X161871005Y-66100000D02*
X161221005Y-66750000D01*
X169385618Y-66100000D02*
X161871005Y-66100000D01*
X171760618Y-67525000D02*
X170810618Y-67525000D01*
X172910618Y-68675000D02*
X171760618Y-67525000D01*
X173600000Y-69350000D02*
X172925000Y-68675000D01*
X173600000Y-71025000D02*
X173600000Y-69350000D01*
X172925000Y-68675000D02*
X172910618Y-68675000D01*
X170810618Y-67525000D02*
X169385618Y-66100000D01*
%TO.N,5V*%
D31*
X153638513Y-65863513D02*
X152313754Y-65863513D01*
X154113754Y-66338754D02*
X153638513Y-65863513D01*
X154113754Y-68327200D02*
X154113754Y-66338754D01*
X155590291Y-69803737D02*
X154113754Y-68327200D01*
%TO.N,/USART1_TX*%
D10*
X170966038Y-74766038D02*
X171043716Y-74766038D01*
X169150000Y-72950000D02*
X170966038Y-74766038D01*
%TO.N,/USART1_RX*%
X170375000Y-71700000D02*
X172175000Y-73500000D01*
X169150000Y-71700000D02*
X170375000Y-71700000D01*
%TO.N,+24V*%
D30*
X162890291Y-66153737D02*
X163044028Y-66000000D01*
%TO.N,5V*%
D31*
X156194028Y-69200000D02*
X169150000Y-69200000D01*
X155590291Y-69803737D02*
X156194028Y-69200000D01*
%TO.N,+3.3V*%
D32*
X172600000Y-66375000D02*
X173000000Y-65975000D01*
X171450000Y-66375000D02*
X172600000Y-66375000D01*
D10*
X168625000Y-65200000D02*
X168400000Y-64975000D01*
X168675000Y-65200000D02*
X168625000Y-65200000D01*
X168400000Y-64975000D02*
X168400000Y-64675000D01*
X168800000Y-65100000D02*
X168765588Y-65134412D01*
X168765588Y-65134412D02*
X168740588Y-65134412D01*
X168740588Y-65134412D02*
X168675000Y-65200000D01*
%TO.N,Net-(U1-EN)*%
X164400067Y-64538513D02*
X164465291Y-64603737D01*
X162963754Y-64538513D02*
X164400067Y-64538513D01*
X162963754Y-64538513D02*
X162963754Y-64738513D01*
%TO.N,Net-(U1-SW)*%
D29*
X157838754Y-65313513D02*
X156563754Y-65313513D01*
X156563754Y-65313513D02*
X156013754Y-65863513D01*
%TO.N,Net-(U1-EN)*%
D10*
X160376254Y-64113512D02*
X160826255Y-64563513D01*
X162788754Y-64563513D02*
X163013754Y-64788513D01*
X160826255Y-64563513D02*
X162788754Y-64563513D01*
X163188754Y-64788513D02*
X163013754Y-64788513D01*
X160376254Y-63451013D02*
X160376254Y-64113512D01*
%TO.N,Net-(U1-FB)*%
X162938754Y-63113513D02*
X161663754Y-63113513D01*
%TO.N,Net-(C7-Pad1)*%
X164463754Y-61463513D02*
X164513754Y-61513513D01*
X162938754Y-61463513D02*
X164463754Y-61463513D01*
%TO.N,Net-(U1-FB)*%
X162938754Y-63113513D02*
X164463754Y-63113513D01*
X166088754Y-61463513D02*
X166088754Y-61488513D01*
%TO.N,Net-(C7-Pad1)*%
X157576254Y-61788513D02*
X157901254Y-61463513D01*
%TO.N,Net-(U1-FB)*%
X164463754Y-63113513D02*
X164513754Y-63063513D01*
X166088754Y-61488513D02*
X164513754Y-63063513D01*
X161663754Y-63113513D02*
X161326254Y-63451013D01*
%TO.N,Net-(C7-Pad1)*%
D32*
X157901254Y-61463513D02*
X162938754Y-61463513D01*
%TO.N,Net-(U1-SW)*%
D29*
X158563754Y-64588513D02*
X157838754Y-65313513D01*
X160376254Y-65063514D02*
X159901253Y-64588513D01*
%TO.N,Net-(U1-BOOT)*%
D10*
X159426254Y-63451013D02*
X158151254Y-63451013D01*
%TO.N,Net-(U1-SW)*%
X160488754Y-65726013D02*
X160488754Y-65372961D01*
X160376254Y-65726013D02*
X160376254Y-65063514D01*
D29*
X159901253Y-64588513D02*
X158563754Y-64588513D01*
%TO.N,Net-(U1-BOOT)*%
D10*
X158151254Y-63451013D02*
X157838754Y-63763513D01*
%TO.N,5V*%
D31*
X152313754Y-63063513D02*
X152313754Y-67538513D01*
X155751254Y-61788513D02*
X153588754Y-61788513D01*
X153588754Y-61788513D02*
X152313754Y-63063513D01*
%TO.N,/USART1_TX*%
D10*
X171043716Y-74766038D02*
X170959754Y-74850000D01*
%TO.N,Net-(D3-A)*%
D31*
X176900000Y-69125000D02*
X176900000Y-71025000D01*
X177050000Y-73337500D02*
X177050000Y-71175000D01*
D29*
X175275000Y-67500000D02*
X176900000Y-69125000D01*
D10*
X177050000Y-71175000D02*
X176900000Y-71025000D01*
%TO.N,5V*%
D31*
X155590291Y-71928737D02*
X155590291Y-73853737D01*
X155590291Y-69803737D02*
X155590291Y-71928737D01*
%TD*%
%TA.AperFunction,Conductor*%
%TO.N,GND*%
G36*
X168954141Y-67106131D02*
G01*
X168979273Y-67116540D01*
X169003278Y-67132580D01*
X170033478Y-68162781D01*
X170172836Y-68302139D01*
X170318732Y-68399624D01*
X170318766Y-68399646D01*
X170336704Y-68411632D01*
X170381684Y-68430263D01*
X170518782Y-68487051D01*
X170712077Y-68525500D01*
X170909158Y-68525500D01*
X171300827Y-68525500D01*
X171329141Y-68531131D01*
X171354273Y-68541541D01*
X171378278Y-68557580D01*
X172272836Y-69452139D01*
X172272837Y-69452140D01*
X172307098Y-69475032D01*
X172312931Y-69479358D01*
X172318524Y-69483948D01*
X172323905Y-69488825D01*
X172387418Y-69552338D01*
X172403457Y-69576341D01*
X172413868Y-69601475D01*
X172419500Y-69629790D01*
X172419500Y-72375033D01*
X172420335Y-72406807D01*
X172420335Y-72406819D01*
X172449177Y-72562240D01*
X172449309Y-72562634D01*
X172449467Y-72562850D01*
X172472106Y-72610287D01*
X172479220Y-72638268D01*
X172479690Y-72647194D01*
X172460797Y-72700587D01*
X172409683Y-72724983D01*
X172382811Y-72721426D01*
X172279178Y-72687568D01*
X172270608Y-72684853D01*
X172270065Y-72684686D01*
X172262507Y-72682445D01*
X172260990Y-72681996D01*
X172260515Y-72681860D01*
X172260497Y-72681855D01*
X172260455Y-72681843D01*
X172249851Y-72678932D01*
X172249453Y-72678827D01*
X172240402Y-72676539D01*
X172240390Y-72676536D01*
X172240362Y-72676529D01*
X172219760Y-72671522D01*
X172187918Y-72654786D01*
X172169999Y-72638768D01*
X172169994Y-72638764D01*
X172147237Y-72621874D01*
X172139013Y-72614778D01*
X170862326Y-71338091D01*
X170862322Y-71338086D01*
X170743716Y-71219480D01*
X170631824Y-71154879D01*
X170622382Y-71146864D01*
X170609589Y-71142041D01*
X170606792Y-71140426D01*
X170606783Y-71140422D01*
X170606780Y-71140420D01*
X170606776Y-71140419D01*
X170454061Y-71099499D01*
X170454059Y-71099499D01*
X170454057Y-71099499D01*
X170413347Y-71099499D01*
X170376994Y-71089953D01*
X170371785Y-71087016D01*
X170370111Y-71086043D01*
X170285092Y-71035080D01*
X170265736Y-71024050D01*
X170265729Y-71024046D01*
X170264833Y-71023561D01*
X170245046Y-71013412D01*
X170132751Y-70958897D01*
X170126139Y-70955745D01*
X170125916Y-70955641D01*
X170125912Y-70955639D01*
X170125905Y-70955636D01*
X170125896Y-70955632D01*
X170125881Y-70955626D01*
X170122235Y-70954186D01*
X170111747Y-70949053D01*
X170110402Y-70948257D01*
X170110396Y-70948255D01*
X170101701Y-70945728D01*
X170095170Y-70943494D01*
X170068072Y-70932791D01*
X170045046Y-70928795D01*
X170037054Y-70926947D01*
X169952572Y-70902402D01*
X169944375Y-70901757D01*
X169927985Y-70900467D01*
X169927983Y-70900466D01*
X169915695Y-70899500D01*
X169915694Y-70899500D01*
X168384306Y-70899500D01*
X168384298Y-70899500D01*
X168375089Y-70900224D01*
X168375087Y-70900225D01*
X168358491Y-70901531D01*
X168347426Y-70902402D01*
X168189598Y-70948256D01*
X168048133Y-71031919D01*
X167931919Y-71148133D01*
X167848256Y-71289598D01*
X167802402Y-71447427D01*
X167799500Y-71484306D01*
X167799500Y-71915692D01*
X167802402Y-71952571D01*
X167848256Y-72110400D01*
X167931919Y-72251865D01*
X167942320Y-72262266D01*
X167958361Y-72286274D01*
X167962672Y-72296682D01*
X167962672Y-72353319D01*
X167962670Y-72353322D01*
X167958359Y-72363728D01*
X167942322Y-72387730D01*
X167931918Y-72398134D01*
X167848256Y-72539598D01*
X167802402Y-72697427D01*
X167799500Y-72734306D01*
X167799500Y-73165692D01*
X167802402Y-73202571D01*
X167848256Y-73360400D01*
X167884189Y-73421158D01*
X167904808Y-73456023D01*
X167931919Y-73501865D01*
X168048135Y-73618081D01*
X168189602Y-73701744D01*
X168347431Y-73747598D01*
X168384306Y-73750500D01*
X168951839Y-73750500D01*
X168967488Y-73752174D01*
X168969277Y-73752561D01*
X168969283Y-73752561D01*
X168969284Y-73752562D01*
X169015717Y-73759180D01*
X169032208Y-73763516D01*
X169071019Y-73778685D01*
X169082986Y-73784660D01*
X169150113Y-73826148D01*
X169166177Y-73836076D01*
X169175143Y-73842594D01*
X169256197Y-73911354D01*
X169281452Y-73931379D01*
X169287802Y-73937037D01*
X170127212Y-74776448D01*
X170136384Y-74787616D01*
X170146307Y-74802444D01*
X170146308Y-74802445D01*
X170149745Y-74806265D01*
X170152831Y-74809695D01*
X170152848Y-74809715D01*
X170166290Y-74824657D01*
X170178772Y-74843812D01*
X170191950Y-74873131D01*
X170194266Y-74878927D01*
X170198874Y-74892037D01*
X170198881Y-74892055D01*
X170199139Y-74892753D01*
X170204913Y-74907645D01*
X170252550Y-75024983D01*
X170252554Y-75024992D01*
X170252555Y-75024994D01*
X170252563Y-75025014D01*
X170272961Y-75069054D01*
X170272968Y-75069068D01*
X170274005Y-75071051D01*
X170298462Y-75112825D01*
X170340857Y-75177878D01*
X170362039Y-75207932D01*
X170362688Y-75208785D01*
X170363068Y-75209284D01*
X170376648Y-75225842D01*
X170386536Y-75237898D01*
X170386539Y-75237901D01*
X170444743Y-75303792D01*
X170444779Y-75303832D01*
X170450047Y-75309703D01*
X170450245Y-75309920D01*
X170450248Y-75309924D01*
X170494301Y-75352715D01*
X170494300Y-75352715D01*
X170494302Y-75352716D01*
X170494304Y-75352718D01*
X170498533Y-75355412D01*
X170511093Y-75365493D01*
X170533427Y-75387827D01*
X170623428Y-75447964D01*
X170633075Y-75462400D01*
X170661393Y-75474130D01*
X170662022Y-75474425D01*
X170664061Y-75475241D01*
X170664900Y-75475583D01*
X170810185Y-75535761D01*
X170810214Y-75535773D01*
X170810219Y-75535775D01*
X170964874Y-75566538D01*
X170964876Y-75566538D01*
X171122556Y-75566538D01*
X171122558Y-75566538D01*
X171277213Y-75535775D01*
X171422895Y-75475432D01*
X171554005Y-75387827D01*
X171665505Y-75276327D01*
X171753110Y-75145217D01*
X171813453Y-74999535D01*
X171844216Y-74844880D01*
X171844216Y-74687196D01*
X171829042Y-74610912D01*
X171813454Y-74532545D01*
X171813450Y-74532534D01*
X171813439Y-74532507D01*
X171811607Y-74528084D01*
X171753112Y-74386863D01*
X171753111Y-74386861D01*
X171753110Y-74386859D01*
X171753105Y-74386852D01*
X171716513Y-74332088D01*
X171705464Y-74305416D01*
X171704486Y-74300500D01*
X171703910Y-74297603D01*
X171714956Y-74242057D01*
X171762044Y-74210589D01*
X171764793Y-74210042D01*
X171807547Y-74214251D01*
X171897341Y-74251445D01*
X171928386Y-74264304D01*
X171928388Y-74264305D01*
X171941496Y-74269735D01*
X171941503Y-74269737D01*
X172096158Y-74300500D01*
X172096160Y-74300500D01*
X172253840Y-74300500D01*
X172253842Y-74300500D01*
X172408497Y-74269737D01*
X172554179Y-74209394D01*
X172685289Y-74121789D01*
X172796789Y-74010289D01*
X172884394Y-73879179D01*
X172944737Y-73733497D01*
X172975500Y-73578842D01*
X172975500Y-73421158D01*
X172954923Y-73317710D01*
X172954923Y-73288843D01*
X172956477Y-73281025D01*
X172987942Y-73233935D01*
X173043477Y-73222882D01*
X173047247Y-73223632D01*
X173082321Y-73241206D01*
X174355262Y-74386853D01*
X174355282Y-74386894D01*
X174355294Y-74386882D01*
X174355961Y-74387483D01*
X174357343Y-74388760D01*
X174358772Y-74390115D01*
X174360181Y-74391487D01*
X174496847Y-74528153D01*
X174622250Y-74624378D01*
X174768285Y-74684868D01*
X174925000Y-74705500D01*
X175030781Y-74705500D01*
X175059091Y-74711129D01*
X175069503Y-74715442D01*
X175109552Y-74755484D01*
X175113867Y-74765900D01*
X175119500Y-74794218D01*
X175119500Y-75925000D01*
X175120190Y-75934111D01*
X175125783Y-76007985D01*
X175126403Y-76016170D01*
X175140612Y-76065204D01*
X175170140Y-76167108D01*
X175170397Y-76167992D01*
X175252195Y-76303272D01*
X175252224Y-76303314D01*
X175252587Y-76303758D01*
X175352175Y-76428243D01*
X175396849Y-76478155D01*
X175431906Y-76505055D01*
X175522250Y-76574378D01*
X175668285Y-76634868D01*
X175825000Y-76655500D01*
X175825002Y-76655500D01*
X182424992Y-76655500D01*
X182425000Y-76655500D01*
X182564947Y-76639105D01*
X182655907Y-76604437D01*
X182710894Y-76583480D01*
X182714459Y-76582225D01*
X182717083Y-76581375D01*
X182722982Y-76575341D01*
X182840751Y-76490206D01*
X183290751Y-76065206D01*
X183303153Y-76053153D01*
X183356008Y-75984270D01*
X183377709Y-75965237D01*
X183384612Y-75961252D01*
X183440762Y-75953860D01*
X183485684Y-75988318D01*
X183486891Y-75990407D01*
X183496535Y-76033877D01*
X183485161Y-76163883D01*
X183484318Y-76170286D01*
X183483199Y-76176631D01*
X183481803Y-76182932D01*
X183441733Y-76332476D01*
X183439790Y-76338637D01*
X183437589Y-76344683D01*
X183435120Y-76350643D01*
X183369692Y-76490955D01*
X183366710Y-76496682D01*
X183363490Y-76502259D01*
X183360022Y-76507703D01*
X183271229Y-76634512D01*
X183267298Y-76639635D01*
X183263156Y-76644571D01*
X183258796Y-76649329D01*
X183149329Y-76758796D01*
X183144571Y-76763156D01*
X183139635Y-76767298D01*
X183134512Y-76771229D01*
X183007703Y-76860022D01*
X183002259Y-76863490D01*
X182996682Y-76866710D01*
X182990955Y-76869692D01*
X182850643Y-76935120D01*
X182844683Y-76937589D01*
X182838637Y-76939790D01*
X182832476Y-76941733D01*
X182682932Y-76981803D01*
X182676631Y-76983199D01*
X182670286Y-76984318D01*
X182663884Y-76985161D01*
X182504829Y-76999077D01*
X182501622Y-76999287D01*
X182498385Y-76999429D01*
X182495165Y-76999500D01*
X152004835Y-76999500D01*
X152001613Y-76999429D01*
X151998377Y-76999287D01*
X151995170Y-76999077D01*
X151836114Y-76985161D01*
X151829712Y-76984318D01*
X151823367Y-76983199D01*
X151817066Y-76981803D01*
X151667522Y-76941733D01*
X151661361Y-76939790D01*
X151655315Y-76937589D01*
X151649355Y-76935120D01*
X151509043Y-76869692D01*
X151503316Y-76866710D01*
X151497739Y-76863490D01*
X151492295Y-76860022D01*
X151365486Y-76771229D01*
X151360363Y-76767298D01*
X151355427Y-76763156D01*
X151350669Y-76758796D01*
X151241202Y-76649329D01*
X151236841Y-76644570D01*
X151232700Y-76639635D01*
X151228770Y-76634513D01*
X151228769Y-76634512D01*
X151139966Y-76507688D01*
X151136510Y-76502263D01*
X151133285Y-76496677D01*
X151130312Y-76490966D01*
X151124338Y-76478154D01*
X151064869Y-76350625D01*
X151062405Y-76344673D01*
X151060205Y-76338627D01*
X151058265Y-76332475D01*
X151050435Y-76303252D01*
X151050435Y-76303251D01*
X151018193Y-76182921D01*
X151016798Y-76176631D01*
X151015675Y-76170257D01*
X151014840Y-76163908D01*
X151000919Y-76004795D01*
X151000712Y-76001640D01*
X151000569Y-75998368D01*
X151000500Y-75995163D01*
X151000500Y-67967645D01*
X151006131Y-67939332D01*
X151008837Y-67932798D01*
X151048881Y-67892748D01*
X151105518Y-67892744D01*
X151139250Y-67920784D01*
X151139263Y-67920804D01*
X151147462Y-67937856D01*
X151158410Y-67970895D01*
X151178940Y-68032848D01*
X151271042Y-68182169D01*
X151395098Y-68306225D01*
X151544419Y-68398327D01*
X151710956Y-68453512D01*
X151813744Y-68464013D01*
X151813749Y-68464013D01*
X152813759Y-68464013D01*
X152813764Y-68464013D01*
X152916552Y-68453512D01*
X153083089Y-68398327D01*
X153187882Y-68333689D01*
X153214938Y-68323618D01*
X153226060Y-68321824D01*
X153281121Y-68334852D01*
X153281336Y-68335007D01*
X153309250Y-68374832D01*
X153310443Y-68379036D01*
X153313254Y-68399238D01*
X153313254Y-68406041D01*
X153321651Y-68448257D01*
X153344014Y-68560689D01*
X153344017Y-68560700D01*
X153344019Y-68560705D01*
X153404356Y-68706373D01*
X153491963Y-68837487D01*
X154159366Y-69504890D01*
X154165551Y-69511912D01*
X154185662Y-69537893D01*
X154255369Y-69605387D01*
X154393436Y-69741452D01*
X154397719Y-69746049D01*
X154515991Y-69884308D01*
X154521346Y-69891386D01*
X154549771Y-69934057D01*
X154554232Y-69941710D01*
X154571084Y-69975062D01*
X154575522Y-69985902D01*
X154578711Y-69995878D01*
X154581795Y-70010446D01*
X154586048Y-70049743D01*
X154588614Y-70063954D01*
X154589791Y-70077098D01*
X154589791Y-70329230D01*
X154590014Y-70330920D01*
X154600292Y-70431534D01*
X154600293Y-70431539D01*
X154631452Y-70525572D01*
X154633288Y-70532101D01*
X154638394Y-70554081D01*
X154640738Y-70564167D01*
X154641285Y-70565572D01*
X154726786Y-70785327D01*
X154728699Y-70790888D01*
X154744206Y-70842558D01*
X154744216Y-70885067D01*
X154720240Y-70965093D01*
X154718238Y-70970890D01*
X154641304Y-71166913D01*
X154619678Y-71236329D01*
X154619675Y-71236341D01*
X154618909Y-71239612D01*
X154618525Y-71241890D01*
X154618381Y-71241865D01*
X154618379Y-71241876D01*
X154618375Y-71241875D01*
X154615604Y-71254725D01*
X154600292Y-71300933D01*
X154589791Y-71403732D01*
X154589791Y-72454237D01*
X154590014Y-72455926D01*
X154600292Y-72556534D01*
X154600293Y-72556539D01*
X154631452Y-72650572D01*
X154633288Y-72657101D01*
X154635518Y-72666698D01*
X154640738Y-72689167D01*
X154653601Y-72722227D01*
X154726786Y-72910327D01*
X154728699Y-72915888D01*
X154766456Y-73041695D01*
X154768324Y-73076535D01*
X154759907Y-73121660D01*
X154758010Y-73129459D01*
X154735130Y-73205321D01*
X154733457Y-73210237D01*
X154687949Y-73330007D01*
X154677789Y-73371261D01*
X154676180Y-73376841D01*
X154649942Y-73456023D01*
X154639791Y-73555396D01*
X154639791Y-74152076D01*
X154639910Y-74153521D01*
X154640030Y-74154413D01*
X154646143Y-74214252D01*
X154649942Y-74251445D01*
X154649943Y-74251450D01*
X154654203Y-74264305D01*
X154696346Y-74391487D01*
X154703287Y-74412432D01*
X154777374Y-74532546D01*
X154777375Y-74532547D01*
X154777374Y-74532547D01*
X154790525Y-74553866D01*
X154792323Y-74556781D01*
X154912247Y-74676705D01*
X155056594Y-74765740D01*
X155217583Y-74819086D01*
X155316946Y-74829237D01*
X155863635Y-74829236D01*
X155962999Y-74819086D01*
X156123988Y-74765740D01*
X156268335Y-74676705D01*
X156388259Y-74556781D01*
X156477294Y-74412434D01*
X156530640Y-74251445D01*
X156540791Y-74152082D01*
X156540790Y-73555393D01*
X156530640Y-73456029D01*
X156501676Y-73368621D01*
X156499708Y-73361509D01*
X156492711Y-73330203D01*
X156446667Y-73208874D01*
X156444979Y-73203899D01*
X156423249Y-73131429D01*
X156421169Y-73122515D01*
X156413314Y-73075914D01*
X156415397Y-73042382D01*
X156459977Y-72893596D01*
X156459976Y-72893595D01*
X156460349Y-72892351D01*
X156462345Y-72886574D01*
X156539273Y-72690569D01*
X156560901Y-72621147D01*
X156561667Y-72617876D01*
X156561667Y-72617868D01*
X156562054Y-72615584D01*
X156562206Y-72615609D01*
X156564974Y-72602753D01*
X156578197Y-72562850D01*
X156580290Y-72556534D01*
X156590791Y-72453746D01*
X156590790Y-71403729D01*
X156580290Y-71300940D01*
X156549122Y-71206882D01*
X156547291Y-71200369D01*
X156539843Y-71168308D01*
X156539843Y-71168306D01*
X156453789Y-70947134D01*
X156451880Y-70941584D01*
X156447831Y-70928092D01*
X156436372Y-70889913D01*
X156436364Y-70847405D01*
X156460350Y-70767352D01*
X156462347Y-70761566D01*
X156539273Y-70565569D01*
X156560901Y-70496147D01*
X156561667Y-70492876D01*
X156561667Y-70492868D01*
X156562054Y-70490584D01*
X156562206Y-70490609D01*
X156564974Y-70477753D01*
X156580287Y-70431542D01*
X156580288Y-70431539D01*
X156580290Y-70431534D01*
X156590791Y-70328746D01*
X156590791Y-70089218D01*
X156596420Y-70060909D01*
X156600734Y-70050494D01*
X156640773Y-70010448D01*
X156651202Y-70006128D01*
X156679510Y-70000500D01*
X160976518Y-70000500D01*
X160994495Y-70002717D01*
X161015011Y-70007855D01*
X161025352Y-70011271D01*
X161145183Y-70060906D01*
X161166503Y-70069737D01*
X161321158Y-70100500D01*
X161321160Y-70100500D01*
X161478840Y-70100500D01*
X161478842Y-70100500D01*
X161633497Y-70069737D01*
X161774653Y-70011268D01*
X161784988Y-70007855D01*
X161805504Y-70002717D01*
X161823481Y-70000500D01*
X169915693Y-70000500D01*
X169915694Y-70000500D01*
X169952569Y-69997598D01*
X170110398Y-69951744D01*
X170251865Y-69868081D01*
X170368081Y-69751865D01*
X170451744Y-69610398D01*
X170497598Y-69452569D01*
X170500500Y-69415694D01*
X170500500Y-68984306D01*
X170497598Y-68947431D01*
X170451744Y-68789602D01*
X170368081Y-68648135D01*
X170251865Y-68531919D01*
X170238870Y-68524233D01*
X170238855Y-68524224D01*
X170238835Y-68524212D01*
X170110400Y-68448256D01*
X169952572Y-68402402D01*
X169944375Y-68401757D01*
X169927985Y-68400467D01*
X169927983Y-68400466D01*
X169915695Y-68399500D01*
X169915694Y-68399500D01*
X169915693Y-68399500D01*
X164231626Y-68399500D01*
X164203311Y-68393868D01*
X164192902Y-68389557D01*
X164152853Y-68349513D01*
X164150007Y-68342643D01*
X164145010Y-68304673D01*
X164155500Y-68225000D01*
X164155500Y-67189218D01*
X164161129Y-67160909D01*
X164165443Y-67150494D01*
X164205482Y-67110448D01*
X164215911Y-67106128D01*
X164244219Y-67100500D01*
X168925828Y-67100500D01*
X168954141Y-67106131D01*
G37*
%TD.AperFunction*%
%TA.AperFunction,Conductor*%
G36*
X182498366Y-60900569D02*
G01*
X182501643Y-60900712D01*
X182504792Y-60900919D01*
X182538301Y-60903851D01*
X182599214Y-60909180D01*
X182663887Y-60914838D01*
X182670274Y-60915678D01*
X182673684Y-60916278D01*
X182676623Y-60916796D01*
X182682918Y-60918191D01*
X182832479Y-60958266D01*
X182838630Y-60960206D01*
X182844682Y-60962409D01*
X182850644Y-60964878D01*
X182990966Y-61030312D01*
X182996677Y-61033285D01*
X183002263Y-61036510D01*
X183007688Y-61039966D01*
X183134518Y-61128774D01*
X183139635Y-61132700D01*
X183144571Y-61136842D01*
X183149329Y-61141202D01*
X183258796Y-61250669D01*
X183263156Y-61255427D01*
X183267298Y-61260363D01*
X183271229Y-61265486D01*
X183360022Y-61392295D01*
X183363490Y-61397739D01*
X183366710Y-61403316D01*
X183369692Y-61409043D01*
X183435120Y-61549355D01*
X183437589Y-61555315D01*
X183439790Y-61561361D01*
X183441733Y-61567522D01*
X183481803Y-61717066D01*
X183483199Y-61723367D01*
X183484318Y-61729712D01*
X183485161Y-61736114D01*
X183499077Y-61895169D01*
X183499288Y-61898377D01*
X183499429Y-61901592D01*
X183499500Y-61904834D01*
X183499500Y-72063550D01*
X183493864Y-72091875D01*
X183490815Y-72099234D01*
X183450763Y-72139279D01*
X183394127Y-72139274D01*
X183392351Y-72138538D01*
X183360455Y-72113178D01*
X183359404Y-72111707D01*
X183359402Y-72111703D01*
X183359397Y-72111696D01*
X183358424Y-72110399D01*
X182909400Y-71511700D01*
X182853153Y-71446847D01*
X182727750Y-71350622D01*
X182691255Y-71335505D01*
X182581714Y-71290131D01*
X182461461Y-71274300D01*
X182461461Y-71274299D01*
X182429240Y-71270058D01*
X182425000Y-71269500D01*
X182424999Y-71269500D01*
X179025016Y-71269500D01*
X179025000Y-71269500D01*
X178994948Y-71270333D01*
X178994938Y-71270333D01*
X178992445Y-71270403D01*
X178991587Y-71270415D01*
X178991408Y-71270431D01*
X178836084Y-71299725D01*
X178761673Y-71335505D01*
X178693625Y-71368225D01*
X178573764Y-71471246D01*
X178573760Y-71471250D01*
X178148758Y-71946252D01*
X178075620Y-72047252D01*
X178015130Y-72193286D01*
X178014499Y-72196460D01*
X178014498Y-72198095D01*
X177999788Y-72309830D01*
X177990509Y-72337168D01*
X177988791Y-72340144D01*
X177943859Y-72374625D01*
X177887706Y-72367235D01*
X177854618Y-72326899D01*
X177854415Y-72326300D01*
X177850500Y-72302548D01*
X177850500Y-72060423D01*
X177850637Y-72055918D01*
X177852767Y-72020992D01*
X177850748Y-71996392D01*
X177850500Y-71990339D01*
X177850500Y-71088881D01*
X177850499Y-71088852D01*
X177850499Y-70601663D01*
X177850499Y-70601656D01*
X177840349Y-70502292D01*
X177811984Y-70416695D01*
X177810017Y-70409585D01*
X177802895Y-70377718D01*
X177756379Y-70255145D01*
X177754688Y-70250161D01*
X177732958Y-70177692D01*
X177730877Y-70168766D01*
X177708669Y-70037032D01*
X177707688Y-70027386D01*
X177705581Y-69968269D01*
X177701958Y-69923263D01*
X177701957Y-69923259D01*
X177701618Y-69921328D01*
X177700500Y-69908514D01*
X177700500Y-69903752D01*
X177700606Y-69899786D01*
X177701057Y-69891386D01*
X177702353Y-69867245D01*
X177700794Y-69849806D01*
X177700500Y-69843218D01*
X177700500Y-69835527D01*
X177706131Y-69807213D01*
X177716542Y-69782078D01*
X177728441Y-69764280D01*
X177727712Y-69763709D01*
X177730468Y-69760190D01*
X177730469Y-69760187D01*
X177730472Y-69760185D01*
X177818478Y-69614606D01*
X177869086Y-69452196D01*
X177875500Y-69381616D01*
X177875500Y-68868384D01*
X177869086Y-68797804D01*
X177818478Y-68635394D01*
X177730472Y-68489815D01*
X177610185Y-68369528D01*
X177553081Y-68335007D01*
X177464607Y-68281522D01*
X177464601Y-68281520D01*
X177302930Y-68231142D01*
X177302247Y-68230922D01*
X177302194Y-68230913D01*
X177302193Y-68230913D01*
X177302192Y-68230913D01*
X177300888Y-68230701D01*
X177298846Y-68230609D01*
X177289425Y-68229752D01*
X177231628Y-68224500D01*
X177231623Y-68224500D01*
X177231616Y-68224500D01*
X177128911Y-68224500D01*
X177110478Y-68222167D01*
X177105181Y-68220805D01*
X177105180Y-68220804D01*
X177105177Y-68220804D01*
X177096768Y-68219884D01*
X177062063Y-68206721D01*
X177027378Y-68182168D01*
X177021070Y-68177702D01*
X177012567Y-68170676D01*
X176898262Y-68060893D01*
X176895595Y-68058197D01*
X176871774Y-68032847D01*
X176859858Y-68020166D01*
X176859769Y-68020071D01*
X176857318Y-68017482D01*
X176796681Y-67953856D01*
X176791058Y-67948048D01*
X176790882Y-67947870D01*
X176790878Y-67947866D01*
X176781454Y-67939332D01*
X176747737Y-67908797D01*
X176747730Y-67908792D01*
X176744751Y-67906594D01*
X176744949Y-67906325D01*
X176734841Y-67898473D01*
X176472111Y-67635743D01*
X176466424Y-67629358D01*
X176444943Y-67602232D01*
X176444942Y-67602231D01*
X176391730Y-67551837D01*
X176391436Y-67551556D01*
X176371892Y-67532787D01*
X176305166Y-67468706D01*
X176300088Y-67463316D01*
X176275496Y-67434443D01*
X176263463Y-67414775D01*
X176256132Y-67397074D01*
X176250500Y-67368759D01*
X176250500Y-67243391D01*
X176250498Y-67243364D01*
X176250494Y-67243322D01*
X176244390Y-67176153D01*
X176244302Y-67174224D01*
X176244087Y-67172810D01*
X176244086Y-67172806D01*
X176244086Y-67172804D01*
X176193478Y-67010394D01*
X176105472Y-66864815D01*
X175985185Y-66744528D01*
X175875208Y-66678044D01*
X175839607Y-66656522D01*
X175839601Y-66656520D01*
X175677930Y-66606142D01*
X175677247Y-66605922D01*
X175677194Y-66605913D01*
X175677193Y-66605913D01*
X175677192Y-66605913D01*
X175675888Y-66605701D01*
X175673846Y-66605609D01*
X175664425Y-66604752D01*
X175606628Y-66599500D01*
X175606623Y-66599500D01*
X175606616Y-66599500D01*
X174943384Y-66599500D01*
X174943376Y-66599500D01*
X174943370Y-66599500D01*
X174884601Y-66604841D01*
X174876153Y-66605609D01*
X174872773Y-66605762D01*
X174869589Y-66606915D01*
X174721148Y-66653171D01*
X174710927Y-66654726D01*
X174702700Y-66661172D01*
X174564813Y-66744528D01*
X174444528Y-66864813D01*
X174356523Y-67010392D01*
X174356519Y-67010400D01*
X174322543Y-67119436D01*
X174322544Y-67119437D01*
X174305913Y-67172807D01*
X174305696Y-67174237D01*
X174305609Y-67176155D01*
X174299500Y-67243370D01*
X174299500Y-67756630D01*
X174305911Y-67827179D01*
X174305911Y-67827182D01*
X174305913Y-67827190D01*
X174305914Y-67827196D01*
X174316503Y-67861179D01*
X174330066Y-67904708D01*
X174346311Y-67956839D01*
X174349358Y-67985555D01*
X174348338Y-67996774D01*
X174322015Y-68046923D01*
X174322014Y-68046924D01*
X174318823Y-68049583D01*
X174269941Y-68066718D01*
X173764511Y-68056403D01*
X173737006Y-68050492D01*
X173712554Y-68040070D01*
X173689243Y-68024322D01*
X173562778Y-67897857D01*
X173528514Y-67874962D01*
X173522687Y-67870641D01*
X173521593Y-67869744D01*
X173517097Y-67866053D01*
X173511718Y-67861179D01*
X172780382Y-67129844D01*
X172764342Y-67105838D01*
X172760031Y-67095431D01*
X172760029Y-67038796D01*
X172761292Y-67035746D01*
X172801337Y-66995698D01*
X172867562Y-66968267D01*
X172890131Y-66958919D01*
X172904007Y-66954710D01*
X172907900Y-66953936D01*
X172918032Y-66951921D01*
X172932467Y-66950499D01*
X173169810Y-66950499D01*
X173197246Y-66950554D01*
X173197252Y-66950553D01*
X173198092Y-66950555D01*
X173200237Y-66950499D01*
X173273337Y-66950499D01*
X173273344Y-66950499D01*
X173372708Y-66940349D01*
X173533697Y-66887003D01*
X173678044Y-66797968D01*
X173797968Y-66678044D01*
X173887003Y-66533697D01*
X173940349Y-66372708D01*
X173950500Y-66273345D01*
X173950499Y-65676656D01*
X173940349Y-65577292D01*
X173887003Y-65416303D01*
X173797968Y-65271956D01*
X173678044Y-65152032D01*
X173678043Y-65152031D01*
X173678042Y-65152030D01*
X173583600Y-65093778D01*
X173533695Y-65062996D01*
X173453202Y-65036323D01*
X173372711Y-65009651D01*
X173354512Y-65007792D01*
X173336314Y-65005933D01*
X173336312Y-65005932D01*
X173284132Y-65000602D01*
X173273345Y-64999500D01*
X173273343Y-64999500D01*
X172720238Y-64999500D01*
X172715871Y-65000602D01*
X172682027Y-65004059D01*
X172676974Y-65004576D01*
X172627289Y-65009651D01*
X172466305Y-65062995D01*
X172321956Y-65152030D01*
X172202034Y-65271953D01*
X172202031Y-65271956D01*
X172112993Y-65416308D01*
X172109175Y-65427832D01*
X172094917Y-65452945D01*
X172087551Y-65461467D01*
X172036940Y-65486881D01*
X172025705Y-65487699D01*
X171997055Y-65484138D01*
X171847712Y-65434651D01*
X171825628Y-65432395D01*
X171814587Y-65431267D01*
X171814586Y-65431266D01*
X171760622Y-65425754D01*
X171748345Y-65424500D01*
X171748343Y-65424500D01*
X171670066Y-65424500D01*
X171657575Y-65423438D01*
X171632971Y-65419224D01*
X171632974Y-65419224D01*
X171557565Y-65417202D01*
X171542644Y-65415272D01*
X171530929Y-65412523D01*
X171484938Y-65379468D01*
X171479652Y-65368657D01*
X171479447Y-65368743D01*
X171478981Y-65367619D01*
X171452369Y-65308816D01*
X171450438Y-65305508D01*
X171450507Y-65305467D01*
X171443814Y-65293564D01*
X171434396Y-65270825D01*
X171434395Y-65270823D01*
X171434394Y-65270821D01*
X171346789Y-65139711D01*
X171235289Y-65028211D01*
X171224735Y-65021159D01*
X171224732Y-65021157D01*
X171176625Y-64989013D01*
X171167171Y-64982696D01*
X171145285Y-64968072D01*
X171135639Y-64953635D01*
X170958505Y-64880265D01*
X170958500Y-64880263D01*
X170958489Y-64880260D01*
X170854925Y-64859661D01*
X170854924Y-64859660D01*
X170803842Y-64849500D01*
X170646158Y-64849500D01*
X170602314Y-64858219D01*
X170602315Y-64858220D01*
X170491511Y-64880259D01*
X170491493Y-64880265D01*
X170345825Y-64940602D01*
X170214441Y-65028390D01*
X170213065Y-65029856D01*
X170108922Y-65133998D01*
X170108909Y-65134012D01*
X170103212Y-65139710D01*
X170103208Y-65139713D01*
X170087763Y-65162828D01*
X170043260Y-65229432D01*
X170022842Y-65249848D01*
X170013476Y-65256106D01*
X169969565Y-65264840D01*
X169966952Y-65266164D01*
X169965424Y-65265663D01*
X169957927Y-65267155D01*
X169952945Y-65266164D01*
X169946878Y-65264957D01*
X169920206Y-65253909D01*
X169902243Y-65241907D01*
X169895034Y-65231118D01*
X169859529Y-65213366D01*
X169859512Y-65213358D01*
X169784112Y-65182127D01*
X169737519Y-65162828D01*
X169737516Y-65162826D01*
X169677457Y-65137949D01*
X169677281Y-65137898D01*
X169676343Y-65137727D01*
X169674516Y-65137364D01*
X169647822Y-65126310D01*
X169634984Y-65117731D01*
X169605285Y-65077682D01*
X169603686Y-65072410D01*
X169600500Y-65050932D01*
X169600500Y-65021159D01*
X169597471Y-65005932D01*
X169569738Y-64866508D01*
X169569737Y-64866507D01*
X169569737Y-64866503D01*
X169509394Y-64720821D01*
X169421789Y-64589711D01*
X169407580Y-64575502D01*
X169391540Y-64551496D01*
X169381130Y-64526364D01*
X169375499Y-64498050D01*
X169375499Y-64401663D01*
X169375499Y-64401656D01*
X169365349Y-64302292D01*
X169312003Y-64141303D01*
X169222968Y-63996956D01*
X169103044Y-63877032D01*
X169103043Y-63877031D01*
X169103042Y-63877030D01*
X169047017Y-63842474D01*
X168958695Y-63787996D01*
X168905033Y-63770214D01*
X168797712Y-63734651D01*
X168778782Y-63732717D01*
X168769318Y-63731750D01*
X168769317Y-63731749D01*
X168709133Y-63725602D01*
X168698345Y-63724500D01*
X168698343Y-63724500D01*
X168095238Y-63724500D01*
X168090871Y-63725602D01*
X168057027Y-63729059D01*
X168051974Y-63729576D01*
X168002289Y-63734651D01*
X167841305Y-63787995D01*
X167696956Y-63877030D01*
X167577030Y-63996956D01*
X167487996Y-64141304D01*
X167434651Y-64302288D01*
X167424500Y-64401659D01*
X167424500Y-64948837D01*
X167424723Y-64950526D01*
X167430118Y-65003339D01*
X167427393Y-65032079D01*
X167424622Y-65041339D01*
X167424163Y-65042871D01*
X167388392Y-65086783D01*
X167381248Y-65090635D01*
X167346129Y-65099500D01*
X165445508Y-65099500D01*
X165417193Y-65093868D01*
X165406784Y-65089557D01*
X165366735Y-65049513D01*
X165364677Y-65044545D01*
X165359892Y-65005106D01*
X165362643Y-64987028D01*
X165361488Y-64982697D01*
X165365791Y-64935353D01*
X165365791Y-64272121D01*
X165359377Y-64201541D01*
X165308769Y-64039131D01*
X165244791Y-63933300D01*
X165234963Y-63906155D01*
X165232498Y-63889961D01*
X165241199Y-63842474D01*
X165243206Y-63838914D01*
X165255332Y-63822945D01*
X165336722Y-63741557D01*
X165425757Y-63597210D01*
X165479103Y-63436221D01*
X165489254Y-63336858D01*
X165489253Y-63257500D01*
X165489514Y-63251288D01*
X165490386Y-63240938D01*
X165493933Y-63198840D01*
X165493062Y-63137710D01*
X165494557Y-63121819D01*
X165507231Y-63059905D01*
X165510932Y-63047491D01*
X165553021Y-62941302D01*
X165558260Y-62930665D01*
X165625132Y-62818596D01*
X165631937Y-62809017D01*
X165676115Y-62756270D01*
X165686029Y-62742078D01*
X165694357Y-62732142D01*
X165828084Y-62598415D01*
X165842549Y-62587162D01*
X165846136Y-62585027D01*
X165957487Y-62495003D01*
X165964985Y-62489678D01*
X166016934Y-62457456D01*
X166022385Y-62454388D01*
X166091522Y-62419268D01*
X166097522Y-62416552D01*
X166154896Y-62393622D01*
X166162001Y-62391194D01*
X166212956Y-62376632D01*
X166221102Y-62374795D01*
X166232799Y-62372847D01*
X166232798Y-62372846D01*
X166240852Y-62371505D01*
X166250101Y-62370556D01*
X166281868Y-62369308D01*
X166315356Y-62364702D01*
X166325438Y-62364013D01*
X166420368Y-62364013D01*
X166420370Y-62364013D01*
X166490950Y-62357599D01*
X166653360Y-62306991D01*
X166798939Y-62218985D01*
X166919226Y-62098698D01*
X167007232Y-61953119D01*
X167057840Y-61790709D01*
X167064254Y-61720129D01*
X167064254Y-61206897D01*
X167057840Y-61136317D01*
X167023722Y-61026826D01*
X167018654Y-61010564D01*
X167015608Y-60981860D01*
X167016628Y-60970635D01*
X167042947Y-60920488D01*
X167046354Y-60917648D01*
X167093724Y-60900500D01*
X182495164Y-60900500D01*
X182498366Y-60900569D01*
G37*
%TD.AperFunction*%
%TA.AperFunction,Conductor*%
G36*
X159515345Y-65344642D02*
G01*
X159525757Y-65348955D01*
X159565806Y-65388997D01*
X159570121Y-65399413D01*
X159575754Y-65427731D01*
X159575754Y-66304205D01*
X159578656Y-66341084D01*
X159624511Y-66498917D01*
X159626357Y-66503181D01*
X159625268Y-66503652D01*
X159631859Y-66522405D01*
X159633446Y-66533558D01*
X159619359Y-66588416D01*
X159619329Y-66588456D01*
X159618938Y-66588976D01*
X159579336Y-66615876D01*
X159575689Y-66616873D01*
X159556152Y-66619500D01*
X157560516Y-66619500D01*
X157427163Y-66634368D01*
X157327646Y-66671031D01*
X157299129Y-66675535D01*
X157287872Y-66675088D01*
X157236448Y-66651355D01*
X157233886Y-66648581D01*
X157214254Y-66598380D01*
X157214254Y-66295907D01*
X157219883Y-66267598D01*
X157224197Y-66257183D01*
X157264236Y-66217137D01*
X157265932Y-66216434D01*
X157313525Y-66213369D01*
X157340330Y-66220609D01*
X157344268Y-66221792D01*
X157441046Y-66253862D01*
X157540409Y-66264013D01*
X158137098Y-66264012D01*
X158236462Y-66253862D01*
X158397451Y-66200516D01*
X158541798Y-66111481D01*
X158661722Y-65991557D01*
X158750757Y-65847210D01*
X158804103Y-65686221D01*
X158814254Y-65586858D01*
X158814253Y-65514915D01*
X158814750Y-65506351D01*
X158819500Y-65465584D01*
X158819560Y-65462207D01*
X158829856Y-65425843D01*
X158850274Y-65391327D01*
X158857205Y-65381525D01*
X158870603Y-65365517D01*
X158920807Y-65339303D01*
X158927349Y-65339013D01*
X159487035Y-65339013D01*
X159515345Y-65344642D01*
G37*
%TD.AperFunction*%
%TD*%
%TA.AperFunction,Conductor*%
%TO.N,+3.3V*%
G36*
X170816621Y-65598983D02*
G01*
X170900978Y-65670857D01*
X171097146Y-65792007D01*
X171302136Y-65878066D01*
X171484806Y-65920933D01*
X171619425Y-65924544D01*
X171627602Y-65928192D01*
X171630806Y-65936554D01*
X171629928Y-65940697D01*
X171452735Y-66370783D01*
X171446415Y-66377127D01*
X171445661Y-66377411D01*
X170992091Y-66530622D01*
X170983157Y-66530023D01*
X170977262Y-66523281D01*
X170976699Y-66518435D01*
X170976704Y-66518374D01*
X170979747Y-66486213D01*
X170977166Y-66394870D01*
X170962343Y-66300707D01*
X170931633Y-66188796D01*
X170889519Y-66079320D01*
X170889517Y-66079315D01*
X170889511Y-66079302D01*
X170835627Y-65969390D01*
X170835621Y-65969379D01*
X170835620Y-65969378D01*
X170835616Y-65969369D01*
X170775951Y-65870221D01*
X170673487Y-65741572D01*
X170671014Y-65732967D01*
X170674366Y-65726012D01*
X170800762Y-65599616D01*
X170809034Y-65596190D01*
X170816621Y-65598983D01*
G37*
%TD.AperFunction*%
%TD*%
%TA.AperFunction,Conductor*%
%TO.N,+3.3V*%
G36*
X170999825Y-65539826D02*
G01*
X171006088Y-65546227D01*
X171006250Y-65546656D01*
X171041179Y-65644614D01*
X171041477Y-65645581D01*
X171063587Y-65730029D01*
X171063630Y-65730195D01*
X171072319Y-65765493D01*
X171111908Y-65869262D01*
X171111910Y-65869266D01*
X171151294Y-65927164D01*
X171153200Y-65929965D01*
X171210689Y-65993485D01*
X171213699Y-66001918D01*
X171210287Y-66009609D01*
X171084560Y-66135336D01*
X171076287Y-66138763D01*
X171068490Y-66135786D01*
X170997778Y-66072577D01*
X170997767Y-66072568D01*
X170931663Y-66030183D01*
X170931658Y-66030180D01*
X170870193Y-66005647D01*
X170870185Y-66005644D01*
X170805076Y-65988600D01*
X170778826Y-65982221D01*
X170777955Y-65981973D01*
X170622075Y-65931045D01*
X170615276Y-65925219D01*
X170614588Y-65916290D01*
X170614845Y-65915579D01*
X170720616Y-65652114D01*
X170726879Y-65645714D01*
X170727084Y-65645628D01*
X170990872Y-65539728D01*
X170999825Y-65539826D01*
G37*
%TD.AperFunction*%
%TD*%
%TA.AperFunction,Conductor*%
%TO.N,5V*%
G36*
X153013842Y-65179957D02*
G01*
X153017138Y-65186521D01*
X153029566Y-65270983D01*
X153029567Y-65270988D01*
X153052954Y-65325807D01*
X153052955Y-65325810D01*
X153085133Y-65373475D01*
X153085135Y-65373478D01*
X153085137Y-65373480D01*
X153133605Y-65422021D01*
X153190559Y-65461759D01*
X153276293Y-65502720D01*
X153345902Y-65524548D01*
X153367556Y-65531339D01*
X153367557Y-65531339D01*
X153367563Y-65531341D01*
X153515767Y-65556992D01*
X153636515Y-65563406D01*
X153640366Y-65564280D01*
X153741466Y-65606157D01*
X153848493Y-65650490D01*
X153852289Y-65653026D01*
X153875418Y-65676154D01*
X153895574Y-65696311D01*
X153899001Y-65704583D01*
X153895574Y-65712856D01*
X153501620Y-66106809D01*
X153501620Y-66106810D01*
X153593553Y-66144890D01*
X153599885Y-66151222D01*
X153599885Y-66160176D01*
X153593553Y-66166508D01*
X153590002Y-66167362D01*
X153453763Y-66178173D01*
X153453762Y-66178173D01*
X153292217Y-66218395D01*
X153292216Y-66218395D01*
X153169817Y-66278219D01*
X153084632Y-66354166D01*
X153032458Y-66447354D01*
X153018592Y-66502194D01*
X153015747Y-66538243D01*
X153011680Y-66546220D01*
X153003162Y-66548986D01*
X152995816Y-66545601D01*
X152988447Y-66538243D01*
X152321043Y-65871791D01*
X152317610Y-65863520D01*
X152321029Y-65855248D01*
X152997298Y-65179943D01*
X153005571Y-65176524D01*
X153013842Y-65179957D01*
G37*
%TD.AperFunction*%
%TD*%
%TA.AperFunction,Conductor*%
%TO.N,5V*%
G36*
X154961106Y-68750657D02*
G01*
X154961253Y-68750808D01*
X155007154Y-68798783D01*
X155071943Y-68864139D01*
X155141973Y-68934782D01*
X155141980Y-68934788D01*
X155271107Y-69035904D01*
X155271110Y-69035905D01*
X155271112Y-69035907D01*
X155326453Y-69062413D01*
X155381791Y-69088918D01*
X155381792Y-69088918D01*
X155381794Y-69088919D01*
X155479896Y-69102413D01*
X155558178Y-69082376D01*
X155567040Y-69083645D01*
X155572412Y-69090810D01*
X155572773Y-69093411D01*
X155590791Y-69796395D01*
X155587577Y-69804753D01*
X155583554Y-69807512D01*
X155104704Y-70004901D01*
X155095749Y-70004886D01*
X155089428Y-69998543D01*
X155088613Y-69995343D01*
X155078055Y-69897807D01*
X155078054Y-69897804D01*
X155078054Y-69897802D01*
X155043021Y-69788180D01*
X154989736Y-69682719D01*
X154922745Y-69582160D01*
X154765822Y-69398717D01*
X154608610Y-69243785D01*
X154537294Y-69174733D01*
X154533736Y-69166518D01*
X154537028Y-69158190D01*
X154944561Y-68750656D01*
X154952833Y-68747230D01*
X154961106Y-68750657D01*
G37*
%TD.AperFunction*%
%TD*%
%TA.AperFunction,Conductor*%
%TO.N,/USART1_TX*%
G36*
X169846222Y-73236091D02*
G01*
X169870809Y-73246209D01*
X169877156Y-73252527D01*
X169877177Y-73261481D01*
X169873147Y-73266557D01*
X169830580Y-73296892D01*
X169830305Y-73297082D01*
X169788842Y-73324877D01*
X169735930Y-73369551D01*
X169733388Y-73387549D01*
X169730076Y-73394186D01*
X169599043Y-73525219D01*
X169590770Y-73528646D01*
X169583201Y-73525868D01*
X169468964Y-73428959D01*
X169468963Y-73428958D01*
X169304020Y-73327015D01*
X169304018Y-73327014D01*
X169304019Y-73327014D01*
X169153613Y-73268228D01*
X169153614Y-73268228D01*
X169040621Y-73252121D01*
X169032914Y-73247561D01*
X169030689Y-73238887D01*
X169031447Y-73236098D01*
X169144844Y-72960119D01*
X169151158Y-72953770D01*
X169160111Y-72953745D01*
X169846222Y-73236091D01*
G37*
%TD.AperFunction*%
%TD*%
%TA.AperFunction,Conductor*%
%TO.N,/USART1_TX*%
G36*
X170664394Y-74322984D02*
G01*
X170664400Y-74322990D01*
X170670030Y-74328628D01*
X170670042Y-74328639D01*
X170756757Y-74411380D01*
X170756760Y-74411382D01*
X170756763Y-74411384D01*
X170836260Y-74459122D01*
X170836263Y-74459123D01*
X170910549Y-74472013D01*
X171001749Y-74468041D01*
X171010162Y-74471105D01*
X171013946Y-74479221D01*
X171013956Y-74479856D01*
X171010440Y-74805395D01*
X171006924Y-74813631D01*
X171006747Y-74813801D01*
X170840376Y-74969919D01*
X170831998Y-74973081D01*
X170823838Y-74969393D01*
X170823601Y-74969133D01*
X170765397Y-74903242D01*
X170764364Y-74901884D01*
X170721962Y-74836820D01*
X170720923Y-74834833D01*
X170673286Y-74717495D01*
X170673028Y-74716797D01*
X170672012Y-74713752D01*
X170664766Y-74692031D01*
X170664763Y-74692024D01*
X170614469Y-74580134D01*
X170614464Y-74580126D01*
X170609561Y-74573106D01*
X170573544Y-74521531D01*
X170528996Y-74472012D01*
X170522128Y-74464377D01*
X170519142Y-74455934D01*
X170522552Y-74448280D01*
X170647849Y-74322983D01*
X170656121Y-74319557D01*
X170664394Y-74322984D01*
G37*
%TD.AperFunction*%
%TD*%
%TA.AperFunction,Conductor*%
%TO.N,/USART1_RX*%
G36*
X171829501Y-73013446D02*
G01*
X171833116Y-73015650D01*
X171867924Y-73046764D01*
X171902220Y-73077422D01*
X171902231Y-73077431D01*
X171902233Y-73077432D01*
X171902246Y-73077441D01*
X171952644Y-73109754D01*
X171968255Y-73119764D01*
X171968423Y-73119873D01*
X171968849Y-73120021D01*
X172029354Y-73144171D01*
X172029494Y-73144234D01*
X172029548Y-73144254D01*
X172029826Y-73144366D01*
X172030098Y-73144429D01*
X172094897Y-73161392D01*
X172121000Y-73167735D01*
X172121373Y-73167833D01*
X172121848Y-73167969D01*
X172122226Y-73168085D01*
X172275713Y-73218231D01*
X172279687Y-73220465D01*
X172281041Y-73221625D01*
X172285095Y-73229608D01*
X172285206Y-73231044D01*
X172284398Y-73236300D01*
X172180250Y-73495723D01*
X172177756Y-73499546D01*
X172174836Y-73502531D01*
X172170831Y-73505207D01*
X171911285Y-73609404D01*
X171906801Y-73610245D01*
X171905022Y-73610226D01*
X171896786Y-73606711D01*
X171896781Y-73606706D01*
X171895687Y-73605587D01*
X171893033Y-73601337D01*
X171858904Y-73505621D01*
X171858749Y-73505157D01*
X171858585Y-73504624D01*
X171858456Y-73504169D01*
X171856245Y-73495723D01*
X171836392Y-73419897D01*
X171827681Y-73384512D01*
X171827680Y-73384509D01*
X171827679Y-73384505D01*
X171817206Y-73357055D01*
X171788096Y-73280751D01*
X171788088Y-73280731D01*
X171788087Y-73280730D01*
X171788086Y-73280729D01*
X171788085Y-73280726D01*
X171747234Y-73220671D01*
X171747229Y-73220661D01*
X171746993Y-73220317D01*
X171746807Y-73220043D01*
X171746804Y-73220039D01*
X171746802Y-73220037D01*
X171746801Y-73220035D01*
X171746800Y-73220033D01*
X171746796Y-73220028D01*
X171746729Y-73219952D01*
X171746704Y-73219923D01*
X171746630Y-73219846D01*
X171699728Y-73168025D01*
X171690870Y-73158238D01*
X171688529Y-73154326D01*
X171687871Y-73152482D01*
X171688194Y-73143808D01*
X171688830Y-73142376D01*
X171691247Y-73138854D01*
X171813796Y-73016305D01*
X171817585Y-73013773D01*
X171819414Y-73013015D01*
X171828065Y-73012898D01*
X171829501Y-73013446D01*
G37*
%TD.AperFunction*%
%TD*%
%TA.AperFunction,Conductor*%
%TO.N,/USART1_RX*%
G36*
X169911630Y-71413475D02*
G01*
X169911927Y-71413614D01*
X170024295Y-71468164D01*
X170025197Y-71468652D01*
X170116811Y-71523568D01*
X170220484Y-71582027D01*
X170290879Y-71597938D01*
X170298193Y-71603104D01*
X170300000Y-71609350D01*
X170300000Y-71789730D01*
X170296573Y-71798003D01*
X170289817Y-71801331D01*
X170255507Y-71805817D01*
X170211725Y-71821882D01*
X170116800Y-71876437D01*
X170068682Y-71906105D01*
X170067867Y-71906564D01*
X169912031Y-71986216D01*
X169903105Y-71986930D01*
X169902545Y-71986733D01*
X169384813Y-71789730D01*
X169177736Y-71710934D01*
X169171223Y-71704790D01*
X169170963Y-71695839D01*
X169177108Y-71689325D01*
X169177730Y-71689067D01*
X169902680Y-71413215D01*
X169911630Y-71413475D01*
G37*
%TD.AperFunction*%
%TD*%
%TA.AperFunction,Conductor*%
%TO.N,5V*%
G36*
X156538029Y-68903427D02*
G01*
X156541456Y-68911700D01*
X156541456Y-69478450D01*
X156538029Y-69486723D01*
X156529756Y-69490150D01*
X156523383Y-69488262D01*
X156406160Y-69412132D01*
X156353332Y-69462256D01*
X156235526Y-69581799D01*
X156235522Y-69581804D01*
X156156911Y-69700193D01*
X156156909Y-69700198D01*
X156107575Y-69839038D01*
X156094539Y-69919823D01*
X156091066Y-69994235D01*
X156087257Y-70002339D01*
X156078833Y-70005376D01*
X156074920Y-70004506D01*
X155597027Y-69807512D01*
X155590684Y-69801191D01*
X155589790Y-69796395D01*
X155592256Y-69700193D01*
X155607753Y-69095554D01*
X155611391Y-69087375D01*
X155619749Y-69084161D01*
X155623799Y-69084996D01*
X155679774Y-69107435D01*
X155740631Y-69120938D01*
X155791315Y-69121663D01*
X155792062Y-69121674D01*
X155792062Y-69121673D01*
X155792063Y-69121674D01*
X155813722Y-69116870D01*
X155835379Y-69112068D01*
X155835379Y-69112067D01*
X155835382Y-69112067D01*
X155902914Y-69071535D01*
X155953701Y-69018754D01*
X155980141Y-68989789D01*
X155984302Y-68986871D01*
X156182825Y-68904640D01*
X156191877Y-68900891D01*
X156196354Y-68900000D01*
X156529756Y-68900000D01*
X156538029Y-68903427D01*
G37*
%TD.AperFunction*%
%TD*%
%TA.AperFunction,Conductor*%
%TO.N,+3.3V*%
G36*
X172567716Y-65795903D02*
G01*
X172995783Y-65972264D01*
X173002127Y-65978584D01*
X173002411Y-65979338D01*
X173155514Y-66432587D01*
X173154915Y-66441521D01*
X173148173Y-66447416D01*
X173143130Y-66447959D01*
X173035420Y-66435925D01*
X172891597Y-66419857D01*
X172891595Y-66419857D01*
X172891594Y-66419857D01*
X172786913Y-66431312D01*
X172743776Y-66450779D01*
X172743767Y-66450784D01*
X172707367Y-66480020D01*
X172704518Y-66481707D01*
X172602151Y-66524109D01*
X172597674Y-66525000D01*
X172170025Y-66525000D01*
X172161752Y-66521573D01*
X172158325Y-66513300D01*
X172158325Y-66238331D01*
X172161752Y-66230058D01*
X172170025Y-66226631D01*
X172171536Y-66226729D01*
X172493934Y-66268934D01*
X172520487Y-66237846D01*
X172553132Y-66169331D01*
X172566330Y-66078783D01*
X172563985Y-65955456D01*
X172551600Y-65807697D01*
X172554324Y-65799168D01*
X172562282Y-65795062D01*
X172567716Y-65795903D01*
G37*
%TD.AperFunction*%
%TD*%
%TA.AperFunction,Conductor*%
%TO.N,+3.3V*%
G36*
X171794623Y-65946262D02*
G01*
X171961673Y-66027358D01*
X171962578Y-66027848D01*
X172100140Y-66110306D01*
X172100275Y-66110388D01*
X172157705Y-66145871D01*
X172277432Y-66206655D01*
X172365463Y-66223206D01*
X172372959Y-66228103D01*
X172375000Y-66234705D01*
X172375000Y-66514730D01*
X172371573Y-66523003D01*
X172364817Y-66526331D01*
X172308260Y-66533726D01*
X172242587Y-66557824D01*
X172100203Y-66639654D01*
X171989768Y-66706727D01*
X171988897Y-66707207D01*
X171794664Y-66803623D01*
X171785730Y-66804232D01*
X171780231Y-66800332D01*
X171707537Y-66706986D01*
X171454597Y-66382188D01*
X171452218Y-66373556D01*
X171454597Y-66367812D01*
X171780285Y-65949597D01*
X171788071Y-65945177D01*
X171794623Y-65946262D01*
G37*
%TD.AperFunction*%
%TD*%
%TA.AperFunction,Conductor*%
%TO.N,+3.3V*%
G36*
X168491818Y-64823479D02*
G01*
X168495245Y-64831752D01*
X168494596Y-64835594D01*
X168470711Y-64904287D01*
X168470711Y-64904289D01*
X168497473Y-64942706D01*
X168497692Y-64943032D01*
X168512260Y-64965538D01*
X168523227Y-64971742D01*
X168523490Y-64971474D01*
X168531736Y-64967983D01*
X168540035Y-64971345D01*
X168542088Y-64974061D01*
X168707517Y-65276007D01*
X168708487Y-65284909D01*
X168702878Y-65291890D01*
X168699221Y-65293163D01*
X168593939Y-65311097D01*
X168585208Y-65309108D01*
X168583578Y-65307712D01*
X168458578Y-65178921D01*
X168330845Y-65047314D01*
X168328432Y-65043642D01*
X168300891Y-64977151D01*
X168300000Y-64972674D01*
X168300000Y-64831752D01*
X168303427Y-64823479D01*
X168311700Y-64820052D01*
X168483545Y-64820052D01*
X168491818Y-64823479D01*
G37*
%TD.AperFunction*%
%TD*%
%TA.AperFunction,Conductor*%
%TO.N,Net-(U1-EN)*%
G36*
X163279358Y-64144490D02*
G01*
X163485372Y-64293419D01*
X163485527Y-64293533D01*
X163571111Y-64358509D01*
X163675604Y-64419830D01*
X163675607Y-64419830D01*
X163675608Y-64419831D01*
X163689923Y-64422812D01*
X163755978Y-64436573D01*
X163763377Y-64441614D01*
X163765291Y-64448026D01*
X163765291Y-64628236D01*
X163761864Y-64636509D01*
X163755100Y-64639838D01*
X163705815Y-64646246D01*
X163705811Y-64646247D01*
X163647236Y-64667606D01*
X163520075Y-64740178D01*
X163433436Y-64792727D01*
X163432599Y-64793189D01*
X163249341Y-64884758D01*
X163240408Y-64885391D01*
X163235868Y-64882595D01*
X162979664Y-64628236D01*
X162897430Y-64546594D01*
X162893974Y-64538334D01*
X162897210Y-64530216D01*
X163264043Y-64145894D01*
X163272233Y-64142276D01*
X163279358Y-64144490D01*
G37*
%TD.AperFunction*%
%TD*%
%TA.AperFunction,Conductor*%
%TO.N,Net-(U1-EN)*%
G36*
X164194651Y-64152345D02*
G01*
X164249194Y-64229884D01*
X164373317Y-64406340D01*
X164460709Y-64530577D01*
X164462666Y-64539315D01*
X164459526Y-64545466D01*
X164089102Y-64926257D01*
X164080876Y-64929798D01*
X164072557Y-64926486D01*
X164070076Y-64922967D01*
X164027872Y-64830613D01*
X163986394Y-64775426D01*
X163939662Y-64731259D01*
X163878592Y-64691078D01*
X163815378Y-64663626D01*
X163736482Y-64644152D01*
X163736466Y-64644150D01*
X163676067Y-64639366D01*
X163668090Y-64635297D01*
X163665291Y-64627703D01*
X163665291Y-64448566D01*
X163668718Y-64440293D01*
X163675227Y-64437000D01*
X163721656Y-64429931D01*
X163753974Y-64415801D01*
X163775615Y-64406341D01*
X163775616Y-64406340D01*
X163775615Y-64406340D01*
X163775621Y-64406338D01*
X163888822Y-64327026D01*
X164024404Y-64229878D01*
X164025786Y-64229028D01*
X164179667Y-64148703D01*
X164188587Y-64147914D01*
X164194651Y-64152345D01*
G37*
%TD.AperFunction*%
%TD*%
%TA.AperFunction,Conductor*%
%TO.N,Net-(U1-SW)*%
G36*
X156708069Y-64630173D02*
G01*
X156714231Y-64636126D01*
X156714692Y-64637137D01*
X156715717Y-64641161D01*
X156717359Y-64664257D01*
X156731521Y-64722928D01*
X156731523Y-64722934D01*
X156731524Y-64722937D01*
X156755328Y-64776058D01*
X156755329Y-64776059D01*
X156755331Y-64776062D01*
X156755332Y-64776064D01*
X156755445Y-64776227D01*
X156755900Y-64776887D01*
X156755922Y-64776913D01*
X156793565Y-64831116D01*
X156841410Y-64879321D01*
X156911716Y-64930345D01*
X156990561Y-64971970D01*
X157099528Y-65013009D01*
X157209177Y-65040931D01*
X157320653Y-65058190D01*
X157400397Y-65062749D01*
X157404816Y-65063894D01*
X157406595Y-65064753D01*
X157412439Y-65071117D01*
X157412984Y-65072545D01*
X157413753Y-65076717D01*
X157413753Y-65549787D01*
X157412862Y-65554266D01*
X157412146Y-65555994D01*
X157405960Y-65562263D01*
X157404428Y-65562922D01*
X157400112Y-65563870D01*
X157375606Y-65564513D01*
X157223596Y-65586003D01*
X157182810Y-65591770D01*
X157182809Y-65591770D01*
X157182804Y-65591771D01*
X157181999Y-65592021D01*
X157181931Y-65592049D01*
X157009038Y-65646949D01*
X157009035Y-65646950D01*
X156897721Y-65708300D01*
X156877256Y-65719579D01*
X156877092Y-65719664D01*
X156877040Y-65719702D01*
X156876913Y-65719825D01*
X156786492Y-65804576D01*
X156786492Y-65804577D01*
X156732530Y-65901207D01*
X156718599Y-65954911D01*
X156716023Y-65986058D01*
X156714767Y-65990446D01*
X156714094Y-65991754D01*
X156707261Y-65997543D01*
X156698774Y-65997018D01*
X156697787Y-65996561D01*
X156694436Y-65994223D01*
X156419508Y-65719687D01*
X156022688Y-65323433D01*
X156020152Y-65319646D01*
X156019466Y-65317993D01*
X156019460Y-65309043D01*
X156020137Y-65307404D01*
X156022679Y-65303600D01*
X156693984Y-64633251D01*
X156697779Y-64630720D01*
X156699114Y-64630168D01*
X156708069Y-64630173D01*
G37*
%TD.AperFunction*%
%TD*%
%TA.AperFunction,Conductor*%
%TO.N,Net-(U1-SW)*%
G36*
X157508126Y-64887672D02*
G01*
X157834155Y-65306324D01*
X157836535Y-65314957D01*
X157834155Y-65320702D01*
X157508126Y-65739353D01*
X157500339Y-65743775D01*
X157494415Y-65742972D01*
X157468267Y-65732134D01*
X157270174Y-65651408D01*
X157270146Y-65651398D01*
X157167344Y-65617141D01*
X157065266Y-65583125D01*
X157065264Y-65583124D01*
X157065262Y-65583124D01*
X157065258Y-65583123D01*
X156923952Y-65564833D01*
X156916187Y-65560373D01*
X156913754Y-65553230D01*
X156913754Y-65074118D01*
X156917181Y-65065845D01*
X156924306Y-65062474D01*
X157025808Y-65052488D01*
X157147898Y-65020063D01*
X157468234Y-64894905D01*
X157494415Y-64884052D01*
X157503370Y-64884051D01*
X157508126Y-64887672D01*
G37*
%TD.AperFunction*%
%TD*%
%TA.AperFunction,Conductor*%
%TO.N,Net-(U1-EN)*%
G36*
X160093489Y-63819269D02*
G01*
X160096079Y-63819704D01*
X160659511Y-63981397D01*
X160663567Y-63983488D01*
X160665209Y-63984795D01*
X160669473Y-63992083D01*
X160669690Y-63993426D01*
X160669639Y-63997452D01*
X160653028Y-64085896D01*
X160653011Y-64085984D01*
X160652983Y-64086127D01*
X160652961Y-64086234D01*
X160644853Y-64125683D01*
X160644851Y-64125694D01*
X160637645Y-64207272D01*
X160654826Y-64245445D01*
X160655852Y-64249894D01*
X160655942Y-64252875D01*
X160654047Y-64259619D01*
X160654032Y-64259642D01*
X160652505Y-64261524D01*
X160526727Y-64387302D01*
X160522930Y-64389839D01*
X160520940Y-64390663D01*
X160512592Y-64390894D01*
X160511380Y-64390469D01*
X160507941Y-64388562D01*
X160434169Y-64329511D01*
X160385639Y-64290664D01*
X160298302Y-64226136D01*
X160297908Y-64225832D01*
X160297525Y-64225523D01*
X160297145Y-64225203D01*
X160124814Y-64073647D01*
X160122323Y-64070560D01*
X160120474Y-64067242D01*
X160119159Y-64063502D01*
X160107978Y-63997452D01*
X160080451Y-63834836D01*
X160080580Y-63830281D01*
X160080979Y-63828538D01*
X160086158Y-63821243D01*
X160086506Y-63821025D01*
X160093336Y-63819261D01*
X160093489Y-63819269D01*
G37*
%TD.AperFunction*%
%TD*%
%TA.AperFunction,Conductor*%
%TO.N,Net-(U1-EN)*%
G36*
X162477662Y-64169791D02*
G01*
X162479125Y-64170398D01*
X162482728Y-64172750D01*
X162789457Y-64466116D01*
X162880604Y-64553292D01*
X162883222Y-64557025D01*
X162883941Y-64558655D01*
X162884144Y-64567608D01*
X162884140Y-64567618D01*
X162883615Y-64568968D01*
X162880641Y-64573329D01*
X162546200Y-64881647D01*
X162542305Y-64884027D01*
X162539447Y-64885077D01*
X162530521Y-64884724D01*
X162397403Y-64823472D01*
X162397135Y-64823344D01*
X162396850Y-64823204D01*
X162396541Y-64823047D01*
X162281894Y-64762258D01*
X162281888Y-64762255D01*
X162115868Y-64681832D01*
X162115841Y-64681818D01*
X162027184Y-64665677D01*
X162022938Y-64663998D01*
X162020932Y-64662704D01*
X162016105Y-64656357D01*
X162015822Y-64655450D01*
X162015291Y-64651965D01*
X162015291Y-64476716D01*
X162016180Y-64472242D01*
X162016957Y-64470365D01*
X162022896Y-64464203D01*
X162024224Y-64463595D01*
X162028233Y-64462567D01*
X162054169Y-64460674D01*
X162114458Y-64445178D01*
X162175960Y-64416453D01*
X162312916Y-64316337D01*
X162463303Y-64172831D01*
X162467154Y-64170386D01*
X162468960Y-64169688D01*
X162477662Y-64169791D01*
G37*
%TD.AperFunction*%
%TD*%
%TA.AperFunction,Conductor*%
%TO.N,Net-(U1-FB)*%
G36*
X162591522Y-62734225D02*
G01*
X162591972Y-62734513D01*
X162594302Y-62736470D01*
X162748217Y-62904460D01*
X162930939Y-63103893D01*
X162933305Y-63107793D01*
X162934016Y-63109745D01*
X162933833Y-63118224D01*
X162933301Y-63119509D01*
X162931118Y-63122938D01*
X162594841Y-63489966D01*
X162591160Y-63492665D01*
X162588746Y-63493791D01*
X162581278Y-63494613D01*
X162580757Y-63494498D01*
X162577898Y-63493462D01*
X162419520Y-63411433D01*
X162418866Y-63411066D01*
X162418590Y-63410900D01*
X162418228Y-63410682D01*
X162417611Y-63410283D01*
X162291173Y-63322697D01*
X162291040Y-63322603D01*
X162290869Y-63322481D01*
X162290789Y-63322424D01*
X162248726Y-63291876D01*
X162248694Y-63291855D01*
X162149231Y-63232505D01*
X162148603Y-63232016D01*
X162147542Y-63231577D01*
X162146755Y-63231493D01*
X162119575Y-63225605D01*
X162075251Y-63216002D01*
X162071064Y-63214184D01*
X162069012Y-63212762D01*
X162064449Y-63206438D01*
X162064227Y-63205681D01*
X162063754Y-63202388D01*
X162063754Y-63025941D01*
X162064644Y-63021466D01*
X162065515Y-63019362D01*
X162071070Y-63013384D01*
X162072065Y-63012884D01*
X162075608Y-63011764D01*
X162120584Y-63005135D01*
X162175329Y-62982084D01*
X162290975Y-62904466D01*
X162417945Y-62816529D01*
X162418528Y-62816152D01*
X162419166Y-62815768D01*
X162419796Y-62815416D01*
X162577198Y-62733923D01*
X162581578Y-62732656D01*
X162584235Y-62732430D01*
X162591522Y-62734225D01*
G37*
%TD.AperFunction*%
%TD*%
%TA.AperFunction,Conductor*%
%TO.N,Net-(C7-Pad1)*%
G36*
X164181855Y-61086231D02*
G01*
X164182090Y-61086387D01*
X164182313Y-61086536D01*
X164184604Y-61088539D01*
X164428465Y-61365509D01*
X164506492Y-61454129D01*
X164508782Y-61458077D01*
X164509511Y-61460210D01*
X164509275Y-61468410D01*
X164508843Y-61469470D01*
X164506886Y-61472675D01*
X164137398Y-61903091D01*
X164133806Y-61905907D01*
X164132138Y-61906752D01*
X164123354Y-61907476D01*
X164121756Y-61906974D01*
X164117869Y-61904882D01*
X164117838Y-61904856D01*
X164060602Y-61858169D01*
X163951131Y-61768875D01*
X163795104Y-61643907D01*
X163686126Y-61582513D01*
X163600498Y-61565804D01*
X163596273Y-61564072D01*
X163594246Y-61562728D01*
X163589520Y-61556384D01*
X163589261Y-61555535D01*
X163588754Y-61552129D01*
X163588754Y-61376109D01*
X163589644Y-61371633D01*
X163590495Y-61369578D01*
X163596133Y-61363561D01*
X163597203Y-61363034D01*
X163600851Y-61361930D01*
X163655496Y-61354786D01*
X163721167Y-61330688D01*
X163863537Y-61248865D01*
X163973800Y-61181895D01*
X163974169Y-61181682D01*
X163974685Y-61181398D01*
X163975039Y-61181213D01*
X164167523Y-61085665D01*
X164171922Y-61084475D01*
X164174575Y-61084294D01*
X164181855Y-61086231D01*
G37*
%TD.AperFunction*%
%TD*%
%TA.AperFunction,Conductor*%
%TO.N,Net-(C7-Pad1)*%
G36*
X163298246Y-61082857D02*
G01*
X163458313Y-61165761D01*
X163459594Y-61166532D01*
X163586422Y-61254389D01*
X163586630Y-61254536D01*
X163628795Y-61285159D01*
X163729530Y-61345268D01*
X163804531Y-61361515D01*
X163811891Y-61366616D01*
X163813754Y-61372950D01*
X163813754Y-61553411D01*
X163810327Y-61561684D01*
X163803761Y-61564986D01*
X163756923Y-61571891D01*
X163756917Y-61571893D01*
X163702182Y-61594940D01*
X163702176Y-61594943D01*
X163586492Y-61672587D01*
X163459299Y-61760678D01*
X163458017Y-61761450D01*
X163298245Y-61844170D01*
X163289323Y-61844931D01*
X163284239Y-61841684D01*
X162944994Y-61471415D01*
X162941933Y-61463002D01*
X162944994Y-61455610D01*
X163284240Y-61085340D01*
X163292354Y-61081557D01*
X163298246Y-61082857D01*
G37*
%TD.AperFunction*%
%TD*%
%TA.AperFunction,Conductor*%
%TO.N,Net-(U1-FB)*%
G36*
X163296745Y-62732525D02*
G01*
X163299605Y-62733561D01*
X163458001Y-62815599D01*
X163458630Y-62815951D01*
X163459160Y-62816270D01*
X163459278Y-62816342D01*
X163459895Y-62816741D01*
X163502540Y-62846282D01*
X163586332Y-62904326D01*
X163586393Y-62904421D01*
X163586418Y-62904387D01*
X163586595Y-62904512D01*
X163586713Y-62904596D01*
X163628795Y-62935159D01*
X163729530Y-62995268D01*
X163802256Y-63011022D01*
X163806443Y-63012840D01*
X163808495Y-63014262D01*
X163813054Y-63020573D01*
X163813277Y-63021330D01*
X163813754Y-63024636D01*
X163813754Y-63201083D01*
X163812863Y-63205562D01*
X163811992Y-63207664D01*
X163806441Y-63213637D01*
X163805445Y-63214138D01*
X163801894Y-63215261D01*
X163756920Y-63221891D01*
X163702183Y-63244939D01*
X163702167Y-63244947D01*
X163586451Y-63322614D01*
X163459608Y-63410463D01*
X163458973Y-63410874D01*
X163458324Y-63411264D01*
X163457677Y-63411625D01*
X163300312Y-63493099D01*
X163295930Y-63494366D01*
X163293276Y-63494593D01*
X163285982Y-63492797D01*
X163285531Y-63492509D01*
X163283204Y-63490555D01*
X162946564Y-63123129D01*
X162944196Y-63119222D01*
X162943487Y-63117271D01*
X162943674Y-63108798D01*
X162944205Y-63107516D01*
X162946385Y-63104091D01*
X163282672Y-62737051D01*
X163286347Y-62734357D01*
X163288763Y-62733230D01*
X163296216Y-62732409D01*
X163296745Y-62732525D01*
G37*
%TD.AperFunction*%
%TD*%
%TA.AperFunction,Conductor*%
%TO.N,Net-(U1-FB)*%
G36*
X164132405Y-62670352D02*
G01*
X164133889Y-62671127D01*
X164137348Y-62673876D01*
X164506611Y-63104028D01*
X164508851Y-63108005D01*
X164509553Y-63110147D01*
X164509215Y-63118338D01*
X164508770Y-63119393D01*
X164506771Y-63122578D01*
X164185069Y-63487958D01*
X164181440Y-63490731D01*
X164179032Y-63491912D01*
X164171626Y-63492888D01*
X164171132Y-63492791D01*
X164168276Y-63491835D01*
X164002322Y-63411271D01*
X164001866Y-63411037D01*
X164001389Y-63410779D01*
X164000940Y-63410523D01*
X163863671Y-63328241D01*
X163863627Y-63328182D01*
X163863613Y-63328206D01*
X163863478Y-63328124D01*
X163863402Y-63328077D01*
X163806056Y-63292646D01*
X163806054Y-63292645D01*
X163806051Y-63292643D01*
X163802531Y-63290856D01*
X163686322Y-63231858D01*
X163656153Y-63226185D01*
X163600577Y-63215734D01*
X163596344Y-63214033D01*
X163594331Y-63212719D01*
X163589545Y-63206368D01*
X163589271Y-63205482D01*
X163588754Y-63202039D01*
X163588754Y-63025691D01*
X163589643Y-63021216D01*
X163590547Y-63019034D01*
X163595963Y-63013129D01*
X163596851Y-63012669D01*
X163600244Y-63011526D01*
X163629540Y-63006463D01*
X163673889Y-62998799D01*
X163674277Y-62998765D01*
X163674507Y-62998712D01*
X163674834Y-62998645D01*
X163674868Y-62998628D01*
X163674869Y-62998628D01*
X163716178Y-62978243D01*
X163759804Y-62956716D01*
X163849793Y-62891877D01*
X163946843Y-62811691D01*
X163947485Y-62811494D01*
X163950842Y-62808410D01*
X163951342Y-62807976D01*
X164117809Y-62672193D01*
X164121838Y-62670055D01*
X164123630Y-62669517D01*
X164132405Y-62670352D01*
G37*
%TD.AperFunction*%
%TD*%
%TA.AperFunction,Conductor*%
%TO.N,Net-(U1-FB)*%
G36*
X165628757Y-61400208D02*
G01*
X166095762Y-61474322D01*
X166103396Y-61479003D01*
X166104569Y-61481012D01*
X166272184Y-61847642D01*
X166272507Y-61856591D01*
X166266408Y-61863148D01*
X166262003Y-61864198D01*
X166193757Y-61866882D01*
X166149695Y-61874225D01*
X166105625Y-61881570D01*
X166105623Y-61881570D01*
X166105620Y-61881571D01*
X166105619Y-61881571D01*
X165994714Y-61913267D01*
X165994705Y-61913270D01*
X165885770Y-61956806D01*
X165771458Y-62014874D01*
X165771451Y-62014877D01*
X165771449Y-62014879D01*
X165667807Y-62079164D01*
X165667806Y-62079165D01*
X165528331Y-62191924D01*
X165519743Y-62194460D01*
X165512702Y-62191098D01*
X165386392Y-62064788D01*
X165382965Y-62056515D01*
X165385788Y-62048894D01*
X165436603Y-61989705D01*
X165436603Y-61989704D01*
X165436609Y-61989698D01*
X165537786Y-61824383D01*
X165602112Y-61657869D01*
X165625560Y-61514496D01*
X165615283Y-61412940D01*
X165617860Y-61404366D01*
X165625746Y-61400123D01*
X165628757Y-61400208D01*
G37*
%TD.AperFunction*%
%TD*%
%TA.AperFunction,Conductor*%
%TO.N,Net-(U1-FB)*%
G36*
X165159804Y-62286485D02*
G01*
X165160972Y-62287046D01*
X165164182Y-62289320D01*
X165287555Y-62412693D01*
X165290092Y-62416491D01*
X165290888Y-62418414D01*
X165291077Y-62426879D01*
X165290603Y-62428182D01*
X165288576Y-62431702D01*
X165214726Y-62519880D01*
X165214724Y-62519883D01*
X165214723Y-62519885D01*
X165214709Y-62519907D01*
X165100274Y-62711686D01*
X165022222Y-62908605D01*
X164986719Y-63082033D01*
X164988484Y-63206034D01*
X164987656Y-63210525D01*
X164986998Y-63212179D01*
X164980763Y-63218596D01*
X164980193Y-63218842D01*
X164971813Y-63219185D01*
X164520296Y-63066668D01*
X164516339Y-63064391D01*
X164513373Y-63061798D01*
X164510256Y-63057447D01*
X164448933Y-62908604D01*
X164367806Y-62711690D01*
X164335293Y-62632774D01*
X164334412Y-62628298D01*
X164334415Y-62626517D01*
X164337855Y-62618253D01*
X164338141Y-62617968D01*
X164344458Y-62614720D01*
X164344584Y-62614699D01*
X164347132Y-62614553D01*
X164375966Y-62616072D01*
X164471947Y-62610350D01*
X164570553Y-62592335D01*
X164686591Y-62558127D01*
X164799828Y-62512707D01*
X164912617Y-62455922D01*
X165014337Y-62393659D01*
X165145362Y-62288508D01*
X165149404Y-62286405D01*
X165151478Y-62285801D01*
X165159804Y-62286485D01*
G37*
%TD.AperFunction*%
%TD*%
%TA.AperFunction,Conductor*%
%TO.N,Net-(U1-FB)*%
G36*
X161466708Y-62923617D02*
G01*
X161498688Y-62970754D01*
X161498695Y-62970763D01*
X161556809Y-63047309D01*
X161562812Y-63049380D01*
X161574818Y-63053523D01*
X161574818Y-63053522D01*
X161574820Y-63053523D01*
X161592357Y-63043205D01*
X161593782Y-63042495D01*
X161661603Y-63014404D01*
X161666080Y-63013513D01*
X161899021Y-63013513D01*
X161907294Y-63016940D01*
X161910721Y-63025213D01*
X161910721Y-63199708D01*
X161907294Y-63207981D01*
X161899021Y-63211408D01*
X161897103Y-63211250D01*
X161734465Y-63184224D01*
X161693272Y-63235823D01*
X161666272Y-63289518D01*
X161666270Y-63289523D01*
X161646158Y-63355332D01*
X161646156Y-63355342D01*
X161631241Y-63452963D01*
X161626934Y-63558581D01*
X161623173Y-63566707D01*
X161614767Y-63569794D01*
X161610797Y-63568926D01*
X161334719Y-63455488D01*
X161328369Y-63449174D01*
X161327761Y-63442054D01*
X161445622Y-62927571D01*
X161450809Y-62920274D01*
X161459639Y-62918781D01*
X161466708Y-62923617D01*
G37*
%TD.AperFunction*%
%TD*%
%TA.AperFunction,Conductor*%
%TO.N,Net-(C7-Pad1)*%
G36*
X162591539Y-61084149D02*
G01*
X162591898Y-61084384D01*
X162594117Y-61086268D01*
X162679838Y-61179828D01*
X162930939Y-61453893D01*
X162933305Y-61457793D01*
X162934016Y-61459745D01*
X162933833Y-61468224D01*
X162933301Y-61469509D01*
X162931118Y-61472938D01*
X162594600Y-61840229D01*
X162590920Y-61842928D01*
X162588391Y-61844108D01*
X162581130Y-61844973D01*
X162580801Y-61844907D01*
X162578145Y-61844030D01*
X162439745Y-61779065D01*
X162439375Y-61778883D01*
X162439034Y-61778708D01*
X162438697Y-61778528D01*
X162320722Y-61713029D01*
X162160772Y-61631785D01*
X162075574Y-61615738D01*
X162071339Y-61614034D01*
X162069324Y-61612717D01*
X162064545Y-61606371D01*
X162064272Y-61605490D01*
X162063754Y-61602044D01*
X162063754Y-61326194D01*
X162064643Y-61321721D01*
X162064676Y-61321640D01*
X162065483Y-61319691D01*
X162071161Y-61313653D01*
X162072276Y-61313109D01*
X162075969Y-61312016D01*
X162102023Y-61308827D01*
X162124445Y-61306081D01*
X162124733Y-61306064D01*
X162124903Y-61306036D01*
X162125139Y-61306002D01*
X162125369Y-61305928D01*
X162125649Y-61305843D01*
X162125881Y-61305746D01*
X162186239Y-61285172D01*
X162320708Y-61214003D01*
X162380885Y-61179811D01*
X162381139Y-61179672D01*
X162381441Y-61179513D01*
X162381712Y-61179374D01*
X162577269Y-61083607D01*
X162581679Y-61082439D01*
X162584410Y-61082268D01*
X162591539Y-61084149D01*
G37*
%TD.AperFunction*%
%TD*%
%TA.AperFunction,Conductor*%
%TO.N,Net-(C7-Pad1)*%
G36*
X158246573Y-61218937D02*
G01*
X158290282Y-61249258D01*
X158290287Y-61249261D01*
X158309983Y-61256705D01*
X158360180Y-61275678D01*
X158360181Y-61275678D01*
X158360183Y-61275679D01*
X158537275Y-61305965D01*
X158734425Y-61315241D01*
X158734431Y-61315240D01*
X158734432Y-61315241D01*
X158916058Y-61314377D01*
X158936447Y-61314169D01*
X158989436Y-61313632D01*
X158997743Y-61316974D01*
X159001253Y-61325212D01*
X159001254Y-61325331D01*
X159001254Y-61602561D01*
X158997827Y-61610834D01*
X158990327Y-61614235D01*
X158944074Y-61617295D01*
X158786778Y-61654595D01*
X158786775Y-61654597D01*
X158653955Y-61717402D01*
X158561539Y-61793598D01*
X158507331Y-61879073D01*
X158507331Y-61879074D01*
X158492903Y-61954358D01*
X158487980Y-61961839D01*
X158479210Y-61963647D01*
X158473148Y-61960437D01*
X158125547Y-61613513D01*
X157983764Y-61472006D01*
X157980329Y-61463736D01*
X157983748Y-61455460D01*
X157983946Y-61455265D01*
X158231851Y-61220061D01*
X158240212Y-61216854D01*
X158246573Y-61218937D01*
G37*
%TD.AperFunction*%
%TD*%
%TA.AperFunction,Conductor*%
%TO.N,Net-(U1-SW)*%
G36*
X158380373Y-64431809D02*
G01*
X158384234Y-64434372D01*
X158717866Y-64768004D01*
X158720402Y-64771798D01*
X158721084Y-64773444D01*
X158721085Y-64782399D01*
X158721083Y-64782403D01*
X158720416Y-64784012D01*
X158717826Y-64787860D01*
X158688043Y-64817251D01*
X158573615Y-64932759D01*
X158439265Y-65093285D01*
X158439245Y-65093310D01*
X158439241Y-65093314D01*
X158355713Y-65234518D01*
X158315800Y-65359994D01*
X158314080Y-65456584D01*
X158313110Y-65461044D01*
X158312399Y-65462678D01*
X158305956Y-65468897D01*
X158305949Y-65468900D01*
X158305310Y-65469151D01*
X158297288Y-65469346D01*
X157845296Y-65316668D01*
X157841339Y-65314391D01*
X157838373Y-65311798D01*
X157835256Y-65307447D01*
X157805210Y-65234519D01*
X157659673Y-64881268D01*
X157658791Y-64876791D01*
X157658794Y-64875009D01*
X157662230Y-64866749D01*
X157662647Y-64866333D01*
X157670528Y-64862924D01*
X157751449Y-64860308D01*
X157848794Y-64834590D01*
X157943272Y-64790975D01*
X158033760Y-64734073D01*
X158198279Y-64598863D01*
X158333377Y-64465864D01*
X158364382Y-64434457D01*
X158368155Y-64431901D01*
X158369802Y-64431206D01*
X158378752Y-64431150D01*
X158380373Y-64431809D01*
G37*
%TD.AperFunction*%
%TD*%
%TA.AperFunction,Conductor*%
%TO.N,Net-(U1-SW)*%
G36*
X160345233Y-64682954D02*
G01*
X160350075Y-64686688D01*
X160389587Y-64738713D01*
X160390112Y-64739462D01*
X160390607Y-64740232D01*
X160391077Y-64741031D01*
X160433183Y-64819578D01*
X160518973Y-64970575D01*
X160519104Y-64970820D01*
X160519268Y-64971027D01*
X160519295Y-64971063D01*
X160519466Y-64971250D01*
X160629330Y-65103840D01*
X160630956Y-65106427D01*
X160632199Y-65109137D01*
X160633100Y-65112062D01*
X160672055Y-65342186D01*
X160671925Y-65346746D01*
X160671528Y-65348483D01*
X160666344Y-65355783D01*
X160666326Y-65355795D01*
X160666320Y-65355799D01*
X160665995Y-65356002D01*
X160659186Y-65357763D01*
X160659033Y-65357755D01*
X160656417Y-65357317D01*
X160431524Y-65292777D01*
X160090995Y-65195052D01*
X160086935Y-65192959D01*
X160084741Y-65191213D01*
X160080750Y-65185170D01*
X160080741Y-65185139D01*
X160080666Y-65184863D01*
X160080250Y-65182083D01*
X160079147Y-65141675D01*
X160062550Y-65102557D01*
X160062549Y-65102556D01*
X160062549Y-65102555D01*
X160009435Y-65047619D01*
X160009426Y-65047610D01*
X160009416Y-65047600D01*
X160009415Y-65047599D01*
X160009412Y-65047596D01*
X159998442Y-65037933D01*
X159995674Y-65034309D01*
X159994887Y-65032706D01*
X159994321Y-65023773D01*
X159994323Y-65023767D01*
X159994792Y-65022397D01*
X159997586Y-65017915D01*
X160329774Y-64685727D01*
X160333569Y-64683192D01*
X160334246Y-64682912D01*
X160335217Y-64682511D01*
X160344163Y-64682511D01*
X160345233Y-64682954D01*
G37*
%TD.AperFunction*%
%TD*%
%TA.AperFunction,Conductor*%
%TO.N,Net-(U1-BOOT)*%
G36*
X159140773Y-63165484D02*
G01*
X159418939Y-63442726D01*
X159422380Y-63450994D01*
X159418967Y-63459272D01*
X159418939Y-63459300D01*
X159143055Y-63734267D01*
X159134777Y-63737680D01*
X159126509Y-63734239D01*
X159123194Y-63727489D01*
X159122870Y-63725006D01*
X159121205Y-63712200D01*
X159109785Y-63686677D01*
X159102991Y-63671489D01*
X159102989Y-63671487D01*
X159102989Y-63671486D01*
X159074101Y-63637483D01*
X159074100Y-63637482D01*
X159019564Y-63599611D01*
X159019560Y-63599609D01*
X158956842Y-63573448D01*
X158956838Y-63573447D01*
X158885591Y-63556317D01*
X158880039Y-63555820D01*
X158836912Y-63551965D01*
X158828977Y-63547814D01*
X158826254Y-63540311D01*
X158826254Y-63362256D01*
X158829681Y-63353983D01*
X158837486Y-63350566D01*
X158848921Y-63350111D01*
X158966343Y-63325390D01*
X159055873Y-63279638D01*
X159108120Y-63221971D01*
X159121178Y-63170873D01*
X159126547Y-63163707D01*
X159135411Y-63162435D01*
X159140773Y-63165484D01*
G37*
%TD.AperFunction*%
%TD*%
%TA.AperFunction,Conductor*%
%TO.N,Net-(U1-BOOT)*%
G36*
X158093540Y-63315097D02*
G01*
X158179485Y-63343547D01*
X158313432Y-63356257D01*
X158616820Y-63353940D01*
X158733729Y-63351284D01*
X158742077Y-63354522D01*
X158745691Y-63362715D01*
X158745694Y-63362981D01*
X158745694Y-63539631D01*
X158742267Y-63547904D01*
X158734320Y-63551326D01*
X158731936Y-63551392D01*
X158731912Y-63551394D01*
X158668501Y-63560489D01*
X158668496Y-63560490D01*
X158668492Y-63560491D01*
X158596489Y-63581478D01*
X158596487Y-63581478D01*
X158596483Y-63581480D01*
X158469497Y-63644730D01*
X158469489Y-63644735D01*
X158379616Y-63722837D01*
X158328518Y-63808105D01*
X158317234Y-63879114D01*
X158312551Y-63886747D01*
X158303843Y-63888833D01*
X158297641Y-63885780D01*
X157849433Y-63462054D01*
X157845776Y-63453880D01*
X157848969Y-63445514D01*
X157851850Y-63443291D01*
X158084291Y-63315957D01*
X158093191Y-63314988D01*
X158093540Y-63315097D01*
G37*
%TD.AperFunction*%
%TD*%
%TA.AperFunction,Conductor*%
%TO.N,5V*%
G36*
X152611666Y-63066941D02*
G01*
X152615007Y-63073800D01*
X152625998Y-63164049D01*
X152625998Y-63164052D01*
X152659917Y-63264167D01*
X152659919Y-63264171D01*
X152775927Y-63484856D01*
X152864137Y-63643258D01*
X152864481Y-63643926D01*
X152992657Y-63913495D01*
X152993135Y-63922382D01*
X152324798Y-65832941D01*
X152318831Y-65839619D01*
X152309891Y-65840122D01*
X152303213Y-65834155D01*
X152302710Y-65832941D01*
X151634372Y-63922382D01*
X151634358Y-63922341D01*
X151634805Y-63913522D01*
X151745085Y-63677937D01*
X151745433Y-63677254D01*
X151763821Y-63643926D01*
X151851576Y-63484863D01*
X151934713Y-63333958D01*
X151995103Y-63188200D01*
X152008989Y-63095364D01*
X152012263Y-63073483D01*
X152016876Y-63065808D01*
X152023834Y-63063514D01*
X152603393Y-63063514D01*
X152611666Y-63066941D01*
G37*
%TD.AperFunction*%
%TD*%
%TA.AperFunction,Conductor*%
%TO.N,5V*%
G36*
X155735273Y-61284770D02*
G01*
X156145457Y-61780302D01*
X156148092Y-61788860D01*
X156144709Y-61796043D01*
X155654694Y-62285103D01*
X155646418Y-62288522D01*
X155638148Y-62285087D01*
X155634901Y-62278823D01*
X155625793Y-62226360D01*
X155625791Y-62226357D01*
X155625791Y-62226356D01*
X155609064Y-62200331D01*
X155590232Y-62171030D01*
X155590230Y-62171029D01*
X155590230Y-62171028D01*
X155537054Y-62132213D01*
X155537053Y-62132212D01*
X155537051Y-62132211D01*
X155471240Y-62107093D01*
X155334968Y-62088513D01*
X155321642Y-62086696D01*
X155321641Y-62086696D01*
X155321635Y-62086695D01*
X155181270Y-62087336D01*
X155138204Y-62088257D01*
X155129859Y-62085008D01*
X155126257Y-62076810D01*
X155126254Y-62076560D01*
X155126254Y-61499815D01*
X155129681Y-61491542D01*
X155137548Y-61488122D01*
X155261353Y-61483838D01*
X155415193Y-61454689D01*
X155415197Y-61454688D01*
X155524314Y-61407992D01*
X155567827Y-61389372D01*
X155646262Y-61339813D01*
X155719063Y-61283005D01*
X155727693Y-61280618D01*
X155735273Y-61284770D01*
G37*
%TD.AperFunction*%
%TD*%
%TA.AperFunction,Conductor*%
%TO.N,Net-(D3-A)*%
G36*
X176907747Y-69130844D02*
G01*
X177290543Y-69469038D01*
X177294474Y-69477084D01*
X177291564Y-69485553D01*
X177290954Y-69486192D01*
X177254818Y-69521344D01*
X177222480Y-69567080D01*
X177188802Y-69661276D01*
X177183872Y-69754766D01*
X177183872Y-69754772D01*
X177192597Y-69842205D01*
X177192603Y-69842326D01*
X177192609Y-69842326D01*
X177198861Y-69912258D01*
X177196184Y-69920804D01*
X177188249Y-69924954D01*
X177187207Y-69925000D01*
X176612793Y-69925000D01*
X176604520Y-69921573D01*
X176601093Y-69913300D01*
X176601139Y-69912258D01*
X176607391Y-69842326D01*
X176615583Y-69764464D01*
X176610031Y-69655047D01*
X176574469Y-69561877D01*
X176543004Y-69518825D01*
X176509132Y-69486191D01*
X176505552Y-69477983D01*
X176508824Y-69469647D01*
X176509503Y-69468997D01*
X176892253Y-69130844D01*
X176900722Y-69127934D01*
X176907747Y-69130844D01*
G37*
%TD.AperFunction*%
%TD*%
%TA.AperFunction,Conductor*%
%TO.N,Net-(D3-A)*%
G36*
X177196982Y-69978427D02*
G01*
X177200402Y-69986283D01*
X177203868Y-70083483D01*
X177203869Y-70083490D01*
X177238402Y-70288338D01*
X177238402Y-70288342D01*
X177276428Y-70415159D01*
X177276433Y-70415173D01*
X177330283Y-70557072D01*
X177330014Y-70566023D01*
X177327883Y-70569222D01*
X176908539Y-71016884D01*
X176900382Y-71020579D01*
X176892001Y-71017424D01*
X176891461Y-71016884D01*
X176472118Y-70569224D01*
X176468963Y-70560843D01*
X176469718Y-70557075D01*
X176522930Y-70417037D01*
X176560773Y-70291558D01*
X176592597Y-70120966D01*
X176599437Y-69986107D01*
X176603279Y-69978018D01*
X176611122Y-69975000D01*
X177188709Y-69975000D01*
X177196982Y-69978427D01*
G37*
%TD.AperFunction*%
%TD*%
%TA.AperFunction,Conductor*%
%TO.N,Net-(D3-A)*%
G36*
X177341058Y-71027427D02*
G01*
X177344485Y-71035700D01*
X177343664Y-71040006D01*
X177317318Y-71106562D01*
X177317318Y-71106564D01*
X177296523Y-71196016D01*
X177283437Y-71389079D01*
X177296441Y-71590073D01*
X177296443Y-71590096D01*
X177321231Y-71785857D01*
X177334174Y-71882379D01*
X177334239Y-71882977D01*
X177348961Y-72062343D01*
X177346222Y-72070869D01*
X177338257Y-72074961D01*
X177337300Y-72075000D01*
X176762570Y-72075000D01*
X176754297Y-72071573D01*
X176750870Y-72063300D01*
X176750900Y-72062462D01*
X176755721Y-71995305D01*
X176755744Y-71995031D01*
X176759605Y-71954588D01*
X176761102Y-71825885D01*
X176737411Y-71731221D01*
X176686690Y-71660519D01*
X176648476Y-71632478D01*
X176648473Y-71632476D01*
X176613285Y-71616219D01*
X176607212Y-71609638D01*
X176607571Y-71600691D01*
X176608909Y-71598477D01*
X177046487Y-71028574D01*
X177054243Y-71024100D01*
X177055767Y-71024000D01*
X177332785Y-71024000D01*
X177341058Y-71027427D01*
G37*
%TD.AperFunction*%
%TD*%
%TA.AperFunction,Conductor*%
%TO.N,Net-(D3-A)*%
G36*
X176430543Y-68302393D02*
G01*
X176430726Y-68302579D01*
X176491473Y-68366320D01*
X176537391Y-68415187D01*
X176693647Y-68565261D01*
X176829546Y-68661461D01*
X176910941Y-68695503D01*
X176951636Y-68712523D01*
X176951639Y-68712524D01*
X177050212Y-68723307D01*
X177058064Y-68727614D01*
X177060571Y-68736210D01*
X177059759Y-68739392D01*
X176903121Y-69119843D01*
X176896802Y-69126189D01*
X176894476Y-69126885D01*
X176439999Y-69212847D01*
X176431234Y-69211018D01*
X176426329Y-69203525D01*
X176426159Y-69200463D01*
X176430566Y-69142594D01*
X176430566Y-69142591D01*
X176430566Y-69142589D01*
X176416728Y-69070967D01*
X176387165Y-69001448D01*
X176345556Y-68934662D01*
X176240914Y-68811805D01*
X176132235Y-68707434D01*
X176132206Y-68707406D01*
X176077648Y-68655738D01*
X176073997Y-68647561D01*
X176077198Y-68639198D01*
X176077383Y-68639008D01*
X176413998Y-68302392D01*
X176422270Y-68298966D01*
X176430543Y-68302393D01*
G37*
%TD.AperFunction*%
%TD*%
%TA.AperFunction,Conductor*%
%TO.N,Net-(D3-A)*%
G36*
X175743765Y-67413980D02*
G01*
X175748670Y-67421473D01*
X175748840Y-67424535D01*
X175744433Y-67482404D01*
X175744433Y-67482407D01*
X175747696Y-67499293D01*
X175758272Y-67554033D01*
X175787835Y-67623552D01*
X175829444Y-67690338D01*
X175934085Y-67813194D01*
X176021751Y-67897385D01*
X176042784Y-67917584D01*
X176097351Y-67969261D01*
X176101002Y-67977438D01*
X176097801Y-67985801D01*
X176097579Y-67986029D01*
X175761002Y-68322606D01*
X175752729Y-68326033D01*
X175744456Y-68322606D01*
X175744259Y-68322405D01*
X175683527Y-68258680D01*
X175683471Y-68258620D01*
X175637610Y-68209815D01*
X175637600Y-68209805D01*
X175481357Y-68059744D01*
X175481352Y-68059739D01*
X175345453Y-67963539D01*
X175345446Y-67963536D01*
X175223362Y-67912476D01*
X175124786Y-67901692D01*
X175116934Y-67897385D01*
X175114427Y-67888789D01*
X175115237Y-67885612D01*
X175271879Y-67505154D01*
X175278197Y-67498810D01*
X175280517Y-67498115D01*
X175735000Y-67412151D01*
X175743765Y-67413980D01*
G37*
%TD.AperFunction*%
%TD*%
%TA.AperFunction,Conductor*%
%TO.N,5V*%
G36*
X155597823Y-71936957D02*
G01*
X155599244Y-71938378D01*
X156066779Y-72494081D01*
X156069483Y-72502617D01*
X156068717Y-72505888D01*
X155983010Y-72724264D01*
X155983008Y-72724269D01*
X155983007Y-72724273D01*
X155975744Y-72748514D01*
X155911599Y-72962607D01*
X155895454Y-73060799D01*
X155890905Y-73142686D01*
X155887024Y-73150756D01*
X155879223Y-73153737D01*
X155301885Y-73153737D01*
X155293612Y-73150310D01*
X155290214Y-73142861D01*
X155283384Y-73046174D01*
X155283384Y-73046168D01*
X155264580Y-72942896D01*
X155206243Y-72748514D01*
X155111836Y-72505872D01*
X155112030Y-72496921D01*
X155113785Y-72494102D01*
X155581338Y-71938377D01*
X155589287Y-71934253D01*
X155597823Y-71936957D01*
G37*
%TD.AperFunction*%
%TD*%
%TA.AperFunction,Conductor*%
%TO.N,5V*%
G36*
X155887273Y-72932164D02*
G01*
X155890693Y-72940020D01*
X155894159Y-73037220D01*
X155894160Y-73037227D01*
X155928693Y-73242075D01*
X155928693Y-73242079D01*
X155966719Y-73368896D01*
X155966724Y-73368910D01*
X156020099Y-73509557D01*
X156019830Y-73518508D01*
X156016349Y-73522939D01*
X155597480Y-73849138D01*
X155588847Y-73851518D01*
X155583102Y-73849138D01*
X155164235Y-73522942D01*
X155159813Y-73515155D01*
X155160487Y-73509555D01*
X155213221Y-73370774D01*
X155251064Y-73245295D01*
X155282888Y-73074703D01*
X155289728Y-72939844D01*
X155293570Y-72931755D01*
X155301413Y-72928737D01*
X155879000Y-72928737D01*
X155887273Y-72932164D01*
G37*
%TD.AperFunction*%
%TD*%
%TA.AperFunction,Conductor*%
%TO.N,5V*%
G36*
X155886970Y-70707164D02*
G01*
X155890368Y-70714613D01*
X155897197Y-70811299D01*
X155897197Y-70811302D01*
X155897198Y-70811306D01*
X155916002Y-70914577D01*
X155916006Y-70914593D01*
X155974339Y-71108960D01*
X156068745Y-71351600D01*
X156068551Y-71360552D01*
X156066794Y-71363374D01*
X155599244Y-71919095D01*
X155591295Y-71923220D01*
X155582759Y-71920516D01*
X155581338Y-71919095D01*
X155113802Y-71363392D01*
X155111098Y-71354856D01*
X155111863Y-71351589D01*
X155197575Y-71133201D01*
X155268982Y-70894869D01*
X155285127Y-70796678D01*
X155289677Y-70714788D01*
X155293558Y-70706718D01*
X155301359Y-70703737D01*
X155878697Y-70703737D01*
X155886970Y-70707164D01*
G37*
%TD.AperFunction*%
%TD*%
%TA.AperFunction,Conductor*%
%TO.N,5V*%
G36*
X155597823Y-69811957D02*
G01*
X155599244Y-69813378D01*
X156066779Y-70369081D01*
X156069483Y-70377617D01*
X156068717Y-70380888D01*
X155983010Y-70599264D01*
X155983008Y-70599269D01*
X155983007Y-70599273D01*
X155975744Y-70623514D01*
X155911599Y-70837607D01*
X155895454Y-70935799D01*
X155890905Y-71017686D01*
X155887024Y-71025756D01*
X155879223Y-71028737D01*
X155301885Y-71028737D01*
X155293612Y-71025310D01*
X155290214Y-71017861D01*
X155283384Y-70921174D01*
X155283384Y-70921168D01*
X155264580Y-70817896D01*
X155206243Y-70623514D01*
X155111836Y-70380872D01*
X155112030Y-70371921D01*
X155113785Y-70369102D01*
X155581338Y-69813377D01*
X155589287Y-69809253D01*
X155597823Y-69811957D01*
G37*
%TD.AperFunction*%
%TD*%
M02*
