%TF.GenerationSoftware,KiCad,Pcbnew,10.0.5*%
%TF.CreationDate,2026-10-04T17:43:01+08:00*%
%TF.ProjectId,TTLtoCANforTOF,54544c74-6f43-4414-9e66-6f72544f462e,rev?*%
%TF.SameCoordinates,Original*%
%TF.FileFunction,Paste,Top*%
%TF.FilePolarity,Positive*%
%FSLAX46Y46*%
G04 Gerber Fmt 4.6, Leading zero omitted, Abs format (unit mm)*
G04 Created by KiCad (PCBNEW 10.0.5) date 2026-10-04 17:43:01*
%MOMM*%
%LPD*%
G01*
G04 APERTURE LIST*
G04 Aperture macros list*
%AMRoundRect*
0 Rectangle with rounded corners*
0 $1 Rounding radius*
0 $2 $3 $4 $5 $6 $7 $8 $9 X,Y pos of 4 corners*
0 Add a 4 corners polygon primitive as box body*
4,1,4,$2,$3,$4,$5,$6,$7,$8,$9,$2,$3,0*
0 Add four circle primitives for the rounded corners*
1,1,$1+$1,$2,$3*
1,1,$1+$1,$4,$5*
1,1,$1+$1,$6,$7*
1,1,$1+$1,$8,$9*
0 Add four rect primitives between the rounded corners*
20,1,$1+$1,$2,$3,$4,$5,0*
20,1,$1+$1,$4,$5,$6,$7,0*
20,1,$1+$1,$6,$7,$8,$9,0*
20,1,$1+$1,$8,$9,$2,$3,0*%
G04 Aperture macros list end*
%ADD10RoundRect,0.200000X-0.200000X-0.275000X0.200000X-0.275000X0.200000X0.275000X-0.200000X0.275000X0*%
%ADD11RoundRect,0.225000X-0.225000X-0.250000X0.225000X-0.250000X0.225000X0.250000X-0.225000X0.250000X0*%
%ADD12RoundRect,0.150000X-0.150000X0.587500X-0.150000X-0.587500X0.150000X-0.587500X0.150000X0.587500X0*%
%ADD13RoundRect,0.200000X0.275000X-0.200000X0.275000X0.200000X-0.275000X0.200000X-0.275000X-0.200000X0*%
%ADD14RoundRect,0.225000X-0.225000X-0.375000X0.225000X-0.375000X0.225000X0.375000X-0.225000X0.375000X0*%
%ADD15RoundRect,0.225000X-0.250000X0.225000X-0.250000X-0.225000X0.250000X-0.225000X0.250000X0.225000X0*%
%ADD16RoundRect,0.200000X-0.275000X0.200000X-0.275000X-0.200000X0.275000X-0.200000X0.275000X0.200000X0*%
%ADD17RoundRect,0.250000X0.450000X-0.262500X0.450000X0.262500X-0.450000X0.262500X-0.450000X-0.262500X0*%
%ADD18RoundRect,0.250000X-0.250000X-0.475000X0.250000X-0.475000X0.250000X0.475000X-0.250000X0.475000X0*%
%ADD19RoundRect,0.150000X0.700000X-0.150000X0.700000X0.150000X-0.700000X0.150000X-0.700000X-0.150000X0*%
%ADD20RoundRect,0.250000X1.150000X-0.250000X1.150000X0.250000X-1.150000X0.250000X-1.150000X-0.250000X0*%
%ADD21R,1.500000X2.200000*%
%ADD22RoundRect,0.150000X0.150000X-0.512500X0.150000X0.512500X-0.150000X0.512500X-0.150000X-0.512500X0*%
%ADD23RoundRect,0.250000X1.100000X-0.325000X1.100000X0.325000X-1.100000X0.325000X-1.100000X-0.325000X0*%
G04 APERTURE END LIST*
D10*
%TO.C,R4*%
X163950000Y-61450000D03*
X165600000Y-61450000D03*
%TD*%
D11*
%TO.C,C15*%
X172625000Y-66000000D03*
X174175000Y-66000000D03*
%TD*%
D12*
%TO.C,Q2*%
X177050000Y-73337500D03*
X175150000Y-73337500D03*
X176100000Y-75212500D03*
%TD*%
D13*
%TO.C,R9*%
X175275000Y-69150000D03*
X175275000Y-67500000D03*
%TD*%
D11*
%TO.C,C7*%
X163925000Y-63125000D03*
X165475000Y-63125000D03*
%TD*%
%TO.C,C20*%
X158725000Y-67125000D03*
X160275000Y-67125000D03*
%TD*%
D14*
%TO.C,D3*%
X173600000Y-71025000D03*
X176900000Y-71025000D03*
%TD*%
D11*
%TO.C,C13*%
X169475000Y-66050000D03*
X171025000Y-66050000D03*
%TD*%
D15*
%TO.C,C2*%
X173550000Y-67525000D03*
X173550000Y-69075000D03*
%TD*%
D16*
%TO.C,R8*%
X176900000Y-67475000D03*
X176900000Y-69125000D03*
%TD*%
D17*
%TO.C,R3*%
X162125000Y-63275000D03*
X162125000Y-61450000D03*
%TD*%
D18*
%TO.C,C6*%
X158350000Y-63125000D03*
X160250000Y-63125000D03*
%TD*%
D15*
%TO.C,C1*%
X162300000Y-64850000D03*
X162300000Y-66400000D03*
%TD*%
D19*
%TO.C,J3*%
X155925000Y-73875000D03*
X155925000Y-72625000D03*
X155925000Y-71375000D03*
X155925000Y-70125000D03*
D20*
X152575000Y-75725000D03*
X152575000Y-68275000D03*
%TD*%
D11*
%TO.C,C14*%
X169475000Y-67625000D03*
X171025000Y-67625000D03*
%TD*%
D10*
%TO.C,R5*%
X167325000Y-61525000D03*
X168975000Y-61525000D03*
%TD*%
D21*
%TO.C,L1*%
X160200000Y-72275000D03*
X166600000Y-72275000D03*
%TD*%
D22*
%TO.C,U1*%
X163959389Y-67316599D03*
X164909389Y-67316599D03*
X165859389Y-67316599D03*
X165859389Y-65041599D03*
X164909389Y-65041599D03*
X163959389Y-65041599D03*
%TD*%
D23*
%TO.C,C4*%
X169325000Y-76125000D03*
X169325000Y-73175000D03*
%TD*%
D13*
%TO.C,R1*%
X167375000Y-67425000D03*
X167375000Y-65775000D03*
%TD*%
D18*
%TO.C,C8*%
X158300000Y-65250000D03*
X160200000Y-65250000D03*
%TD*%
D23*
%TO.C,C3*%
X172725000Y-76100000D03*
X172725000Y-73150000D03*
%TD*%
D10*
%TO.C,R2*%
X167325000Y-63250000D03*
X168975000Y-63250000D03*
%TD*%
M02*
