%TF.GenerationSoftware,KiCad,Pcbnew,10.0.5*%
%TF.CreationDate,2026-10-04T22:50:42+08:00*%
%TF.ProjectId,TTLtoCANforTOF,54544c74-6f43-4414-9e66-6f72544f462e,rev?*%
%TF.SameCoordinates,Original*%
%TF.FileFunction,AssemblyDrawing,Top*%
%FSLAX46Y46*%
G04 Gerber Fmt 4.6, Leading zero omitted, Abs format (unit mm)*
G04 Created by KiCad (PCBNEW 10.0.5) date 2026-10-04 22:50:42*
%MOMM*%
%LPD*%
G01*
G04 APERTURE LIST*
%ADD10C,0.150000*%
%ADD11C,0.080000*%
%ADD12C,0.060000*%
%ADD13C,0.110000*%
%ADD14C,0.120000*%
%ADD15C,0.100000*%
G04 APERTURE END LIST*
D10*
X153733333Y-66454819D02*
X153257143Y-66454819D01*
X153257143Y-66454819D02*
X153257143Y-65454819D01*
X154590476Y-66454819D02*
X154019048Y-66454819D01*
X154304762Y-66454819D02*
X154304762Y-65454819D01*
X154304762Y-65454819D02*
X154209524Y-65597676D01*
X154209524Y-65597676D02*
X154114286Y-65692914D01*
X154114286Y-65692914D02*
X154019048Y-65740533D01*
D11*
X159616666Y-62102149D02*
X159450000Y-61864054D01*
X159330952Y-62102149D02*
X159330952Y-61602149D01*
X159330952Y-61602149D02*
X159521428Y-61602149D01*
X159521428Y-61602149D02*
X159569047Y-61625959D01*
X159569047Y-61625959D02*
X159592857Y-61649768D01*
X159592857Y-61649768D02*
X159616666Y-61697387D01*
X159616666Y-61697387D02*
X159616666Y-61768816D01*
X159616666Y-61768816D02*
X159592857Y-61816435D01*
X159592857Y-61816435D02*
X159569047Y-61840244D01*
X159569047Y-61840244D02*
X159521428Y-61864054D01*
X159521428Y-61864054D02*
X159330952Y-61864054D01*
X159783333Y-61602149D02*
X160092857Y-61602149D01*
X160092857Y-61602149D02*
X159926190Y-61792625D01*
X159926190Y-61792625D02*
X159997619Y-61792625D01*
X159997619Y-61792625D02*
X160045238Y-61816435D01*
X160045238Y-61816435D02*
X160069047Y-61840244D01*
X160069047Y-61840244D02*
X160092857Y-61887863D01*
X160092857Y-61887863D02*
X160092857Y-62006911D01*
X160092857Y-62006911D02*
X160069047Y-62054530D01*
X160069047Y-62054530D02*
X160045238Y-62078340D01*
X160045238Y-62078340D02*
X159997619Y-62102149D01*
X159997619Y-62102149D02*
X159854762Y-62102149D01*
X159854762Y-62102149D02*
X159807143Y-62078340D01*
X159807143Y-62078340D02*
X159783333Y-62054530D01*
X153216666Y-71479530D02*
X153192857Y-71503340D01*
X153192857Y-71503340D02*
X153121428Y-71527149D01*
X153121428Y-71527149D02*
X153073809Y-71527149D01*
X153073809Y-71527149D02*
X153002381Y-71503340D01*
X153002381Y-71503340D02*
X152954762Y-71455720D01*
X152954762Y-71455720D02*
X152930952Y-71408101D01*
X152930952Y-71408101D02*
X152907143Y-71312863D01*
X152907143Y-71312863D02*
X152907143Y-71241435D01*
X152907143Y-71241435D02*
X152930952Y-71146197D01*
X152930952Y-71146197D02*
X152954762Y-71098578D01*
X152954762Y-71098578D02*
X153002381Y-71050959D01*
X153002381Y-71050959D02*
X153073809Y-71027149D01*
X153073809Y-71027149D02*
X153121428Y-71027149D01*
X153121428Y-71027149D02*
X153192857Y-71050959D01*
X153192857Y-71050959D02*
X153216666Y-71074768D01*
X153645238Y-71027149D02*
X153550000Y-71027149D01*
X153550000Y-71027149D02*
X153502381Y-71050959D01*
X153502381Y-71050959D02*
X153478571Y-71074768D01*
X153478571Y-71074768D02*
X153430952Y-71146197D01*
X153430952Y-71146197D02*
X153407143Y-71241435D01*
X153407143Y-71241435D02*
X153407143Y-71431911D01*
X153407143Y-71431911D02*
X153430952Y-71479530D01*
X153430952Y-71479530D02*
X153454762Y-71503340D01*
X153454762Y-71503340D02*
X153502381Y-71527149D01*
X153502381Y-71527149D02*
X153597619Y-71527149D01*
X153597619Y-71527149D02*
X153645238Y-71503340D01*
X153645238Y-71503340D02*
X153669047Y-71479530D01*
X153669047Y-71479530D02*
X153692857Y-71431911D01*
X153692857Y-71431911D02*
X153692857Y-71312863D01*
X153692857Y-71312863D02*
X153669047Y-71265244D01*
X153669047Y-71265244D02*
X153645238Y-71241435D01*
X153645238Y-71241435D02*
X153597619Y-71217625D01*
X153597619Y-71217625D02*
X153502381Y-71217625D01*
X153502381Y-71217625D02*
X153454762Y-71241435D01*
X153454762Y-71241435D02*
X153430952Y-71265244D01*
X153430952Y-71265244D02*
X153407143Y-71312863D01*
D12*
X153117857Y-75506332D02*
X153098809Y-75525380D01*
X153098809Y-75525380D02*
X153041667Y-75544427D01*
X153041667Y-75544427D02*
X153003571Y-75544427D01*
X153003571Y-75544427D02*
X152946428Y-75525380D01*
X152946428Y-75525380D02*
X152908333Y-75487284D01*
X152908333Y-75487284D02*
X152889286Y-75449189D01*
X152889286Y-75449189D02*
X152870238Y-75372999D01*
X152870238Y-75372999D02*
X152870238Y-75315856D01*
X152870238Y-75315856D02*
X152889286Y-75239665D01*
X152889286Y-75239665D02*
X152908333Y-75201570D01*
X152908333Y-75201570D02*
X152946428Y-75163475D01*
X152946428Y-75163475D02*
X153003571Y-75144427D01*
X153003571Y-75144427D02*
X153041667Y-75144427D01*
X153041667Y-75144427D02*
X153098809Y-75163475D01*
X153098809Y-75163475D02*
X153117857Y-75182522D01*
X153270238Y-75182522D02*
X153289286Y-75163475D01*
X153289286Y-75163475D02*
X153327381Y-75144427D01*
X153327381Y-75144427D02*
X153422619Y-75144427D01*
X153422619Y-75144427D02*
X153460714Y-75163475D01*
X153460714Y-75163475D02*
X153479762Y-75182522D01*
X153479762Y-75182522D02*
X153498809Y-75220618D01*
X153498809Y-75220618D02*
X153498809Y-75258713D01*
X153498809Y-75258713D02*
X153479762Y-75315856D01*
X153479762Y-75315856D02*
X153251190Y-75544427D01*
X153251190Y-75544427D02*
X153498809Y-75544427D01*
X153746428Y-75144427D02*
X153784523Y-75144427D01*
X153784523Y-75144427D02*
X153822619Y-75163475D01*
X153822619Y-75163475D02*
X153841666Y-75182522D01*
X153841666Y-75182522D02*
X153860714Y-75220618D01*
X153860714Y-75220618D02*
X153879761Y-75296808D01*
X153879761Y-75296808D02*
X153879761Y-75392046D01*
X153879761Y-75392046D02*
X153860714Y-75468237D01*
X153860714Y-75468237D02*
X153841666Y-75506332D01*
X153841666Y-75506332D02*
X153822619Y-75525380D01*
X153822619Y-75525380D02*
X153784523Y-75544427D01*
X153784523Y-75544427D02*
X153746428Y-75544427D01*
X153746428Y-75544427D02*
X153708333Y-75525380D01*
X153708333Y-75525380D02*
X153689285Y-75506332D01*
X153689285Y-75506332D02*
X153670238Y-75468237D01*
X153670238Y-75468237D02*
X153651190Y-75392046D01*
X153651190Y-75392046D02*
X153651190Y-75296808D01*
X153651190Y-75296808D02*
X153670238Y-75220618D01*
X153670238Y-75220618D02*
X153689285Y-75182522D01*
X153689285Y-75182522D02*
X153708333Y-75163475D01*
X153708333Y-75163475D02*
X153746428Y-75144427D01*
D11*
X153216666Y-73604530D02*
X153192857Y-73628340D01*
X153192857Y-73628340D02*
X153121428Y-73652149D01*
X153121428Y-73652149D02*
X153073809Y-73652149D01*
X153073809Y-73652149D02*
X153002381Y-73628340D01*
X153002381Y-73628340D02*
X152954762Y-73580720D01*
X152954762Y-73580720D02*
X152930952Y-73533101D01*
X152930952Y-73533101D02*
X152907143Y-73437863D01*
X152907143Y-73437863D02*
X152907143Y-73366435D01*
X152907143Y-73366435D02*
X152930952Y-73271197D01*
X152930952Y-73271197D02*
X152954762Y-73223578D01*
X152954762Y-73223578D02*
X153002381Y-73175959D01*
X153002381Y-73175959D02*
X153073809Y-73152149D01*
X153073809Y-73152149D02*
X153121428Y-73152149D01*
X153121428Y-73152149D02*
X153192857Y-73175959D01*
X153192857Y-73175959D02*
X153216666Y-73199768D01*
X153502381Y-73366435D02*
X153454762Y-73342625D01*
X153454762Y-73342625D02*
X153430952Y-73318816D01*
X153430952Y-73318816D02*
X153407143Y-73271197D01*
X153407143Y-73271197D02*
X153407143Y-73247387D01*
X153407143Y-73247387D02*
X153430952Y-73199768D01*
X153430952Y-73199768D02*
X153454762Y-73175959D01*
X153454762Y-73175959D02*
X153502381Y-73152149D01*
X153502381Y-73152149D02*
X153597619Y-73152149D01*
X153597619Y-73152149D02*
X153645238Y-73175959D01*
X153645238Y-73175959D02*
X153669047Y-73199768D01*
X153669047Y-73199768D02*
X153692857Y-73247387D01*
X153692857Y-73247387D02*
X153692857Y-73271197D01*
X153692857Y-73271197D02*
X153669047Y-73318816D01*
X153669047Y-73318816D02*
X153645238Y-73342625D01*
X153645238Y-73342625D02*
X153597619Y-73366435D01*
X153597619Y-73366435D02*
X153502381Y-73366435D01*
X153502381Y-73366435D02*
X153454762Y-73390244D01*
X153454762Y-73390244D02*
X153430952Y-73414054D01*
X153430952Y-73414054D02*
X153407143Y-73461673D01*
X153407143Y-73461673D02*
X153407143Y-73556911D01*
X153407143Y-73556911D02*
X153430952Y-73604530D01*
X153430952Y-73604530D02*
X153454762Y-73628340D01*
X153454762Y-73628340D02*
X153502381Y-73652149D01*
X153502381Y-73652149D02*
X153597619Y-73652149D01*
X153597619Y-73652149D02*
X153645238Y-73628340D01*
X153645238Y-73628340D02*
X153669047Y-73604530D01*
X153669047Y-73604530D02*
X153692857Y-73556911D01*
X153692857Y-73556911D02*
X153692857Y-73461673D01*
X153692857Y-73461673D02*
X153669047Y-73414054D01*
X153669047Y-73414054D02*
X153645238Y-73390244D01*
X153645238Y-73390244D02*
X153597619Y-73366435D01*
D12*
X165756927Y-62316666D02*
X165566451Y-62449999D01*
X165756927Y-62545237D02*
X165356927Y-62545237D01*
X165356927Y-62545237D02*
X165356927Y-62392856D01*
X165356927Y-62392856D02*
X165375975Y-62354761D01*
X165375975Y-62354761D02*
X165395022Y-62335714D01*
X165395022Y-62335714D02*
X165433118Y-62316666D01*
X165433118Y-62316666D02*
X165490260Y-62316666D01*
X165490260Y-62316666D02*
X165528356Y-62335714D01*
X165528356Y-62335714D02*
X165547403Y-62354761D01*
X165547403Y-62354761D02*
X165566451Y-62392856D01*
X165566451Y-62392856D02*
X165566451Y-62545237D01*
X165490260Y-61973809D02*
X165756927Y-61973809D01*
X165337880Y-62069047D02*
X165623594Y-62164285D01*
X165623594Y-62164285D02*
X165623594Y-61916666D01*
X173142857Y-66143832D02*
X173123809Y-66162880D01*
X173123809Y-66162880D02*
X173066667Y-66181927D01*
X173066667Y-66181927D02*
X173028571Y-66181927D01*
X173028571Y-66181927D02*
X172971428Y-66162880D01*
X172971428Y-66162880D02*
X172933333Y-66124784D01*
X172933333Y-66124784D02*
X172914286Y-66086689D01*
X172914286Y-66086689D02*
X172895238Y-66010499D01*
X172895238Y-66010499D02*
X172895238Y-65953356D01*
X172895238Y-65953356D02*
X172914286Y-65877165D01*
X172914286Y-65877165D02*
X172933333Y-65839070D01*
X172933333Y-65839070D02*
X172971428Y-65800975D01*
X172971428Y-65800975D02*
X173028571Y-65781927D01*
X173028571Y-65781927D02*
X173066667Y-65781927D01*
X173066667Y-65781927D02*
X173123809Y-65800975D01*
X173123809Y-65800975D02*
X173142857Y-65820022D01*
X173523809Y-66181927D02*
X173295238Y-66181927D01*
X173409524Y-66181927D02*
X173409524Y-65781927D01*
X173409524Y-65781927D02*
X173371428Y-65839070D01*
X173371428Y-65839070D02*
X173333333Y-65877165D01*
X173333333Y-65877165D02*
X173295238Y-65896213D01*
X173885714Y-65781927D02*
X173695238Y-65781927D01*
X173695238Y-65781927D02*
X173676190Y-65972403D01*
X173676190Y-65972403D02*
X173695238Y-65953356D01*
X173695238Y-65953356D02*
X173733333Y-65934308D01*
X173733333Y-65934308D02*
X173828571Y-65934308D01*
X173828571Y-65934308D02*
X173866666Y-65953356D01*
X173866666Y-65953356D02*
X173885714Y-65972403D01*
X173885714Y-65972403D02*
X173904761Y-66010499D01*
X173904761Y-66010499D02*
X173904761Y-66105737D01*
X173904761Y-66105737D02*
X173885714Y-66143832D01*
X173885714Y-66143832D02*
X173866666Y-66162880D01*
X173866666Y-66162880D02*
X173828571Y-66181927D01*
X173828571Y-66181927D02*
X173733333Y-66181927D01*
X173733333Y-66181927D02*
X173695238Y-66162880D01*
X173695238Y-66162880D02*
X173676190Y-66143832D01*
D13*
X176031428Y-74670937D02*
X175962857Y-74636651D01*
X175962857Y-74636651D02*
X175894285Y-74568080D01*
X175894285Y-74568080D02*
X175791428Y-74465222D01*
X175791428Y-74465222D02*
X175722857Y-74430937D01*
X175722857Y-74430937D02*
X175654285Y-74430937D01*
X175688571Y-74602365D02*
X175620000Y-74568080D01*
X175620000Y-74568080D02*
X175551428Y-74499508D01*
X175551428Y-74499508D02*
X175517142Y-74362365D01*
X175517142Y-74362365D02*
X175517142Y-74122365D01*
X175517142Y-74122365D02*
X175551428Y-73985222D01*
X175551428Y-73985222D02*
X175620000Y-73916651D01*
X175620000Y-73916651D02*
X175688571Y-73882365D01*
X175688571Y-73882365D02*
X175825714Y-73882365D01*
X175825714Y-73882365D02*
X175894285Y-73916651D01*
X175894285Y-73916651D02*
X175962857Y-73985222D01*
X175962857Y-73985222D02*
X175997142Y-74122365D01*
X175997142Y-74122365D02*
X175997142Y-74362365D01*
X175997142Y-74362365D02*
X175962857Y-74499508D01*
X175962857Y-74499508D02*
X175894285Y-74568080D01*
X175894285Y-74568080D02*
X175825714Y-74602365D01*
X175825714Y-74602365D02*
X175688571Y-74602365D01*
X176271428Y-73950937D02*
X176305714Y-73916651D01*
X176305714Y-73916651D02*
X176374286Y-73882365D01*
X176374286Y-73882365D02*
X176545714Y-73882365D01*
X176545714Y-73882365D02*
X176614286Y-73916651D01*
X176614286Y-73916651D02*
X176648571Y-73950937D01*
X176648571Y-73950937D02*
X176682857Y-74019508D01*
X176682857Y-74019508D02*
X176682857Y-74088080D01*
X176682857Y-74088080D02*
X176648571Y-74190937D01*
X176648571Y-74190937D02*
X176237143Y-74602365D01*
X176237143Y-74602365D02*
X176682857Y-74602365D01*
D12*
X175456927Y-68391666D02*
X175266451Y-68524999D01*
X175456927Y-68620237D02*
X175056927Y-68620237D01*
X175056927Y-68620237D02*
X175056927Y-68467856D01*
X175056927Y-68467856D02*
X175075975Y-68429761D01*
X175075975Y-68429761D02*
X175095022Y-68410714D01*
X175095022Y-68410714D02*
X175133118Y-68391666D01*
X175133118Y-68391666D02*
X175190260Y-68391666D01*
X175190260Y-68391666D02*
X175228356Y-68410714D01*
X175228356Y-68410714D02*
X175247403Y-68429761D01*
X175247403Y-68429761D02*
X175266451Y-68467856D01*
X175266451Y-68467856D02*
X175266451Y-68620237D01*
X175456927Y-68201190D02*
X175456927Y-68124999D01*
X175456927Y-68124999D02*
X175437880Y-68086904D01*
X175437880Y-68086904D02*
X175418832Y-68067856D01*
X175418832Y-68067856D02*
X175361689Y-68029761D01*
X175361689Y-68029761D02*
X175285499Y-68010714D01*
X175285499Y-68010714D02*
X175133118Y-68010714D01*
X175133118Y-68010714D02*
X175095022Y-68029761D01*
X175095022Y-68029761D02*
X175075975Y-68048809D01*
X175075975Y-68048809D02*
X175056927Y-68086904D01*
X175056927Y-68086904D02*
X175056927Y-68163095D01*
X175056927Y-68163095D02*
X175075975Y-68201190D01*
X175075975Y-68201190D02*
X175095022Y-68220237D01*
X175095022Y-68220237D02*
X175133118Y-68239285D01*
X175133118Y-68239285D02*
X175228356Y-68239285D01*
X175228356Y-68239285D02*
X175266451Y-68220237D01*
X175266451Y-68220237D02*
X175285499Y-68201190D01*
X175285499Y-68201190D02*
X175304546Y-68163095D01*
X175304546Y-68163095D02*
X175304546Y-68086904D01*
X175304546Y-68086904D02*
X175285499Y-68048809D01*
X175285499Y-68048809D02*
X175266451Y-68029761D01*
X175266451Y-68029761D02*
X175228356Y-68010714D01*
X167293832Y-62316666D02*
X167312880Y-62335714D01*
X167312880Y-62335714D02*
X167331927Y-62392856D01*
X167331927Y-62392856D02*
X167331927Y-62430952D01*
X167331927Y-62430952D02*
X167312880Y-62488095D01*
X167312880Y-62488095D02*
X167274784Y-62526190D01*
X167274784Y-62526190D02*
X167236689Y-62545237D01*
X167236689Y-62545237D02*
X167160499Y-62564285D01*
X167160499Y-62564285D02*
X167103356Y-62564285D01*
X167103356Y-62564285D02*
X167027165Y-62545237D01*
X167027165Y-62545237D02*
X166989070Y-62526190D01*
X166989070Y-62526190D02*
X166950975Y-62488095D01*
X166950975Y-62488095D02*
X166931927Y-62430952D01*
X166931927Y-62430952D02*
X166931927Y-62392856D01*
X166931927Y-62392856D02*
X166950975Y-62335714D01*
X166950975Y-62335714D02*
X166970022Y-62316666D01*
X166931927Y-62183333D02*
X166931927Y-61916666D01*
X166931927Y-61916666D02*
X167331927Y-62088095D01*
D10*
X174511905Y-71479819D02*
X174511905Y-70479819D01*
X174511905Y-70479819D02*
X174750000Y-70479819D01*
X174750000Y-70479819D02*
X174892857Y-70527438D01*
X174892857Y-70527438D02*
X174988095Y-70622676D01*
X174988095Y-70622676D02*
X175035714Y-70717914D01*
X175035714Y-70717914D02*
X175083333Y-70908390D01*
X175083333Y-70908390D02*
X175083333Y-71051247D01*
X175083333Y-71051247D02*
X175035714Y-71241723D01*
X175035714Y-71241723D02*
X174988095Y-71336961D01*
X174988095Y-71336961D02*
X174892857Y-71432200D01*
X174892857Y-71432200D02*
X174750000Y-71479819D01*
X174750000Y-71479819D02*
X174511905Y-71479819D01*
X175416667Y-70479819D02*
X176035714Y-70479819D01*
X176035714Y-70479819D02*
X175702381Y-70860771D01*
X175702381Y-70860771D02*
X175845238Y-70860771D01*
X175845238Y-70860771D02*
X175940476Y-70908390D01*
X175940476Y-70908390D02*
X175988095Y-70956009D01*
X175988095Y-70956009D02*
X176035714Y-71051247D01*
X176035714Y-71051247D02*
X176035714Y-71289342D01*
X176035714Y-71289342D02*
X175988095Y-71384580D01*
X175988095Y-71384580D02*
X175940476Y-71432200D01*
X175940476Y-71432200D02*
X175845238Y-71479819D01*
X175845238Y-71479819D02*
X175559524Y-71479819D01*
X175559524Y-71479819D02*
X175464286Y-71432200D01*
X175464286Y-71432200D02*
X175416667Y-71384580D01*
D12*
X169992857Y-66193832D02*
X169973809Y-66212880D01*
X169973809Y-66212880D02*
X169916667Y-66231927D01*
X169916667Y-66231927D02*
X169878571Y-66231927D01*
X169878571Y-66231927D02*
X169821428Y-66212880D01*
X169821428Y-66212880D02*
X169783333Y-66174784D01*
X169783333Y-66174784D02*
X169764286Y-66136689D01*
X169764286Y-66136689D02*
X169745238Y-66060499D01*
X169745238Y-66060499D02*
X169745238Y-66003356D01*
X169745238Y-66003356D02*
X169764286Y-65927165D01*
X169764286Y-65927165D02*
X169783333Y-65889070D01*
X169783333Y-65889070D02*
X169821428Y-65850975D01*
X169821428Y-65850975D02*
X169878571Y-65831927D01*
X169878571Y-65831927D02*
X169916667Y-65831927D01*
X169916667Y-65831927D02*
X169973809Y-65850975D01*
X169973809Y-65850975D02*
X169992857Y-65870022D01*
X170373809Y-66231927D02*
X170145238Y-66231927D01*
X170259524Y-66231927D02*
X170259524Y-65831927D01*
X170259524Y-65831927D02*
X170221428Y-65889070D01*
X170221428Y-65889070D02*
X170183333Y-65927165D01*
X170183333Y-65927165D02*
X170145238Y-65946213D01*
X170507142Y-65831927D02*
X170754761Y-65831927D01*
X170754761Y-65831927D02*
X170621428Y-65984308D01*
X170621428Y-65984308D02*
X170678571Y-65984308D01*
X170678571Y-65984308D02*
X170716666Y-66003356D01*
X170716666Y-66003356D02*
X170735714Y-66022403D01*
X170735714Y-66022403D02*
X170754761Y-66060499D01*
X170754761Y-66060499D02*
X170754761Y-66155737D01*
X170754761Y-66155737D02*
X170735714Y-66193832D01*
X170735714Y-66193832D02*
X170716666Y-66212880D01*
X170716666Y-66212880D02*
X170678571Y-66231927D01*
X170678571Y-66231927D02*
X170564285Y-66231927D01*
X170564285Y-66231927D02*
X170526190Y-66212880D01*
X170526190Y-66212880D02*
X170507142Y-66193832D01*
X173693832Y-68366666D02*
X173712880Y-68385714D01*
X173712880Y-68385714D02*
X173731927Y-68442856D01*
X173731927Y-68442856D02*
X173731927Y-68480952D01*
X173731927Y-68480952D02*
X173712880Y-68538095D01*
X173712880Y-68538095D02*
X173674784Y-68576190D01*
X173674784Y-68576190D02*
X173636689Y-68595237D01*
X173636689Y-68595237D02*
X173560499Y-68614285D01*
X173560499Y-68614285D02*
X173503356Y-68614285D01*
X173503356Y-68614285D02*
X173427165Y-68595237D01*
X173427165Y-68595237D02*
X173389070Y-68576190D01*
X173389070Y-68576190D02*
X173350975Y-68538095D01*
X173350975Y-68538095D02*
X173331927Y-68480952D01*
X173331927Y-68480952D02*
X173331927Y-68442856D01*
X173331927Y-68442856D02*
X173350975Y-68385714D01*
X173350975Y-68385714D02*
X173370022Y-68366666D01*
X173370022Y-68214285D02*
X173350975Y-68195237D01*
X173350975Y-68195237D02*
X173331927Y-68157142D01*
X173331927Y-68157142D02*
X173331927Y-68061904D01*
X173331927Y-68061904D02*
X173350975Y-68023809D01*
X173350975Y-68023809D02*
X173370022Y-68004761D01*
X173370022Y-68004761D02*
X173408118Y-67985714D01*
X173408118Y-67985714D02*
X173446213Y-67985714D01*
X173446213Y-67985714D02*
X173503356Y-68004761D01*
X173503356Y-68004761D02*
X173731927Y-68233333D01*
X173731927Y-68233333D02*
X173731927Y-67985714D01*
X177081927Y-68366666D02*
X176891451Y-68499999D01*
X177081927Y-68595237D02*
X176681927Y-68595237D01*
X176681927Y-68595237D02*
X176681927Y-68442856D01*
X176681927Y-68442856D02*
X176700975Y-68404761D01*
X176700975Y-68404761D02*
X176720022Y-68385714D01*
X176720022Y-68385714D02*
X176758118Y-68366666D01*
X176758118Y-68366666D02*
X176815260Y-68366666D01*
X176815260Y-68366666D02*
X176853356Y-68385714D01*
X176853356Y-68385714D02*
X176872403Y-68404761D01*
X176872403Y-68404761D02*
X176891451Y-68442856D01*
X176891451Y-68442856D02*
X176891451Y-68595237D01*
X176853356Y-68138095D02*
X176834308Y-68176190D01*
X176834308Y-68176190D02*
X176815260Y-68195237D01*
X176815260Y-68195237D02*
X176777165Y-68214285D01*
X176777165Y-68214285D02*
X176758118Y-68214285D01*
X176758118Y-68214285D02*
X176720022Y-68195237D01*
X176720022Y-68195237D02*
X176700975Y-68176190D01*
X176700975Y-68176190D02*
X176681927Y-68138095D01*
X176681927Y-68138095D02*
X176681927Y-68061904D01*
X176681927Y-68061904D02*
X176700975Y-68023809D01*
X176700975Y-68023809D02*
X176720022Y-68004761D01*
X176720022Y-68004761D02*
X176758118Y-67985714D01*
X176758118Y-67985714D02*
X176777165Y-67985714D01*
X176777165Y-67985714D02*
X176815260Y-68004761D01*
X176815260Y-68004761D02*
X176834308Y-68023809D01*
X176834308Y-68023809D02*
X176853356Y-68061904D01*
X176853356Y-68061904D02*
X176853356Y-68138095D01*
X176853356Y-68138095D02*
X176872403Y-68176190D01*
X176872403Y-68176190D02*
X176891451Y-68195237D01*
X176891451Y-68195237D02*
X176929546Y-68214285D01*
X176929546Y-68214285D02*
X177005737Y-68214285D01*
X177005737Y-68214285D02*
X177043832Y-68195237D01*
X177043832Y-68195237D02*
X177062880Y-68176190D01*
X177062880Y-68176190D02*
X177081927Y-68138095D01*
X177081927Y-68138095D02*
X177081927Y-68061904D01*
X177081927Y-68061904D02*
X177062880Y-68023809D01*
X177062880Y-68023809D02*
X177043832Y-68004761D01*
X177043832Y-68004761D02*
X177005737Y-67985714D01*
X177005737Y-67985714D02*
X176929546Y-67985714D01*
X176929546Y-67985714D02*
X176891451Y-68004761D01*
X176891451Y-68004761D02*
X176872403Y-68023809D01*
X176872403Y-68023809D02*
X176853356Y-68061904D01*
X160618832Y-64566666D02*
X160637880Y-64585714D01*
X160637880Y-64585714D02*
X160656927Y-64642856D01*
X160656927Y-64642856D02*
X160656927Y-64680952D01*
X160656927Y-64680952D02*
X160637880Y-64738095D01*
X160637880Y-64738095D02*
X160599784Y-64776190D01*
X160599784Y-64776190D02*
X160561689Y-64795237D01*
X160561689Y-64795237D02*
X160485499Y-64814285D01*
X160485499Y-64814285D02*
X160428356Y-64814285D01*
X160428356Y-64814285D02*
X160352165Y-64795237D01*
X160352165Y-64795237D02*
X160314070Y-64776190D01*
X160314070Y-64776190D02*
X160275975Y-64738095D01*
X160275975Y-64738095D02*
X160256927Y-64680952D01*
X160256927Y-64680952D02*
X160256927Y-64642856D01*
X160256927Y-64642856D02*
X160275975Y-64585714D01*
X160275975Y-64585714D02*
X160295022Y-64566666D01*
X160656927Y-64185714D02*
X160656927Y-64414285D01*
X160656927Y-64299999D02*
X160256927Y-64299999D01*
X160256927Y-64299999D02*
X160314070Y-64338095D01*
X160314070Y-64338095D02*
X160352165Y-64376190D01*
X160352165Y-64376190D02*
X160371213Y-64414285D01*
D10*
X158129819Y-72613094D02*
X158129819Y-72041666D01*
X159129819Y-72327380D02*
X158129819Y-72327380D01*
X158129819Y-71517856D02*
X158129819Y-71327380D01*
X158129819Y-71327380D02*
X158177438Y-71232142D01*
X158177438Y-71232142D02*
X158272676Y-71136904D01*
X158272676Y-71136904D02*
X158463152Y-71089285D01*
X158463152Y-71089285D02*
X158796485Y-71089285D01*
X158796485Y-71089285D02*
X158986961Y-71136904D01*
X158986961Y-71136904D02*
X159082200Y-71232142D01*
X159082200Y-71232142D02*
X159129819Y-71327380D01*
X159129819Y-71327380D02*
X159129819Y-71517856D01*
X159129819Y-71517856D02*
X159082200Y-71613094D01*
X159082200Y-71613094D02*
X158986961Y-71708332D01*
X158986961Y-71708332D02*
X158796485Y-71755951D01*
X158796485Y-71755951D02*
X158463152Y-71755951D01*
X158463152Y-71755951D02*
X158272676Y-71708332D01*
X158272676Y-71708332D02*
X158177438Y-71613094D01*
X158177438Y-71613094D02*
X158129819Y-71517856D01*
X158606009Y-70327380D02*
X158606009Y-70660713D01*
X159129819Y-70660713D02*
X158129819Y-70660713D01*
X158129819Y-70660713D02*
X158129819Y-70184523D01*
X158104819Y-71808333D02*
X158819104Y-71808333D01*
X158819104Y-71808333D02*
X158961961Y-71855952D01*
X158961961Y-71855952D02*
X159057200Y-71951190D01*
X159057200Y-71951190D02*
X159104819Y-72094047D01*
X159104819Y-72094047D02*
X159104819Y-72189285D01*
X158104819Y-71427380D02*
X158104819Y-70808333D01*
X158104819Y-70808333D02*
X158485771Y-71141666D01*
X158485771Y-71141666D02*
X158485771Y-70998809D01*
X158485771Y-70998809D02*
X158533390Y-70903571D01*
X158533390Y-70903571D02*
X158581009Y-70855952D01*
X158581009Y-70855952D02*
X158676247Y-70808333D01*
X158676247Y-70808333D02*
X158914342Y-70808333D01*
X158914342Y-70808333D02*
X159009580Y-70855952D01*
X159009580Y-70855952D02*
X159057200Y-70903571D01*
X159057200Y-70903571D02*
X159104819Y-70998809D01*
X159104819Y-70998809D02*
X159104819Y-71284523D01*
X159104819Y-71284523D02*
X159057200Y-71379761D01*
X159057200Y-71379761D02*
X159009580Y-71427380D01*
D12*
X169992857Y-67768832D02*
X169973809Y-67787880D01*
X169973809Y-67787880D02*
X169916667Y-67806927D01*
X169916667Y-67806927D02*
X169878571Y-67806927D01*
X169878571Y-67806927D02*
X169821428Y-67787880D01*
X169821428Y-67787880D02*
X169783333Y-67749784D01*
X169783333Y-67749784D02*
X169764286Y-67711689D01*
X169764286Y-67711689D02*
X169745238Y-67635499D01*
X169745238Y-67635499D02*
X169745238Y-67578356D01*
X169745238Y-67578356D02*
X169764286Y-67502165D01*
X169764286Y-67502165D02*
X169783333Y-67464070D01*
X169783333Y-67464070D02*
X169821428Y-67425975D01*
X169821428Y-67425975D02*
X169878571Y-67406927D01*
X169878571Y-67406927D02*
X169916667Y-67406927D01*
X169916667Y-67406927D02*
X169973809Y-67425975D01*
X169973809Y-67425975D02*
X169992857Y-67445022D01*
X170373809Y-67806927D02*
X170145238Y-67806927D01*
X170259524Y-67806927D02*
X170259524Y-67406927D01*
X170259524Y-67406927D02*
X170221428Y-67464070D01*
X170221428Y-67464070D02*
X170183333Y-67502165D01*
X170183333Y-67502165D02*
X170145238Y-67521213D01*
X170716666Y-67540260D02*
X170716666Y-67806927D01*
X170621428Y-67387880D02*
X170526190Y-67673594D01*
X170526190Y-67673594D02*
X170773809Y-67673594D01*
X168906927Y-62316666D02*
X168716451Y-62449999D01*
X168906927Y-62545237D02*
X168506927Y-62545237D01*
X168506927Y-62545237D02*
X168506927Y-62392856D01*
X168506927Y-62392856D02*
X168525975Y-62354761D01*
X168525975Y-62354761D02*
X168545022Y-62335714D01*
X168545022Y-62335714D02*
X168583118Y-62316666D01*
X168583118Y-62316666D02*
X168640260Y-62316666D01*
X168640260Y-62316666D02*
X168678356Y-62335714D01*
X168678356Y-62335714D02*
X168697403Y-62354761D01*
X168697403Y-62354761D02*
X168716451Y-62392856D01*
X168716451Y-62392856D02*
X168716451Y-62545237D01*
X168506927Y-61954761D02*
X168506927Y-62145237D01*
X168506927Y-62145237D02*
X168697403Y-62164285D01*
X168697403Y-62164285D02*
X168678356Y-62145237D01*
X168678356Y-62145237D02*
X168659308Y-62107142D01*
X168659308Y-62107142D02*
X168659308Y-62011904D01*
X168659308Y-62011904D02*
X168678356Y-61973809D01*
X168678356Y-61973809D02*
X168697403Y-61954761D01*
X168697403Y-61954761D02*
X168735499Y-61935714D01*
X168735499Y-61935714D02*
X168830737Y-61935714D01*
X168830737Y-61935714D02*
X168868832Y-61954761D01*
X168868832Y-61954761D02*
X168887880Y-61973809D01*
X168887880Y-61973809D02*
X168906927Y-62011904D01*
X168906927Y-62011904D02*
X168906927Y-62107142D01*
X168906927Y-62107142D02*
X168887880Y-62145237D01*
X168887880Y-62145237D02*
X168868832Y-62164285D01*
D13*
X162463928Y-64157365D02*
X162463928Y-64740222D01*
X162463928Y-64740222D02*
X162498214Y-64808794D01*
X162498214Y-64808794D02*
X162532500Y-64843080D01*
X162532500Y-64843080D02*
X162601071Y-64877365D01*
X162601071Y-64877365D02*
X162738214Y-64877365D01*
X162738214Y-64877365D02*
X162806785Y-64843080D01*
X162806785Y-64843080D02*
X162841071Y-64808794D01*
X162841071Y-64808794D02*
X162875357Y-64740222D01*
X162875357Y-64740222D02*
X162875357Y-64157365D01*
X163595357Y-64877365D02*
X163183928Y-64877365D01*
X163389643Y-64877365D02*
X163389643Y-64157365D01*
X163389643Y-64157365D02*
X163321071Y-64260222D01*
X163321071Y-64260222D02*
X163252500Y-64328794D01*
X163252500Y-64328794D02*
X163183928Y-64363080D01*
D14*
X170262664Y-71598332D02*
X170300760Y-71636428D01*
X170300760Y-71636428D02*
X170338855Y-71750713D01*
X170338855Y-71750713D02*
X170338855Y-71826904D01*
X170338855Y-71826904D02*
X170300760Y-71941190D01*
X170300760Y-71941190D02*
X170224569Y-72017380D01*
X170224569Y-72017380D02*
X170148379Y-72055475D01*
X170148379Y-72055475D02*
X169995998Y-72093571D01*
X169995998Y-72093571D02*
X169881712Y-72093571D01*
X169881712Y-72093571D02*
X169729331Y-72055475D01*
X169729331Y-72055475D02*
X169653140Y-72017380D01*
X169653140Y-72017380D02*
X169576950Y-71941190D01*
X169576950Y-71941190D02*
X169538855Y-71826904D01*
X169538855Y-71826904D02*
X169538855Y-71750713D01*
X169538855Y-71750713D02*
X169576950Y-71636428D01*
X169576950Y-71636428D02*
X169615045Y-71598332D01*
X169805521Y-70912618D02*
X170338855Y-70912618D01*
X169500760Y-71103094D02*
X170072188Y-71293571D01*
X170072188Y-71293571D02*
X170072188Y-70798332D01*
D12*
X165831927Y-65641666D02*
X165641451Y-65774999D01*
X165831927Y-65870237D02*
X165431927Y-65870237D01*
X165431927Y-65870237D02*
X165431927Y-65717856D01*
X165431927Y-65717856D02*
X165450975Y-65679761D01*
X165450975Y-65679761D02*
X165470022Y-65660714D01*
X165470022Y-65660714D02*
X165508118Y-65641666D01*
X165508118Y-65641666D02*
X165565260Y-65641666D01*
X165565260Y-65641666D02*
X165603356Y-65660714D01*
X165603356Y-65660714D02*
X165622403Y-65679761D01*
X165622403Y-65679761D02*
X165641451Y-65717856D01*
X165641451Y-65717856D02*
X165641451Y-65870237D01*
X165831927Y-65260714D02*
X165831927Y-65489285D01*
X165831927Y-65374999D02*
X165431927Y-65374999D01*
X165431927Y-65374999D02*
X165489070Y-65413095D01*
X165489070Y-65413095D02*
X165527165Y-65451190D01*
X165527165Y-65451190D02*
X165546213Y-65489285D01*
D14*
X166712664Y-70158332D02*
X166750760Y-70196428D01*
X166750760Y-70196428D02*
X166788855Y-70310713D01*
X166788855Y-70310713D02*
X166788855Y-70386904D01*
X166788855Y-70386904D02*
X166750760Y-70501190D01*
X166750760Y-70501190D02*
X166674569Y-70577380D01*
X166674569Y-70577380D02*
X166598379Y-70615475D01*
X166598379Y-70615475D02*
X166445998Y-70653571D01*
X166445998Y-70653571D02*
X166331712Y-70653571D01*
X166331712Y-70653571D02*
X166179331Y-70615475D01*
X166179331Y-70615475D02*
X166103140Y-70577380D01*
X166103140Y-70577380D02*
X166026950Y-70501190D01*
X166026950Y-70501190D02*
X165988855Y-70386904D01*
X165988855Y-70386904D02*
X165988855Y-70310713D01*
X165988855Y-70310713D02*
X166026950Y-70196428D01*
X166026950Y-70196428D02*
X166065045Y-70158332D01*
X165988855Y-69891666D02*
X165988855Y-69396428D01*
X165988855Y-69396428D02*
X166293617Y-69663094D01*
X166293617Y-69663094D02*
X166293617Y-69548809D01*
X166293617Y-69548809D02*
X166331712Y-69472618D01*
X166331712Y-69472618D02*
X166369807Y-69434523D01*
X166369807Y-69434523D02*
X166445998Y-69396428D01*
X166445998Y-69396428D02*
X166636474Y-69396428D01*
X166636474Y-69396428D02*
X166712664Y-69434523D01*
X166712664Y-69434523D02*
X166750760Y-69472618D01*
X166750760Y-69472618D02*
X166788855Y-69548809D01*
X166788855Y-69548809D02*
X166788855Y-69777380D01*
X166788855Y-69777380D02*
X166750760Y-69853571D01*
X166750760Y-69853571D02*
X166712664Y-69891666D01*
D12*
X167631927Y-65791666D02*
X167441451Y-65924999D01*
X167631927Y-66020237D02*
X167231927Y-66020237D01*
X167231927Y-66020237D02*
X167231927Y-65867856D01*
X167231927Y-65867856D02*
X167250975Y-65829761D01*
X167250975Y-65829761D02*
X167270022Y-65810714D01*
X167270022Y-65810714D02*
X167308118Y-65791666D01*
X167308118Y-65791666D02*
X167365260Y-65791666D01*
X167365260Y-65791666D02*
X167403356Y-65810714D01*
X167403356Y-65810714D02*
X167422403Y-65829761D01*
X167422403Y-65829761D02*
X167441451Y-65867856D01*
X167441451Y-65867856D02*
X167441451Y-66020237D01*
X167270022Y-65639285D02*
X167250975Y-65620237D01*
X167250975Y-65620237D02*
X167231927Y-65582142D01*
X167231927Y-65582142D02*
X167231927Y-65486904D01*
X167231927Y-65486904D02*
X167250975Y-65448809D01*
X167250975Y-65448809D02*
X167270022Y-65429761D01*
X167270022Y-65429761D02*
X167308118Y-65410714D01*
X167308118Y-65410714D02*
X167346213Y-65410714D01*
X167346213Y-65410714D02*
X167403356Y-65429761D01*
X167403356Y-65429761D02*
X167631927Y-65658333D01*
X167631927Y-65658333D02*
X167631927Y-65410714D01*
%TO.C,L1*%
D15*
X151400000Y-63500000D02*
X156400000Y-63500000D01*
X156400000Y-68500000D01*
X151400000Y-68500000D01*
X151400000Y-63500000D01*
%TO.C,R3*%
X158700000Y-61250000D02*
X160700000Y-61250000D01*
X160700000Y-62500000D01*
X158700000Y-62500000D01*
X158700000Y-61250000D01*
%TO.C,C6*%
X152300000Y-70675000D02*
X154300000Y-70675000D01*
X154300000Y-71925000D01*
X152300000Y-71925000D01*
X152300000Y-70675000D01*
%TO.C,C20*%
X152675000Y-74950000D02*
X154275000Y-74950000D01*
X154275000Y-75750000D01*
X152675000Y-75750000D01*
X152675000Y-74950000D01*
%TO.C,C8*%
X152300000Y-72800000D02*
X154300000Y-72800000D01*
X154300000Y-74050000D01*
X152300000Y-74050000D01*
X152300000Y-72800000D01*
%TO.C,R4*%
X165162500Y-61450000D02*
X165987500Y-61450000D01*
X165987500Y-63050000D01*
X165162500Y-63050000D01*
X165162500Y-61450000D01*
%TO.C,C15*%
X172600000Y-65600000D02*
X174200000Y-65600000D01*
X174200000Y-66400000D01*
X172600000Y-66400000D01*
X172600000Y-65600000D01*
%TO.C,Q2*%
X177550000Y-73950000D02*
X177550000Y-74925000D01*
X174650000Y-74925000D01*
X174650000Y-73625000D01*
X177225000Y-73625000D01*
X177550000Y-73950000D01*
%TO.C,R9*%
X174862500Y-67525000D02*
X175687500Y-67525000D01*
X175687500Y-69125000D01*
X174862500Y-69125000D01*
X174862500Y-67525000D01*
%TO.C,C7*%
X166750000Y-61450000D02*
X167550000Y-61450000D01*
X167550000Y-63050000D01*
X166750000Y-63050000D01*
X166750000Y-61450000D01*
%TO.C,D3*%
X173850000Y-70125000D02*
X176650000Y-70125000D01*
X173850000Y-71925000D02*
X173850000Y-70125000D01*
X174500000Y-71025000D02*
X174900000Y-71025000D01*
X174900000Y-71025000D02*
X174900000Y-70475000D01*
X174900000Y-71025000D02*
X174900000Y-71575000D01*
X174900000Y-71025000D02*
X175500000Y-70625000D01*
X175500000Y-70625000D02*
X175500000Y-71425000D01*
X175500000Y-71025000D02*
X176000000Y-71025000D01*
X175500000Y-71425000D02*
X174900000Y-71025000D01*
X176650000Y-70125000D02*
X176650000Y-71925000D01*
X176650000Y-71925000D02*
X173850000Y-71925000D01*
%TO.C,C13*%
X169450000Y-65650000D02*
X171050000Y-65650000D01*
X171050000Y-66450000D01*
X169450000Y-66450000D01*
X169450000Y-65650000D01*
%TO.C,C2*%
X173150000Y-67500000D02*
X173950000Y-67500000D01*
X173950000Y-69100000D01*
X173150000Y-69100000D01*
X173150000Y-67500000D01*
%TO.C,R8*%
X176487500Y-67500000D02*
X177312500Y-67500000D01*
X177312500Y-69100000D01*
X176487500Y-69100000D01*
X176487500Y-67500000D01*
%TO.C,C1*%
X160075000Y-63700000D02*
X160875000Y-63700000D01*
X160875000Y-65300000D01*
X160075000Y-65300000D01*
X160075000Y-63700000D01*
%TO.C,J3*%
X157650000Y-75600000D02*
X157650000Y-67350000D01*
X161192893Y-73350000D02*
X161900000Y-72850000D01*
X161900000Y-67350000D02*
X157650000Y-67350000D01*
X161900000Y-73850000D02*
X161192893Y-73350000D01*
X161900000Y-75600000D02*
X157650000Y-75600000D01*
X161900000Y-75600000D02*
X161900000Y-67350000D01*
X159650000Y-69350000D02*
X160150000Y-69350000D01*
X160150000Y-69850000D01*
X159650000Y-69850000D01*
X159650000Y-69350000D01*
X159650000Y-70600000D02*
X160150000Y-70600000D01*
X160150000Y-71100000D01*
X159650000Y-71100000D01*
X159650000Y-70600000D01*
X159650000Y-71850000D02*
X160150000Y-71850000D01*
X160150000Y-72350000D01*
X159650000Y-72350000D01*
X159650000Y-71850000D01*
X159650000Y-73100000D02*
X160150000Y-73100000D01*
X160150000Y-73600000D01*
X159650000Y-73600000D01*
X159650000Y-73100000D01*
%TO.C,C14*%
X169450000Y-67225000D02*
X171050000Y-67225000D01*
X171050000Y-68025000D01*
X169450000Y-68025000D01*
X169450000Y-67225000D01*
%TO.C,R5*%
X168312500Y-61450000D02*
X169137500Y-61450000D01*
X169137500Y-63050000D01*
X168312500Y-63050000D01*
X168312500Y-61450000D01*
%TO.C,U1*%
X161562500Y-64950000D02*
X161562500Y-63750000D01*
X164462500Y-63750000D01*
X164462500Y-65350000D01*
X161962500Y-65350000D01*
X161562500Y-64950000D01*
%TO.C,C4*%
X168625000Y-69775000D02*
X171125000Y-69775000D01*
X171125000Y-72975000D01*
X168625000Y-72975000D01*
X168625000Y-69775000D01*
%TO.C,R1*%
X165237500Y-64775000D02*
X166062500Y-64775000D01*
X166062500Y-66375000D01*
X165237500Y-66375000D01*
X165237500Y-64775000D01*
%TO.C,C3*%
X165175000Y-68425000D02*
X167675000Y-68425000D01*
X167675000Y-71625000D01*
X165175000Y-71625000D01*
X165175000Y-68425000D01*
%TO.C,R2*%
X167112500Y-64850000D02*
X167937500Y-64850000D01*
X167937500Y-66450000D01*
X167112500Y-66450000D01*
X167112500Y-64850000D01*
%TD*%
M02*
