%TF.GenerationSoftware,KiCad,Pcbnew,10.0.5*%
%TF.CreationDate,2026-10-03T22:29:29+08:00*%
%TF.ProjectId,TTLtoCANforTOF,54544c74-6f43-4414-9e66-6f72544f462e,rev?*%
%TF.SameCoordinates,Original*%
%TF.FileFunction,Legend,Bot*%
%TF.FilePolarity,Positive*%
%FSLAX46Y46*%
G04 Gerber Fmt 4.6, Leading zero omitted, Abs format (unit mm)*
G04 Created by KiCad (PCBNEW 10.0.5) date 2026-10-03 22:29:29*
%MOMM*%
%LPD*%
G01*
G04 APERTURE LIST*
%ADD10C,0.150000*%
%ADD11C,0.120000*%
G04 APERTURE END LIST*
D10*
X151903819Y-73916646D02*
X152618104Y-73916646D01*
X152618104Y-73916646D02*
X152760961Y-73869027D01*
X152760961Y-73869027D02*
X152856200Y-73773789D01*
X152856200Y-73773789D02*
X152903819Y-73630932D01*
X152903819Y-73630932D02*
X152903819Y-73535694D01*
X151903819Y-74821408D02*
X151903819Y-74630932D01*
X151903819Y-74630932D02*
X151951438Y-74535694D01*
X151951438Y-74535694D02*
X151999057Y-74488075D01*
X151999057Y-74488075D02*
X152141914Y-74392837D01*
X152141914Y-74392837D02*
X152332390Y-74345218D01*
X152332390Y-74345218D02*
X152713342Y-74345218D01*
X152713342Y-74345218D02*
X152808580Y-74392837D01*
X152808580Y-74392837D02*
X152856200Y-74440456D01*
X152856200Y-74440456D02*
X152903819Y-74535694D01*
X152903819Y-74535694D02*
X152903819Y-74726170D01*
X152903819Y-74726170D02*
X152856200Y-74821408D01*
X152856200Y-74821408D02*
X152808580Y-74869027D01*
X152808580Y-74869027D02*
X152713342Y-74916646D01*
X152713342Y-74916646D02*
X152475247Y-74916646D01*
X152475247Y-74916646D02*
X152380009Y-74869027D01*
X152380009Y-74869027D02*
X152332390Y-74821408D01*
X152332390Y-74821408D02*
X152284771Y-74726170D01*
X152284771Y-74726170D02*
X152284771Y-74535694D01*
X152284771Y-74535694D02*
X152332390Y-74440456D01*
X152332390Y-74440456D02*
X152380009Y-74392837D01*
X152380009Y-74392837D02*
X152475247Y-74345218D01*
X161879818Y-63603095D02*
X162689341Y-63603095D01*
X162689341Y-63603095D02*
X162784579Y-63650714D01*
X162784579Y-63650714D02*
X162832199Y-63698333D01*
X162832199Y-63698333D02*
X162879818Y-63793571D01*
X162879818Y-63793571D02*
X162879818Y-63984047D01*
X162879818Y-63984047D02*
X162832199Y-64079285D01*
X162832199Y-64079285D02*
X162784579Y-64126904D01*
X162784579Y-64126904D02*
X162689341Y-64174523D01*
X162689341Y-64174523D02*
X161879818Y-64174523D01*
X161879818Y-65079285D02*
X161879818Y-64888809D01*
X161879818Y-64888809D02*
X161927437Y-64793571D01*
X161927437Y-64793571D02*
X161975056Y-64745952D01*
X161975056Y-64745952D02*
X162117913Y-64650714D01*
X162117913Y-64650714D02*
X162308389Y-64603095D01*
X162308389Y-64603095D02*
X162689341Y-64603095D01*
X162689341Y-64603095D02*
X162784579Y-64650714D01*
X162784579Y-64650714D02*
X162832199Y-64698333D01*
X162832199Y-64698333D02*
X162879818Y-64793571D01*
X162879818Y-64793571D02*
X162879818Y-64984047D01*
X162879818Y-64984047D02*
X162832199Y-65079285D01*
X162832199Y-65079285D02*
X162784579Y-65126904D01*
X162784579Y-65126904D02*
X162689341Y-65174523D01*
X162689341Y-65174523D02*
X162451246Y-65174523D01*
X162451246Y-65174523D02*
X162356008Y-65126904D01*
X162356008Y-65126904D02*
X162308389Y-65079285D01*
X162308389Y-65079285D02*
X162260770Y-64984047D01*
X162260770Y-64984047D02*
X162260770Y-64793571D01*
X162260770Y-64793571D02*
X162308389Y-64698333D01*
X162308389Y-64698333D02*
X162356008Y-64650714D01*
X162356008Y-64650714D02*
X162451246Y-64603095D01*
X161208333Y-76579819D02*
X161208333Y-77294104D01*
X161208333Y-77294104D02*
X161255952Y-77436961D01*
X161255952Y-77436961D02*
X161351190Y-77532200D01*
X161351190Y-77532200D02*
X161494047Y-77579819D01*
X161494047Y-77579819D02*
X161589285Y-77579819D01*
X160827380Y-76579819D02*
X160208333Y-76579819D01*
X160208333Y-76579819D02*
X160541666Y-76960771D01*
X160541666Y-76960771D02*
X160398809Y-76960771D01*
X160398809Y-76960771D02*
X160303571Y-77008390D01*
X160303571Y-77008390D02*
X160255952Y-77056009D01*
X160255952Y-77056009D02*
X160208333Y-77151247D01*
X160208333Y-77151247D02*
X160208333Y-77389342D01*
X160208333Y-77389342D02*
X160255952Y-77484580D01*
X160255952Y-77484580D02*
X160303571Y-77532200D01*
X160303571Y-77532200D02*
X160398809Y-77579819D01*
X160398809Y-77579819D02*
X160684523Y-77579819D01*
X160684523Y-77579819D02*
X160779761Y-77532200D01*
X160779761Y-77532200D02*
X160827380Y-77484580D01*
X151678819Y-64031666D02*
X152393104Y-64031666D01*
X152393104Y-64031666D02*
X152535961Y-63984047D01*
X152535961Y-63984047D02*
X152631200Y-63888809D01*
X152631200Y-63888809D02*
X152678819Y-63745952D01*
X152678819Y-63745952D02*
X152678819Y-63650714D01*
X151774057Y-64460238D02*
X151726438Y-64507857D01*
X151726438Y-64507857D02*
X151678819Y-64603095D01*
X151678819Y-64603095D02*
X151678819Y-64841190D01*
X151678819Y-64841190D02*
X151726438Y-64936428D01*
X151726438Y-64936428D02*
X151774057Y-64984047D01*
X151774057Y-64984047D02*
X151869295Y-65031666D01*
X151869295Y-65031666D02*
X151964533Y-65031666D01*
X151964533Y-65031666D02*
X152107390Y-64984047D01*
X152107390Y-64984047D02*
X152678819Y-64412619D01*
X152678819Y-64412619D02*
X152678819Y-65031666D01*
X171729819Y-70913095D02*
X172539342Y-70913095D01*
X172539342Y-70913095D02*
X172634580Y-70960714D01*
X172634580Y-70960714D02*
X172682200Y-71008333D01*
X172682200Y-71008333D02*
X172729819Y-71103571D01*
X172729819Y-71103571D02*
X172729819Y-71294047D01*
X172729819Y-71294047D02*
X172682200Y-71389285D01*
X172682200Y-71389285D02*
X172634580Y-71436904D01*
X172634580Y-71436904D02*
X172539342Y-71484523D01*
X172539342Y-71484523D02*
X171729819Y-71484523D01*
X171729819Y-71865476D02*
X171729819Y-72484523D01*
X171729819Y-72484523D02*
X172110771Y-72151190D01*
X172110771Y-72151190D02*
X172110771Y-72294047D01*
X172110771Y-72294047D02*
X172158390Y-72389285D01*
X172158390Y-72389285D02*
X172206009Y-72436904D01*
X172206009Y-72436904D02*
X172301247Y-72484523D01*
X172301247Y-72484523D02*
X172539342Y-72484523D01*
X172539342Y-72484523D02*
X172634580Y-72436904D01*
X172634580Y-72436904D02*
X172682200Y-72389285D01*
X172682200Y-72389285D02*
X172729819Y-72294047D01*
X172729819Y-72294047D02*
X172729819Y-72008333D01*
X172729819Y-72008333D02*
X172682200Y-71913095D01*
X172682200Y-71913095D02*
X172634580Y-71865476D01*
%TO.C,J6*%
D11*
X149514000Y-77189980D02*
X149514000Y-71259980D01*
X152484000Y-69939980D02*
X154134000Y-69939980D01*
X152484000Y-78509980D02*
X154134000Y-78509980D01*
X154134000Y-69939980D02*
X154134000Y-71789980D01*
X154134000Y-76659980D02*
X154924000Y-76659980D01*
X154134000Y-78509980D02*
X154134000Y-76659980D01*
%TO.C,R7*%
X164977500Y-72737258D02*
X164977500Y-72262742D01*
X166022500Y-72737258D02*
X166022500Y-72262742D01*
%TO.C,C12*%
X163040000Y-68709420D02*
X163040000Y-68990580D01*
X164060000Y-68709420D02*
X164060000Y-68990580D01*
%TO.C,C19*%
X168122500Y-63365579D02*
X168122500Y-63084419D01*
X169142500Y-63365579D02*
X169142500Y-63084419D01*
%TO.C,C16*%
X170315000Y-63221920D02*
X170315000Y-63503080D01*
X171335000Y-63221920D02*
X171335000Y-63503080D01*
%TO.C,R6*%
X178102500Y-68062258D02*
X178102500Y-67587742D01*
X179147500Y-68062258D02*
X179147500Y-67587742D01*
%TO.C,SW1*%
X178925000Y-62025000D02*
X179225000Y-62025000D01*
X178925000Y-65325000D02*
X178925000Y-62025000D01*
X179225000Y-65325000D02*
X178925000Y-65325000D01*
X181425000Y-65325000D02*
X181725000Y-65325000D01*
X181725000Y-62025000D02*
X181425000Y-62025000D01*
X181725000Y-65325000D02*
X181725000Y-62025000D01*
%TO.C,U6*%
X160364999Y-61805000D02*
X160364999Y-61900000D01*
X160364999Y-66830000D02*
X160364999Y-66925000D01*
X160364999Y-66925000D02*
X164484999Y-66925000D01*
X164484999Y-61805000D02*
X160364999Y-61805000D01*
X164484999Y-61900000D02*
X164484999Y-61805000D01*
X164484999Y-66925000D02*
X164484999Y-66830000D01*
X165024999Y-61895000D02*
X165264999Y-61565000D01*
X164784999Y-61565000D01*
X165024999Y-61895000D01*
G36*
X165024999Y-61895000D02*
G01*
X164784999Y-61565000D01*
X165264999Y-61565000D01*
X165024999Y-61895000D01*
G37*
%TO.C,C11*%
X164815000Y-68938748D02*
X164815000Y-69461252D01*
X166285000Y-68938748D02*
X166285000Y-69461252D01*
%TO.C,J3*%
X156640000Y-75415000D02*
X158440000Y-75415000D01*
X156640000Y-76865000D02*
X156640000Y-75415000D01*
X163310000Y-75415000D02*
X163310000Y-74425000D01*
X163840000Y-79685000D02*
X157910000Y-79685000D01*
X165110000Y-75415000D02*
X163310000Y-75415000D01*
X165110000Y-76865000D02*
X165110000Y-75415000D01*
%TO.C,C21*%
X166440000Y-64315580D02*
X166440000Y-64034420D01*
X167460000Y-64315580D02*
X167460000Y-64034420D01*
%TO.C,J2*%
X149664000Y-66080000D02*
X149664000Y-62650000D01*
X152484000Y-61380000D02*
X153934000Y-61380000D01*
X152484000Y-67350000D02*
X153934000Y-67350000D01*
X153934000Y-61380000D02*
X153934000Y-63180000D01*
X153934000Y-65550000D02*
X154924000Y-65550000D01*
X153934000Y-67350000D02*
X153934000Y-65550000D01*
%TO.C,C17*%
X176490000Y-63221920D02*
X176490000Y-63503080D01*
X177510000Y-63221920D02*
X177510000Y-63503080D01*
%TO.C,C10*%
X156915580Y-66290000D02*
X156634420Y-66290000D01*
X156915580Y-67310000D02*
X156634420Y-67310000D01*
%TO.C,C9*%
X156911252Y-69340000D02*
X156388748Y-69340000D01*
X156911252Y-70810000D02*
X156388748Y-70810000D01*
%TO.C,U3*%
X168665000Y-68065000D02*
X168665000Y-68515000D01*
X168665000Y-74835000D02*
X168665000Y-75285000D01*
X168665000Y-75285000D02*
X169115000Y-75285000D01*
X169115000Y-68065000D02*
X168665000Y-68065000D01*
X175435000Y-75285000D02*
X175885000Y-75285000D01*
X175885000Y-68065000D02*
X175435000Y-68065000D01*
X175885000Y-68515000D02*
X175885000Y-68065000D01*
X175885000Y-75285000D02*
X175885000Y-74835000D01*
X169115000Y-67425000D02*
X168645000Y-67085000D01*
X168645000Y-67765000D01*
X169115000Y-67425000D01*
G36*
X169115000Y-67425000D02*
G01*
X168645000Y-67765000D01*
X168645000Y-67085000D01*
X169115000Y-67425000D01*
G37*
%TO.C,Y1*%
X171865000Y-61852500D02*
X175985000Y-61852500D01*
X171865000Y-65272500D02*
X171865000Y-61852500D01*
%TO.C,C18*%
X181009420Y-66540000D02*
X181290580Y-66540000D01*
X181009420Y-67560000D02*
X181290580Y-67560000D01*
%TO.C,U2*%
X159627500Y-67240000D02*
X159627500Y-67290000D01*
X159627500Y-70310000D02*
X159627500Y-70360000D01*
X159627500Y-70360000D02*
X161447500Y-70360000D01*
X161447500Y-67240000D02*
X159627500Y-67240000D01*
X161447500Y-67290000D02*
X161447500Y-67240000D01*
X161447500Y-69190000D02*
X161447500Y-68410000D01*
X161447500Y-70360000D02*
X161447500Y-70310000D01*
X159087500Y-70310000D02*
X158847500Y-70640000D01*
X159327500Y-70640000D01*
X159087500Y-70310000D01*
G36*
X159327500Y-70640000D02*
G01*
X158847500Y-70640000D01*
X159087500Y-70310000D01*
X159327500Y-70640000D01*
G37*
%TD*%
M02*
