%TF.GenerationSoftware,KiCad,Pcbnew,10.0.5*%
%TF.CreationDate,2026-10-05T21:51:47+08:00*%
%TF.ProjectId,TTLtoCANforTOF,54544c74-6f43-4414-9e66-6f72544f462e,rev?*%
%TF.SameCoordinates,Original*%
%TF.FileFunction,AssemblyDrawing,Bot*%
%FSLAX46Y46*%
G04 Gerber Fmt 4.6, Leading zero omitted, Abs format (unit mm)*
G04 Created by KiCad (PCBNEW 10.0.5) date 2026-10-05 21:51:47*
%MOMM*%
%LPD*%
G01*
G04 APERTURE LIST*
%ADD10C,0.080000*%
%ADD11C,0.150000*%
%ADD12C,0.060000*%
%ADD13C,0.120000*%
%ADD14C,0.110000*%
%ADD15C,0.100000*%
G04 APERTURE END LIST*
D10*
X155677149Y-70011905D02*
X155677149Y-70321429D01*
X155677149Y-70321429D02*
X155867625Y-70154762D01*
X155867625Y-70154762D02*
X155867625Y-70226191D01*
X155867625Y-70226191D02*
X155891435Y-70273810D01*
X155891435Y-70273810D02*
X155915244Y-70297619D01*
X155915244Y-70297619D02*
X155962863Y-70321429D01*
X155962863Y-70321429D02*
X156081911Y-70321429D01*
X156081911Y-70321429D02*
X156129530Y-70297619D01*
X156129530Y-70297619D02*
X156153340Y-70273810D01*
X156153340Y-70273810D02*
X156177149Y-70226191D01*
X156177149Y-70226191D02*
X156177149Y-70083334D01*
X156177149Y-70083334D02*
X156153340Y-70035715D01*
X156153340Y-70035715D02*
X156129530Y-70011905D01*
X156129530Y-70535714D02*
X156153340Y-70559524D01*
X156153340Y-70559524D02*
X156177149Y-70535714D01*
X156177149Y-70535714D02*
X156153340Y-70511905D01*
X156153340Y-70511905D02*
X156129530Y-70535714D01*
X156129530Y-70535714D02*
X156177149Y-70535714D01*
X155677149Y-70726190D02*
X155677149Y-71035714D01*
X155677149Y-71035714D02*
X155867625Y-70869047D01*
X155867625Y-70869047D02*
X155867625Y-70940476D01*
X155867625Y-70940476D02*
X155891435Y-70988095D01*
X155891435Y-70988095D02*
X155915244Y-71011904D01*
X155915244Y-71011904D02*
X155962863Y-71035714D01*
X155962863Y-71035714D02*
X156081911Y-71035714D01*
X156081911Y-71035714D02*
X156129530Y-71011904D01*
X156129530Y-71011904D02*
X156153340Y-70988095D01*
X156153340Y-70988095D02*
X156177149Y-70940476D01*
X156177149Y-70940476D02*
X156177149Y-70797619D01*
X156177149Y-70797619D02*
X156153340Y-70750000D01*
X156153340Y-70750000D02*
X156129530Y-70726190D01*
X155677149Y-71178571D02*
X156177149Y-71345237D01*
X156177149Y-71345237D02*
X155677149Y-71511904D01*
X157775959Y-70269047D02*
X157752149Y-70221428D01*
X157752149Y-70221428D02*
X157752149Y-70149999D01*
X157752149Y-70149999D02*
X157775959Y-70078571D01*
X157775959Y-70078571D02*
X157823578Y-70030952D01*
X157823578Y-70030952D02*
X157871197Y-70007142D01*
X157871197Y-70007142D02*
X157966435Y-69983333D01*
X157966435Y-69983333D02*
X158037863Y-69983333D01*
X158037863Y-69983333D02*
X158133101Y-70007142D01*
X158133101Y-70007142D02*
X158180720Y-70030952D01*
X158180720Y-70030952D02*
X158228340Y-70078571D01*
X158228340Y-70078571D02*
X158252149Y-70149999D01*
X158252149Y-70149999D02*
X158252149Y-70197618D01*
X158252149Y-70197618D02*
X158228340Y-70269047D01*
X158228340Y-70269047D02*
X158204530Y-70292856D01*
X158204530Y-70292856D02*
X158037863Y-70292856D01*
X158037863Y-70292856D02*
X158037863Y-70197618D01*
X158252149Y-70507142D02*
X157752149Y-70507142D01*
X157752149Y-70507142D02*
X158252149Y-70792856D01*
X158252149Y-70792856D02*
X157752149Y-70792856D01*
X158252149Y-71030952D02*
X157752149Y-71030952D01*
X157752149Y-71030952D02*
X157752149Y-71150000D01*
X157752149Y-71150000D02*
X157775959Y-71221428D01*
X157775959Y-71221428D02*
X157823578Y-71269047D01*
X157823578Y-71269047D02*
X157871197Y-71292857D01*
X157871197Y-71292857D02*
X157966435Y-71316666D01*
X157966435Y-71316666D02*
X158037863Y-71316666D01*
X158037863Y-71316666D02*
X158133101Y-71292857D01*
X158133101Y-71292857D02*
X158180720Y-71269047D01*
X158180720Y-71269047D02*
X158228340Y-71221428D01*
X158228340Y-71221428D02*
X158252149Y-71150000D01*
X158252149Y-71150000D02*
X158252149Y-71030952D01*
X160128340Y-70094048D02*
X160152149Y-70165476D01*
X160152149Y-70165476D02*
X160152149Y-70284524D01*
X160152149Y-70284524D02*
X160128340Y-70332143D01*
X160128340Y-70332143D02*
X160104530Y-70355952D01*
X160104530Y-70355952D02*
X160056911Y-70379762D01*
X160056911Y-70379762D02*
X160009292Y-70379762D01*
X160009292Y-70379762D02*
X159961673Y-70355952D01*
X159961673Y-70355952D02*
X159937863Y-70332143D01*
X159937863Y-70332143D02*
X159914054Y-70284524D01*
X159914054Y-70284524D02*
X159890244Y-70189286D01*
X159890244Y-70189286D02*
X159866435Y-70141667D01*
X159866435Y-70141667D02*
X159842625Y-70117857D01*
X159842625Y-70117857D02*
X159795006Y-70094048D01*
X159795006Y-70094048D02*
X159747387Y-70094048D01*
X159747387Y-70094048D02*
X159699768Y-70117857D01*
X159699768Y-70117857D02*
X159675959Y-70141667D01*
X159675959Y-70141667D02*
X159652149Y-70189286D01*
X159652149Y-70189286D02*
X159652149Y-70308333D01*
X159652149Y-70308333D02*
X159675959Y-70379762D01*
X159652149Y-70546428D02*
X160152149Y-70665476D01*
X160152149Y-70665476D02*
X159795006Y-70760714D01*
X159795006Y-70760714D02*
X160152149Y-70855952D01*
X160152149Y-70855952D02*
X159652149Y-70975000D01*
X160104530Y-71451190D02*
X160128340Y-71427381D01*
X160128340Y-71427381D02*
X160152149Y-71355952D01*
X160152149Y-71355952D02*
X160152149Y-71308333D01*
X160152149Y-71308333D02*
X160128340Y-71236905D01*
X160128340Y-71236905D02*
X160080720Y-71189286D01*
X160080720Y-71189286D02*
X160033101Y-71165476D01*
X160033101Y-71165476D02*
X159937863Y-71141667D01*
X159937863Y-71141667D02*
X159866435Y-71141667D01*
X159866435Y-71141667D02*
X159771197Y-71165476D01*
X159771197Y-71165476D02*
X159723578Y-71189286D01*
X159723578Y-71189286D02*
X159675959Y-71236905D01*
X159675959Y-71236905D02*
X159652149Y-71308333D01*
X159652149Y-71308333D02*
X159652149Y-71355952D01*
X159652149Y-71355952D02*
X159675959Y-71427381D01*
X159675959Y-71427381D02*
X159699768Y-71451190D01*
X160152149Y-71903571D02*
X160152149Y-71665476D01*
X160152149Y-71665476D02*
X159652149Y-71665476D01*
X160152149Y-72070238D02*
X159652149Y-72070238D01*
X160152149Y-72355952D02*
X159866435Y-72141667D01*
X159652149Y-72355952D02*
X159937863Y-72070238D01*
X161753340Y-70215476D02*
X161777149Y-70286904D01*
X161777149Y-70286904D02*
X161777149Y-70405952D01*
X161777149Y-70405952D02*
X161753340Y-70453571D01*
X161753340Y-70453571D02*
X161729530Y-70477380D01*
X161729530Y-70477380D02*
X161681911Y-70501190D01*
X161681911Y-70501190D02*
X161634292Y-70501190D01*
X161634292Y-70501190D02*
X161586673Y-70477380D01*
X161586673Y-70477380D02*
X161562863Y-70453571D01*
X161562863Y-70453571D02*
X161539054Y-70405952D01*
X161539054Y-70405952D02*
X161515244Y-70310714D01*
X161515244Y-70310714D02*
X161491435Y-70263095D01*
X161491435Y-70263095D02*
X161467625Y-70239285D01*
X161467625Y-70239285D02*
X161420006Y-70215476D01*
X161420006Y-70215476D02*
X161372387Y-70215476D01*
X161372387Y-70215476D02*
X161324768Y-70239285D01*
X161324768Y-70239285D02*
X161300959Y-70263095D01*
X161300959Y-70263095D02*
X161277149Y-70310714D01*
X161277149Y-70310714D02*
X161277149Y-70429761D01*
X161277149Y-70429761D02*
X161300959Y-70501190D01*
X161277149Y-70667856D02*
X161777149Y-70786904D01*
X161777149Y-70786904D02*
X161420006Y-70882142D01*
X161420006Y-70882142D02*
X161777149Y-70977380D01*
X161777149Y-70977380D02*
X161277149Y-71096428D01*
X161777149Y-71286904D02*
X161277149Y-71286904D01*
X161277149Y-71286904D02*
X161277149Y-71405952D01*
X161277149Y-71405952D02*
X161300959Y-71477380D01*
X161300959Y-71477380D02*
X161348578Y-71524999D01*
X161348578Y-71524999D02*
X161396197Y-71548809D01*
X161396197Y-71548809D02*
X161491435Y-71572618D01*
X161491435Y-71572618D02*
X161562863Y-71572618D01*
X161562863Y-71572618D02*
X161658101Y-71548809D01*
X161658101Y-71548809D02*
X161705720Y-71524999D01*
X161705720Y-71524999D02*
X161753340Y-71477380D01*
X161753340Y-71477380D02*
X161777149Y-71405952D01*
X161777149Y-71405952D02*
X161777149Y-71286904D01*
X161777149Y-71786904D02*
X161277149Y-71786904D01*
X161277149Y-72120237D02*
X161277149Y-72215475D01*
X161277149Y-72215475D02*
X161300959Y-72263094D01*
X161300959Y-72263094D02*
X161348578Y-72310713D01*
X161348578Y-72310713D02*
X161443816Y-72334523D01*
X161443816Y-72334523D02*
X161610482Y-72334523D01*
X161610482Y-72334523D02*
X161705720Y-72310713D01*
X161705720Y-72310713D02*
X161753340Y-72263094D01*
X161753340Y-72263094D02*
X161777149Y-72215475D01*
X161777149Y-72215475D02*
X161777149Y-72120237D01*
X161777149Y-72120237D02*
X161753340Y-72072618D01*
X161753340Y-72072618D02*
X161705720Y-72024999D01*
X161705720Y-72024999D02*
X161610482Y-72001190D01*
X161610482Y-72001190D02*
X161443816Y-72001190D01*
X161443816Y-72001190D02*
X161348578Y-72024999D01*
X161348578Y-72024999D02*
X161300959Y-72072618D01*
X161300959Y-72072618D02*
X161277149Y-72120237D01*
D11*
X158933333Y-73459819D02*
X158933333Y-74174104D01*
X158933333Y-74174104D02*
X158980952Y-74316961D01*
X158980952Y-74316961D02*
X159076190Y-74412200D01*
X159076190Y-74412200D02*
X159219047Y-74459819D01*
X159219047Y-74459819D02*
X159314285Y-74459819D01*
X158028571Y-73459819D02*
X158219047Y-73459819D01*
X158219047Y-73459819D02*
X158314285Y-73507438D01*
X158314285Y-73507438D02*
X158361904Y-73555057D01*
X158361904Y-73555057D02*
X158457142Y-73697914D01*
X158457142Y-73697914D02*
X158504761Y-73888390D01*
X158504761Y-73888390D02*
X158504761Y-74269342D01*
X158504761Y-74269342D02*
X158457142Y-74364580D01*
X158457142Y-74364580D02*
X158409523Y-74412200D01*
X158409523Y-74412200D02*
X158314285Y-74459819D01*
X158314285Y-74459819D02*
X158123809Y-74459819D01*
X158123809Y-74459819D02*
X158028571Y-74412200D01*
X158028571Y-74412200D02*
X157980952Y-74364580D01*
X157980952Y-74364580D02*
X157933333Y-74269342D01*
X157933333Y-74269342D02*
X157933333Y-74031247D01*
X157933333Y-74031247D02*
X157980952Y-73936009D01*
X157980952Y-73936009D02*
X158028571Y-73888390D01*
X158028571Y-73888390D02*
X158123809Y-73840771D01*
X158123809Y-73840771D02*
X158314285Y-73840771D01*
X158314285Y-73840771D02*
X158409523Y-73888390D01*
X158409523Y-73888390D02*
X158457142Y-73936009D01*
X158457142Y-73936009D02*
X158504761Y-74031247D01*
D12*
X153181927Y-70879762D02*
X152781927Y-70879762D01*
X152781927Y-70879762D02*
X152781927Y-70975000D01*
X152781927Y-70975000D02*
X152800975Y-71032143D01*
X152800975Y-71032143D02*
X152839070Y-71070238D01*
X152839070Y-71070238D02*
X152877165Y-71089285D01*
X152877165Y-71089285D02*
X152953356Y-71108333D01*
X152953356Y-71108333D02*
X153010499Y-71108333D01*
X153010499Y-71108333D02*
X153086689Y-71089285D01*
X153086689Y-71089285D02*
X153124784Y-71070238D01*
X153124784Y-71070238D02*
X153162880Y-71032143D01*
X153162880Y-71032143D02*
X153181927Y-70975000D01*
X153181927Y-70975000D02*
X153181927Y-70879762D01*
X153181927Y-71489285D02*
X153181927Y-71260714D01*
X153181927Y-71375000D02*
X152781927Y-71375000D01*
X152781927Y-71375000D02*
X152839070Y-71336904D01*
X152839070Y-71336904D02*
X152877165Y-71298809D01*
X152877165Y-71298809D02*
X152896213Y-71260714D01*
X164781927Y-74958333D02*
X164591451Y-74825000D01*
X164781927Y-74729762D02*
X164381927Y-74729762D01*
X164381927Y-74729762D02*
X164381927Y-74882143D01*
X164381927Y-74882143D02*
X164400975Y-74920238D01*
X164400975Y-74920238D02*
X164420022Y-74939285D01*
X164420022Y-74939285D02*
X164458118Y-74958333D01*
X164458118Y-74958333D02*
X164515260Y-74958333D01*
X164515260Y-74958333D02*
X164553356Y-74939285D01*
X164553356Y-74939285D02*
X164572403Y-74920238D01*
X164572403Y-74920238D02*
X164591451Y-74882143D01*
X164591451Y-74882143D02*
X164591451Y-74729762D01*
X164381927Y-75091666D02*
X164381927Y-75358333D01*
X164381927Y-75358333D02*
X164781927Y-75186904D01*
X157268832Y-66730357D02*
X157287880Y-66711309D01*
X157287880Y-66711309D02*
X157306927Y-66654167D01*
X157306927Y-66654167D02*
X157306927Y-66616071D01*
X157306927Y-66616071D02*
X157287880Y-66558928D01*
X157287880Y-66558928D02*
X157249784Y-66520833D01*
X157249784Y-66520833D02*
X157211689Y-66501786D01*
X157211689Y-66501786D02*
X157135499Y-66482738D01*
X157135499Y-66482738D02*
X157078356Y-66482738D01*
X157078356Y-66482738D02*
X157002165Y-66501786D01*
X157002165Y-66501786D02*
X156964070Y-66520833D01*
X156964070Y-66520833D02*
X156925975Y-66558928D01*
X156925975Y-66558928D02*
X156906927Y-66616071D01*
X156906927Y-66616071D02*
X156906927Y-66654167D01*
X156906927Y-66654167D02*
X156925975Y-66711309D01*
X156925975Y-66711309D02*
X156945022Y-66730357D01*
X157306927Y-67111309D02*
X157306927Y-66882738D01*
X157306927Y-66997024D02*
X156906927Y-66997024D01*
X156906927Y-66997024D02*
X156964070Y-66958928D01*
X156964070Y-66958928D02*
X157002165Y-66920833D01*
X157002165Y-66920833D02*
X157021213Y-66882738D01*
X156945022Y-67263690D02*
X156925975Y-67282738D01*
X156925975Y-67282738D02*
X156906927Y-67320833D01*
X156906927Y-67320833D02*
X156906927Y-67416071D01*
X156906927Y-67416071D02*
X156925975Y-67454166D01*
X156925975Y-67454166D02*
X156945022Y-67473214D01*
X156945022Y-67473214D02*
X156983118Y-67492261D01*
X156983118Y-67492261D02*
X157021213Y-67492261D01*
X157021213Y-67492261D02*
X157078356Y-67473214D01*
X157078356Y-67473214D02*
X157306927Y-67244642D01*
X157306927Y-67244642D02*
X157306927Y-67492261D01*
X166256927Y-71492262D02*
X165856927Y-71492262D01*
X165856927Y-71492262D02*
X165856927Y-71587500D01*
X165856927Y-71587500D02*
X165875975Y-71644643D01*
X165875975Y-71644643D02*
X165914070Y-71682738D01*
X165914070Y-71682738D02*
X165952165Y-71701785D01*
X165952165Y-71701785D02*
X166028356Y-71720833D01*
X166028356Y-71720833D02*
X166085499Y-71720833D01*
X166085499Y-71720833D02*
X166161689Y-71701785D01*
X166161689Y-71701785D02*
X166199784Y-71682738D01*
X166199784Y-71682738D02*
X166237880Y-71644643D01*
X166237880Y-71644643D02*
X166256927Y-71587500D01*
X166256927Y-71587500D02*
X166256927Y-71492262D01*
X165895022Y-71873214D02*
X165875975Y-71892262D01*
X165875975Y-71892262D02*
X165856927Y-71930357D01*
X165856927Y-71930357D02*
X165856927Y-72025595D01*
X165856927Y-72025595D02*
X165875975Y-72063690D01*
X165875975Y-72063690D02*
X165895022Y-72082738D01*
X165895022Y-72082738D02*
X165933118Y-72101785D01*
X165933118Y-72101785D02*
X165971213Y-72101785D01*
X165971213Y-72101785D02*
X166028356Y-72082738D01*
X166028356Y-72082738D02*
X166256927Y-71854166D01*
X166256927Y-71854166D02*
X166256927Y-72101785D01*
X168943832Y-62917857D02*
X168962880Y-62898809D01*
X168962880Y-62898809D02*
X168981927Y-62841667D01*
X168981927Y-62841667D02*
X168981927Y-62803571D01*
X168981927Y-62803571D02*
X168962880Y-62746428D01*
X168962880Y-62746428D02*
X168924784Y-62708333D01*
X168924784Y-62708333D02*
X168886689Y-62689286D01*
X168886689Y-62689286D02*
X168810499Y-62670238D01*
X168810499Y-62670238D02*
X168753356Y-62670238D01*
X168753356Y-62670238D02*
X168677165Y-62689286D01*
X168677165Y-62689286D02*
X168639070Y-62708333D01*
X168639070Y-62708333D02*
X168600975Y-62746428D01*
X168600975Y-62746428D02*
X168581927Y-62803571D01*
X168581927Y-62803571D02*
X168581927Y-62841667D01*
X168581927Y-62841667D02*
X168600975Y-62898809D01*
X168600975Y-62898809D02*
X168620022Y-62917857D01*
X168981927Y-63298809D02*
X168981927Y-63070238D01*
X168981927Y-63184524D02*
X168581927Y-63184524D01*
X168581927Y-63184524D02*
X168639070Y-63146428D01*
X168639070Y-63146428D02*
X168677165Y-63108333D01*
X168677165Y-63108333D02*
X168696213Y-63070238D01*
X168981927Y-63489285D02*
X168981927Y-63565476D01*
X168981927Y-63565476D02*
X168962880Y-63603571D01*
X168962880Y-63603571D02*
X168943832Y-63622619D01*
X168943832Y-63622619D02*
X168886689Y-63660714D01*
X168886689Y-63660714D02*
X168810499Y-63679761D01*
X168810499Y-63679761D02*
X168658118Y-63679761D01*
X168658118Y-63679761D02*
X168620022Y-63660714D01*
X168620022Y-63660714D02*
X168600975Y-63641666D01*
X168600975Y-63641666D02*
X168581927Y-63603571D01*
X168581927Y-63603571D02*
X168581927Y-63527380D01*
X168581927Y-63527380D02*
X168600975Y-63489285D01*
X168600975Y-63489285D02*
X168620022Y-63470238D01*
X168620022Y-63470238D02*
X168658118Y-63451190D01*
X168658118Y-63451190D02*
X168753356Y-63451190D01*
X168753356Y-63451190D02*
X168791451Y-63470238D01*
X168791451Y-63470238D02*
X168810499Y-63489285D01*
X168810499Y-63489285D02*
X168829546Y-63527380D01*
X168829546Y-63527380D02*
X168829546Y-63603571D01*
X168829546Y-63603571D02*
X168810499Y-63641666D01*
X168810499Y-63641666D02*
X168791451Y-63660714D01*
X168791451Y-63660714D02*
X168753356Y-63679761D01*
X170968832Y-63105357D02*
X170987880Y-63086309D01*
X170987880Y-63086309D02*
X171006927Y-63029167D01*
X171006927Y-63029167D02*
X171006927Y-62991071D01*
X171006927Y-62991071D02*
X170987880Y-62933928D01*
X170987880Y-62933928D02*
X170949784Y-62895833D01*
X170949784Y-62895833D02*
X170911689Y-62876786D01*
X170911689Y-62876786D02*
X170835499Y-62857738D01*
X170835499Y-62857738D02*
X170778356Y-62857738D01*
X170778356Y-62857738D02*
X170702165Y-62876786D01*
X170702165Y-62876786D02*
X170664070Y-62895833D01*
X170664070Y-62895833D02*
X170625975Y-62933928D01*
X170625975Y-62933928D02*
X170606927Y-62991071D01*
X170606927Y-62991071D02*
X170606927Y-63029167D01*
X170606927Y-63029167D02*
X170625975Y-63086309D01*
X170625975Y-63086309D02*
X170645022Y-63105357D01*
X171006927Y-63486309D02*
X171006927Y-63257738D01*
X171006927Y-63372024D02*
X170606927Y-63372024D01*
X170606927Y-63372024D02*
X170664070Y-63333928D01*
X170664070Y-63333928D02*
X170702165Y-63295833D01*
X170702165Y-63295833D02*
X170721213Y-63257738D01*
X170606927Y-63829166D02*
X170606927Y-63752976D01*
X170606927Y-63752976D02*
X170625975Y-63714880D01*
X170625975Y-63714880D02*
X170645022Y-63695833D01*
X170645022Y-63695833D02*
X170702165Y-63657738D01*
X170702165Y-63657738D02*
X170778356Y-63638690D01*
X170778356Y-63638690D02*
X170930737Y-63638690D01*
X170930737Y-63638690D02*
X170968832Y-63657738D01*
X170968832Y-63657738D02*
X170987880Y-63676785D01*
X170987880Y-63676785D02*
X171006927Y-63714880D01*
X171006927Y-63714880D02*
X171006927Y-63791071D01*
X171006927Y-63791071D02*
X170987880Y-63829166D01*
X170987880Y-63829166D02*
X170968832Y-63848214D01*
X170968832Y-63848214D02*
X170930737Y-63867261D01*
X170930737Y-63867261D02*
X170835499Y-63867261D01*
X170835499Y-63867261D02*
X170797403Y-63848214D01*
X170797403Y-63848214D02*
X170778356Y-63829166D01*
X170778356Y-63829166D02*
X170759308Y-63791071D01*
X170759308Y-63791071D02*
X170759308Y-63714880D01*
X170759308Y-63714880D02*
X170778356Y-63676785D01*
X170778356Y-63676785D02*
X170797403Y-63657738D01*
X170797403Y-63657738D02*
X170835499Y-63638690D01*
D11*
X179622619Y-61679819D02*
X179955952Y-61203628D01*
X180194047Y-61679819D02*
X180194047Y-60679819D01*
X180194047Y-60679819D02*
X179813095Y-60679819D01*
X179813095Y-60679819D02*
X179717857Y-60727438D01*
X179717857Y-60727438D02*
X179670238Y-60775057D01*
X179670238Y-60775057D02*
X179622619Y-60870295D01*
X179622619Y-60870295D02*
X179622619Y-61013152D01*
X179622619Y-61013152D02*
X179670238Y-61108390D01*
X179670238Y-61108390D02*
X179717857Y-61156009D01*
X179717857Y-61156009D02*
X179813095Y-61203628D01*
X179813095Y-61203628D02*
X180194047Y-61203628D01*
X179241666Y-61632200D02*
X179098809Y-61679819D01*
X179098809Y-61679819D02*
X178860714Y-61679819D01*
X178860714Y-61679819D02*
X178765476Y-61632200D01*
X178765476Y-61632200D02*
X178717857Y-61584580D01*
X178717857Y-61584580D02*
X178670238Y-61489342D01*
X178670238Y-61489342D02*
X178670238Y-61394104D01*
X178670238Y-61394104D02*
X178717857Y-61298866D01*
X178717857Y-61298866D02*
X178765476Y-61251247D01*
X178765476Y-61251247D02*
X178860714Y-61203628D01*
X178860714Y-61203628D02*
X179051190Y-61156009D01*
X179051190Y-61156009D02*
X179146428Y-61108390D01*
X179146428Y-61108390D02*
X179194047Y-61060771D01*
X179194047Y-61060771D02*
X179241666Y-60965533D01*
X179241666Y-60965533D02*
X179241666Y-60870295D01*
X179241666Y-60870295D02*
X179194047Y-60775057D01*
X179194047Y-60775057D02*
X179146428Y-60727438D01*
X179146428Y-60727438D02*
X179051190Y-60679819D01*
X179051190Y-60679819D02*
X178813095Y-60679819D01*
X178813095Y-60679819D02*
X178670238Y-60727438D01*
X178384523Y-60679819D02*
X177813095Y-60679819D01*
X178098809Y-61679819D02*
X178098809Y-60679819D01*
D12*
X180091666Y-65122612D02*
X180224999Y-64932136D01*
X180320237Y-65122612D02*
X180320237Y-64722612D01*
X180320237Y-64722612D02*
X180167856Y-64722612D01*
X180167856Y-64722612D02*
X180129761Y-64741660D01*
X180129761Y-64741660D02*
X180110714Y-64760707D01*
X180110714Y-64760707D02*
X180091666Y-64798803D01*
X180091666Y-64798803D02*
X180091666Y-64855945D01*
X180091666Y-64855945D02*
X180110714Y-64894041D01*
X180110714Y-64894041D02*
X180129761Y-64913088D01*
X180129761Y-64913088D02*
X180167856Y-64932136D01*
X180167856Y-64932136D02*
X180320237Y-64932136D01*
X179748809Y-64722612D02*
X179824999Y-64722612D01*
X179824999Y-64722612D02*
X179863095Y-64741660D01*
X179863095Y-64741660D02*
X179882142Y-64760707D01*
X179882142Y-64760707D02*
X179920237Y-64817850D01*
X179920237Y-64817850D02*
X179939285Y-64894041D01*
X179939285Y-64894041D02*
X179939285Y-65046422D01*
X179939285Y-65046422D02*
X179920237Y-65084517D01*
X179920237Y-65084517D02*
X179901190Y-65103565D01*
X179901190Y-65103565D02*
X179863095Y-65122612D01*
X179863095Y-65122612D02*
X179786904Y-65122612D01*
X179786904Y-65122612D02*
X179748809Y-65103565D01*
X179748809Y-65103565D02*
X179729761Y-65084517D01*
X179729761Y-65084517D02*
X179710714Y-65046422D01*
X179710714Y-65046422D02*
X179710714Y-64951184D01*
X179710714Y-64951184D02*
X179729761Y-64913088D01*
X179729761Y-64913088D02*
X179748809Y-64894041D01*
X179748809Y-64894041D02*
X179786904Y-64874993D01*
X179786904Y-64874993D02*
X179863095Y-64874993D01*
X179863095Y-64874993D02*
X179901190Y-64894041D01*
X179901190Y-64894041D02*
X179920237Y-64913088D01*
X179920237Y-64913088D02*
X179939285Y-64951184D01*
D11*
X161864818Y-63168095D02*
X162674341Y-63168095D01*
X162674341Y-63168095D02*
X162769579Y-63215714D01*
X162769579Y-63215714D02*
X162817199Y-63263333D01*
X162817199Y-63263333D02*
X162864818Y-63358571D01*
X162864818Y-63358571D02*
X162864818Y-63549047D01*
X162864818Y-63549047D02*
X162817199Y-63644285D01*
X162817199Y-63644285D02*
X162769579Y-63691904D01*
X162769579Y-63691904D02*
X162674341Y-63739523D01*
X162674341Y-63739523D02*
X161864818Y-63739523D01*
X161864818Y-64644285D02*
X161864818Y-64453809D01*
X161864818Y-64453809D02*
X161912437Y-64358571D01*
X161912437Y-64358571D02*
X161960056Y-64310952D01*
X161960056Y-64310952D02*
X162102913Y-64215714D01*
X162102913Y-64215714D02*
X162293389Y-64168095D01*
X162293389Y-64168095D02*
X162674341Y-64168095D01*
X162674341Y-64168095D02*
X162769579Y-64215714D01*
X162769579Y-64215714D02*
X162817199Y-64263333D01*
X162817199Y-64263333D02*
X162864818Y-64358571D01*
X162864818Y-64358571D02*
X162864818Y-64549047D01*
X162864818Y-64549047D02*
X162817199Y-64644285D01*
X162817199Y-64644285D02*
X162769579Y-64691904D01*
X162769579Y-64691904D02*
X162674341Y-64739523D01*
X162674341Y-64739523D02*
X162436246Y-64739523D01*
X162436246Y-64739523D02*
X162341008Y-64691904D01*
X162341008Y-64691904D02*
X162293389Y-64644285D01*
X162293389Y-64644285D02*
X162245770Y-64549047D01*
X162245770Y-64549047D02*
X162245770Y-64358571D01*
X162245770Y-64358571D02*
X162293389Y-64263333D01*
X162293389Y-64263333D02*
X162341008Y-64215714D01*
X162341008Y-64215714D02*
X162436246Y-64168095D01*
X178704819Y-69733333D02*
X179704819Y-70399999D01*
X178704819Y-70399999D02*
X179704819Y-69733333D01*
X178704819Y-70638095D02*
X178704819Y-71209523D01*
X179704819Y-70923809D02*
X178704819Y-70923809D01*
X178704819Y-71447619D02*
X178704819Y-72066666D01*
X178704819Y-72066666D02*
X179085771Y-71733333D01*
X179085771Y-71733333D02*
X179085771Y-71876190D01*
X179085771Y-71876190D02*
X179133390Y-71971428D01*
X179133390Y-71971428D02*
X179181009Y-72019047D01*
X179181009Y-72019047D02*
X179276247Y-72066666D01*
X179276247Y-72066666D02*
X179514342Y-72066666D01*
X179514342Y-72066666D02*
X179609580Y-72019047D01*
X179609580Y-72019047D02*
X179657200Y-71971428D01*
X179657200Y-71971428D02*
X179704819Y-71876190D01*
X179704819Y-71876190D02*
X179704819Y-71590476D01*
X179704819Y-71590476D02*
X179657200Y-71495238D01*
X179657200Y-71495238D02*
X179609580Y-71447619D01*
X178704819Y-72685714D02*
X178704819Y-72780952D01*
X178704819Y-72780952D02*
X178752438Y-72876190D01*
X178752438Y-72876190D02*
X178800057Y-72923809D01*
X178800057Y-72923809D02*
X178895295Y-72971428D01*
X178895295Y-72971428D02*
X179085771Y-73019047D01*
X179085771Y-73019047D02*
X179323866Y-73019047D01*
X179323866Y-73019047D02*
X179514342Y-72971428D01*
X179514342Y-72971428D02*
X179609580Y-72923809D01*
X179609580Y-72923809D02*
X179657200Y-72876190D01*
X179657200Y-72876190D02*
X179704819Y-72780952D01*
X179704819Y-72780952D02*
X179704819Y-72685714D01*
X179704819Y-72685714D02*
X179657200Y-72590476D01*
X179657200Y-72590476D02*
X179609580Y-72542857D01*
X179609580Y-72542857D02*
X179514342Y-72495238D01*
X179514342Y-72495238D02*
X179323866Y-72447619D01*
X179323866Y-72447619D02*
X179085771Y-72447619D01*
X179085771Y-72447619D02*
X178895295Y-72495238D01*
X178895295Y-72495238D02*
X178800057Y-72542857D01*
X178800057Y-72542857D02*
X178752438Y-72590476D01*
X178752438Y-72590476D02*
X178704819Y-72685714D01*
X180204819Y-71066666D02*
X180919104Y-71066666D01*
X180919104Y-71066666D02*
X181061961Y-71019047D01*
X181061961Y-71019047D02*
X181157200Y-70923809D01*
X181157200Y-70923809D02*
X181204819Y-70780952D01*
X181204819Y-70780952D02*
X181204819Y-70685714D01*
X180538152Y-71971428D02*
X181204819Y-71971428D01*
X180157200Y-71733333D02*
X180871485Y-71495238D01*
X180871485Y-71495238D02*
X180871485Y-72114285D01*
D10*
X154796428Y-68679530D02*
X154820237Y-68703340D01*
X154820237Y-68703340D02*
X154891666Y-68727149D01*
X154891666Y-68727149D02*
X154939285Y-68727149D01*
X154939285Y-68727149D02*
X155010713Y-68703340D01*
X155010713Y-68703340D02*
X155058332Y-68655720D01*
X155058332Y-68655720D02*
X155082142Y-68608101D01*
X155082142Y-68608101D02*
X155105951Y-68512863D01*
X155105951Y-68512863D02*
X155105951Y-68441435D01*
X155105951Y-68441435D02*
X155082142Y-68346197D01*
X155082142Y-68346197D02*
X155058332Y-68298578D01*
X155058332Y-68298578D02*
X155010713Y-68250959D01*
X155010713Y-68250959D02*
X154939285Y-68227149D01*
X154939285Y-68227149D02*
X154891666Y-68227149D01*
X154891666Y-68227149D02*
X154820237Y-68250959D01*
X154820237Y-68250959D02*
X154796428Y-68274768D01*
X154320237Y-68727149D02*
X154605951Y-68727149D01*
X154463094Y-68727149D02*
X154463094Y-68227149D01*
X154463094Y-68227149D02*
X154510713Y-68298578D01*
X154510713Y-68298578D02*
X154558332Y-68346197D01*
X154558332Y-68346197D02*
X154605951Y-68370006D01*
X153844047Y-68727149D02*
X154129761Y-68727149D01*
X153986904Y-68727149D02*
X153986904Y-68227149D01*
X153986904Y-68227149D02*
X154034523Y-68298578D01*
X154034523Y-68298578D02*
X154082142Y-68346197D01*
X154082142Y-68346197D02*
X154129761Y-68370006D01*
D12*
X167078832Y-63482857D02*
X167097880Y-63463809D01*
X167097880Y-63463809D02*
X167116927Y-63406667D01*
X167116927Y-63406667D02*
X167116927Y-63368571D01*
X167116927Y-63368571D02*
X167097880Y-63311428D01*
X167097880Y-63311428D02*
X167059784Y-63273333D01*
X167059784Y-63273333D02*
X167021689Y-63254286D01*
X167021689Y-63254286D02*
X166945499Y-63235238D01*
X166945499Y-63235238D02*
X166888356Y-63235238D01*
X166888356Y-63235238D02*
X166812165Y-63254286D01*
X166812165Y-63254286D02*
X166774070Y-63273333D01*
X166774070Y-63273333D02*
X166735975Y-63311428D01*
X166735975Y-63311428D02*
X166716927Y-63368571D01*
X166716927Y-63368571D02*
X166716927Y-63406667D01*
X166716927Y-63406667D02*
X166735975Y-63463809D01*
X166735975Y-63463809D02*
X166755022Y-63482857D01*
X166755022Y-63635238D02*
X166735975Y-63654286D01*
X166735975Y-63654286D02*
X166716927Y-63692381D01*
X166716927Y-63692381D02*
X166716927Y-63787619D01*
X166716927Y-63787619D02*
X166735975Y-63825714D01*
X166735975Y-63825714D02*
X166755022Y-63844762D01*
X166755022Y-63844762D02*
X166793118Y-63863809D01*
X166793118Y-63863809D02*
X166831213Y-63863809D01*
X166831213Y-63863809D02*
X166888356Y-63844762D01*
X166888356Y-63844762D02*
X167116927Y-63616190D01*
X167116927Y-63616190D02*
X167116927Y-63863809D01*
X167116927Y-64244761D02*
X167116927Y-64016190D01*
X167116927Y-64130476D02*
X166716927Y-64130476D01*
X166716927Y-64130476D02*
X166774070Y-64092380D01*
X166774070Y-64092380D02*
X166812165Y-64054285D01*
X166812165Y-64054285D02*
X166831213Y-64016190D01*
D11*
X158359580Y-63287142D02*
X158407200Y-63239523D01*
X158407200Y-63239523D02*
X158454819Y-63096666D01*
X158454819Y-63096666D02*
X158454819Y-63001428D01*
X158454819Y-63001428D02*
X158407200Y-62858571D01*
X158407200Y-62858571D02*
X158311961Y-62763333D01*
X158311961Y-62763333D02*
X158216723Y-62715714D01*
X158216723Y-62715714D02*
X158026247Y-62668095D01*
X158026247Y-62668095D02*
X157883390Y-62668095D01*
X157883390Y-62668095D02*
X157692914Y-62715714D01*
X157692914Y-62715714D02*
X157597676Y-62763333D01*
X157597676Y-62763333D02*
X157502438Y-62858571D01*
X157502438Y-62858571D02*
X157454819Y-63001428D01*
X157454819Y-63001428D02*
X157454819Y-63096666D01*
X157454819Y-63096666D02*
X157502438Y-63239523D01*
X157502438Y-63239523D02*
X157550057Y-63287142D01*
X158169104Y-63668095D02*
X158169104Y-64144285D01*
X158454819Y-63572857D02*
X157454819Y-63906190D01*
X157454819Y-63906190D02*
X158454819Y-64239523D01*
X158454819Y-64572857D02*
X157454819Y-64572857D01*
X157454819Y-64572857D02*
X158454819Y-65144285D01*
X158454819Y-65144285D02*
X157454819Y-65144285D01*
X151954819Y-63596666D02*
X152669104Y-63596666D01*
X152669104Y-63596666D02*
X152811961Y-63549047D01*
X152811961Y-63549047D02*
X152907200Y-63453809D01*
X152907200Y-63453809D02*
X152954819Y-63310952D01*
X152954819Y-63310952D02*
X152954819Y-63215714D01*
X152050057Y-64025238D02*
X152002438Y-64072857D01*
X152002438Y-64072857D02*
X151954819Y-64168095D01*
X151954819Y-64168095D02*
X151954819Y-64406190D01*
X151954819Y-64406190D02*
X152002438Y-64501428D01*
X152002438Y-64501428D02*
X152050057Y-64549047D01*
X152050057Y-64549047D02*
X152145295Y-64596666D01*
X152145295Y-64596666D02*
X152240533Y-64596666D01*
X152240533Y-64596666D02*
X152383390Y-64549047D01*
X152383390Y-64549047D02*
X152954819Y-63977619D01*
X152954819Y-63977619D02*
X152954819Y-64596666D01*
D12*
X177143832Y-62855357D02*
X177162880Y-62836309D01*
X177162880Y-62836309D02*
X177181927Y-62779167D01*
X177181927Y-62779167D02*
X177181927Y-62741071D01*
X177181927Y-62741071D02*
X177162880Y-62683928D01*
X177162880Y-62683928D02*
X177124784Y-62645833D01*
X177124784Y-62645833D02*
X177086689Y-62626786D01*
X177086689Y-62626786D02*
X177010499Y-62607738D01*
X177010499Y-62607738D02*
X176953356Y-62607738D01*
X176953356Y-62607738D02*
X176877165Y-62626786D01*
X176877165Y-62626786D02*
X176839070Y-62645833D01*
X176839070Y-62645833D02*
X176800975Y-62683928D01*
X176800975Y-62683928D02*
X176781927Y-62741071D01*
X176781927Y-62741071D02*
X176781927Y-62779167D01*
X176781927Y-62779167D02*
X176800975Y-62836309D01*
X176800975Y-62836309D02*
X176820022Y-62855357D01*
X177181927Y-63236309D02*
X177181927Y-63007738D01*
X177181927Y-63122024D02*
X176781927Y-63122024D01*
X176781927Y-63122024D02*
X176839070Y-63083928D01*
X176839070Y-63083928D02*
X176877165Y-63045833D01*
X176877165Y-63045833D02*
X176896213Y-63007738D01*
X176781927Y-63369642D02*
X176781927Y-63636309D01*
X176781927Y-63636309D02*
X177181927Y-63464880D01*
X165493832Y-67992857D02*
X165512880Y-67973809D01*
X165512880Y-67973809D02*
X165531927Y-67916667D01*
X165531927Y-67916667D02*
X165531927Y-67878571D01*
X165531927Y-67878571D02*
X165512880Y-67821428D01*
X165512880Y-67821428D02*
X165474784Y-67783333D01*
X165474784Y-67783333D02*
X165436689Y-67764286D01*
X165436689Y-67764286D02*
X165360499Y-67745238D01*
X165360499Y-67745238D02*
X165303356Y-67745238D01*
X165303356Y-67745238D02*
X165227165Y-67764286D01*
X165227165Y-67764286D02*
X165189070Y-67783333D01*
X165189070Y-67783333D02*
X165150975Y-67821428D01*
X165150975Y-67821428D02*
X165131927Y-67878571D01*
X165131927Y-67878571D02*
X165131927Y-67916667D01*
X165131927Y-67916667D02*
X165150975Y-67973809D01*
X165150975Y-67973809D02*
X165170022Y-67992857D01*
X165531927Y-68373809D02*
X165531927Y-68145238D01*
X165531927Y-68259524D02*
X165131927Y-68259524D01*
X165131927Y-68259524D02*
X165189070Y-68221428D01*
X165189070Y-68221428D02*
X165227165Y-68183333D01*
X165227165Y-68183333D02*
X165246213Y-68145238D01*
X165131927Y-68621428D02*
X165131927Y-68659523D01*
X165131927Y-68659523D02*
X165150975Y-68697619D01*
X165150975Y-68697619D02*
X165170022Y-68716666D01*
X165170022Y-68716666D02*
X165208118Y-68735714D01*
X165208118Y-68735714D02*
X165284308Y-68754761D01*
X165284308Y-68754761D02*
X165379546Y-68754761D01*
X165379546Y-68754761D02*
X165455737Y-68735714D01*
X165455737Y-68735714D02*
X165493832Y-68716666D01*
X165493832Y-68716666D02*
X165512880Y-68697619D01*
X165512880Y-68697619D02*
X165531927Y-68659523D01*
X165531927Y-68659523D02*
X165531927Y-68621428D01*
X165531927Y-68621428D02*
X165512880Y-68583333D01*
X165512880Y-68583333D02*
X165493832Y-68564285D01*
X165493832Y-68564285D02*
X165455737Y-68545238D01*
X165455737Y-68545238D02*
X165379546Y-68526190D01*
X165379546Y-68526190D02*
X165284308Y-68526190D01*
X165284308Y-68526190D02*
X165208118Y-68545238D01*
X165208118Y-68545238D02*
X165170022Y-68564285D01*
X165170022Y-68564285D02*
X165150975Y-68583333D01*
X165150975Y-68583333D02*
X165131927Y-68621428D01*
D10*
X163529530Y-68516666D02*
X163553340Y-68492857D01*
X163553340Y-68492857D02*
X163577149Y-68421428D01*
X163577149Y-68421428D02*
X163577149Y-68373809D01*
X163577149Y-68373809D02*
X163553340Y-68302381D01*
X163553340Y-68302381D02*
X163505720Y-68254762D01*
X163505720Y-68254762D02*
X163458101Y-68230952D01*
X163458101Y-68230952D02*
X163362863Y-68207143D01*
X163362863Y-68207143D02*
X163291435Y-68207143D01*
X163291435Y-68207143D02*
X163196197Y-68230952D01*
X163196197Y-68230952D02*
X163148578Y-68254762D01*
X163148578Y-68254762D02*
X163100959Y-68302381D01*
X163100959Y-68302381D02*
X163077149Y-68373809D01*
X163077149Y-68373809D02*
X163077149Y-68421428D01*
X163077149Y-68421428D02*
X163100959Y-68492857D01*
X163100959Y-68492857D02*
X163124768Y-68516666D01*
X163577149Y-68754762D02*
X163577149Y-68850000D01*
X163577149Y-68850000D02*
X163553340Y-68897619D01*
X163553340Y-68897619D02*
X163529530Y-68921428D01*
X163529530Y-68921428D02*
X163458101Y-68969047D01*
X163458101Y-68969047D02*
X163362863Y-68992857D01*
X163362863Y-68992857D02*
X163172387Y-68992857D01*
X163172387Y-68992857D02*
X163124768Y-68969047D01*
X163124768Y-68969047D02*
X163100959Y-68945238D01*
X163100959Y-68945238D02*
X163077149Y-68897619D01*
X163077149Y-68897619D02*
X163077149Y-68802381D01*
X163077149Y-68802381D02*
X163100959Y-68754762D01*
X163100959Y-68754762D02*
X163124768Y-68730952D01*
X163124768Y-68730952D02*
X163172387Y-68707143D01*
X163172387Y-68707143D02*
X163291435Y-68707143D01*
X163291435Y-68707143D02*
X163339054Y-68730952D01*
X163339054Y-68730952D02*
X163362863Y-68754762D01*
X163362863Y-68754762D02*
X163386673Y-68802381D01*
X163386673Y-68802381D02*
X163386673Y-68897619D01*
X163386673Y-68897619D02*
X163362863Y-68945238D01*
X163362863Y-68945238D02*
X163339054Y-68969047D01*
X163339054Y-68969047D02*
X163291435Y-68992857D01*
D11*
X171729819Y-70913095D02*
X172539342Y-70913095D01*
X172539342Y-70913095D02*
X172634580Y-70960714D01*
X172634580Y-70960714D02*
X172682200Y-71008333D01*
X172682200Y-71008333D02*
X172729819Y-71103571D01*
X172729819Y-71103571D02*
X172729819Y-71294047D01*
X172729819Y-71294047D02*
X172682200Y-71389285D01*
X172682200Y-71389285D02*
X172634580Y-71436904D01*
X172634580Y-71436904D02*
X172539342Y-71484523D01*
X172539342Y-71484523D02*
X171729819Y-71484523D01*
X171729819Y-71865476D02*
X171729819Y-72484523D01*
X171729819Y-72484523D02*
X172110771Y-72151190D01*
X172110771Y-72151190D02*
X172110771Y-72294047D01*
X172110771Y-72294047D02*
X172158390Y-72389285D01*
X172158390Y-72389285D02*
X172206009Y-72436904D01*
X172206009Y-72436904D02*
X172301247Y-72484523D01*
X172301247Y-72484523D02*
X172539342Y-72484523D01*
X172539342Y-72484523D02*
X172634580Y-72436904D01*
X172634580Y-72436904D02*
X172682200Y-72389285D01*
X172682200Y-72389285D02*
X172729819Y-72294047D01*
X172729819Y-72294047D02*
X172729819Y-72008333D01*
X172729819Y-72008333D02*
X172682200Y-71913095D01*
X172682200Y-71913095D02*
X172634580Y-71865476D01*
D13*
X174305951Y-63545402D02*
X174305951Y-63926355D01*
X174572618Y-63126355D02*
X174305951Y-63545402D01*
X174305951Y-63545402D02*
X174039285Y-63126355D01*
X173353571Y-63926355D02*
X173810714Y-63926355D01*
X173582142Y-63926355D02*
X173582142Y-63126355D01*
X173582142Y-63126355D02*
X173658333Y-63240640D01*
X173658333Y-63240640D02*
X173734523Y-63316831D01*
X173734523Y-63316831D02*
X173810714Y-63354926D01*
D11*
X182277438Y-61113095D02*
X182229819Y-61017857D01*
X182229819Y-61017857D02*
X182229819Y-60875000D01*
X182229819Y-60875000D02*
X182277438Y-60732143D01*
X182277438Y-60732143D02*
X182372676Y-60636905D01*
X182372676Y-60636905D02*
X182467914Y-60589286D01*
X182467914Y-60589286D02*
X182658390Y-60541667D01*
X182658390Y-60541667D02*
X182801247Y-60541667D01*
X182801247Y-60541667D02*
X182991723Y-60589286D01*
X182991723Y-60589286D02*
X183086961Y-60636905D01*
X183086961Y-60636905D02*
X183182200Y-60732143D01*
X183182200Y-60732143D02*
X183229819Y-60875000D01*
X183229819Y-60875000D02*
X183229819Y-60970238D01*
X183229819Y-60970238D02*
X183182200Y-61113095D01*
X183182200Y-61113095D02*
X183134580Y-61160714D01*
X183134580Y-61160714D02*
X182801247Y-61160714D01*
X182801247Y-61160714D02*
X182801247Y-60970238D01*
X183229819Y-61589286D02*
X182229819Y-61589286D01*
X182229819Y-61589286D02*
X183229819Y-62160714D01*
X183229819Y-62160714D02*
X182229819Y-62160714D01*
X183229819Y-62636905D02*
X182229819Y-62636905D01*
X182229819Y-62636905D02*
X182229819Y-62875000D01*
X182229819Y-62875000D02*
X182277438Y-63017857D01*
X182277438Y-63017857D02*
X182372676Y-63113095D01*
X182372676Y-63113095D02*
X182467914Y-63160714D01*
X182467914Y-63160714D02*
X182658390Y-63208333D01*
X182658390Y-63208333D02*
X182801247Y-63208333D01*
X182801247Y-63208333D02*
X182991723Y-63160714D01*
X182991723Y-63160714D02*
X183086961Y-63113095D01*
X183086961Y-63113095D02*
X183182200Y-63017857D01*
X183182200Y-63017857D02*
X183229819Y-62875000D01*
X183229819Y-62875000D02*
X183229819Y-62636905D01*
D12*
X182057142Y-63568832D02*
X182076190Y-63587880D01*
X182076190Y-63587880D02*
X182133332Y-63606927D01*
X182133332Y-63606927D02*
X182171428Y-63606927D01*
X182171428Y-63606927D02*
X182228571Y-63587880D01*
X182228571Y-63587880D02*
X182266666Y-63549784D01*
X182266666Y-63549784D02*
X182285713Y-63511689D01*
X182285713Y-63511689D02*
X182304761Y-63435499D01*
X182304761Y-63435499D02*
X182304761Y-63378356D01*
X182304761Y-63378356D02*
X182285713Y-63302165D01*
X182285713Y-63302165D02*
X182266666Y-63264070D01*
X182266666Y-63264070D02*
X182228571Y-63225975D01*
X182228571Y-63225975D02*
X182171428Y-63206927D01*
X182171428Y-63206927D02*
X182133332Y-63206927D01*
X182133332Y-63206927D02*
X182076190Y-63225975D01*
X182076190Y-63225975D02*
X182057142Y-63245022D01*
X181676190Y-63606927D02*
X181904761Y-63606927D01*
X181790475Y-63606927D02*
X181790475Y-63206927D01*
X181790475Y-63206927D02*
X181828571Y-63264070D01*
X181828571Y-63264070D02*
X181866666Y-63302165D01*
X181866666Y-63302165D02*
X181904761Y-63321213D01*
X181447619Y-63378356D02*
X181485714Y-63359308D01*
X181485714Y-63359308D02*
X181504761Y-63340260D01*
X181504761Y-63340260D02*
X181523809Y-63302165D01*
X181523809Y-63302165D02*
X181523809Y-63283118D01*
X181523809Y-63283118D02*
X181504761Y-63245022D01*
X181504761Y-63245022D02*
X181485714Y-63225975D01*
X181485714Y-63225975D02*
X181447619Y-63206927D01*
X181447619Y-63206927D02*
X181371428Y-63206927D01*
X181371428Y-63206927D02*
X181333333Y-63225975D01*
X181333333Y-63225975D02*
X181314285Y-63245022D01*
X181314285Y-63245022D02*
X181295238Y-63283118D01*
X181295238Y-63283118D02*
X181295238Y-63302165D01*
X181295238Y-63302165D02*
X181314285Y-63340260D01*
X181314285Y-63340260D02*
X181333333Y-63359308D01*
X181333333Y-63359308D02*
X181371428Y-63378356D01*
X181371428Y-63378356D02*
X181447619Y-63378356D01*
X181447619Y-63378356D02*
X181485714Y-63397403D01*
X181485714Y-63397403D02*
X181504761Y-63416451D01*
X181504761Y-63416451D02*
X181523809Y-63454546D01*
X181523809Y-63454546D02*
X181523809Y-63530737D01*
X181523809Y-63530737D02*
X181504761Y-63568832D01*
X181504761Y-63568832D02*
X181485714Y-63587880D01*
X181485714Y-63587880D02*
X181447619Y-63606927D01*
X181447619Y-63606927D02*
X181371428Y-63606927D01*
X181371428Y-63606927D02*
X181333333Y-63587880D01*
X181333333Y-63587880D02*
X181314285Y-63568832D01*
X181314285Y-63568832D02*
X181295238Y-63530737D01*
X181295238Y-63530737D02*
X181295238Y-63454546D01*
X181295238Y-63454546D02*
X181314285Y-63416451D01*
X181314285Y-63416451D02*
X181333333Y-63397403D01*
X181333333Y-63397403D02*
X181371428Y-63378356D01*
D14*
X159607365Y-67801428D02*
X160190222Y-67801428D01*
X160190222Y-67801428D02*
X160258794Y-67835714D01*
X160258794Y-67835714D02*
X160293080Y-67870000D01*
X160293080Y-67870000D02*
X160327365Y-67938571D01*
X160327365Y-67938571D02*
X160327365Y-68075714D01*
X160327365Y-68075714D02*
X160293080Y-68144285D01*
X160293080Y-68144285D02*
X160258794Y-68178571D01*
X160258794Y-68178571D02*
X160190222Y-68212857D01*
X160190222Y-68212857D02*
X159607365Y-68212857D01*
X159675937Y-68521428D02*
X159641651Y-68555714D01*
X159641651Y-68555714D02*
X159607365Y-68624286D01*
X159607365Y-68624286D02*
X159607365Y-68795714D01*
X159607365Y-68795714D02*
X159641651Y-68864286D01*
X159641651Y-68864286D02*
X159675937Y-68898571D01*
X159675937Y-68898571D02*
X159744508Y-68932857D01*
X159744508Y-68932857D02*
X159813080Y-68932857D01*
X159813080Y-68932857D02*
X159915937Y-68898571D01*
X159915937Y-68898571D02*
X160327365Y-68487143D01*
X160327365Y-68487143D02*
X160327365Y-68932857D01*
D12*
X153206927Y-74092857D02*
X153016451Y-73959524D01*
X153206927Y-73864286D02*
X152806927Y-73864286D01*
X152806927Y-73864286D02*
X152806927Y-74016667D01*
X152806927Y-74016667D02*
X152825975Y-74054762D01*
X152825975Y-74054762D02*
X152845022Y-74073809D01*
X152845022Y-74073809D02*
X152883118Y-74092857D01*
X152883118Y-74092857D02*
X152940260Y-74092857D01*
X152940260Y-74092857D02*
X152978356Y-74073809D01*
X152978356Y-74073809D02*
X152997403Y-74054762D01*
X152997403Y-74054762D02*
X153016451Y-74016667D01*
X153016451Y-74016667D02*
X153016451Y-73864286D01*
X153206927Y-74473809D02*
X153206927Y-74245238D01*
X153206927Y-74359524D02*
X152806927Y-74359524D01*
X152806927Y-74359524D02*
X152864070Y-74321428D01*
X152864070Y-74321428D02*
X152902165Y-74283333D01*
X152902165Y-74283333D02*
X152921213Y-74245238D01*
X152806927Y-74721428D02*
X152806927Y-74759523D01*
X152806927Y-74759523D02*
X152825975Y-74797619D01*
X152825975Y-74797619D02*
X152845022Y-74816666D01*
X152845022Y-74816666D02*
X152883118Y-74835714D01*
X152883118Y-74835714D02*
X152959308Y-74854761D01*
X152959308Y-74854761D02*
X153054546Y-74854761D01*
X153054546Y-74854761D02*
X153130737Y-74835714D01*
X153130737Y-74835714D02*
X153168832Y-74816666D01*
X153168832Y-74816666D02*
X153187880Y-74797619D01*
X153187880Y-74797619D02*
X153206927Y-74759523D01*
X153206927Y-74759523D02*
X153206927Y-74721428D01*
X153206927Y-74721428D02*
X153187880Y-74683333D01*
X153187880Y-74683333D02*
X153168832Y-74664285D01*
X153168832Y-74664285D02*
X153130737Y-74645238D01*
X153130737Y-74645238D02*
X153054546Y-74626190D01*
X153054546Y-74626190D02*
X152959308Y-74626190D01*
X152959308Y-74626190D02*
X152883118Y-74645238D01*
X152883118Y-74645238D02*
X152845022Y-74664285D01*
X152845022Y-74664285D02*
X152825975Y-74683333D01*
X152825975Y-74683333D02*
X152806927Y-74721428D01*
%TO.C,J6*%
D15*
X154425000Y-72425000D02*
X154425000Y-75575000D01*
X154755000Y-75575000D02*
X154425000Y-75575000D01*
X154755000Y-76825000D02*
X154755000Y-75575000D01*
X160475000Y-73132107D02*
X159975000Y-72425000D01*
X160975000Y-72425000D02*
X160475000Y-73132107D01*
X162445000Y-75575000D02*
X162445000Y-76825000D01*
X162445000Y-76825000D02*
X154755000Y-76825000D01*
X162775000Y-72425000D02*
X154425000Y-72425000D01*
X162775000Y-72425000D02*
X162775000Y-75575000D01*
X162775000Y-75575000D02*
X162445000Y-75575000D01*
%TO.C,D1*%
X152600000Y-70375000D02*
X153400000Y-70375000D01*
X152600000Y-71975000D02*
X152600000Y-70375000D01*
X153100000Y-71975000D02*
X152600000Y-71975000D01*
X153400000Y-70375000D02*
X153400000Y-71675000D01*
X153400000Y-71675000D02*
X153100000Y-71975000D01*
%TO.C,R7*%
X164187500Y-74225000D02*
X165012500Y-74225000D01*
X165012500Y-75825000D01*
X164187500Y-75825000D01*
X164187500Y-74225000D01*
%TO.C,C12*%
X156750000Y-66200000D02*
X157550000Y-66200000D01*
X157550000Y-67800000D01*
X156750000Y-67800000D01*
X156750000Y-66200000D01*
%TO.C,D2*%
X165675000Y-70987500D02*
X166475000Y-70987500D01*
X165675000Y-72587500D02*
X165675000Y-70987500D01*
X166175000Y-72587500D02*
X165675000Y-72587500D01*
X166475000Y-70987500D02*
X166475000Y-72287500D01*
X166475000Y-72287500D02*
X166175000Y-72587500D01*
%TO.C,R11*%
X164012500Y-71050000D02*
X164837500Y-71050000D01*
X164837500Y-72650000D01*
X164012500Y-72650000D01*
X164012500Y-71050000D01*
%TO.C,C19*%
X168400000Y-62375000D02*
X169200000Y-62375000D01*
X169200000Y-63975000D01*
X168400000Y-63975000D01*
X168400000Y-62375000D01*
%TO.C,C16*%
X170425000Y-62562500D02*
X171225000Y-62562500D01*
X171225000Y-64162500D01*
X170425000Y-64162500D01*
X170425000Y-62562500D01*
%TO.C,R6*%
X179275000Y-64553185D02*
X180875000Y-64553185D01*
X180875000Y-65378185D01*
X179275000Y-65378185D01*
X179275000Y-64553185D01*
%TO.C,U6*%
X163384999Y-61480000D02*
X160459999Y-61480000D01*
X160459999Y-66380000D01*
X164359999Y-66380000D01*
X164359999Y-62455000D01*
X163384999Y-61480000D01*
%TO.C,J4*%
X178150000Y-68000000D02*
X178150000Y-76500000D01*
X178150000Y-76500000D02*
X183350000Y-76500000D01*
X179450000Y-66300000D02*
X178150000Y-68000000D01*
X179450000Y-66300000D02*
X182050000Y-66300000D01*
X182050000Y-66300000D02*
X183350000Y-68000000D01*
X183350000Y-68000000D02*
X183350000Y-76500000D01*
%TO.C,C11*%
X153450000Y-67925000D02*
X155450000Y-67925000D01*
X155450000Y-69175000D01*
X153450000Y-69175000D01*
X153450000Y-67925000D01*
%TO.C,C21*%
X166535000Y-62940000D02*
X167335000Y-62940000D01*
X167335000Y-64540000D01*
X166535000Y-64540000D01*
X166535000Y-62940000D01*
%TO.C,J2*%
X151500000Y-61055000D02*
X151500000Y-66805000D01*
X155042893Y-63305000D02*
X155750000Y-63805000D01*
X155750000Y-61055000D02*
X151500000Y-61055000D01*
X155750000Y-61055000D02*
X155750000Y-66805000D01*
X155750000Y-62805000D02*
X155042893Y-63305000D01*
X155750000Y-66805000D02*
X151500000Y-66805000D01*
X153500000Y-63055000D02*
X154000000Y-63055000D01*
X154000000Y-63555000D01*
X153500000Y-63555000D01*
X153500000Y-63055000D01*
X153500000Y-64305000D02*
X154000000Y-64305000D01*
X154000000Y-64805000D01*
X153500000Y-64805000D01*
X153500000Y-64305000D01*
%TO.C,C17*%
X176600000Y-62562500D02*
X177400000Y-62562500D01*
X177400000Y-64162500D01*
X176600000Y-64162500D01*
X176600000Y-62562500D01*
%TO.C,C10*%
X164950000Y-67450000D02*
X165750000Y-67450000D01*
X165750000Y-69050000D01*
X164950000Y-69050000D01*
X164950000Y-67450000D01*
%TO.C,C9*%
X162650000Y-67575000D02*
X163900000Y-67575000D01*
X163900000Y-69575000D01*
X162650000Y-69575000D01*
X162650000Y-67575000D01*
%TO.C,U3*%
X168775000Y-69175000D02*
X168775000Y-75175000D01*
X175775000Y-75175000D01*
X175775000Y-68175000D01*
X169775000Y-68175000D01*
X168775000Y-69175000D01*
%TO.C,Y1*%
X175525000Y-64812500D02*
X175525000Y-62312500D01*
X172950000Y-62312500D01*
X172325000Y-62937500D01*
X172325000Y-64812500D01*
X175525000Y-64812500D01*
%TO.C,C18*%
X181200000Y-63000000D02*
X182800000Y-63000000D01*
X182800000Y-63800000D01*
X181200000Y-63800000D01*
X181200000Y-63000000D01*
%TO.C,U2*%
X160400000Y-66900000D02*
X159200000Y-66900000D01*
X159200000Y-69800000D01*
X160800000Y-69800000D01*
X160800000Y-67300000D01*
X160400000Y-66900000D01*
%TO.C,R10*%
X152612500Y-73550000D02*
X153437500Y-73550000D01*
X153437500Y-75150000D01*
X152612500Y-75150000D01*
X152612500Y-73550000D01*
%TD*%
M02*
