%TF.GenerationSoftware,KiCad,Pcbnew,10.0.5*%
%TF.CreationDate,2026-10-03T22:29:29+08:00*%
%TF.ProjectId,TTLtoCANforTOF,54544c74-6f43-4414-9e66-6f72544f462e,rev?*%
%TF.SameCoordinates,Original*%
%TF.FileFunction,Soldermask,Top*%
%TF.FilePolarity,Negative*%
%FSLAX46Y46*%
G04 Gerber Fmt 4.6, Leading zero omitted, Abs format (unit mm)*
G04 Created by KiCad (PCBNEW 10.0.5) date 2026-10-03 22:29:29*
%MOMM*%
%LPD*%
G01*
G04 APERTURE LIST*
G04 Aperture macros list*
%AMRoundRect*
0 Rectangle with rounded corners*
0 $1 Rounding radius*
0 $2 $3 $4 $5 $6 $7 $8 $9 X,Y pos of 4 corners*
0 Add a 4 corners polygon primitive as box body*
4,1,4,$2,$3,$4,$5,$6,$7,$8,$9,$2,$3,0*
0 Add four circle primitives for the rounded corners*
1,1,$1+$1,$2,$3*
1,1,$1+$1,$4,$5*
1,1,$1+$1,$6,$7*
1,1,$1+$1,$8,$9*
0 Add four rect primitives between the rounded corners*
20,1,$1+$1,$2,$3,$4,$5,0*
20,1,$1+$1,$4,$5,$6,$7,0*
20,1,$1+$1,$6,$7,$8,$9,0*
20,1,$1+$1,$8,$9,$2,$3,0*%
G04 Aperture macros list end*
%ADD10RoundRect,0.200000X-0.200000X-0.275000X0.200000X-0.275000X0.200000X0.275000X-0.200000X0.275000X0*%
%ADD11RoundRect,0.225000X0.225000X0.250000X-0.225000X0.250000X-0.225000X-0.250000X0.225000X-0.250000X0*%
%ADD12RoundRect,0.150000X-0.587500X-0.150000X0.587500X-0.150000X0.587500X0.150000X-0.587500X0.150000X0*%
%ADD13RoundRect,0.200000X0.275000X-0.200000X0.275000X0.200000X-0.275000X0.200000X-0.275000X-0.200000X0*%
%ADD14RoundRect,0.225000X-0.225000X-0.250000X0.225000X-0.250000X0.225000X0.250000X-0.225000X0.250000X0*%
%ADD15RoundRect,0.225000X0.375000X-0.225000X0.375000X0.225000X-0.375000X0.225000X-0.375000X-0.225000X0*%
%ADD16RoundRect,0.225000X-0.250000X0.225000X-0.250000X-0.225000X0.250000X-0.225000X0.250000X0.225000X0*%
%ADD17RoundRect,0.250000X-0.550000X1.412500X-0.550000X-1.412500X0.550000X-1.412500X0.550000X1.412500X0*%
%ADD18RoundRect,0.250000X-0.262500X-0.450000X0.262500X-0.450000X0.262500X0.450000X-0.262500X0.450000X0*%
%ADD19RoundRect,0.760000X1.140000X-1.140000X1.140000X1.140000X-1.140000X1.140000X-1.140000X-1.140000X0*%
%ADD20C,4.000000*%
%ADD21RoundRect,0.250000X-0.250000X-0.475000X0.250000X-0.475000X0.250000X0.475000X-0.250000X0.475000X0*%
%ADD22R,1.500000X2.200000*%
%ADD23RoundRect,0.150000X0.150000X-0.512500X0.150000X0.512500X-0.150000X0.512500X-0.150000X-0.512500X0*%
%ADD24RoundRect,0.250000X1.100000X-0.325000X1.100000X0.325000X-1.100000X0.325000X-1.100000X-0.325000X0*%
G04 APERTURE END LIST*
D10*
%TO.C,R4*%
X160400000Y-63300000D03*
X162050000Y-63300000D03*
%TD*%
D11*
%TO.C,C15*%
X169050000Y-66300000D03*
X167500000Y-66300000D03*
%TD*%
D12*
%TO.C,Q2*%
X178650000Y-66050000D03*
X178650000Y-67950000D03*
X180525000Y-67000000D03*
%TD*%
D13*
%TO.C,R9*%
X174050000Y-70300000D03*
X174050000Y-68650000D03*
%TD*%
D14*
%TO.C,C7*%
X160475000Y-65200000D03*
X162025000Y-65200000D03*
%TD*%
%TO.C,C20*%
X154250000Y-70575000D03*
X155800000Y-70575000D03*
%TD*%
D15*
%TO.C,D3*%
X176200000Y-70375000D03*
X176200000Y-67075000D03*
%TD*%
D11*
%TO.C,C13*%
X169025000Y-68075000D03*
X167475000Y-68075000D03*
%TD*%
D16*
%TO.C,C2*%
X172400000Y-68650000D03*
X172400000Y-70200000D03*
%TD*%
D17*
%TO.C,C22*%
X173425000Y-73212500D03*
X173425000Y-78287500D03*
%TD*%
D10*
%TO.C,R8*%
X172375000Y-67175000D03*
X174025000Y-67175000D03*
%TD*%
D18*
%TO.C,R3*%
X155987500Y-63350000D03*
X157812500Y-63350000D03*
%TD*%
D19*
%TO.C,J4*%
X180475000Y-76975000D03*
D20*
X180475000Y-71975000D03*
%TD*%
D21*
%TO.C,C6*%
X154000000Y-65575000D03*
X155900000Y-65575000D03*
%TD*%
D16*
%TO.C,C1*%
X159575000Y-67057592D03*
X159575000Y-68607592D03*
%TD*%
D11*
%TO.C,C14*%
X169075000Y-69800000D03*
X167525000Y-69800000D03*
%TD*%
D10*
%TO.C,R5*%
X164100000Y-63450000D03*
X165750000Y-63450000D03*
%TD*%
D22*
%TO.C,L1*%
X155600000Y-75600000D03*
X162000000Y-75600000D03*
%TD*%
D23*
%TO.C,U1*%
X161150000Y-69837500D03*
X162100000Y-69837500D03*
X163050000Y-69837500D03*
X163050000Y-67562500D03*
X162100000Y-67562500D03*
X161150000Y-67562500D03*
%TD*%
D24*
%TO.C,C4*%
X168175000Y-75250000D03*
X168175000Y-72300000D03*
%TD*%
D13*
%TO.C,R1*%
X164850000Y-69925000D03*
X164850000Y-68275000D03*
%TD*%
D21*
%TO.C,C8*%
X153825000Y-68500000D03*
X155725000Y-68500000D03*
%TD*%
D24*
%TO.C,C3*%
X164825000Y-75300000D03*
X164825000Y-72350000D03*
%TD*%
D10*
%TO.C,R2*%
X164150000Y-65125000D03*
X165800000Y-65125000D03*
%TD*%
M02*
