%TF.GenerationSoftware,KiCad,Pcbnew,10.0.5*%
%TF.CreationDate,2026-10-04T17:43:01+08:00*%
%TF.ProjectId,TTLtoCANforTOF,54544c74-6f43-4414-9e66-6f72544f462e,rev?*%
%TF.SameCoordinates,Original*%
%TF.FileFunction,Copper,L2,Bot*%
%TF.FilePolarity,Positive*%
%FSLAX46Y46*%
G04 Gerber Fmt 4.6, Leading zero omitted, Abs format (unit mm)*
G04 Created by KiCad (PCBNEW 10.0.5) date 2026-10-04 17:43:01*
%MOMM*%
%LPD*%
G01*
G04 APERTURE LIST*
G04 Aperture macros list*
%AMRoundRect*
0 Rectangle with rounded corners*
0 $1 Rounding radius*
0 $2 $3 $4 $5 $6 $7 $8 $9 X,Y pos of 4 corners*
0 Add a 4 corners polygon primitive as box body*
4,1,4,$2,$3,$4,$5,$6,$7,$8,$9,$2,$3,0*
0 Add four circle primitives for the rounded corners*
1,1,$1+$1,$2,$3*
1,1,$1+$1,$4,$5*
1,1,$1+$1,$6,$7*
1,1,$1+$1,$8,$9*
0 Add four rect primitives between the rounded corners*
20,1,$1+$1,$2,$3,$4,$5,0*
20,1,$1+$1,$4,$5,$6,$7,0*
20,1,$1+$1,$6,$7,$8,$9,0*
20,1,$1+$1,$8,$9,$2,$3,0*%
G04 Aperture macros list end*
%TA.AperFunction,SMDPad,CuDef*%
%ADD10RoundRect,0.150000X0.150000X0.700000X-0.150000X0.700000X-0.150000X-0.700000X0.150000X-0.700000X0*%
%TD*%
%TA.AperFunction,SMDPad,CuDef*%
%ADD11RoundRect,0.250000X0.250000X1.100000X-0.250000X1.100000X-0.250000X-1.100000X0.250000X-1.100000X0*%
%TD*%
%TA.AperFunction,SMDPad,CuDef*%
%ADD12RoundRect,0.218750X0.256250X-0.218750X0.256250X0.218750X-0.256250X0.218750X-0.256250X-0.218750X0*%
%TD*%
%TA.AperFunction,SMDPad,CuDef*%
%ADD13RoundRect,0.200000X-0.275000X0.200000X-0.275000X-0.200000X0.275000X-0.200000X0.275000X0.200000X0*%
%TD*%
%TA.AperFunction,SMDPad,CuDef*%
%ADD14RoundRect,0.225000X0.250000X-0.225000X0.250000X0.225000X-0.250000X0.225000X-0.250000X-0.225000X0*%
%TD*%
%TA.AperFunction,SMDPad,CuDef*%
%ADD15RoundRect,0.225000X-0.250000X0.225000X-0.250000X-0.225000X0.250000X-0.225000X0.250000X0.225000X0*%
%TD*%
%TA.AperFunction,SMDPad,CuDef*%
%ADD16C,1.000000*%
%TD*%
%TA.AperFunction,SMDPad,CuDef*%
%ADD17RoundRect,0.200000X0.200000X0.275000X-0.200000X0.275000X-0.200000X-0.275000X0.200000X-0.275000X0*%
%TD*%
%TA.AperFunction,SMDPad,CuDef*%
%ADD18RoundRect,0.150000X0.825000X0.150000X-0.825000X0.150000X-0.825000X-0.150000X0.825000X-0.150000X0*%
%TD*%
%TA.AperFunction,ComponentPad*%
%ADD19RoundRect,0.760000X-1.140000X1.140000X-1.140000X-1.140000X1.140000X-1.140000X1.140000X1.140000X0*%
%TD*%
%TA.AperFunction,ComponentPad*%
%ADD20C,4.000000*%
%TD*%
%TA.AperFunction,SMDPad,CuDef*%
%ADD21RoundRect,0.250000X0.250000X0.475000X-0.250000X0.475000X-0.250000X-0.475000X0.250000X-0.475000X0*%
%TD*%
%TA.AperFunction,SMDPad,CuDef*%
%ADD22RoundRect,0.150000X-0.700000X0.150000X-0.700000X-0.150000X0.700000X-0.150000X0.700000X0.150000X0*%
%TD*%
%TA.AperFunction,SMDPad,CuDef*%
%ADD23RoundRect,0.250000X-1.150000X0.250000X-1.150000X-0.250000X1.150000X-0.250000X1.150000X0.250000X0*%
%TD*%
%TA.AperFunction,SMDPad,CuDef*%
%ADD24RoundRect,0.250000X-0.475000X0.250000X-0.475000X-0.250000X0.475000X-0.250000X0.475000X0.250000X0*%
%TD*%
%TA.AperFunction,SMDPad,CuDef*%
%ADD25RoundRect,0.075000X-0.075000X0.662500X-0.075000X-0.662500X0.075000X-0.662500X0.075000X0.662500X0*%
%TD*%
%TA.AperFunction,SMDPad,CuDef*%
%ADD26RoundRect,0.075000X-0.662500X0.075000X-0.662500X-0.075000X0.662500X-0.075000X0.662500X0.075000X0*%
%TD*%
%TA.AperFunction,SMDPad,CuDef*%
%ADD27RoundRect,0.250000X-0.450000X-0.350000X0.450000X-0.350000X0.450000X0.350000X-0.450000X0.350000X0*%
%TD*%
%TA.AperFunction,SMDPad,CuDef*%
%ADD28RoundRect,0.150000X0.512500X0.150000X-0.512500X0.150000X-0.512500X-0.150000X0.512500X-0.150000X0*%
%TD*%
%TA.AperFunction,ViaPad*%
%ADD29C,0.600000*%
%TD*%
%TA.AperFunction,Conductor*%
%ADD30C,0.200000*%
%TD*%
%TA.AperFunction,Conductor*%
%ADD31C,0.600000*%
%TD*%
%TA.AperFunction,Conductor*%
%ADD32C,0.500000*%
%TD*%
G04 APERTURE END LIST*
D10*
%TO.P,J6,1,Pin_1_1*%
%TO.N,/SWDIO*%
X160475000Y-72375000D03*
%TO.P,J6,2,Pin_2_2*%
%TO.N,/SWCLK*%
X159225000Y-72375000D03*
%TO.P,J6,3,Pin_3_3*%
%TO.N,GND*%
X157975000Y-72375000D03*
%TO.P,J6,4,Pin_4_4*%
%TO.N,+3.3V*%
X156725000Y-72375000D03*
D11*
%TO.P,J6,MP,MountPin_MP*%
%TO.N,GND*%
X162325000Y-75575000D03*
X154875000Y-75575000D03*
%TD*%
D12*
%TO.P,D1,1,K_1*%
%TO.N,Net-(D1-K)*%
X153000000Y-71962500D03*
%TO.P,D1,2,A_2*%
%TO.N,+3.3V*%
X153000000Y-70387500D03*
%TD*%
D13*
%TO.P,R7,1*%
%TO.N,/SWCLK*%
X164600000Y-74200000D03*
%TO.P,R7,2*%
%TO.N,GND*%
X164600000Y-75850000D03*
%TD*%
D14*
%TO.P,C12,1*%
%TO.N,+3.3V*%
X157150000Y-67775000D03*
%TO.P,C12,2*%
%TO.N,GND*%
X157150000Y-66225000D03*
%TD*%
D12*
%TO.P,D2,1,K_1*%
%TO.N,Net-(D2-K)*%
X166075000Y-72575000D03*
%TO.P,D2,2,A_2*%
%TO.N,+3.3V*%
X166075000Y-71000000D03*
%TD*%
D13*
%TO.P,R11,1*%
%TO.N,Net-(D2-K)*%
X164425000Y-71025000D03*
%TO.P,R11,2*%
%TO.N,/LED*%
X164425000Y-72675000D03*
%TD*%
D14*
%TO.P,C19,1*%
%TO.N,+3.3V*%
X168800000Y-63950000D03*
%TO.P,C19,2*%
%TO.N,GND*%
X168800000Y-62400000D03*
%TD*%
D15*
%TO.P,C16,1*%
%TO.N,GND*%
X170825000Y-62587500D03*
%TO.P,C16,2*%
%TO.N,/OSC+*%
X170825000Y-64137500D03*
%TD*%
D16*
%TO.P,TP1,1,1_1*%
%TO.N,/NRST*%
X179600000Y-62825000D03*
%TD*%
D17*
%TO.P,R6,1*%
%TO.N,+3.3V*%
X181350000Y-64775000D03*
%TO.P,R6,2*%
%TO.N,/NRST*%
X179700000Y-64775000D03*
%TD*%
D18*
%TO.P,U6,1,TXD_1*%
%TO.N,/CAN_TX*%
X164884999Y-62025000D03*
%TO.P,U6,2,GND_2*%
%TO.N,GND*%
X164884999Y-63295000D03*
%TO.P,U6,3,VCC_3*%
%TO.N,+3.3V*%
X164884999Y-64565000D03*
%TO.P,U6,4,RXD_4*%
%TO.N,/CAN_RX*%
X164884999Y-65835000D03*
%TO.P,U6,5,VIO_5*%
%TO.N,+3.3V*%
X159934999Y-65835000D03*
%TO.P,U6,6,CANL_6*%
%TO.N,/CAN-*%
X159934999Y-64565000D03*
%TO.P,U6,7,CANH_7*%
%TO.N,/CAN+*%
X159934999Y-63295000D03*
%TO.P,U6,8,STB_8*%
%TO.N,GND*%
X159934999Y-62025000D03*
%TD*%
D19*
%TO.P,J4,1,Pin_1_1*%
%TO.N,GND*%
X180750000Y-68900000D03*
D20*
%TO.P,J4,2,Pin_2_2*%
%TO.N,VCC_IN*%
X180750000Y-73900000D03*
%TD*%
D21*
%TO.P,C11,1*%
%TO.N,+3.3V*%
X155400000Y-68550000D03*
%TO.P,C11,2*%
%TO.N,GND*%
X153500000Y-68550000D03*
%TD*%
D14*
%TO.P,C21,1*%
%TO.N,+3.3V*%
X166935000Y-64515000D03*
%TO.P,C21,2*%
%TO.N,GND*%
X166935000Y-62965000D03*
%TD*%
D22*
%TO.P,J2,1,Pin_1_1*%
%TO.N,/CAN+*%
X155950000Y-63305000D03*
%TO.P,J2,2,Pin_2_2*%
%TO.N,/CAN-*%
X155950000Y-64555000D03*
D23*
%TO.P,J2,MP,MountPin_MP*%
%TO.N,GND*%
X152600000Y-61455000D03*
X152600000Y-66405000D03*
%TD*%
D15*
%TO.P,C17,1*%
%TO.N,GND*%
X177000000Y-62587500D03*
%TO.P,C17,2*%
%TO.N,/OSC-*%
X177000000Y-64137500D03*
%TD*%
%TO.P,C10,1*%
%TO.N,5V*%
X165350000Y-67475000D03*
%TO.P,C10,2*%
%TO.N,GND*%
X165350000Y-69025000D03*
%TD*%
D24*
%TO.P,C9,1*%
%TO.N,5V*%
X163275000Y-67625000D03*
%TO.P,C9,2*%
%TO.N,GND*%
X163275000Y-69525000D03*
%TD*%
D25*
%TO.P,U3,1,PC13_1*%
%TO.N,unconnected-(U3-PC13-Pad1)*%
X169525000Y-67512500D03*
%TO.P,U3,2,PC14_2*%
%TO.N,unconnected-(U3-PC14-Pad2)*%
X170025000Y-67512500D03*
%TO.P,U3,3,PC15_3*%
%TO.N,unconnected-(U3-PC15-Pad3)*%
X170525000Y-67512500D03*
%TO.P,U3,4,VBAT_4*%
%TO.N,+3.3V*%
X171025000Y-67512500D03*
%TO.P,U3,5,VREF+_5*%
X171525000Y-67512500D03*
%TO.P,U3,6,VDD_6*%
X172025000Y-67512500D03*
%TO.P,U3,7,VSS_7*%
%TO.N,GND*%
X172525000Y-67512500D03*
%TO.P,U3,8,PF0_8*%
%TO.N,/OSC+*%
X173025000Y-67512500D03*
%TO.P,U3,9,PF1_9*%
%TO.N,/OSC-*%
X173525000Y-67512500D03*
%TO.P,U3,10,PF2_10*%
%TO.N,/NRST*%
X174025000Y-67512500D03*
%TO.P,U3,11,PA0_11*%
%TO.N,unconnected-(U3-PA0-Pad11)*%
X174525000Y-67512500D03*
%TO.P,U3,12,PA1_12*%
%TO.N,unconnected-(U3-PA1-Pad12)*%
X175025000Y-67512500D03*
D26*
%TO.P,U3,13,PA2_13*%
%TO.N,unconnected-(U3-PA2-Pad13)*%
X176437500Y-71425000D03*
%TO.P,U3,14,PA3_14*%
%TO.N,unconnected-(U3-PA3-Pad14)*%
X176437500Y-69425000D03*
%TO.P,U3,15,PA4_15*%
%TO.N,unconnected-(U3-PA4-Pad15)*%
X176437500Y-69925000D03*
%TO.P,U3,16,PA5_16*%
%TO.N,unconnected-(U3-PA5-Pad16)*%
X176437500Y-70425000D03*
%TO.P,U3,17,PA6_17*%
%TO.N,unconnected-(U3-PA6-Pad17)*%
X176437500Y-70925000D03*
%TO.P,U3,19,PB0_19*%
%TO.N,unconnected-(U3-PB0-Pad19)*%
X176437500Y-71925000D03*
%TO.P,U3,20,PB1_20*%
%TO.N,unconnected-(U3-PB1-Pad20)*%
X176437500Y-72425000D03*
%TO.P,U3,21,PB2_21*%
%TO.N,unconnected-(U3-PB2-Pad21)*%
X176437500Y-72925000D03*
%TO.P,U3,22,PB10_22*%
%TO.N,unconnected-(U3-PB10-Pad22)*%
X176437500Y-73425000D03*
%TO.P,U3,23,PB11_23*%
%TO.N,unconnected-(U3-PB11-Pad23)*%
X176437500Y-73925000D03*
%TO.P,U3,24,PB12_24*%
%TO.N,unconnected-(U3-PB12-Pad24)*%
X176437500Y-74425000D03*
D25*
%TO.P,U3,25,PB13_25*%
%TO.N,unconnected-(U3-PB13-Pad25)*%
X175025000Y-75837500D03*
%TO.P,U3,26,PB14_26*%
%TO.N,unconnected-(U3-PB14-Pad26)*%
X174525000Y-75837500D03*
%TO.P,U3,27,PB15_27*%
%TO.N,unconnected-(U3-PB15-Pad27)*%
X174025000Y-75837500D03*
%TO.P,U3,28,PA8_28*%
%TO.N,unconnected-(U3-PA8-Pad28)*%
X173525000Y-75837500D03*
%TO.P,U3,30,PC6_30*%
%TO.N,unconnected-(U3-PC6-Pad30)*%
X172525000Y-75837500D03*
%TO.P,U3,31,PC7_31*%
%TO.N,unconnected-(U3-PC7-Pad31)*%
X172025000Y-75837500D03*
%TO.P,U3,32,PA10/UCPD1_DBCC2_32*%
%TO.N,unconnected-(U3-PA10{slash}UCPD1_DBCC2-Pad32)*%
X171525000Y-75837500D03*
%TO.P,U3,33,PA9/PA11_33*%
%TO.N,/USART1_TX*%
X171025000Y-75837500D03*
%TO.P,U3,34,PA10/PA12_34*%
%TO.N,/USART1_RX*%
X170525000Y-75837500D03*
%TO.P,U3,35,PA13_35*%
%TO.N,/SWDIO*%
X170025000Y-75837500D03*
%TO.P,U3,36,PA14_36*%
%TO.N,/SWCLK*%
X169525000Y-75837500D03*
D26*
%TO.P,U3,37,PA15_37*%
%TO.N,unconnected-(U3-PA15-Pad37)*%
X168112500Y-74425000D03*
%TO.P,U3,38,PD0_38*%
%TO.N,/LED*%
X168112500Y-73925000D03*
%TO.P,U3,39,PD1_39*%
%TO.N,unconnected-(U3-PD1-Pad39)*%
X168112500Y-73425000D03*
%TO.P,U3,40,PD2_40*%
%TO.N,unconnected-(U3-PD2-Pad40)*%
X168112500Y-72925000D03*
%TO.P,U3,41,PD3_41*%
%TO.N,unconnected-(U3-PD3-Pad41)*%
X168112500Y-72425000D03*
%TO.P,U3,42,PB3_42*%
%TO.N,unconnected-(U3-PB3-Pad42)*%
X168112500Y-71925000D03*
%TO.P,U3,43,PB4_43*%
%TO.N,unconnected-(U3-PB4-Pad43)*%
X168112500Y-71425000D03*
%TO.P,U3,44,PB5_44*%
%TO.N,unconnected-(U3-PB5-Pad44)*%
X168112500Y-70925000D03*
%TO.P,U3,46,PB7_46*%
%TO.N,unconnected-(U3-PB7-Pad46)*%
X168112500Y-69925000D03*
%TO.P,U3,47,PB8_47*%
%TO.N,/CAN_RX*%
X168112500Y-69425000D03*
%TO.P,U3,48,PB9_48*%
%TO.N,/CAN_TX*%
X168112500Y-68925000D03*
%TD*%
D27*
%TO.P,Y1,1,1_1*%
%TO.N,/OSC+*%
X172825000Y-62712500D03*
%TO.P,Y1,2,2_2*%
%TO.N,GND*%
X175025000Y-62712500D03*
%TO.P,Y1,3,3_3*%
%TO.N,/OSC-*%
X175025000Y-64412500D03*
%TO.P,Y1,4*%
%TO.N,GND*%
X172825000Y-64412500D03*
%TD*%
D16*
%TO.P,TP2,1,1_1*%
%TO.N,GND*%
X181375000Y-61600000D03*
%TD*%
D14*
%TO.P,C18,1*%
%TO.N,/NRST*%
X182925000Y-64800000D03*
%TO.P,C18,2*%
%TO.N,GND*%
X182925000Y-63250000D03*
%TD*%
D28*
%TO.P,U2,1,V_{IN}_1*%
%TO.N,5V*%
X161137500Y-67400000D03*
%TO.P,U2,2,V_{SS}_2*%
%TO.N,GND*%
X161137500Y-68350000D03*
%TO.P,U2,3,CE_3*%
%TO.N,5V*%
X161137500Y-69300000D03*
%TO.P,U2,4,NC_4*%
%TO.N,unconnected-(U2-NC-Pad4)*%
X158862500Y-69300000D03*
%TO.P,U2,5,V_{OUT}_5*%
%TO.N,+3.3V*%
X158862500Y-67400000D03*
%TD*%
D13*
%TO.P,R10,1*%
%TO.N,Net-(D1-K)*%
X153025000Y-73525000D03*
%TO.P,R10,2*%
%TO.N,GND*%
X153025000Y-75175000D03*
%TD*%
D29*
%TO.N,+3.3V*%
X169475000Y-66050000D03*
X171500000Y-68675000D03*
X172157136Y-68670518D03*
%TO.N,GND*%
X173000000Y-64825000D03*
X175575000Y-61562500D03*
X152175000Y-64275000D03*
X182850000Y-66425000D03*
X155475000Y-65925000D03*
X155475000Y-66550000D03*
X155850000Y-61325000D03*
X152175000Y-63625000D03*
X169875000Y-64737500D03*
X182850000Y-67050000D03*
X152275000Y-68750000D03*
X177125000Y-65312500D03*
X154850000Y-66575000D03*
X156475000Y-61325000D03*
X152800000Y-63625000D03*
X182325000Y-70050000D03*
X155850000Y-61975000D03*
X177875000Y-61712500D03*
X154850000Y-65925000D03*
X151650000Y-68775000D03*
X172325000Y-61562500D03*
X176150000Y-65912500D03*
X182325000Y-70700000D03*
X152275000Y-68125000D03*
X182225000Y-66425000D03*
X156475000Y-61950000D03*
X182950000Y-70050000D03*
X170012500Y-61875000D03*
X182950000Y-70675000D03*
X178125000Y-63912500D03*
X151650000Y-68125000D03*
X152800000Y-64250000D03*
X182225000Y-67075000D03*
%TO.N,5V*%
X161300000Y-69400000D03*
X161137500Y-67400000D03*
%TO.N,/USART1_TX*%
X171043716Y-74766038D03*
%TO.N,/USART1_RX*%
X169875546Y-74429609D03*
%TD*%
%TO.N,+3.3V*%
D30*
X169200000Y-64917590D02*
X169200000Y-64567499D01*
X171525000Y-67512500D02*
X171525000Y-68650000D01*
X166650000Y-69732410D02*
X166650000Y-67100000D01*
X171525000Y-69350000D02*
X171725000Y-69550000D01*
X162640000Y-65835000D02*
X162234999Y-65835000D01*
X153000000Y-70387500D02*
X153562500Y-70387500D01*
X159934999Y-65835000D02*
X158862500Y-66907499D01*
X155400000Y-68550000D02*
X156600000Y-68550000D01*
X171025000Y-67512500D02*
X171025000Y-66742590D01*
X161959999Y-65835000D02*
X161684999Y-65835000D01*
X171525000Y-69800000D02*
X171525000Y-69550000D01*
X164884999Y-64565000D02*
X166974999Y-64565000D01*
X170975000Y-69350000D02*
X171175000Y-69550000D01*
X166858795Y-69941205D02*
X166650000Y-69732410D01*
X171175000Y-69550000D02*
X171325000Y-69550000D01*
X158862500Y-66907499D02*
X158862500Y-67400000D01*
X172425000Y-69375000D02*
X172250000Y-69550000D01*
X177873095Y-66500000D02*
X180750000Y-66500000D01*
X172025000Y-68500000D02*
X172025000Y-67512500D01*
X156600000Y-68550000D02*
X156725000Y-68675000D01*
X166150000Y-66600000D02*
X163405000Y-66600000D01*
X163910000Y-64565000D02*
X164884999Y-64565000D01*
X171525000Y-68700000D02*
X171500000Y-68675000D01*
X171025000Y-66742590D02*
X169200000Y-64917590D01*
X171525000Y-69800000D02*
X171525000Y-69750000D01*
X161684999Y-65835000D02*
X159934999Y-65835000D01*
X167108795Y-70191205D02*
X166891205Y-70191205D01*
X171525000Y-69550000D02*
X171725000Y-69550000D01*
X171525000Y-68650000D02*
X171500000Y-68675000D01*
X166075000Y-71000000D02*
X166887500Y-70187500D01*
X167108795Y-70191205D02*
X167021295Y-70103705D01*
X163350000Y-65125000D02*
X163910000Y-64565000D01*
X166974999Y-64565000D02*
X167034999Y-64505000D01*
X162234999Y-65835000D02*
X161959999Y-65835000D01*
X169200000Y-64567499D02*
X168632500Y-63999999D01*
X166650000Y-67100000D02*
X166150000Y-66600000D01*
X172157136Y-68670518D02*
X172425000Y-68938382D01*
X167367590Y-70450000D02*
X167108795Y-70191205D01*
X163910000Y-64565000D02*
X162640000Y-65835000D01*
X166891205Y-70191205D02*
X166887500Y-70187500D01*
X171525000Y-69325000D02*
X171525000Y-69350000D01*
X171200000Y-70450000D02*
X167367590Y-70450000D01*
X170975000Y-66692590D02*
X170975000Y-69350000D01*
X166858795Y-69941205D02*
X166858795Y-70158795D01*
X169475000Y-66050000D02*
X170332410Y-66050000D01*
X170332410Y-66050000D02*
X171025000Y-66742590D01*
X171725000Y-69550000D02*
X172250000Y-69550000D01*
X171525000Y-69550000D02*
X171525000Y-69325000D01*
X166971295Y-70103705D02*
X167021295Y-70103705D01*
X171525000Y-69750000D02*
X171325000Y-69550000D01*
X172157136Y-68670518D02*
X172157136Y-68632136D01*
X170332410Y-66050000D02*
X170975000Y-66692590D01*
X158487500Y-67775000D02*
X158862500Y-67400000D01*
X153562500Y-70387500D02*
X155400000Y-68550000D01*
X181350000Y-65900000D02*
X181350000Y-64775000D01*
X171525000Y-69350000D02*
X171325000Y-69550000D01*
X156725000Y-68200000D02*
X157150000Y-67775000D01*
X166887500Y-70187500D02*
X166971295Y-70103705D01*
X166858795Y-70158795D02*
X166887500Y-70187500D01*
X171525000Y-69800000D02*
X171525000Y-70125000D01*
X172157136Y-68632136D02*
X172025000Y-68500000D01*
X171525000Y-69750000D02*
X171725000Y-69550000D01*
X171525000Y-69325000D02*
X171525000Y-68700000D01*
X157150000Y-67775000D02*
X158487500Y-67775000D01*
X167021295Y-70103705D02*
X166858795Y-69941205D01*
X156725000Y-72375000D02*
X156725000Y-68675000D01*
X180750000Y-66500000D02*
X181350000Y-65900000D01*
X172250000Y-69550000D02*
X174823095Y-69550000D01*
X171525000Y-69550000D02*
X171325000Y-69550000D01*
X171525000Y-70125000D02*
X171200000Y-70450000D01*
X163405000Y-66600000D02*
X162640000Y-65835000D01*
X172425000Y-68938382D02*
X172425000Y-69375000D01*
X156725000Y-68675000D02*
X156725000Y-68200000D01*
X174823095Y-69550000D02*
X177873095Y-66500000D01*
%TO.N,GND*%
X176150000Y-65912500D02*
X176750000Y-65312500D01*
D31*
X170825000Y-62587500D02*
X170825000Y-62437500D01*
D30*
X175575000Y-61562500D02*
X175575000Y-62162500D01*
X169900073Y-64712573D02*
X169900073Y-64462427D01*
X172525000Y-66612500D02*
X170800000Y-64887500D01*
X176750000Y-65312500D02*
X177125000Y-65312500D01*
X173350000Y-61562500D02*
X170100000Y-61562500D01*
X169937500Y-64650000D02*
X169937500Y-61950000D01*
X177975000Y-61812500D02*
X177875000Y-61712500D01*
X175575000Y-62162500D02*
X175025000Y-62712500D01*
X173325000Y-64412500D02*
X175025000Y-62712500D01*
X177875000Y-61712500D02*
X177875000Y-61687500D01*
X170800000Y-64887500D02*
X170075000Y-64887500D01*
X175575000Y-61562500D02*
X173350000Y-61562500D01*
X177825000Y-61637500D02*
X175575000Y-61637500D01*
X172525000Y-67512500D02*
X172525000Y-66612500D01*
X170075000Y-64887500D02*
X169900073Y-64712573D01*
X170012500Y-61875000D02*
X169937500Y-61950000D01*
X177875000Y-61687500D02*
X177825000Y-61637500D01*
X177875000Y-61712500D02*
X177000000Y-62587500D01*
X172825000Y-64412500D02*
X173325000Y-64412500D01*
X170737500Y-62750000D02*
X169937500Y-61950000D01*
X177975000Y-64462500D02*
X177975000Y-61812500D01*
X177975000Y-64462500D02*
X177125000Y-65312500D01*
%TO.N,5V*%
D32*
X164825000Y-67625000D02*
X165225000Y-68025000D01*
X163275000Y-67625000D02*
X164825000Y-67625000D01*
D30*
X163050000Y-67400000D02*
X163275000Y-67625000D01*
D32*
X161137500Y-67400000D02*
X163050000Y-67400000D01*
%TO.N,/USART1_TX*%
D30*
X171043716Y-74766038D02*
X171025000Y-74784754D01*
X171025000Y-74784754D02*
X171025000Y-75837500D01*
%TO.N,/USART1_RX*%
X170525000Y-75067590D02*
X170525000Y-75837500D01*
X169875546Y-74429609D02*
X169887019Y-74429609D01*
X169887019Y-74429609D02*
X170525000Y-75067590D01*
%TO.N,/SWDIO*%
X168137648Y-76900000D02*
X166212648Y-74975000D01*
X170025000Y-75837500D02*
X170025000Y-76625000D01*
X169750000Y-76900000D02*
X168137648Y-76900000D01*
X161300000Y-72375000D02*
X160475000Y-72375000D01*
X166212648Y-74975000D02*
X163900000Y-74975000D01*
X163900000Y-74975000D02*
X161300000Y-72375000D01*
X170025000Y-76625000D02*
X169750000Y-76900000D01*
%TO.N,/SWCLK*%
X161225000Y-71225000D02*
X160134448Y-71225000D01*
X169525000Y-75837500D02*
X167837500Y-75837500D01*
X167837500Y-75837500D02*
X166200000Y-74200000D01*
X159225000Y-72134448D02*
X159225000Y-72375000D01*
X164200000Y-74200000D02*
X161225000Y-71225000D01*
X166200000Y-74200000D02*
X164200000Y-74200000D01*
X160134448Y-71225000D02*
X159225000Y-72134448D01*
%TO.N,/OSC+*%
X171825000Y-64997244D02*
X172319396Y-65491640D01*
X172825000Y-62712500D02*
X171825000Y-63712500D01*
X172319396Y-65491640D02*
X173025000Y-66197244D01*
X172825000Y-62712500D02*
X171925000Y-62712500D01*
X173025000Y-66197244D02*
X173025000Y-67512500D01*
X171925000Y-62712500D02*
X170825000Y-63812500D01*
X170825000Y-63812500D02*
X170825000Y-64137500D01*
X171825000Y-63712500D02*
X171825000Y-64997244D01*
%TO.N,/NRST*%
X174292590Y-68550000D02*
X175257410Y-68550000D01*
X179700000Y-64775000D02*
X180475000Y-64000000D01*
X179700000Y-64775000D02*
X179700000Y-62925000D01*
X180475000Y-64000000D02*
X182125000Y-64000000D01*
X179700000Y-62925000D02*
X179600000Y-62825000D01*
X174025000Y-68282410D02*
X174025000Y-67512500D01*
X174292590Y-68550000D02*
X174025000Y-68282410D01*
X182125000Y-64000000D02*
X182925000Y-64800000D01*
X179032410Y-64775000D02*
X179700000Y-64775000D01*
X175257410Y-68550000D02*
X179032410Y-64775000D01*
%TO.N,/CAN_TX*%
X164884999Y-62025000D02*
X167218696Y-62025000D01*
X168025000Y-62831304D02*
X168025000Y-68837500D01*
X168025000Y-68837500D02*
X168112500Y-68925000D01*
X167218696Y-62025000D02*
X168025000Y-62831304D01*
%TO.N,/CAN_RX*%
X167342590Y-69425000D02*
X168112500Y-69425000D01*
X164884999Y-65835000D02*
X166860000Y-65835000D01*
X167075000Y-69157410D02*
X167342590Y-69425000D01*
X167075000Y-66050000D02*
X167075000Y-69157410D01*
X166860000Y-65835000D02*
X167075000Y-66050000D01*
%TO.N,/CAN-*%
X158472498Y-64565000D02*
X159934999Y-64565000D01*
X157625001Y-64155000D02*
X158062498Y-64155000D01*
X155950000Y-64555000D02*
X157225001Y-64555000D01*
X158062498Y-64155000D02*
X158472498Y-64565000D01*
X157225001Y-64555000D02*
X157625001Y-64155000D01*
%TO.N,/CAN+*%
X158472498Y-63295000D02*
X159934999Y-63295000D01*
X157625001Y-63705000D02*
X158062498Y-63705000D01*
X155950000Y-63305000D02*
X157225001Y-63305000D01*
X158062498Y-63705000D02*
X158472498Y-63295000D01*
X157225001Y-63305000D02*
X157625001Y-63705000D01*
%TO.N,/OSC-*%
X173913559Y-64941007D02*
X174088607Y-65116055D01*
X173525000Y-67512500D02*
X173499277Y-67486777D01*
X173664337Y-65823162D02*
X173499277Y-65988223D01*
X175217739Y-64269761D02*
X174725000Y-64762500D01*
X174442158Y-64762500D02*
X174267111Y-64587453D01*
X174230025Y-65257475D02*
X174371446Y-65398896D01*
X174230028Y-65257476D02*
X174230025Y-65257475D01*
X173499277Y-67486777D02*
X173499277Y-66095043D01*
X173735048Y-65752450D02*
X173664337Y-65823162D01*
X177000000Y-64137500D02*
X175300000Y-64137500D01*
X174687890Y-65998182D02*
X174617176Y-66068895D01*
X173499277Y-66095043D02*
X173499277Y-65988223D01*
X174088607Y-65116055D02*
X174230028Y-65257476D01*
X174371446Y-65398896D02*
X174687890Y-65715340D01*
X174334334Y-66068895D02*
X174017890Y-65752451D01*
X173984269Y-64587453D02*
X173913559Y-64658164D01*
X174617176Y-66068895D02*
G75*
G02*
X174334334Y-66068895I-141421J141426D01*
G01*
X174267111Y-64587453D02*
G75*
G03*
X173984269Y-64587453I-141421J-141423D01*
G01*
X174687890Y-65715340D02*
G75*
G02*
X174687929Y-65998221I-141390J-141460D01*
G01*
X174017890Y-65752451D02*
G75*
G03*
X173735079Y-65752481I-141390J-141449D01*
G01*
X173913559Y-64658164D02*
G75*
G03*
X173913544Y-64941021I141441J-141436D01*
G01*
X174725000Y-64762500D02*
G75*
G02*
X174442158Y-64762500I-141421J141423D01*
G01*
%TO.N,Net-(D1-K)*%
X153025000Y-73525000D02*
X153025000Y-71987500D01*
X153025000Y-71987500D02*
X153000000Y-71962500D01*
%TO.N,Net-(D2-K)*%
X164525000Y-71025000D02*
X164425000Y-71025000D01*
X166075000Y-72575000D02*
X164525000Y-71025000D01*
%TO.N,/LED*%
X165125000Y-73375000D02*
X164425000Y-72675000D01*
X166800000Y-73375000D02*
X165125000Y-73375000D01*
X167342590Y-73925000D02*
X167075000Y-73657410D01*
X168112500Y-73925000D02*
X167342590Y-73925000D01*
X167075000Y-73657410D02*
X167075000Y-73650000D01*
X167075000Y-73650000D02*
X166800000Y-73375000D01*
%TD*%
%TA.AperFunction,Conductor*%
%TO.N,+3.3V*%
G36*
X171020833Y-66597002D02*
G01*
X171094065Y-66670233D01*
X171096601Y-66674029D01*
X171124994Y-66742577D01*
X171124996Y-66742582D01*
X171125000Y-66742590D01*
X171167137Y-66817471D01*
X171168395Y-66825597D01*
X171036454Y-67458552D01*
X171031411Y-67465951D01*
X171022612Y-67467618D01*
X171015213Y-67462575D01*
X171013546Y-67458552D01*
X171007361Y-67428882D01*
X170881604Y-66825594D01*
X170882861Y-66817473D01*
X170924997Y-66742596D01*
X170925000Y-66742591D01*
X170924999Y-66742590D01*
X170925000Y-66742590D01*
X170891703Y-66734900D01*
X170884414Y-66729700D01*
X170882937Y-66720868D01*
X170886062Y-66715230D01*
X171004290Y-66597002D01*
X171012562Y-66593576D01*
X171020833Y-66597002D01*
G37*
%TD.AperFunction*%
%TD*%
%TA.AperFunction,Conductor*%
%TO.N,+3.3V*%
G36*
X166553690Y-64121176D02*
G01*
X166554699Y-64121774D01*
X166557612Y-64124218D01*
X166927857Y-64555515D01*
X166930097Y-64559492D01*
X166930799Y-64561634D01*
X166930461Y-64569825D01*
X166930016Y-64570880D01*
X166928017Y-64574065D01*
X166606289Y-64939473D01*
X166602662Y-64942245D01*
X166600243Y-64943432D01*
X166592845Y-64944411D01*
X166592369Y-64944318D01*
X166589547Y-64943381D01*
X166018731Y-64669193D01*
X166015081Y-64666452D01*
X166012984Y-64664110D01*
X166010000Y-64656305D01*
X166010000Y-64473683D01*
X166010889Y-64469209D01*
X166012208Y-64466023D01*
X166016649Y-64460687D01*
X166539166Y-64121829D01*
X166543401Y-64120142D01*
X166545604Y-64119735D01*
X166553690Y-64121176D01*
G37*
%TD.AperFunction*%
%TD*%
%TA.AperFunction,Conductor*%
%TO.N,/SWDIO*%
G36*
X170031724Y-75885337D02*
G01*
X170031751Y-75885355D01*
X170036715Y-75892702D01*
X170168120Y-76523087D01*
X170168292Y-76526790D01*
X170167891Y-76530334D01*
X170166895Y-76533908D01*
X170124980Y-76625042D01*
X170097042Y-76692493D01*
X170095962Y-76694514D01*
X170094705Y-76696396D01*
X170093249Y-76698171D01*
X170034918Y-76756502D01*
X170031126Y-76759037D01*
X170029481Y-76759719D01*
X170020526Y-76759721D01*
X170018874Y-76759037D01*
X170015081Y-76756502D01*
X169905197Y-76646618D01*
X169902661Y-76642823D01*
X169902178Y-76641656D01*
X169902179Y-76632702D01*
X169908509Y-76626373D01*
X169909684Y-76625887D01*
X169914152Y-76625000D01*
X169924999Y-76625000D01*
X169925000Y-76625000D01*
X169883100Y-76533903D01*
X169882106Y-76530331D01*
X169881706Y-76526790D01*
X169881878Y-76523089D01*
X170013072Y-75893718D01*
X170014858Y-75889520D01*
X170015571Y-75888474D01*
X170023066Y-75883575D01*
X170031724Y-75885337D01*
G37*
%TD.AperFunction*%
%TD*%
%TA.AperFunction,Conductor*%
%TO.N,+3.3V*%
G36*
X157494889Y-67347092D02*
G01*
X158069058Y-67671641D01*
X158074573Y-67678694D01*
X158075000Y-67681825D01*
X158075000Y-67868174D01*
X158071573Y-67876447D01*
X158069057Y-67878359D01*
X157494890Y-68202906D01*
X157486002Y-68203994D01*
X157479903Y-68199911D01*
X157154597Y-67782188D01*
X157152218Y-67773556D01*
X157154597Y-67767812D01*
X157479904Y-67350087D01*
X157487689Y-67345667D01*
X157494889Y-67347092D01*
G37*
%TD.AperFunction*%
%TD*%
%TA.AperFunction,Conductor*%
%TO.N,/NRST*%
G36*
X179795196Y-63900891D02*
G01*
X179798199Y-63902135D01*
X179803999Y-63907353D01*
X180079291Y-64413382D01*
X180080648Y-64417742D01*
X180080921Y-64420322D01*
X180079217Y-64427739D01*
X180078880Y-64428280D01*
X180076853Y-64430721D01*
X179709619Y-64767185D01*
X179705719Y-64769551D01*
X179703767Y-64770262D01*
X179695288Y-64770079D01*
X179694003Y-64769547D01*
X179690575Y-64767365D01*
X179323686Y-64431216D01*
X179320987Y-64427535D01*
X179319889Y-64425181D01*
X179319093Y-64417599D01*
X179319238Y-64416972D01*
X179320355Y-64414029D01*
X179595565Y-63908152D01*
X179598487Y-63904646D01*
X179601017Y-63902601D01*
X179608372Y-63900000D01*
X179790718Y-63900000D01*
X179795196Y-63900891D01*
G37*
%TD.AperFunction*%
%TD*%
%TA.AperFunction,Conductor*%
%TO.N,+3.3V*%
G36*
X164199696Y-64270807D02*
G01*
X164204456Y-64278392D01*
X164204166Y-64283572D01*
X164041088Y-64851828D01*
X164035512Y-64858835D01*
X164029284Y-64860288D01*
X163773094Y-64848058D01*
X163765379Y-64844644D01*
X163634661Y-64713926D01*
X163631234Y-64705653D01*
X163633894Y-64698226D01*
X163951158Y-64312309D01*
X163958240Y-64308204D01*
X164190967Y-64268809D01*
X164199696Y-64270807D01*
G37*
%TD.AperFunction*%
%TD*%
%TA.AperFunction,Conductor*%
%TO.N,/OSC+*%
G36*
X173117797Y-66625891D02*
G01*
X173120129Y-66626857D01*
X173125893Y-66632011D01*
X173126253Y-66632663D01*
X173127424Y-66635743D01*
X173168454Y-66817594D01*
X173168741Y-66820074D01*
X173168761Y-66822530D01*
X173168515Y-66825013D01*
X173036928Y-67456274D01*
X173035144Y-67460472D01*
X173034435Y-67461513D01*
X173026946Y-67466422D01*
X173018179Y-67464597D01*
X173018143Y-67464572D01*
X173018032Y-67464495D01*
X173018005Y-67464476D01*
X173013284Y-67457296D01*
X172881483Y-66825013D01*
X172881237Y-66822530D01*
X172881257Y-66820067D01*
X172881543Y-66817601D01*
X172922429Y-66636393D01*
X172924283Y-66632224D01*
X172925740Y-66630160D01*
X172932053Y-66625666D01*
X172932770Y-66625459D01*
X172936015Y-66625000D01*
X173113319Y-66625000D01*
X173117797Y-66625891D01*
G37*
%TD.AperFunction*%
%TD*%
%TA.AperFunction,Conductor*%
%TO.N,GND*%
G36*
X172922433Y-61462500D02*
G01*
X172922433Y-61662500D01*
X172439805Y-61839664D01*
X172321433Y-61562500D01*
X172439805Y-61285336D01*
X172922433Y-61462500D01*
G37*
%TD.AperFunction*%
%TD*%
%TA.AperFunction,Conductor*%
%TO.N,GND*%
G36*
X172328567Y-61562500D02*
G01*
X172210195Y-61839664D01*
X171727567Y-61662500D01*
X171727567Y-61462500D01*
X172210195Y-61285336D01*
X172328567Y-61562500D01*
G37*
%TD.AperFunction*%
%TD*%
%TA.AperFunction,Conductor*%
%TO.N,GND*%
G36*
X172327567Y-61662500D02*
G01*
X172027567Y-61601658D01*
X172327567Y-61462500D01*
X172327567Y-61662500D01*
G37*
%TD.AperFunction*%
%TD*%
%TA.AperFunction,Conductor*%
%TO.N,/OSC+*%
G36*
X171202034Y-63303887D02*
G01*
X171202491Y-63304152D01*
X171204895Y-63306000D01*
X171333476Y-63434581D01*
X171336013Y-63438377D01*
X171337514Y-63442001D01*
X171338373Y-63447328D01*
X171300922Y-63961239D01*
X171299707Y-63965643D01*
X171298722Y-63967603D01*
X171292620Y-63973210D01*
X171291477Y-63973668D01*
X171287693Y-63974493D01*
X170641235Y-64005912D01*
X170636718Y-64005239D01*
X170635734Y-64004886D01*
X170633856Y-64004213D01*
X170627226Y-63998195D01*
X170627222Y-63998187D01*
X170615776Y-63973896D01*
X170494491Y-63716500D01*
X170493388Y-63712071D01*
X170493290Y-63710018D01*
X170496011Y-63701945D01*
X170496927Y-63700852D01*
X170500075Y-63698220D01*
X171187705Y-63304196D01*
X171192025Y-63302743D01*
X171194677Y-63302403D01*
X171202034Y-63303887D01*
G37*
%TD.AperFunction*%
%TD*%
%TA.AperFunction,Conductor*%
%TO.N,GND*%
G36*
X175852164Y-61677305D02*
G01*
X175675000Y-62159933D01*
X175475000Y-62159933D01*
X175297836Y-61677305D01*
X175575000Y-61558933D01*
X175852164Y-61677305D01*
G37*
%TD.AperFunction*%
%TD*%
%TA.AperFunction,Conductor*%
%TO.N,GND*%
G36*
X178075000Y-63955656D02*
G01*
X177875000Y-63955656D01*
X177825000Y-63912500D01*
X177975000Y-63653692D01*
X178125000Y-63612500D01*
X178075000Y-63955656D01*
G37*
%TD.AperFunction*%
%TD*%
%TA.AperFunction,Conductor*%
%TO.N,+3.3V*%
G36*
X159940152Y-65845114D02*
G01*
X159940167Y-65845150D01*
X160055132Y-66124948D01*
X160055107Y-66133903D01*
X160049542Y-66139860D01*
X159501120Y-66414071D01*
X159492188Y-66414706D01*
X159487615Y-66411879D01*
X159223110Y-66147374D01*
X159219683Y-66139101D01*
X159223110Y-66130828D01*
X159226894Y-66128297D01*
X159924864Y-65838789D01*
X159933817Y-65838785D01*
X159940152Y-65845114D01*
G37*
%TD.AperFunction*%
%TD*%
%TA.AperFunction,Conductor*%
%TO.N,/SWCLK*%
G36*
X163918126Y-73771778D02*
G01*
X164355471Y-73799355D01*
X164363511Y-73803296D01*
X164366405Y-73810210D01*
X164407862Y-74398789D01*
X164405025Y-74407282D01*
X164399065Y-74410953D01*
X164148317Y-74474486D01*
X164139455Y-74473196D01*
X164135654Y-74469552D01*
X163776652Y-73920823D01*
X163774990Y-73912023D01*
X163778168Y-73906146D01*
X163909132Y-73775182D01*
X163917404Y-73771756D01*
X163918126Y-73771778D01*
G37*
%TD.AperFunction*%
%TD*%
%TA.AperFunction,Conductor*%
%TO.N,GND*%
G36*
X170277461Y-62015697D02*
G01*
X170417982Y-62289061D01*
X170276561Y-62430482D01*
X169800368Y-62087132D01*
X169922301Y-61934801D01*
X170277461Y-62015697D01*
G37*
%TD.AperFunction*%
%TD*%
%TA.AperFunction,Conductor*%
%TO.N,/OSC+*%
G36*
X172151453Y-62272818D02*
G01*
X172155845Y-62274549D01*
X172672978Y-62612499D01*
X172809064Y-62701432D01*
X172812323Y-62704624D01*
X172813329Y-62706096D01*
X172815167Y-62714860D01*
X172815166Y-62714867D01*
X172815076Y-62715344D01*
X172810175Y-62722839D01*
X172809979Y-62722969D01*
X172155910Y-63150406D01*
X172151678Y-63152109D01*
X172149928Y-63152439D01*
X172141163Y-63150605D01*
X172141161Y-63150603D01*
X172139757Y-63149644D01*
X172136473Y-63146245D01*
X172079930Y-63057010D01*
X171925000Y-62812500D01*
X171722564Y-63054461D01*
X171719008Y-63057323D01*
X171717431Y-63058147D01*
X171708512Y-63058941D01*
X171707235Y-63058540D01*
X171702465Y-63055650D01*
X171581364Y-62934549D01*
X171578827Y-62930751D01*
X171578146Y-62929106D01*
X171578143Y-62920161D01*
X171578826Y-62918510D01*
X171581358Y-62914719D01*
X171851836Y-62644240D01*
X171853600Y-62642793D01*
X171855485Y-62641534D01*
X171857494Y-62640461D01*
X171925000Y-62612500D01*
X172136436Y-62278812D01*
X172139581Y-62275512D01*
X172141042Y-62274483D01*
X172149775Y-62272526D01*
X172151453Y-62272818D01*
G37*
%TD.AperFunction*%
%TD*%
%TA.AperFunction,Conductor*%
%TO.N,/CAN+*%
G36*
X159059207Y-63008577D02*
G01*
X159576445Y-63177544D01*
X159899741Y-63283155D01*
X159903719Y-63285392D01*
X159904675Y-63286211D01*
X159908728Y-63294196D01*
X159905948Y-63302708D01*
X159905945Y-63302712D01*
X159905572Y-63303147D01*
X159900323Y-63306653D01*
X159059207Y-63581421D01*
X159054801Y-63581973D01*
X159050616Y-63581696D01*
X159046323Y-63580568D01*
X158668730Y-63399193D01*
X158665080Y-63396452D01*
X158662983Y-63394110D01*
X158659999Y-63386305D01*
X158659999Y-63204686D01*
X158660889Y-63200211D01*
X158661220Y-63199410D01*
X158662093Y-63197303D01*
X158667833Y-63191236D01*
X159046321Y-63009430D01*
X159050613Y-63008302D01*
X159054803Y-63008025D01*
X159059207Y-63008577D01*
G37*
%TD.AperFunction*%
%TD*%
%TA.AperFunction,Conductor*%
%TO.N,5V*%
G36*
X162089593Y-67148843D02*
G01*
X162097436Y-67153162D01*
X162100000Y-67160471D01*
X162100000Y-67639528D01*
X162096573Y-67647801D01*
X162089592Y-67651156D01*
X161653849Y-67699572D01*
X161646655Y-67698046D01*
X161564416Y-67650000D01*
X161153790Y-67410101D01*
X161148376Y-67402970D01*
X161149591Y-67394098D01*
X161153791Y-67389898D01*
X161646658Y-67101952D01*
X161653846Y-67100427D01*
X162089593Y-67148843D01*
G37*
%TD.AperFunction*%
%TD*%
%TA.AperFunction,Conductor*%
%TO.N,+3.3V*%
G36*
X181357902Y-64781240D02*
G01*
X181728029Y-65120355D01*
X181731814Y-65128471D01*
X181730403Y-65134573D01*
X181453323Y-65643891D01*
X181446359Y-65649521D01*
X181443045Y-65650000D01*
X181256955Y-65650000D01*
X181248682Y-65646573D01*
X181246677Y-65643891D01*
X180969596Y-65134573D01*
X180968653Y-65125668D01*
X180971968Y-65120357D01*
X181342097Y-64781240D01*
X181350511Y-64778179D01*
X181357902Y-64781240D01*
G37*
%TD.AperFunction*%
%TD*%
%TA.AperFunction,Conductor*%
%TO.N,/LED*%
G36*
X168014144Y-73904289D02*
G01*
X168058552Y-73913546D01*
X168065951Y-73918589D01*
X168067618Y-73927388D01*
X168062575Y-73934787D01*
X168058552Y-73936454D01*
X167425597Y-74068395D01*
X167417471Y-74067137D01*
X167342590Y-74025000D01*
X167342582Y-74024996D01*
X167342577Y-74024994D01*
X167274029Y-73996601D01*
X167270233Y-73994065D01*
X167197002Y-73920833D01*
X167193576Y-73912562D01*
X167197002Y-73904290D01*
X167315229Y-73786063D01*
X167323501Y-73782637D01*
X167331774Y-73786064D01*
X167334900Y-73791703D01*
X167342590Y-73825000D01*
X167342590Y-73824999D01*
X167342591Y-73825000D01*
X167368149Y-73810617D01*
X167417473Y-73782861D01*
X167425594Y-73781604D01*
X168014144Y-73904289D01*
G37*
%TD.AperFunction*%
%TD*%
%TA.AperFunction,Conductor*%
%TO.N,/SWDIO*%
G36*
X160782966Y-72080310D02*
G01*
X161069790Y-72271527D01*
X161074773Y-72278966D01*
X161075000Y-72281261D01*
X161075000Y-72468738D01*
X161071573Y-72477011D01*
X161069790Y-72478473D01*
X160782967Y-72669688D01*
X160774182Y-72671426D01*
X160768218Y-72668240D01*
X160568050Y-72468738D01*
X160482313Y-72383285D01*
X160478873Y-72375019D01*
X160482285Y-72366741D01*
X160768218Y-72081758D01*
X160776496Y-72078346D01*
X160782966Y-72080310D01*
G37*
%TD.AperFunction*%
%TD*%
%TA.AperFunction,Conductor*%
%TO.N,+3.3V*%
G36*
X154910688Y-68347299D02*
G01*
X155393263Y-68546224D01*
X155399606Y-68552545D01*
X155400500Y-68557341D01*
X155382332Y-69266162D01*
X155378694Y-69274344D01*
X155373543Y-69277195D01*
X154627768Y-69468458D01*
X154618902Y-69467194D01*
X154616588Y-69465398D01*
X154485472Y-69334282D01*
X154482045Y-69326009D01*
X154482980Y-69321426D01*
X154895467Y-68353529D01*
X154901863Y-68347263D01*
X154910688Y-68347299D01*
G37*
%TD.AperFunction*%
%TD*%
%TA.AperFunction,Conductor*%
%TO.N,/SWCLK*%
G36*
X164959573Y-73819596D02*
G01*
X165468891Y-74096677D01*
X165474521Y-74103640D01*
X165475000Y-74106954D01*
X165475000Y-74293045D01*
X165471573Y-74301318D01*
X165468891Y-74303323D01*
X164959573Y-74580403D01*
X164950668Y-74581346D01*
X164945355Y-74578029D01*
X164606240Y-74207902D01*
X164603179Y-74199489D01*
X164606240Y-74192097D01*
X164945357Y-73821969D01*
X164953471Y-73818185D01*
X164959573Y-73819596D01*
G37*
%TD.AperFunction*%
%TD*%
%TA.AperFunction,Conductor*%
%TO.N,/OSC-*%
G36*
X176667607Y-63710922D02*
G01*
X176668530Y-63711540D01*
X176671251Y-63714072D01*
X176835772Y-63925332D01*
X176993971Y-64128475D01*
X176996020Y-64132556D01*
X176996713Y-64135071D01*
X176996247Y-64142645D01*
X176996012Y-64143214D01*
X176994429Y-64145937D01*
X176671526Y-64560573D01*
X176668073Y-64563558D01*
X176666092Y-64564683D01*
X176658046Y-64565987D01*
X176656958Y-64565772D01*
X176653469Y-64564479D01*
X176082970Y-64242005D01*
X176079510Y-64239027D01*
X176077481Y-64236432D01*
X176075000Y-64229227D01*
X176075000Y-64046652D01*
X176075890Y-64042177D01*
X176076199Y-64041430D01*
X176077149Y-64039136D01*
X176082199Y-64033429D01*
X176653086Y-63710735D01*
X176657413Y-63709310D01*
X176659680Y-63709032D01*
X176667607Y-63710922D01*
G37*
%TD.AperFunction*%
%TD*%
%TA.AperFunction,Conductor*%
%TO.N,/SWCLK*%
G36*
X159660043Y-71551100D02*
G01*
X159664011Y-71552137D01*
X159667575Y-71553781D01*
X159670946Y-71556131D01*
X159800233Y-71685418D01*
X159802768Y-71689211D01*
X159803860Y-71691846D01*
X159804433Y-71699034D01*
X159804378Y-71699265D01*
X159803461Y-71701787D01*
X159529302Y-72250106D01*
X159526502Y-72253713D01*
X159524115Y-72255783D01*
X159516359Y-72258644D01*
X159123711Y-72255584D01*
X159119237Y-72254657D01*
X159117597Y-72253962D01*
X159111319Y-72247583D01*
X159111118Y-72247087D01*
X159111153Y-72238213D01*
X159333996Y-71700569D01*
X159340276Y-71685418D01*
X159400201Y-71540838D01*
X159402739Y-71537043D01*
X159404738Y-71535046D01*
X159411166Y-71531769D01*
X159411442Y-71531725D01*
X159414197Y-71531617D01*
X159660043Y-71551100D01*
G37*
%TD.AperFunction*%
%TD*%
%TA.AperFunction,Conductor*%
%TO.N,+3.3V*%
G36*
X156689802Y-67618604D02*
G01*
X157145661Y-67772588D01*
X157152403Y-67778483D01*
X157152735Y-67779216D01*
X157330311Y-68210230D01*
X157330294Y-68219185D01*
X157323950Y-68225505D01*
X157320479Y-68226345D01*
X156795711Y-68270710D01*
X156795711Y-68270711D01*
X156823890Y-68593602D01*
X156821195Y-68602142D01*
X156813251Y-68606275D01*
X156812234Y-68606319D01*
X156636700Y-68606319D01*
X156628427Y-68602892D01*
X156625000Y-68594619D01*
X156625000Y-68202325D01*
X156625891Y-68197848D01*
X156654288Y-68129291D01*
X156654287Y-68129291D01*
X156654289Y-68129289D01*
X156674372Y-67629218D01*
X156678129Y-67621092D01*
X156686533Y-67617999D01*
X156689802Y-67618604D01*
G37*
%TD.AperFunction*%
%TD*%
%TA.AperFunction,Conductor*%
%TO.N,5V*%
G36*
X165138945Y-67327601D02*
G01*
X165142372Y-67335874D01*
X165142367Y-67336205D01*
X165126083Y-67912384D01*
X165122424Y-67920557D01*
X165114057Y-67923748D01*
X165112545Y-67923607D01*
X165014616Y-67907987D01*
X165013199Y-67907670D01*
X164807704Y-67848047D01*
X164800713Y-67842450D01*
X164799264Y-67836810D01*
X164799264Y-67386700D01*
X164802691Y-67378427D01*
X164810964Y-67375000D01*
X164822674Y-67375000D01*
X164827151Y-67375891D01*
X165001776Y-67448223D01*
X165001777Y-67448223D01*
X165122399Y-67327601D01*
X165130672Y-67324174D01*
X165138945Y-67327601D01*
G37*
%TD.AperFunction*%
%TD*%
%TA.AperFunction,Conductor*%
%TO.N,/CAN-*%
G36*
X159576445Y-64447544D02*
G01*
X159901952Y-64553878D01*
X159908752Y-64559705D01*
X159909441Y-64568633D01*
X159903614Y-64575433D01*
X159901952Y-64576122D01*
X159057060Y-64852123D01*
X159048361Y-64851547D01*
X158666633Y-64668186D01*
X158660659Y-64661515D01*
X158659999Y-64657640D01*
X158659999Y-64472359D01*
X158663426Y-64464086D01*
X158666631Y-64461814D01*
X159048361Y-64278451D01*
X159057059Y-64277876D01*
X159576445Y-64447544D01*
G37*
%TD.AperFunction*%
%TD*%
%TA.AperFunction,Conductor*%
%TO.N,/USART1_TX*%
G36*
X171117797Y-74950891D02*
G01*
X171120129Y-74951857D01*
X171125893Y-74957011D01*
X171126253Y-74957663D01*
X171127424Y-74960743D01*
X171168454Y-75142594D01*
X171168741Y-75145074D01*
X171168761Y-75147530D01*
X171168515Y-75150013D01*
X171036928Y-75781274D01*
X171035144Y-75785472D01*
X171034435Y-75786513D01*
X171026946Y-75791422D01*
X171018179Y-75789597D01*
X171018143Y-75789572D01*
X171018032Y-75789495D01*
X171018005Y-75789476D01*
X171013284Y-75782296D01*
X170881483Y-75150013D01*
X170881237Y-75147530D01*
X170881257Y-75145067D01*
X170881543Y-75142601D01*
X170922429Y-74961393D01*
X170924283Y-74957224D01*
X170925740Y-74955160D01*
X170932053Y-74950666D01*
X170932770Y-74950459D01*
X170936015Y-74950000D01*
X171113319Y-74950000D01*
X171117797Y-74950891D01*
G37*
%TD.AperFunction*%
%TD*%
%TA.AperFunction,Conductor*%
%TO.N,GND*%
G36*
X177128567Y-65312500D02*
G01*
X176942372Y-65550506D01*
X176750000Y-65412500D01*
X176663427Y-65540494D01*
X176522006Y-65399073D01*
X176679289Y-65241789D01*
X176750000Y-65212500D01*
X176942372Y-65074494D01*
X177128567Y-65312500D01*
G37*
%TD.AperFunction*%
%TD*%
%TA.AperFunction,Conductor*%
%TO.N,/NRST*%
G36*
X180281993Y-64052797D02*
G01*
X180289825Y-64056216D01*
X180417741Y-64184132D01*
X180420278Y-64187929D01*
X180421430Y-64190711D01*
X180421429Y-64199666D01*
X180421354Y-64199843D01*
X180105494Y-64928016D01*
X180102896Y-64931768D01*
X180101571Y-64933050D01*
X180093352Y-64936342D01*
X180091651Y-64936330D01*
X180087280Y-64935449D01*
X180078339Y-64931768D01*
X179707308Y-64779007D01*
X179703506Y-64776478D01*
X179701061Y-64774043D01*
X179697821Y-64767927D01*
X179611583Y-64311993D01*
X179611624Y-64307436D01*
X179612106Y-64305130D01*
X179616351Y-64298305D01*
X179617147Y-64297682D01*
X179620279Y-64295933D01*
X180274379Y-64053401D01*
X180278881Y-64052680D01*
X180281993Y-64052797D01*
G37*
%TD.AperFunction*%
%TD*%
%TA.AperFunction,Conductor*%
%TO.N,+3.3V*%
G36*
X160821636Y-65548452D02*
G01*
X161203365Y-65731813D01*
X161209339Y-65738484D01*
X161209999Y-65742359D01*
X161209999Y-65927640D01*
X161206572Y-65935913D01*
X161203365Y-65938186D01*
X160821636Y-66121547D01*
X160812937Y-66122123D01*
X160208092Y-65924538D01*
X159968044Y-65846121D01*
X159961245Y-65840295D01*
X159960556Y-65831367D01*
X159966383Y-65824567D01*
X159968043Y-65823878D01*
X160812938Y-65547876D01*
X160821636Y-65548452D01*
G37*
%TD.AperFunction*%
%TD*%
%TA.AperFunction,Conductor*%
%TO.N,GND*%
G36*
X176643159Y-65560762D02*
G01*
X176427164Y-66027305D01*
X176147478Y-65915022D01*
X176035195Y-65635336D01*
X176501738Y-65419341D01*
X176643159Y-65560762D01*
G37*
%TD.AperFunction*%
%TD*%
%TA.AperFunction,Conductor*%
%TO.N,GND*%
G36*
X170175000Y-64737500D02*
G01*
X169937500Y-64747321D01*
X169700000Y-64493830D01*
X169837500Y-64146321D01*
X170037500Y-64146321D01*
X170175000Y-64737500D01*
G37*
%TD.AperFunction*%
%TD*%
%TA.AperFunction,Conductor*%
%TO.N,GND*%
G36*
X170108925Y-61975187D02*
G01*
X170751516Y-62135042D01*
X170758718Y-62140365D01*
X170760328Y-62147623D01*
X170701344Y-62707160D01*
X170697068Y-62715028D01*
X170695392Y-62716160D01*
X170377656Y-62892751D01*
X170368760Y-62893774D01*
X170361745Y-62888208D01*
X170361584Y-62887907D01*
X169965031Y-62122614D01*
X169964267Y-62113692D01*
X169967144Y-62108960D01*
X170097836Y-61978268D01*
X170106108Y-61974842D01*
X170108925Y-61975187D01*
G37*
%TD.AperFunction*%
%TD*%
%TA.AperFunction,Conductor*%
%TO.N,/CAN_TX*%
G36*
X165771636Y-61738452D02*
G01*
X166153365Y-61921813D01*
X166159339Y-61928484D01*
X166159999Y-61932359D01*
X166159999Y-62117640D01*
X166156572Y-62125913D01*
X166153365Y-62128186D01*
X165771636Y-62311547D01*
X165762937Y-62312123D01*
X165158092Y-62114538D01*
X164918044Y-62036121D01*
X164911245Y-62030295D01*
X164910556Y-62021367D01*
X164916383Y-62014567D01*
X164918043Y-62013878D01*
X165762938Y-61737876D01*
X165771636Y-61738452D01*
G37*
%TD.AperFunction*%
%TD*%
%TA.AperFunction,Conductor*%
%TO.N,/NRST*%
G36*
X174034787Y-67562424D02*
G01*
X174036454Y-67566447D01*
X174168395Y-68199402D01*
X174167137Y-68207528D01*
X174124999Y-68282408D01*
X174125000Y-68282409D01*
X174125000Y-68282410D01*
X174158295Y-68290099D01*
X174165584Y-68295298D01*
X174167062Y-68304130D01*
X174163935Y-68309771D01*
X174045710Y-68427996D01*
X174037437Y-68431423D01*
X174029165Y-68427996D01*
X173955933Y-68354765D01*
X173953398Y-68350970D01*
X173925005Y-68282422D01*
X173925004Y-68282421D01*
X173925000Y-68282410D01*
X173882861Y-68207526D01*
X173881604Y-68199405D01*
X174013546Y-67566446D01*
X174018589Y-67559048D01*
X174027388Y-67557381D01*
X174034787Y-67562424D01*
G37*
%TD.AperFunction*%
%TD*%
%TA.AperFunction,Conductor*%
%TO.N,5V*%
G36*
X163851975Y-67146255D02*
G01*
X164492195Y-67372244D01*
X164498855Y-67378229D01*
X164500000Y-67383277D01*
X164500000Y-67866722D01*
X164496573Y-67874995D01*
X164492194Y-67877755D01*
X163851978Y-68103743D01*
X163843036Y-68103265D01*
X163840552Y-68101663D01*
X163284641Y-67633953D01*
X163280516Y-67626004D01*
X163283220Y-67617468D01*
X163284641Y-67616047D01*
X163840553Y-67148335D01*
X163849088Y-67145632D01*
X163851975Y-67146255D01*
G37*
%TD.AperFunction*%
%TD*%
%TA.AperFunction,Conductor*%
%TO.N,/CAN_RX*%
G36*
X167427671Y-69282037D02*
G01*
X167632144Y-69324660D01*
X168014144Y-69404289D01*
X168056274Y-69413071D01*
X168060472Y-69414855D01*
X168061513Y-69415564D01*
X168066422Y-69423053D01*
X168064597Y-69431820D01*
X168064495Y-69431967D01*
X168064476Y-69431994D01*
X168057296Y-69436715D01*
X167427674Y-69567961D01*
X167423496Y-69568069D01*
X167419568Y-69567461D01*
X167415620Y-69566095D01*
X167342598Y-69525003D01*
X167342583Y-69524996D01*
X167342558Y-69524985D01*
X167342487Y-69524956D01*
X167275095Y-69497042D01*
X167273074Y-69495962D01*
X167271192Y-69494705D01*
X167269417Y-69493249D01*
X167198647Y-69422478D01*
X167196112Y-69418685D01*
X167196072Y-69418589D01*
X167195430Y-69417040D01*
X167195429Y-69408087D01*
X167196114Y-69406433D01*
X167198645Y-69402646D01*
X167313585Y-69287706D01*
X167317380Y-69285171D01*
X167318057Y-69284891D01*
X167319028Y-69284490D01*
X167327846Y-69284438D01*
X167327866Y-69284446D01*
X167333752Y-69289633D01*
X167334101Y-69290262D01*
X167335269Y-69293304D01*
X167342590Y-69325000D01*
X167342632Y-69325183D01*
X167343515Y-69325193D01*
X167344944Y-69324731D01*
X167345564Y-69324660D01*
X167346017Y-69323568D01*
X167348549Y-69321646D01*
X167368149Y-69310617D01*
X167415624Y-69283901D01*
X167419569Y-69282536D01*
X167423494Y-69281929D01*
X167427671Y-69282037D01*
G37*
%TD.AperFunction*%
%TD*%
%TA.AperFunction,Conductor*%
%TO.N,/OSC-*%
G36*
X173592677Y-66625889D02*
G01*
X173595209Y-66626938D01*
X173600781Y-66631756D01*
X173600995Y-66632115D01*
X173602167Y-66634795D01*
X173648035Y-66790250D01*
X173648503Y-66793086D01*
X173648617Y-66795889D01*
X173648380Y-66798753D01*
X173511822Y-67453357D01*
X173510039Y-67457554D01*
X173509332Y-67458592D01*
X173501842Y-67463501D01*
X173493076Y-67461676D01*
X173488167Y-67454186D01*
X173488162Y-67454160D01*
X173375799Y-66854265D01*
X173375649Y-66853192D01*
X173375549Y-66852114D01*
X173375499Y-66851033D01*
X173375499Y-66846318D01*
X173375515Y-66845699D01*
X173375552Y-66845019D01*
X173375598Y-66844453D01*
X173397900Y-66637755D01*
X173399263Y-66633407D01*
X173400296Y-66631516D01*
X173406673Y-66626095D01*
X173407903Y-66625662D01*
X173411783Y-66625000D01*
X173588203Y-66625000D01*
X173592677Y-66625889D01*
G37*
%TD.AperFunction*%
%TD*%
%TA.AperFunction,Conductor*%
%TO.N,+3.3V*%
G36*
X169263188Y-64172636D02*
G01*
X169267398Y-64174386D01*
X169269394Y-64175723D01*
X169274104Y-64182129D01*
X169274368Y-64183023D01*
X169274846Y-64186493D01*
X169270709Y-64496786D01*
X169298667Y-64564280D01*
X169299333Y-64566472D01*
X169299775Y-64568692D01*
X169300000Y-64570977D01*
X169300000Y-64766592D01*
X169299109Y-64771071D01*
X169298427Y-64772717D01*
X169292099Y-64779046D01*
X169292097Y-64779047D01*
X169290452Y-64779728D01*
X169285973Y-64780620D01*
X169116678Y-64780620D01*
X169112201Y-64779729D01*
X169110552Y-64779046D01*
X169104223Y-64772715D01*
X169103861Y-64771841D01*
X169103210Y-64765010D01*
X169127368Y-64647552D01*
X169127629Y-64647166D01*
X169129262Y-64638352D01*
X169129289Y-64638208D01*
X168480027Y-64389063D01*
X168476165Y-64386627D01*
X168474872Y-64385400D01*
X168471230Y-64377220D01*
X168471208Y-64376376D01*
X168473307Y-64369381D01*
X168684834Y-64066222D01*
X168688115Y-64063070D01*
X168690716Y-64061408D01*
X168699308Y-64059795D01*
X169263188Y-64172636D01*
G37*
%TD.AperFunction*%
%TD*%
%TA.AperFunction,Conductor*%
%TO.N,5V*%
G36*
X162802897Y-67126673D02*
G01*
X163260023Y-67390770D01*
X163265472Y-67397875D01*
X163264301Y-67406753D01*
X163260837Y-67410514D01*
X162560645Y-67896066D01*
X162551894Y-67897965D01*
X162548787Y-67896937D01*
X162056509Y-67653222D01*
X162050615Y-67646481D01*
X162050000Y-67642737D01*
X162050000Y-67161317D01*
X162053427Y-67153044D01*
X162061310Y-67149623D01*
X162796656Y-67125111D01*
X162802897Y-67126673D01*
G37*
%TD.AperFunction*%
%TD*%
%TA.AperFunction,Conductor*%
%TO.N,+3.3V*%
G36*
X172031818Y-67560400D02*
G01*
X172031881Y-67560443D01*
X172031967Y-67560503D01*
X172031994Y-67560522D01*
X172036715Y-67567702D01*
X172168515Y-68199985D01*
X172168761Y-68202468D01*
X172168741Y-68204924D01*
X172168454Y-68207404D01*
X172127571Y-68388603D01*
X172125716Y-68392775D01*
X172124259Y-68394839D01*
X172117965Y-68399328D01*
X172117249Y-68399536D01*
X172113985Y-68400000D01*
X171936681Y-68400000D01*
X171932201Y-68399108D01*
X171929868Y-68398141D01*
X171924106Y-68392988D01*
X171923746Y-68392336D01*
X171922576Y-68389260D01*
X171881543Y-68207398D01*
X171881257Y-68204929D01*
X171881237Y-68202464D01*
X171881483Y-68199985D01*
X172013071Y-67568724D01*
X172014855Y-67564526D01*
X172015565Y-67563484D01*
X172023053Y-67558576D01*
X172031818Y-67560400D01*
G37*
%TD.AperFunction*%
%TD*%
%TA.AperFunction,Conductor*%
%TO.N,GND*%
G36*
X175578567Y-61562500D02*
G01*
X175460195Y-61839664D01*
X174977567Y-61662500D01*
X174977567Y-61462500D01*
X175460195Y-61285336D01*
X175578567Y-61562500D01*
G37*
%TD.AperFunction*%
%TD*%
%TA.AperFunction,Conductor*%
%TO.N,GND*%
G36*
X182497280Y-60900618D02*
G01*
X182502692Y-60900854D01*
X182508085Y-60901207D01*
X182535721Y-60903625D01*
X182657371Y-60914268D01*
X182668081Y-60915678D01*
X182678700Y-60917550D01*
X182689252Y-60919888D01*
X182801188Y-60949882D01*
X182826153Y-60956571D01*
X182836446Y-60959816D01*
X182846604Y-60963514D01*
X182856590Y-60967651D01*
X182985004Y-61027532D01*
X182994597Y-61032526D01*
X183003947Y-61037924D01*
X183013058Y-61043727D01*
X183129155Y-61125019D01*
X183137728Y-61131598D01*
X183145993Y-61138533D01*
X183153969Y-61145842D01*
X183254156Y-61246029D01*
X183261465Y-61254005D01*
X183268400Y-61262270D01*
X183274981Y-61270846D01*
X183356267Y-61386934D01*
X183362074Y-61396051D01*
X183367472Y-61405401D01*
X183372466Y-61414994D01*
X183432347Y-61543408D01*
X183436485Y-61553396D01*
X183440175Y-61563534D01*
X183440177Y-61563538D01*
X183443432Y-61573862D01*
X183480106Y-61710734D01*
X183482448Y-61721297D01*
X183484320Y-61731915D01*
X183485731Y-61742637D01*
X183498791Y-61891906D01*
X183499144Y-61897284D01*
X183499381Y-61902691D01*
X183499500Y-61908121D01*
X183499500Y-63938058D01*
X183494475Y-63972999D01*
X183490564Y-63986316D01*
X183452787Y-64045092D01*
X183389244Y-64074112D01*
X183383724Y-64074906D01*
X183364611Y-64072671D01*
X183364611Y-64075594D01*
X183364610Y-64075594D01*
X183324636Y-64067996D01*
X183320576Y-64067522D01*
X183319122Y-64066948D01*
X183319119Y-64066948D01*
X183300590Y-64059641D01*
X183300589Y-64059640D01*
X183300586Y-64059640D01*
X183216145Y-64049500D01*
X183216144Y-64049500D01*
X183216138Y-64049500D01*
X183206966Y-64049500D01*
X183160695Y-64040544D01*
X182466964Y-63761524D01*
X182425554Y-63734161D01*
X182370915Y-63679522D01*
X182370913Y-63679520D01*
X182370910Y-63679518D01*
X182370906Y-63679515D01*
X182313503Y-63646372D01*
X182313500Y-63646372D01*
X182279589Y-63626793D01*
X182228657Y-63613146D01*
X182228656Y-63613145D01*
X182177730Y-63599500D01*
X182177727Y-63599500D01*
X182177726Y-63599500D01*
X180535339Y-63599500D01*
X180535323Y-63599499D01*
X180527727Y-63599499D01*
X180422274Y-63599499D01*
X180422273Y-63599499D01*
X180321413Y-63626524D01*
X180320480Y-63626765D01*
X180320411Y-63626793D01*
X180318305Y-63628008D01*
X180318304Y-63628009D01*
X180301937Y-63637459D01*
X180269174Y-63650575D01*
X180255688Y-63653846D01*
X180185898Y-63650524D01*
X180128985Y-63609999D01*
X180127973Y-63608711D01*
X180103685Y-63555511D01*
X180102735Y-63550585D01*
X180100500Y-63527146D01*
X180100500Y-63525769D01*
X180105522Y-63490836D01*
X180112934Y-63465591D01*
X180144228Y-63412848D01*
X180221789Y-63335289D01*
X180309394Y-63204179D01*
X180313414Y-63194475D01*
X180352242Y-63100733D01*
X180369737Y-63058497D01*
X180400500Y-62903842D01*
X180400500Y-62746158D01*
X180400500Y-62746155D01*
X180400500Y-62745971D01*
X180400064Y-62743966D01*
X180390792Y-62697353D01*
X180369739Y-62591510D01*
X180369736Y-62591501D01*
X180316021Y-62461819D01*
X180309397Y-62445827D01*
X180309390Y-62445814D01*
X180221789Y-62314711D01*
X180221786Y-62314707D01*
X180221781Y-62314701D01*
X180110297Y-62203217D01*
X180110291Y-62203212D01*
X180110290Y-62203211D01*
X179979191Y-62115613D01*
X179979190Y-62115612D01*
X179979185Y-62115609D01*
X179979172Y-62115602D01*
X179979165Y-62115598D01*
X179833502Y-62055264D01*
X179833471Y-62055257D01*
X179678847Y-62024500D01*
X179678845Y-62024500D01*
X179678842Y-62024500D01*
X179521158Y-62024500D01*
X179521155Y-62024500D01*
X179521153Y-62024500D01*
X179366527Y-62055257D01*
X179366496Y-62055264D01*
X179220833Y-62115598D01*
X179220824Y-62115603D01*
X179220807Y-62115613D01*
X179089708Y-62203211D01*
X179089707Y-62203212D01*
X179089701Y-62203217D01*
X178978217Y-62314701D01*
X178978212Y-62314707D01*
X178978211Y-62314708D01*
X178890613Y-62445807D01*
X178890603Y-62445824D01*
X178890598Y-62445833D01*
X178830264Y-62591496D01*
X178830257Y-62591527D01*
X178799500Y-62746150D01*
X178799500Y-62746153D01*
X178799500Y-62903846D01*
X178799500Y-62903848D01*
X178799499Y-62903848D01*
X178830257Y-63058471D01*
X178830264Y-63058502D01*
X178890598Y-63204165D01*
X178890603Y-63204174D01*
X178890613Y-63204191D01*
X178978211Y-63335290D01*
X178978212Y-63335291D01*
X178978217Y-63335297D01*
X179089707Y-63446787D01*
X179181231Y-63507941D01*
X179181230Y-63507941D01*
X179222267Y-63535360D01*
X179231167Y-63541897D01*
X179241953Y-63550588D01*
X179249000Y-63556266D01*
X179288848Y-63613645D01*
X179293149Y-63626563D01*
X179299500Y-63665736D01*
X179299500Y-63781540D01*
X179284424Y-63840798D01*
X179099033Y-64181573D01*
X179075598Y-64212135D01*
X178884741Y-64393789D01*
X178861255Y-64411354D01*
X178813095Y-64439161D01*
X178809541Y-64441137D01*
X178794169Y-64449352D01*
X178788420Y-64453192D01*
X178787178Y-64454065D01*
X178786503Y-64454514D01*
X178785148Y-64455625D01*
X178778728Y-64461442D01*
X178744046Y-64489900D01*
X178744020Y-64489924D01*
X178660355Y-64573589D01*
X178655377Y-64578684D01*
X178649432Y-64587808D01*
X178633225Y-64607789D01*
X175699788Y-67541228D01*
X175671538Y-67562377D01*
X175661611Y-67567798D01*
X175593338Y-67582652D01*
X175527873Y-67558238D01*
X175486000Y-67502306D01*
X175483313Y-67495100D01*
X175475500Y-67451780D01*
X175475500Y-66814369D01*
X175475500Y-66814367D01*
X175475500Y-66814364D01*
X175464866Y-66741375D01*
X175462518Y-66736572D01*
X175409827Y-66628789D01*
X175409825Y-66628787D01*
X175409825Y-66628786D01*
X175321212Y-66540173D01*
X175209078Y-66485355D01*
X175209023Y-66485318D01*
X175208657Y-66485141D01*
X175204649Y-66484194D01*
X175199737Y-66483839D01*
X175193468Y-66482925D01*
X175135636Y-66474500D01*
X175135631Y-66474500D01*
X175095157Y-66474500D01*
X175060230Y-66469479D01*
X175057498Y-66468677D01*
X174998717Y-66430907D01*
X174969688Y-66367353D01*
X174979627Y-66298194D01*
X174987274Y-66283977D01*
X175014548Y-66240340D01*
X175015492Y-66239007D01*
X175018931Y-66233532D01*
X175018933Y-66233531D01*
X175021791Y-66228980D01*
X175042508Y-66203992D01*
X175065697Y-66182504D01*
X175068856Y-66180268D01*
X175069749Y-66178911D01*
X175072499Y-66177689D01*
X175092180Y-66163755D01*
X177800000Y-64737500D01*
X178225000Y-64512500D01*
X178229750Y-63904467D01*
X178250000Y-61312526D01*
X178250000Y-61312498D01*
X169625001Y-61337498D01*
X169624999Y-61337499D01*
X169624998Y-61337502D01*
X169596234Y-63213938D01*
X169590676Y-63248793D01*
X169586865Y-63261072D01*
X169548194Y-63319264D01*
X169484200Y-63347310D01*
X169419748Y-63338357D01*
X169411103Y-63334666D01*
X169384868Y-63319429D01*
X169316732Y-63267760D01*
X169313527Y-63264965D01*
X169309976Y-63262636D01*
X169309974Y-63262635D01*
X169186487Y-63213938D01*
X169175586Y-63209639D01*
X169130107Y-63204179D01*
X169091144Y-63199500D01*
X169091139Y-63199500D01*
X168567330Y-63199500D01*
X168532389Y-63194475D01*
X168517390Y-63190070D01*
X168458644Y-63152327D01*
X168457457Y-63150958D01*
X168429977Y-63096083D01*
X168428332Y-63088521D01*
X168425500Y-63062168D01*
X168425500Y-62778579D01*
X168425500Y-62778578D01*
X168425499Y-62778572D01*
X168423812Y-62772276D01*
X168423811Y-62772274D01*
X168422190Y-62766223D01*
X168422190Y-62766222D01*
X168422187Y-62766213D01*
X168418434Y-62752205D01*
X168418434Y-62752206D01*
X168398207Y-62676716D01*
X168345480Y-62585391D01*
X167464609Y-61704520D01*
X167453815Y-61698288D01*
X167418946Y-61678155D01*
X167418946Y-61678156D01*
X167373285Y-61651793D01*
X167322353Y-61638146D01*
X167322352Y-61638145D01*
X167271426Y-61624500D01*
X167271423Y-61624500D01*
X167271422Y-61624500D01*
X166268213Y-61624500D01*
X166214523Y-61612274D01*
X165903912Y-61463074D01*
X165903836Y-61463038D01*
X165900579Y-61461497D01*
X165900569Y-61461493D01*
X165874682Y-61454857D01*
X165864523Y-61451784D01*
X165794704Y-61427354D01*
X165794701Y-61427353D01*
X165787091Y-61426639D01*
X165764269Y-61424500D01*
X165764265Y-61424500D01*
X165764263Y-61424500D01*
X164005733Y-61424500D01*
X164005729Y-61424500D01*
X163987073Y-61426249D01*
X163981068Y-61426812D01*
X163977498Y-61426978D01*
X163975296Y-61427353D01*
X163847117Y-61472206D01*
X163737848Y-61552849D01*
X163657205Y-61662118D01*
X163612352Y-61790297D01*
X163611977Y-61792499D01*
X163611811Y-61796069D01*
X163609499Y-61820730D01*
X163609499Y-62229265D01*
X163611811Y-62253929D01*
X163611977Y-62257499D01*
X163612352Y-62259699D01*
X163612352Y-62259701D01*
X163657205Y-62387880D01*
X163657206Y-62387882D01*
X163737849Y-62497150D01*
X163847117Y-62577793D01*
X163868831Y-62585391D01*
X163975298Y-62622646D01*
X163975302Y-62622647D01*
X163993741Y-62624375D01*
X164005729Y-62625500D01*
X164005733Y-62625500D01*
X164005738Y-62625500D01*
X165764269Y-62625500D01*
X165764270Y-62625500D01*
X165788919Y-62623188D01*
X165792497Y-62623020D01*
X165794701Y-62622646D01*
X165858789Y-62600219D01*
X165868683Y-62596756D01*
X165877383Y-62594066D01*
X165903912Y-62586925D01*
X166214521Y-62437725D01*
X166268211Y-62425500D01*
X166983611Y-62425500D01*
X167018543Y-62430521D01*
X167043787Y-62437934D01*
X167096533Y-62469230D01*
X167575573Y-62948270D01*
X167596723Y-62976522D01*
X167609331Y-62999611D01*
X167624500Y-63059040D01*
X167624500Y-63698768D01*
X167619475Y-63733709D01*
X167615564Y-63747026D01*
X167577787Y-63805802D01*
X167514229Y-63834824D01*
X167512246Y-63835109D01*
X167454727Y-63829782D01*
X167426486Y-63820190D01*
X167420874Y-63818132D01*
X167310588Y-63774640D01*
X167267242Y-63769435D01*
X167267242Y-63769434D01*
X167239476Y-63766100D01*
X167226144Y-63764500D01*
X167226140Y-63764500D01*
X166643860Y-63764500D01*
X166643856Y-63764500D01*
X166633245Y-63765774D01*
X166605839Y-63769064D01*
X166605840Y-63769065D01*
X166559411Y-63774640D01*
X166559407Y-63774641D01*
X166425026Y-63827634D01*
X166425021Y-63827637D01*
X166388139Y-63855605D01*
X166375506Y-63864018D01*
X166372948Y-63865503D01*
X166109907Y-64036088D01*
X166042950Y-64056049D01*
X165988749Y-64043824D01*
X165905955Y-64004055D01*
X165905952Y-64004053D01*
X165905946Y-64004051D01*
X165881316Y-63994992D01*
X165851348Y-63983969D01*
X165849009Y-63983354D01*
X165847056Y-63982841D01*
X165845262Y-63982548D01*
X165842622Y-63982118D01*
X165821640Y-63976779D01*
X165794703Y-63967354D01*
X165794701Y-63967353D01*
X165787091Y-63966639D01*
X165764269Y-63964500D01*
X165764265Y-63964500D01*
X165764263Y-63964500D01*
X164005733Y-63964500D01*
X164005729Y-63964500D01*
X163987073Y-63966249D01*
X163981068Y-63966812D01*
X163977498Y-63966978D01*
X163975296Y-63967353D01*
X163847116Y-64012206D01*
X163806550Y-64042144D01*
X163802285Y-64044942D01*
X163797951Y-64048002D01*
X163796761Y-64049013D01*
X163790157Y-64054244D01*
X163737847Y-64092851D01*
X163734144Y-64097869D01*
X163718890Y-64114202D01*
X163719049Y-64114358D01*
X163715161Y-64118307D01*
X163397909Y-64504211D01*
X163397904Y-64504217D01*
X163397802Y-64504397D01*
X163397690Y-64504594D01*
X163397235Y-64505192D01*
X163394884Y-64508614D01*
X163394717Y-64508499D01*
X163377524Y-64531080D01*
X162523033Y-65385573D01*
X162494782Y-65406722D01*
X162471694Y-65419330D01*
X162412264Y-65434500D01*
X161318213Y-65434500D01*
X161264523Y-65422274D01*
X161258958Y-65419601D01*
X161168952Y-65376367D01*
X161024816Y-65307132D01*
X160972910Y-65260361D01*
X160954529Y-65192952D01*
X160969257Y-65136701D01*
X160970510Y-65134367D01*
X161006125Y-65093257D01*
X161012945Y-65088224D01*
X161082149Y-65037150D01*
X161162792Y-64927882D01*
X161193937Y-64838876D01*
X161198968Y-64824499D01*
X161198968Y-64824497D01*
X161207645Y-64799701D01*
X161207645Y-64799699D01*
X161207645Y-64799694D01*
X161208019Y-64797499D01*
X161208187Y-64793919D01*
X161210499Y-64769270D01*
X161210499Y-64360728D01*
X161208187Y-64336079D01*
X161208019Y-64332502D01*
X161207645Y-64330300D01*
X161207645Y-64330298D01*
X161162792Y-64202119D01*
X161162791Y-64202117D01*
X161155413Y-64192121D01*
X161155412Y-64192117D01*
X161155411Y-64192118D01*
X161082149Y-64092850D01*
X161082148Y-64092849D01*
X161011019Y-64040353D01*
X160985896Y-64015570D01*
X160977503Y-64004516D01*
X160952642Y-63939221D01*
X160967024Y-63870858D01*
X160969897Y-63865510D01*
X160970520Y-63864350D01*
X161006125Y-63823257D01*
X161082149Y-63767150D01*
X161162792Y-63657882D01*
X161188270Y-63585071D01*
X161207645Y-63529701D01*
X161207645Y-63529699D01*
X161208019Y-63527497D01*
X161208187Y-63523919D01*
X161210499Y-63499270D01*
X161210499Y-63090728D01*
X161208187Y-63066079D01*
X161208019Y-63062502D01*
X161207645Y-63060297D01*
X161181128Y-62984518D01*
X161174005Y-62964163D01*
X161162792Y-62932118D01*
X161082149Y-62822850D01*
X160972881Y-62742207D01*
X160972879Y-62742206D01*
X160892170Y-62713964D01*
X160844703Y-62697354D01*
X160844701Y-62697353D01*
X160844699Y-62697353D01*
X160814269Y-62694500D01*
X160814265Y-62694500D01*
X160814263Y-62694500D01*
X159055733Y-62694500D01*
X159055729Y-62694500D01*
X159037073Y-62696249D01*
X159031068Y-62696812D01*
X159027497Y-62696978D01*
X159025295Y-62697353D01*
X158998371Y-62706774D01*
X158977375Y-62712115D01*
X158972972Y-62712832D01*
X158972971Y-62712833D01*
X158968665Y-62713964D01*
X158914051Y-62734049D01*
X158914045Y-62734051D01*
X158605472Y-62882274D01*
X158551782Y-62894500D01*
X158534788Y-62894500D01*
X158534725Y-62894499D01*
X158532821Y-62894499D01*
X158525225Y-62894499D01*
X158419771Y-62894499D01*
X158351864Y-62912695D01*
X158351863Y-62912694D01*
X158317911Y-62921792D01*
X158317910Y-62921792D01*
X158226578Y-62974524D01*
X157945530Y-63255573D01*
X157917280Y-63276722D01*
X157903048Y-63284494D01*
X157834776Y-63299348D01*
X157808682Y-63294641D01*
X157799909Y-63292065D01*
X157747163Y-63260769D01*
X157470916Y-62984522D01*
X157470914Y-62984520D01*
X157453601Y-62974524D01*
X157425251Y-62958155D01*
X157425251Y-62958156D01*
X157379590Y-62931793D01*
X157328658Y-62918146D01*
X157328657Y-62918145D01*
X157277731Y-62904500D01*
X157277728Y-62904500D01*
X157277727Y-62904500D01*
X157105458Y-62904500D01*
X157070520Y-62899476D01*
X157048913Y-62893131D01*
X156999048Y-62864623D01*
X156996110Y-62861869D01*
X156981142Y-62845033D01*
X156972154Y-62832855D01*
X156972152Y-62832853D01*
X156972150Y-62832850D01*
X156862882Y-62752207D01*
X156862880Y-62752206D01*
X156810997Y-62734051D01*
X156734704Y-62707354D01*
X156734702Y-62707353D01*
X156734700Y-62707353D01*
X156704270Y-62704500D01*
X156704266Y-62704500D01*
X156704264Y-62704500D01*
X155195734Y-62704500D01*
X155195730Y-62704500D01*
X155177074Y-62706249D01*
X155171069Y-62706812D01*
X155167499Y-62706978D01*
X155165297Y-62707353D01*
X155037118Y-62752206D01*
X154927849Y-62832849D01*
X154847206Y-62942118D01*
X154802353Y-63070297D01*
X154801978Y-63072499D01*
X154801812Y-63076069D01*
X154799500Y-63100733D01*
X154799500Y-63509265D01*
X154801812Y-63533929D01*
X154801978Y-63537499D01*
X154802353Y-63539703D01*
X154845441Y-63662838D01*
X154847205Y-63667879D01*
X154847207Y-63667882D01*
X154925998Y-63774641D01*
X154927851Y-63777151D01*
X154985422Y-63819640D01*
X155010546Y-63844422D01*
X155018941Y-63855478D01*
X155043805Y-63920774D01*
X155029420Y-63989147D01*
X155029417Y-63989153D01*
X155025921Y-63995660D01*
X154990323Y-64036742D01*
X154927851Y-64082848D01*
X154927847Y-64082852D01*
X154847206Y-64192118D01*
X154802353Y-64320297D01*
X154801978Y-64322499D01*
X154801812Y-64326069D01*
X154799500Y-64350730D01*
X154799500Y-64759269D01*
X154800361Y-64768450D01*
X154801812Y-64783929D01*
X154801978Y-64787499D01*
X154802352Y-64789701D01*
X154835869Y-64885481D01*
X154835869Y-64885482D01*
X154847205Y-64917878D01*
X154847206Y-64917881D01*
X154854587Y-64927882D01*
X154927850Y-65027150D01*
X155026296Y-65099806D01*
X155037118Y-65107793D01*
X155165299Y-65152646D01*
X155165303Y-65152647D01*
X155183742Y-65154375D01*
X155195730Y-65155500D01*
X155195734Y-65155500D01*
X155195739Y-65155500D01*
X156704270Y-65155500D01*
X156704271Y-65155500D01*
X156728920Y-65153188D01*
X156732498Y-65153020D01*
X156734699Y-65152646D01*
X156734701Y-65152646D01*
X156798790Y-65130219D01*
X156862882Y-65107793D01*
X156871471Y-65101454D01*
X156972144Y-65027155D01*
X156972145Y-65027153D01*
X156972150Y-65027150D01*
X156977270Y-65020211D01*
X157002058Y-64995084D01*
X157019990Y-64981469D01*
X157072552Y-64958272D01*
X157076515Y-64957543D01*
X157098934Y-64955500D01*
X157277726Y-64955500D01*
X157277728Y-64955500D01*
X157379589Y-64928207D01*
X157470914Y-64875480D01*
X157741970Y-64604423D01*
X157770214Y-64583279D01*
X157784457Y-64575502D01*
X157852726Y-64560651D01*
X157878814Y-64565357D01*
X157887589Y-64567934D01*
X157940335Y-64599230D01*
X158226586Y-64885481D01*
X158268652Y-64909767D01*
X158310720Y-64934055D01*
X158317911Y-64938207D01*
X158419771Y-64965501D01*
X158419773Y-64965501D01*
X158532821Y-64965501D01*
X158534725Y-64965501D01*
X158534788Y-64965500D01*
X158551787Y-64965500D01*
X158605476Y-64977725D01*
X158802113Y-65072179D01*
X158845180Y-65092866D01*
X158897086Y-65139637D01*
X158915467Y-65207046D01*
X158900730Y-65263314D01*
X158899478Y-65265645D01*
X158863876Y-65306738D01*
X158844716Y-65320880D01*
X158844712Y-65320883D01*
X158787849Y-65362850D01*
X158787846Y-65362852D01*
X158707205Y-65472118D01*
X158662352Y-65600297D01*
X158661977Y-65602499D01*
X158661811Y-65606069D01*
X158659499Y-65630733D01*
X158659499Y-66039265D01*
X158661811Y-66063929D01*
X158661977Y-66067499D01*
X158662352Y-66069701D01*
X158707206Y-66197883D01*
X158707207Y-66197885D01*
X158760012Y-66269434D01*
X158776716Y-66300525D01*
X158782079Y-66315208D01*
X158786589Y-66384932D01*
X158786589Y-66384934D01*
X158785173Y-66391236D01*
X158751870Y-66451733D01*
X158676227Y-66527375D01*
X158676206Y-66527397D01*
X158665957Y-66537647D01*
X158643512Y-66553023D01*
X158577412Y-66619122D01*
X158545080Y-66658525D01*
X158542019Y-66661587D01*
X158542018Y-66661589D01*
X158540715Y-66663845D01*
X158539384Y-66665468D01*
X158536852Y-66669259D01*
X158527677Y-66686427D01*
X158520037Y-66699658D01*
X158520035Y-66699662D01*
X158507106Y-66722058D01*
X158485289Y-66749801D01*
X158471671Y-66762786D01*
X158415339Y-66793547D01*
X158405217Y-66796003D01*
X158375978Y-66799500D01*
X158295730Y-66799500D01*
X158277074Y-66801249D01*
X158271069Y-66801812D01*
X158267499Y-66801978D01*
X158265297Y-66802353D01*
X158137118Y-66847206D01*
X158027849Y-66927849D01*
X157947206Y-67037118D01*
X157935142Y-67071593D01*
X157918859Y-67102912D01*
X157915905Y-67107030D01*
X157860834Y-67150030D01*
X157791259Y-67156430D01*
X157754130Y-67142701D01*
X157676786Y-67098982D01*
X157662877Y-67089836D01*
X157659974Y-67087635D01*
X157659975Y-67087635D01*
X157657193Y-67086538D01*
X157649806Y-67083015D01*
X157649710Y-67083224D01*
X157645222Y-67081140D01*
X157617854Y-67070996D01*
X157615462Y-67070081D01*
X157531874Y-67037119D01*
X157525588Y-67034640D01*
X157525586Y-67034639D01*
X157525580Y-67034638D01*
X157482245Y-67029434D01*
X157482245Y-67029435D01*
X157464628Y-67027320D01*
X157441144Y-67024500D01*
X157441140Y-67024500D01*
X156858860Y-67024500D01*
X156858856Y-67024500D01*
X156848245Y-67025774D01*
X156820839Y-67029064D01*
X156820840Y-67029065D01*
X156774412Y-67034639D01*
X156640021Y-67087636D01*
X156524920Y-67174920D01*
X156437636Y-67290021D01*
X156384639Y-67424413D01*
X156381354Y-67451780D01*
X156379628Y-67466155D01*
X156374500Y-67508856D01*
X156374500Y-67508862D01*
X156374500Y-67579432D01*
X156371376Y-67607090D01*
X156369118Y-67616954D01*
X156369117Y-67616962D01*
X156364063Y-67742799D01*
X156341704Y-67808994D01*
X156287106Y-67852593D01*
X156217604Y-67859753D01*
X156155264Y-67828200D01*
X156140156Y-67808909D01*
X156139487Y-67809417D01*
X156126111Y-67791778D01*
X156123723Y-67788520D01*
X156117055Y-67779105D01*
X156112605Y-67773968D01*
X156104198Y-67762882D01*
X156055599Y-67698794D01*
X156042922Y-67682076D01*
X155922345Y-67590640D01*
X155922343Y-67590639D01*
X155795110Y-67540465D01*
X155781559Y-67535121D01*
X155742152Y-67530389D01*
X155735926Y-67529642D01*
X155735925Y-67529641D01*
X155708220Y-67526315D01*
X155693102Y-67524500D01*
X155693098Y-67524500D01*
X155106901Y-67524500D01*
X155106898Y-67524500D01*
X155096560Y-67525741D01*
X155067853Y-67529187D01*
X155067853Y-67529188D01*
X155061920Y-67529900D01*
X155018439Y-67535121D01*
X154877653Y-67590640D01*
X154757076Y-67682076D01*
X154665640Y-67802653D01*
X154610121Y-67943439D01*
X154606910Y-67970184D01*
X154604188Y-67992853D01*
X154599650Y-68030654D01*
X154599500Y-68031901D01*
X154599500Y-68243455D01*
X154589573Y-68292069D01*
X154226192Y-69144737D01*
X154199800Y-69183804D01*
X153692386Y-69691218D01*
X153664130Y-69712370D01*
X153650409Y-69719862D01*
X153582151Y-69734714D01*
X153575934Y-69734270D01*
X153519149Y-69713097D01*
X153518015Y-69714921D01*
X153513145Y-69711893D01*
X153513138Y-69711888D01*
X153513134Y-69711886D01*
X153513132Y-69711885D01*
X153492696Y-69703826D01*
X153381326Y-69659906D01*
X153379368Y-69659114D01*
X153379096Y-69659001D01*
X153372974Y-69658635D01*
X153331306Y-69653631D01*
X153296903Y-69649500D01*
X153296902Y-69649500D01*
X152703098Y-69649500D01*
X152634553Y-69657731D01*
X152627017Y-69658636D01*
X152623063Y-69658872D01*
X152619650Y-69659521D01*
X152486867Y-69711884D01*
X152486865Y-69711885D01*
X152373131Y-69798131D01*
X152286887Y-69911863D01*
X152286884Y-69911867D01*
X152234521Y-70044650D01*
X152233872Y-70048065D01*
X152233635Y-70052025D01*
X152229237Y-70088653D01*
X152224500Y-70128097D01*
X152224500Y-70646902D01*
X152233109Y-70718597D01*
X152233635Y-70722972D01*
X152233872Y-70726935D01*
X152234520Y-70730344D01*
X152236898Y-70736374D01*
X152236899Y-70736379D01*
X152282413Y-70851793D01*
X152283669Y-70854977D01*
X152286886Y-70863134D01*
X152373128Y-70976863D01*
X152373130Y-70976864D01*
X152373132Y-70976867D01*
X152447444Y-71033219D01*
X152490242Y-71065674D01*
X152489913Y-71066106D01*
X152504780Y-71078350D01*
X152515764Y-71089610D01*
X152548485Y-71151343D01*
X152542636Y-71220968D01*
X152542623Y-71221003D01*
X152542306Y-71221821D01*
X152507885Y-71270728D01*
X152502897Y-71275050D01*
X152489715Y-71285015D01*
X152486878Y-71286875D01*
X152373132Y-71373131D01*
X152373128Y-71373136D01*
X152286885Y-71486865D01*
X152286884Y-71486867D01*
X152234521Y-71619650D01*
X152233872Y-71623065D01*
X152233635Y-71627025D01*
X152224500Y-71703095D01*
X152224500Y-72221902D01*
X152233635Y-72297972D01*
X152233925Y-72302827D01*
X152234815Y-72306598D01*
X152236521Y-72310421D01*
X152282545Y-72427130D01*
X152282546Y-72427130D01*
X152286885Y-72438132D01*
X152286888Y-72438136D01*
X152373131Y-72551867D01*
X152444499Y-72605986D01*
X152486864Y-72638112D01*
X152486868Y-72638115D01*
X152496495Y-72641911D01*
X152527157Y-72659403D01*
X152529386Y-72661137D01*
X152536083Y-72666348D01*
X152576903Y-72723053D01*
X152580586Y-72792826D01*
X152545971Y-72853505D01*
X152541474Y-72857838D01*
X152513884Y-72875674D01*
X152514755Y-72877225D01*
X152507662Y-72881206D01*
X152392458Y-72967449D01*
X152392452Y-72967454D01*
X152392450Y-72967456D01*
X152306205Y-73082665D01*
X152306203Y-73082669D01*
X152306200Y-73082673D01*
X152255911Y-73217507D01*
X152255908Y-73217520D01*
X152249501Y-73277116D01*
X152249501Y-73277123D01*
X152249500Y-73277135D01*
X152249500Y-73772876D01*
X152249659Y-73774806D01*
X152249885Y-73776454D01*
X152255907Y-73832482D01*
X152269917Y-73870044D01*
X152306202Y-73967328D01*
X152306203Y-73967330D01*
X152306204Y-73967332D01*
X152306205Y-73967333D01*
X152392450Y-74082542D01*
X152392456Y-74082548D01*
X152410359Y-74095950D01*
X152507664Y-74168793D01*
X152507671Y-74168797D01*
X152552618Y-74185561D01*
X152642517Y-74219091D01*
X152702127Y-74225500D01*
X153347872Y-74225499D01*
X153407483Y-74219091D01*
X153542331Y-74168796D01*
X153657546Y-74082546D01*
X153743796Y-73967331D01*
X153794091Y-73832483D01*
X153800500Y-73772873D01*
X153800499Y-73277128D01*
X153794091Y-73217517D01*
X153790075Y-73206750D01*
X153743797Y-73082671D01*
X153743793Y-73082664D01*
X153657547Y-72967455D01*
X153657544Y-72967452D01*
X153633184Y-72949216D01*
X153549425Y-72886513D01*
X153546073Y-72883608D01*
X153546063Y-72883602D01*
X153542775Y-72881319D01*
X153540292Y-72880443D01*
X153530075Y-72876632D01*
X153499102Y-72859719D01*
X153490050Y-72852943D01*
X153448178Y-72797011D01*
X153443192Y-72727319D01*
X153476672Y-72666000D01*
X153481506Y-72661166D01*
X153508425Y-72640760D01*
X153513124Y-72638118D01*
X153513132Y-72638115D01*
X153626867Y-72551867D01*
X153713115Y-72438132D01*
X153765479Y-72305346D01*
X153775500Y-72221902D01*
X153775500Y-71703098D01*
X153773703Y-71688132D01*
X153772655Y-71679411D01*
X153772654Y-71679410D01*
X153767786Y-71638862D01*
X153765479Y-71619654D01*
X153713115Y-71486868D01*
X153704596Y-71475634D01*
X153626867Y-71373132D01*
X153626866Y-71373131D01*
X153626863Y-71373128D01*
X153509757Y-71284325D01*
X153510081Y-71283896D01*
X153495215Y-71271645D01*
X153484234Y-71260388D01*
X153451513Y-71198654D01*
X153457353Y-71129052D01*
X153457670Y-71128234D01*
X153492117Y-71079269D01*
X153496315Y-71075632D01*
X153505244Y-71069529D01*
X153505036Y-71069255D01*
X153626867Y-70976867D01*
X153701722Y-70878156D01*
X153713115Y-70863132D01*
X153741828Y-70790318D01*
X153759312Y-70759670D01*
X153777407Y-70736413D01*
X153802933Y-70714188D01*
X153801965Y-70712927D01*
X153808408Y-70707982D01*
X153808413Y-70707980D01*
X154744687Y-69771702D01*
X154801560Y-69739273D01*
X155424992Y-69579387D01*
X155455796Y-69575500D01*
X155693097Y-69575500D01*
X155693102Y-69575500D01*
X155781564Y-69564877D01*
X155922342Y-69509361D01*
X156042922Y-69417922D01*
X156090927Y-69354616D01*
X156116033Y-69329821D01*
X156125134Y-69323096D01*
X156190748Y-69299089D01*
X156258927Y-69314367D01*
X156308006Y-69364048D01*
X156309684Y-69367165D01*
X156324500Y-69425943D01*
X156324500Y-71116784D01*
X156312274Y-71170474D01*
X156163199Y-71480823D01*
X156161818Y-71483737D01*
X156161719Y-71483948D01*
X156156918Y-71494759D01*
X156152210Y-71516437D01*
X156148077Y-71531071D01*
X156127352Y-71590298D01*
X156126978Y-71592498D01*
X156126812Y-71596069D01*
X156124500Y-71620730D01*
X156124500Y-73129269D01*
X156126657Y-73152275D01*
X156126812Y-73153929D01*
X156126978Y-73157499D01*
X156127352Y-73159701D01*
X156155933Y-73241375D01*
X156170491Y-73282978D01*
X156172207Y-73287882D01*
X156252850Y-73397150D01*
X156324789Y-73450243D01*
X156362118Y-73477793D01*
X156490299Y-73522646D01*
X156490303Y-73522647D01*
X156508742Y-73524375D01*
X156520730Y-73525500D01*
X156520734Y-73525500D01*
X156520739Y-73525500D01*
X156929270Y-73525500D01*
X156929271Y-73525500D01*
X156953920Y-73523188D01*
X156957497Y-73523020D01*
X156959700Y-73522646D01*
X156959701Y-73522646D01*
X157025847Y-73499500D01*
X157087882Y-73477793D01*
X157197150Y-73397150D01*
X157277793Y-73287882D01*
X157302416Y-73217513D01*
X157312248Y-73189417D01*
X157312248Y-73189416D01*
X157322646Y-73159701D01*
X157323020Y-73157497D01*
X157323188Y-73153919D01*
X157325500Y-73129270D01*
X157325500Y-71620728D01*
X157323188Y-71596079D01*
X157323020Y-71592500D01*
X157322646Y-71590301D01*
X157322646Y-71590300D01*
X157322646Y-71590298D01*
X157296476Y-71515513D01*
X157293789Y-71506816D01*
X157290543Y-71494759D01*
X157286783Y-71480790D01*
X157197396Y-71294699D01*
X157137726Y-71170474D01*
X157125500Y-71116785D01*
X157125500Y-69095730D01*
X157899500Y-69095730D01*
X157899500Y-69504269D01*
X157901657Y-69527275D01*
X157901812Y-69528929D01*
X157901978Y-69532499D01*
X157902353Y-69534699D01*
X157902353Y-69534701D01*
X157947206Y-69662880D01*
X157947207Y-69662882D01*
X158027850Y-69772150D01*
X158137117Y-69852792D01*
X158137118Y-69852793D01*
X158265299Y-69897646D01*
X158265303Y-69897647D01*
X158283742Y-69899375D01*
X158295730Y-69900500D01*
X158295734Y-69900500D01*
X158295739Y-69900500D01*
X159429270Y-69900500D01*
X159429271Y-69900500D01*
X159453920Y-69898188D01*
X159457497Y-69898020D01*
X159459696Y-69897646D01*
X159459699Y-69897646D01*
X159459701Y-69897646D01*
X159537341Y-69870478D01*
X159587882Y-69852793D01*
X159697150Y-69772150D01*
X159777793Y-69662882D01*
X159811400Y-69566838D01*
X159822646Y-69534701D01*
X159822646Y-69534699D01*
X159823020Y-69532499D01*
X159823188Y-69528919D01*
X159825500Y-69504270D01*
X159825500Y-69098130D01*
X159825500Y-69095730D01*
X160174500Y-69095730D01*
X160174500Y-69504269D01*
X160176657Y-69527275D01*
X160176812Y-69528929D01*
X160176978Y-69532499D01*
X160177353Y-69534699D01*
X160177353Y-69534701D01*
X160222206Y-69662880D01*
X160222207Y-69662882D01*
X160302850Y-69772150D01*
X160412117Y-69852792D01*
X160412118Y-69852793D01*
X160540299Y-69897646D01*
X160540303Y-69897647D01*
X160558742Y-69899375D01*
X160570730Y-69900500D01*
X160570734Y-69900500D01*
X160916341Y-69900500D01*
X160948430Y-69904724D01*
X160954535Y-69906359D01*
X160978897Y-69912887D01*
X161008800Y-69925272D01*
X161039685Y-69943105D01*
X161068213Y-69959576D01*
X161068215Y-69959576D01*
X161068216Y-69959577D01*
X161220943Y-70000500D01*
X161220945Y-70000500D01*
X161379055Y-70000500D01*
X161379057Y-70000500D01*
X161531784Y-69959577D01*
X161591200Y-69925272D01*
X161621098Y-69912888D01*
X161651571Y-69904723D01*
X161683657Y-69900500D01*
X161704271Y-69900500D01*
X161728920Y-69898188D01*
X161732497Y-69898020D01*
X161734696Y-69897646D01*
X161734699Y-69897646D01*
X161734701Y-69897646D01*
X161812341Y-69870478D01*
X161862882Y-69852793D01*
X161972150Y-69772150D01*
X162052793Y-69662882D01*
X162086400Y-69566838D01*
X162097646Y-69534701D01*
X162097646Y-69534699D01*
X162098020Y-69532499D01*
X162098188Y-69528919D01*
X162100500Y-69504270D01*
X162100500Y-69095728D01*
X162098188Y-69071079D01*
X162098020Y-69067502D01*
X162097646Y-69065297D01*
X162058985Y-68954815D01*
X162058984Y-68954812D01*
X162058544Y-68953556D01*
X162052793Y-68937118D01*
X161972150Y-68827850D01*
X161862882Y-68747207D01*
X161862880Y-68747206D01*
X161835748Y-68737712D01*
X161734704Y-68702354D01*
X161734702Y-68702353D01*
X161734700Y-68702353D01*
X161704270Y-68699500D01*
X161704266Y-68699500D01*
X161704264Y-68699500D01*
X160570734Y-68699500D01*
X160570730Y-68699500D01*
X160552074Y-68701249D01*
X160546069Y-68701812D01*
X160542499Y-68701978D01*
X160540297Y-68702353D01*
X160412118Y-68747206D01*
X160302849Y-68827849D01*
X160222206Y-68937118D01*
X160177353Y-69065297D01*
X160176978Y-69067499D01*
X160176812Y-69071069D01*
X160174500Y-69095730D01*
X159825500Y-69095730D01*
X159823139Y-69070563D01*
X159823098Y-69070077D01*
X159823133Y-69069904D01*
X159823020Y-69067502D01*
X159822646Y-69065297D01*
X159783985Y-68954815D01*
X159783984Y-68954812D01*
X159783544Y-68953556D01*
X159777793Y-68937118D01*
X159697150Y-68827850D01*
X159587882Y-68747207D01*
X159587880Y-68747206D01*
X159560748Y-68737712D01*
X159459704Y-68702354D01*
X159459702Y-68702353D01*
X159459700Y-68702353D01*
X159429270Y-68699500D01*
X159429266Y-68699500D01*
X159429264Y-68699500D01*
X158295734Y-68699500D01*
X158295730Y-68699500D01*
X158277074Y-68701249D01*
X158271069Y-68701812D01*
X158267499Y-68701978D01*
X158265297Y-68702353D01*
X158137118Y-68747206D01*
X158027849Y-68827849D01*
X157947206Y-68937118D01*
X157902353Y-69065297D01*
X157901978Y-69067499D01*
X157901877Y-69069664D01*
X157901901Y-69070070D01*
X157901850Y-69070655D01*
X157899500Y-69095730D01*
X157125500Y-69095730D01*
X157125500Y-68740121D01*
X157125501Y-68740070D01*
X157125501Y-68667329D01*
X157130523Y-68632396D01*
X157131713Y-68628343D01*
X157169487Y-68569564D01*
X157233042Y-68540538D01*
X157240242Y-68539717D01*
X157346215Y-68530759D01*
X157367274Y-68527341D01*
X157368756Y-68527101D01*
X157388619Y-68525500D01*
X157441145Y-68525500D01*
X157483367Y-68520429D01*
X157525590Y-68515359D01*
X157629638Y-68474326D01*
X157634948Y-68472372D01*
X157645220Y-68468859D01*
X157645228Y-68468854D01*
X157650454Y-68466508D01*
X157650517Y-68466648D01*
X157657217Y-68463450D01*
X157659975Y-68462364D01*
X157662886Y-68460155D01*
X157676786Y-68451014D01*
X158135815Y-68191550D01*
X158196830Y-68175500D01*
X158540225Y-68175500D01*
X158540227Y-68175500D01*
X158642088Y-68148207D01*
X158733413Y-68095480D01*
X158779468Y-68049424D01*
X158807719Y-68028275D01*
X158830811Y-68015667D01*
X158890236Y-68000500D01*
X159429271Y-68000500D01*
X159453920Y-67998188D01*
X159457496Y-67998020D01*
X159459696Y-67997646D01*
X159459699Y-67997646D01*
X159459701Y-67997646D01*
X159538178Y-67970185D01*
X159587882Y-67952793D01*
X159697150Y-67872150D01*
X159777793Y-67762882D01*
X159800219Y-67698790D01*
X159822646Y-67634701D01*
X159822646Y-67634699D01*
X159823020Y-67632499D01*
X159823188Y-67628919D01*
X159825500Y-67604270D01*
X159825500Y-67195728D01*
X159823188Y-67171079D01*
X159823423Y-67169870D01*
X159822646Y-67165300D01*
X159822646Y-67165298D01*
X159777793Y-67037119D01*
X159777792Y-67037117D01*
X159775964Y-67034640D01*
X159697152Y-66927852D01*
X159697144Y-66927844D01*
X159661375Y-66901446D01*
X159636249Y-66876661D01*
X159627855Y-66865606D01*
X159602994Y-66800310D01*
X159617381Y-66731938D01*
X159623754Y-66720076D01*
X159645250Y-66691139D01*
X159646125Y-66690264D01*
X159678393Y-66666993D01*
X160115200Y-66448591D01*
X160170654Y-66435500D01*
X160814270Y-66435500D01*
X160838919Y-66433188D01*
X160842497Y-66433020D01*
X160844701Y-66432646D01*
X160908789Y-66410219D01*
X160918683Y-66406756D01*
X160927383Y-66404066D01*
X160953912Y-66396925D01*
X161264521Y-66247725D01*
X161318211Y-66235500D01*
X162404915Y-66235500D01*
X162439847Y-66240521D01*
X162465091Y-66247934D01*
X162517837Y-66279230D01*
X162838818Y-66600211D01*
X162859971Y-66628469D01*
X162864796Y-66637306D01*
X162879646Y-66705579D01*
X162855227Y-66771043D01*
X162799292Y-66812912D01*
X162760093Y-66820660D01*
X162109253Y-66842354D01*
X162091429Y-66841665D01*
X161820289Y-66811539D01*
X161687583Y-66796795D01*
X161687580Y-66796795D01*
X161687579Y-66796795D01*
X161647643Y-66798761D01*
X161635701Y-66799350D01*
X161629604Y-66799500D01*
X160570734Y-66799500D01*
X160570730Y-66799500D01*
X160552074Y-66801249D01*
X160546069Y-66801812D01*
X160542499Y-66801978D01*
X160540297Y-66802353D01*
X160412118Y-66847206D01*
X160302849Y-66927849D01*
X160222206Y-67037118D01*
X160177353Y-67165297D01*
X160176978Y-67167499D01*
X160176812Y-67171069D01*
X160174500Y-67195730D01*
X160174500Y-67604269D01*
X160175689Y-67616954D01*
X160176812Y-67628929D01*
X160176978Y-67632499D01*
X160177352Y-67634701D01*
X160220902Y-67759153D01*
X160222206Y-67762879D01*
X160222209Y-67762885D01*
X160302848Y-67872148D01*
X160302849Y-67872148D01*
X160302850Y-67872150D01*
X160412118Y-67952793D01*
X160435387Y-67960935D01*
X160540299Y-67997646D01*
X160540304Y-67997646D01*
X160540307Y-67997647D01*
X160551892Y-67998733D01*
X160570730Y-68000500D01*
X160570734Y-68000500D01*
X161629614Y-68000500D01*
X161635708Y-68000649D01*
X161644339Y-68001074D01*
X161687581Y-68003203D01*
X161687582Y-68003202D01*
X161687586Y-68003203D01*
X161967755Y-67972072D01*
X162036462Y-67984186D01*
X162125514Y-68028274D01*
X162261778Y-68095735D01*
X162312492Y-68142537D01*
X162312607Y-68142466D01*
X162312864Y-68142880D01*
X162313124Y-68143120D01*
X162313956Y-68144636D01*
X162315636Y-68147339D01*
X162407076Y-68267922D01*
X162520904Y-68354240D01*
X162524102Y-68357029D01*
X162524107Y-68357032D01*
X162527390Y-68359349D01*
X162530596Y-68360519D01*
X162668436Y-68414877D01*
X162756898Y-68425500D01*
X162756903Y-68425500D01*
X163793102Y-68425500D01*
X163793103Y-68425500D01*
X163815217Y-68422844D01*
X163881564Y-68414877D01*
X163918318Y-68400381D01*
X163944729Y-68393213D01*
X163953666Y-68391822D01*
X164515330Y-68193560D01*
X164585097Y-68189808D01*
X164644284Y-68222809D01*
X164886985Y-68465510D01*
X165012515Y-68537984D01*
X165152525Y-68575499D01*
X165152527Y-68575499D01*
X165297472Y-68575499D01*
X165297474Y-68575499D01*
X165437485Y-68537984D01*
X165563014Y-68465510D01*
X165665510Y-68363014D01*
X165727629Y-68255419D01*
X165749441Y-68227682D01*
X165770772Y-68207343D01*
X165810849Y-68181735D01*
X165859975Y-68162364D01*
X165975078Y-68075078D01*
X166007819Y-68031903D01*
X166015925Y-68021214D01*
X166041030Y-67996417D01*
X166050133Y-67989690D01*
X166115745Y-67965682D01*
X166183924Y-67980958D01*
X166233013Y-68030653D01*
X166234691Y-68033772D01*
X166249500Y-68092535D01*
X166249500Y-69785136D01*
X166252982Y-69798133D01*
X166276793Y-69886999D01*
X166291149Y-69911863D01*
X166291150Y-69911866D01*
X166313456Y-69950500D01*
X166329520Y-69978323D01*
X166329522Y-69978325D01*
X166329613Y-69978416D01*
X166330450Y-69979534D01*
X166334467Y-69984769D01*
X166334404Y-69984816D01*
X166350765Y-70006672D01*
X166358257Y-70020393D01*
X166373109Y-70088653D01*
X166372980Y-70090459D01*
X166353607Y-70148668D01*
X166349428Y-70155170D01*
X166332798Y-70175806D01*
X166295531Y-70213074D01*
X166267280Y-70234224D01*
X166244196Y-70246830D01*
X166184765Y-70262000D01*
X165778098Y-70262000D01*
X165709553Y-70270231D01*
X165702017Y-70271136D01*
X165698063Y-70271372D01*
X165694650Y-70272021D01*
X165561867Y-70324384D01*
X165561865Y-70324385D01*
X165448131Y-70410631D01*
X165361890Y-70524359D01*
X165361880Y-70524373D01*
X165359611Y-70530128D01*
X165342121Y-70560785D01*
X165333600Y-70571736D01*
X165276896Y-70612558D01*
X165207181Y-70616255D01*
X165206526Y-70616100D01*
X165153010Y-70588385D01*
X165148001Y-70583962D01*
X165130814Y-70565328D01*
X165116878Y-70546711D01*
X165116878Y-70546710D01*
X165057548Y-70467457D01*
X165057547Y-70467456D01*
X165057546Y-70467454D01*
X165034709Y-70450358D01*
X164981643Y-70410632D01*
X164942337Y-70381207D01*
X164942334Y-70381205D01*
X164942325Y-70381200D01*
X164809579Y-70331690D01*
X164806562Y-70330503D01*
X164800871Y-70330198D01*
X164747883Y-70324501D01*
X164747881Y-70324500D01*
X164747873Y-70324500D01*
X164747865Y-70324500D01*
X164102123Y-70324500D01*
X164100192Y-70324659D01*
X164098545Y-70324885D01*
X164049121Y-70330198D01*
X164042516Y-70330908D01*
X163907677Y-70381200D01*
X163907666Y-70381204D01*
X163907665Y-70381205D01*
X163792456Y-70467450D01*
X163792450Y-70467456D01*
X163706205Y-70582665D01*
X163706203Y-70582669D01*
X163706200Y-70582673D01*
X163655911Y-70717507D01*
X163655908Y-70717520D01*
X163649501Y-70777116D01*
X163649500Y-70777135D01*
X163649500Y-71272876D01*
X163649659Y-71274806D01*
X163649885Y-71276454D01*
X163655907Y-71332482D01*
X163674420Y-71382117D01*
X163706202Y-71467328D01*
X163706206Y-71467335D01*
X163742964Y-71516437D01*
X163792450Y-71582542D01*
X163792456Y-71582548D01*
X163802813Y-71590301D01*
X163907664Y-71668793D01*
X163907671Y-71668797D01*
X163936132Y-71679412D01*
X164042517Y-71719091D01*
X164102127Y-71725500D01*
X164589917Y-71725499D01*
X164624849Y-71730521D01*
X164628263Y-71731523D01*
X164687040Y-71769298D01*
X164716064Y-71832854D01*
X164706120Y-71902012D01*
X164660365Y-71954816D01*
X164593326Y-71974500D01*
X164102123Y-71974500D01*
X164100192Y-71974659D01*
X164098545Y-71974885D01*
X164042516Y-71980908D01*
X163907666Y-72031204D01*
X163907665Y-72031205D01*
X163792456Y-72117450D01*
X163792450Y-72117456D01*
X163706205Y-72232665D01*
X163706201Y-72232671D01*
X163706200Y-72232673D01*
X163655911Y-72367507D01*
X163655908Y-72367520D01*
X163649501Y-72427116D01*
X163649500Y-72427130D01*
X163649500Y-72765915D01*
X163644476Y-72800853D01*
X163641289Y-72811706D01*
X163603514Y-72870483D01*
X163539957Y-72899506D01*
X163470807Y-72889565D01*
X163463829Y-72886378D01*
X163427657Y-72861264D01*
X161470915Y-70904522D01*
X161470913Y-70904520D01*
X161460119Y-70898288D01*
X161425250Y-70878155D01*
X161425250Y-70878156D01*
X161379589Y-70851793D01*
X161328657Y-70838146D01*
X161328656Y-70838145D01*
X161277730Y-70824500D01*
X161277727Y-70824500D01*
X161277726Y-70824500D01*
X160196738Y-70824500D01*
X160196675Y-70824499D01*
X160194771Y-70824499D01*
X160187175Y-70824499D01*
X160081721Y-70824499D01*
X160013814Y-70842695D01*
X160013813Y-70842694D01*
X159979861Y-70851792D01*
X159979860Y-70851792D01*
X159888530Y-70904523D01*
X159813966Y-70979089D01*
X159813965Y-70979089D01*
X159605925Y-71187128D01*
X159577674Y-71208278D01*
X159563350Y-71216100D01*
X159496336Y-71231037D01*
X159478400Y-71229938D01*
X159460016Y-71227383D01*
X159459700Y-71227353D01*
X159459699Y-71227353D01*
X159429270Y-71224500D01*
X159429266Y-71224500D01*
X159429264Y-71224500D01*
X159020734Y-71224500D01*
X159020730Y-71224500D01*
X159002074Y-71226249D01*
X158996069Y-71226812D01*
X158992499Y-71226978D01*
X158990297Y-71227353D01*
X158862118Y-71272206D01*
X158752849Y-71352849D01*
X158672206Y-71462118D01*
X158627353Y-71590297D01*
X158626978Y-71592499D01*
X158626812Y-71596069D01*
X158624500Y-71620730D01*
X158624500Y-73129269D01*
X158626657Y-73152275D01*
X158626812Y-73153929D01*
X158626978Y-73157499D01*
X158627352Y-73159701D01*
X158655933Y-73241375D01*
X158670491Y-73282978D01*
X158672207Y-73287882D01*
X158752850Y-73397150D01*
X158824789Y-73450243D01*
X158862118Y-73477793D01*
X158990299Y-73522646D01*
X158990303Y-73522647D01*
X159008742Y-73524375D01*
X159020730Y-73525500D01*
X159020734Y-73525500D01*
X159020739Y-73525500D01*
X159429270Y-73525500D01*
X159429271Y-73525500D01*
X159453920Y-73523188D01*
X159457497Y-73523020D01*
X159459700Y-73522646D01*
X159459701Y-73522646D01*
X159525847Y-73499500D01*
X159587882Y-73477793D01*
X159697150Y-73397150D01*
X159739645Y-73339570D01*
X159764424Y-73314451D01*
X159775482Y-73306055D01*
X159840777Y-73281193D01*
X159909148Y-73295578D01*
X159915659Y-73299076D01*
X159956740Y-73334675D01*
X159991879Y-73382287D01*
X159991881Y-73382288D01*
X160002848Y-73397148D01*
X160002849Y-73397148D01*
X160002850Y-73397150D01*
X160112118Y-73477793D01*
X160154845Y-73492744D01*
X160240299Y-73522646D01*
X160240303Y-73522647D01*
X160258742Y-73524375D01*
X160270730Y-73525500D01*
X160270734Y-73525500D01*
X160270739Y-73525500D01*
X160679270Y-73525500D01*
X160679271Y-73525500D01*
X160703920Y-73523188D01*
X160707497Y-73523020D01*
X160709700Y-73522646D01*
X160709701Y-73522646D01*
X160775847Y-73499500D01*
X160837882Y-73477793D01*
X160947150Y-73397150D01*
X161027793Y-73287882D01*
X161052416Y-73217513D01*
X161062248Y-73189417D01*
X161062248Y-73189416D01*
X161072646Y-73159701D01*
X161073020Y-73157497D01*
X161073188Y-73153919D01*
X161075500Y-73129270D01*
X161075500Y-73034084D01*
X161080521Y-72999157D01*
X161083707Y-72988304D01*
X161121477Y-72929523D01*
X161185031Y-72900494D01*
X161254186Y-72910432D01*
X161261172Y-72913622D01*
X161297342Y-72938735D01*
X163654087Y-75295480D01*
X163745412Y-75348207D01*
X163847273Y-75375500D01*
X163952727Y-75375500D01*
X165977563Y-75375500D01*
X166012495Y-75380521D01*
X166037739Y-75387934D01*
X166090485Y-75419230D01*
X167446466Y-76775211D01*
X167467615Y-76803461D01*
X167473036Y-76813388D01*
X167487890Y-76881661D01*
X167463476Y-76947126D01*
X167407544Y-76988999D01*
X167407540Y-76989001D01*
X167400352Y-76991682D01*
X167357018Y-76999500D01*
X152008121Y-76999500D01*
X152002691Y-76999381D01*
X151997284Y-76999144D01*
X151991906Y-76998791D01*
X151842637Y-76985731D01*
X151831915Y-76984320D01*
X151830095Y-76983999D01*
X151821293Y-76982447D01*
X151810734Y-76980106D01*
X151698854Y-76950128D01*
X151673859Y-76943431D01*
X151663545Y-76940179D01*
X151657652Y-76938034D01*
X151653396Y-76936485D01*
X151643408Y-76932347D01*
X151514994Y-76872466D01*
X151505401Y-76867472D01*
X151496051Y-76862074D01*
X151486934Y-76856267D01*
X151370846Y-76774981D01*
X151362270Y-76768400D01*
X151354005Y-76761465D01*
X151346029Y-76754156D01*
X151245842Y-76653969D01*
X151238533Y-76645993D01*
X151231598Y-76637728D01*
X151225019Y-76629155D01*
X151143727Y-76513058D01*
X151137924Y-76503947D01*
X151132526Y-76494597D01*
X151127532Y-76485004D01*
X151067651Y-76356590D01*
X151063513Y-76346602D01*
X151059814Y-76336439D01*
X151056569Y-76326146D01*
X151022903Y-76200500D01*
X151022902Y-76200498D01*
X151019895Y-76189275D01*
X151017551Y-76178702D01*
X151015678Y-76168077D01*
X151014267Y-76157357D01*
X151001208Y-76008093D01*
X151000854Y-76002690D01*
X151000618Y-75997280D01*
X151000500Y-75991876D01*
X151000500Y-61908122D01*
X151000618Y-61902718D01*
X151000854Y-61897308D01*
X151001208Y-61891905D01*
X151007435Y-61820730D01*
X151010097Y-61790297D01*
X151014268Y-61742622D01*
X151015678Y-61731915D01*
X151017552Y-61721287D01*
X151019892Y-61710733D01*
X151032918Y-61662118D01*
X151056571Y-61573842D01*
X151059815Y-61563554D01*
X151063518Y-61553383D01*
X151067643Y-61543425D01*
X151127541Y-61414973D01*
X151132530Y-61405392D01*
X151137929Y-61396042D01*
X151143715Y-61386957D01*
X151225022Y-61270839D01*
X151231591Y-61262279D01*
X151231599Y-61262270D01*
X151238534Y-61254004D01*
X151245829Y-61246042D01*
X151346042Y-61145829D01*
X151354005Y-61138533D01*
X151362279Y-61131591D01*
X151370839Y-61125022D01*
X151486957Y-61043715D01*
X151496042Y-61037929D01*
X151505399Y-61032526D01*
X151514983Y-61027537D01*
X151643418Y-60967647D01*
X151653399Y-60963512D01*
X151663550Y-60959816D01*
X151673836Y-60956573D01*
X151810736Y-60919891D01*
X151821279Y-60917553D01*
X151831931Y-60915675D01*
X151842617Y-60914268D01*
X151969885Y-60903134D01*
X151991936Y-60901205D01*
X151997262Y-60900855D01*
X152002740Y-60900616D01*
X152008122Y-60900500D01*
X182491878Y-60900500D01*
X182497280Y-60900618D01*
G37*
%TD.AperFunction*%
%TA.AperFunction,Conductor*%
G36*
X182149830Y-65236622D02*
G01*
X182150455Y-65236855D01*
X182200145Y-65271182D01*
X182212164Y-65284878D01*
X182217767Y-65291742D01*
X182299920Y-65400078D01*
X182342889Y-65432662D01*
X182408272Y-65482243D01*
X182411470Y-65485032D01*
X182411479Y-65485038D01*
X182414759Y-65487353D01*
X182417965Y-65488524D01*
X182505916Y-65523207D01*
X182549410Y-65540359D01*
X182633856Y-65550500D01*
X182633862Y-65550500D01*
X183216144Y-65550500D01*
X183216145Y-65550500D01*
X183230218Y-65548809D01*
X183300590Y-65540359D01*
X183313422Y-65535298D01*
X183347758Y-65527153D01*
X183361588Y-65525905D01*
X183430123Y-65539482D01*
X183480436Y-65587949D01*
X183483200Y-65592793D01*
X183499500Y-65654247D01*
X183499500Y-75991878D01*
X183499381Y-75997309D01*
X183499144Y-76002715D01*
X183498791Y-76008092D01*
X183485731Y-76157361D01*
X183484320Y-76168083D01*
X183482448Y-76178701D01*
X183480106Y-76189264D01*
X183443432Y-76326136D01*
X183440177Y-76336460D01*
X183436485Y-76346602D01*
X183432347Y-76356590D01*
X183372466Y-76485004D01*
X183367472Y-76494597D01*
X183362074Y-76503947D01*
X183356261Y-76513073D01*
X183274985Y-76629147D01*
X183268400Y-76637728D01*
X183261465Y-76645993D01*
X183254156Y-76653969D01*
X183153969Y-76754156D01*
X183145993Y-76761465D01*
X183137728Y-76768400D01*
X183129147Y-76774985D01*
X183013073Y-76856261D01*
X183003947Y-76862074D01*
X182994597Y-76867472D01*
X182985004Y-76872466D01*
X182856590Y-76932347D01*
X182846602Y-76936485D01*
X182836460Y-76940177D01*
X182826136Y-76943432D01*
X182689264Y-76980106D01*
X182678701Y-76982448D01*
X182668083Y-76984320D01*
X182657361Y-76985731D01*
X182508093Y-76998791D01*
X182502716Y-76999144D01*
X182497310Y-76999381D01*
X182491879Y-76999500D01*
X175448730Y-76999500D01*
X175413795Y-76994477D01*
X175402941Y-76991290D01*
X175344163Y-76953516D01*
X175315138Y-76889960D01*
X175325081Y-76820803D01*
X175328271Y-76813820D01*
X175353380Y-76777658D01*
X175409824Y-76721213D01*
X175409825Y-76721212D01*
X175409827Y-76721210D01*
X175436759Y-76666118D01*
X175464866Y-76608625D01*
X175475500Y-76535636D01*
X175475500Y-75139364D01*
X175464866Y-75066375D01*
X175445058Y-75025858D01*
X175440992Y-75017541D01*
X175438597Y-75012642D01*
X175427768Y-74979057D01*
X175425864Y-74967902D01*
X175433987Y-74898509D01*
X175478338Y-74844521D01*
X175544821Y-74823081D01*
X175548654Y-74822980D01*
X175606380Y-74835536D01*
X175666057Y-74864711D01*
X175666950Y-74865153D01*
X175667067Y-74865211D01*
X175670132Y-74865788D01*
X175675253Y-74866159D01*
X175739364Y-74875500D01*
X175739370Y-74875500D01*
X177135630Y-74875500D01*
X177135636Y-74875500D01*
X177208625Y-74864866D01*
X177266118Y-74836759D01*
X177321210Y-74809827D01*
X177409827Y-74721210D01*
X177449010Y-74641058D01*
X177464866Y-74608625D01*
X177475500Y-74535636D01*
X177475500Y-74314364D01*
X177464866Y-74241375D01*
X177464864Y-74241371D01*
X177464864Y-74241369D01*
X177462023Y-74232173D01*
X177462531Y-74232016D01*
X177456041Y-74211889D01*
X177452110Y-74188871D01*
X177455369Y-74133043D01*
X177456085Y-74130606D01*
X177463661Y-74111089D01*
X177464866Y-74108625D01*
X177475500Y-74035636D01*
X177475500Y-73814364D01*
X177466010Y-73749228D01*
X178449500Y-73749228D01*
X178449500Y-74050770D01*
X178449501Y-74050799D01*
X178488859Y-74349755D01*
X178488860Y-74349760D01*
X178488861Y-74349766D01*
X178525737Y-74487390D01*
X178566912Y-74641058D01*
X178682031Y-74918978D01*
X178682289Y-74919613D01*
X178682316Y-74919668D01*
X178682318Y-74919671D01*
X178833099Y-75180831D01*
X178833100Y-75180832D01*
X178833102Y-75180835D01*
X179016672Y-75420070D01*
X179016676Y-75420075D01*
X179016679Y-75420078D01*
X179016685Y-75420085D01*
X179229914Y-75633314D01*
X179229921Y-75633320D01*
X179229924Y-75633322D01*
X179229928Y-75633326D01*
X179419818Y-75779033D01*
X179469168Y-75816900D01*
X179726892Y-75965697D01*
X179728633Y-75966779D01*
X179732095Y-75968702D01*
X179732683Y-75969042D01*
X179737828Y-75970787D01*
X179916072Y-76044619D01*
X179916071Y-76044619D01*
X180004881Y-76081405D01*
X180006710Y-76082240D01*
X180007194Y-76082424D01*
X180009584Y-76083372D01*
X180012842Y-76084132D01*
X180300232Y-76161138D01*
X180599217Y-76200500D01*
X180599224Y-76200500D01*
X180900776Y-76200500D01*
X180900783Y-76200500D01*
X181199768Y-76161138D01*
X181491058Y-76083087D01*
X181769668Y-75967683D01*
X182030832Y-75816900D01*
X182270080Y-75633319D01*
X182483319Y-75420080D01*
X182666900Y-75180832D01*
X182817683Y-74919668D01*
X182933087Y-74641058D01*
X183011138Y-74349768D01*
X183050500Y-74050783D01*
X183050500Y-73749217D01*
X183011138Y-73450232D01*
X182933087Y-73158942D01*
X182933086Y-73158939D01*
X182817687Y-72880341D01*
X182817685Y-72880336D01*
X182817682Y-72880330D01*
X182817483Y-72879986D01*
X182666900Y-72619168D01*
X182527990Y-72438136D01*
X182483326Y-72379928D01*
X182483322Y-72379924D01*
X182483320Y-72379921D01*
X182483314Y-72379914D01*
X182270085Y-72166685D01*
X182270078Y-72166679D01*
X182270075Y-72166676D01*
X182270070Y-72166672D01*
X182030835Y-71983102D01*
X182030834Y-71983101D01*
X182030831Y-71983099D01*
X181792633Y-71845575D01*
X181769668Y-71832316D01*
X181769618Y-71832292D01*
X181768980Y-71832032D01*
X181718576Y-71811154D01*
X181599470Y-71761818D01*
X181491058Y-71716912D01*
X181336934Y-71675615D01*
X181199766Y-71638861D01*
X181199760Y-71638860D01*
X181199755Y-71638859D01*
X180904883Y-71600039D01*
X180902867Y-71599705D01*
X180900793Y-71599500D01*
X180900788Y-71599500D01*
X180900783Y-71599500D01*
X180599217Y-71599500D01*
X180599211Y-71599500D01*
X180599206Y-71599500D01*
X180597129Y-71599705D01*
X180595115Y-71600039D01*
X180300243Y-71638859D01*
X180300236Y-71638860D01*
X180300233Y-71638861D01*
X180238673Y-71655355D01*
X180008940Y-71716912D01*
X179731018Y-71832032D01*
X179730388Y-71832288D01*
X179730330Y-71832316D01*
X179500017Y-71965287D01*
X179483787Y-71974659D01*
X179469163Y-71983102D01*
X179229928Y-72166672D01*
X179229913Y-72166686D01*
X179229905Y-72166693D01*
X179016693Y-72379905D01*
X179016686Y-72379913D01*
X179016672Y-72379928D01*
X178833102Y-72619163D01*
X178682316Y-72880330D01*
X178682288Y-72880388D01*
X178682032Y-72881018D01*
X178566912Y-73158940D01*
X178525265Y-73314370D01*
X178488862Y-73450232D01*
X178488859Y-73450243D01*
X178449501Y-73749199D01*
X178449500Y-73749228D01*
X177466010Y-73749228D01*
X177464866Y-73741375D01*
X177458321Y-73727988D01*
X177455159Y-73715401D01*
X177455644Y-73703088D01*
X177452676Y-73690133D01*
X177451865Y-73690201D01*
X177450979Y-73679488D01*
X177452665Y-73679348D01*
X177455355Y-73633089D01*
X177456074Y-73630641D01*
X177463661Y-73611089D01*
X177464866Y-73608625D01*
X177475500Y-73535636D01*
X177475500Y-73314364D01*
X177464866Y-73241375D01*
X177464864Y-73241371D01*
X177464864Y-73241369D01*
X177462023Y-73232173D01*
X177462531Y-73232016D01*
X177456041Y-73211889D01*
X177452110Y-73188871D01*
X177455369Y-73133043D01*
X177456085Y-73130606D01*
X177463661Y-73111089D01*
X177464866Y-73108625D01*
X177475500Y-73035636D01*
X177475500Y-72814364D01*
X177464866Y-72741375D01*
X177464864Y-72741371D01*
X177464864Y-72741369D01*
X177462023Y-72732173D01*
X177462531Y-72732016D01*
X177456041Y-72711889D01*
X177452110Y-72688871D01*
X177455369Y-72633043D01*
X177456085Y-72630606D01*
X177463661Y-72611089D01*
X177464866Y-72608625D01*
X177475500Y-72535636D01*
X177475500Y-72314364D01*
X177464866Y-72241375D01*
X177464864Y-72241371D01*
X177464864Y-72241369D01*
X177462023Y-72232173D01*
X177462531Y-72232016D01*
X177456041Y-72211889D01*
X177452110Y-72188871D01*
X177455369Y-72133043D01*
X177456085Y-72130606D01*
X177463661Y-72111089D01*
X177464866Y-72108625D01*
X177475500Y-72035636D01*
X177475500Y-71814364D01*
X177464866Y-71741375D01*
X177464864Y-71741371D01*
X177464864Y-71741369D01*
X177462023Y-71732173D01*
X177462531Y-71732016D01*
X177456041Y-71711889D01*
X177452110Y-71688871D01*
X177455369Y-71633043D01*
X177456085Y-71630606D01*
X177463661Y-71611089D01*
X177464866Y-71608625D01*
X177475500Y-71535636D01*
X177475500Y-71314364D01*
X177464866Y-71241375D01*
X177464864Y-71241371D01*
X177464864Y-71241369D01*
X177462023Y-71232173D01*
X177462531Y-71232016D01*
X177456041Y-71211889D01*
X177452110Y-71188871D01*
X177455369Y-71133043D01*
X177456085Y-71130606D01*
X177463661Y-71111089D01*
X177464866Y-71108625D01*
X177475500Y-71035636D01*
X177475500Y-70814364D01*
X177464866Y-70741375D01*
X177464864Y-70741371D01*
X177464864Y-70741369D01*
X177462023Y-70732173D01*
X177462531Y-70732016D01*
X177456041Y-70711889D01*
X177452110Y-70688871D01*
X177455369Y-70633043D01*
X177456085Y-70630606D01*
X177463661Y-70611089D01*
X177464866Y-70608625D01*
X177475500Y-70535636D01*
X177475500Y-70314364D01*
X177464866Y-70241375D01*
X177464864Y-70241371D01*
X177464864Y-70241369D01*
X177462023Y-70232173D01*
X177462531Y-70232016D01*
X177456041Y-70211889D01*
X177452110Y-70188871D01*
X177455369Y-70133043D01*
X177456085Y-70130606D01*
X177463661Y-70111089D01*
X177464866Y-70108625D01*
X177475500Y-70035636D01*
X177475500Y-69814364D01*
X177464866Y-69741375D01*
X177464864Y-69741371D01*
X177464864Y-69741369D01*
X177462023Y-69732173D01*
X177462531Y-69732016D01*
X177456041Y-69711889D01*
X177452110Y-69688871D01*
X177455369Y-69633043D01*
X177456085Y-69630606D01*
X177463661Y-69611089D01*
X177464866Y-69608625D01*
X177475500Y-69535636D01*
X177475500Y-69314364D01*
X177464866Y-69241375D01*
X177459043Y-69229464D01*
X177409827Y-69128789D01*
X177409826Y-69128788D01*
X177409826Y-69128787D01*
X177321212Y-69040173D01*
X177319573Y-69039372D01*
X177209076Y-68985354D01*
X177208635Y-68985135D01*
X177204649Y-68984194D01*
X177199737Y-68983839D01*
X177193468Y-68982925D01*
X177135636Y-68974500D01*
X177135631Y-68974500D01*
X176282180Y-68974500D01*
X176247245Y-68969477D01*
X176236391Y-68966290D01*
X176177613Y-68928516D01*
X176148588Y-68864960D01*
X176158528Y-68795811D01*
X176161718Y-68788824D01*
X176186827Y-68752660D01*
X177990064Y-66949423D01*
X178018314Y-66928275D01*
X178041406Y-66915667D01*
X178100831Y-66900500D01*
X180802725Y-66900500D01*
X180802727Y-66900500D01*
X180904588Y-66873207D01*
X180995913Y-66820480D01*
X181670480Y-66145913D01*
X181723207Y-66054588D01*
X181750500Y-65952727D01*
X181750500Y-65847273D01*
X181750500Y-65768457D01*
X181765575Y-65709200D01*
X181984267Y-65307207D01*
X181993941Y-65292135D01*
X181994965Y-65290768D01*
X182006521Y-65277436D01*
X182015348Y-65268608D01*
X182018821Y-65265133D01*
X182080141Y-65231644D01*
X182149830Y-65236622D01*
G37*
%TD.AperFunction*%
%TA.AperFunction,Conductor*%
G36*
X170395706Y-65218779D02*
G01*
X170433564Y-65233876D01*
X170456395Y-65247703D01*
X171660455Y-65976923D01*
X172481386Y-66283977D01*
X172527243Y-66301129D01*
X172537607Y-66308902D01*
X172558202Y-66318071D01*
X172570706Y-66327449D01*
X172581378Y-66341732D01*
X172583138Y-66343052D01*
X172583904Y-66345113D01*
X172612526Y-66383418D01*
X172616720Y-66394693D01*
X172624500Y-66437924D01*
X172624500Y-66526270D01*
X172619476Y-66561208D01*
X172616289Y-66572061D01*
X172578514Y-66630838D01*
X172514957Y-66659861D01*
X172445807Y-66649920D01*
X172438829Y-66646733D01*
X172402659Y-66621621D01*
X172321210Y-66540172D01*
X172209076Y-66485354D01*
X172208635Y-66485135D01*
X172204649Y-66484194D01*
X172199737Y-66483839D01*
X172193468Y-66482925D01*
X172135636Y-66474500D01*
X172135631Y-66474500D01*
X171914364Y-66474500D01*
X171851802Y-66483614D01*
X171851798Y-66483614D01*
X171841376Y-66485133D01*
X171832180Y-66487976D01*
X171832022Y-66487466D01*
X171811882Y-66493960D01*
X171788860Y-66497890D01*
X171733064Y-66494636D01*
X171730632Y-66493922D01*
X171711103Y-66486345D01*
X171708629Y-66485135D01*
X171708626Y-66485134D01*
X171698198Y-66483614D01*
X171635636Y-66474500D01*
X171635630Y-66474500D01*
X171414353Y-66474500D01*
X171414075Y-66474541D01*
X171413786Y-66474541D01*
X171409886Y-66474824D01*
X171409866Y-66474548D01*
X171378795Y-66474606D01*
X171363484Y-66472434D01*
X171299874Y-66443529D01*
X171293220Y-66437345D01*
X171236890Y-66381016D01*
X171236853Y-66380979D01*
X171231808Y-66376050D01*
X171222679Y-66370101D01*
X171202696Y-66353893D01*
X170569588Y-65720785D01*
X170569561Y-65720759D01*
X170281010Y-65432208D01*
X170259860Y-65403956D01*
X170258919Y-65402232D01*
X170256931Y-65398593D01*
X170242079Y-65330321D01*
X170266495Y-65264856D01*
X170322427Y-65222984D01*
X170392114Y-65217998D01*
X170395706Y-65218779D01*
G37*
%TD.AperFunction*%
%TD*%
%TA.AperFunction,Conductor*%
%TO.N,GND*%
G36*
X177877522Y-61709978D02*
G01*
X177989805Y-61989664D01*
X177523262Y-62205659D01*
X177381841Y-62064238D01*
X177597836Y-61597695D01*
X177877522Y-61709978D01*
G37*
%TD.AperFunction*%
%TD*%
%TA.AperFunction,Conductor*%
%TO.N,GND*%
G36*
X175672282Y-61565927D02*
G01*
X175675686Y-61573470D01*
X175724834Y-62359858D01*
X175724012Y-62364954D01*
X175581744Y-62718655D01*
X175575477Y-62725052D01*
X175566523Y-62725144D01*
X175562462Y-62722406D01*
X174982595Y-62120385D01*
X174979324Y-62112049D01*
X174982365Y-62104398D01*
X175471518Y-61566330D01*
X175479618Y-61562513D01*
X175480175Y-61562500D01*
X175664009Y-61562500D01*
X175672282Y-61565927D01*
G37*
%TD.AperFunction*%
%TD*%
%TA.AperFunction,Conductor*%
%TO.N,+3.3V*%
G36*
X165769383Y-64278302D02*
G01*
X165773670Y-64279429D01*
X166151267Y-64460805D01*
X166154913Y-64463542D01*
X166157015Y-64465889D01*
X166159999Y-64473693D01*
X166159999Y-64655312D01*
X166159108Y-64659790D01*
X166157904Y-64662696D01*
X166152161Y-64668764D01*
X165773673Y-64850568D01*
X165769380Y-64851696D01*
X165765195Y-64851973D01*
X165760789Y-64851421D01*
X165158092Y-64654538D01*
X164920255Y-64576843D01*
X164916277Y-64574607D01*
X164915321Y-64573788D01*
X164911268Y-64565804D01*
X164914046Y-64557293D01*
X164914428Y-64556848D01*
X164919673Y-64553345D01*
X165760793Y-64278576D01*
X165765193Y-64278025D01*
X165769383Y-64278302D01*
G37*
%TD.AperFunction*%
%TD*%
%TA.AperFunction,Conductor*%
%TO.N,+3.3V*%
G36*
X156825914Y-71228427D02*
G01*
X156828187Y-71231634D01*
X157011405Y-71613066D01*
X157011899Y-71622007D01*
X157011794Y-71622293D01*
X156735935Y-72347262D01*
X156729790Y-72353776D01*
X156720839Y-72354036D01*
X156714325Y-72347891D01*
X156714065Y-72347262D01*
X156438205Y-71622293D01*
X156438465Y-71613342D01*
X156438594Y-71613066D01*
X156621813Y-71231634D01*
X156628484Y-71225660D01*
X156632359Y-71225000D01*
X156817641Y-71225000D01*
X156825914Y-71228427D01*
G37*
%TD.AperFunction*%
%TD*%
%TA.AperFunction,Conductor*%
%TO.N,+3.3V*%
G36*
X171076101Y-66689857D02*
G01*
X171078445Y-66692709D01*
X171128667Y-66778535D01*
X171130149Y-66786117D01*
X171034106Y-67450911D01*
X171029531Y-67458609D01*
X171020853Y-67460818D01*
X171013155Y-67456243D01*
X171011115Y-67451822D01*
X170875787Y-66853479D01*
X170875499Y-66850898D01*
X170875499Y-66822870D01*
X170875499Y-66822868D01*
X170875261Y-66821672D01*
X170875037Y-66819388D01*
X170875172Y-66709670D01*
X170878609Y-66701403D01*
X170886158Y-66698008D01*
X171067637Y-66686940D01*
X171076101Y-66689857D01*
G37*
%TD.AperFunction*%
%TD*%
%TA.AperFunction,Conductor*%
%TO.N,+3.3V*%
G36*
X171033724Y-67563596D02*
G01*
X171035338Y-67567731D01*
X171155177Y-68221238D01*
X171154853Y-68226784D01*
X171103426Y-68394162D01*
X171097720Y-68401064D01*
X171091924Y-68402422D01*
X170911019Y-68397499D01*
X170902842Y-68393848D01*
X170899716Y-68387157D01*
X170875577Y-68179953D01*
X170875499Y-68178631D01*
X170875499Y-68174085D01*
X170875785Y-68171524D01*
X171012418Y-67567259D01*
X171017585Y-67559947D01*
X171026410Y-67558429D01*
X171033724Y-67563596D01*
G37*
%TD.AperFunction*%
%TD*%
%TA.AperFunction,Conductor*%
%TO.N,/OSC+*%
G36*
X172137086Y-62566521D02*
G01*
X172817386Y-62710036D01*
X172821580Y-62711831D01*
X172824479Y-62713817D01*
X172828682Y-62719007D01*
X173068110Y-63299369D01*
X173068994Y-63303844D01*
X173068992Y-63305625D01*
X173065556Y-63313894D01*
X173065548Y-63313902D01*
X173064349Y-63315096D01*
X173060392Y-63317688D01*
X172316106Y-63611735D01*
X172314530Y-63612232D01*
X172312938Y-63612613D01*
X172311308Y-63612883D01*
X172290297Y-63614854D01*
X172290291Y-63614855D01*
X172290286Y-63614856D01*
X172162122Y-63659702D01*
X172162107Y-63659712D01*
X172126438Y-63686036D01*
X172125163Y-63686855D01*
X172123846Y-63687585D01*
X172122473Y-63688234D01*
X171913919Y-63770628D01*
X171909426Y-63771444D01*
X171906358Y-63771393D01*
X171898279Y-63767968D01*
X171769979Y-63639668D01*
X171767443Y-63635872D01*
X171766231Y-63632946D01*
X171765958Y-63624719D01*
X171769297Y-63614855D01*
X172120923Y-62576013D01*
X172123200Y-62572061D01*
X172124639Y-62570417D01*
X172131972Y-62566518D01*
X172133212Y-62566362D01*
X172137086Y-62566521D01*
G37*
%TD.AperFunction*%
%TD*%
%TA.AperFunction,Conductor*%
%TO.N,GND*%
G36*
X178175000Y-61712500D02*
G01*
X178075000Y-62293631D01*
X177875000Y-62293631D01*
X177775000Y-61995343D01*
X177975000Y-61692631D01*
X178175000Y-61712500D01*
G37*
%TD.AperFunction*%
%TD*%
%TA.AperFunction,Conductor*%
%TO.N,GND*%
G36*
X176162829Y-61537500D02*
G01*
X176162829Y-61737500D01*
X175575000Y-61862500D01*
X175561829Y-61637500D01*
X175834808Y-61412500D01*
X176162829Y-61537500D01*
G37*
%TD.AperFunction*%
%TD*%
%TA.AperFunction,Conductor*%
%TO.N,+3.3V*%
G36*
X158876074Y-66769048D02*
G01*
X158992061Y-66885035D01*
X158995488Y-66893308D01*
X158992061Y-66901581D01*
X158985107Y-66904933D01*
X158962500Y-66907498D01*
X158962500Y-66907499D01*
X159153922Y-67091744D01*
X159157506Y-67099950D01*
X159154238Y-67108287D01*
X159154095Y-67108432D01*
X158870787Y-67392685D01*
X158862519Y-67396126D01*
X158854241Y-67392713D01*
X158854213Y-67392685D01*
X158570904Y-67108432D01*
X158567491Y-67100154D01*
X158570932Y-67091886D01*
X158571009Y-67091809D01*
X158762500Y-66907499D01*
X158790899Y-66838936D01*
X158793431Y-66835145D01*
X158859531Y-66769046D01*
X158867801Y-66765621D01*
X158876074Y-66769048D01*
G37*
%TD.AperFunction*%
%TD*%
%TA.AperFunction,Conductor*%
%TO.N,+3.3V*%
G36*
X172124156Y-68106787D02*
G01*
X172127228Y-68112201D01*
X172191795Y-68368412D01*
X172190889Y-68376554D01*
X172029021Y-68696414D01*
X172022228Y-68702248D01*
X172016270Y-68702600D01*
X171867724Y-68672652D01*
X171860291Y-68667658D01*
X171858419Y-68659793D01*
X171923766Y-68113669D01*
X171928151Y-68105863D01*
X171935383Y-68103360D01*
X172115883Y-68103360D01*
X172124156Y-68106787D01*
G37*
%TD.AperFunction*%
%TD*%
%TA.AperFunction,Conductor*%
%TO.N,GND*%
G36*
X170431844Y-64787500D02*
G01*
X170431844Y-64987500D01*
X169875000Y-65037500D01*
X169830844Y-64887500D01*
X170175000Y-64737500D01*
X170431844Y-64787500D01*
G37*
%TD.AperFunction*%
%TD*%
%TA.AperFunction,Conductor*%
%TO.N,GND*%
G36*
X177618159Y-64960762D02*
G01*
X177402164Y-65427305D01*
X177122478Y-65315022D01*
X177010195Y-65035336D01*
X177476738Y-64819341D01*
X177618159Y-64960762D01*
G37*
%TD.AperFunction*%
%TD*%
%TA.AperFunction,Conductor*%
%TO.N,/NRST*%
G36*
X182301081Y-64024090D02*
G01*
X183098289Y-64344728D01*
X183102114Y-64347228D01*
X183103387Y-64348476D01*
X183106895Y-64356709D01*
X183106913Y-64358437D01*
X183106032Y-64363016D01*
X182928621Y-64793632D01*
X182926091Y-64797433D01*
X182923311Y-64800223D01*
X182918767Y-64803050D01*
X182462847Y-64957055D01*
X182458317Y-64957644D01*
X182456402Y-64957515D01*
X182448540Y-64953721D01*
X182447462Y-64952538D01*
X182445187Y-64948850D01*
X182145531Y-64167660D01*
X182144760Y-64163165D01*
X182144842Y-64160072D01*
X182148264Y-64152113D01*
X182276290Y-64024087D01*
X182280081Y-64021554D01*
X182282910Y-64020382D01*
X182291752Y-64020338D01*
X182301081Y-64024090D01*
G37*
%TD.AperFunction*%
%TD*%
%TA.AperFunction,Conductor*%
%TO.N,GND*%
G36*
X175019662Y-62710517D02*
G01*
X175027049Y-62715578D01*
X175028062Y-62717503D01*
X175268998Y-63301520D01*
X175268985Y-63310475D01*
X175262644Y-63316798D01*
X175262481Y-63316864D01*
X174515338Y-63612038D01*
X174512132Y-63612805D01*
X174490297Y-63614854D01*
X174490291Y-63614855D01*
X174490286Y-63614856D01*
X174362126Y-63659701D01*
X174362122Y-63659703D01*
X174325830Y-63686487D01*
X174323182Y-63687955D01*
X174111757Y-63771483D01*
X174102803Y-63771335D01*
X174099185Y-63768874D01*
X173968334Y-63638023D01*
X173964907Y-63629750D01*
X173965525Y-63625999D01*
X173969297Y-63614855D01*
X174321669Y-62573811D01*
X174327566Y-62567075D01*
X174335163Y-62566116D01*
X175019662Y-62710517D01*
G37*
%TD.AperFunction*%
%TD*%
%TA.AperFunction,Conductor*%
%TO.N,/OSC-*%
G36*
X175577504Y-63833395D02*
G01*
X175618212Y-63844511D01*
X176314138Y-64034534D01*
X176318222Y-64036573D01*
X176320332Y-64038208D01*
X176324470Y-64044439D01*
X176324604Y-64044941D01*
X176325000Y-64047958D01*
X176325000Y-64229692D01*
X176324108Y-64234172D01*
X176322635Y-64237726D01*
X176319317Y-64242234D01*
X175734378Y-64729683D01*
X175730367Y-64731866D01*
X175728126Y-64732564D01*
X175720098Y-64732173D01*
X175719169Y-64731781D01*
X175716110Y-64729890D01*
X175038509Y-64149918D01*
X175035687Y-64146330D01*
X175034881Y-64144744D01*
X175034182Y-64135832D01*
X175034202Y-64135767D01*
X175034367Y-64135263D01*
X175039778Y-64128668D01*
X175564488Y-63834988D01*
X175568775Y-63833587D01*
X175573006Y-63833070D01*
X175577504Y-63833395D01*
G37*
%TD.AperFunction*%
%TD*%
%TA.AperFunction,Conductor*%
%TO.N,/SWCLK*%
G36*
X169377097Y-75690413D02*
G01*
X169380111Y-75692577D01*
X169517643Y-75829199D01*
X169521097Y-75837461D01*
X169517698Y-75845746D01*
X169517643Y-75845801D01*
X169380111Y-75982422D01*
X169371826Y-75985821D01*
X169368165Y-75985221D01*
X169233000Y-75940166D01*
X169226235Y-75934298D01*
X169225000Y-75929066D01*
X169225000Y-75745933D01*
X169228427Y-75737660D01*
X169232998Y-75734833D01*
X169368165Y-75689778D01*
X169377097Y-75690413D01*
G37*
%TD.AperFunction*%
%TD*%
%TA.AperFunction,Conductor*%
%TO.N,+3.3V*%
G36*
X155903226Y-68056495D02*
G01*
X156395565Y-68446487D01*
X156399922Y-68454309D01*
X156400000Y-68455657D01*
X156400000Y-68644342D01*
X156396573Y-68652615D01*
X156395565Y-68653513D01*
X155903229Y-69043503D01*
X155894616Y-69045954D01*
X155887658Y-69042572D01*
X155501690Y-68653513D01*
X155407173Y-68558239D01*
X155403780Y-68549953D01*
X155407173Y-68541760D01*
X155887659Y-68057426D01*
X155895917Y-68053967D01*
X155903226Y-68056495D01*
G37*
%TD.AperFunction*%
%TD*%
%TA.AperFunction,Conductor*%
%TO.N,GND*%
G36*
X172623919Y-66628427D02*
G01*
X172627059Y-66634125D01*
X172668731Y-66818821D01*
X172668772Y-66823784D01*
X172536454Y-67458552D01*
X172531411Y-67465951D01*
X172522612Y-67467618D01*
X172515213Y-67462575D01*
X172513546Y-67458552D01*
X172381227Y-66823784D01*
X172381268Y-66818821D01*
X172422941Y-66634125D01*
X172428105Y-66626809D01*
X172434354Y-66625000D01*
X172615646Y-66625000D01*
X172623919Y-66628427D01*
G37*
%TD.AperFunction*%
%TD*%
%TA.AperFunction,Conductor*%
%TO.N,/NRST*%
G36*
X179355352Y-64383780D02*
G01*
X179355645Y-64384099D01*
X179694155Y-64767253D01*
X179697065Y-64775722D01*
X179694155Y-64782747D01*
X179355645Y-65165900D01*
X179347599Y-65169831D01*
X179339130Y-65166921D01*
X179338811Y-65166628D01*
X179032410Y-64874999D01*
X179015702Y-64921905D01*
X179009697Y-64928549D01*
X179000754Y-64929001D01*
X178996407Y-64926252D01*
X178876344Y-64806189D01*
X178872917Y-64797916D01*
X178876342Y-64789646D01*
X178960056Y-64705931D01*
X178963847Y-64703399D01*
X179032410Y-64675000D01*
X179338812Y-64383370D01*
X179347166Y-64380150D01*
X179355352Y-64383780D01*
G37*
%TD.AperFunction*%
%TD*%
%TA.AperFunction,Conductor*%
%TO.N,+3.3V*%
G36*
X171534787Y-67562424D02*
G01*
X171536454Y-67566447D01*
X171668772Y-68201215D01*
X171668731Y-68206178D01*
X171627059Y-68390875D01*
X171621895Y-68398191D01*
X171615646Y-68400000D01*
X171434354Y-68400000D01*
X171426081Y-68396573D01*
X171422941Y-68390875D01*
X171381268Y-68206178D01*
X171381227Y-68201215D01*
X171513546Y-67566447D01*
X171518589Y-67559048D01*
X171527388Y-67557381D01*
X171534787Y-67562424D01*
G37*
%TD.AperFunction*%
%TD*%
%TA.AperFunction,Conductor*%
%TO.N,GND*%
G36*
X173881536Y-63720623D02*
G01*
X173882566Y-63721539D01*
X174013938Y-63852911D01*
X174017365Y-63861184D01*
X174016069Y-63866536D01*
X173737091Y-64408868D01*
X173734995Y-64411754D01*
X173734764Y-64411986D01*
X173734727Y-64412024D01*
X173734726Y-64412025D01*
X173701074Y-64445678D01*
X173681138Y-64465611D01*
X173661202Y-64485546D01*
X173601188Y-64581058D01*
X173563939Y-64687509D01*
X173563884Y-64687833D01*
X173563866Y-64688167D01*
X173555817Y-64759600D01*
X173554595Y-64763642D01*
X173511056Y-64848283D01*
X173504225Y-64854072D01*
X173495836Y-64853594D01*
X173081196Y-64666324D01*
X173075067Y-64659795D01*
X173074312Y-64655631D01*
X173074944Y-64408868D01*
X173076445Y-63822867D01*
X173079893Y-63814605D01*
X173086766Y-63811280D01*
X173872917Y-63718193D01*
X173881536Y-63720623D01*
G37*
%TD.AperFunction*%
%TD*%
%TA.AperFunction,Conductor*%
%TO.N,GND*%
G36*
X170162500Y-62134808D02*
G01*
X170037500Y-62462829D01*
X169837500Y-62462829D01*
X169712500Y-61875000D01*
X169937500Y-61861829D01*
X170162500Y-62134808D01*
G37*
%TD.AperFunction*%
%TD*%
%TA.AperFunction,Conductor*%
%TO.N,/USART1_RX*%
G36*
X170518686Y-74921112D02*
G01*
X170522478Y-74923647D01*
X170593249Y-74994417D01*
X170594705Y-74996192D01*
X170595962Y-74998074D01*
X170597042Y-75000095D01*
X170624956Y-75067487D01*
X170624985Y-75067558D01*
X170624996Y-75067583D01*
X170625003Y-75067598D01*
X170666095Y-75140620D01*
X170667461Y-75144568D01*
X170668069Y-75148496D01*
X170667961Y-75152674D01*
X170536928Y-75781274D01*
X170535144Y-75785472D01*
X170534435Y-75786513D01*
X170526946Y-75791422D01*
X170518179Y-75789597D01*
X170518143Y-75789572D01*
X170518032Y-75789495D01*
X170518005Y-75789476D01*
X170513284Y-75782296D01*
X170507361Y-75753882D01*
X170382037Y-75152671D01*
X170381929Y-75148494D01*
X170382536Y-75144571D01*
X170383901Y-75140624D01*
X170421645Y-75073551D01*
X170424582Y-75071245D01*
X170424712Y-75070111D01*
X170425168Y-75068766D01*
X170425162Y-75067627D01*
X170393971Y-75060423D01*
X170389811Y-75058549D01*
X170388361Y-75057515D01*
X170383627Y-75049994D01*
X170383623Y-75049971D01*
X170384916Y-75042296D01*
X170385267Y-75041663D01*
X170387220Y-75039071D01*
X170502646Y-74923645D01*
X170506433Y-74921114D01*
X170508085Y-74920429D01*
X170517035Y-74920429D01*
X170518686Y-74921112D01*
G37*
%TD.AperFunction*%
%TD*%
%TA.AperFunction,Conductor*%
%TO.N,GND*%
G36*
X177643381Y-61807455D02*
G01*
X177647066Y-61809945D01*
X177777649Y-61940528D01*
X177781076Y-61948801D01*
X177780300Y-61952991D01*
X177479024Y-62738405D01*
X177472861Y-62744902D01*
X177464356Y-62745300D01*
X177004338Y-62589911D01*
X176997596Y-62584016D01*
X176997264Y-62583283D01*
X176818098Y-62148409D01*
X176818115Y-62139454D01*
X176824459Y-62133134D01*
X177634429Y-61807363D01*
X177643381Y-61807455D01*
G37*
%TD.AperFunction*%
%TD*%
%TA.AperFunction,Conductor*%
%TO.N,+3.3V*%
G36*
X172452158Y-68635107D02*
G01*
X172456476Y-68642315D01*
X172495711Y-68867673D01*
X172524109Y-68936230D01*
X172525000Y-68940707D01*
X172525000Y-69145298D01*
X172521573Y-69153571D01*
X172513300Y-69156998D01*
X172339244Y-69156998D01*
X172330971Y-69153571D01*
X172327544Y-69145298D01*
X172327767Y-69143025D01*
X172354289Y-69009093D01*
X172128933Y-68969858D01*
X172121370Y-68965063D01*
X172119326Y-68956913D01*
X172153504Y-68677081D01*
X172157909Y-68669285D01*
X172163699Y-68666886D01*
X172443531Y-68632708D01*
X172452158Y-68635107D01*
G37*
%TD.AperFunction*%
%TD*%
%TA.AperFunction,Conductor*%
%TO.N,/CAN_RX*%
G36*
X165769383Y-65548302D02*
G01*
X165773670Y-65549429D01*
X166151267Y-65730805D01*
X166154913Y-65733542D01*
X166157015Y-65735889D01*
X166159999Y-65743693D01*
X166159999Y-65925312D01*
X166159108Y-65929790D01*
X166157904Y-65932696D01*
X166152161Y-65938764D01*
X165773673Y-66120568D01*
X165769380Y-66121696D01*
X165765195Y-66121973D01*
X165760789Y-66121421D01*
X165158092Y-65924538D01*
X164920255Y-65846843D01*
X164916277Y-65844607D01*
X164915321Y-65843788D01*
X164911268Y-65835804D01*
X164914046Y-65827293D01*
X164914428Y-65826848D01*
X164919673Y-65823345D01*
X165760793Y-65548576D01*
X165765193Y-65548025D01*
X165769383Y-65548302D01*
G37*
%TD.AperFunction*%
%TD*%
%TA.AperFunction,Conductor*%
%TO.N,/CAN_TX*%
G36*
X168124840Y-68628427D02*
G01*
X168127667Y-68633000D01*
X168172721Y-68768165D01*
X168172086Y-68777097D01*
X168169922Y-68780111D01*
X168033301Y-68917643D01*
X168025039Y-68921097D01*
X168016754Y-68917698D01*
X168016699Y-68917643D01*
X167880077Y-68780111D01*
X167876678Y-68771826D01*
X167877278Y-68768165D01*
X167922333Y-68633000D01*
X167928201Y-68626235D01*
X167933433Y-68625000D01*
X168116567Y-68625000D01*
X168124840Y-68628427D01*
G37*
%TD.AperFunction*%
%TD*%
%TA.AperFunction,Conductor*%
%TO.N,+3.3V*%
G36*
X164199696Y-64270807D02*
G01*
X164204456Y-64278392D01*
X164204166Y-64283572D01*
X164041088Y-64851828D01*
X164035512Y-64858835D01*
X164029284Y-64860288D01*
X163773094Y-64848058D01*
X163765379Y-64844644D01*
X163634661Y-64713926D01*
X163631234Y-64705653D01*
X163633894Y-64698226D01*
X163951158Y-64312309D01*
X163958240Y-64308204D01*
X164190967Y-64268809D01*
X164199696Y-64270807D01*
G37*
%TD.AperFunction*%
%TD*%
%TA.AperFunction,Conductor*%
%TO.N,GND*%
G36*
X177888171Y-61637500D02*
G01*
X177615192Y-61862500D01*
X177287171Y-61737500D01*
X177287171Y-61537500D01*
X177875000Y-61412500D01*
X177888171Y-61637500D01*
G37*
%TD.AperFunction*%
%TD*%
M02*
