%TF.GenerationSoftware,KiCad,Pcbnew,10.0.5*%
%TF.CreationDate,2026-10-04T22:50:42+08:00*%
%TF.ProjectId,TTLtoCANforTOF,54544c74-6f43-4414-9e66-6f72544f462e,rev?*%
%TF.SameCoordinates,Original*%
%TF.FileFunction,Copper,L2,Bot*%
%TF.FilePolarity,Positive*%
%FSLAX46Y46*%
G04 Gerber Fmt 4.6, Leading zero omitted, Abs format (unit mm)*
G04 Created by KiCad (PCBNEW 10.0.5) date 2026-10-04 22:50:42*
%MOMM*%
%LPD*%
G01*
G04 APERTURE LIST*
G04 Aperture macros list*
%AMRoundRect*
0 Rectangle with rounded corners*
0 $1 Rounding radius*
0 $2 $3 $4 $5 $6 $7 $8 $9 X,Y pos of 4 corners*
0 Add a 4 corners polygon primitive as box body*
4,1,4,$2,$3,$4,$5,$6,$7,$8,$9,$2,$3,0*
0 Add four circle primitives for the rounded corners*
1,1,$1+$1,$2,$3*
1,1,$1+$1,$4,$5*
1,1,$1+$1,$6,$7*
1,1,$1+$1,$8,$9*
0 Add four rect primitives between the rounded corners*
20,1,$1+$1,$2,$3,$4,$5,0*
20,1,$1+$1,$4,$5,$6,$7,0*
20,1,$1+$1,$6,$7,$8,$9,0*
20,1,$1+$1,$8,$9,$2,$3,0*%
G04 Aperture macros list end*
%TA.AperFunction,SMDPad,CuDef*%
%ADD10RoundRect,0.075000X-0.662500X0.075000X-0.662500X-0.075000X0.662500X-0.075000X0.662500X0.075000X0*%
%TD*%
%TA.AperFunction,SMDPad,CuDef*%
%ADD11RoundRect,0.075000X0.075000X0.662500X-0.075000X0.662500X-0.075000X-0.662500X0.075000X-0.662500X0*%
%TD*%
%TA.AperFunction,SMDPad,CuDef*%
%ADD12RoundRect,0.075000X-0.075000X0.662500X-0.075000X-0.662500X0.075000X-0.662500X0.075000X0.662500X0*%
%TD*%
%TA.AperFunction,SMDPad,CuDef*%
%ADD13RoundRect,0.250000X-0.450000X-0.350000X0.450000X-0.350000X0.450000X0.350000X-0.450000X0.350000X0*%
%TD*%
%TA.AperFunction,ComponentPad*%
%ADD14C,4.000000*%
%TD*%
%TA.AperFunction,ComponentPad*%
%ADD15RoundRect,0.760000X-1.140000X1.140000X-1.140000X-1.140000X1.140000X-1.140000X1.140000X1.140000X0*%
%TD*%
%TA.AperFunction,SMDPad,CuDef*%
%ADD16RoundRect,0.150000X0.150000X0.700000X-0.150000X0.700000X-0.150000X-0.700000X0.150000X-0.700000X0*%
%TD*%
%TA.AperFunction,SMDPad,CuDef*%
%ADD17RoundRect,0.250000X0.250000X1.100000X-0.250000X1.100000X-0.250000X-1.100000X0.250000X-1.100000X0*%
%TD*%
%TA.AperFunction,SMDPad,CuDef*%
%ADD18RoundRect,0.218750X0.256250X-0.218750X0.256250X0.218750X-0.256250X0.218750X-0.256250X-0.218750X0*%
%TD*%
%TA.AperFunction,SMDPad,CuDef*%
%ADD19RoundRect,0.200000X-0.275000X0.200000X-0.275000X-0.200000X0.275000X-0.200000X0.275000X0.200000X0*%
%TD*%
%TA.AperFunction,SMDPad,CuDef*%
%ADD20RoundRect,0.225000X0.250000X-0.225000X0.250000X0.225000X-0.250000X0.225000X-0.250000X-0.225000X0*%
%TD*%
%TA.AperFunction,SMDPad,CuDef*%
%ADD21RoundRect,0.225000X-0.250000X0.225000X-0.250000X-0.225000X0.250000X-0.225000X0.250000X0.225000X0*%
%TD*%
%TA.AperFunction,SMDPad,CuDef*%
%ADD22C,1.000000*%
%TD*%
%TA.AperFunction,SMDPad,CuDef*%
%ADD23RoundRect,0.200000X0.200000X0.275000X-0.200000X0.275000X-0.200000X-0.275000X0.200000X-0.275000X0*%
%TD*%
%TA.AperFunction,SMDPad,CuDef*%
%ADD24RoundRect,0.150000X0.825000X0.150000X-0.825000X0.150000X-0.825000X-0.150000X0.825000X-0.150000X0*%
%TD*%
%TA.AperFunction,SMDPad,CuDef*%
%ADD25RoundRect,0.250000X0.250000X0.475000X-0.250000X0.475000X-0.250000X-0.475000X0.250000X-0.475000X0*%
%TD*%
%TA.AperFunction,SMDPad,CuDef*%
%ADD26RoundRect,0.150000X-0.700000X0.150000X-0.700000X-0.150000X0.700000X-0.150000X0.700000X0.150000X0*%
%TD*%
%TA.AperFunction,SMDPad,CuDef*%
%ADD27RoundRect,0.250000X-1.150000X0.250000X-1.150000X-0.250000X1.150000X-0.250000X1.150000X0.250000X0*%
%TD*%
%TA.AperFunction,SMDPad,CuDef*%
%ADD28RoundRect,0.250000X-0.475000X0.250000X-0.475000X-0.250000X0.475000X-0.250000X0.475000X0.250000X0*%
%TD*%
%TA.AperFunction,SMDPad,CuDef*%
%ADD29RoundRect,0.150000X0.512500X0.150000X-0.512500X0.150000X-0.512500X-0.150000X0.512500X-0.150000X0*%
%TD*%
%TA.AperFunction,ViaPad*%
%ADD30C,0.600000*%
%TD*%
%TA.AperFunction,Conductor*%
%ADD31C,0.200000*%
%TD*%
%TA.AperFunction,Conductor*%
%ADD32C,0.300000*%
%TD*%
%TA.AperFunction,Conductor*%
%ADD33C,0.500000*%
%TD*%
%TA.AperFunction,Conductor*%
%ADD34C,0.350000*%
%TD*%
%TA.AperFunction,Conductor*%
%ADD35C,0.400000*%
%TD*%
%TA.AperFunction,Conductor*%
%ADD36C,0.600000*%
%TD*%
G04 APERTURE END LIST*
D10*
%TO.P,U3,48,PB9_48*%
%TO.N,/CAN_TX*%
X168112500Y-68925000D03*
%TO.P,U3,47,PB8_47*%
%TO.N,/CAN_RX*%
X168112500Y-69425000D03*
%TO.P,U3,46,PB7_46*%
%TO.N,unconnected-(U3-PB7-Pad46)*%
X168112500Y-69925000D03*
D11*
%TO.P,U3,44,PB5_44*%
%TO.N,unconnected-(U3-PB5-Pad44)*%
X173025000Y-75855000D03*
D10*
%TO.P,U3,43,PB4_43*%
%TO.N,unconnected-(U3-PB4-Pad43)*%
X168112500Y-71425000D03*
%TO.P,U3,42,PB3_42*%
%TO.N,unconnected-(U3-PB3-Pad42)*%
X168112500Y-71925000D03*
%TO.P,U3,41,PD3_41*%
%TO.N,unconnected-(U3-PD3-Pad41)*%
X168112500Y-72425000D03*
%TO.P,U3,40,PD2_40*%
%TO.N,unconnected-(U3-PD2-Pad40)*%
X168112500Y-72925000D03*
%TO.P,U3,39,PD1_39*%
%TO.N,unconnected-(U3-PD1-Pad39)*%
X168112500Y-73425000D03*
%TO.P,U3,38,PD0_38*%
%TO.N,/LED*%
X168112500Y-73925000D03*
%TO.P,U3,37,PA15_37*%
%TO.N,unconnected-(U3-PA15-Pad37)*%
X168112500Y-74425000D03*
D12*
%TO.P,U3,36,PA14_36*%
%TO.N,/SWCLK*%
X169525000Y-75837500D03*
%TO.P,U3,35,PA13_35*%
%TO.N,/SWDIO*%
X170025000Y-75837500D03*
%TO.P,U3,34,PA10/PA12_34*%
%TO.N,/USART1_RX*%
X170525000Y-75837500D03*
%TO.P,U3,33,PA9/PA11_33*%
%TO.N,/USART1_TX*%
X171025000Y-75837500D03*
%TO.P,U3,32,PA10/UCPD1_DBCC2_32*%
%TO.N,unconnected-(U3-PA10{slash}UCPD1_DBCC2-Pad32)*%
X171525000Y-75837500D03*
%TO.P,U3,31,PC7_31*%
%TO.N,unconnected-(U3-PC7-Pad31)*%
X172025000Y-75837500D03*
%TO.P,U3,30,PC6_30*%
%TO.N,unconnected-(U3-PC6-Pad30)*%
X172525000Y-75837500D03*
%TO.P,U3,28,PA8_28*%
%TO.N,unconnected-(U3-PA8-Pad28)*%
X173525000Y-75837500D03*
%TO.P,U3,27,PB15_27*%
%TO.N,unconnected-(U3-PB15-Pad27)*%
X174025000Y-75837500D03*
%TO.P,U3,26,PB14_26*%
%TO.N,unconnected-(U3-PB14-Pad26)*%
X174525000Y-75837500D03*
%TO.P,U3,25,PB13_25*%
%TO.N,unconnected-(U3-PB13-Pad25)*%
X175025000Y-75837500D03*
D10*
%TO.P,U3,24,PB12_24*%
%TO.N,unconnected-(U3-PB12-Pad24)*%
X176437500Y-74425000D03*
%TO.P,U3,23,PB11_23*%
%TO.N,unconnected-(U3-PB11-Pad23)*%
X176437500Y-73925000D03*
%TO.P,U3,22,PB10_22*%
%TO.N,unconnected-(U3-PB10-Pad22)*%
X176437500Y-73425000D03*
%TO.P,U3,21,PB2_21*%
%TO.N,unconnected-(U3-PB2-Pad21)*%
X176437500Y-72925000D03*
%TO.P,U3,20,PB1_20*%
%TO.N,unconnected-(U3-PB1-Pad20)*%
X176437500Y-72425000D03*
%TO.P,U3,19,PB0_19*%
%TO.N,unconnected-(U3-PB0-Pad19)*%
X176437500Y-71925000D03*
%TO.P,U3,17,PA6_17*%
%TO.N,unconnected-(U3-PA6-Pad17)*%
X176437500Y-70925000D03*
%TO.P,U3,16,PA5_16*%
%TO.N,unconnected-(U3-PA5-Pad16)*%
X176437500Y-70425000D03*
%TO.P,U3,15,PA4_15*%
%TO.N,unconnected-(U3-PA4-Pad15)*%
X176437500Y-69925000D03*
%TO.P,U3,14,PA3_14*%
%TO.N,unconnected-(U3-PA3-Pad14)*%
X176437500Y-69425000D03*
%TO.P,U3,13,PA2_13*%
%TO.N,unconnected-(U3-PA2-Pad13)*%
X176437500Y-71425000D03*
D12*
%TO.P,U3,12,PA1_12*%
%TO.N,unconnected-(U3-PA1-Pad12)*%
X175025000Y-67512500D03*
%TO.P,U3,11,PA0_11*%
%TO.N,unconnected-(U3-PA0-Pad11)*%
X174525000Y-67512500D03*
%TO.P,U3,10,PF2_10*%
%TO.N,/NRST*%
X174025000Y-67512500D03*
%TO.P,U3,9,PF1_9*%
%TO.N,/OSC-*%
X173525000Y-67512500D03*
%TO.P,U3,8,PF0_8*%
%TO.N,/OSC+*%
X173025000Y-67512500D03*
%TO.P,U3,7,VSS_7*%
%TO.N,GND*%
X172525000Y-67512500D03*
%TO.P,U3,6,VDD_6*%
%TO.N,+3.3V*%
X172025000Y-67512500D03*
%TO.P,U3,5,VREF+_5*%
X171525000Y-67512500D03*
%TO.P,U3,4,VBAT_4*%
X171025000Y-67512500D03*
%TO.P,U3,3,PC15_3*%
%TO.N,unconnected-(U3-PC15-Pad3)*%
X170525000Y-67512500D03*
%TO.P,U3,2,PC14_2*%
%TO.N,unconnected-(U3-PC14-Pad2)*%
X170025000Y-67512500D03*
%TO.P,U3,1,PC13_1*%
%TO.N,unconnected-(U3-PC13-Pad1)*%
X169525000Y-67512500D03*
%TD*%
D13*
%TO.P,Y1,4*%
%TO.N,GND*%
X172825000Y-64412500D03*
%TO.P,Y1,3,3_3*%
%TO.N,/OSC-*%
X175025000Y-64412500D03*
%TO.P,Y1,2,2_2*%
%TO.N,GND*%
X175025000Y-62712500D03*
%TO.P,Y1,1,1_1*%
%TO.N,/OSC+*%
X172825000Y-62712500D03*
%TD*%
D14*
%TO.P,J4,2,Pin_2_2*%
%TO.N,VCC_IN*%
X180750000Y-73900000D03*
D15*
%TO.P,J4,1,Pin_1_1*%
%TO.N,GND*%
X180750000Y-68900000D03*
%TD*%
D16*
%TO.P,J6,1,Pin_1_1*%
%TO.N,/SWDIO*%
X160475000Y-72375000D03*
%TO.P,J6,2,Pin_2_2*%
%TO.N,/SWCLK*%
X159225000Y-72375000D03*
%TO.P,J6,3,Pin_3_3*%
%TO.N,GND*%
X157975000Y-72375000D03*
%TO.P,J6,4,Pin_4_4*%
%TO.N,+3.3V*%
X156725000Y-72375000D03*
D17*
%TO.P,J6,MP,MountPin_MP*%
%TO.N,GND*%
X162325000Y-75575000D03*
X154875000Y-75575000D03*
%TD*%
D18*
%TO.P,D1,1,K_1*%
%TO.N,Net-(D1-K)*%
X153000000Y-71962500D03*
%TO.P,D1,2,A_2*%
%TO.N,+3.3V*%
X153000000Y-70387500D03*
%TD*%
D19*
%TO.P,R7,1*%
%TO.N,/SWCLK*%
X164600000Y-74200000D03*
%TO.P,R7,2*%
%TO.N,GND*%
X164600000Y-75850000D03*
%TD*%
D20*
%TO.P,C12,1*%
%TO.N,+3.3V*%
X157150000Y-67775000D03*
%TO.P,C12,2*%
%TO.N,GND*%
X157150000Y-66225000D03*
%TD*%
D18*
%TO.P,D2,1,K_1*%
%TO.N,Net-(D2-K)*%
X166075000Y-72575000D03*
%TO.P,D2,2,A_2*%
%TO.N,+3.3V*%
X166075000Y-71000000D03*
%TD*%
D19*
%TO.P,R11,1*%
%TO.N,Net-(D2-K)*%
X164425000Y-71025000D03*
%TO.P,R11,2*%
%TO.N,/LED*%
X164425000Y-72675000D03*
%TD*%
D20*
%TO.P,C19,1*%
%TO.N,+3.3V*%
X168800000Y-63950000D03*
%TO.P,C19,2*%
%TO.N,GND*%
X168800000Y-62400000D03*
%TD*%
D21*
%TO.P,C16,1*%
%TO.N,GND*%
X170825000Y-62587500D03*
%TO.P,C16,2*%
%TO.N,/OSC+*%
X170825000Y-64137500D03*
%TD*%
D22*
%TO.P,TP1,1,1_1*%
%TO.N,/NRST*%
X179600000Y-62825000D03*
%TD*%
D23*
%TO.P,R6,1*%
%TO.N,+3.3V*%
X181350000Y-64775000D03*
%TO.P,R6,2*%
%TO.N,/NRST*%
X179700000Y-64775000D03*
%TD*%
D24*
%TO.P,U6,1,TXD_1*%
%TO.N,/CAN_TX*%
X164884999Y-62025000D03*
%TO.P,U6,2,GND_2*%
%TO.N,GND*%
X164884999Y-63295000D03*
%TO.P,U6,3,VCC_3*%
%TO.N,+3.3V*%
X164884999Y-64565000D03*
%TO.P,U6,4,RXD_4*%
%TO.N,/CAN_RX*%
X164884999Y-65835000D03*
%TO.P,U6,5,VIO_5*%
%TO.N,+3.3V*%
X159934999Y-65835000D03*
%TO.P,U6,6,CANL_6*%
%TO.N,/CAN-*%
X159934999Y-64565000D03*
%TO.P,U6,7,CANH_7*%
%TO.N,/CAN+*%
X159934999Y-63295000D03*
%TO.P,U6,8,STB_8*%
%TO.N,GND*%
X159934999Y-62025000D03*
%TD*%
D25*
%TO.P,C11,1*%
%TO.N,+3.3V*%
X155400000Y-68550000D03*
%TO.P,C11,2*%
%TO.N,GND*%
X153500000Y-68550000D03*
%TD*%
D20*
%TO.P,C21,1*%
%TO.N,+3.3V*%
X166935000Y-64515000D03*
%TO.P,C21,2*%
%TO.N,GND*%
X166935000Y-62965000D03*
%TD*%
D26*
%TO.P,J2,1,Pin_1_1*%
%TO.N,/CAN+*%
X155950000Y-63305000D03*
%TO.P,J2,2,Pin_2_2*%
%TO.N,/CAN-*%
X155950000Y-64555000D03*
D27*
%TO.P,J2,MP,MountPin_MP*%
%TO.N,GND*%
X152600000Y-61455000D03*
X152600000Y-66405000D03*
%TD*%
D21*
%TO.P,C17,1*%
%TO.N,GND*%
X177000000Y-62587500D03*
%TO.P,C17,2*%
%TO.N,/OSC-*%
X177000000Y-64137500D03*
%TD*%
%TO.P,C10,1*%
%TO.N,5V*%
X165350000Y-67475000D03*
%TO.P,C10,2*%
%TO.N,GND*%
X165350000Y-69025000D03*
%TD*%
D28*
%TO.P,C9,1*%
%TO.N,5V*%
X163275000Y-67625000D03*
%TO.P,C9,2*%
%TO.N,GND*%
X163275000Y-69525000D03*
%TD*%
D22*
%TO.P,TP2,1,1_1*%
%TO.N,GND*%
X181375000Y-61600000D03*
%TD*%
D20*
%TO.P,C18,1*%
%TO.N,/NRST*%
X182925000Y-64800000D03*
%TO.P,C18,2*%
%TO.N,GND*%
X182925000Y-63250000D03*
%TD*%
D29*
%TO.P,U2,1,V_{IN}_1*%
%TO.N,5V*%
X161137500Y-67400000D03*
%TO.P,U2,2,V_{SS}_2*%
%TO.N,GND*%
X161137500Y-68350000D03*
%TO.P,U2,3,CE_3*%
%TO.N,5V*%
X161137500Y-69300000D03*
%TO.P,U2,4,NC_4*%
%TO.N,unconnected-(U2-NC-Pad4)*%
X158862500Y-69300000D03*
%TO.P,U2,5,V_{OUT}_5*%
%TO.N,+3.3V*%
X158862500Y-67400000D03*
%TD*%
D19*
%TO.P,R10,1*%
%TO.N,Net-(D1-K)*%
X153025000Y-73525000D03*
%TO.P,R10,2*%
%TO.N,GND*%
X153025000Y-75175000D03*
%TD*%
D30*
%TO.N,GND*%
X158450000Y-71300000D03*
X158450000Y-70650000D03*
X157825000Y-71325000D03*
X157825000Y-70650000D03*
X152025000Y-69600000D03*
X152025000Y-68975000D03*
X151400000Y-69625000D03*
X151400000Y-68975000D03*
X156225000Y-75750000D03*
X156225000Y-75125000D03*
X155600000Y-75775000D03*
X155600000Y-75125000D03*
X158975000Y-75775000D03*
X158975000Y-75150000D03*
X158350000Y-75800000D03*
X158350000Y-75150000D03*
%TO.N,5V*%
X161125000Y-69600000D03*
%TO.N,+3.3V*%
X169475000Y-66050000D03*
X171500000Y-68675000D03*
X172157136Y-68670518D03*
%TO.N,GND*%
X173000000Y-64825000D03*
X175575000Y-61562500D03*
X182850000Y-66425000D03*
X169875000Y-64737500D03*
X182850000Y-67050000D03*
X177125000Y-65312500D03*
X182325000Y-70050000D03*
X177875000Y-61712500D03*
X172325000Y-61562500D03*
X176150000Y-65912500D03*
X182325000Y-70700000D03*
X182225000Y-66425000D03*
X182950000Y-70050000D03*
X170012500Y-61875000D03*
X182950000Y-70675000D03*
X178125000Y-63912500D03*
X182225000Y-67075000D03*
%TO.N,/USART1_TX*%
X170701841Y-74395901D03*
%TO.N,/USART1_RX*%
X169875546Y-74429609D03*
%TD*%
%TO.N,/USART1_TX*%
D31*
X171025000Y-74784754D02*
X171025000Y-75837500D01*
X170701841Y-74461595D02*
X171025000Y-74784754D01*
X170701841Y-74395901D02*
X170701841Y-74461595D01*
%TO.N,5V*%
X160825000Y-69300000D02*
X161125000Y-69600000D01*
X160784448Y-69300000D02*
X160825000Y-69300000D01*
X161125000Y-69600000D02*
X161425000Y-69300000D01*
X161425000Y-69300000D02*
X161600000Y-69300000D01*
%TO.N,+3.3V*%
D32*
X171025000Y-66645710D02*
X171025000Y-66742590D01*
X171175000Y-69550000D02*
X171325000Y-69550000D01*
X170975000Y-69350000D02*
X171175000Y-69550000D01*
X170975000Y-68403120D02*
X170975000Y-69350000D01*
X171025000Y-68353120D02*
X170975000Y-68403120D01*
X171025000Y-66671880D02*
X171025000Y-68353120D01*
X170975000Y-66621880D02*
X171025000Y-66671880D01*
X170975000Y-66595710D02*
X170975000Y-66621880D01*
X170429290Y-66050000D02*
X171025000Y-66645710D01*
X170332410Y-66050000D02*
X170429290Y-66050000D01*
X168800000Y-64167499D02*
X168632500Y-63999999D01*
X169605761Y-65387500D02*
X168800000Y-64581739D01*
X169837500Y-65387500D02*
X169605761Y-65387500D01*
X168800000Y-64581739D02*
X168800000Y-64167499D01*
X171025000Y-66575000D02*
X169837500Y-65387500D01*
X170429290Y-66050000D02*
X170975000Y-66595710D01*
X171025000Y-66742590D02*
X171025000Y-66575000D01*
X181350000Y-65900000D02*
X181350000Y-64775000D01*
X174950000Y-69550000D02*
X178000000Y-66500000D01*
X178000000Y-66500000D02*
X180750000Y-66500000D01*
X172250000Y-69550000D02*
X174950000Y-69550000D01*
X180750000Y-66500000D02*
X181350000Y-65900000D01*
%TO.N,5V*%
D33*
X165200000Y-67625000D02*
X165350000Y-67475000D01*
X163275000Y-67625000D02*
X165200000Y-67625000D01*
%TO.N,+3.3V*%
D34*
X166375000Y-70700000D02*
X170575000Y-70700000D01*
X166075000Y-71000000D02*
X166375000Y-70700000D01*
X170575000Y-70700000D02*
X171525000Y-69750000D01*
X166150000Y-66600000D02*
X166575000Y-67025000D01*
X166575000Y-67025000D02*
X166575000Y-70500000D01*
X166575000Y-70500000D02*
X166075000Y-71000000D01*
%TO.N,5V*%
D35*
X163275000Y-67775000D02*
X163275000Y-67625000D01*
D33*
X161750000Y-69300000D02*
X163275000Y-67775000D01*
D35*
X161600000Y-69300000D02*
X161750000Y-69300000D01*
D31*
X161137500Y-67400000D02*
X160784448Y-67400000D01*
D33*
X160975000Y-67375000D02*
X161000000Y-67400000D01*
X161000000Y-67400000D02*
X163050000Y-67400000D01*
%TO.N,+3.3V*%
D32*
X171525000Y-67512500D02*
X171525000Y-68650000D01*
X171525000Y-69350000D02*
X171725000Y-69550000D01*
D34*
X162640000Y-65835000D02*
X162234999Y-65835000D01*
X153000000Y-70387500D02*
X153562500Y-70387500D01*
X159934999Y-65835000D02*
X158862500Y-66907499D01*
X155400000Y-68550000D02*
X156600000Y-68550000D01*
D31*
X171025000Y-67512500D02*
X171025000Y-66742590D01*
D34*
X161959999Y-65835000D02*
X161684999Y-65835000D01*
D32*
X171525000Y-69800000D02*
X171525000Y-69550000D01*
D34*
X164884999Y-64565000D02*
X166974999Y-64565000D01*
X158862500Y-66907499D02*
X158862500Y-67400000D01*
D32*
X172425000Y-69375000D02*
X172250000Y-69550000D01*
D31*
X172025000Y-68500000D02*
X172025000Y-67512500D01*
X156600000Y-68550000D02*
X156725000Y-68675000D01*
D34*
X166150000Y-66600000D02*
X163405000Y-66600000D01*
X163910000Y-64565000D02*
X164884999Y-64565000D01*
D31*
X171525000Y-68700000D02*
X171500000Y-68675000D01*
X171525000Y-69800000D02*
X171525000Y-69750000D01*
D34*
X161684999Y-65835000D02*
X159934999Y-65835000D01*
D32*
X171525000Y-69550000D02*
X171725000Y-69550000D01*
D31*
X171525000Y-68650000D02*
X171500000Y-68675000D01*
X163350000Y-65125000D02*
X163910000Y-64565000D01*
X166974999Y-64565000D02*
X167034999Y-64505000D01*
D34*
X162234999Y-65835000D02*
X161959999Y-65835000D01*
D31*
X172157136Y-68670518D02*
X172425000Y-68938382D01*
D34*
X163910000Y-64565000D02*
X162640000Y-65835000D01*
D31*
X171525000Y-69325000D02*
X171525000Y-69350000D01*
X169475000Y-66050000D02*
X170332410Y-66050000D01*
D32*
X171725000Y-69550000D02*
X172250000Y-69550000D01*
X171525000Y-69550000D02*
X171525000Y-69325000D01*
X171525000Y-69750000D02*
X171325000Y-69550000D01*
D31*
X172157136Y-68670518D02*
X172157136Y-68632136D01*
D34*
X158487500Y-67775000D02*
X158862500Y-67400000D01*
X153562500Y-70387500D02*
X155400000Y-68550000D01*
D32*
X171525000Y-69350000D02*
X171325000Y-69550000D01*
D34*
X156725000Y-68200000D02*
X157150000Y-67775000D01*
D31*
X172157136Y-68632136D02*
X172025000Y-68500000D01*
D32*
X171525000Y-69750000D02*
X171725000Y-69550000D01*
X171525000Y-69325000D02*
X171525000Y-68700000D01*
D34*
X157150000Y-67775000D02*
X158487500Y-67775000D01*
X156725000Y-72375000D02*
X156725000Y-68675000D01*
D32*
X171525000Y-69550000D02*
X171325000Y-69550000D01*
D34*
X163405000Y-66600000D02*
X162640000Y-65835000D01*
D32*
X172425000Y-68938382D02*
X172425000Y-69375000D01*
D34*
X156725000Y-68675000D02*
X156725000Y-68200000D01*
%TO.N,GND*%
D31*
X176150000Y-65912500D02*
X176750000Y-65312500D01*
D36*
X170825000Y-62587500D02*
X170825000Y-62437500D01*
D31*
X175575000Y-61562500D02*
X175575000Y-62162500D01*
X169900073Y-64712573D02*
X169900073Y-64462427D01*
X172525000Y-66612500D02*
X170800000Y-64887500D01*
X176750000Y-65312500D02*
X177125000Y-65312500D01*
X173350000Y-61562500D02*
X170100000Y-61562500D01*
X169937500Y-64650000D02*
X169937500Y-61950000D01*
X177975000Y-61812500D02*
X177875000Y-61712500D01*
X175575000Y-62162500D02*
X175025000Y-62712500D01*
X173325000Y-64412500D02*
X175025000Y-62712500D01*
X177875000Y-61712500D02*
X177875000Y-61687500D01*
X170800000Y-64887500D02*
X170075000Y-64887500D01*
X175575000Y-61562500D02*
X173350000Y-61562500D01*
X177825000Y-61637500D02*
X175575000Y-61637500D01*
X172525000Y-67512500D02*
X172525000Y-66612500D01*
X170075000Y-64887500D02*
X169900073Y-64712573D01*
X170012500Y-61875000D02*
X169937500Y-61950000D01*
X177875000Y-61687500D02*
X177825000Y-61637500D01*
X177875000Y-61712500D02*
X177000000Y-62587500D01*
X172825000Y-64412500D02*
X173325000Y-64412500D01*
X170737500Y-62750000D02*
X169937500Y-61950000D01*
X177975000Y-64462500D02*
X177975000Y-61812500D01*
X177975000Y-64462500D02*
X177125000Y-65312500D01*
%TO.N,5V*%
X163050000Y-67400000D02*
X163275000Y-67625000D01*
%TO.N,/USART1_RX*%
X170525000Y-75067590D02*
X170525000Y-75837500D01*
X169875546Y-74429609D02*
X169887019Y-74429609D01*
X169887019Y-74429609D02*
X170525000Y-75067590D01*
%TO.N,/SWDIO*%
X168137648Y-76900000D02*
X166212648Y-74975000D01*
X170025000Y-75837500D02*
X170025000Y-76625000D01*
X169750000Y-76900000D02*
X168137648Y-76900000D01*
X161300000Y-72375000D02*
X160475000Y-72375000D01*
X166212648Y-74975000D02*
X163900000Y-74975000D01*
X163900000Y-74975000D02*
X161300000Y-72375000D01*
X170025000Y-76625000D02*
X169750000Y-76900000D01*
%TO.N,/SWCLK*%
X161225000Y-71225000D02*
X160134448Y-71225000D01*
X169525000Y-75837500D02*
X167837500Y-75837500D01*
X167837500Y-75837500D02*
X166200000Y-74200000D01*
X159225000Y-72134448D02*
X159225000Y-72375000D01*
X164200000Y-74200000D02*
X161225000Y-71225000D01*
X166200000Y-74200000D02*
X164200000Y-74200000D01*
X160134448Y-71225000D02*
X159225000Y-72134448D01*
%TO.N,Net-(D1-K)*%
X153025000Y-73525000D02*
X153025000Y-71987500D01*
X153025000Y-71987500D02*
X153000000Y-71962500D01*
%TO.N,Net-(D2-K)*%
X164525000Y-71025000D02*
X164425000Y-71025000D01*
X166075000Y-72575000D02*
X164525000Y-71025000D01*
%TO.N,/LED*%
X165125000Y-73375000D02*
X164425000Y-72675000D01*
X166800000Y-73375000D02*
X165125000Y-73375000D01*
X167342590Y-73925000D02*
X167075000Y-73657410D01*
X168112500Y-73925000D02*
X167342590Y-73925000D01*
X167075000Y-73657410D02*
X167075000Y-73650000D01*
X167075000Y-73650000D02*
X166800000Y-73375000D01*
%TO.N,/OSC+*%
X171825000Y-64997244D02*
X172319396Y-65491640D01*
X172825000Y-62712500D02*
X171825000Y-63712500D01*
X172319396Y-65491640D02*
X173025000Y-66197244D01*
X172825000Y-62712500D02*
X171925000Y-62712500D01*
X173025000Y-66197244D02*
X173025000Y-67512500D01*
X171925000Y-62712500D02*
X170825000Y-63812500D01*
X170825000Y-63812500D02*
X170825000Y-64137500D01*
X171825000Y-63712500D02*
X171825000Y-64997244D01*
%TO.N,/NRST*%
X174292590Y-68550000D02*
X175257410Y-68550000D01*
X179700000Y-64775000D02*
X180475000Y-64000000D01*
X179700000Y-64775000D02*
X179700000Y-62925000D01*
X180475000Y-64000000D02*
X182125000Y-64000000D01*
X179700000Y-62925000D02*
X179600000Y-62825000D01*
X174025000Y-68282410D02*
X174025000Y-67512500D01*
X174292590Y-68550000D02*
X174025000Y-68282410D01*
X182125000Y-64000000D02*
X182925000Y-64800000D01*
X179032410Y-64775000D02*
X179700000Y-64775000D01*
X175257410Y-68550000D02*
X179032410Y-64775000D01*
%TO.N,/CAN_TX*%
X164884999Y-62025000D02*
X167218696Y-62025000D01*
X168025000Y-62831304D02*
X168025000Y-68837500D01*
X168025000Y-68837500D02*
X168112500Y-68925000D01*
X167218696Y-62025000D02*
X168025000Y-62831304D01*
%TO.N,/CAN_RX*%
X167342590Y-69425000D02*
X168112500Y-69425000D01*
X164884999Y-65835000D02*
X166860000Y-65835000D01*
X167075000Y-69157410D02*
X167342590Y-69425000D01*
X167075000Y-66050000D02*
X167075000Y-69157410D01*
X166860000Y-65835000D02*
X167075000Y-66050000D01*
%TO.N,/CAN-*%
X158472498Y-64565000D02*
X159934999Y-64565000D01*
X157625001Y-64155000D02*
X158062498Y-64155000D01*
X155950000Y-64555000D02*
X157225001Y-64555000D01*
X158062498Y-64155000D02*
X158472498Y-64565000D01*
X157225001Y-64555000D02*
X157625001Y-64155000D01*
%TO.N,/CAN+*%
X158472498Y-63295000D02*
X159934999Y-63295000D01*
X157625001Y-63705000D02*
X158062498Y-63705000D01*
X155950000Y-63305000D02*
X157225001Y-63305000D01*
X158062498Y-63705000D02*
X158472498Y-63295000D01*
X157225001Y-63305000D02*
X157625001Y-63705000D01*
%TO.N,/OSC-*%
X173913559Y-64941007D02*
X174088607Y-65116055D01*
X173525000Y-67512500D02*
X173499277Y-67486777D01*
X173664337Y-65823162D02*
X173499277Y-65988223D01*
X175217739Y-64269761D02*
X174725000Y-64762500D01*
X174442158Y-64762500D02*
X174267111Y-64587453D01*
X174230025Y-65257475D02*
X174371446Y-65398896D01*
X174230028Y-65257476D02*
X174230025Y-65257475D01*
X173499277Y-67486777D02*
X173499277Y-66095043D01*
X173735048Y-65752450D02*
X173664337Y-65823162D01*
X177000000Y-64137500D02*
X175300000Y-64137500D01*
X174687890Y-65998182D02*
X174617176Y-66068895D01*
X173499277Y-66095043D02*
X173499277Y-65988223D01*
X174088607Y-65116055D02*
X174230028Y-65257476D01*
X174371446Y-65398896D02*
X174687890Y-65715340D01*
X174334334Y-66068895D02*
X174017890Y-65752451D01*
X173984269Y-64587453D02*
X173913559Y-64658164D01*
X174617176Y-66068895D02*
G75*
G02*
X174334334Y-66068895I-141421J141426D01*
G01*
X174267111Y-64587453D02*
G75*
G03*
X173984269Y-64587453I-141421J-141423D01*
G01*
X174687890Y-65715340D02*
G75*
G02*
X174687929Y-65998221I-141390J-141460D01*
G01*
X174017890Y-65752451D02*
G75*
G03*
X173735079Y-65752481I-141390J-141449D01*
G01*
X173913559Y-64658164D02*
G75*
G03*
X173913544Y-64941021I141441J-141436D01*
G01*
X174725000Y-64762500D02*
G75*
G02*
X174442158Y-64762500I-141421J141423D01*
G01*
%TD*%
%TA.AperFunction,Conductor*%
%TO.N,GND*%
G36*
X182497280Y-60900618D02*
G01*
X182502692Y-60900854D01*
X182508085Y-60901207D01*
X182535721Y-60903625D01*
X182657371Y-60914268D01*
X182668081Y-60915678D01*
X182678700Y-60917550D01*
X182689252Y-60919888D01*
X182801188Y-60949882D01*
X182826153Y-60956571D01*
X182836446Y-60959816D01*
X182846604Y-60963514D01*
X182856590Y-60967651D01*
X182985004Y-61027532D01*
X182994597Y-61032526D01*
X183003947Y-61037924D01*
X183013058Y-61043727D01*
X183129155Y-61125019D01*
X183137728Y-61131598D01*
X183145993Y-61138533D01*
X183153969Y-61145842D01*
X183254156Y-61246029D01*
X183261465Y-61254005D01*
X183268400Y-61262270D01*
X183274981Y-61270846D01*
X183356267Y-61386934D01*
X183362074Y-61396051D01*
X183367472Y-61405401D01*
X183372466Y-61414994D01*
X183432347Y-61543408D01*
X183436485Y-61553396D01*
X183440175Y-61563534D01*
X183440177Y-61563538D01*
X183443432Y-61573862D01*
X183480106Y-61710734D01*
X183482448Y-61721297D01*
X183484320Y-61731915D01*
X183485731Y-61742637D01*
X183498791Y-61891906D01*
X183499144Y-61897284D01*
X183499381Y-61902691D01*
X183499500Y-61908121D01*
X183499500Y-63938058D01*
X183494475Y-63972999D01*
X183490564Y-63986316D01*
X183452787Y-64045092D01*
X183389244Y-64074112D01*
X183383724Y-64074906D01*
X183360353Y-64072173D01*
X183360353Y-64073915D01*
X183360352Y-64073915D01*
X183336546Y-64069390D01*
X183320581Y-64067524D01*
X183314865Y-64065270D01*
X183314865Y-64065269D01*
X183314861Y-64065269D01*
X183300590Y-64059641D01*
X183216145Y-64049500D01*
X183216144Y-64049500D01*
X183216138Y-64049500D01*
X183206966Y-64049500D01*
X183160695Y-64040544D01*
X182466964Y-63761524D01*
X182425554Y-63734161D01*
X182370915Y-63679522D01*
X182370913Y-63679520D01*
X182370910Y-63679518D01*
X182370906Y-63679515D01*
X182313503Y-63646372D01*
X182313500Y-63646372D01*
X182279589Y-63626793D01*
X182228657Y-63613146D01*
X182228656Y-63613145D01*
X182177730Y-63599500D01*
X182177727Y-63599500D01*
X182177726Y-63599500D01*
X180537290Y-63599500D01*
X180537258Y-63599490D01*
X180537258Y-63599499D01*
X180422272Y-63599499D01*
X180378309Y-63611279D01*
X180308460Y-63609616D01*
X180250597Y-63570453D01*
X180223094Y-63506224D01*
X180227582Y-63455424D01*
X180258941Y-63352316D01*
X180294144Y-63236564D01*
X180306849Y-63209731D01*
X180306520Y-63209555D01*
X180309386Y-63204190D01*
X180309394Y-63204179D01*
X180369737Y-63058497D01*
X180400500Y-62903842D01*
X180400500Y-62835167D01*
X180400553Y-62833088D01*
X180400500Y-62829531D01*
X180400500Y-62745971D01*
X180400064Y-62743966D01*
X180390792Y-62697353D01*
X180369739Y-62591510D01*
X180369736Y-62591501D01*
X180316021Y-62461819D01*
X180309397Y-62445827D01*
X180309390Y-62445814D01*
X180221789Y-62314711D01*
X180221786Y-62314707D01*
X180221781Y-62314701D01*
X180110297Y-62203217D01*
X180110291Y-62203212D01*
X180110290Y-62203211D01*
X179979191Y-62115613D01*
X179979190Y-62115612D01*
X179979185Y-62115609D01*
X179979172Y-62115602D01*
X179979165Y-62115598D01*
X179833502Y-62055264D01*
X179833471Y-62055257D01*
X179678847Y-62024500D01*
X179678845Y-62024500D01*
X179678842Y-62024500D01*
X179521158Y-62024500D01*
X179521155Y-62024500D01*
X179521153Y-62024500D01*
X179366527Y-62055257D01*
X179366496Y-62055264D01*
X179220833Y-62115598D01*
X179220824Y-62115603D01*
X179220807Y-62115613D01*
X179089708Y-62203211D01*
X179089707Y-62203212D01*
X179089701Y-62203217D01*
X178978217Y-62314701D01*
X178978212Y-62314707D01*
X178978211Y-62314708D01*
X178890613Y-62445807D01*
X178890603Y-62445824D01*
X178890598Y-62445833D01*
X178830264Y-62591496D01*
X178830257Y-62591527D01*
X178799500Y-62746150D01*
X178799500Y-62746153D01*
X178799500Y-62903846D01*
X178799500Y-62903848D01*
X178799499Y-62903848D01*
X178830257Y-63058471D01*
X178830264Y-63058502D01*
X178890598Y-63204165D01*
X178890603Y-63204174D01*
X178890613Y-63204191D01*
X178977793Y-63334665D01*
X178978210Y-63335288D01*
X178978213Y-63335292D01*
X179036169Y-63393248D01*
X179058878Y-63424451D01*
X179162394Y-63626794D01*
X179234155Y-63767066D01*
X179248155Y-63794432D01*
X179261163Y-63863080D01*
X179246686Y-63910165D01*
X179099034Y-64181572D01*
X179075599Y-64212134D01*
X178884741Y-64393789D01*
X178861255Y-64411354D01*
X178813095Y-64439161D01*
X178809541Y-64441137D01*
X178794169Y-64449352D01*
X178788420Y-64453192D01*
X178787178Y-64454065D01*
X178786503Y-64454514D01*
X178785148Y-64455625D01*
X178778728Y-64461442D01*
X178744046Y-64489900D01*
X178744020Y-64489924D01*
X178660355Y-64573589D01*
X178655377Y-64578684D01*
X178649432Y-64587808D01*
X178633225Y-64607789D01*
X175699788Y-67541228D01*
X175671538Y-67562377D01*
X175661611Y-67567798D01*
X175593338Y-67582652D01*
X175527873Y-67558238D01*
X175486000Y-67502306D01*
X175483313Y-67495100D01*
X175475500Y-67451780D01*
X175475500Y-66814369D01*
X175475500Y-66814368D01*
X175475500Y-66814364D01*
X175464866Y-66741375D01*
X175462518Y-66736572D01*
X175409827Y-66628789D01*
X175409825Y-66628787D01*
X175409825Y-66628786D01*
X175321212Y-66540173D01*
X175209078Y-66485355D01*
X175209023Y-66485318D01*
X175208657Y-66485141D01*
X175204649Y-66484194D01*
X175199737Y-66483839D01*
X175193468Y-66482925D01*
X175135636Y-66474500D01*
X175135631Y-66474500D01*
X175095157Y-66474500D01*
X175060230Y-66469479D01*
X175057498Y-66468677D01*
X174998717Y-66430907D01*
X174969688Y-66367353D01*
X174979627Y-66298194D01*
X174987274Y-66283977D01*
X175014548Y-66240340D01*
X175015492Y-66239007D01*
X175018931Y-66233532D01*
X175018933Y-66233531D01*
X175021791Y-66228980D01*
X175042508Y-66203992D01*
X175065697Y-66182504D01*
X175068856Y-66180268D01*
X175069749Y-66178911D01*
X175072499Y-66177689D01*
X175092180Y-66163755D01*
X177800000Y-64737500D01*
X178225000Y-64512500D01*
X178229750Y-63904467D01*
X178250000Y-61312526D01*
X178250000Y-61312498D01*
X169625001Y-61337498D01*
X169624999Y-61337499D01*
X169624998Y-61337502D01*
X169596233Y-63213937D01*
X169590675Y-63248792D01*
X169586864Y-63261071D01*
X169548193Y-63319263D01*
X169484199Y-63347309D01*
X169419747Y-63338356D01*
X169411102Y-63334665D01*
X169384866Y-63319427D01*
X169309977Y-63262636D01*
X169175586Y-63209639D01*
X169130107Y-63204179D01*
X169091144Y-63199500D01*
X169091139Y-63199500D01*
X168567330Y-63199500D01*
X168532389Y-63194475D01*
X168517390Y-63190070D01*
X168458644Y-63152327D01*
X168457457Y-63150958D01*
X168429977Y-63096083D01*
X168428332Y-63088521D01*
X168425500Y-63062168D01*
X168425500Y-62778579D01*
X168425500Y-62778578D01*
X168425499Y-62778572D01*
X168423812Y-62772276D01*
X168423811Y-62772274D01*
X168422190Y-62766223D01*
X168422190Y-62766222D01*
X168422187Y-62766213D01*
X168418434Y-62752205D01*
X168418434Y-62752206D01*
X168398207Y-62676716D01*
X168345480Y-62585391D01*
X167464609Y-61704520D01*
X167453815Y-61698288D01*
X167418946Y-61678155D01*
X167418946Y-61678156D01*
X167373285Y-61651793D01*
X167322353Y-61638146D01*
X167322352Y-61638145D01*
X167271426Y-61624500D01*
X167271423Y-61624500D01*
X167271422Y-61624500D01*
X166268213Y-61624500D01*
X166214523Y-61612274D01*
X165903912Y-61463074D01*
X165903836Y-61463038D01*
X165900579Y-61461497D01*
X165900569Y-61461493D01*
X165874682Y-61454857D01*
X165864523Y-61451784D01*
X165794704Y-61427354D01*
X165794701Y-61427353D01*
X165787091Y-61426639D01*
X165764269Y-61424500D01*
X165764265Y-61424500D01*
X165764263Y-61424500D01*
X164005733Y-61424500D01*
X164005729Y-61424500D01*
X163987073Y-61426249D01*
X163981068Y-61426812D01*
X163977498Y-61426978D01*
X163975296Y-61427353D01*
X163847117Y-61472206D01*
X163737848Y-61552849D01*
X163657205Y-61662118D01*
X163612352Y-61790297D01*
X163611977Y-61792499D01*
X163611811Y-61796069D01*
X163609499Y-61820730D01*
X163609499Y-62229265D01*
X163611811Y-62253929D01*
X163611977Y-62257499D01*
X163612352Y-62259699D01*
X163612352Y-62259701D01*
X163657205Y-62387880D01*
X163657206Y-62387882D01*
X163737849Y-62497150D01*
X163847117Y-62577793D01*
X163868831Y-62585391D01*
X163975298Y-62622646D01*
X163975302Y-62622647D01*
X163993741Y-62624375D01*
X164005729Y-62625500D01*
X164005733Y-62625500D01*
X164005738Y-62625500D01*
X165764269Y-62625500D01*
X165764270Y-62625500D01*
X165788919Y-62623188D01*
X165792497Y-62623020D01*
X165794701Y-62622646D01*
X165858789Y-62600219D01*
X165868683Y-62596756D01*
X165877383Y-62594066D01*
X165903912Y-62586925D01*
X166214521Y-62437725D01*
X166268211Y-62425500D01*
X166983611Y-62425500D01*
X167018543Y-62430521D01*
X167043787Y-62437934D01*
X167096533Y-62469230D01*
X167575573Y-62948270D01*
X167596723Y-62976522D01*
X167609331Y-62999611D01*
X167624500Y-63059040D01*
X167624500Y-63698768D01*
X167619475Y-63733709D01*
X167615564Y-63747026D01*
X167577787Y-63805802D01*
X167514229Y-63834824D01*
X167512246Y-63835109D01*
X167454727Y-63829782D01*
X167426486Y-63820190D01*
X167420874Y-63818132D01*
X167310588Y-63774640D01*
X167267242Y-63769435D01*
X167267242Y-63769434D01*
X167239476Y-63766100D01*
X167226144Y-63764500D01*
X167226140Y-63764500D01*
X166643860Y-63764500D01*
X166643856Y-63764500D01*
X166633245Y-63765774D01*
X166605839Y-63769064D01*
X166605840Y-63769065D01*
X166559411Y-63774640D01*
X166559407Y-63774641D01*
X166425023Y-63827635D01*
X166401588Y-63845406D01*
X166382962Y-63857084D01*
X166326453Y-63885878D01*
X166076892Y-64013040D01*
X166008225Y-64025937D01*
X165986137Y-64021671D01*
X165857444Y-63984439D01*
X165830526Y-63978787D01*
X165815058Y-63974476D01*
X165794706Y-63967355D01*
X165794699Y-63967353D01*
X165764269Y-63964500D01*
X165764265Y-63964500D01*
X165764263Y-63964500D01*
X164005733Y-63964500D01*
X164005729Y-63964500D01*
X163987073Y-63966249D01*
X163981068Y-63966812D01*
X163977498Y-63966978D01*
X163975294Y-63967353D01*
X163847121Y-64012204D01*
X163843168Y-64014688D01*
X163839643Y-64017721D01*
X163806539Y-64042152D01*
X163802310Y-64044926D01*
X163797947Y-64048007D01*
X163796760Y-64049015D01*
X163790153Y-64054246D01*
X163782845Y-64059641D01*
X163776849Y-64064066D01*
X163772655Y-64067029D01*
X163746174Y-64084928D01*
X163746169Y-64084931D01*
X163678329Y-64146456D01*
X163657032Y-64161988D01*
X163618037Y-64184503D01*
X163618035Y-64184504D01*
X163618019Y-64184519D01*
X163441461Y-64361078D01*
X163437083Y-64365248D01*
X163378000Y-64418831D01*
X163372332Y-64424103D01*
X163371940Y-64424477D01*
X163361860Y-64434553D01*
X163357458Y-64441308D01*
X163341253Y-64461286D01*
X162491967Y-65310573D01*
X162463716Y-65331722D01*
X162440628Y-65344330D01*
X162381198Y-65359500D01*
X161288163Y-65359500D01*
X161253702Y-65354615D01*
X161062644Y-65299340D01*
X161003716Y-65261800D01*
X160974438Y-65198360D01*
X160984107Y-65129163D01*
X161023473Y-65080454D01*
X161082144Y-65037154D01*
X161082144Y-65037153D01*
X161082149Y-65037150D01*
X161162792Y-64927882D01*
X161184945Y-64864572D01*
X161195614Y-64834084D01*
X161195614Y-64834081D01*
X161207645Y-64799701D01*
X161207645Y-64799699D01*
X161207645Y-64799690D01*
X161208019Y-64797497D01*
X161208187Y-64793919D01*
X161210499Y-64769270D01*
X161210499Y-64360728D01*
X161208187Y-64336079D01*
X161208019Y-64332502D01*
X161207645Y-64330300D01*
X161207645Y-64330298D01*
X161162792Y-64202119D01*
X161162791Y-64202117D01*
X161155413Y-64192121D01*
X161155412Y-64192117D01*
X161155411Y-64192118D01*
X161082149Y-64092850D01*
X161071422Y-64084933D01*
X161011019Y-64040353D01*
X160985896Y-64015570D01*
X160977503Y-64004516D01*
X160952642Y-63939221D01*
X160967024Y-63870858D01*
X160970520Y-63864350D01*
X161006125Y-63823257D01*
X161082149Y-63767150D01*
X161162792Y-63657882D01*
X161188270Y-63585071D01*
X161207645Y-63529701D01*
X161207645Y-63529699D01*
X161208019Y-63527497D01*
X161208187Y-63523919D01*
X161210499Y-63499270D01*
X161210499Y-63090728D01*
X161208187Y-63066079D01*
X161208019Y-63062502D01*
X161207645Y-63060297D01*
X161181128Y-62984518D01*
X161174005Y-62964163D01*
X161162792Y-62932118D01*
X161082149Y-62822850D01*
X160972881Y-62742207D01*
X160972879Y-62742206D01*
X160944321Y-62732213D01*
X160844703Y-62697354D01*
X160844701Y-62697353D01*
X160844699Y-62697353D01*
X160814269Y-62694500D01*
X160814265Y-62694500D01*
X160814263Y-62694500D01*
X159055733Y-62694500D01*
X159055729Y-62694500D01*
X159037073Y-62696249D01*
X159031068Y-62696812D01*
X159027497Y-62696978D01*
X159025295Y-62697353D01*
X158998371Y-62706774D01*
X158977375Y-62712115D01*
X158972972Y-62712832D01*
X158972971Y-62712833D01*
X158968665Y-62713964D01*
X158914051Y-62734049D01*
X158914045Y-62734051D01*
X158605472Y-62882274D01*
X158551782Y-62894500D01*
X158534788Y-62894500D01*
X158534725Y-62894499D01*
X158532821Y-62894499D01*
X158525225Y-62894499D01*
X158419771Y-62894499D01*
X158351864Y-62912695D01*
X158351863Y-62912694D01*
X158317911Y-62921792D01*
X158317910Y-62921792D01*
X158226578Y-62974524D01*
X157945530Y-63255573D01*
X157917280Y-63276722D01*
X157903048Y-63284494D01*
X157834776Y-63299348D01*
X157808682Y-63294641D01*
X157799909Y-63292065D01*
X157747163Y-63260769D01*
X157470916Y-62984522D01*
X157470914Y-62984520D01*
X157453601Y-62974524D01*
X157425251Y-62958155D01*
X157425251Y-62958156D01*
X157379590Y-62931793D01*
X157328658Y-62918146D01*
X157328657Y-62918145D01*
X157277731Y-62904500D01*
X157277728Y-62904500D01*
X157277727Y-62904500D01*
X157208214Y-62904500D01*
X157154524Y-62892274D01*
X157035636Y-62835167D01*
X156850317Y-62746150D01*
X156844182Y-62743203D01*
X156841266Y-62741821D01*
X156841017Y-62741705D01*
X156841013Y-62741703D01*
X156836684Y-62739780D01*
X156830244Y-62736920D01*
X156830242Y-62736919D01*
X156808572Y-62732213D01*
X156793936Y-62728080D01*
X156734702Y-62707353D01*
X156727092Y-62706639D01*
X156704270Y-62704500D01*
X156704266Y-62704500D01*
X156704264Y-62704500D01*
X155195734Y-62704500D01*
X155195730Y-62704500D01*
X155177074Y-62706249D01*
X155171069Y-62706812D01*
X155167499Y-62706978D01*
X155165297Y-62707353D01*
X155037118Y-62752206D01*
X154927849Y-62832849D01*
X154847206Y-62942118D01*
X154802353Y-63070297D01*
X154801978Y-63072499D01*
X154801812Y-63076069D01*
X154799500Y-63100733D01*
X154799500Y-63509265D01*
X154801812Y-63533929D01*
X154801978Y-63537499D01*
X154802353Y-63539703D01*
X154845441Y-63662838D01*
X154847205Y-63667879D01*
X154847207Y-63667882D01*
X154925998Y-63774641D01*
X154927851Y-63777151D01*
X154985422Y-63819640D01*
X155010546Y-63844422D01*
X155016355Y-63852073D01*
X155018941Y-63855478D01*
X155043805Y-63920774D01*
X155029420Y-63989147D01*
X155029417Y-63989153D01*
X155025921Y-63995660D01*
X154990323Y-64036742D01*
X154927851Y-64082848D01*
X154927847Y-64082852D01*
X154847206Y-64192118D01*
X154802353Y-64320297D01*
X154801978Y-64322499D01*
X154801812Y-64326069D01*
X154799500Y-64350733D01*
X154799500Y-64759265D01*
X154801812Y-64783929D01*
X154801978Y-64787499D01*
X154802352Y-64789701D01*
X154835869Y-64885481D01*
X154835869Y-64885482D01*
X154847205Y-64917878D01*
X154847206Y-64917881D01*
X154854587Y-64927882D01*
X154927850Y-65027150D01*
X155023917Y-65098050D01*
X155037118Y-65107793D01*
X155165299Y-65152646D01*
X155165303Y-65152647D01*
X155183742Y-65154375D01*
X155195730Y-65155500D01*
X155195734Y-65155500D01*
X155195739Y-65155500D01*
X156704270Y-65155500D01*
X156704271Y-65155500D01*
X156728920Y-65153188D01*
X156732497Y-65153020D01*
X156734700Y-65152646D01*
X156734701Y-65152646D01*
X156761577Y-65143240D01*
X156783595Y-65137736D01*
X156784675Y-65137568D01*
X156785656Y-65137417D01*
X156790076Y-65136281D01*
X156846306Y-65115775D01*
X157154521Y-64967725D01*
X157208211Y-64955500D01*
X157277726Y-64955500D01*
X157277728Y-64955500D01*
X157379589Y-64928207D01*
X157470914Y-64875480D01*
X157741970Y-64604423D01*
X157770214Y-64583279D01*
X157784457Y-64575502D01*
X157852726Y-64560651D01*
X157878814Y-64565357D01*
X157887589Y-64567934D01*
X157940335Y-64599230D01*
X158226586Y-64885481D01*
X158268652Y-64909767D01*
X158310720Y-64934055D01*
X158317911Y-64938207D01*
X158419771Y-64965501D01*
X158419773Y-64965501D01*
X158532821Y-64965501D01*
X158534725Y-64965501D01*
X158534788Y-64965500D01*
X158551787Y-64965500D01*
X158605476Y-64977725D01*
X158845180Y-65092866D01*
X158897086Y-65139637D01*
X158915467Y-65207046D01*
X158900730Y-65263314D01*
X158899478Y-65265645D01*
X158863873Y-65306740D01*
X158796229Y-65356664D01*
X158796228Y-65356666D01*
X158787849Y-65362850D01*
X158787848Y-65362851D01*
X158787846Y-65362852D01*
X158707205Y-65472118D01*
X158662352Y-65600297D01*
X158661977Y-65602499D01*
X158661811Y-65606069D01*
X158659499Y-65630730D01*
X158659499Y-66039269D01*
X158660193Y-66046666D01*
X158661811Y-66063929D01*
X158661977Y-66067499D01*
X158662352Y-66069701D01*
X158707206Y-66197883D01*
X158707207Y-66197885D01*
X158714974Y-66208409D01*
X158731679Y-66239503D01*
X158737041Y-66254184D01*
X158741550Y-66323908D01*
X158740134Y-66330210D01*
X158706831Y-66390707D01*
X158673146Y-66424392D01*
X158673144Y-66424395D01*
X158621039Y-66476497D01*
X158603447Y-66491106D01*
X158590476Y-66499992D01*
X158524385Y-66566083D01*
X158524374Y-66566095D01*
X158495876Y-66600818D01*
X158487711Y-66609826D01*
X158482005Y-66615532D01*
X158425219Y-66713892D01*
X158414389Y-66729691D01*
X158398833Y-66748998D01*
X158341444Y-66788851D01*
X158341443Y-66788852D01*
X158327962Y-66793340D01*
X158298575Y-66798818D01*
X158298614Y-66799230D01*
X158295734Y-66799500D01*
X158295730Y-66799500D01*
X158277544Y-66801205D01*
X158271069Y-66801812D01*
X158267499Y-66801978D01*
X158265297Y-66802353D01*
X158137118Y-66847206D01*
X158027849Y-66927849D01*
X157947206Y-67037118D01*
X157938784Y-67061185D01*
X157898061Y-67117960D01*
X157833107Y-67143705D01*
X157772005Y-67133814D01*
X157616976Y-67065928D01*
X157578882Y-67055029D01*
X157567502Y-67051168D01*
X157525587Y-67034639D01*
X157525585Y-67034638D01*
X157482245Y-67029434D01*
X157482245Y-67029435D01*
X157464628Y-67027320D01*
X157441144Y-67024500D01*
X157441140Y-67024500D01*
X156858860Y-67024500D01*
X156858856Y-67024500D01*
X156848245Y-67025774D01*
X156820839Y-67029064D01*
X156820840Y-67029065D01*
X156774412Y-67034639D01*
X156640021Y-67087636D01*
X156524920Y-67174920D01*
X156437636Y-67290021D01*
X156384639Y-67424413D01*
X156381354Y-67451780D01*
X156379628Y-67466155D01*
X156374500Y-67508856D01*
X156374500Y-67508862D01*
X156374500Y-67550399D01*
X156371595Y-67573459D01*
X156372030Y-67573529D01*
X156346311Y-67734878D01*
X156316319Y-67797983D01*
X156256971Y-67834856D01*
X156187109Y-67833789D01*
X156128915Y-67795121D01*
X156122665Y-67787027D01*
X156117051Y-67779101D01*
X156112605Y-67773968D01*
X156104198Y-67762882D01*
X156089619Y-67743656D01*
X156042922Y-67682076D01*
X155922345Y-67590640D01*
X155922343Y-67590639D01*
X155795110Y-67540465D01*
X155781559Y-67535121D01*
X155742152Y-67530389D01*
X155735926Y-67529642D01*
X155735925Y-67529641D01*
X155708220Y-67526315D01*
X155693102Y-67524500D01*
X155693098Y-67524500D01*
X155106901Y-67524500D01*
X155106898Y-67524500D01*
X155096560Y-67525741D01*
X155067853Y-67529187D01*
X155067853Y-67529188D01*
X155061920Y-67529900D01*
X155018439Y-67535121D01*
X154877653Y-67590640D01*
X154757076Y-67682076D01*
X154665640Y-67802653D01*
X154610121Y-67943439D01*
X154604900Y-67986920D01*
X154604188Y-67992853D01*
X154603548Y-67998188D01*
X154599500Y-68031901D01*
X154599500Y-68230330D01*
X154586086Y-68286425D01*
X154178072Y-69090785D01*
X154155167Y-69122371D01*
X153620917Y-69656621D01*
X153592661Y-69677773D01*
X153578940Y-69685265D01*
X153510676Y-69700117D01*
X153505722Y-69699762D01*
X153496191Y-69699081D01*
X153459543Y-69690751D01*
X153381326Y-69659906D01*
X153379365Y-69659114D01*
X153379093Y-69659001D01*
X153372974Y-69658635D01*
X153331306Y-69653631D01*
X153296903Y-69649500D01*
X153296902Y-69649500D01*
X152703098Y-69649500D01*
X152643798Y-69656621D01*
X152627017Y-69658636D01*
X152623063Y-69658872D01*
X152619650Y-69659521D01*
X152486867Y-69711884D01*
X152486865Y-69711885D01*
X152373131Y-69798131D01*
X152286885Y-69911865D01*
X152286884Y-69911867D01*
X152234521Y-70044650D01*
X152233872Y-70048065D01*
X152233635Y-70052025D01*
X152224500Y-70128095D01*
X152224500Y-70646902D01*
X152233635Y-70722972D01*
X152233925Y-70727827D01*
X152234815Y-70731598D01*
X152236521Y-70735421D01*
X152271650Y-70824499D01*
X152285259Y-70859010D01*
X152286886Y-70863134D01*
X152316922Y-70902743D01*
X152373128Y-70976863D01*
X152373130Y-70976864D01*
X152373132Y-70976867D01*
X152447444Y-71033219D01*
X152490242Y-71065674D01*
X152489913Y-71066106D01*
X152504780Y-71078350D01*
X152506872Y-71080495D01*
X152515764Y-71089610D01*
X152548485Y-71151343D01*
X152542636Y-71220968D01*
X152542623Y-71221003D01*
X152542306Y-71221821D01*
X152507885Y-71270728D01*
X152502897Y-71275050D01*
X152489715Y-71285015D01*
X152486878Y-71286875D01*
X152373132Y-71373131D01*
X152373128Y-71373136D01*
X152286885Y-71486865D01*
X152286884Y-71486867D01*
X152234521Y-71619650D01*
X152233872Y-71623065D01*
X152233635Y-71627025D01*
X152224500Y-71703095D01*
X152224500Y-72221902D01*
X152233635Y-72297972D01*
X152233925Y-72302827D01*
X152234815Y-72306598D01*
X152236521Y-72310421D01*
X152282545Y-72427130D01*
X152282546Y-72427130D01*
X152286885Y-72438132D01*
X152286888Y-72438136D01*
X152326866Y-72490856D01*
X152337860Y-72509744D01*
X152338278Y-72509518D01*
X152341013Y-72514552D01*
X152341016Y-72514557D01*
X152438824Y-72660592D01*
X152473349Y-72712141D01*
X152494300Y-72778796D01*
X152475888Y-72846196D01*
X152473327Y-72850180D01*
X152406102Y-72950482D01*
X152395094Y-72963879D01*
X152395355Y-72964105D01*
X152392450Y-72967456D01*
X152306205Y-73082665D01*
X152306203Y-73082669D01*
X152306200Y-73082673D01*
X152255911Y-73217507D01*
X152255908Y-73217520D01*
X152249501Y-73277116D01*
X152249501Y-73277123D01*
X152249500Y-73277135D01*
X152249500Y-73772876D01*
X152249659Y-73774806D01*
X152249885Y-73776454D01*
X152255907Y-73832482D01*
X152283690Y-73906971D01*
X152306202Y-73967328D01*
X152306203Y-73967330D01*
X152306204Y-73967332D01*
X152306205Y-73967333D01*
X152392450Y-74082542D01*
X152392456Y-74082548D01*
X152410359Y-74095950D01*
X152507664Y-74168793D01*
X152507671Y-74168797D01*
X152552618Y-74185561D01*
X152642517Y-74219091D01*
X152702127Y-74225500D01*
X153347872Y-74225499D01*
X153407483Y-74219091D01*
X153542331Y-74168796D01*
X153657546Y-74082546D01*
X153743796Y-73967331D01*
X153794091Y-73832483D01*
X153800500Y-73772873D01*
X153800499Y-73277128D01*
X153794091Y-73217517D01*
X153790075Y-73206750D01*
X153743797Y-73082671D01*
X153743793Y-73082664D01*
X153657547Y-72967455D01*
X153654644Y-72964105D01*
X153654906Y-72963877D01*
X153643900Y-72950486D01*
X153563363Y-72830323D01*
X153542390Y-72763675D01*
X153559206Y-72698897D01*
X153700349Y-72456477D01*
X153708701Y-72443951D01*
X153713115Y-72438132D01*
X153765479Y-72305346D01*
X153775500Y-72221902D01*
X153775500Y-71703098D01*
X153773703Y-71688132D01*
X153772655Y-71679411D01*
X153772654Y-71679410D01*
X153767786Y-71638862D01*
X153765479Y-71619654D01*
X153713115Y-71486868D01*
X153704596Y-71475634D01*
X153626867Y-71373132D01*
X153626866Y-71373131D01*
X153626863Y-71373128D01*
X153509757Y-71284325D01*
X153510081Y-71283896D01*
X153495215Y-71271645D01*
X153484234Y-71260388D01*
X153451513Y-71198654D01*
X153457353Y-71129052D01*
X153457670Y-71128234D01*
X153492117Y-71079269D01*
X153496315Y-71075632D01*
X153505244Y-71069529D01*
X153505036Y-71069255D01*
X153557932Y-71029141D01*
X153626867Y-70976867D01*
X153642433Y-70956338D01*
X153658208Y-70939166D01*
X153661433Y-70936259D01*
X153721721Y-70857329D01*
X153738228Y-70839614D01*
X153743756Y-70834739D01*
X153763763Y-70820359D01*
X153854464Y-70767995D01*
X153858107Y-70764351D01*
X153860184Y-70762275D01*
X153869209Y-70754095D01*
X153884710Y-70741375D01*
X153903910Y-70725620D01*
X154141479Y-70488052D01*
X154146407Y-70483009D01*
X154152358Y-70473875D01*
X154168566Y-70453890D01*
X154810250Y-69812206D01*
X154856899Y-69782874D01*
X155428448Y-69582483D01*
X155469475Y-69575500D01*
X155693097Y-69575500D01*
X155693102Y-69575500D01*
X155781564Y-69564877D01*
X155922342Y-69509361D01*
X155962311Y-69479051D01*
X156024635Y-69431789D01*
X156040129Y-69421764D01*
X156051692Y-69415450D01*
X156063391Y-69409061D01*
X156131663Y-69394209D01*
X156197128Y-69418625D01*
X156239000Y-69474557D01*
X156239001Y-69474559D01*
X156241682Y-69481747D01*
X156249500Y-69525081D01*
X156249500Y-71146837D01*
X156244615Y-71181298D01*
X156144040Y-71528932D01*
X156143129Y-71536468D01*
X156137069Y-71562530D01*
X156127352Y-71590299D01*
X156126978Y-71592500D01*
X156126812Y-71596069D01*
X156124500Y-71620730D01*
X156124500Y-73129269D01*
X156126657Y-73152275D01*
X156126812Y-73153929D01*
X156126978Y-73157499D01*
X156127352Y-73159701D01*
X156155933Y-73241375D01*
X156170491Y-73282978D01*
X156172207Y-73287882D01*
X156252850Y-73397150D01*
X156324789Y-73450243D01*
X156362118Y-73477793D01*
X156490299Y-73522646D01*
X156490303Y-73522647D01*
X156508742Y-73524375D01*
X156520730Y-73525500D01*
X156520734Y-73525500D01*
X156520739Y-73525500D01*
X156929270Y-73525500D01*
X156929271Y-73525500D01*
X156953920Y-73523188D01*
X156957497Y-73523020D01*
X156959700Y-73522646D01*
X156959701Y-73522646D01*
X157025847Y-73499500D01*
X157087882Y-73477793D01*
X157197150Y-73397150D01*
X157277793Y-73287882D01*
X157302416Y-73217513D01*
X157312248Y-73189417D01*
X157312248Y-73189416D01*
X157322646Y-73159701D01*
X157323020Y-73157497D01*
X157323188Y-73153919D01*
X157325500Y-73129270D01*
X157325500Y-71620728D01*
X157323188Y-71596079D01*
X157323020Y-71592502D01*
X157322646Y-71590300D01*
X157322646Y-71590298D01*
X157312931Y-71562536D01*
X157306867Y-71536452D01*
X157305959Y-71528937D01*
X157290538Y-71475634D01*
X157205385Y-71181299D01*
X157200500Y-71146838D01*
X157200500Y-69095730D01*
X157899500Y-69095730D01*
X157899500Y-69504269D01*
X157900104Y-69510707D01*
X157901812Y-69528929D01*
X157901978Y-69532499D01*
X157902353Y-69534699D01*
X157902353Y-69534701D01*
X157947206Y-69662880D01*
X157947207Y-69662882D01*
X158027850Y-69772150D01*
X158128087Y-69846128D01*
X158137118Y-69852793D01*
X158265299Y-69897646D01*
X158265303Y-69897647D01*
X158282860Y-69899293D01*
X158295730Y-69900500D01*
X158295734Y-69900500D01*
X158295739Y-69900500D01*
X159429270Y-69900500D01*
X159429271Y-69900500D01*
X159453920Y-69898188D01*
X159457498Y-69898020D01*
X159459699Y-69897646D01*
X159459701Y-69897646D01*
X159523790Y-69875219D01*
X159587882Y-69852793D01*
X159697150Y-69772150D01*
X159777793Y-69662882D01*
X159810618Y-69569073D01*
X159822646Y-69534701D01*
X159822646Y-69534699D01*
X159823020Y-69532499D01*
X159823188Y-69528919D01*
X159823662Y-69523871D01*
X159825500Y-69504269D01*
X159825500Y-69095730D01*
X159823188Y-69071078D01*
X159823423Y-69069870D01*
X159822646Y-69065297D01*
X159783985Y-68954815D01*
X159783984Y-68954812D01*
X159783544Y-68953556D01*
X159777793Y-68937118D01*
X159697150Y-68827850D01*
X159587882Y-68747207D01*
X159587880Y-68747206D01*
X159571216Y-68741375D01*
X159459704Y-68702354D01*
X159459702Y-68702353D01*
X159459700Y-68702353D01*
X159429270Y-68699500D01*
X159429266Y-68699500D01*
X159429264Y-68699500D01*
X158295734Y-68699500D01*
X158295730Y-68699500D01*
X158277074Y-68701249D01*
X158271069Y-68701812D01*
X158269862Y-68701577D01*
X158265297Y-68702353D01*
X158137118Y-68747206D01*
X158027849Y-68827849D01*
X157947206Y-68937118D01*
X157902353Y-69065297D01*
X157901978Y-69067499D01*
X157901812Y-69071069D01*
X157899500Y-69095730D01*
X157200500Y-69095730D01*
X157200500Y-68871399D01*
X157202611Y-68848614D01*
X157203413Y-68844326D01*
X157205500Y-68833161D01*
X157205500Y-68677325D01*
X157205460Y-68676924D01*
X157205475Y-68676842D01*
X157205350Y-68674280D01*
X157205967Y-68674249D01*
X157218461Y-68608278D01*
X157266513Y-68557555D01*
X157304253Y-68543207D01*
X157379527Y-68527966D01*
X157404134Y-68525500D01*
X157441145Y-68525500D01*
X157493364Y-68519229D01*
X157525590Y-68515359D01*
X157579206Y-68494214D01*
X157596653Y-68488783D01*
X157616980Y-68484069D01*
X158126594Y-68260912D01*
X158139420Y-68258227D01*
X158146311Y-68254189D01*
X158156677Y-68254614D01*
X158176333Y-68250500D01*
X158550099Y-68250500D01*
X158550101Y-68250500D01*
X158671036Y-68218095D01*
X158779464Y-68155495D01*
X158885538Y-68049420D01*
X158913785Y-68028275D01*
X158936877Y-68015667D01*
X158996302Y-68000500D01*
X159429271Y-68000500D01*
X159453920Y-67998188D01*
X159457496Y-67998020D01*
X159459696Y-67997646D01*
X159459699Y-67997646D01*
X159459701Y-67997646D01*
X159538178Y-67970185D01*
X159587882Y-67952793D01*
X159697150Y-67872150D01*
X159777793Y-67762882D01*
X159800219Y-67698790D01*
X159822646Y-67634701D01*
X159822646Y-67634699D01*
X159823020Y-67632499D01*
X159823188Y-67628919D01*
X159825500Y-67604270D01*
X159825500Y-67195728D01*
X159823188Y-67171079D01*
X159823423Y-67169870D01*
X159822646Y-67165300D01*
X159822646Y-67165298D01*
X159777793Y-67037119D01*
X159777792Y-67037117D01*
X159771849Y-67029064D01*
X159768483Y-67024502D01*
X159695890Y-66926143D01*
X159686828Y-66911935D01*
X159677517Y-66894882D01*
X159662668Y-66826655D01*
X159662798Y-66824840D01*
X159682174Y-66766607D01*
X159686355Y-66760101D01*
X159702980Y-66739475D01*
X159710821Y-66731634D01*
X159730547Y-66715594D01*
X160127107Y-66455779D01*
X160193970Y-66435505D01*
X160195062Y-66435500D01*
X160814270Y-66435500D01*
X160838919Y-66433188D01*
X160842497Y-66433020D01*
X160844693Y-66432646D01*
X160844698Y-66432646D01*
X160844700Y-66432646D01*
X160865091Y-66425510D01*
X160880552Y-66421202D01*
X160907454Y-66415556D01*
X161253698Y-66315385D01*
X161288159Y-66310500D01*
X162373849Y-66310500D01*
X162408781Y-66315521D01*
X162434025Y-66322934D01*
X162486771Y-66354230D01*
X162742593Y-66610052D01*
X162763742Y-66638303D01*
X162765010Y-66640625D01*
X162779864Y-66708897D01*
X162755449Y-66774362D01*
X162699517Y-66816235D01*
X162660311Y-66823986D01*
X162109253Y-66842354D01*
X162091429Y-66841665D01*
X161802902Y-66809608D01*
X161687583Y-66796795D01*
X161687580Y-66796795D01*
X161687579Y-66796795D01*
X161647643Y-66798761D01*
X161635701Y-66799350D01*
X161629604Y-66799500D01*
X160570734Y-66799500D01*
X160570730Y-66799500D01*
X160552074Y-66801249D01*
X160546069Y-66801812D01*
X160542499Y-66801978D01*
X160540297Y-66802353D01*
X160412118Y-66847206D01*
X160302849Y-66927849D01*
X160222206Y-67037118D01*
X160177353Y-67165297D01*
X160176978Y-67167499D01*
X160176812Y-67171069D01*
X160174500Y-67195733D01*
X160174500Y-67604265D01*
X160176812Y-67628929D01*
X160176978Y-67632499D01*
X160177352Y-67634701D01*
X160220902Y-67759153D01*
X160222206Y-67762879D01*
X160222209Y-67762885D01*
X160302848Y-67872148D01*
X160302849Y-67872148D01*
X160302850Y-67872150D01*
X160316053Y-67881894D01*
X160412118Y-67952793D01*
X160540299Y-67997646D01*
X160540303Y-67997647D01*
X160558742Y-67999375D01*
X160570730Y-68000500D01*
X160570734Y-68000500D01*
X161629614Y-68000500D01*
X161635708Y-68000649D01*
X161644339Y-68001074D01*
X161687581Y-68003203D01*
X161687582Y-68003202D01*
X161687586Y-68003203D01*
X161967755Y-67972072D01*
X162036465Y-67984188D01*
X162049408Y-67990596D01*
X162100753Y-68037982D01*
X162118329Y-68105605D01*
X162096555Y-68171995D01*
X162082071Y-68189403D01*
X161670795Y-68600678D01*
X161651611Y-68616361D01*
X161557292Y-68678864D01*
X161490535Y-68699488D01*
X161488795Y-68699500D01*
X160570730Y-68699500D01*
X160552074Y-68701249D01*
X160546069Y-68701812D01*
X160542499Y-68701978D01*
X160540297Y-68702353D01*
X160412118Y-68747206D01*
X160302849Y-68827849D01*
X160222206Y-68937118D01*
X160177353Y-69065297D01*
X160176978Y-69067499D01*
X160176812Y-69071069D01*
X160174500Y-69095730D01*
X160174500Y-69504269D01*
X160175104Y-69510707D01*
X160176812Y-69528929D01*
X160176978Y-69532499D01*
X160177353Y-69534699D01*
X160177353Y-69534701D01*
X160222206Y-69662880D01*
X160222207Y-69662882D01*
X160302850Y-69772150D01*
X160412118Y-69852793D01*
X160454845Y-69867744D01*
X160489872Y-69880000D01*
X160547419Y-69900138D01*
X160547381Y-69900245D01*
X160554816Y-69902521D01*
X160580195Y-69912631D01*
X160627948Y-69946545D01*
X160631294Y-69950400D01*
X160643226Y-69967131D01*
X160643362Y-69967041D01*
X160643380Y-69967069D01*
X160643436Y-69967035D01*
X160644479Y-69968715D01*
X160756336Y-70080572D01*
X160756851Y-70080950D01*
X160759461Y-70082355D01*
X160838692Y-70128098D01*
X160893216Y-70159577D01*
X161045943Y-70200500D01*
X161045945Y-70200500D01*
X161204055Y-70200500D01*
X161204057Y-70200500D01*
X161356784Y-70159577D01*
X161493716Y-70080520D01*
X161605520Y-69968716D01*
X161605523Y-69968710D01*
X161608467Y-69964874D01*
X161621278Y-69950609D01*
X161638232Y-69934443D01*
X161688956Y-69905183D01*
X161693863Y-69903747D01*
X161717123Y-69899293D01*
X161728943Y-69898185D01*
X161733571Y-69897969D01*
X161734349Y-69897866D01*
X161738187Y-69896648D01*
X161738672Y-69896509D01*
X161742131Y-69895045D01*
X161818304Y-69868391D01*
X161862882Y-69852793D01*
X161862887Y-69852789D01*
X161863486Y-69852473D01*
X161882388Y-69841083D01*
X161902977Y-69831167D01*
X161924688Y-69823110D01*
X161962485Y-69812984D01*
X162088015Y-69740510D01*
X162353605Y-69474918D01*
X162364476Y-69465256D01*
X162367773Y-69462657D01*
X162381550Y-69451117D01*
X162382577Y-69450204D01*
X162400549Y-69432862D01*
X162402623Y-69429677D01*
X162418833Y-69409690D01*
X162909178Y-68919344D01*
X162933058Y-68900700D01*
X162961102Y-68883874D01*
X163235598Y-68719176D01*
X163695606Y-68443171D01*
X163759403Y-68425500D01*
X163793103Y-68425500D01*
X163815217Y-68422844D01*
X163881564Y-68414877D01*
X163918318Y-68400381D01*
X163944729Y-68393213D01*
X163953666Y-68391822D01*
X164503779Y-68197638D01*
X164554210Y-68190907D01*
X165071446Y-68229221D01*
X165096265Y-68230048D01*
X165098165Y-68230034D01*
X165129991Y-68228135D01*
X165129996Y-68228133D01*
X165133733Y-68227461D01*
X165155701Y-68225500D01*
X165641138Y-68225500D01*
X165641144Y-68225500D01*
X165725590Y-68215359D01*
X165859975Y-68162364D01*
X165886368Y-68142349D01*
X165917231Y-68125244D01*
X165928997Y-68120772D01*
X165998653Y-68115353D01*
X166060184Y-68148455D01*
X166093102Y-68205634D01*
X166095551Y-68215109D01*
X166099500Y-68246148D01*
X166099500Y-70082361D01*
X166079815Y-70149400D01*
X166027011Y-70195155D01*
X166014792Y-70199971D01*
X165848253Y-70255610D01*
X165808961Y-70262000D01*
X165778098Y-70262000D01*
X165709553Y-70270231D01*
X165702017Y-70271136D01*
X165698063Y-70271372D01*
X165694650Y-70272021D01*
X165561867Y-70324384D01*
X165561865Y-70324385D01*
X165448131Y-70410631D01*
X165361890Y-70524359D01*
X165361880Y-70524373D01*
X165359611Y-70530128D01*
X165342121Y-70560785D01*
X165333600Y-70571736D01*
X165276896Y-70612558D01*
X165207181Y-70616255D01*
X165206526Y-70616100D01*
X165153010Y-70588385D01*
X165148001Y-70583962D01*
X165130814Y-70565328D01*
X165116878Y-70546711D01*
X165116878Y-70546710D01*
X165057548Y-70467457D01*
X165057547Y-70467456D01*
X165057546Y-70467454D01*
X165034709Y-70450358D01*
X164981643Y-70410632D01*
X164942337Y-70381207D01*
X164942334Y-70381205D01*
X164942325Y-70381200D01*
X164809579Y-70331690D01*
X164806562Y-70330503D01*
X164800871Y-70330198D01*
X164747883Y-70324501D01*
X164747881Y-70324500D01*
X164747873Y-70324500D01*
X164747865Y-70324500D01*
X164102123Y-70324500D01*
X164100192Y-70324659D01*
X164098545Y-70324885D01*
X164049121Y-70330198D01*
X164042516Y-70330908D01*
X163907677Y-70381200D01*
X163907666Y-70381204D01*
X163907665Y-70381205D01*
X163792456Y-70467450D01*
X163792450Y-70467456D01*
X163706205Y-70582665D01*
X163706203Y-70582669D01*
X163706200Y-70582673D01*
X163655911Y-70717507D01*
X163655908Y-70717520D01*
X163649501Y-70777116D01*
X163649500Y-70777135D01*
X163649500Y-71272876D01*
X163649659Y-71274806D01*
X163649885Y-71276454D01*
X163655907Y-71332482D01*
X163674420Y-71382117D01*
X163706202Y-71467328D01*
X163706206Y-71467335D01*
X163749086Y-71524616D01*
X163792450Y-71582542D01*
X163792456Y-71582548D01*
X163805749Y-71592499D01*
X163907664Y-71668793D01*
X163907671Y-71668797D01*
X163936132Y-71679412D01*
X164042517Y-71719091D01*
X164102127Y-71725500D01*
X164264491Y-71725499D01*
X164310297Y-71734269D01*
X164312819Y-71735272D01*
X164367843Y-71778329D01*
X164390855Y-71844300D01*
X164374547Y-71912240D01*
X164324096Y-71960578D01*
X164267010Y-71974500D01*
X164102123Y-71974500D01*
X164100192Y-71974659D01*
X164098545Y-71974885D01*
X164042516Y-71980908D01*
X163907666Y-72031204D01*
X163907665Y-72031205D01*
X163792456Y-72117450D01*
X163792450Y-72117456D01*
X163706205Y-72232665D01*
X163706201Y-72232671D01*
X163706200Y-72232673D01*
X163655911Y-72367507D01*
X163655908Y-72367520D01*
X163649501Y-72427116D01*
X163649500Y-72427130D01*
X163649500Y-72765915D01*
X163644476Y-72800853D01*
X163641289Y-72811706D01*
X163603514Y-72870483D01*
X163539957Y-72899506D01*
X163470807Y-72889565D01*
X163463829Y-72886378D01*
X163427657Y-72861264D01*
X161470915Y-70904522D01*
X161470913Y-70904520D01*
X161460119Y-70898288D01*
X161425250Y-70878155D01*
X161425250Y-70878156D01*
X161379589Y-70851793D01*
X161300474Y-70830595D01*
X161300471Y-70830594D01*
X161277728Y-70824500D01*
X161277727Y-70824500D01*
X161277726Y-70824500D01*
X160196738Y-70824500D01*
X160196675Y-70824499D01*
X160194771Y-70824499D01*
X160187175Y-70824499D01*
X160081721Y-70824499D01*
X160013814Y-70842695D01*
X160013813Y-70842694D01*
X159979861Y-70851792D01*
X159979860Y-70851792D01*
X159888530Y-70904523D01*
X159813966Y-70979089D01*
X159813965Y-70979089D01*
X159605925Y-71187128D01*
X159577674Y-71208278D01*
X159563350Y-71216100D01*
X159496336Y-71231037D01*
X159478400Y-71229938D01*
X159460016Y-71227383D01*
X159459700Y-71227353D01*
X159459699Y-71227353D01*
X159429270Y-71224500D01*
X159429266Y-71224500D01*
X159429264Y-71224500D01*
X159020734Y-71224500D01*
X159020730Y-71224500D01*
X159002074Y-71226249D01*
X158996069Y-71226812D01*
X158992499Y-71226978D01*
X158990297Y-71227353D01*
X158862118Y-71272206D01*
X158752849Y-71352849D01*
X158672206Y-71462118D01*
X158627353Y-71590297D01*
X158626978Y-71592499D01*
X158626812Y-71596069D01*
X158624500Y-71620730D01*
X158624500Y-73129269D01*
X158626657Y-73152275D01*
X158626812Y-73153929D01*
X158626978Y-73157499D01*
X158627352Y-73159701D01*
X158655933Y-73241375D01*
X158670491Y-73282978D01*
X158672207Y-73287882D01*
X158752850Y-73397150D01*
X158824789Y-73450243D01*
X158862118Y-73477793D01*
X158990299Y-73522646D01*
X158990303Y-73522647D01*
X159008742Y-73524375D01*
X159020730Y-73525500D01*
X159020734Y-73525500D01*
X159020739Y-73525500D01*
X159429270Y-73525500D01*
X159429271Y-73525500D01*
X159453920Y-73523188D01*
X159457497Y-73523020D01*
X159459700Y-73522646D01*
X159459701Y-73522646D01*
X159525847Y-73499500D01*
X159587882Y-73477793D01*
X159697150Y-73397150D01*
X159739645Y-73339570D01*
X159764424Y-73314451D01*
X159775482Y-73306055D01*
X159840777Y-73281193D01*
X159909148Y-73295578D01*
X159915659Y-73299076D01*
X159956740Y-73334675D01*
X159991879Y-73382287D01*
X159991881Y-73382288D01*
X160002848Y-73397148D01*
X160002849Y-73397148D01*
X160002850Y-73397150D01*
X160112118Y-73477793D01*
X160154845Y-73492744D01*
X160240299Y-73522646D01*
X160240303Y-73522647D01*
X160258742Y-73524375D01*
X160270730Y-73525500D01*
X160270734Y-73525500D01*
X160270739Y-73525500D01*
X160679270Y-73525500D01*
X160679271Y-73525500D01*
X160703920Y-73523188D01*
X160707497Y-73523020D01*
X160709700Y-73522646D01*
X160709701Y-73522646D01*
X160775847Y-73499500D01*
X160837882Y-73477793D01*
X160947150Y-73397150D01*
X161027793Y-73287882D01*
X161052416Y-73217513D01*
X161062248Y-73189417D01*
X161062248Y-73189416D01*
X161072646Y-73159701D01*
X161073020Y-73157497D01*
X161073188Y-73153919D01*
X161075500Y-73129270D01*
X161075500Y-73034084D01*
X161080521Y-72999157D01*
X161083707Y-72988304D01*
X161121477Y-72929523D01*
X161185031Y-72900494D01*
X161254186Y-72910432D01*
X161261172Y-72913622D01*
X161297342Y-72938735D01*
X163654087Y-75295480D01*
X163745412Y-75348207D01*
X163847273Y-75375500D01*
X163952727Y-75375500D01*
X165977563Y-75375500D01*
X166012495Y-75380521D01*
X166037739Y-75387934D01*
X166090485Y-75419230D01*
X167446466Y-76775211D01*
X167467615Y-76803461D01*
X167473036Y-76813388D01*
X167487890Y-76881661D01*
X167463476Y-76947126D01*
X167407544Y-76988999D01*
X167407540Y-76989001D01*
X167400352Y-76991682D01*
X167357018Y-76999500D01*
X152008121Y-76999500D01*
X152002691Y-76999381D01*
X151997284Y-76999144D01*
X151991906Y-76998791D01*
X151842637Y-76985731D01*
X151831915Y-76984320D01*
X151830095Y-76983999D01*
X151821293Y-76982447D01*
X151810734Y-76980106D01*
X151698854Y-76950128D01*
X151673859Y-76943431D01*
X151663545Y-76940179D01*
X151657652Y-76938034D01*
X151653396Y-76936485D01*
X151643408Y-76932347D01*
X151514994Y-76872466D01*
X151505401Y-76867472D01*
X151496051Y-76862074D01*
X151486934Y-76856267D01*
X151370846Y-76774981D01*
X151362270Y-76768400D01*
X151354005Y-76761465D01*
X151346029Y-76754156D01*
X151245842Y-76653969D01*
X151238533Y-76645993D01*
X151231598Y-76637728D01*
X151225019Y-76629155D01*
X151143727Y-76513058D01*
X151137924Y-76503947D01*
X151132526Y-76494597D01*
X151127532Y-76485004D01*
X151067651Y-76356590D01*
X151063513Y-76346602D01*
X151059814Y-76336439D01*
X151056569Y-76326146D01*
X151022903Y-76200500D01*
X151022902Y-76200498D01*
X151019895Y-76189275D01*
X151017551Y-76178702D01*
X151015678Y-76168077D01*
X151014267Y-76157357D01*
X151001208Y-76008093D01*
X151000854Y-76002690D01*
X151000618Y-75997280D01*
X151000500Y-75991876D01*
X151000500Y-61908122D01*
X151000618Y-61902718D01*
X151000854Y-61897308D01*
X151001208Y-61891905D01*
X151007435Y-61820730D01*
X151010097Y-61790297D01*
X151014268Y-61742622D01*
X151015678Y-61731915D01*
X151017552Y-61721287D01*
X151019892Y-61710733D01*
X151032918Y-61662118D01*
X151056571Y-61573842D01*
X151059815Y-61563554D01*
X151063518Y-61553383D01*
X151067643Y-61543425D01*
X151127541Y-61414973D01*
X151132530Y-61405392D01*
X151137929Y-61396042D01*
X151143715Y-61386957D01*
X151225022Y-61270839D01*
X151231591Y-61262279D01*
X151231599Y-61262270D01*
X151238534Y-61254004D01*
X151245829Y-61246042D01*
X151346042Y-61145829D01*
X151354005Y-61138533D01*
X151362279Y-61131591D01*
X151370839Y-61125022D01*
X151486957Y-61043715D01*
X151496042Y-61037929D01*
X151505399Y-61032526D01*
X151514983Y-61027537D01*
X151643418Y-60967647D01*
X151653399Y-60963512D01*
X151663550Y-60959816D01*
X151673836Y-60956573D01*
X151810736Y-60919891D01*
X151821279Y-60917553D01*
X151831931Y-60915675D01*
X151842617Y-60914268D01*
X151969885Y-60903134D01*
X151991936Y-60901205D01*
X151997262Y-60900855D01*
X152002740Y-60900616D01*
X152008122Y-60900500D01*
X182491878Y-60900500D01*
X182497280Y-60900618D01*
G37*
%TD.AperFunction*%
%TA.AperFunction,Conductor*%
G36*
X182149824Y-65236620D02*
G01*
X182150369Y-65236824D01*
X182200145Y-65271182D01*
X182212164Y-65284878D01*
X182217767Y-65291742D01*
X182299920Y-65400078D01*
X182335701Y-65427211D01*
X182408272Y-65482243D01*
X182411470Y-65485032D01*
X182411479Y-65485038D01*
X182414759Y-65487353D01*
X182417965Y-65488524D01*
X182512757Y-65525905D01*
X182549410Y-65540359D01*
X182633856Y-65550500D01*
X182633862Y-65550500D01*
X183216144Y-65550500D01*
X183216145Y-65550500D01*
X183230218Y-65548809D01*
X183300590Y-65540359D01*
X183313422Y-65535298D01*
X183347758Y-65527153D01*
X183361588Y-65525905D01*
X183430123Y-65539482D01*
X183480436Y-65587949D01*
X183483200Y-65592793D01*
X183499500Y-65654247D01*
X183499500Y-75991878D01*
X183499381Y-75997309D01*
X183499144Y-76002715D01*
X183498791Y-76008092D01*
X183485731Y-76157361D01*
X183484320Y-76168083D01*
X183482448Y-76178701D01*
X183480106Y-76189264D01*
X183443432Y-76326136D01*
X183440177Y-76336460D01*
X183436485Y-76346602D01*
X183432347Y-76356590D01*
X183372466Y-76485004D01*
X183367472Y-76494597D01*
X183362074Y-76503947D01*
X183356261Y-76513073D01*
X183274985Y-76629147D01*
X183268400Y-76637728D01*
X183261465Y-76645993D01*
X183254156Y-76653969D01*
X183153969Y-76754156D01*
X183145993Y-76761465D01*
X183137728Y-76768400D01*
X183129147Y-76774985D01*
X183013073Y-76856261D01*
X183003947Y-76862074D01*
X182994597Y-76867472D01*
X182985004Y-76872466D01*
X182856590Y-76932347D01*
X182846602Y-76936485D01*
X182836460Y-76940177D01*
X182826136Y-76943432D01*
X182689264Y-76980106D01*
X182678701Y-76982448D01*
X182668083Y-76984320D01*
X182657361Y-76985731D01*
X182508093Y-76998791D01*
X182502716Y-76999144D01*
X182497310Y-76999381D01*
X182491879Y-76999500D01*
X175448730Y-76999500D01*
X175413795Y-76994477D01*
X175402941Y-76991290D01*
X175344163Y-76953516D01*
X175315138Y-76889960D01*
X175325081Y-76820803D01*
X175328271Y-76813820D01*
X175353380Y-76777658D01*
X175409824Y-76721213D01*
X175409825Y-76721212D01*
X175409827Y-76721210D01*
X175436759Y-76666118D01*
X175464866Y-76608625D01*
X175475500Y-76535636D01*
X175475500Y-75139364D01*
X175464866Y-75066375D01*
X175445059Y-75025860D01*
X175445059Y-75025859D01*
X175438600Y-75012647D01*
X175427770Y-74979062D01*
X175426899Y-74973962D01*
X175425866Y-74967911D01*
X175433983Y-74898517D01*
X175478330Y-74844526D01*
X175544821Y-74823081D01*
X175548654Y-74822980D01*
X175606380Y-74835536D01*
X175666057Y-74864711D01*
X175666950Y-74865153D01*
X175667067Y-74865211D01*
X175670132Y-74865788D01*
X175675253Y-74866159D01*
X175739364Y-74875500D01*
X175739370Y-74875500D01*
X177135630Y-74875500D01*
X177135636Y-74875500D01*
X177208625Y-74864866D01*
X177266718Y-74836466D01*
X177321210Y-74809827D01*
X177409827Y-74721210D01*
X177454336Y-74630164D01*
X177464866Y-74608625D01*
X177475500Y-74535636D01*
X177475500Y-74314364D01*
X177464866Y-74241375D01*
X177464864Y-74241371D01*
X177464864Y-74241369D01*
X177462023Y-74232173D01*
X177462531Y-74232016D01*
X177456041Y-74211889D01*
X177452110Y-74188871D01*
X177455369Y-74133043D01*
X177455726Y-74131830D01*
X177456085Y-74130606D01*
X177463661Y-74111089D01*
X177464866Y-74108625D01*
X177475500Y-74035636D01*
X177475500Y-73814364D01*
X177466010Y-73749228D01*
X178449500Y-73749228D01*
X178449500Y-74050770D01*
X178449501Y-74050799D01*
X178488859Y-74349755D01*
X178488860Y-74349760D01*
X178488861Y-74349766D01*
X178491355Y-74359073D01*
X178566912Y-74641058D01*
X178682031Y-74918978D01*
X178682289Y-74919613D01*
X178682316Y-74919668D01*
X178682318Y-74919671D01*
X178833099Y-75180831D01*
X178833100Y-75180832D01*
X178833102Y-75180835D01*
X179016672Y-75420070D01*
X179016676Y-75420075D01*
X179016679Y-75420078D01*
X179016685Y-75420085D01*
X179229914Y-75633314D01*
X179229921Y-75633320D01*
X179229924Y-75633322D01*
X179229928Y-75633326D01*
X179419818Y-75779033D01*
X179469168Y-75816900D01*
X179726892Y-75965697D01*
X179728633Y-75966779D01*
X179732095Y-75968702D01*
X179732683Y-75969042D01*
X179737828Y-75970787D01*
X179916072Y-76044619D01*
X179916071Y-76044619D01*
X180004881Y-76081405D01*
X180006710Y-76082240D01*
X180007194Y-76082424D01*
X180009584Y-76083372D01*
X180012842Y-76084132D01*
X180300232Y-76161138D01*
X180599217Y-76200500D01*
X180599224Y-76200500D01*
X180900776Y-76200500D01*
X180900783Y-76200500D01*
X181199768Y-76161138D01*
X181491058Y-76083087D01*
X181769668Y-75967683D01*
X182030832Y-75816900D01*
X182270080Y-75633319D01*
X182483319Y-75420080D01*
X182666900Y-75180832D01*
X182817683Y-74919668D01*
X182933087Y-74641058D01*
X183011138Y-74349768D01*
X183050500Y-74050783D01*
X183050500Y-73749217D01*
X183011138Y-73450232D01*
X182933087Y-73158942D01*
X182933086Y-73158939D01*
X182817687Y-72880341D01*
X182817685Y-72880336D01*
X182817682Y-72880330D01*
X182817483Y-72879986D01*
X182666900Y-72619168D01*
X182602799Y-72535630D01*
X182483326Y-72379928D01*
X182483322Y-72379924D01*
X182483320Y-72379921D01*
X182483314Y-72379914D01*
X182270085Y-72166685D01*
X182270078Y-72166679D01*
X182270075Y-72166676D01*
X182270070Y-72166672D01*
X182030835Y-71983102D01*
X182030834Y-71983101D01*
X182030831Y-71983099D01*
X181792633Y-71845575D01*
X181769668Y-71832316D01*
X181769618Y-71832292D01*
X181768980Y-71832032D01*
X181718576Y-71811154D01*
X181679762Y-71795076D01*
X181491058Y-71716912D01*
X181336934Y-71675615D01*
X181199766Y-71638861D01*
X181199760Y-71638860D01*
X181199755Y-71638859D01*
X180904883Y-71600039D01*
X180902867Y-71599705D01*
X180900793Y-71599500D01*
X180900788Y-71599500D01*
X180900783Y-71599500D01*
X180599217Y-71599500D01*
X180599211Y-71599500D01*
X180599206Y-71599500D01*
X180597129Y-71599705D01*
X180595115Y-71600039D01*
X180300243Y-71638859D01*
X180300236Y-71638860D01*
X180300233Y-71638861D01*
X180238673Y-71655355D01*
X180008940Y-71716912D01*
X179731018Y-71832032D01*
X179730388Y-71832288D01*
X179730330Y-71832316D01*
X179508175Y-71960578D01*
X179483787Y-71974659D01*
X179469163Y-71983102D01*
X179229928Y-72166672D01*
X179229913Y-72166686D01*
X179229905Y-72166693D01*
X179016693Y-72379905D01*
X179016686Y-72379913D01*
X179016672Y-72379928D01*
X178833102Y-72619163D01*
X178682316Y-72880330D01*
X178682288Y-72880388D01*
X178682032Y-72881018D01*
X178566912Y-73158940D01*
X178525265Y-73314370D01*
X178488862Y-73450232D01*
X178488859Y-73450243D01*
X178449501Y-73749199D01*
X178449500Y-73749228D01*
X177466010Y-73749228D01*
X177464866Y-73741375D01*
X177458321Y-73727988D01*
X177455159Y-73715401D01*
X177455644Y-73703088D01*
X177452676Y-73690133D01*
X177451865Y-73690201D01*
X177450979Y-73679488D01*
X177452665Y-73679348D01*
X177455355Y-73633089D01*
X177456074Y-73630641D01*
X177463661Y-73611089D01*
X177464866Y-73608625D01*
X177475500Y-73535636D01*
X177475500Y-73314364D01*
X177464866Y-73241375D01*
X177464864Y-73241371D01*
X177464864Y-73241369D01*
X177462023Y-73232173D01*
X177462531Y-73232016D01*
X177456041Y-73211889D01*
X177452110Y-73188871D01*
X177455369Y-73133043D01*
X177456085Y-73130606D01*
X177463661Y-73111089D01*
X177464866Y-73108625D01*
X177475500Y-73035636D01*
X177475500Y-72814364D01*
X177464866Y-72741375D01*
X177464864Y-72741371D01*
X177464864Y-72741369D01*
X177462023Y-72732173D01*
X177462531Y-72732016D01*
X177456041Y-72711889D01*
X177452110Y-72688871D01*
X177455369Y-72633043D01*
X177456085Y-72630606D01*
X177463661Y-72611089D01*
X177464866Y-72608625D01*
X177475500Y-72535636D01*
X177475500Y-72314364D01*
X177464866Y-72241375D01*
X177464864Y-72241371D01*
X177464864Y-72241369D01*
X177462023Y-72232173D01*
X177462531Y-72232016D01*
X177456041Y-72211889D01*
X177452110Y-72188871D01*
X177455369Y-72133043D01*
X177456085Y-72130606D01*
X177463661Y-72111089D01*
X177464866Y-72108625D01*
X177475500Y-72035636D01*
X177475500Y-71814364D01*
X177464866Y-71741375D01*
X177464864Y-71741371D01*
X177464864Y-71741369D01*
X177462023Y-71732173D01*
X177462531Y-71732016D01*
X177456041Y-71711889D01*
X177452110Y-71688871D01*
X177455369Y-71633043D01*
X177456085Y-71630606D01*
X177463661Y-71611089D01*
X177464866Y-71608625D01*
X177475500Y-71535636D01*
X177475500Y-71314364D01*
X177464866Y-71241375D01*
X177464864Y-71241371D01*
X177464864Y-71241369D01*
X177462023Y-71232173D01*
X177462531Y-71232016D01*
X177456041Y-71211889D01*
X177452110Y-71188871D01*
X177455369Y-71133043D01*
X177456085Y-71130606D01*
X177463661Y-71111089D01*
X177464866Y-71108625D01*
X177475500Y-71035636D01*
X177475500Y-70814364D01*
X177464866Y-70741375D01*
X177464864Y-70741371D01*
X177464864Y-70741369D01*
X177462023Y-70732173D01*
X177462531Y-70732016D01*
X177456041Y-70711889D01*
X177452110Y-70688871D01*
X177455369Y-70633043D01*
X177456085Y-70630606D01*
X177463661Y-70611089D01*
X177464866Y-70608625D01*
X177475500Y-70535636D01*
X177475500Y-70314364D01*
X177464866Y-70241375D01*
X177464864Y-70241371D01*
X177464864Y-70241369D01*
X177462023Y-70232173D01*
X177462531Y-70232016D01*
X177456041Y-70211889D01*
X177452110Y-70188871D01*
X177455369Y-70133043D01*
X177456085Y-70130606D01*
X177463661Y-70111089D01*
X177464866Y-70108625D01*
X177475500Y-70035636D01*
X177475500Y-69814364D01*
X177464866Y-69741375D01*
X177464864Y-69741371D01*
X177464864Y-69741369D01*
X177462023Y-69732173D01*
X177462531Y-69732016D01*
X177456041Y-69711889D01*
X177452110Y-69688871D01*
X177455369Y-69633043D01*
X177456085Y-69630606D01*
X177463661Y-69611089D01*
X177464866Y-69608625D01*
X177475500Y-69535636D01*
X177475500Y-69314364D01*
X177464866Y-69241375D01*
X177459043Y-69229464D01*
X177409827Y-69128789D01*
X177409826Y-69128788D01*
X177409826Y-69128787D01*
X177321212Y-69040173D01*
X177209078Y-68985355D01*
X177208635Y-68985135D01*
X177204649Y-68984194D01*
X177199737Y-68983839D01*
X177193468Y-68982925D01*
X177135636Y-68974500D01*
X177135631Y-68974500D01*
X176479795Y-68974500D01*
X176444860Y-68969477D01*
X176434006Y-68966290D01*
X176375228Y-68928516D01*
X176346203Y-68864960D01*
X176356143Y-68795811D01*
X176359333Y-68788824D01*
X176384442Y-68752660D01*
X178137679Y-66999423D01*
X178165929Y-66978275D01*
X178189021Y-66965667D01*
X178248446Y-66950500D01*
X180809307Y-66950500D01*
X180809309Y-66950500D01*
X180896118Y-66927239D01*
X180914464Y-66922324D01*
X180914466Y-66922323D01*
X180923887Y-66919799D01*
X181026614Y-66860489D01*
X181710489Y-66176614D01*
X181769799Y-66073887D01*
X181784630Y-66018536D01*
X181800500Y-65959309D01*
X181800500Y-65753053D01*
X181811358Y-65702309D01*
X181988837Y-65306592D01*
X182014285Y-65269669D01*
X182018819Y-65265134D01*
X182080137Y-65231645D01*
X182149824Y-65236620D01*
G37*
%TD.AperFunction*%
%TD*%
%TA.AperFunction,Conductor*%
%TO.N,/USART1_TX*%
G36*
X171117797Y-74950891D02*
G01*
X171120129Y-74951857D01*
X171125893Y-74957011D01*
X171126253Y-74957663D01*
X171127424Y-74960743D01*
X171168454Y-75142594D01*
X171168741Y-75145074D01*
X171168761Y-75147530D01*
X171168515Y-75150013D01*
X171036928Y-75781274D01*
X171035144Y-75785472D01*
X171034435Y-75786513D01*
X171026946Y-75791422D01*
X171018179Y-75789597D01*
X171018143Y-75789572D01*
X171018032Y-75789495D01*
X171018005Y-75789476D01*
X171013284Y-75782296D01*
X170881483Y-75150013D01*
X170881237Y-75147530D01*
X170881257Y-75145067D01*
X170881543Y-75142601D01*
X170922429Y-74961393D01*
X170924283Y-74957224D01*
X170925740Y-74955160D01*
X170932053Y-74950666D01*
X170932770Y-74950459D01*
X170936015Y-74950000D01*
X171113319Y-74950000D01*
X171117797Y-74950891D01*
G37*
%TD.AperFunction*%
%TD*%
%TA.AperFunction,Conductor*%
%TO.N,/USART1_TX*%
G36*
X170994684Y-74404292D02*
G01*
X170997098Y-74405113D01*
X171003178Y-74409869D01*
X171003562Y-74410467D01*
X171004917Y-74413406D01*
X171095710Y-74714043D01*
X171095820Y-74714321D01*
X171095872Y-74714434D01*
X171110849Y-74750590D01*
X171110849Y-74750591D01*
X171123666Y-74781536D01*
X171124331Y-74783723D01*
X171124774Y-74785943D01*
X171125000Y-74788233D01*
X171125000Y-74862736D01*
X171124109Y-74867215D01*
X171123427Y-74868861D01*
X171117099Y-74875190D01*
X171116612Y-74875392D01*
X171115452Y-74875872D01*
X171110973Y-74876764D01*
X170963310Y-74876764D01*
X170958834Y-74875874D01*
X170957669Y-74875391D01*
X170951337Y-74869061D01*
X170951334Y-74860112D01*
X170951550Y-74859591D01*
X170954330Y-74856072D01*
X170954289Y-74855465D01*
X170505393Y-74616385D01*
X170501863Y-74613498D01*
X170500731Y-74612124D01*
X170498115Y-74603562D01*
X170498189Y-74602798D01*
X170501381Y-74595839D01*
X170660425Y-74429716D01*
X170663931Y-74427205D01*
X170667640Y-74425476D01*
X170671821Y-74424405D01*
X170990160Y-74403696D01*
X170994684Y-74404292D01*
G37*
%TD.AperFunction*%
%TD*%
%TA.AperFunction,Conductor*%
%TO.N,+3.3V*%
G36*
X168804637Y-63955146D02*
G01*
X168806038Y-63955727D01*
X168809576Y-63958015D01*
X169158627Y-64286588D01*
X169198422Y-64324048D01*
X169201072Y-64327766D01*
X169201804Y-64329393D01*
X169202073Y-64338343D01*
X169201543Y-64339740D01*
X169198688Y-64344048D01*
X168949999Y-64581737D01*
X168949999Y-64581739D01*
X168949998Y-64581739D01*
X169009144Y-64615671D01*
X169080472Y-64656594D01*
X169083909Y-64659589D01*
X169084999Y-64661001D01*
X169087344Y-64669643D01*
X169087342Y-64669656D01*
X169087241Y-64670435D01*
X169083911Y-64677204D01*
X168893541Y-64867575D01*
X168889749Y-64870110D01*
X168888104Y-64870792D01*
X168879149Y-64870794D01*
X168877497Y-64870110D01*
X168873704Y-64867575D01*
X168696394Y-64690265D01*
X168694938Y-64688490D01*
X168693681Y-64686608D01*
X168692601Y-64684587D01*
X168686739Y-64670435D01*
X168650001Y-64581740D01*
X168650000Y-64581739D01*
X168401497Y-64344226D01*
X168398878Y-64340492D01*
X168398157Y-64338858D01*
X168397957Y-64329909D01*
X168398500Y-64328508D01*
X168401383Y-64324230D01*
X168790290Y-63958138D01*
X168794156Y-63955722D01*
X168796016Y-63955017D01*
X168804637Y-63955146D01*
G37*
%TD.AperFunction*%
%TD*%
%TA.AperFunction,Conductor*%
%TO.N,+3.3V*%
G36*
X181357902Y-64781240D02*
G01*
X181687200Y-65082947D01*
X181728547Y-65120830D01*
X181732332Y-65128946D01*
X181731318Y-65134245D01*
X181503100Y-65643088D01*
X181496588Y-65649234D01*
X181492425Y-65650000D01*
X181207575Y-65650000D01*
X181199302Y-65646573D01*
X181196900Y-65643088D01*
X180968681Y-65134245D01*
X180968422Y-65125294D01*
X180971450Y-65120832D01*
X181342097Y-64781240D01*
X181350511Y-64778179D01*
X181357902Y-64781240D01*
G37*
%TD.AperFunction*%
%TD*%
%TA.AperFunction,Conductor*%
%TO.N,5V*%
G36*
X164895521Y-67180468D02*
G01*
X165343244Y-67617431D01*
X165346771Y-67625662D01*
X165344045Y-67633312D01*
X165103851Y-67920396D01*
X165095914Y-67924542D01*
X165094014Y-67924556D01*
X164435836Y-67875802D01*
X164427838Y-67871773D01*
X164425000Y-67864134D01*
X164425000Y-67382703D01*
X164428427Y-67374430D01*
X164432074Y-67371956D01*
X164882728Y-67178092D01*
X164891679Y-67177972D01*
X164895521Y-67180468D01*
G37*
%TD.AperFunction*%
%TD*%
%TA.AperFunction,Conductor*%
%TO.N,5V*%
G36*
X163851975Y-67146255D02*
G01*
X164492195Y-67372244D01*
X164498855Y-67378229D01*
X164500000Y-67383277D01*
X164500000Y-67866722D01*
X164496573Y-67874995D01*
X164492194Y-67877755D01*
X163851978Y-68103743D01*
X163843036Y-68103265D01*
X163840552Y-68101663D01*
X163284641Y-67633953D01*
X163280516Y-67626004D01*
X163283220Y-67617468D01*
X163284641Y-67616047D01*
X163840553Y-67148335D01*
X163849088Y-67145632D01*
X163851975Y-67146255D01*
G37*
%TD.AperFunction*%
%TD*%
%TA.AperFunction,Conductor*%
%TO.N,+3.3V*%
G36*
X166967560Y-70528588D02*
G01*
X166971329Y-70536710D01*
X166971339Y-70537199D01*
X166971339Y-70868504D01*
X166967912Y-70876777D01*
X166965826Y-70878434D01*
X166557552Y-71132794D01*
X166548718Y-71134261D01*
X166543448Y-71131478D01*
X166077783Y-70703477D01*
X166074010Y-70695356D01*
X166074000Y-70694863D01*
X166074000Y-70573721D01*
X166077427Y-70565448D01*
X166085209Y-70562031D01*
X166959150Y-70525509D01*
X166967560Y-70528588D01*
G37*
%TD.AperFunction*%
%TD*%
%TA.AperFunction,Conductor*%
%TO.N,+3.3V*%
G36*
X166740448Y-70221146D02*
G01*
X166741281Y-70221490D01*
X166742093Y-70221827D01*
X166748425Y-70228155D01*
X166748427Y-70228158D01*
X166749109Y-70229804D01*
X166750000Y-70234283D01*
X166750000Y-70496520D01*
X166749775Y-70498805D01*
X166749333Y-70501025D01*
X166748667Y-70503218D01*
X166698747Y-70623731D01*
X166698745Y-70623736D01*
X166553901Y-71130079D01*
X166551811Y-71134141D01*
X166550703Y-71135535D01*
X166542877Y-71139879D01*
X166541185Y-71140073D01*
X166536484Y-71139654D01*
X166081851Y-71002979D01*
X166077818Y-71000835D01*
X166074876Y-70998432D01*
X166071459Y-70993827D01*
X165899439Y-70576233D01*
X165898557Y-70571757D01*
X165898560Y-70569975D01*
X165901999Y-70561712D01*
X165903019Y-70560696D01*
X165907559Y-70557895D01*
X166451256Y-70376256D01*
X166405769Y-70237815D01*
X166405218Y-70233291D01*
X166405352Y-70231509D01*
X166409392Y-70223519D01*
X166409907Y-70223075D01*
X166417526Y-70220256D01*
X166735973Y-70220256D01*
X166740448Y-70221146D01*
G37*
%TD.AperFunction*%
%TD*%
%TA.AperFunction,Conductor*%
%TO.N,5V*%
G36*
X161842118Y-68867855D02*
G01*
X162179600Y-69205337D01*
X162183027Y-69213610D01*
X162179600Y-69221883D01*
X162178573Y-69222796D01*
X161758546Y-69554109D01*
X161752940Y-69556508D01*
X161468661Y-69596751D01*
X161459989Y-69594517D01*
X161455436Y-69586806D01*
X161455789Y-69581890D01*
X161624537Y-69004107D01*
X161629304Y-68997636D01*
X161827383Y-68866374D01*
X161836171Y-68864662D01*
X161842118Y-68867855D01*
G37*
%TD.AperFunction*%
%TD*%
%TA.AperFunction,Conductor*%
%TO.N,5V*%
G36*
X163352173Y-67702571D02*
G01*
X163354676Y-67705297D01*
X163625365Y-68114803D01*
X163627069Y-68123595D01*
X163622057Y-68131015D01*
X163621625Y-68131288D01*
X162756057Y-68650630D01*
X162747199Y-68651948D01*
X162741764Y-68648870D01*
X162399638Y-68306744D01*
X162396211Y-68298471D01*
X162396720Y-68295058D01*
X162547767Y-67800208D01*
X162553459Y-67793298D01*
X162557593Y-67792006D01*
X163343559Y-67700128D01*
X163352173Y-67702571D01*
G37*
%TD.AperFunction*%
%TD*%
%TA.AperFunction,Conductor*%
%TO.N,5V*%
G36*
X162089593Y-67148843D02*
G01*
X162097436Y-67153162D01*
X162100000Y-67160471D01*
X162100000Y-67639528D01*
X162096573Y-67647801D01*
X162089592Y-67651156D01*
X161653849Y-67699572D01*
X161646655Y-67698046D01*
X161564416Y-67650000D01*
X161153790Y-67410101D01*
X161148376Y-67402970D01*
X161149591Y-67394098D01*
X161153791Y-67389898D01*
X161646658Y-67101952D01*
X161653846Y-67100427D01*
X162089593Y-67148843D01*
G37*
%TD.AperFunction*%
%TD*%
%TA.AperFunction,Conductor*%
%TO.N,5V*%
G36*
X162802897Y-67126673D02*
G01*
X163260023Y-67390770D01*
X163265472Y-67397875D01*
X163264301Y-67406753D01*
X163260837Y-67410514D01*
X162560645Y-67896066D01*
X162551894Y-67897965D01*
X162548787Y-67896937D01*
X162056509Y-67653222D01*
X162050615Y-67646481D01*
X162050000Y-67642737D01*
X162050000Y-67161317D01*
X162053427Y-67153044D01*
X162061310Y-67149623D01*
X162796656Y-67125111D01*
X162802897Y-67126673D01*
G37*
%TD.AperFunction*%
%TD*%
%TA.AperFunction,Conductor*%
%TO.N,+3.3V*%
G36*
X171673861Y-68080994D02*
G01*
X171677016Y-68086761D01*
X171794770Y-68623702D01*
X171793195Y-68632517D01*
X171785848Y-68637636D01*
X171785155Y-68637767D01*
X171528130Y-68678076D01*
X171522049Y-68677411D01*
X171233013Y-68564182D01*
X171226560Y-68557973D01*
X171226122Y-68549772D01*
X171372420Y-68085748D01*
X171378176Y-68078889D01*
X171383579Y-68077567D01*
X171665588Y-68077567D01*
X171673861Y-68080994D01*
G37*
%TD.AperFunction*%
%TD*%
%TA.AperFunction,Conductor*%
%TO.N,+3.3V*%
G36*
X153418026Y-70023428D02*
G01*
X153418650Y-70024177D01*
X153562500Y-70212500D01*
X153678430Y-70028657D01*
X153685742Y-70023488D01*
X153694568Y-70025002D01*
X153696600Y-70026626D01*
X153925458Y-70255484D01*
X153928885Y-70263757D01*
X153925458Y-70272030D01*
X153687889Y-70509598D01*
X153684093Y-70512134D01*
X153562500Y-70562499D01*
X153418656Y-70750815D01*
X153410911Y-70755310D01*
X153402256Y-70753011D01*
X153401500Y-70752381D01*
X153192041Y-70562499D01*
X153008560Y-70396166D01*
X153004733Y-70388073D01*
X153007751Y-70379642D01*
X153008554Y-70378838D01*
X153401501Y-70022617D01*
X153409931Y-70019600D01*
X153418026Y-70023428D01*
G37*
%TD.AperFunction*%
%TD*%
%TA.AperFunction,Conductor*%
%TO.N,+3.3V*%
G36*
X159940152Y-65845114D02*
G01*
X159940167Y-65845150D01*
X160055590Y-66126061D01*
X160055565Y-66135016D01*
X160051180Y-66140295D01*
X159554568Y-66465661D01*
X159545770Y-66467328D01*
X159539883Y-66464147D01*
X159223110Y-66147374D01*
X159219683Y-66139101D01*
X159223110Y-66130828D01*
X159226894Y-66128297D01*
X159924864Y-65838789D01*
X159933817Y-65838785D01*
X159940152Y-65845114D01*
G37*
%TD.AperFunction*%
%TD*%
%TA.AperFunction,Conductor*%
%TO.N,+3.3V*%
G36*
X155902993Y-68055127D02*
G01*
X156394632Y-68371545D01*
X156399734Y-68378904D01*
X156400000Y-68381383D01*
X156400000Y-68718616D01*
X156396573Y-68726889D01*
X156394632Y-68728454D01*
X155902993Y-69044872D01*
X155894182Y-69046468D01*
X155888355Y-69043274D01*
X155566276Y-68718616D01*
X155407173Y-68558239D01*
X155403780Y-68549953D01*
X155407173Y-68541760D01*
X155888355Y-68056724D01*
X155896614Y-68053265D01*
X155902993Y-68055127D01*
G37*
%TD.AperFunction*%
%TD*%
%TA.AperFunction,Conductor*%
%TO.N,+3.3V*%
G36*
X171171573Y-66628427D02*
G01*
X171175000Y-66636700D01*
X171175000Y-67501800D01*
X171171573Y-67510073D01*
X171163300Y-67513500D01*
X171025000Y-67513500D01*
X170887200Y-67513500D01*
X170878927Y-67510073D01*
X170875500Y-67501800D01*
X170875499Y-66822867D01*
X170875225Y-66821490D01*
X170875000Y-66819208D01*
X170875000Y-66636700D01*
X170878427Y-66628427D01*
X170886700Y-66625000D01*
X171163300Y-66625000D01*
X171171573Y-66628427D01*
G37*
%TD.AperFunction*%
%TD*%
%TA.AperFunction,Conductor*%
%TO.N,+3.3V*%
G36*
X165772546Y-64277906D02*
G01*
X166149318Y-64386909D01*
X166153372Y-64389011D01*
X166155494Y-64390708D01*
X166159513Y-64396909D01*
X166159625Y-64397341D01*
X166159999Y-64400277D01*
X166159999Y-64728877D01*
X166159108Y-64733355D01*
X166158067Y-64735868D01*
X166153212Y-64741462D01*
X166152828Y-64741689D01*
X166150126Y-64742856D01*
X165772552Y-64852091D01*
X165769098Y-64852550D01*
X165765737Y-64852492D01*
X165762306Y-64851916D01*
X165134360Y-64646785D01*
X164920255Y-64576843D01*
X164916277Y-64574607D01*
X164915321Y-64573788D01*
X164911268Y-64565804D01*
X164914046Y-64557293D01*
X164914428Y-64556848D01*
X164919673Y-64553345D01*
X165762309Y-64278080D01*
X165765738Y-64277505D01*
X165769105Y-64277448D01*
X165772546Y-64277906D01*
G37*
%TD.AperFunction*%
%TD*%
%TA.AperFunction,Conductor*%
%TO.N,+3.3V*%
G36*
X166553802Y-64120722D02*
G01*
X166554355Y-64121091D01*
X166556739Y-64123202D01*
X166927857Y-64555515D01*
X166930097Y-64559492D01*
X166930799Y-64561634D01*
X166930461Y-64569825D01*
X166930016Y-64570880D01*
X166928017Y-64574065D01*
X166605655Y-64940194D01*
X166602026Y-64942967D01*
X166599312Y-64944298D01*
X166590375Y-64944864D01*
X166590266Y-64944826D01*
X166020001Y-64743529D01*
X166016078Y-64741202D01*
X166015502Y-64740684D01*
X166013912Y-64739256D01*
X166010305Y-64733066D01*
X166010273Y-64732924D01*
X166010000Y-64730412D01*
X166010000Y-64399497D01*
X166010889Y-64395023D01*
X166012112Y-64392070D01*
X166017607Y-64386123D01*
X166539431Y-64120230D01*
X166543819Y-64118992D01*
X166546393Y-64118790D01*
X166553802Y-64120722D01*
G37*
%TD.AperFunction*%
%TD*%
%TA.AperFunction,Conductor*%
%TO.N,+3.3V*%
G36*
X158823042Y-66716015D02*
G01*
X159030770Y-66923743D01*
X159030771Y-66923744D01*
X159030771Y-66923742D01*
X159033913Y-66923118D01*
X159035316Y-66921715D01*
X159044270Y-66921711D01*
X159049611Y-66926150D01*
X159157349Y-67092067D01*
X159158980Y-67100872D01*
X159155823Y-67106698D01*
X158870787Y-67392685D01*
X158862519Y-67396126D01*
X158854241Y-67392713D01*
X158854213Y-67392685D01*
X158569176Y-67106698D01*
X158565763Y-67098420D01*
X158567648Y-67092070D01*
X158687500Y-66907499D01*
X158737865Y-66785905D01*
X158740401Y-66782110D01*
X158806499Y-66716013D01*
X158814769Y-66712588D01*
X158823042Y-66716015D01*
G37*
%TD.AperFunction*%
%TD*%
%TA.AperFunction,Conductor*%
%TO.N,+3.3V*%
G36*
X172031818Y-67560400D02*
G01*
X172031881Y-67560443D01*
X172031967Y-67560503D01*
X172031994Y-67560522D01*
X172036715Y-67567702D01*
X172168515Y-68199985D01*
X172168761Y-68202468D01*
X172168741Y-68204924D01*
X172168454Y-68207404D01*
X172127571Y-68388603D01*
X172125716Y-68392775D01*
X172124259Y-68394839D01*
X172117965Y-68399328D01*
X172117249Y-68399536D01*
X172113985Y-68400000D01*
X171936681Y-68400000D01*
X171932201Y-68399108D01*
X171929868Y-68398141D01*
X171924106Y-68392988D01*
X171923746Y-68392336D01*
X171922576Y-68389260D01*
X171881543Y-68207398D01*
X171881257Y-68204929D01*
X171881237Y-68202464D01*
X171881483Y-68199985D01*
X172013071Y-67568724D01*
X172014855Y-67564526D01*
X172015565Y-67563484D01*
X172023053Y-67558576D01*
X172031818Y-67560400D01*
G37*
%TD.AperFunction*%
%TD*%
%TA.AperFunction,Conductor*%
%TO.N,+3.3V*%
G36*
X172124156Y-68106787D02*
G01*
X172127228Y-68112201D01*
X172191795Y-68368412D01*
X172190889Y-68376554D01*
X172029021Y-68696414D01*
X172022228Y-68702248D01*
X172016270Y-68702600D01*
X171867724Y-68672652D01*
X171860291Y-68667658D01*
X171858419Y-68659793D01*
X171923766Y-68113669D01*
X171928151Y-68105863D01*
X171935383Y-68103360D01*
X172115883Y-68103360D01*
X172124156Y-68106787D01*
G37*
%TD.AperFunction*%
%TD*%
%TA.AperFunction,Conductor*%
%TO.N,+3.3V*%
G36*
X160822546Y-65547906D02*
G01*
X161199318Y-65656909D01*
X161203372Y-65659011D01*
X161205494Y-65660708D01*
X161209513Y-65666909D01*
X161209625Y-65667341D01*
X161209999Y-65670277D01*
X161209999Y-65998877D01*
X161209108Y-66003355D01*
X161208067Y-66005868D01*
X161203212Y-66011462D01*
X161202828Y-66011689D01*
X161200126Y-66012856D01*
X160822552Y-66122091D01*
X160819098Y-66122550D01*
X160815737Y-66122492D01*
X160812306Y-66121916D01*
X160184360Y-65916785D01*
X159970255Y-65846843D01*
X159966277Y-65844607D01*
X159965321Y-65843788D01*
X159961268Y-65835804D01*
X159964046Y-65827293D01*
X159964428Y-65826848D01*
X159969673Y-65823345D01*
X160812309Y-65548080D01*
X160815738Y-65547505D01*
X160819105Y-65547448D01*
X160822546Y-65547906D01*
G37*
%TD.AperFunction*%
%TD*%
%TA.AperFunction,Conductor*%
%TO.N,+3.3V*%
G36*
X164199696Y-64270807D02*
G01*
X164204456Y-64278392D01*
X164204166Y-64283572D01*
X164041088Y-64851828D01*
X164035512Y-64858835D01*
X164029284Y-64860288D01*
X163773094Y-64848058D01*
X163765379Y-64844644D01*
X163634661Y-64713926D01*
X163631234Y-64705653D01*
X163633894Y-64698226D01*
X163951158Y-64312309D01*
X163958240Y-64308204D01*
X164190967Y-64268809D01*
X164199696Y-64270807D01*
G37*
%TD.AperFunction*%
%TD*%
%TA.AperFunction,Conductor*%
%TO.N,+3.3V*%
G36*
X172431893Y-68560371D02*
G01*
X172438156Y-68566772D01*
X172438342Y-68567267D01*
X172531070Y-68832327D01*
X172531076Y-68832341D01*
X172574109Y-68936230D01*
X172575000Y-68940707D01*
X172575000Y-69145298D01*
X172571573Y-69153571D01*
X172563300Y-69156998D01*
X172292127Y-69156998D01*
X172283854Y-69153571D01*
X172280427Y-69145298D01*
X172281228Y-69141044D01*
X172318934Y-69044448D01*
X172053885Y-68951724D01*
X172047208Y-68945757D01*
X172046705Y-68936816D01*
X172046876Y-68936359D01*
X172152752Y-68672632D01*
X172159015Y-68666232D01*
X172159220Y-68666146D01*
X172422941Y-68560273D01*
X172431893Y-68560371D01*
G37*
%TD.AperFunction*%
%TD*%
%TA.AperFunction,Conductor*%
%TO.N,+3.3V*%
G36*
X164199696Y-64270807D02*
G01*
X164204456Y-64278392D01*
X164204166Y-64283572D01*
X164040531Y-64853769D01*
X164034955Y-64860776D01*
X164031414Y-64862047D01*
X163827661Y-64899756D01*
X163818903Y-64897892D01*
X163817259Y-64896524D01*
X163582811Y-64662076D01*
X163579384Y-64653803D01*
X163582811Y-64645530D01*
X163583224Y-64645136D01*
X163951401Y-64311229D01*
X163957302Y-64308363D01*
X164190967Y-64268809D01*
X164199696Y-64270807D01*
G37*
%TD.AperFunction*%
%TD*%
%TA.AperFunction,Conductor*%
%TO.N,+3.3V*%
G36*
X169602270Y-65777411D02*
G01*
X170062581Y-65946383D01*
X170066476Y-65948761D01*
X170068644Y-65950759D01*
X170072115Y-65956732D01*
X170072133Y-65956810D01*
X170072433Y-65959441D01*
X170072433Y-66139503D01*
X170071542Y-66143981D01*
X170070414Y-66146704D01*
X170065896Y-66152091D01*
X170065827Y-66152135D01*
X170063568Y-66153253D01*
X169602418Y-66322532D01*
X169597908Y-66323239D01*
X169595950Y-66323159D01*
X169588036Y-66319621D01*
X169586951Y-66318503D01*
X169584590Y-66314956D01*
X169514185Y-66150104D01*
X169474306Y-66056729D01*
X169473368Y-66052266D01*
X169473323Y-66048091D01*
X169474261Y-66043376D01*
X169584529Y-65785185D01*
X169587104Y-65781423D01*
X169588505Y-65780052D01*
X169596510Y-65776719D01*
X169598067Y-65776696D01*
X169602270Y-65777411D01*
G37*
%TD.AperFunction*%
%TD*%
%TA.AperFunction,Conductor*%
%TO.N,+3.3V*%
G36*
X154909999Y-68347016D02*
G01*
X154923400Y-68352540D01*
X155393263Y-68546224D01*
X155399606Y-68552545D01*
X155400500Y-68557341D01*
X155382312Y-69266929D01*
X155378674Y-69275111D01*
X155374487Y-69277670D01*
X154681281Y-69520715D01*
X154672340Y-69520218D01*
X154669137Y-69517947D01*
X154432850Y-69281660D01*
X154429423Y-69273387D01*
X154430689Y-69268094D01*
X154431280Y-69266929D01*
X154895107Y-68352538D01*
X154901904Y-68346712D01*
X154909999Y-68347016D01*
G37*
%TD.AperFunction*%
%TD*%
%TA.AperFunction,Conductor*%
%TO.N,+3.3V*%
G36*
X156688116Y-67618034D02*
G01*
X157145661Y-67772588D01*
X157152403Y-67778483D01*
X157152735Y-67779216D01*
X157330994Y-68211890D01*
X157330977Y-68220845D01*
X157324633Y-68227165D01*
X157322498Y-68227814D01*
X156848743Y-68323743D01*
X156848743Y-68323744D01*
X156897499Y-68592531D01*
X156895604Y-68601283D01*
X156888075Y-68606131D01*
X156885987Y-68606319D01*
X156561700Y-68606319D01*
X156553427Y-68602892D01*
X156550000Y-68594619D01*
X156550000Y-68202325D01*
X156550891Y-68197848D01*
X156601256Y-68076256D01*
X156672820Y-67627277D01*
X156677506Y-67619648D01*
X156686216Y-67617566D01*
X156688116Y-67618034D01*
G37*
%TD.AperFunction*%
%TD*%
%TA.AperFunction,Conductor*%
%TO.N,+3.3V*%
G36*
X171785156Y-68712232D02*
G01*
X171792797Y-68716900D01*
X171794901Y-68725604D01*
X171794770Y-68726297D01*
X171677016Y-69263239D01*
X171671897Y-69270586D01*
X171665588Y-69272433D01*
X171383579Y-69272433D01*
X171375306Y-69269006D01*
X171372420Y-69264251D01*
X171372101Y-69263239D01*
X171226122Y-68800227D01*
X171226903Y-68791308D01*
X171233010Y-68785819D01*
X171522052Y-68672587D01*
X171528126Y-68671923D01*
X171785156Y-68712232D01*
G37*
%TD.AperFunction*%
%TD*%
%TA.AperFunction,Conductor*%
%TO.N,+3.3V*%
G36*
X157494436Y-67345775D02*
G01*
X158067994Y-67596932D01*
X158074197Y-67603388D01*
X158075000Y-67607648D01*
X158075000Y-67942351D01*
X158071573Y-67950624D01*
X158067993Y-67953068D01*
X157494438Y-68204223D01*
X157485485Y-68204403D01*
X157480514Y-68200695D01*
X157279326Y-67942351D01*
X157154597Y-67782188D01*
X157152218Y-67773556D01*
X157154597Y-67767812D01*
X157480515Y-67349303D01*
X157488301Y-67344882D01*
X157494436Y-67345775D01*
G37*
%TD.AperFunction*%
%TD*%
%TA.AperFunction,Conductor*%
%TO.N,+3.3V*%
G36*
X156899478Y-71228427D02*
G01*
X156902444Y-71233448D01*
X157012494Y-71613839D01*
X157012190Y-71621252D01*
X156735935Y-72347262D01*
X156729790Y-72353776D01*
X156720839Y-72354036D01*
X156714325Y-72347891D01*
X156714065Y-72347262D01*
X156437809Y-71621252D01*
X156437505Y-71613839D01*
X156547556Y-71233448D01*
X156553147Y-71226454D01*
X156558795Y-71225000D01*
X156891205Y-71225000D01*
X156899478Y-71228427D01*
G37*
%TD.AperFunction*%
%TD*%
%TA.AperFunction,Conductor*%
%TO.N,GND*%
G36*
X176643159Y-65560762D02*
G01*
X176427164Y-66027305D01*
X176147478Y-65915022D01*
X176035195Y-65635336D01*
X176501738Y-65419341D01*
X176643159Y-65560762D01*
G37*
%TD.AperFunction*%
%TD*%
%TA.AperFunction,Conductor*%
%TO.N,GND*%
G36*
X175672282Y-61565927D02*
G01*
X175675686Y-61573470D01*
X175724834Y-62359858D01*
X175724012Y-62364954D01*
X175581744Y-62718655D01*
X175575477Y-62725052D01*
X175566523Y-62725144D01*
X175562462Y-62722406D01*
X174982595Y-62120385D01*
X174979324Y-62112049D01*
X174982365Y-62104398D01*
X175471518Y-61566330D01*
X175479618Y-61562513D01*
X175480175Y-61562500D01*
X175664009Y-61562500D01*
X175672282Y-61565927D01*
G37*
%TD.AperFunction*%
%TD*%
%TA.AperFunction,Conductor*%
%TO.N,GND*%
G36*
X175852164Y-61677305D02*
G01*
X175675000Y-62159933D01*
X175475000Y-62159933D01*
X175297836Y-61677305D01*
X175575000Y-61558933D01*
X175852164Y-61677305D01*
G37*
%TD.AperFunction*%
%TD*%
%TA.AperFunction,Conductor*%
%TO.N,GND*%
G36*
X177128567Y-65312500D02*
G01*
X176942372Y-65550506D01*
X176750000Y-65412500D01*
X176663427Y-65540494D01*
X176522006Y-65399073D01*
X176679289Y-65241789D01*
X176750000Y-65212500D01*
X176942372Y-65074494D01*
X177128567Y-65312500D01*
G37*
%TD.AperFunction*%
%TD*%
%TA.AperFunction,Conductor*%
%TO.N,GND*%
G36*
X172327567Y-61662500D02*
G01*
X172027567Y-61601658D01*
X172327567Y-61462500D01*
X172327567Y-61662500D01*
G37*
%TD.AperFunction*%
%TD*%
%TA.AperFunction,Conductor*%
%TO.N,GND*%
G36*
X172328567Y-61562500D02*
G01*
X172210195Y-61839664D01*
X171727567Y-61662500D01*
X171727567Y-61462500D01*
X172210195Y-61285336D01*
X172328567Y-61562500D01*
G37*
%TD.AperFunction*%
%TD*%
%TA.AperFunction,Conductor*%
%TO.N,GND*%
G36*
X172922433Y-61462500D02*
G01*
X172922433Y-61662500D01*
X172439805Y-61839664D01*
X172321433Y-61562500D01*
X172439805Y-61285336D01*
X172922433Y-61462500D01*
G37*
%TD.AperFunction*%
%TD*%
%TA.AperFunction,Conductor*%
%TO.N,GND*%
G36*
X170175000Y-64737500D02*
G01*
X169937500Y-64747321D01*
X169700000Y-64493830D01*
X169837500Y-64146321D01*
X170037500Y-64146321D01*
X170175000Y-64737500D01*
G37*
%TD.AperFunction*%
%TD*%
%TA.AperFunction,Conductor*%
%TO.N,GND*%
G36*
X170162500Y-62134808D02*
G01*
X170037500Y-62462829D01*
X169837500Y-62462829D01*
X169712500Y-61875000D01*
X169937500Y-61861829D01*
X170162500Y-62134808D01*
G37*
%TD.AperFunction*%
%TD*%
%TA.AperFunction,Conductor*%
%TO.N,GND*%
G36*
X175019662Y-62710517D02*
G01*
X175027049Y-62715578D01*
X175028062Y-62717503D01*
X175268998Y-63301520D01*
X175268985Y-63310475D01*
X175262644Y-63316798D01*
X175262481Y-63316864D01*
X174515338Y-63612038D01*
X174512132Y-63612805D01*
X174490297Y-63614854D01*
X174490291Y-63614855D01*
X174490286Y-63614856D01*
X174362126Y-63659701D01*
X174362122Y-63659703D01*
X174325830Y-63686487D01*
X174323182Y-63687955D01*
X174111757Y-63771483D01*
X174102803Y-63771335D01*
X174099185Y-63768874D01*
X173968334Y-63638023D01*
X173964907Y-63629750D01*
X173965525Y-63625999D01*
X173969297Y-63614855D01*
X174321669Y-62573811D01*
X174327566Y-62567075D01*
X174335163Y-62566116D01*
X175019662Y-62710517D01*
G37*
%TD.AperFunction*%
%TD*%
%TA.AperFunction,Conductor*%
%TO.N,GND*%
G36*
X173881536Y-63720623D02*
G01*
X173882566Y-63721539D01*
X174013938Y-63852911D01*
X174017365Y-63861184D01*
X174016069Y-63866536D01*
X173737091Y-64408868D01*
X173734995Y-64411754D01*
X173734764Y-64411986D01*
X173734727Y-64412024D01*
X173734726Y-64412025D01*
X173701074Y-64445678D01*
X173681138Y-64465611D01*
X173661202Y-64485546D01*
X173601188Y-64581058D01*
X173563939Y-64687509D01*
X173563884Y-64687833D01*
X173563866Y-64688167D01*
X173555817Y-64759600D01*
X173554595Y-64763642D01*
X173511056Y-64848283D01*
X173504225Y-64854072D01*
X173495836Y-64853594D01*
X173081196Y-64666324D01*
X173075067Y-64659795D01*
X173074312Y-64655631D01*
X173074944Y-64408868D01*
X173076445Y-63822867D01*
X173079893Y-63814605D01*
X173086766Y-63811280D01*
X173872917Y-63718193D01*
X173881536Y-63720623D01*
G37*
%TD.AperFunction*%
%TD*%
%TA.AperFunction,Conductor*%
%TO.N,GND*%
G36*
X170422381Y-64785657D02*
G01*
X170429846Y-64790601D01*
X170431844Y-64797141D01*
X170431844Y-64976803D01*
X170428417Y-64985076D01*
X170421190Y-64988456D01*
X169884559Y-65036641D01*
X169876013Y-65033968D01*
X169872290Y-65028293D01*
X169833759Y-64897402D01*
X169834710Y-64888500D01*
X169840305Y-64883376D01*
X170171667Y-64738952D01*
X170178571Y-64738195D01*
X170422381Y-64785657D01*
G37*
%TD.AperFunction*%
%TD*%
%TA.AperFunction,Conductor*%
%TO.N,GND*%
G36*
X175578567Y-61562500D02*
G01*
X175460195Y-61839664D01*
X174977567Y-61662500D01*
X174977567Y-61462500D01*
X175460195Y-61285336D01*
X175578567Y-61562500D01*
G37*
%TD.AperFunction*%
%TD*%
%TA.AperFunction,Conductor*%
%TO.N,GND*%
G36*
X177888171Y-61637500D02*
G01*
X177615192Y-61862500D01*
X177287171Y-61737500D01*
X177287171Y-61537500D01*
X177875000Y-61412500D01*
X177888171Y-61637500D01*
G37*
%TD.AperFunction*%
%TD*%
%TA.AperFunction,Conductor*%
%TO.N,GND*%
G36*
X176162829Y-61537500D02*
G01*
X176162829Y-61737500D01*
X175575000Y-61862500D01*
X175561829Y-61637500D01*
X175834808Y-61412500D01*
X176162829Y-61537500D01*
G37*
%TD.AperFunction*%
%TD*%
%TA.AperFunction,Conductor*%
%TO.N,GND*%
G36*
X172623919Y-66628427D02*
G01*
X172627059Y-66634125D01*
X172668731Y-66818821D01*
X172668772Y-66823784D01*
X172536454Y-67458552D01*
X172531411Y-67465951D01*
X172522612Y-67467618D01*
X172515213Y-67462575D01*
X172513546Y-67458552D01*
X172381227Y-66823784D01*
X172381268Y-66818821D01*
X172422941Y-66634125D01*
X172428105Y-66626809D01*
X172434354Y-66625000D01*
X172615646Y-66625000D01*
X172623919Y-66628427D01*
G37*
%TD.AperFunction*%
%TD*%
%TA.AperFunction,Conductor*%
%TO.N,GND*%
G36*
X177643381Y-61807455D02*
G01*
X177647066Y-61809945D01*
X177777649Y-61940528D01*
X177781076Y-61948801D01*
X177780300Y-61952991D01*
X177479024Y-62738405D01*
X177472861Y-62744902D01*
X177464356Y-62745300D01*
X177004338Y-62589911D01*
X176997596Y-62584016D01*
X176997264Y-62583283D01*
X176818098Y-62148409D01*
X176818115Y-62139454D01*
X176824459Y-62133134D01*
X177634429Y-61807363D01*
X177643381Y-61807455D01*
G37*
%TD.AperFunction*%
%TD*%
%TA.AperFunction,Conductor*%
%TO.N,GND*%
G36*
X177877522Y-61709978D02*
G01*
X177989805Y-61989664D01*
X177523262Y-62205659D01*
X177381841Y-62064238D01*
X177597836Y-61597695D01*
X177877522Y-61709978D01*
G37*
%TD.AperFunction*%
%TD*%
%TA.AperFunction,Conductor*%
%TO.N,GND*%
G36*
X170108925Y-61975187D02*
G01*
X170751516Y-62135042D01*
X170758718Y-62140365D01*
X170760328Y-62147623D01*
X170701344Y-62707160D01*
X170697068Y-62715028D01*
X170695392Y-62716160D01*
X170377656Y-62892751D01*
X170368760Y-62893774D01*
X170361745Y-62888208D01*
X170361584Y-62887907D01*
X169965031Y-62122614D01*
X169964267Y-62113692D01*
X169967144Y-62108960D01*
X170097836Y-61978268D01*
X170106108Y-61974842D01*
X170108925Y-61975187D01*
G37*
%TD.AperFunction*%
%TD*%
%TA.AperFunction,Conductor*%
%TO.N,GND*%
G36*
X170277461Y-62015697D02*
G01*
X170417982Y-62289061D01*
X170276561Y-62430482D01*
X169800368Y-62087132D01*
X169922301Y-61934801D01*
X170277461Y-62015697D01*
G37*
%TD.AperFunction*%
%TD*%
%TA.AperFunction,Conductor*%
%TO.N,GND*%
G36*
X178175000Y-61712500D02*
G01*
X178075000Y-62293631D01*
X177875000Y-62293631D01*
X177775000Y-61995343D01*
X177975000Y-61692631D01*
X178175000Y-61712500D01*
G37*
%TD.AperFunction*%
%TD*%
%TA.AperFunction,Conductor*%
%TO.N,GND*%
G36*
X178075000Y-63955656D02*
G01*
X177875000Y-63955656D01*
X177825000Y-63912500D01*
X177975000Y-63653692D01*
X178125000Y-63612500D01*
X178075000Y-63955656D01*
G37*
%TD.AperFunction*%
%TD*%
%TA.AperFunction,Conductor*%
%TO.N,GND*%
G36*
X177618159Y-64960762D02*
G01*
X177402164Y-65427305D01*
X177122478Y-65315022D01*
X177010195Y-65035336D01*
X177476738Y-64819341D01*
X177618159Y-64960762D01*
G37*
%TD.AperFunction*%
%TD*%
%TA.AperFunction,Conductor*%
%TO.N,/USART1_RX*%
G36*
X170518686Y-74921112D02*
G01*
X170522478Y-74923647D01*
X170593249Y-74994417D01*
X170594705Y-74996192D01*
X170595962Y-74998074D01*
X170597042Y-75000095D01*
X170624956Y-75067487D01*
X170624985Y-75067558D01*
X170624996Y-75067583D01*
X170625003Y-75067598D01*
X170666095Y-75140620D01*
X170667461Y-75144568D01*
X170668069Y-75148496D01*
X170667961Y-75152674D01*
X170536928Y-75781274D01*
X170535144Y-75785472D01*
X170534435Y-75786513D01*
X170526946Y-75791422D01*
X170518179Y-75789597D01*
X170518143Y-75789572D01*
X170518032Y-75789495D01*
X170518005Y-75789476D01*
X170513284Y-75782296D01*
X170507361Y-75753882D01*
X170382037Y-75152671D01*
X170381929Y-75148494D01*
X170382536Y-75144571D01*
X170383901Y-75140624D01*
X170421645Y-75073551D01*
X170424582Y-75071245D01*
X170424712Y-75070111D01*
X170425168Y-75068766D01*
X170425162Y-75067627D01*
X170393971Y-75060423D01*
X170389811Y-75058549D01*
X170388361Y-75057515D01*
X170383627Y-75049994D01*
X170383623Y-75049971D01*
X170384916Y-75042296D01*
X170385267Y-75041663D01*
X170387220Y-75039071D01*
X170502646Y-74923645D01*
X170506433Y-74921114D01*
X170508085Y-74920429D01*
X170517035Y-74920429D01*
X170518686Y-74921112D01*
G37*
%TD.AperFunction*%
%TD*%
%TA.AperFunction,Conductor*%
%TO.N,/USART1_RX*%
G36*
X170146993Y-74318823D02*
G01*
X170154865Y-74322105D01*
X170155896Y-74323101D01*
X170158310Y-74326443D01*
X170199612Y-74412278D01*
X170200475Y-74414745D01*
X170201047Y-74417249D01*
X170201341Y-74419855D01*
X170201341Y-74461797D01*
X170235446Y-74589083D01*
X170235447Y-74589085D01*
X170235459Y-74589107D01*
X170301337Y-74703210D01*
X170301345Y-74703219D01*
X170364170Y-74766044D01*
X170366706Y-74769838D01*
X170367388Y-74771484D01*
X170367389Y-74780439D01*
X170367387Y-74780444D01*
X170366705Y-74782089D01*
X170364170Y-74785881D01*
X170240352Y-74909699D01*
X170236556Y-74912236D01*
X170233789Y-74913382D01*
X170224834Y-74913381D01*
X170224554Y-74913253D01*
X170224551Y-74913260D01*
X169773269Y-74712350D01*
X169769540Y-74709713D01*
X169768252Y-74708355D01*
X169765042Y-74700156D01*
X169765063Y-74698494D01*
X169765949Y-74694174D01*
X169875961Y-74428120D01*
X169878494Y-74424324D01*
X169881444Y-74421370D01*
X169885477Y-74418737D01*
X170140454Y-74319570D01*
X170144944Y-74318778D01*
X170146993Y-74318823D01*
G37*
%TD.AperFunction*%
%TD*%
%TA.AperFunction,Conductor*%
%TO.N,/SWDIO*%
G36*
X170031724Y-75885337D02*
G01*
X170031751Y-75885355D01*
X170036715Y-75892702D01*
X170168120Y-76523087D01*
X170168292Y-76526790D01*
X170167891Y-76530334D01*
X170166895Y-76533908D01*
X170124980Y-76625042D01*
X170097042Y-76692493D01*
X170095962Y-76694514D01*
X170094705Y-76696396D01*
X170093249Y-76698171D01*
X170034918Y-76756502D01*
X170031126Y-76759037D01*
X170029481Y-76759719D01*
X170020526Y-76759721D01*
X170018874Y-76759037D01*
X170015081Y-76756502D01*
X169905197Y-76646618D01*
X169902661Y-76642823D01*
X169902178Y-76641656D01*
X169902179Y-76632702D01*
X169908509Y-76626373D01*
X169909684Y-76625887D01*
X169914152Y-76625000D01*
X169924999Y-76625000D01*
X169925000Y-76625000D01*
X169883100Y-76533903D01*
X169882106Y-76530331D01*
X169881706Y-76526790D01*
X169881878Y-76523089D01*
X170013072Y-75893718D01*
X170014858Y-75889520D01*
X170015571Y-75888474D01*
X170023066Y-75883575D01*
X170031724Y-75885337D01*
G37*
%TD.AperFunction*%
%TD*%
%TA.AperFunction,Conductor*%
%TO.N,/SWDIO*%
G36*
X160782966Y-72080310D02*
G01*
X161069790Y-72271527D01*
X161074773Y-72278966D01*
X161075000Y-72281261D01*
X161075000Y-72468738D01*
X161071573Y-72477011D01*
X161069790Y-72478473D01*
X160782967Y-72669688D01*
X160774182Y-72671426D01*
X160768218Y-72668240D01*
X160568050Y-72468738D01*
X160482313Y-72383285D01*
X160478873Y-72375019D01*
X160482285Y-72366741D01*
X160768218Y-72081758D01*
X160776496Y-72078346D01*
X160782966Y-72080310D01*
G37*
%TD.AperFunction*%
%TD*%
%TA.AperFunction,Conductor*%
%TO.N,/SWCLK*%
G36*
X169377097Y-75690413D02*
G01*
X169380111Y-75692577D01*
X169517643Y-75829199D01*
X169521097Y-75837461D01*
X169517698Y-75845746D01*
X169517643Y-75845801D01*
X169380111Y-75982422D01*
X169371826Y-75985821D01*
X169368165Y-75985221D01*
X169233000Y-75940166D01*
X169226235Y-75934298D01*
X169225000Y-75929066D01*
X169225000Y-75745933D01*
X169228427Y-75737660D01*
X169232998Y-75734833D01*
X169368165Y-75689778D01*
X169377097Y-75690413D01*
G37*
%TD.AperFunction*%
%TD*%
%TA.AperFunction,Conductor*%
%TO.N,/SWCLK*%
G36*
X163918126Y-73771778D02*
G01*
X164355471Y-73799355D01*
X164363511Y-73803296D01*
X164366405Y-73810210D01*
X164407862Y-74398789D01*
X164405025Y-74407282D01*
X164399065Y-74410953D01*
X164148317Y-74474486D01*
X164139455Y-74473196D01*
X164135654Y-74469552D01*
X163776652Y-73920823D01*
X163774990Y-73912023D01*
X163778168Y-73906146D01*
X163909132Y-73775182D01*
X163917404Y-73771756D01*
X163918126Y-73771778D01*
G37*
%TD.AperFunction*%
%TD*%
%TA.AperFunction,Conductor*%
%TO.N,/SWCLK*%
G36*
X164959573Y-73819596D02*
G01*
X165468891Y-74096677D01*
X165474521Y-74103640D01*
X165475000Y-74106954D01*
X165475000Y-74293045D01*
X165471573Y-74301318D01*
X165468891Y-74303323D01*
X164959573Y-74580403D01*
X164950668Y-74581346D01*
X164945355Y-74578029D01*
X164606240Y-74207902D01*
X164603179Y-74199489D01*
X164606240Y-74192097D01*
X164945357Y-73821969D01*
X164953471Y-73818185D01*
X164959573Y-73819596D01*
G37*
%TD.AperFunction*%
%TD*%
%TA.AperFunction,Conductor*%
%TO.N,/SWCLK*%
G36*
X159660043Y-71551100D02*
G01*
X159664011Y-71552137D01*
X159667575Y-71553781D01*
X159670946Y-71556131D01*
X159800233Y-71685418D01*
X159802768Y-71689211D01*
X159803860Y-71691846D01*
X159804433Y-71699034D01*
X159804378Y-71699265D01*
X159803461Y-71701787D01*
X159529302Y-72250106D01*
X159526502Y-72253713D01*
X159524115Y-72255783D01*
X159516359Y-72258644D01*
X159123711Y-72255584D01*
X159119237Y-72254657D01*
X159117597Y-72253962D01*
X159111319Y-72247583D01*
X159111118Y-72247087D01*
X159111153Y-72238213D01*
X159333996Y-71700569D01*
X159340276Y-71685418D01*
X159400201Y-71540838D01*
X159402739Y-71537043D01*
X159404738Y-71535046D01*
X159411166Y-71531769D01*
X159411442Y-71531725D01*
X159414197Y-71531617D01*
X159660043Y-71551100D01*
G37*
%TD.AperFunction*%
%TD*%
%TA.AperFunction,Conductor*%
%TO.N,Net-(D1-K)*%
G36*
X153032441Y-71966711D02*
G01*
X153449534Y-72258789D01*
X153454345Y-72266342D01*
X153452934Y-72274260D01*
X153128385Y-72831687D01*
X153121261Y-72837112D01*
X153118274Y-72837500D01*
X152931246Y-72837500D01*
X152922973Y-72834073D01*
X152921525Y-72832311D01*
X152594845Y-72344553D01*
X152593088Y-72335772D01*
X152596942Y-72329168D01*
X153018108Y-71967419D01*
X153026615Y-71964629D01*
X153032441Y-71966711D01*
G37*
%TD.AperFunction*%
%TD*%
%TA.AperFunction,Conductor*%
%TO.N,Net-(D1-K)*%
G36*
X153127030Y-72728427D02*
G01*
X153128476Y-72730186D01*
X153419300Y-73164101D01*
X153421059Y-73172881D01*
X153417328Y-73179383D01*
X153032747Y-73519155D01*
X153024278Y-73522065D01*
X153017253Y-73519155D01*
X152632671Y-73179383D01*
X152628740Y-73171337D01*
X152630698Y-73164104D01*
X152921524Y-72730185D01*
X152928977Y-72725222D01*
X152931243Y-72725000D01*
X153118757Y-72725000D01*
X153127030Y-72728427D01*
G37*
%TD.AperFunction*%
%TD*%
%TA.AperFunction,Conductor*%
%TO.N,Net-(D2-K)*%
G36*
X164894091Y-70838020D02*
G01*
X164901775Y-70841717D01*
X164902751Y-70842766D01*
X164904979Y-70846222D01*
X165109138Y-71334383D01*
X165147300Y-71425632D01*
X165201062Y-71554180D01*
X165201968Y-71558655D01*
X165201978Y-71561690D01*
X165198578Y-71569975D01*
X165070654Y-71697899D01*
X165066857Y-71700436D01*
X165064024Y-71701609D01*
X165055226Y-71701671D01*
X164371035Y-71429659D01*
X164367203Y-71427178D01*
X164365612Y-71425632D01*
X164362102Y-71418160D01*
X164362008Y-71416967D01*
X164362335Y-71413156D01*
X164472133Y-70982758D01*
X164474098Y-70978649D01*
X164476154Y-70975903D01*
X164481859Y-70971804D01*
X164887519Y-70838417D01*
X164892045Y-70837866D01*
X164894091Y-70838020D01*
G37*
%TD.AperFunction*%
%TD*%
%TA.AperFunction,Conductor*%
%TO.N,Net-(D2-K)*%
G36*
X165777916Y-71941627D02*
G01*
X166043309Y-72050310D01*
X166243214Y-72132175D01*
X166247020Y-72134696D01*
X166248284Y-72135950D01*
X166251744Y-72144210D01*
X166251751Y-72145980D01*
X166250869Y-72150482D01*
X166078713Y-72568408D01*
X166076184Y-72572210D01*
X166073503Y-72574901D01*
X166068582Y-72577848D01*
X165612655Y-72714913D01*
X165608109Y-72715348D01*
X165607116Y-72715248D01*
X165606093Y-72715145D01*
X165598483Y-72711227D01*
X165597515Y-72710125D01*
X165595376Y-72706575D01*
X165543583Y-72570560D01*
X165378088Y-72135950D01*
X165310004Y-71957153D01*
X165309243Y-71952652D01*
X165309332Y-71949563D01*
X165312753Y-71941628D01*
X165440755Y-71813626D01*
X165444548Y-71811093D01*
X165447363Y-71809927D01*
X165456273Y-71809909D01*
X165777916Y-71941627D01*
G37*
%TD.AperFunction*%
%TD*%
%TA.AperFunction,Conductor*%
%TO.N,/LED*%
G36*
X164892563Y-72586623D02*
G01*
X164894866Y-72587104D01*
X164901696Y-72591355D01*
X164902317Y-72592150D01*
X164904067Y-72595284D01*
X165146596Y-73249374D01*
X165147318Y-73253882D01*
X165147201Y-73256992D01*
X165143782Y-73264825D01*
X165015866Y-73392741D01*
X165012069Y-73395278D01*
X165009287Y-73396430D01*
X165000332Y-73396429D01*
X165000155Y-73396354D01*
X164606936Y-73225787D01*
X164271982Y-73080494D01*
X164268233Y-73077899D01*
X164267702Y-73077351D01*
X164266949Y-73076572D01*
X164263655Y-73068354D01*
X164263667Y-73066648D01*
X164264547Y-73062286D01*
X164420994Y-72682302D01*
X164423520Y-72678505D01*
X164425957Y-72676058D01*
X164432071Y-72672821D01*
X164888007Y-72586582D01*
X164892563Y-72586623D01*
G37*
%TD.AperFunction*%
%TD*%
%TA.AperFunction,Conductor*%
%TO.N,/LED*%
G36*
X168014144Y-73904289D02*
G01*
X168058552Y-73913546D01*
X168065951Y-73918589D01*
X168067618Y-73927388D01*
X168062575Y-73934787D01*
X168058552Y-73936454D01*
X167425597Y-74068395D01*
X167417471Y-74067137D01*
X167342590Y-74025000D01*
X167342582Y-74024996D01*
X167342577Y-74024994D01*
X167274029Y-73996601D01*
X167270233Y-73994065D01*
X167197002Y-73920833D01*
X167193576Y-73912562D01*
X167197002Y-73904290D01*
X167315229Y-73786063D01*
X167323501Y-73782637D01*
X167331774Y-73786064D01*
X167334900Y-73791703D01*
X167342590Y-73825000D01*
X167342590Y-73824999D01*
X167342591Y-73825000D01*
X167368149Y-73810617D01*
X167417473Y-73782861D01*
X167425594Y-73781604D01*
X168014144Y-73904289D01*
G37*
%TD.AperFunction*%
%TD*%
%TA.AperFunction,Conductor*%
%TO.N,/OSC+*%
G36*
X172137086Y-62566521D02*
G01*
X172817386Y-62710036D01*
X172821580Y-62711831D01*
X172824479Y-62713817D01*
X172828682Y-62719007D01*
X173068110Y-63299369D01*
X173068994Y-63303844D01*
X173068992Y-63305625D01*
X173065556Y-63313894D01*
X173065548Y-63313902D01*
X173064349Y-63315096D01*
X173060392Y-63317688D01*
X172316106Y-63611735D01*
X172314530Y-63612232D01*
X172312938Y-63612613D01*
X172311308Y-63612883D01*
X172290297Y-63614854D01*
X172290291Y-63614855D01*
X172290286Y-63614856D01*
X172162122Y-63659702D01*
X172162107Y-63659712D01*
X172126438Y-63686036D01*
X172125163Y-63686855D01*
X172123846Y-63687585D01*
X172122473Y-63688234D01*
X171913919Y-63770628D01*
X171909426Y-63771444D01*
X171906358Y-63771393D01*
X171898279Y-63767968D01*
X171769979Y-63639668D01*
X171767443Y-63635872D01*
X171766231Y-63632946D01*
X171765958Y-63624719D01*
X171769297Y-63614855D01*
X172120923Y-62576013D01*
X172123200Y-62572061D01*
X172124639Y-62570417D01*
X172131972Y-62566518D01*
X172133212Y-62566362D01*
X172137086Y-62566521D01*
G37*
%TD.AperFunction*%
%TD*%
%TA.AperFunction,Conductor*%
%TO.N,/OSC+*%
G36*
X172151453Y-62272818D02*
G01*
X172155845Y-62274549D01*
X172672978Y-62612499D01*
X172809064Y-62701432D01*
X172812323Y-62704624D01*
X172813329Y-62706096D01*
X172815167Y-62714860D01*
X172815166Y-62714867D01*
X172815076Y-62715344D01*
X172810175Y-62722839D01*
X172809979Y-62722969D01*
X172155910Y-63150406D01*
X172151678Y-63152109D01*
X172149928Y-63152439D01*
X172141163Y-63150605D01*
X172141161Y-63150603D01*
X172139757Y-63149644D01*
X172136473Y-63146245D01*
X172079930Y-63057010D01*
X171925000Y-62812500D01*
X171722564Y-63054461D01*
X171719008Y-63057323D01*
X171717431Y-63058147D01*
X171708512Y-63058941D01*
X171707235Y-63058540D01*
X171702465Y-63055650D01*
X171581364Y-62934549D01*
X171578827Y-62930751D01*
X171578146Y-62929106D01*
X171578143Y-62920161D01*
X171578826Y-62918510D01*
X171581358Y-62914719D01*
X171851836Y-62644240D01*
X171853600Y-62642793D01*
X171855485Y-62641534D01*
X171857494Y-62640461D01*
X171925000Y-62612500D01*
X172136436Y-62278812D01*
X172139581Y-62275512D01*
X172141042Y-62274483D01*
X172149775Y-62272526D01*
X172151453Y-62272818D01*
G37*
%TD.AperFunction*%
%TD*%
%TA.AperFunction,Conductor*%
%TO.N,/OSC+*%
G36*
X173117797Y-66625891D02*
G01*
X173120129Y-66626857D01*
X173125893Y-66632011D01*
X173126253Y-66632663D01*
X173127424Y-66635743D01*
X173168454Y-66817594D01*
X173168741Y-66820074D01*
X173168761Y-66822530D01*
X173168515Y-66825013D01*
X173036928Y-67456274D01*
X173035144Y-67460472D01*
X173034435Y-67461513D01*
X173026946Y-67466422D01*
X173018179Y-67464597D01*
X173018143Y-67464572D01*
X173018032Y-67464495D01*
X173018005Y-67464476D01*
X173013284Y-67457296D01*
X172881483Y-66825013D01*
X172881237Y-66822530D01*
X172881257Y-66820067D01*
X172881543Y-66817601D01*
X172922429Y-66636393D01*
X172924283Y-66632224D01*
X172925740Y-66630160D01*
X172932053Y-66625666D01*
X172932770Y-66625459D01*
X172936015Y-66625000D01*
X173113319Y-66625000D01*
X173117797Y-66625891D01*
G37*
%TD.AperFunction*%
%TD*%
%TA.AperFunction,Conductor*%
%TO.N,/OSC+*%
G36*
X171202034Y-63303887D02*
G01*
X171202491Y-63304152D01*
X171204895Y-63306000D01*
X171333476Y-63434581D01*
X171336013Y-63438377D01*
X171337514Y-63442001D01*
X171338373Y-63447328D01*
X171300922Y-63961239D01*
X171299707Y-63965643D01*
X171298722Y-63967603D01*
X171292620Y-63973210D01*
X171291477Y-63973668D01*
X171287693Y-63974493D01*
X170641235Y-64005912D01*
X170636718Y-64005239D01*
X170635734Y-64004886D01*
X170633856Y-64004213D01*
X170627226Y-63998195D01*
X170627222Y-63998187D01*
X170615776Y-63973896D01*
X170494491Y-63716500D01*
X170493388Y-63712071D01*
X170493290Y-63710018D01*
X170496011Y-63701945D01*
X170496927Y-63700852D01*
X170500075Y-63698220D01*
X171187705Y-63304196D01*
X171192025Y-63302743D01*
X171194677Y-63302403D01*
X171202034Y-63303887D01*
G37*
%TD.AperFunction*%
%TD*%
%TA.AperFunction,Conductor*%
%TO.N,/NRST*%
G36*
X180281993Y-64052797D02*
G01*
X180289825Y-64056216D01*
X180417741Y-64184132D01*
X180420278Y-64187929D01*
X180421430Y-64190711D01*
X180421429Y-64199666D01*
X180421354Y-64199843D01*
X180105494Y-64928016D01*
X180102896Y-64931768D01*
X180101571Y-64933050D01*
X180093352Y-64936342D01*
X180091651Y-64936330D01*
X180087280Y-64935449D01*
X180078339Y-64931768D01*
X179707308Y-64779007D01*
X179703506Y-64776478D01*
X179701061Y-64774043D01*
X179697821Y-64767927D01*
X179611583Y-64311993D01*
X179611624Y-64307436D01*
X179612106Y-64305130D01*
X179616351Y-64298305D01*
X179617147Y-64297682D01*
X179620279Y-64295933D01*
X180274379Y-64053401D01*
X180278881Y-64052680D01*
X180281993Y-64052797D01*
G37*
%TD.AperFunction*%
%TD*%
%TA.AperFunction,Conductor*%
%TO.N,/NRST*%
G36*
X180082482Y-62824361D02*
G01*
X180086920Y-62825412D01*
X180088542Y-62826154D01*
X180094639Y-62832707D01*
X180094646Y-62832723D01*
X180094924Y-62833472D01*
X180095149Y-62840947D01*
X179803200Y-63800890D01*
X179801046Y-63804914D01*
X179799290Y-63807051D01*
X179793102Y-63810970D01*
X179792740Y-63811061D01*
X179789888Y-63811414D01*
X179609484Y-63811414D01*
X179605004Y-63810522D01*
X179602051Y-63809298D01*
X179596115Y-63803819D01*
X179506131Y-63627928D01*
X179304863Y-63234507D01*
X179303617Y-63230118D01*
X179303387Y-63227242D01*
X179305033Y-63220265D01*
X179305130Y-63220103D01*
X179306726Y-63218027D01*
X179694761Y-62815843D01*
X179698507Y-62813242D01*
X179702186Y-62811641D01*
X179707276Y-62810678D01*
X180082482Y-62824361D01*
G37*
%TD.AperFunction*%
%TD*%
%TA.AperFunction,Conductor*%
%TO.N,/NRST*%
G36*
X179801318Y-63903427D02*
G01*
X179803323Y-63906109D01*
X180080403Y-64415426D01*
X180081346Y-64424331D01*
X180078029Y-64429644D01*
X179707904Y-64768758D01*
X179699489Y-64771820D01*
X179692096Y-64768758D01*
X179321970Y-64429644D01*
X179318185Y-64421528D01*
X179319596Y-64415426D01*
X179596677Y-63906109D01*
X179603641Y-63900479D01*
X179606955Y-63900000D01*
X179793045Y-63900000D01*
X179801318Y-63903427D01*
G37*
%TD.AperFunction*%
%TD*%
%TA.AperFunction,Conductor*%
%TO.N,/NRST*%
G36*
X174034787Y-67562424D02*
G01*
X174036454Y-67566447D01*
X174168395Y-68199402D01*
X174167137Y-68207528D01*
X174124999Y-68282408D01*
X174125000Y-68282409D01*
X174125000Y-68282410D01*
X174158295Y-68290099D01*
X174165584Y-68295298D01*
X174167062Y-68304130D01*
X174163935Y-68309771D01*
X174045710Y-68427996D01*
X174037437Y-68431423D01*
X174029165Y-68427996D01*
X173955933Y-68354765D01*
X173953398Y-68350970D01*
X173925005Y-68282422D01*
X173925004Y-68282421D01*
X173925000Y-68282410D01*
X173882861Y-68207526D01*
X173881604Y-68199405D01*
X174013546Y-67566446D01*
X174018589Y-67559048D01*
X174027388Y-67557381D01*
X174034787Y-67562424D01*
G37*
%TD.AperFunction*%
%TD*%
%TA.AperFunction,Conductor*%
%TO.N,/NRST*%
G36*
X182301081Y-64024090D02*
G01*
X183098289Y-64344728D01*
X183102114Y-64347228D01*
X183103387Y-64348476D01*
X183106895Y-64356709D01*
X183106913Y-64358437D01*
X183106032Y-64363016D01*
X182928621Y-64793632D01*
X182926091Y-64797433D01*
X182923311Y-64800223D01*
X182918767Y-64803050D01*
X182462847Y-64957055D01*
X182458317Y-64957644D01*
X182456402Y-64957515D01*
X182448540Y-64953721D01*
X182447462Y-64952538D01*
X182445187Y-64948850D01*
X182145531Y-64167660D01*
X182144760Y-64163165D01*
X182144842Y-64160072D01*
X182148264Y-64152113D01*
X182276290Y-64024087D01*
X182280081Y-64021554D01*
X182282910Y-64020382D01*
X182291752Y-64020338D01*
X182301081Y-64024090D01*
G37*
%TD.AperFunction*%
%TD*%
%TA.AperFunction,Conductor*%
%TO.N,/NRST*%
G36*
X179355352Y-64383780D02*
G01*
X179355645Y-64384099D01*
X179694155Y-64767253D01*
X179697065Y-64775722D01*
X179694155Y-64782747D01*
X179355645Y-65165900D01*
X179347599Y-65169831D01*
X179339130Y-65166921D01*
X179338811Y-65166628D01*
X179032410Y-64874999D01*
X179015702Y-64921905D01*
X179009697Y-64928549D01*
X179000754Y-64929001D01*
X178996407Y-64926252D01*
X178876344Y-64806189D01*
X178872917Y-64797916D01*
X178876342Y-64789646D01*
X178960056Y-64705931D01*
X178963847Y-64703399D01*
X179032410Y-64675000D01*
X179338812Y-64383370D01*
X179347166Y-64380150D01*
X179355352Y-64383780D01*
G37*
%TD.AperFunction*%
%TD*%
%TA.AperFunction,Conductor*%
%TO.N,/CAN_TX*%
G36*
X165771636Y-61738452D02*
G01*
X166153365Y-61921813D01*
X166159339Y-61928484D01*
X166159999Y-61932359D01*
X166159999Y-62117640D01*
X166156572Y-62125913D01*
X166153365Y-62128186D01*
X165771636Y-62311547D01*
X165762937Y-62312123D01*
X165158092Y-62114538D01*
X164918044Y-62036121D01*
X164911245Y-62030295D01*
X164910556Y-62021367D01*
X164916383Y-62014567D01*
X164918043Y-62013878D01*
X165762938Y-61737876D01*
X165771636Y-61738452D01*
G37*
%TD.AperFunction*%
%TD*%
%TA.AperFunction,Conductor*%
%TO.N,/CAN_TX*%
G36*
X168124840Y-68628427D02*
G01*
X168127667Y-68633000D01*
X168172721Y-68768165D01*
X168172086Y-68777097D01*
X168169922Y-68780111D01*
X168033301Y-68917643D01*
X168025039Y-68921097D01*
X168016754Y-68917698D01*
X168016699Y-68917643D01*
X167880077Y-68780111D01*
X167876678Y-68771826D01*
X167877278Y-68768165D01*
X167922333Y-68633000D01*
X167928201Y-68626235D01*
X167933433Y-68625000D01*
X168116567Y-68625000D01*
X168124840Y-68628427D01*
G37*
%TD.AperFunction*%
%TD*%
%TA.AperFunction,Conductor*%
%TO.N,/CAN_RX*%
G36*
X167427671Y-69282037D02*
G01*
X167632144Y-69324660D01*
X168014144Y-69404289D01*
X168056274Y-69413071D01*
X168060472Y-69414855D01*
X168061513Y-69415564D01*
X168066422Y-69423053D01*
X168064597Y-69431820D01*
X168064495Y-69431967D01*
X168064476Y-69431994D01*
X168057296Y-69436715D01*
X167427674Y-69567961D01*
X167423496Y-69568069D01*
X167419568Y-69567461D01*
X167415620Y-69566095D01*
X167342598Y-69525003D01*
X167342583Y-69524996D01*
X167342558Y-69524985D01*
X167342487Y-69524956D01*
X167275095Y-69497042D01*
X167273074Y-69495962D01*
X167271192Y-69494705D01*
X167269417Y-69493249D01*
X167198647Y-69422478D01*
X167196112Y-69418685D01*
X167196072Y-69418589D01*
X167195430Y-69417040D01*
X167195429Y-69408087D01*
X167196114Y-69406433D01*
X167198645Y-69402646D01*
X167313585Y-69287706D01*
X167317380Y-69285171D01*
X167318057Y-69284891D01*
X167319028Y-69284490D01*
X167327846Y-69284438D01*
X167327866Y-69284446D01*
X167333752Y-69289633D01*
X167334101Y-69290262D01*
X167335269Y-69293304D01*
X167342590Y-69325000D01*
X167342632Y-69325183D01*
X167343515Y-69325193D01*
X167344944Y-69324731D01*
X167345564Y-69324660D01*
X167346017Y-69323568D01*
X167348549Y-69321646D01*
X167368149Y-69310617D01*
X167415624Y-69283901D01*
X167419569Y-69282536D01*
X167423494Y-69281929D01*
X167427671Y-69282037D01*
G37*
%TD.AperFunction*%
%TD*%
%TA.AperFunction,Conductor*%
%TO.N,/CAN_RX*%
G36*
X165771636Y-65548452D02*
G01*
X166153365Y-65731813D01*
X166159339Y-65738484D01*
X166159999Y-65742359D01*
X166159999Y-65927640D01*
X166156572Y-65935913D01*
X166153365Y-65938186D01*
X165771636Y-66121547D01*
X165762937Y-66122123D01*
X165158092Y-65924538D01*
X164918044Y-65846121D01*
X164911245Y-65840295D01*
X164910556Y-65831367D01*
X164916383Y-65824567D01*
X164918043Y-65823878D01*
X165762938Y-65547876D01*
X165771636Y-65548452D01*
G37*
%TD.AperFunction*%
%TD*%
%TA.AperFunction,Conductor*%
%TO.N,/CAN-*%
G36*
X159576445Y-64447544D02*
G01*
X159901952Y-64553878D01*
X159908752Y-64559705D01*
X159909441Y-64568633D01*
X159903614Y-64575433D01*
X159901952Y-64576122D01*
X159057060Y-64852123D01*
X159048361Y-64851547D01*
X158666633Y-64668186D01*
X158660659Y-64661515D01*
X158659999Y-64657640D01*
X158659999Y-64472359D01*
X158663426Y-64464086D01*
X158666631Y-64461814D01*
X159048361Y-64278451D01*
X159057059Y-64277876D01*
X159576445Y-64447544D01*
G37*
%TD.AperFunction*%
%TD*%
%TA.AperFunction,Conductor*%
%TO.N,/CAN-*%
G36*
X156709181Y-64268393D02*
G01*
X156713906Y-64269542D01*
X157091268Y-64450805D01*
X157094914Y-64453542D01*
X157097016Y-64455889D01*
X157100000Y-64463693D01*
X157100000Y-64645312D01*
X157099109Y-64649790D01*
X157097905Y-64652696D01*
X157092162Y-64658764D01*
X156714030Y-64840397D01*
X156709610Y-64841533D01*
X156705466Y-64841762D01*
X156700659Y-64841015D01*
X156136719Y-64626429D01*
X155979912Y-64566762D01*
X155976045Y-64564338D01*
X155975129Y-64563474D01*
X155971462Y-64555305D01*
X155974641Y-64546940D01*
X155975295Y-64546246D01*
X155979643Y-64543338D01*
X156700533Y-64269031D01*
X156705030Y-64268272D01*
X156709181Y-64268393D01*
G37*
%TD.AperFunction*%
%TD*%
%TA.AperFunction,Conductor*%
%TO.N,/CAN+*%
G36*
X159059207Y-63008577D02*
G01*
X159576445Y-63177544D01*
X159899741Y-63283155D01*
X159903719Y-63285392D01*
X159904675Y-63286211D01*
X159908728Y-63294196D01*
X159905948Y-63302708D01*
X159905945Y-63302712D01*
X159905572Y-63303147D01*
X159900323Y-63306653D01*
X159059207Y-63581421D01*
X159054801Y-63581973D01*
X159050616Y-63581696D01*
X159046323Y-63580568D01*
X158668730Y-63399193D01*
X158665080Y-63396452D01*
X158662983Y-63394110D01*
X158659999Y-63386305D01*
X158659999Y-63204686D01*
X158660889Y-63200211D01*
X158661220Y-63199410D01*
X158662093Y-63197303D01*
X158667833Y-63191236D01*
X159046321Y-63009430D01*
X159050613Y-63008302D01*
X159054803Y-63008025D01*
X159059207Y-63008577D01*
G37*
%TD.AperFunction*%
%TD*%
%TA.AperFunction,Conductor*%
%TO.N,/CAN+*%
G36*
X156711657Y-63018465D02*
G01*
X156711933Y-63018594D01*
X157093366Y-63201813D01*
X157099340Y-63208484D01*
X157100000Y-63212359D01*
X157100000Y-63397640D01*
X157096573Y-63405913D01*
X157093366Y-63408186D01*
X156711933Y-63591405D01*
X156702992Y-63591899D01*
X156702706Y-63591794D01*
X156136719Y-63376429D01*
X155977736Y-63315934D01*
X155971223Y-63309790D01*
X155970963Y-63300839D01*
X155977108Y-63294325D01*
X155977730Y-63294067D01*
X156702706Y-63018205D01*
X156711657Y-63018465D01*
G37*
%TD.AperFunction*%
%TD*%
%TA.AperFunction,Conductor*%
%TO.N,/OSC-*%
G36*
X173592677Y-66625889D02*
G01*
X173595209Y-66626938D01*
X173600781Y-66631756D01*
X173600995Y-66632115D01*
X173602167Y-66634795D01*
X173648035Y-66790250D01*
X173648503Y-66793086D01*
X173648617Y-66795889D01*
X173648380Y-66798753D01*
X173511822Y-67453357D01*
X173510039Y-67457554D01*
X173509332Y-67458592D01*
X173501842Y-67463501D01*
X173493076Y-67461676D01*
X173488167Y-67454186D01*
X173488162Y-67454160D01*
X173375799Y-66854265D01*
X173375649Y-66853192D01*
X173375549Y-66852114D01*
X173375499Y-66851033D01*
X173375499Y-66846318D01*
X173375515Y-66845699D01*
X173375552Y-66845019D01*
X173375598Y-66844453D01*
X173397900Y-66637755D01*
X173399263Y-66633407D01*
X173400296Y-66631516D01*
X173406673Y-66626095D01*
X173407903Y-66625662D01*
X173411783Y-66625000D01*
X173588203Y-66625000D01*
X173592677Y-66625889D01*
G37*
%TD.AperFunction*%
%TD*%
%TA.AperFunction,Conductor*%
%TO.N,/OSC-*%
G36*
X175577504Y-63833395D02*
G01*
X175618212Y-63844511D01*
X176314138Y-64034534D01*
X176318222Y-64036573D01*
X176320332Y-64038208D01*
X176324470Y-64044439D01*
X176324604Y-64044941D01*
X176325000Y-64047958D01*
X176325000Y-64229692D01*
X176324108Y-64234172D01*
X176322635Y-64237726D01*
X176319317Y-64242234D01*
X175734378Y-64729683D01*
X175730367Y-64731866D01*
X175728126Y-64732564D01*
X175720098Y-64732173D01*
X175719169Y-64731781D01*
X175716110Y-64729890D01*
X175038509Y-64149918D01*
X175035687Y-64146330D01*
X175034881Y-64144744D01*
X175034182Y-64135832D01*
X175034202Y-64135767D01*
X175034367Y-64135263D01*
X175039778Y-64128668D01*
X175564488Y-63834988D01*
X175568775Y-63833587D01*
X175573006Y-63833070D01*
X175577504Y-63833395D01*
G37*
%TD.AperFunction*%
%TD*%
%TA.AperFunction,Conductor*%
%TO.N,/OSC-*%
G36*
X176667607Y-63710922D02*
G01*
X176668530Y-63711540D01*
X176671251Y-63714072D01*
X176835772Y-63925332D01*
X176993971Y-64128475D01*
X176996020Y-64132556D01*
X176996713Y-64135071D01*
X176996247Y-64142645D01*
X176996012Y-64143214D01*
X176994429Y-64145937D01*
X176671526Y-64560573D01*
X176668073Y-64563558D01*
X176666092Y-64564683D01*
X176658046Y-64565987D01*
X176656958Y-64565772D01*
X176653469Y-64564479D01*
X176082970Y-64242005D01*
X176079510Y-64239027D01*
X176077481Y-64236432D01*
X176075000Y-64229227D01*
X176075000Y-64046652D01*
X176075890Y-64042177D01*
X176076199Y-64041430D01*
X176077149Y-64039136D01*
X176082199Y-64033429D01*
X176653086Y-63710735D01*
X176657413Y-63709310D01*
X176659680Y-63709032D01*
X176667607Y-63710922D01*
G37*
%TD.AperFunction*%
%TD*%
%TA.AperFunction,Conductor*%
%TO.N,+3.3V*%
G36*
X172293658Y-68663213D02*
G01*
X172499199Y-68807259D01*
X172504007Y-68814812D01*
X172502373Y-68823092D01*
X172429153Y-68938899D01*
X172425517Y-68942535D01*
X172309710Y-69015755D01*
X172300885Y-69017280D01*
X172293877Y-69012581D01*
X172149831Y-68807040D01*
X172147890Y-68798300D01*
X172151138Y-68792056D01*
X172278673Y-68664521D01*
X172286945Y-68661095D01*
X172293658Y-68663213D01*
G37*
%TD.AperFunction*%
%TD*%
%TA.AperFunction,Conductor*%
%TO.N,+3.3V*%
G36*
X171161234Y-66769401D02*
G01*
X171168550Y-66774563D01*
X171170184Y-66782842D01*
X171126702Y-67030035D01*
X171121894Y-67037589D01*
X171115179Y-67039708D01*
X170934821Y-67039708D01*
X170926548Y-67036281D01*
X170923298Y-67030035D01*
X170879815Y-66782842D01*
X170881757Y-66774100D01*
X170888764Y-66769402D01*
X171022430Y-66739287D01*
X171027570Y-66739287D01*
X171161234Y-66769401D01*
G37*
%TD.AperFunction*%
%TD*%
%TA.AperFunction,Conductor*%
%TO.N,+3.3V*%
G36*
X171161234Y-66769401D02*
G01*
X171168550Y-66774563D01*
X171170184Y-66782842D01*
X171126702Y-67030035D01*
X171121894Y-67037589D01*
X171115179Y-67039708D01*
X170934821Y-67039708D01*
X170926548Y-67036281D01*
X170923298Y-67030035D01*
X170879815Y-66782842D01*
X170881757Y-66774100D01*
X170888764Y-66769402D01*
X171022430Y-66739287D01*
X171027570Y-66739287D01*
X171161234Y-66769401D01*
G37*
%TD.AperFunction*%
%TD*%
%TA.AperFunction,Conductor*%
%TO.N,+3.3V*%
G36*
X156705649Y-68412850D02*
G01*
X156707052Y-68414012D01*
X156847004Y-68549570D01*
X156849671Y-68553495D01*
X156888495Y-68647225D01*
X156899109Y-68672848D01*
X156900000Y-68677325D01*
X156900000Y-68833161D01*
X156896573Y-68841434D01*
X156888300Y-68844861D01*
X156580497Y-68844861D01*
X156572224Y-68841434D01*
X156568797Y-68833161D01*
X156572224Y-68824888D01*
X156572671Y-68824463D01*
X156601256Y-68798744D01*
X156601255Y-68798743D01*
X156601256Y-68798743D01*
X156464012Y-68657052D01*
X156460717Y-68648725D01*
X156464276Y-68640508D01*
X156465674Y-68639349D01*
X156596915Y-68546915D01*
X156689346Y-68415678D01*
X156696912Y-68410888D01*
X156705649Y-68412850D01*
G37*
%TD.AperFunction*%
%TD*%
%TA.AperFunction,Conductor*%
%TO.N,+3.3V*%
G36*
X156602151Y-68375891D02*
G01*
X156721505Y-68425328D01*
X156725428Y-68427994D01*
X156801015Y-68506032D01*
X156860987Y-68567947D01*
X156864282Y-68576274D01*
X156860723Y-68584491D01*
X156859320Y-68585653D01*
X156728085Y-68678085D01*
X156635653Y-68809320D01*
X156628087Y-68814111D01*
X156619350Y-68812149D01*
X156617947Y-68810987D01*
X156476256Y-68673744D01*
X156450537Y-68702329D01*
X156442456Y-68706187D01*
X156434013Y-68703201D01*
X156430155Y-68695120D01*
X156430139Y-68694503D01*
X156430139Y-68386700D01*
X156433566Y-68378427D01*
X156441839Y-68375000D01*
X156597674Y-68375000D01*
X156602151Y-68375891D01*
G37*
%TD.AperFunction*%
%TD*%
%TA.AperFunction,Conductor*%
%TO.N,+3.3V*%
G36*
X156793891Y-68570410D02*
G01*
X156801798Y-68574612D01*
X156804417Y-68583175D01*
X156800215Y-68591083D01*
X156800193Y-68591100D01*
X156693863Y-68678362D01*
X156693864Y-68678363D01*
X156715241Y-68678363D01*
X156723514Y-68681790D01*
X156726941Y-68690063D01*
X156723514Y-68698336D01*
X156722663Y-68699107D01*
X156613450Y-68788736D01*
X156604881Y-68791336D01*
X156596984Y-68787114D01*
X156595220Y-68784173D01*
X156587537Y-68765623D01*
X156587536Y-68765623D01*
X156586761Y-68763752D01*
X156582981Y-68760947D01*
X156581378Y-68753745D01*
X156581623Y-68751345D01*
X156581622Y-68751342D01*
X156581622Y-68751341D01*
X156558094Y-68694541D01*
X156558094Y-68685586D01*
X156564425Y-68679254D01*
X156568903Y-68678363D01*
X156589068Y-68678363D01*
X156600782Y-68563532D01*
X156605031Y-68555651D01*
X156613538Y-68553075D01*
X156793891Y-68570410D01*
G37*
%TD.AperFunction*%
%TD*%
%TA.AperFunction,Conductor*%
%TO.N,+3.3V*%
G36*
X170300899Y-65906757D02*
G01*
X170305598Y-65913766D01*
X170335712Y-66047428D01*
X170335712Y-66052572D01*
X170305598Y-66186233D01*
X170300436Y-66193550D01*
X170292157Y-66195184D01*
X170044965Y-66151701D01*
X170037411Y-66146893D01*
X170035292Y-66140178D01*
X170035292Y-65959821D01*
X170038719Y-65951548D01*
X170044963Y-65948298D01*
X170292157Y-65904815D01*
X170300899Y-65906757D01*
G37*
%TD.AperFunction*%
%TD*%
%TA.AperFunction,Conductor*%
%TO.N,+3.3V*%
G36*
X171439278Y-69450832D02*
G01*
X171614391Y-69597913D01*
X171618522Y-69605858D01*
X171616749Y-69613134D01*
X171529489Y-69750868D01*
X171525868Y-69754489D01*
X171388134Y-69841749D01*
X171379311Y-69843282D01*
X171372913Y-69839391D01*
X171225833Y-69664279D01*
X171223136Y-69655740D01*
X171226518Y-69648482D01*
X171423482Y-69451518D01*
X171431754Y-69448092D01*
X171439278Y-69450832D01*
G37*
%TD.AperFunction*%
%TD*%
%TA.AperFunction,Conductor*%
%TO.N,+3.3V*%
G36*
X171785368Y-69403427D02*
G01*
X171788795Y-69411700D01*
X171788795Y-69673575D01*
X171790002Y-69674382D01*
X171795797Y-69674382D01*
X171802131Y-69680713D01*
X171802132Y-69689667D01*
X171800281Y-69692717D01*
X171677086Y-69839391D01*
X171669141Y-69843522D01*
X171661865Y-69841749D01*
X171524131Y-69754489D01*
X171520510Y-69750868D01*
X171433250Y-69613134D01*
X171431717Y-69604311D01*
X171435606Y-69597914D01*
X171617554Y-69445092D01*
X171620602Y-69443243D01*
X171722849Y-69400891D01*
X171727326Y-69400000D01*
X171777095Y-69400000D01*
X171785368Y-69403427D01*
G37*
%TD.AperFunction*%
%TD*%
M02*
