%TF.GenerationSoftware,KiCad,Pcbnew,10.0.5*%
%TF.CreationDate,2026-09-30T20:25:46+08:00*%
%TF.ProjectId,TTLtoCANforTOF,54544c74-6f43-4414-9e66-6f72544f462e,rev?*%
%TF.SameCoordinates,Original*%
%TF.FileFunction,Soldermask,Bot*%
%TF.FilePolarity,Negative*%
%FSLAX46Y46*%
G04 Gerber Fmt 4.6, Leading zero omitted, Abs format (unit mm)*
G04 Created by KiCad (PCBNEW 10.0.5) date 2026-09-30 20:25:46*
%MOMM*%
%LPD*%
G01*
G04 APERTURE LIST*
G04 Aperture macros list*
%AMRoundRect*
0 Rectangle with rounded corners*
0 $1 Rounding radius*
0 $2 $3 $4 $5 $6 $7 $8 $9 X,Y pos of 4 corners*
0 Add a 4 corners polygon primitive as box body*
4,1,4,$2,$3,$4,$5,$6,$7,$8,$9,$2,$3,0*
0 Add four circle primitives for the rounded corners*
1,1,$1+$1,$2,$3*
1,1,$1+$1,$4,$5*
1,1,$1+$1,$6,$7*
1,1,$1+$1,$8,$9*
0 Add four rect primitives between the rounded corners*
20,1,$1+$1,$2,$3,$4,$5,0*
20,1,$1+$1,$4,$5,$6,$7,0*
20,1,$1+$1,$6,$7,$8,$9,0*
20,1,$1+$1,$8,$9,$2,$3,0*%
G04 Aperture macros list end*
%ADD10RoundRect,0.760000X1.140000X1.140000X-1.140000X1.140000X-1.140000X-1.140000X1.140000X-1.140000X0*%
%ADD11C,4.000000*%
%ADD12RoundRect,0.150000X-0.150000X-0.700000X0.150000X-0.700000X0.150000X0.700000X-0.150000X0.700000X0*%
%ADD13RoundRect,0.250000X-0.250000X-1.100000X0.250000X-1.100000X0.250000X1.100000X-0.250000X1.100000X0*%
%ADD14RoundRect,0.200000X0.275000X-0.200000X0.275000X0.200000X-0.275000X0.200000X-0.275000X-0.200000X0*%
%ADD15RoundRect,0.225000X0.250000X-0.225000X0.250000X0.225000X-0.250000X0.225000X-0.250000X-0.225000X0*%
%ADD16RoundRect,0.225000X-0.250000X0.225000X-0.250000X-0.225000X0.250000X-0.225000X0.250000X0.225000X0*%
%ADD17RoundRect,0.200000X0.200000X0.275000X-0.200000X0.275000X-0.200000X-0.275000X0.200000X-0.275000X0*%
%ADD18R,1.700000X0.900000*%
%ADD19RoundRect,0.150000X-0.825000X-0.150000X0.825000X-0.150000X0.825000X0.150000X-0.825000X0.150000X0*%
%ADD20RoundRect,0.250000X0.475000X-0.250000X0.475000X0.250000X-0.475000X0.250000X-0.475000X-0.250000X0*%
%ADD21RoundRect,0.150000X-0.700000X0.150000X-0.700000X-0.150000X0.700000X-0.150000X0.700000X0.150000X0*%
%ADD22RoundRect,0.250000X-1.100000X0.250000X-1.100000X-0.250000X1.100000X-0.250000X1.100000X0.250000X0*%
%ADD23RoundRect,0.075000X0.075000X-0.662500X0.075000X0.662500X-0.075000X0.662500X-0.075000X-0.662500X0*%
%ADD24RoundRect,0.075000X0.662500X-0.075000X0.662500X0.075000X-0.662500X0.075000X-0.662500X-0.075000X0*%
%ADD25RoundRect,0.250000X0.450000X0.350000X-0.450000X0.350000X-0.450000X-0.350000X0.450000X-0.350000X0*%
%ADD26RoundRect,0.225000X0.225000X0.250000X-0.225000X0.250000X-0.225000X-0.250000X0.225000X-0.250000X0*%
%ADD27RoundRect,0.150000X-0.150000X0.512500X-0.150000X-0.512500X0.150000X-0.512500X0.150000X0.512500X0*%
G04 APERTURE END LIST*
D10*
%TO.C,J4*%
X125600000Y-48025000D03*
D11*
X120600000Y-48025000D03*
%TD*%
D12*
%TO.C,J6*%
X120475000Y-36675000D03*
X121725000Y-36675000D03*
X122975000Y-36675000D03*
X124225000Y-36675000D03*
D13*
X118625000Y-33475000D03*
X126075000Y-33475000D03*
%TD*%
D14*
%TO.C,R7*%
X108500000Y-40475000D03*
X108500000Y-38825000D03*
%TD*%
D15*
%TO.C,C12*%
X112650000Y-38925000D03*
X112650000Y-37375000D03*
%TD*%
D16*
%TO.C,C19*%
X108775000Y-54150000D03*
X108775000Y-55700000D03*
%TD*%
D15*
%TO.C,C16*%
X106582500Y-55562499D03*
X106582500Y-54012499D03*
%TD*%
D17*
%TO.C,R6*%
X104650000Y-40175000D03*
X103000000Y-40175000D03*
%TD*%
D18*
%TO.C,SW1*%
X100250000Y-38175000D03*
X100250000Y-34775000D03*
%TD*%
D19*
%TO.C,U6*%
X113150000Y-56705000D03*
X113150000Y-55435000D03*
X113150000Y-54165000D03*
X113150000Y-52895000D03*
X118100000Y-52895000D03*
X118100000Y-54165000D03*
X118100000Y-55435000D03*
X118100000Y-56705000D03*
%TD*%
D20*
%TO.C,C11*%
X126225000Y-39950000D03*
X126225000Y-38050000D03*
%TD*%
D12*
%TO.C,J3*%
X105100000Y-36750000D03*
X106350000Y-36750000D03*
X107600000Y-36750000D03*
X108850000Y-36750000D03*
D13*
X103250000Y-33550000D03*
X110700000Y-33550000D03*
%TD*%
D16*
%TO.C,C21*%
X111000000Y-54225000D03*
X111000000Y-55775000D03*
%TD*%
D21*
%TO.C,J2*%
X123425000Y-54175000D03*
X123425000Y-55425000D03*
D22*
X126625000Y-52325000D03*
X126625000Y-57275000D03*
%TD*%
D15*
%TO.C,C17*%
X100407500Y-55562499D03*
X100407500Y-54012499D03*
%TD*%
%TO.C,C10*%
X116200000Y-34662500D03*
X116200000Y-33112500D03*
%TD*%
D20*
%TO.C,C9*%
X114250000Y-34662500D03*
X114250000Y-32762500D03*
%TD*%
D23*
%TO.C,U3*%
X107882500Y-50637499D03*
X107382500Y-50637499D03*
X106882500Y-50637499D03*
X106382500Y-50637499D03*
X105882500Y-50637499D03*
X105382500Y-50637499D03*
X104882500Y-50637499D03*
X104382500Y-50637499D03*
X103882500Y-50637499D03*
X103382500Y-50637499D03*
X102882500Y-50637499D03*
X102382500Y-50637499D03*
D24*
X100970000Y-49224999D03*
X100970000Y-48724999D03*
X100970000Y-48224999D03*
X100970000Y-47724999D03*
X100970000Y-47224999D03*
X100970000Y-46224999D03*
X100970000Y-45724999D03*
X100970000Y-45224999D03*
X100970000Y-44724999D03*
X100970000Y-44224999D03*
X100970000Y-43724999D03*
D23*
X102382500Y-42312499D03*
X102882500Y-42312499D03*
X103382500Y-42312499D03*
X103882500Y-42312499D03*
X104882500Y-42312499D03*
X105382500Y-42312499D03*
X105882500Y-42312499D03*
X106382500Y-42312499D03*
X106882500Y-42312499D03*
X107382500Y-42312499D03*
X107882500Y-42312499D03*
D24*
X109295000Y-43724999D03*
X109295000Y-44224999D03*
X109295000Y-44724999D03*
X109295000Y-45224999D03*
X109295000Y-45724999D03*
X109295000Y-46224999D03*
X109295000Y-46724999D03*
X109295000Y-47224999D03*
X109295000Y-48224999D03*
X109295000Y-48724999D03*
X109295000Y-49224999D03*
%TD*%
D25*
%TO.C,Y1*%
X104582500Y-55437499D03*
X102382500Y-55437499D03*
X102382500Y-53737499D03*
X104582500Y-53737499D03*
%TD*%
D26*
%TO.C,C18*%
X101375000Y-40075000D03*
X99825000Y-40075000D03*
%TD*%
D27*
%TO.C,U2*%
X114350000Y-36600000D03*
X115300000Y-36600000D03*
X116250000Y-36600000D03*
X116250000Y-38875000D03*
X114350000Y-38875000D03*
%TD*%
M02*
