%TF.GenerationSoftware,KiCad,Pcbnew,10.0.5*%
%TF.CreationDate,2026-10-05T16:39:25+08:00*%
%TF.ProjectId,TTLtoCANforTOF,54544c74-6f43-4414-9e66-6f72544f462e,rev?*%
%TF.SameCoordinates,Original*%
%TF.FileFunction,Copper,L1,Top*%
%TF.FilePolarity,Positive*%
%FSLAX46Y46*%
G04 Gerber Fmt 4.6, Leading zero omitted, Abs format (unit mm)*
G04 Created by KiCad (PCBNEW 10.0.5) date 2026-10-05 16:39:25*
%MOMM*%
%LPD*%
G01*
G04 APERTURE LIST*
G04 Aperture macros list*
%AMRoundRect*
0 Rectangle with rounded corners*
0 $1 Rounding radius*
0 $2 $3 $4 $5 $6 $7 $8 $9 X,Y pos of 4 corners*
0 Add a 4 corners polygon primitive as box body*
4,1,4,$2,$3,$4,$5,$6,$7,$8,$9,$2,$3,0*
0 Add four circle primitives for the rounded corners*
1,1,$1+$1,$2,$3*
1,1,$1+$1,$4,$5*
1,1,$1+$1,$6,$7*
1,1,$1+$1,$8,$9*
0 Add four rect primitives between the rounded corners*
20,1,$1+$1,$2,$3,$4,$5,0*
20,1,$1+$1,$4,$5,$6,$7,0*
20,1,$1+$1,$6,$7,$8,$9,0*
20,1,$1+$1,$8,$9,$2,$3,0*%
G04 Aperture macros list end*
%TA.AperFunction,Conductor*%
%ADD10C,0.200000*%
%TD*%
%TA.AperFunction,SMDPad,CuDef*%
%ADD11RoundRect,0.225000X-0.225000X-0.250000X0.225000X-0.250000X0.225000X0.250000X-0.225000X0.250000X0*%
%TD*%
%TA.AperFunction,SMDPad,CuDef*%
%ADD12RoundRect,0.250000X0.475000X-0.250000X0.475000X0.250000X-0.475000X0.250000X-0.475000X-0.250000X0*%
%TD*%
%TA.AperFunction,SMDPad,CuDef*%
%ADD13RoundRect,0.225000X0.250000X-0.225000X0.250000X0.225000X-0.250000X0.225000X-0.250000X-0.225000X0*%
%TD*%
%TA.AperFunction,SMDPad,CuDef*%
%ADD14RoundRect,0.249999X1.850001X-0.450001X1.850001X0.450001X-1.850001X0.450001X-1.850001X-0.450001X0*%
%TD*%
%TA.AperFunction,SMDPad,CuDef*%
%ADD15RoundRect,0.200000X0.275000X-0.200000X0.275000X0.200000X-0.275000X0.200000X-0.275000X-0.200000X0*%
%TD*%
%TA.AperFunction,SMDPad,CuDef*%
%ADD16RoundRect,0.250000X-1.100000X0.325000X-1.100000X-0.325000X1.100000X-0.325000X1.100000X0.325000X0*%
%TD*%
%TA.AperFunction,SMDPad,CuDef*%
%ADD17RoundRect,0.200000X-0.275000X0.200000X-0.275000X-0.200000X0.275000X-0.200000X0.275000X0.200000X0*%
%TD*%
%TA.AperFunction,SMDPad,CuDef*%
%ADD18RoundRect,0.150000X0.150000X-0.512500X0.150000X0.512500X-0.150000X0.512500X-0.150000X-0.512500X0*%
%TD*%
%TA.AperFunction,SMDPad,CuDef*%
%ADD19RoundRect,0.200000X-0.200000X-0.275000X0.200000X-0.275000X0.200000X0.275000X-0.200000X0.275000X0*%
%TD*%
%TA.AperFunction,SMDPad,CuDef*%
%ADD20RoundRect,0.150000X-0.150000X0.587500X-0.150000X-0.587500X0.150000X-0.587500X0.150000X0.587500X0*%
%TD*%
%TA.AperFunction,SMDPad,CuDef*%
%ADD21RoundRect,0.225000X-0.225000X-0.375000X0.225000X-0.375000X0.225000X0.375000X-0.225000X0.375000X0*%
%TD*%
%TA.AperFunction,SMDPad,CuDef*%
%ADD22RoundRect,0.150000X0.700000X-0.150000X0.700000X0.150000X-0.700000X0.150000X-0.700000X-0.150000X0*%
%TD*%
%TA.AperFunction,SMDPad,CuDef*%
%ADD23RoundRect,0.250000X1.150000X-0.250000X1.150000X0.250000X-1.150000X0.250000X-1.150000X-0.250000X0*%
%TD*%
%TA.AperFunction,ComponentPad*%
%ADD24RoundRect,0.760000X-1.140000X1.140000X-1.140000X-1.140000X1.140000X-1.140000X1.140000X1.140000X0*%
%TD*%
%TA.AperFunction,ComponentPad*%
%ADD25C,4.000000*%
%TD*%
%TA.AperFunction,ViaPad*%
%ADD26C,0.600000*%
%TD*%
%TA.AperFunction,Conductor*%
%ADD27C,0.600000*%
%TD*%
%TA.AperFunction,Conductor*%
%ADD28C,0.300000*%
%TD*%
%TA.AperFunction,Conductor*%
%ADD29C,1.000000*%
%TD*%
%TA.AperFunction,Conductor*%
%ADD30C,0.500000*%
%TD*%
G04 APERTURE END LIST*
D10*
%TO.N,+24V*%
X174775000Y-73950000D02*
X174925000Y-74100000D01*
X175425000Y-74100000D01*
X175500000Y-73950000D01*
X175500000Y-69800000D01*
X175800000Y-69525000D01*
X175800000Y-68875000D01*
X175625000Y-68700000D01*
X173175000Y-68650000D01*
X173025000Y-68850000D01*
X173025000Y-72375000D01*
X174775000Y-73950000D01*
%TA.AperFunction,Conductor*%
G36*
X175625000Y-68700000D02*
G01*
X175800000Y-68875000D01*
X175800000Y-69525000D01*
X175500000Y-69800000D01*
X175500000Y-73950000D01*
X175425000Y-74100000D01*
X174925000Y-74100000D01*
X174775000Y-73950000D01*
X173025000Y-72375000D01*
X173025000Y-68850000D01*
X173175000Y-68650000D01*
X175625000Y-68700000D01*
G37*
%TD.AperFunction*%
%TO.N,VCC_IN*%
X175750000Y-74600000D02*
X175875000Y-74425000D01*
X178200000Y-74425000D01*
X178600000Y-74050000D01*
X178600000Y-72350000D01*
X179025000Y-71875000D01*
X182425000Y-71875000D01*
X182875000Y-72475000D01*
X182875000Y-75625000D01*
X182425000Y-76050000D01*
X175825000Y-76050000D01*
X175725000Y-75925000D01*
X175725000Y-74650000D01*
X175750000Y-74600000D01*
%TA.AperFunction,Conductor*%
G36*
X182875000Y-72475000D02*
G01*
X182875000Y-75625000D01*
X182425000Y-76050000D01*
X175825000Y-76050000D01*
X175725000Y-75925000D01*
X175725000Y-74650000D01*
X175750000Y-74600000D01*
X175875000Y-74425000D01*
X178200000Y-74425000D01*
X178600000Y-74050000D01*
X178600000Y-72350000D01*
X179025000Y-71875000D01*
X182425000Y-71875000D01*
X182875000Y-72475000D01*
G37*
%TD.AperFunction*%
%TD*%
D11*
%TO.P,C2,1*%
%TO.N,GND*%
X158662500Y-63837500D03*
%TO.P,C2,2*%
%TO.N,+24V*%
X160212500Y-63837500D03*
%TD*%
D12*
%TO.P,C6,2*%
%TO.N,5V*%
X154900000Y-71850000D03*
%TO.P,C6,1*%
%TO.N,GND*%
X154900000Y-73750000D03*
%TD*%
D13*
%TO.P,C1,2*%
%TO.N,Net-(U4-SW)*%
X158750000Y-65725000D03*
%TO.P,C1,1*%
%TO.N,Net-(U4-BS)*%
X158750000Y-67275000D03*
%TD*%
D14*
%TO.P,L1,2*%
%TO.N,Net-(U4-SW)*%
X155050000Y-65700000D03*
%TO.P,L1,1*%
%TO.N,5V*%
X155050000Y-69400000D03*
%TD*%
D15*
%TO.P,R1,2*%
%TO.N,Net-(U4-EN)*%
X161850000Y-62224000D03*
%TO.P,R1,1*%
%TO.N,+24V*%
X161850000Y-63874000D03*
%TD*%
D16*
%TO.P,C3,1*%
%TO.N,GND*%
X165850000Y-61800000D03*
%TO.P,C3,2*%
%TO.N,+24V*%
X165850000Y-64750000D03*
%TD*%
D17*
%TO.P,R4,2*%
%TO.N,Net-(U4-FB)*%
X158750000Y-70425000D03*
%TO.P,R4,1*%
%TO.N,5V*%
X158750000Y-68775000D03*
%TD*%
D18*
%TO.P,U4,6,SW_6*%
%TO.N,Net-(U4-SW)*%
X160362500Y-65787500D03*
%TO.P,U4,5,VIN_5*%
%TO.N,+24V*%
X161312500Y-65787500D03*
%TO.P,U4,4,EN_4*%
%TO.N,Net-(U4-EN)*%
X162262500Y-65787500D03*
%TO.P,U4,3,FB_3*%
%TO.N,Net-(U4-FB)*%
X162262500Y-68062500D03*
%TO.P,U4,2,GND_2*%
%TO.N,GND*%
X161312500Y-68062500D03*
%TO.P,U4,1,BS_1*%
%TO.N,Net-(U4-BS)*%
X160362500Y-68062500D03*
%TD*%
D19*
%TO.P,R5,2*%
%TO.N,GND*%
X162325000Y-70550000D03*
%TO.P,R5,1*%
%TO.N,Net-(U4-FB)*%
X160675000Y-70550000D03*
%TD*%
D11*
%TO.P,C15,1*%
%TO.N,+3.3V*%
X173000000Y-65975000D03*
%TO.P,C15,2*%
%TO.N,GND*%
X174550000Y-65975000D03*
%TD*%
D20*
%TO.P,Q2,1,G_1*%
%TO.N,Net-(D3-A)*%
X177050000Y-73337500D03*
%TO.P,Q2,2,S_2*%
%TO.N,+24V*%
X175150000Y-73337500D03*
%TO.P,Q2,3,D_3*%
%TO.N,VCC_IN*%
X176100000Y-75212500D03*
%TD*%
D15*
%TO.P,R9,1*%
%TO.N,+24V*%
X175275000Y-69150000D03*
%TO.P,R9,2*%
%TO.N,Net-(D3-A)*%
X175275000Y-67500000D03*
%TD*%
D13*
%TO.P,C20,1*%
%TO.N,GND*%
X156750000Y-73500000D03*
%TO.P,C20,2*%
%TO.N,5V*%
X156750000Y-71950000D03*
%TD*%
D21*
%TO.P,D3,1,K_1*%
%TO.N,+24V*%
X173600000Y-71025000D03*
%TO.P,D3,2,A_2*%
%TO.N,Net-(D3-A)*%
X176900000Y-71025000D03*
%TD*%
D13*
%TO.P,C13,1*%
%TO.N,+3.3V*%
X168400000Y-64675000D03*
%TO.P,C13,2*%
%TO.N,GND*%
X168400000Y-63125000D03*
%TD*%
D17*
%TO.P,R8,1*%
%TO.N,GND*%
X176900000Y-67475000D03*
%TO.P,R8,2*%
%TO.N,Net-(D3-A)*%
X176900000Y-69125000D03*
%TD*%
D22*
%TO.P,J3,1,Pin_1_1*%
%TO.N,/USART1_TX*%
X169150000Y-72950000D03*
%TO.P,J3,2,Pin_2_2*%
%TO.N,/USART1_RX*%
X169150000Y-71700000D03*
%TO.P,J3,3,Pin_3_3*%
%TO.N,GND*%
X169150000Y-70450000D03*
%TO.P,J3,4,Pin_4_4*%
%TO.N,5V*%
X169150000Y-69200000D03*
D23*
%TO.P,J3,MP,MountPin_MP*%
%TO.N,GND*%
X165800000Y-74800000D03*
X165800000Y-67350000D03*
%TD*%
D13*
%TO.P,C14,1*%
%TO.N,+3.3V*%
X171450000Y-66375000D03*
%TO.P,C14,2*%
%TO.N,GND*%
X171450000Y-64825000D03*
%TD*%
D24*
%TO.P,J4,1,Pin_1_1*%
%TO.N,GND*%
X180750000Y-68900000D03*
D25*
%TO.P,J4,2,Pin_2_2*%
%TO.N,VCC_IN*%
X180750000Y-73900000D03*
%TD*%
D26*
%TO.N,GND*%
X151900000Y-71975000D03*
X151275000Y-72000000D03*
X151275000Y-71350000D03*
X151900000Y-71350000D03*
X151975000Y-68350000D03*
X151350000Y-68375000D03*
X151350000Y-67725000D03*
X151975000Y-67725000D03*
X157175000Y-62025000D03*
X156550000Y-62050000D03*
X156550000Y-61400000D03*
X157175000Y-61400000D03*
X153075000Y-63175000D03*
X152450000Y-63200000D03*
X152450000Y-62550000D03*
X153075000Y-62550000D03*
X166935000Y-62965000D03*
X168800000Y-62400000D03*
X164825000Y-68725000D03*
X163275000Y-69525000D03*
X154900000Y-73750000D03*
X162325000Y-70550000D03*
X161350000Y-68350000D03*
%TO.N,Net-(U4-EN)*%
X162262500Y-65787500D03*
X161850000Y-62224000D03*
%TO.N,5V*%
X161150000Y-69300000D03*
%TO.N,+3.3V*%
X168800000Y-65100000D03*
X170725000Y-65650000D03*
%TO.N,GND*%
X173000000Y-64825000D03*
X175575000Y-61562500D03*
X182850000Y-66425000D03*
X164150000Y-76425000D03*
X169875000Y-64737500D03*
X156225000Y-75800000D03*
X182850000Y-67050000D03*
X153100000Y-75125000D03*
X155600000Y-76450000D03*
X177125000Y-65312500D03*
X164775000Y-75775000D03*
X153100000Y-75750000D03*
X182325000Y-70050000D03*
X152475000Y-75775000D03*
X177875000Y-61712500D03*
X162525000Y-75825000D03*
X172325000Y-61562500D03*
X176150000Y-65912500D03*
X182325000Y-70700000D03*
X152475000Y-75125000D03*
X161900000Y-75825000D03*
X164150000Y-75775000D03*
X182225000Y-66425000D03*
X164775000Y-76400000D03*
X182950000Y-70050000D03*
X170012500Y-61875000D03*
X182950000Y-70675000D03*
X155600000Y-75800000D03*
X178125000Y-63912500D03*
X156225000Y-76425000D03*
X182225000Y-67075000D03*
X161900000Y-76475000D03*
X162525000Y-76450000D03*
%TO.N,/USART1_TX*%
X171043716Y-74766038D03*
%TO.N,/USART1_RX*%
X172175000Y-73500000D03*
%TD*%
%TO.N,5V*%
D27*
X166025000Y-69200000D02*
X169150000Y-69200000D01*
X163275000Y-71950000D02*
X166025000Y-69200000D01*
X156750000Y-71950000D02*
X163275000Y-71950000D01*
%TO.N,Net-(U4-SW)*%
X155225000Y-65700000D02*
X155137500Y-65787500D01*
X160275000Y-65700000D02*
X155225000Y-65700000D01*
X160362500Y-65787500D02*
X160275000Y-65700000D01*
%TO.N,5V*%
X159500000Y-69300000D02*
X161150000Y-69300000D01*
X158975000Y-68775000D02*
X159500000Y-69300000D01*
X155675000Y-68775000D02*
X158975000Y-68775000D01*
X155050000Y-69400000D02*
X155675000Y-68775000D01*
%TO.N,Net-(U4-FB)*%
D10*
X162262500Y-69262500D02*
X162262500Y-68062500D01*
X160975000Y-70550000D02*
X162262500Y-69262500D01*
X160675000Y-70550000D02*
X160975000Y-70550000D01*
%TO.N,Net-(U4-BS)*%
D28*
X159575000Y-67275000D02*
X160362500Y-68062500D01*
X158750000Y-67275000D02*
X159575000Y-67275000D01*
%TO.N,+24V*%
D10*
X161312500Y-64000000D02*
X161150000Y-63837500D01*
D27*
X161312500Y-65787500D02*
X161312500Y-64000000D01*
D29*
X161150000Y-63837500D02*
X160212500Y-63837500D01*
%TO.N,Net-(U4-SW)*%
D10*
X155137500Y-65787500D02*
X155050000Y-65700000D01*
%TO.N,Net-(U4-FB)*%
X159100000Y-70550000D02*
X159000000Y-70450000D01*
X160675000Y-70550000D02*
X159100000Y-70550000D01*
%TO.N,5V*%
X156650000Y-71850000D02*
X156750000Y-71950000D01*
D27*
X154900000Y-71850000D02*
X156650000Y-71850000D01*
D10*
X155050000Y-71700000D02*
X154900000Y-71850000D01*
D27*
X155050000Y-69400000D02*
X155050000Y-71700000D01*
%TO.N,Net-(U4-SW)*%
D10*
X155137500Y-65612500D02*
X155050000Y-65700000D01*
%TO.N,+24V*%
D29*
X164937500Y-63837500D02*
X161150000Y-63837500D01*
X172925000Y-68675000D02*
X172910618Y-68675000D01*
X172910618Y-68675000D02*
X171760618Y-67525000D01*
X167200000Y-66100000D02*
X164937500Y-63837500D01*
X171760618Y-67525000D02*
X170810618Y-67525000D01*
X173600000Y-69350000D02*
X172925000Y-68675000D01*
X170810618Y-67525000D02*
X169385618Y-66100000D01*
X169385618Y-66100000D02*
X167200000Y-66100000D01*
X173600000Y-71025000D02*
X173600000Y-69350000D01*
%TO.N,+3.3V*%
D10*
X168740588Y-65134412D02*
X168675000Y-65200000D01*
X168625000Y-65200000D02*
X168400000Y-64975000D01*
D28*
X172600000Y-66375000D02*
X173000000Y-65975000D01*
D10*
X168675000Y-65200000D02*
X168625000Y-65200000D01*
X168400000Y-64975000D02*
X168400000Y-64675000D01*
D28*
X171450000Y-66375000D02*
X172600000Y-66375000D01*
D10*
X168800000Y-65100000D02*
X168765588Y-65134412D01*
X170725000Y-65650000D02*
X171450000Y-66375000D01*
X168765588Y-65134412D02*
X168740588Y-65134412D01*
%TO.N,Net-(D3-A)*%
D27*
X176900000Y-69125000D02*
X176900000Y-71025000D01*
X177050000Y-73337500D02*
X177050000Y-71175000D01*
D30*
X175275000Y-67500000D02*
X176900000Y-69125000D01*
D10*
X177050000Y-71175000D02*
X176900000Y-71025000D01*
%TO.N,/USART1_TX*%
X170966038Y-74766038D02*
X171043716Y-74766038D01*
X169150000Y-72950000D02*
X170966038Y-74766038D01*
X171043716Y-74766038D02*
X170959754Y-74850000D01*
%TO.N,/USART1_RX*%
X170375000Y-71700000D02*
X172175000Y-73500000D01*
X169150000Y-71700000D02*
X170375000Y-71700000D01*
%TD*%
%TA.AperFunction,Conductor*%
%TO.N,GND*%
G36*
X182498369Y-60900569D02*
G01*
X182501619Y-60900711D01*
X182504810Y-60900921D01*
X182535772Y-60903629D01*
X182542266Y-60904197D01*
X182663890Y-60914838D01*
X182670274Y-60915678D01*
X182673684Y-60916278D01*
X182676623Y-60916796D01*
X182682918Y-60918191D01*
X182832479Y-60958266D01*
X182838630Y-60960206D01*
X182844682Y-60962409D01*
X182850644Y-60964878D01*
X182990966Y-61030312D01*
X182996677Y-61033285D01*
X183002263Y-61036510D01*
X183007688Y-61039966D01*
X183134518Y-61128774D01*
X183139635Y-61132700D01*
X183144571Y-61136842D01*
X183149329Y-61141202D01*
X183258796Y-61250669D01*
X183263156Y-61255427D01*
X183267298Y-61260363D01*
X183271229Y-61265487D01*
X183351774Y-61380519D01*
X183351775Y-61380519D01*
X183360019Y-61392291D01*
X183363490Y-61397739D01*
X183366710Y-61403316D01*
X183369692Y-61409043D01*
X183435120Y-61549355D01*
X183437589Y-61555315D01*
X183439790Y-61561361D01*
X183441733Y-61567522D01*
X183481803Y-61717066D01*
X183483199Y-61723367D01*
X183484318Y-61729712D01*
X183485161Y-61736114D01*
X183499077Y-61895169D01*
X183499288Y-61898377D01*
X183499429Y-61901592D01*
X183499500Y-61904834D01*
X183499500Y-72063550D01*
X183493864Y-72091875D01*
X183490815Y-72099234D01*
X183450763Y-72139279D01*
X183394127Y-72139274D01*
X183392351Y-72138538D01*
X183360455Y-72113178D01*
X183359404Y-72111707D01*
X183359402Y-72111703D01*
X183359397Y-72111696D01*
X183358424Y-72110399D01*
X182909400Y-71511700D01*
X182853153Y-71446847D01*
X182727750Y-71350622D01*
X182691255Y-71335505D01*
X182581714Y-71290131D01*
X182461461Y-71274300D01*
X182461461Y-71274299D01*
X182429240Y-71270058D01*
X182425000Y-71269500D01*
X182424999Y-71269500D01*
X179025016Y-71269500D01*
X179025000Y-71269500D01*
X178994948Y-71270333D01*
X178994938Y-71270333D01*
X178992445Y-71270403D01*
X178991587Y-71270415D01*
X178991408Y-71270431D01*
X178836084Y-71299725D01*
X178761673Y-71335505D01*
X178693625Y-71368225D01*
X178573764Y-71471246D01*
X178573760Y-71471250D01*
X178148758Y-71946252D01*
X178075620Y-72047252D01*
X178015130Y-72193286D01*
X178014499Y-72196460D01*
X178014498Y-72198095D01*
X177999788Y-72309830D01*
X177990509Y-72337168D01*
X177988791Y-72340144D01*
X177943859Y-72374625D01*
X177887706Y-72367235D01*
X177854618Y-72326899D01*
X177854415Y-72326300D01*
X177850500Y-72302548D01*
X177850500Y-72060423D01*
X177850637Y-72055918D01*
X177852767Y-72020992D01*
X177850748Y-71996392D01*
X177850500Y-71990339D01*
X177850500Y-71088881D01*
X177850499Y-71088852D01*
X177850499Y-70601663D01*
X177850499Y-70601656D01*
X177840349Y-70502292D01*
X177811984Y-70416695D01*
X177810017Y-70409585D01*
X177802895Y-70377718D01*
X177756379Y-70255145D01*
X177754688Y-70250161D01*
X177732958Y-70177692D01*
X177730877Y-70168766D01*
X177708669Y-70037032D01*
X177707688Y-70027386D01*
X177705581Y-69968269D01*
X177701958Y-69923263D01*
X177701957Y-69923259D01*
X177701618Y-69921328D01*
X177700500Y-69908514D01*
X177700500Y-69903752D01*
X177700606Y-69899786D01*
X177702353Y-69867245D01*
X177700794Y-69849806D01*
X177700500Y-69843218D01*
X177700500Y-69835527D01*
X177706131Y-69807213D01*
X177716542Y-69782078D01*
X177728441Y-69764280D01*
X177727712Y-69763709D01*
X177730468Y-69760190D01*
X177730469Y-69760187D01*
X177730472Y-69760185D01*
X177818478Y-69614606D01*
X177869086Y-69452196D01*
X177875500Y-69381616D01*
X177875500Y-68868384D01*
X177869086Y-68797804D01*
X177818478Y-68635394D01*
X177730472Y-68489815D01*
X177610185Y-68369528D01*
X177498711Y-68302139D01*
X177464607Y-68281522D01*
X177464601Y-68281520D01*
X177302930Y-68231142D01*
X177302247Y-68230922D01*
X177302194Y-68230913D01*
X177302193Y-68230913D01*
X177302192Y-68230913D01*
X177300888Y-68230701D01*
X177298846Y-68230609D01*
X177289425Y-68229752D01*
X177231628Y-68224500D01*
X177231623Y-68224500D01*
X177231616Y-68224500D01*
X177128911Y-68224500D01*
X177110478Y-68222167D01*
X177105181Y-68220805D01*
X177105180Y-68220804D01*
X177105177Y-68220804D01*
X177096768Y-68219884D01*
X177062063Y-68206721D01*
X177051862Y-68199500D01*
X177021070Y-68177702D01*
X177012567Y-68170676D01*
X176898262Y-68060893D01*
X176895595Y-68058197D01*
X176873282Y-68034452D01*
X176859858Y-68020166D01*
X176859769Y-68020071D01*
X176857318Y-68017482D01*
X176796681Y-67953856D01*
X176791058Y-67948048D01*
X176790882Y-67947870D01*
X176790878Y-67947866D01*
X176784027Y-67941662D01*
X176747737Y-67908797D01*
X176747730Y-67908792D01*
X176744751Y-67906594D01*
X176744949Y-67906325D01*
X176734841Y-67898473D01*
X176472111Y-67635743D01*
X176466424Y-67629358D01*
X176444943Y-67602232D01*
X176444942Y-67602231D01*
X176391730Y-67551837D01*
X176391436Y-67551556D01*
X176371892Y-67532787D01*
X176305166Y-67468706D01*
X176300088Y-67463316D01*
X176275496Y-67434443D01*
X176263463Y-67414775D01*
X176256132Y-67397074D01*
X176250500Y-67368759D01*
X176250500Y-67243391D01*
X176250498Y-67243364D01*
X176250494Y-67243322D01*
X176244390Y-67176153D01*
X176244302Y-67174224D01*
X176244087Y-67172810D01*
X176244086Y-67172806D01*
X176244086Y-67172804D01*
X176193478Y-67010394D01*
X176105472Y-66864815D01*
X175985185Y-66744528D01*
X175923512Y-66707245D01*
X175839607Y-66656522D01*
X175839601Y-66656520D01*
X175677930Y-66606142D01*
X175677247Y-66605922D01*
X175677194Y-66605913D01*
X175677193Y-66605913D01*
X175677192Y-66605913D01*
X175675888Y-66605701D01*
X175673846Y-66605609D01*
X175664425Y-66604752D01*
X175606628Y-66599500D01*
X175606623Y-66599500D01*
X175606616Y-66599500D01*
X174943384Y-66599500D01*
X174943376Y-66599500D01*
X174943370Y-66599500D01*
X174884601Y-66604841D01*
X174876153Y-66605609D01*
X174872773Y-66605762D01*
X174869589Y-66606915D01*
X174721148Y-66653171D01*
X174710927Y-66654726D01*
X174702700Y-66661172D01*
X174564813Y-66744528D01*
X174444528Y-66864813D01*
X174361805Y-67001655D01*
X174361804Y-67001654D01*
X174356520Y-67010395D01*
X174313600Y-67148133D01*
X174313601Y-67148134D01*
X174305912Y-67172809D01*
X174305696Y-67174229D01*
X174305609Y-67176155D01*
X174299500Y-67243370D01*
X174299500Y-67756630D01*
X174305911Y-67827179D01*
X174305911Y-67827182D01*
X174305913Y-67827194D01*
X174305914Y-67827199D01*
X174320170Y-67872946D01*
X174320170Y-67872948D01*
X174320171Y-67872948D01*
X174346312Y-67956842D01*
X174349358Y-67985557D01*
X174348338Y-67996775D01*
X174322015Y-68046923D01*
X174322014Y-68046924D01*
X174318823Y-68049583D01*
X174269941Y-68066718D01*
X173764511Y-68056403D01*
X173737006Y-68050492D01*
X173712554Y-68040070D01*
X173689243Y-68024322D01*
X173562778Y-67897857D01*
X173528514Y-67874962D01*
X173522687Y-67870641D01*
X173521593Y-67869744D01*
X173517097Y-67866053D01*
X173511718Y-67861179D01*
X173198875Y-67548336D01*
X172780381Y-67129843D01*
X172764341Y-67105838D01*
X172760029Y-67095425D01*
X172760029Y-67038796D01*
X172761292Y-67035746D01*
X172801337Y-66995698D01*
X172867562Y-66968267D01*
X172890131Y-66958919D01*
X172904007Y-66954710D01*
X172907900Y-66953936D01*
X172918032Y-66951921D01*
X172932467Y-66950499D01*
X173169810Y-66950499D01*
X173197246Y-66950554D01*
X173197252Y-66950553D01*
X173198092Y-66950555D01*
X173200237Y-66950499D01*
X173273337Y-66950499D01*
X173273344Y-66950499D01*
X173372708Y-66940349D01*
X173533697Y-66887003D01*
X173678044Y-66797968D01*
X173797968Y-66678044D01*
X173887003Y-66533697D01*
X173940349Y-66372708D01*
X173950500Y-66273345D01*
X173950499Y-65676656D01*
X173940349Y-65577292D01*
X173887003Y-65416303D01*
X173797968Y-65271956D01*
X173678044Y-65152032D01*
X173678043Y-65152031D01*
X173678042Y-65152030D01*
X173595228Y-65100950D01*
X173533695Y-65062996D01*
X173480033Y-65045214D01*
X173372712Y-65009651D01*
X173353782Y-65007717D01*
X173344318Y-65006750D01*
X173344317Y-65006749D01*
X173284133Y-65000602D01*
X173273345Y-64999500D01*
X173273343Y-64999500D01*
X172720238Y-64999500D01*
X172715871Y-65000602D01*
X172682027Y-65004059D01*
X172676974Y-65004576D01*
X172627289Y-65009651D01*
X172466305Y-65062995D01*
X172321956Y-65152030D01*
X172202034Y-65271953D01*
X172202031Y-65271956D01*
X172112993Y-65416308D01*
X172109175Y-65427832D01*
X172094917Y-65452945D01*
X172087551Y-65461467D01*
X172036940Y-65486881D01*
X172025705Y-65487699D01*
X171997055Y-65484138D01*
X171847712Y-65434651D01*
X171825628Y-65432395D01*
X171814587Y-65431267D01*
X171814586Y-65431266D01*
X171760622Y-65425754D01*
X171748345Y-65424500D01*
X171748343Y-65424500D01*
X171670066Y-65424500D01*
X171657575Y-65423438D01*
X171632971Y-65419224D01*
X171632974Y-65419224D01*
X171557565Y-65417202D01*
X171542644Y-65415272D01*
X171530929Y-65412523D01*
X171484938Y-65379468D01*
X171479652Y-65368657D01*
X171479447Y-65368743D01*
X171478981Y-65367619D01*
X171452369Y-65308816D01*
X171450438Y-65305508D01*
X171450507Y-65305467D01*
X171443814Y-65293564D01*
X171434396Y-65270825D01*
X171434395Y-65270823D01*
X171434394Y-65270821D01*
X171346789Y-65139711D01*
X171235289Y-65028211D01*
X171224741Y-65021163D01*
X171224732Y-65021157D01*
X171224732Y-65021156D01*
X171224730Y-65021156D01*
X171192320Y-64999500D01*
X171145286Y-64968073D01*
X171135639Y-64953635D01*
X170958505Y-64880265D01*
X170958500Y-64880263D01*
X170958489Y-64880260D01*
X170854925Y-64859661D01*
X170854924Y-64859660D01*
X170803842Y-64849500D01*
X170646158Y-64849500D01*
X170602314Y-64858219D01*
X170602315Y-64858220D01*
X170491511Y-64880259D01*
X170491493Y-64880265D01*
X170345825Y-64940602D01*
X170214441Y-65028390D01*
X170213065Y-65029856D01*
X170108922Y-65133998D01*
X170108909Y-65134012D01*
X170103212Y-65139710D01*
X170103208Y-65139713D01*
X170094977Y-65152032D01*
X170043260Y-65229432D01*
X170022842Y-65249848D01*
X170013476Y-65256106D01*
X169969565Y-65264840D01*
X169966952Y-65266164D01*
X169965424Y-65265663D01*
X169957927Y-65267155D01*
X169952945Y-65266164D01*
X169946878Y-65264957D01*
X169920206Y-65253909D01*
X169908254Y-65245923D01*
X169900639Y-65240835D01*
X169890992Y-65226397D01*
X169718191Y-65154823D01*
X169718186Y-65154820D01*
X169677454Y-65137948D01*
X169677287Y-65137900D01*
X169676334Y-65137726D01*
X169674506Y-65137362D01*
X169647822Y-65126310D01*
X169634984Y-65117731D01*
X169605285Y-65077682D01*
X169603686Y-65072410D01*
X169600500Y-65050932D01*
X169600500Y-65021163D01*
X169600500Y-65021159D01*
X169599195Y-65014600D01*
X169569737Y-64866503D01*
X169564561Y-64854008D01*
X169538406Y-64790862D01*
X169509401Y-64720836D01*
X169509398Y-64720830D01*
X169509396Y-64720825D01*
X169509395Y-64720823D01*
X169509394Y-64720821D01*
X169421789Y-64589711D01*
X169407580Y-64575502D01*
X169391540Y-64551496D01*
X169381130Y-64526364D01*
X169375499Y-64498050D01*
X169375499Y-64401663D01*
X169375499Y-64401656D01*
X169365349Y-64302292D01*
X169312003Y-64141303D01*
X169222968Y-63996956D01*
X169103044Y-63877032D01*
X169103043Y-63877031D01*
X169103042Y-63877030D01*
X169030503Y-63832288D01*
X168958695Y-63787996D01*
X168905033Y-63770214D01*
X168797712Y-63734651D01*
X168778782Y-63732717D01*
X168769318Y-63731750D01*
X168769317Y-63731749D01*
X168709133Y-63725602D01*
X168698345Y-63724500D01*
X168698343Y-63724500D01*
X168095238Y-63724500D01*
X168090871Y-63725602D01*
X168057027Y-63729059D01*
X168051974Y-63729576D01*
X168002289Y-63734651D01*
X167841305Y-63787995D01*
X167696956Y-63877030D01*
X167642912Y-63931075D01*
X167618909Y-63947114D01*
X167608501Y-63951426D01*
X167551864Y-63951430D01*
X167551860Y-63951428D01*
X167541452Y-63947117D01*
X167517444Y-63931076D01*
X167418659Y-63832291D01*
X167418656Y-63832288D01*
X167269334Y-63740186D01*
X167186065Y-63712593D01*
X167102800Y-63685001D01*
X167092518Y-63683950D01*
X167082239Y-63682900D01*
X167082237Y-63682899D01*
X167016807Y-63676215D01*
X167000009Y-63674500D01*
X167000007Y-63674500D01*
X166234791Y-63674500D01*
X166206473Y-63668867D01*
X166181344Y-63658458D01*
X166157338Y-63642418D01*
X165718679Y-63203759D01*
X165718671Y-63203750D01*
X165575280Y-63060359D01*
X165411412Y-62950866D01*
X165367233Y-62932566D01*
X165335994Y-62919627D01*
X165335993Y-62919626D01*
X165289401Y-62900328D01*
X165289399Y-62900327D01*
X165282664Y-62897537D01*
X165229337Y-62875449D01*
X165229335Y-62875448D01*
X165229334Y-62875448D01*
X165229316Y-62875444D01*
X165098887Y-62849501D01*
X165036041Y-62837000D01*
X165036039Y-62837000D01*
X162839807Y-62837000D01*
X162811492Y-62831368D01*
X162801083Y-62827057D01*
X162761034Y-62787013D01*
X162760808Y-62786466D01*
X162757940Y-62738420D01*
X162759040Y-62734474D01*
X162767001Y-62716048D01*
X162768478Y-62713606D01*
X162819086Y-62551196D01*
X162825500Y-62480616D01*
X162825500Y-61967384D01*
X162819086Y-61896804D01*
X162768478Y-61734394D01*
X162680472Y-61588815D01*
X162560185Y-61468528D01*
X162414607Y-61380522D01*
X162414601Y-61380520D01*
X162252930Y-61330142D01*
X162252247Y-61329922D01*
X162252194Y-61329913D01*
X162252193Y-61329913D01*
X162252192Y-61329913D01*
X162250888Y-61329701D01*
X162248846Y-61329609D01*
X162239425Y-61328752D01*
X162181628Y-61323500D01*
X162181623Y-61323500D01*
X162181616Y-61323500D01*
X161518384Y-61323500D01*
X161518376Y-61323500D01*
X161518370Y-61323500D01*
X161459601Y-61328841D01*
X161451153Y-61329609D01*
X161447773Y-61329762D01*
X161444589Y-61330915D01*
X161296148Y-61377171D01*
X161285927Y-61378726D01*
X161277700Y-61385172D01*
X161139813Y-61468528D01*
X161019528Y-61588813D01*
X160932430Y-61732892D01*
X160932429Y-61732891D01*
X160931521Y-61734393D01*
X160931520Y-61734394D01*
X160880920Y-61896781D01*
X160880919Y-61896784D01*
X160880911Y-61896816D01*
X160880672Y-61898760D01*
X160880609Y-61900155D01*
X160874500Y-61967370D01*
X160874500Y-62480627D01*
X160880609Y-62547843D01*
X160880701Y-62549889D01*
X160880922Y-62551247D01*
X160881142Y-62551930D01*
X160931520Y-62713605D01*
X160933357Y-62717684D01*
X160932738Y-62717962D01*
X160940454Y-62739269D01*
X160942149Y-62750405D01*
X160928624Y-62805358D01*
X160928358Y-62805720D01*
X160888605Y-62833182D01*
X160884668Y-62834280D01*
X160864789Y-62837000D01*
X160113959Y-62837000D01*
X159998981Y-62859869D01*
X159991808Y-62860933D01*
X159984602Y-62861643D01*
X159977355Y-62862000D01*
X159939164Y-62862000D01*
X159938965Y-62862012D01*
X159938316Y-62862086D01*
X159839788Y-62872151D01*
X159678805Y-62925495D01*
X159534456Y-63014530D01*
X159414530Y-63134456D01*
X159325496Y-63278804D01*
X159272151Y-63439786D01*
X159266546Y-63494638D01*
X159264679Y-63505224D01*
X159262069Y-63515565D01*
X159258688Y-63525770D01*
X159250448Y-63545665D01*
X159250447Y-63545669D01*
X159231203Y-63642418D01*
X159212000Y-63738960D01*
X159212000Y-63936039D01*
X159250448Y-64129334D01*
X159250450Y-64129339D01*
X159258691Y-64149237D01*
X159262071Y-64159439D01*
X159264680Y-64169777D01*
X159266547Y-64180363D01*
X159272151Y-64235211D01*
X159272151Y-64235213D01*
X159294378Y-64302286D01*
X159294380Y-64302292D01*
X159325497Y-64396197D01*
X159359219Y-64450868D01*
X159395692Y-64510001D01*
X159414532Y-64540544D01*
X159534456Y-64660468D01*
X159668960Y-64743431D01*
X159684660Y-64756410D01*
X159694856Y-64767533D01*
X159714236Y-64820751D01*
X159690309Y-64872086D01*
X159676979Y-64881810D01*
X159663019Y-64889774D01*
X159626348Y-64899500D01*
X159544544Y-64899500D01*
X159538326Y-64899238D01*
X159533760Y-64898853D01*
X159526133Y-64897808D01*
X159460745Y-64885354D01*
X159453186Y-64883498D01*
X159355588Y-64854008D01*
X159350392Y-64852225D01*
X159282607Y-64826114D01*
X159282602Y-64826112D01*
X159277264Y-64824055D01*
X159218698Y-64805496D01*
X159215939Y-64804803D01*
X159215927Y-64804800D01*
X159215924Y-64804800D01*
X159215918Y-64804798D01*
X159204010Y-64802585D01*
X159194262Y-64800076D01*
X159166454Y-64790862D01*
X159147711Y-64784651D01*
X159131509Y-64782996D01*
X159115308Y-64781341D01*
X159115306Y-64781340D01*
X159062025Y-64775897D01*
X159048345Y-64774500D01*
X159048343Y-64774500D01*
X158445238Y-64774500D01*
X158440871Y-64775602D01*
X158407027Y-64779059D01*
X158401974Y-64779576D01*
X158352288Y-64784651D01*
X158352285Y-64784652D01*
X158286730Y-64806374D01*
X158282698Y-64807584D01*
X158224976Y-64823128D01*
X158113554Y-64865231D01*
X158108425Y-64866957D01*
X158041811Y-64886700D01*
X158032816Y-64888766D01*
X157982854Y-64896999D01*
X157973658Y-64898515D01*
X157961627Y-64899500D01*
X157926530Y-64899500D01*
X157915582Y-64898686D01*
X157914814Y-64898571D01*
X157881564Y-64893597D01*
X157870454Y-64891935D01*
X157853078Y-64887114D01*
X157802725Y-64866252D01*
X157795341Y-64862702D01*
X157789819Y-64859660D01*
X157728925Y-64826112D01*
X157671502Y-64794476D01*
X157671463Y-64794454D01*
X157480439Y-64689065D01*
X157465481Y-64681138D01*
X157465444Y-64681119D01*
X157464752Y-64680767D01*
X157455259Y-64676132D01*
X157449898Y-64673515D01*
X157449879Y-64673506D01*
X157422407Y-64660646D01*
X157422397Y-64660640D01*
X157225875Y-64568646D01*
X157220301Y-64565636D01*
X157218751Y-64564913D01*
X157215186Y-64563546D01*
X157215171Y-64563584D01*
X157214315Y-64563235D01*
X157214302Y-64563229D01*
X157166776Y-64543858D01*
X157166770Y-64543857D01*
X157166766Y-64543855D01*
X157166768Y-64543855D01*
X157142500Y-64539101D01*
X157133450Y-64536726D01*
X157052801Y-64510001D01*
X157042519Y-64508950D01*
X157032240Y-64507900D01*
X157032238Y-64507899D01*
X156966808Y-64501215D01*
X156950010Y-64499500D01*
X156950008Y-64499500D01*
X153149989Y-64499500D01*
X153088317Y-64505799D01*
X153088317Y-64505800D01*
X153078037Y-64506850D01*
X153047197Y-64510001D01*
X152880665Y-64565186D01*
X152731344Y-64657288D01*
X152607288Y-64781344D01*
X152515186Y-64930665D01*
X152460000Y-65097201D01*
X152459720Y-65098936D01*
X152459618Y-65100950D01*
X152449500Y-65199990D01*
X152449500Y-66200010D01*
X152460001Y-66302798D01*
X152515186Y-66469335D01*
X152607288Y-66618656D01*
X152731344Y-66742712D01*
X152880665Y-66834814D01*
X153047202Y-66889999D01*
X153149990Y-66900500D01*
X153149995Y-66900500D01*
X156950005Y-66900500D01*
X156950010Y-66900500D01*
X157052798Y-66889999D01*
X157219335Y-66834814D01*
X157219337Y-66834813D01*
X157219508Y-66834733D01*
X157226223Y-66831079D01*
X157486655Y-66707248D01*
X157501019Y-66700137D01*
X157501687Y-66699793D01*
X157516191Y-66692022D01*
X157668529Y-66607188D01*
X157669967Y-66606410D01*
X157802344Y-66536821D01*
X157858745Y-66531659D01*
X157902277Y-66567890D01*
X157907440Y-66624292D01*
X157899759Y-66641171D01*
X157837996Y-66741304D01*
X157784651Y-66902287D01*
X157784651Y-66902289D01*
X157779955Y-66948256D01*
X157774798Y-66998744D01*
X157774500Y-67001658D01*
X157774500Y-67001660D01*
X157774500Y-67548336D01*
X157774619Y-67549784D01*
X157774739Y-67550676D01*
X157784651Y-67647709D01*
X157837995Y-67808694D01*
X157837998Y-67808701D01*
X157862931Y-67849122D01*
X157873004Y-67876182D01*
X157874799Y-67887305D01*
X157861808Y-67942318D01*
X157861654Y-67942532D01*
X157821754Y-67970507D01*
X157820828Y-67970770D01*
X157820165Y-67970958D01*
X157796465Y-67973673D01*
X157737949Y-67970873D01*
X157737929Y-67970874D01*
X157667763Y-67974406D01*
X157664043Y-67974500D01*
X155596157Y-67974500D01*
X155552314Y-67983219D01*
X155552314Y-67983220D01*
X155441507Y-68005261D01*
X155441501Y-68005263D01*
X155441497Y-68005264D01*
X155441489Y-68005267D01*
X155407063Y-68019528D01*
X155407062Y-68019528D01*
X155295823Y-68065603D01*
X155204584Y-68126569D01*
X155178120Y-68144251D01*
X155164711Y-68153210D01*
X155164707Y-68153213D01*
X155150501Y-68167419D01*
X155126494Y-68183460D01*
X155113618Y-68188793D01*
X155085450Y-68194425D01*
X155063488Y-68194469D01*
X155061994Y-68194472D01*
X155061988Y-68194472D01*
X155061978Y-68194473D01*
X155015561Y-68199130D01*
X155008175Y-68199500D01*
X153149989Y-68199500D01*
X153088317Y-68205799D01*
X153088317Y-68205800D01*
X153079303Y-68206721D01*
X153047197Y-68210001D01*
X152880665Y-68265186D01*
X152731344Y-68357288D01*
X152607288Y-68481344D01*
X152515186Y-68630665D01*
X152460001Y-68797196D01*
X152460001Y-68797198D01*
X152460001Y-68797200D01*
X152449500Y-68899993D01*
X152449500Y-69900006D01*
X152456473Y-69968260D01*
X152460001Y-70002798D01*
X152460000Y-70002798D01*
X152471348Y-70037042D01*
X152487593Y-70086066D01*
X152515186Y-70169335D01*
X152607288Y-70318656D01*
X152731344Y-70442712D01*
X152880665Y-70534814D01*
X153047202Y-70589999D01*
X153149990Y-70600500D01*
X154158758Y-70600500D01*
X154211084Y-70622174D01*
X154232425Y-70667484D01*
X154244072Y-70789772D01*
X154244317Y-70794283D01*
X154244354Y-70794282D01*
X154244389Y-70795192D01*
X154245021Y-70805118D01*
X154239538Y-70838133D01*
X154236981Y-70844307D01*
X154207481Y-70878962D01*
X154206159Y-70879778D01*
X154190568Y-70887052D01*
X154105666Y-70915186D01*
X153956344Y-71007288D01*
X153832288Y-71131344D01*
X153740186Y-71280666D01*
X153685001Y-71447197D01*
X153685001Y-71447199D01*
X153674500Y-71549995D01*
X153674500Y-72150500D01*
X153674723Y-72152189D01*
X153685001Y-72252798D01*
X153709556Y-72326899D01*
X153740186Y-72419334D01*
X153832288Y-72568656D01*
X153956344Y-72692712D01*
X154105666Y-72784814D01*
X154272203Y-72839999D01*
X154374991Y-72850500D01*
X155425008Y-72850499D01*
X155527797Y-72839999D01*
X155621847Y-72808833D01*
X155628375Y-72806998D01*
X155631019Y-72806384D01*
X155660430Y-72799552D01*
X155881595Y-72713501D01*
X155887149Y-72711589D01*
X155939746Y-72695804D01*
X155996092Y-72701522D01*
X156013343Y-72714355D01*
X156046956Y-72747968D01*
X156191303Y-72837003D01*
X156352292Y-72890349D01*
X156451655Y-72900500D01*
X157048344Y-72900499D01*
X157147708Y-72890349D01*
X157235120Y-72861383D01*
X157242225Y-72859417D01*
X157273533Y-72852420D01*
X157394845Y-72806381D01*
X157399825Y-72804691D01*
X157472309Y-72782957D01*
X157481227Y-72780877D01*
X157612967Y-72758669D01*
X157622609Y-72757689D01*
X157681731Y-72755581D01*
X157726737Y-72751958D01*
X157726742Y-72751956D01*
X157728672Y-72751618D01*
X157741486Y-72750500D01*
X163353840Y-72750500D01*
X163353842Y-72750500D01*
X163508497Y-72719737D01*
X163654179Y-72659394D01*
X163785289Y-72571789D01*
X166324497Y-70032578D01*
X166348505Y-70016539D01*
X166373633Y-70006132D01*
X166401948Y-70000500D01*
X169915693Y-70000500D01*
X169915694Y-70000500D01*
X169952569Y-69997598D01*
X170110398Y-69951744D01*
X170251865Y-69868081D01*
X170368081Y-69751865D01*
X170451744Y-69610398D01*
X170497598Y-69452569D01*
X170500500Y-69415694D01*
X170500500Y-68984306D01*
X170497598Y-68947431D01*
X170451744Y-68789602D01*
X170368081Y-68648135D01*
X170251865Y-68531919D01*
X170238870Y-68524233D01*
X170238855Y-68524224D01*
X170235260Y-68522098D01*
X170110400Y-68448256D01*
X169952572Y-68402402D01*
X169944375Y-68401757D01*
X169927985Y-68400467D01*
X169927983Y-68400466D01*
X169915695Y-68399500D01*
X169915694Y-68399500D01*
X169228842Y-68399500D01*
X166103842Y-68399500D01*
X165946157Y-68399500D01*
X165865188Y-68415606D01*
X165865187Y-68415606D01*
X165791508Y-68430260D01*
X165791493Y-68430265D01*
X165645825Y-68490602D01*
X165514441Y-68578390D01*
X165513065Y-68579856D01*
X162975503Y-71117418D01*
X162951497Y-71133458D01*
X162926367Y-71143867D01*
X162898051Y-71149500D01*
X161622892Y-71149500D01*
X161594577Y-71143868D01*
X161584168Y-71139557D01*
X161544119Y-71099513D01*
X161542420Y-71095412D01*
X161540141Y-71045086D01*
X161540402Y-71044250D01*
X161549786Y-71014132D01*
X161569086Y-70952196D01*
X161575500Y-70881616D01*
X161575500Y-70844104D01*
X161581132Y-70815788D01*
X161582204Y-70813200D01*
X161591540Y-70790658D01*
X161607577Y-70766656D01*
X162631213Y-69743021D01*
X162631216Y-69743020D01*
X162743020Y-69631216D01*
X162804632Y-69524500D01*
X162822077Y-69494285D01*
X162857868Y-69360709D01*
X162863001Y-69351820D01*
X162863001Y-69177924D01*
X162863000Y-69177850D01*
X162863000Y-69089816D01*
X162868631Y-69061502D01*
X162879042Y-69036367D01*
X162895079Y-69012366D01*
X162930581Y-68976865D01*
X163014244Y-68835398D01*
X163060098Y-68677569D01*
X163063000Y-68640694D01*
X163063000Y-67484306D01*
X163060098Y-67447431D01*
X163014244Y-67289602D01*
X162930581Y-67148135D01*
X162814365Y-67031919D01*
X162753944Y-66996186D01*
X162732437Y-66976922D01*
X162725673Y-66967913D01*
X162711588Y-66913058D01*
X162711772Y-66911763D01*
X162732705Y-66869874D01*
X162734670Y-66867909D01*
X162749312Y-66856552D01*
X162814365Y-66818081D01*
X162930581Y-66701865D01*
X163014244Y-66560398D01*
X163060098Y-66402569D01*
X163063000Y-66365694D01*
X163063000Y-65209306D01*
X163060098Y-65172431D01*
X163014244Y-65014602D01*
X163014243Y-65014600D01*
X163014243Y-65014599D01*
X162983336Y-64962338D01*
X162973770Y-64935100D01*
X162972182Y-64923947D01*
X162986264Y-64869089D01*
X162986689Y-64868523D01*
X163026312Y-64841618D01*
X163029958Y-64840620D01*
X163049476Y-64838000D01*
X163910782Y-64838000D01*
X163939092Y-64843629D01*
X163949504Y-64847942D01*
X163989553Y-64887984D01*
X163993623Y-64897808D01*
X163993868Y-64898400D01*
X163999501Y-64926718D01*
X163999501Y-65125008D01*
X164010001Y-65227797D01*
X164065186Y-65394334D01*
X164157288Y-65543656D01*
X164281344Y-65667712D01*
X164430666Y-65759814D01*
X164597203Y-65814999D01*
X164699991Y-65825500D01*
X165465208Y-65825499D01*
X165493522Y-65831130D01*
X165518654Y-65841540D01*
X165542660Y-65857580D01*
X166061724Y-66376644D01*
X166065500Y-66380715D01*
X166086570Y-66405211D01*
X166099360Y-66419523D01*
X166099957Y-66420166D01*
X166153211Y-66469816D01*
X166153217Y-66469819D01*
X166155699Y-66471679D01*
X166163658Y-66478578D01*
X166420118Y-66735038D01*
X166420133Y-66735054D01*
X166421004Y-66735925D01*
X166422861Y-66737782D01*
X166562218Y-66877139D01*
X166684978Y-66959164D01*
X166694623Y-66973599D01*
X166722937Y-66985327D01*
X166723581Y-66985629D01*
X166725645Y-66986455D01*
X166726454Y-66986784D01*
X166755327Y-66998744D01*
X166854834Y-67039961D01*
X166908164Y-67062051D01*
X167004812Y-67081275D01*
X167101459Y-67100500D01*
X167101460Y-67100500D01*
X167298540Y-67100500D01*
X168925828Y-67100500D01*
X168954141Y-67106131D01*
X168979273Y-67116540D01*
X169003278Y-67132580D01*
X170033478Y-68162781D01*
X170172836Y-68302139D01*
X170318732Y-68399624D01*
X170318766Y-68399646D01*
X170336704Y-68411632D01*
X170381684Y-68430263D01*
X170443113Y-68455708D01*
X170443112Y-68455708D01*
X170485796Y-68473388D01*
X170518782Y-68487051D01*
X170712077Y-68525500D01*
X170909158Y-68525500D01*
X171300827Y-68525500D01*
X171329141Y-68531131D01*
X171354273Y-68541541D01*
X171378278Y-68557580D01*
X172272836Y-69452139D01*
X172272837Y-69452140D01*
X172307098Y-69475032D01*
X172312931Y-69479358D01*
X172318524Y-69483948D01*
X172323905Y-69488825D01*
X172387418Y-69552338D01*
X172403457Y-69576341D01*
X172413868Y-69601475D01*
X172419500Y-69629790D01*
X172419500Y-72375033D01*
X172420335Y-72406807D01*
X172420335Y-72406819D01*
X172449177Y-72562240D01*
X172449309Y-72562634D01*
X172449467Y-72562850D01*
X172472106Y-72610287D01*
X172479220Y-72638268D01*
X172479690Y-72647194D01*
X172460797Y-72700587D01*
X172409683Y-72724983D01*
X172382811Y-72721426D01*
X172279178Y-72687568D01*
X172270608Y-72684853D01*
X172270065Y-72684686D01*
X172262507Y-72682445D01*
X172260990Y-72681996D01*
X172260515Y-72681860D01*
X172260497Y-72681855D01*
X172260455Y-72681843D01*
X172249851Y-72678932D01*
X172249453Y-72678827D01*
X172240402Y-72676539D01*
X172240390Y-72676536D01*
X172240362Y-72676529D01*
X172219760Y-72671522D01*
X172187918Y-72654786D01*
X172169999Y-72638768D01*
X172169994Y-72638764D01*
X172147237Y-72621874D01*
X172139013Y-72614778D01*
X170862326Y-71338091D01*
X170862322Y-71338086D01*
X170743716Y-71219480D01*
X170632679Y-71155373D01*
X170617353Y-71143613D01*
X170616983Y-71143243D01*
X170610379Y-71141473D01*
X170610276Y-71141747D01*
X170607841Y-71140823D01*
X170607771Y-71140954D01*
X170607107Y-71140596D01*
X170607070Y-71140587D01*
X170606815Y-71140439D01*
X170606777Y-71140419D01*
X170454061Y-71099499D01*
X170454059Y-71099499D01*
X170454057Y-71099499D01*
X170413347Y-71099499D01*
X170376994Y-71089953D01*
X170371785Y-71087016D01*
X170370111Y-71086043D01*
X170285092Y-71035080D01*
X170265736Y-71024050D01*
X170265729Y-71024046D01*
X170264833Y-71023561D01*
X170249200Y-71015542D01*
X170245056Y-71013417D01*
X170245046Y-71013412D01*
X170132751Y-70958897D01*
X170126139Y-70955745D01*
X170125916Y-70955641D01*
X170125912Y-70955639D01*
X170125905Y-70955636D01*
X170125896Y-70955632D01*
X170125881Y-70955626D01*
X170122235Y-70954186D01*
X170111747Y-70949053D01*
X170110402Y-70948257D01*
X170110396Y-70948255D01*
X170101701Y-70945728D01*
X170095170Y-70943494D01*
X170068072Y-70932791D01*
X170045046Y-70928795D01*
X170037054Y-70926947D01*
X169952572Y-70902402D01*
X169944375Y-70901757D01*
X169927985Y-70900467D01*
X169927983Y-70900466D01*
X169915695Y-70899500D01*
X169915694Y-70899500D01*
X168384306Y-70899500D01*
X168384298Y-70899500D01*
X168375089Y-70900224D01*
X168375087Y-70900225D01*
X168358491Y-70901531D01*
X168347426Y-70902402D01*
X168189598Y-70948256D01*
X168048133Y-71031919D01*
X167931919Y-71148133D01*
X167848256Y-71289598D01*
X167802402Y-71447427D01*
X167799500Y-71484306D01*
X167799500Y-71915692D01*
X167802402Y-71952571D01*
X167848256Y-72110400D01*
X167931919Y-72251865D01*
X167942320Y-72262266D01*
X167958361Y-72286274D01*
X167962672Y-72296682D01*
X167962672Y-72353319D01*
X167962670Y-72353322D01*
X167958359Y-72363728D01*
X167942322Y-72387730D01*
X167931918Y-72398134D01*
X167848256Y-72539598D01*
X167802402Y-72697427D01*
X167799500Y-72734306D01*
X167799500Y-73165692D01*
X167802402Y-73202571D01*
X167848256Y-73360400D01*
X167884189Y-73421158D01*
X167931919Y-73501865D01*
X168048135Y-73618081D01*
X168189602Y-73701744D01*
X168347431Y-73747598D01*
X168384306Y-73750500D01*
X168951839Y-73750500D01*
X168967488Y-73752174D01*
X168969277Y-73752561D01*
X168969283Y-73752561D01*
X168969284Y-73752562D01*
X169015717Y-73759180D01*
X169032208Y-73763516D01*
X169071019Y-73778685D01*
X169082986Y-73784660D01*
X169150113Y-73826148D01*
X169166177Y-73836076D01*
X169175143Y-73842594D01*
X169256197Y-73911354D01*
X169281452Y-73931379D01*
X169287802Y-73937037D01*
X170127212Y-74776448D01*
X170136384Y-74787616D01*
X170146307Y-74802444D01*
X170146308Y-74802445D01*
X170149745Y-74806265D01*
X170152831Y-74809695D01*
X170152848Y-74809715D01*
X170166290Y-74824657D01*
X170178772Y-74843812D01*
X170191950Y-74873131D01*
X170194266Y-74878927D01*
X170198874Y-74892037D01*
X170198881Y-74892055D01*
X170199139Y-74892753D01*
X170204913Y-74907645D01*
X170252550Y-75024983D01*
X170252554Y-75024992D01*
X170252555Y-75024994D01*
X170252563Y-75025014D01*
X170272961Y-75069054D01*
X170272968Y-75069068D01*
X170274005Y-75071051D01*
X170298462Y-75112825D01*
X170340857Y-75177878D01*
X170362039Y-75207932D01*
X170362688Y-75208785D01*
X170363068Y-75209284D01*
X170376648Y-75225842D01*
X170386536Y-75237898D01*
X170386539Y-75237901D01*
X170444743Y-75303792D01*
X170444779Y-75303832D01*
X170450047Y-75309703D01*
X170450245Y-75309920D01*
X170450248Y-75309924D01*
X170494301Y-75352715D01*
X170494300Y-75352715D01*
X170494302Y-75352716D01*
X170494304Y-75352718D01*
X170498533Y-75355412D01*
X170511093Y-75365493D01*
X170533427Y-75387827D01*
X170623428Y-75447964D01*
X170633075Y-75462400D01*
X170661393Y-75474130D01*
X170662022Y-75474425D01*
X170664061Y-75475241D01*
X170664900Y-75475583D01*
X170810185Y-75535761D01*
X170810214Y-75535773D01*
X170810219Y-75535775D01*
X170964874Y-75566538D01*
X170964876Y-75566538D01*
X171122556Y-75566538D01*
X171122558Y-75566538D01*
X171277213Y-75535775D01*
X171422895Y-75475432D01*
X171554005Y-75387827D01*
X171665505Y-75276327D01*
X171753110Y-75145217D01*
X171813453Y-74999535D01*
X171844216Y-74844880D01*
X171844216Y-74687196D01*
X171813453Y-74532541D01*
X171813451Y-74532536D01*
X171753112Y-74386863D01*
X171753111Y-74386861D01*
X171753110Y-74386859D01*
X171753105Y-74386852D01*
X171716513Y-74332088D01*
X171705464Y-74305416D01*
X171704486Y-74300500D01*
X171703910Y-74297603D01*
X171714956Y-74242057D01*
X171762044Y-74210589D01*
X171764793Y-74210042D01*
X171807547Y-74214251D01*
X171928386Y-74264304D01*
X171928388Y-74264305D01*
X171941496Y-74269735D01*
X171941503Y-74269737D01*
X172096158Y-74300500D01*
X172096160Y-74300500D01*
X172253840Y-74300500D01*
X172253842Y-74300500D01*
X172408497Y-74269737D01*
X172554179Y-74209394D01*
X172685289Y-74121789D01*
X172796789Y-74010289D01*
X172884394Y-73879179D01*
X172944737Y-73733497D01*
X172975500Y-73578842D01*
X172975500Y-73421158D01*
X172954923Y-73317710D01*
X172954923Y-73288843D01*
X172956477Y-73281025D01*
X172987942Y-73233935D01*
X173043477Y-73222882D01*
X173047247Y-73223632D01*
X173082321Y-73241206D01*
X174355262Y-74386853D01*
X174355282Y-74386894D01*
X174355294Y-74386882D01*
X174355961Y-74387483D01*
X174357343Y-74388760D01*
X174358772Y-74390115D01*
X174360181Y-74391487D01*
X174496847Y-74528153D01*
X174622250Y-74624378D01*
X174768285Y-74684868D01*
X174925000Y-74705500D01*
X175030781Y-74705500D01*
X175059091Y-74711129D01*
X175069503Y-74715442D01*
X175109553Y-74755485D01*
X175109556Y-74755492D01*
X175113867Y-74765900D01*
X175119500Y-74794218D01*
X175119500Y-75925000D01*
X175120190Y-75934111D01*
X175125783Y-76007985D01*
X175126403Y-76016170D01*
X175140612Y-76065204D01*
X175170140Y-76167108D01*
X175170397Y-76167992D01*
X175252195Y-76303272D01*
X175252224Y-76303314D01*
X175252587Y-76303758D01*
X175352175Y-76428243D01*
X175396849Y-76478155D01*
X175431906Y-76505055D01*
X175522250Y-76574378D01*
X175668285Y-76634868D01*
X175825000Y-76655500D01*
X175825002Y-76655500D01*
X182424992Y-76655500D01*
X182425000Y-76655500D01*
X182564947Y-76639105D01*
X182655907Y-76604437D01*
X182710894Y-76583480D01*
X182714459Y-76582225D01*
X182717083Y-76581375D01*
X182722982Y-76575341D01*
X182840751Y-76490206D01*
X183290751Y-76065206D01*
X183303153Y-76053153D01*
X183356008Y-75984270D01*
X183377709Y-75965237D01*
X183384612Y-75961252D01*
X183440762Y-75953860D01*
X183485684Y-75988318D01*
X183486891Y-75990407D01*
X183496535Y-76033877D01*
X183485161Y-76163883D01*
X183484318Y-76170286D01*
X183483199Y-76176631D01*
X183481803Y-76182932D01*
X183441733Y-76332476D01*
X183439790Y-76338637D01*
X183437589Y-76344683D01*
X183435120Y-76350643D01*
X183369692Y-76490955D01*
X183366710Y-76496682D01*
X183363490Y-76502259D01*
X183360022Y-76507703D01*
X183271229Y-76634512D01*
X183267298Y-76639635D01*
X183263156Y-76644571D01*
X183258796Y-76649329D01*
X183149329Y-76758796D01*
X183144571Y-76763156D01*
X183139635Y-76767298D01*
X183134512Y-76771229D01*
X183007703Y-76860022D01*
X183002259Y-76863490D01*
X182996682Y-76866710D01*
X182990955Y-76869692D01*
X182850643Y-76935120D01*
X182844683Y-76937589D01*
X182838637Y-76939790D01*
X182832476Y-76941733D01*
X182682932Y-76981803D01*
X182676631Y-76983199D01*
X182670286Y-76984318D01*
X182663884Y-76985161D01*
X182504829Y-76999077D01*
X182501622Y-76999287D01*
X182498385Y-76999429D01*
X182495165Y-76999500D01*
X152004835Y-76999500D01*
X152001613Y-76999429D01*
X151998377Y-76999287D01*
X151995170Y-76999077D01*
X151836114Y-76985161D01*
X151829712Y-76984318D01*
X151823367Y-76983199D01*
X151817066Y-76981803D01*
X151667522Y-76941733D01*
X151661361Y-76939790D01*
X151655315Y-76937589D01*
X151649355Y-76935120D01*
X151509043Y-76869692D01*
X151503316Y-76866710D01*
X151497739Y-76863490D01*
X151492295Y-76860022D01*
X151365486Y-76771229D01*
X151360363Y-76767298D01*
X151355427Y-76763156D01*
X151350669Y-76758796D01*
X151241202Y-76649329D01*
X151236841Y-76644570D01*
X151232700Y-76639635D01*
X151228770Y-76634513D01*
X151228769Y-76634512D01*
X151139966Y-76507688D01*
X151136510Y-76502263D01*
X151133285Y-76496677D01*
X151130312Y-76490966D01*
X151124338Y-76478154D01*
X151064869Y-76350625D01*
X151062405Y-76344673D01*
X151060205Y-76338627D01*
X151058265Y-76332475D01*
X151050435Y-76303252D01*
X151050435Y-76303251D01*
X151018193Y-76182921D01*
X151016798Y-76176631D01*
X151015675Y-76170257D01*
X151014840Y-76163908D01*
X151000919Y-76004795D01*
X151000712Y-76001640D01*
X151000569Y-75998368D01*
X151000500Y-75995163D01*
X151000500Y-61904835D01*
X151000570Y-61901617D01*
X151000634Y-61900155D01*
X151000712Y-61898355D01*
X151000919Y-61895200D01*
X151006265Y-61834108D01*
X151014838Y-61736102D01*
X151015678Y-61729717D01*
X151016796Y-61723376D01*
X151018192Y-61717081D01*
X151018196Y-61717066D01*
X151058270Y-61567505D01*
X151060200Y-61561384D01*
X151062417Y-61555293D01*
X151064865Y-61549382D01*
X151130322Y-61409010D01*
X151133286Y-61403316D01*
X151136507Y-61397739D01*
X151139960Y-61392318D01*
X151228789Y-61265457D01*
X151232689Y-61260374D01*
X151236848Y-61255418D01*
X151241179Y-61250692D01*
X151350692Y-61141179D01*
X151355418Y-61136848D01*
X151360374Y-61132689D01*
X151365457Y-61128789D01*
X151492318Y-61039960D01*
X151497742Y-61036505D01*
X151503314Y-61033288D01*
X151509020Y-61030317D01*
X151649379Y-60964866D01*
X151655311Y-60962409D01*
X151661374Y-60960203D01*
X151667505Y-60958270D01*
X151817085Y-60918191D01*
X151823367Y-60916798D01*
X151829726Y-60915677D01*
X151836097Y-60914839D01*
X151964227Y-60903629D01*
X151995190Y-60900920D01*
X151998379Y-60900711D01*
X152001629Y-60900569D01*
X152004836Y-60900500D01*
X182495164Y-60900500D01*
X182498369Y-60900569D01*
G37*
%TD.AperFunction*%
%TA.AperFunction,Conductor*%
G36*
X161634872Y-66936357D02*
G01*
X161684503Y-66963640D01*
X161700309Y-67018006D01*
X161700156Y-67019396D01*
X161678926Y-67063626D01*
X161594419Y-67148133D01*
X161510756Y-67289598D01*
X161464902Y-67447427D01*
X161462000Y-67484306D01*
X161462000Y-68440989D01*
X161460005Y-68445804D01*
X161461341Y-68450844D01*
X161456367Y-68469307D01*
X161452056Y-68479715D01*
X161441648Y-68490123D01*
X161440326Y-68493315D01*
X161437134Y-68494637D01*
X161412008Y-68519763D01*
X161412005Y-68519765D01*
X161406372Y-68522098D01*
X161363619Y-68526307D01*
X161342454Y-68522098D01*
X161240765Y-68501871D01*
X161220300Y-68494545D01*
X161204949Y-68486334D01*
X161193787Y-68473388D01*
X161181023Y-68465973D01*
X161178194Y-68455302D01*
X161170172Y-68445998D01*
X161167321Y-68438025D01*
X161163000Y-68413109D01*
X161163000Y-67484306D01*
X161161772Y-67468706D01*
X161160098Y-67447431D01*
X161114244Y-67289602D01*
X161030581Y-67148135D01*
X160950109Y-67067663D01*
X160934069Y-67043657D01*
X160931019Y-67036293D01*
X160931021Y-66979658D01*
X160971035Y-66939625D01*
X160972333Y-66939087D01*
X161021320Y-66936381D01*
X161053494Y-66945728D01*
X161054204Y-66946007D01*
X161059488Y-66947475D01*
X161060328Y-66947713D01*
X161060341Y-66947716D01*
X161060494Y-66947733D01*
X161062811Y-66947824D01*
X161096806Y-66950500D01*
X161096807Y-66950500D01*
X161528193Y-66950500D01*
X161528194Y-66950500D01*
X161562188Y-66947824D01*
X161564501Y-66947733D01*
X161564658Y-66947716D01*
X161565503Y-66947477D01*
X161570798Y-66946006D01*
X161571504Y-66945728D01*
X161598193Y-66937974D01*
X161626948Y-66935483D01*
X161634872Y-66936357D01*
G37*
%TD.AperFunction*%
%TD*%
%TA.AperFunction,Conductor*%
%TO.N,5V*%
G36*
X157094180Y-71520195D02*
G01*
X157232963Y-71572930D01*
X157358442Y-71610773D01*
X157529034Y-71642597D01*
X157663894Y-71649436D01*
X157671982Y-71653277D01*
X157675000Y-71661121D01*
X157675000Y-72238709D01*
X157671573Y-72246982D01*
X157663717Y-72250402D01*
X157566516Y-72253868D01*
X157566509Y-72253869D01*
X157361661Y-72288402D01*
X157361657Y-72288402D01*
X157234840Y-72326428D01*
X157234826Y-72326433D01*
X157094179Y-72379808D01*
X157085228Y-72379539D01*
X157080797Y-72376058D01*
X156973439Y-72238201D01*
X156754597Y-71957188D01*
X156752218Y-71948556D01*
X156754597Y-71942812D01*
X157080796Y-71523942D01*
X157088581Y-71519522D01*
X157094180Y-71520195D01*
G37*
%TD.AperFunction*%
%TD*%
%TA.AperFunction,Conductor*%
%TO.N,Net-(U4-SW)*%
G36*
X156999990Y-65021051D02*
G01*
X157202260Y-65115736D01*
X157235566Y-65131327D01*
X157236258Y-65131679D01*
X157428650Y-65237822D01*
X157579555Y-65320959D01*
X157725313Y-65381349D01*
X157840031Y-65398509D01*
X157847705Y-65403121D01*
X157849999Y-65410079D01*
X157849999Y-65989638D01*
X157846572Y-65997911D01*
X157839714Y-66001252D01*
X157749462Y-66012244D01*
X157749460Y-66012244D01*
X157649345Y-66046163D01*
X157649341Y-66046165D01*
X157428656Y-66162173D01*
X157270254Y-66250383D01*
X157269586Y-66250727D01*
X157000017Y-66378903D01*
X156991130Y-66379381D01*
X155080571Y-65711044D01*
X155073893Y-65705077D01*
X155073390Y-65696137D01*
X155079357Y-65689459D01*
X155080571Y-65688956D01*
X156991171Y-65020604D01*
X156999990Y-65021051D01*
G37*
%TD.AperFunction*%
%TD*%
%TA.AperFunction,Conductor*%
%TO.N,Net-(U4-SW)*%
G36*
X158410934Y-65295335D02*
G01*
X158417817Y-65297847D01*
X158418088Y-65298061D01*
X158420068Y-65300054D01*
X158521053Y-65429729D01*
X158743971Y-65715981D01*
X158746020Y-65720062D01*
X158746713Y-65722577D01*
X158746247Y-65730151D01*
X158746012Y-65730720D01*
X158744429Y-65733443D01*
X158420765Y-66149049D01*
X158417314Y-66152033D01*
X158414968Y-66153366D01*
X158407646Y-66154791D01*
X158407172Y-66154728D01*
X158404302Y-66153966D01*
X158376699Y-66142727D01*
X158230601Y-66089194D01*
X158230603Y-66089194D01*
X158230596Y-66089192D01*
X158218339Y-66085654D01*
X158106460Y-66053362D01*
X158106256Y-66053298D01*
X157955354Y-66025998D01*
X157955249Y-66025978D01*
X157955230Y-66025975D01*
X157836318Y-66019197D01*
X157831900Y-66018053D01*
X157830140Y-66017204D01*
X157824279Y-66010795D01*
X157823729Y-66009336D01*
X157822977Y-66005126D01*
X157827042Y-65432050D01*
X157827964Y-65427583D01*
X157828706Y-65425827D01*
X157834885Y-65419624D01*
X157836378Y-65418986D01*
X157840629Y-65418052D01*
X157949140Y-65414874D01*
X158016338Y-65403800D01*
X158150513Y-65381690D01*
X158150710Y-65381661D01*
X158150756Y-65381646D01*
X158272414Y-65345590D01*
X158403655Y-65295996D01*
X158408152Y-65295248D01*
X158410934Y-65295335D01*
G37*
%TD.AperFunction*%
%TD*%
%TA.AperFunction,Conductor*%
%TO.N,Net-(U4-SW)*%
G36*
X159092794Y-65295074D02*
G01*
X159095553Y-65295767D01*
X159100898Y-65297826D01*
X159188772Y-65331676D01*
X159336181Y-65376218D01*
X159336182Y-65376218D01*
X159336218Y-65376229D01*
X159336385Y-65376257D01*
X159461141Y-65400018D01*
X159461160Y-65400031D01*
X159461237Y-65400037D01*
X159461239Y-65400037D01*
X159461244Y-65400038D01*
X159461245Y-65400038D01*
X159461250Y-65400039D01*
X159461346Y-65400047D01*
X159461390Y-65400051D01*
X159461647Y-65400075D01*
X159461720Y-65400078D01*
X159570393Y-65409228D01*
X159656263Y-65409787D01*
X159660729Y-65410706D01*
X159662444Y-65411430D01*
X159668684Y-65417681D01*
X159669336Y-65419232D01*
X159670245Y-65423567D01*
X159679630Y-65996102D01*
X159678814Y-66000591D01*
X159678123Y-66002341D01*
X159672050Y-66008710D01*
X159670542Y-66009390D01*
X159666263Y-66010412D01*
X159608380Y-66013039D01*
X159608278Y-66013041D01*
X159608113Y-66013051D01*
X159508891Y-66025216D01*
X159397943Y-66049213D01*
X159256401Y-66092603D01*
X159256364Y-66092616D01*
X159256317Y-66092635D01*
X159096369Y-66153937D01*
X159091873Y-66154708D01*
X159089107Y-66154635D01*
X159082181Y-66152133D01*
X159081890Y-66151904D01*
X159079894Y-66149899D01*
X158756027Y-65734039D01*
X158753979Y-65729961D01*
X158753285Y-65727441D01*
X158753747Y-65719878D01*
X158753985Y-65719301D01*
X158755563Y-65716585D01*
X159079343Y-65300808D01*
X159082788Y-65297829D01*
X159085195Y-65296463D01*
X159092409Y-65295027D01*
X159092794Y-65295074D01*
G37*
%TD.AperFunction*%
%TD*%
%TA.AperFunction,Conductor*%
%TO.N,5V*%
G36*
X159170564Y-68439872D02*
G01*
X159171773Y-68440514D01*
X159174948Y-68442987D01*
X159383734Y-68673333D01*
X159384038Y-68673682D01*
X159384347Y-68674053D01*
X159384637Y-68674414D01*
X159534999Y-68870249D01*
X159535025Y-68870328D01*
X159535047Y-68870312D01*
X159535153Y-68870452D01*
X159575897Y-68925205D01*
X159586660Y-68939669D01*
X159703223Y-69077422D01*
X159705434Y-69081415D01*
X159706062Y-69083379D01*
X159705531Y-69091867D01*
X159704937Y-69093147D01*
X159702597Y-69096495D01*
X159298072Y-69501020D01*
X159294280Y-69503555D01*
X159292635Y-69504237D01*
X159283680Y-69504239D01*
X159282428Y-69503721D01*
X159277959Y-69500450D01*
X159209132Y-69418712D01*
X159209059Y-69418624D01*
X159208955Y-69418498D01*
X159208854Y-69418374D01*
X159175896Y-69376971D01*
X159175895Y-69376970D01*
X159175888Y-69376961D01*
X159175765Y-69376825D01*
X159175729Y-69376784D01*
X159175717Y-69376772D01*
X159066016Y-69255659D01*
X158974032Y-69188496D01*
X158974027Y-69188494D01*
X158891452Y-69163033D01*
X158891334Y-69162995D01*
X158891327Y-69162995D01*
X158850822Y-69164037D01*
X158850819Y-69164037D01*
X158850808Y-69164039D01*
X158850802Y-69164041D01*
X158827908Y-69170087D01*
X158823356Y-69170370D01*
X158822954Y-69170315D01*
X158821591Y-69170131D01*
X158813854Y-69165630D01*
X158813805Y-69165566D01*
X158813485Y-69165144D01*
X158811167Y-69156883D01*
X158819111Y-69079197D01*
X158861034Y-68669206D01*
X158862375Y-68664844D01*
X158864310Y-68661255D01*
X158867588Y-68657450D01*
X159156036Y-68441358D01*
X159160149Y-68439389D01*
X159162183Y-68438870D01*
X159170564Y-68439872D01*
G37*
%TD.AperFunction*%
%TD*%
%TA.AperFunction,Conductor*%
%TO.N,5V*%
G36*
X157767864Y-68476398D02*
G01*
X157769100Y-68476838D01*
X157769541Y-68476995D01*
X157776185Y-68482997D01*
X157776834Y-68484365D01*
X157777964Y-68489380D01*
X157777964Y-69061158D01*
X157777572Y-69062102D01*
X157777072Y-69065638D01*
X157776369Y-69067334D01*
X157774715Y-69069001D01*
X157774537Y-69069431D01*
X157774061Y-69069659D01*
X157770127Y-69073626D01*
X157768551Y-69074294D01*
X157764173Y-69075220D01*
X157743020Y-69075559D01*
X157742239Y-69075572D01*
X157742114Y-69075573D01*
X157741626Y-69075621D01*
X157741563Y-69075631D01*
X157623843Y-69087933D01*
X157552882Y-69095349D01*
X157392950Y-69138895D01*
X157276767Y-69199493D01*
X157199974Y-69273759D01*
X157157346Y-69363393D01*
X157157345Y-69363396D01*
X157157343Y-69363409D01*
X157148819Y-69416213D01*
X157148819Y-69416216D01*
X157149620Y-69456097D01*
X157148818Y-69460594D01*
X157148169Y-69462253D01*
X157141976Y-69468704D01*
X157141411Y-69468952D01*
X157133010Y-69469339D01*
X157131848Y-69468952D01*
X156518774Y-69264691D01*
X155059209Y-68778401D01*
X155055244Y-68776142D01*
X155053090Y-68774274D01*
X155049357Y-68768079D01*
X155049302Y-68767844D01*
X155049000Y-68765202D01*
X155049000Y-68714003D01*
X155049889Y-68709529D01*
X155050574Y-68707874D01*
X155056892Y-68701547D01*
X155058531Y-68700866D01*
X155062992Y-68699971D01*
X155489514Y-68699129D01*
X155925400Y-68670770D01*
X156120939Y-68649772D01*
X156350116Y-68625163D01*
X156562911Y-68597650D01*
X156754581Y-68572870D01*
X156758321Y-68573125D01*
X156760592Y-68572129D01*
X157425283Y-68492787D01*
X157425629Y-68492752D01*
X157426081Y-68492714D01*
X157426415Y-68492692D01*
X157763352Y-68475735D01*
X157767864Y-68476398D01*
G37*
%TD.AperFunction*%
%TD*%
%TA.AperFunction,Conductor*%
%TO.N,5V*%
G36*
X158478381Y-68384449D02*
G01*
X158484672Y-68389017D01*
X158560909Y-68499506D01*
X158745091Y-68766438D01*
X158746901Y-68770630D01*
X158747527Y-68773549D01*
X158746806Y-68780692D01*
X158746799Y-68780708D01*
X158745710Y-68782663D01*
X158485794Y-69159355D01*
X158482514Y-69162537D01*
X158481019Y-69163503D01*
X158472219Y-69165117D01*
X158471626Y-69164990D01*
X158464550Y-69160341D01*
X158439223Y-69124820D01*
X158439217Y-69124813D01*
X158391826Y-69089430D01*
X158335282Y-69066651D01*
X158335276Y-69066649D01*
X158335274Y-69066648D01*
X158335253Y-69066641D01*
X158335081Y-69066611D01*
X158324622Y-69064563D01*
X158272003Y-69054257D01*
X158135082Y-69051845D01*
X158000765Y-69064550D01*
X158000644Y-69064561D01*
X158000537Y-69064570D01*
X158000525Y-69064571D01*
X157889987Y-69073754D01*
X157885449Y-69073236D01*
X157883754Y-69072693D01*
X157876921Y-69066907D01*
X157876298Y-69065697D01*
X157875000Y-69060341D01*
X157875000Y-68490039D01*
X157875889Y-68485566D01*
X157875951Y-68485417D01*
X157876571Y-68483918D01*
X157882896Y-68477587D01*
X157884165Y-68477061D01*
X157889607Y-68476213D01*
X158000462Y-68485422D01*
X158000558Y-68485431D01*
X158000796Y-68485455D01*
X158053559Y-68491283D01*
X158222482Y-68499506D01*
X158340058Y-68481947D01*
X158421148Y-68441284D01*
X158463691Y-68388918D01*
X158467200Y-68386009D01*
X158468769Y-68385160D01*
X158477670Y-68384238D01*
X158478381Y-68384449D01*
G37*
%TD.AperFunction*%
%TD*%
%TA.AperFunction,Conductor*%
%TO.N,Net-(U4-BS)*%
G36*
X159094591Y-66846177D02*
G01*
X159173212Y-66883698D01*
X159174197Y-66884229D01*
X159235903Y-66921494D01*
X159247921Y-66928752D01*
X159248867Y-66929387D01*
X159368749Y-67018772D01*
X159368987Y-67018955D01*
X159404488Y-67046952D01*
X159496795Y-67106799D01*
X159555766Y-67120523D01*
X159574063Y-67124782D01*
X159575888Y-67125368D01*
X159678915Y-67168043D01*
X159682710Y-67170578D01*
X159743503Y-67231372D01*
X159746930Y-67239644D01*
X159743503Y-67247917D01*
X159566147Y-67425272D01*
X159547917Y-67443502D01*
X159539644Y-67446929D01*
X159531371Y-67443502D01*
X159521551Y-67433682D01*
X159472812Y-67455663D01*
X159472811Y-67455664D01*
X159368906Y-67531110D01*
X159240810Y-67625895D01*
X159239321Y-67626832D01*
X159094777Y-67703285D01*
X159085862Y-67704124D01*
X159080076Y-67700132D01*
X158882891Y-67446929D01*
X158754597Y-67282188D01*
X158752218Y-67273556D01*
X158754597Y-67267812D01*
X159080325Y-66849547D01*
X159088111Y-66845126D01*
X159094591Y-66846177D01*
G37*
%TD.AperFunction*%
%TD*%
%TA.AperFunction,Conductor*%
%TO.N,Net-(U4-FB)*%
G36*
X159215459Y-70160824D02*
G01*
X159216965Y-70163024D01*
X159265581Y-70255006D01*
X159265583Y-70255008D01*
X159311526Y-70312734D01*
X159311527Y-70312735D01*
X159311530Y-70312738D01*
X159361582Y-70358711D01*
X159422866Y-70398778D01*
X159485255Y-70426126D01*
X159485256Y-70426126D01*
X159485258Y-70426127D01*
X159508570Y-70432013D01*
X159558081Y-70444515D01*
X159558084Y-70444515D01*
X159558087Y-70444516D01*
X159614257Y-70449119D01*
X159622221Y-70453210D01*
X159625000Y-70460780D01*
X159625000Y-70639395D01*
X159621573Y-70647668D01*
X159614447Y-70651039D01*
X159573598Y-70655061D01*
X159521038Y-70660238D01*
X159521036Y-70660238D01*
X159521031Y-70660239D01*
X159406775Y-70690614D01*
X159107542Y-70807431D01*
X159098589Y-70807247D01*
X159096346Y-70805951D01*
X158760770Y-70558673D01*
X158756144Y-70551007D01*
X158758293Y-70542314D01*
X158760039Y-70540422D01*
X159198955Y-70159652D01*
X159207449Y-70156820D01*
X159215459Y-70160824D01*
G37*
%TD.AperFunction*%
%TD*%
%TA.AperFunction,Conductor*%
%TO.N,5V*%
G36*
X156506803Y-71509674D02*
G01*
X156507824Y-71510910D01*
X156745325Y-71842087D01*
X156747361Y-71850807D01*
X156744249Y-71857016D01*
X156327215Y-72290542D01*
X156319010Y-72294129D01*
X156310672Y-72290863D01*
X156309761Y-72289881D01*
X156270620Y-72242481D01*
X156270617Y-72242477D01*
X156235918Y-72213886D01*
X156219544Y-72200394D01*
X156219542Y-72200393D01*
X156219541Y-72200392D01*
X156165966Y-72171495D01*
X156165962Y-72171493D01*
X156165954Y-72171490D01*
X156110975Y-72153541D01*
X156001035Y-72141468D01*
X155929429Y-72144766D01*
X155898356Y-72146197D01*
X155898321Y-72146198D01*
X155837306Y-72149361D01*
X155828866Y-72146367D01*
X155825016Y-72138283D01*
X155825000Y-72137677D01*
X155825000Y-71563013D01*
X155828427Y-71554740D01*
X155836700Y-71551313D01*
X155837929Y-71551378D01*
X155995936Y-71568223D01*
X155995955Y-71568233D01*
X155995956Y-71568226D01*
X156221106Y-71592642D01*
X156354971Y-71584968D01*
X156443340Y-71553772D01*
X156490263Y-71509240D01*
X156498622Y-71506032D01*
X156506803Y-71509674D01*
G37*
%TD.AperFunction*%
%TD*%
%TA.AperFunction,Conductor*%
%TO.N,5V*%
G36*
X155477149Y-71371572D02*
G01*
X155695536Y-71457284D01*
X155933868Y-71528691D01*
X156032059Y-71544836D01*
X156106326Y-71548962D01*
X156113949Y-71549386D01*
X156122019Y-71553267D01*
X156125000Y-71561068D01*
X156125000Y-72138406D01*
X156121573Y-72146679D01*
X156114124Y-72150076D01*
X156093189Y-72151555D01*
X156017437Y-72156906D01*
X156017432Y-72156906D01*
X156017431Y-72156907D01*
X155914159Y-72175711D01*
X155914143Y-72175715D01*
X155719776Y-72234048D01*
X155477136Y-72328454D01*
X155468184Y-72328260D01*
X155465362Y-72326503D01*
X154909641Y-71858953D01*
X154905516Y-71851004D01*
X154908220Y-71842468D01*
X154909641Y-71841047D01*
X155465345Y-71373510D01*
X155473880Y-71370807D01*
X155477149Y-71371572D01*
G37*
%TD.AperFunction*%
%TD*%
%TA.AperFunction,Conductor*%
%TO.N,5V*%
G36*
X155058265Y-69407276D02*
G01*
X155529571Y-69879255D01*
X155732251Y-70082225D01*
X155735672Y-70090500D01*
X155732239Y-70098771D01*
X155724986Y-70102148D01*
X155690556Y-70105143D01*
X155690553Y-70105143D01*
X155637426Y-70119813D01*
X155584850Y-70146216D01*
X155538955Y-70181855D01*
X155538948Y-70181861D01*
X155491130Y-70236155D01*
X155451891Y-70299714D01*
X155410840Y-70396467D01*
X155382171Y-70499174D01*
X155356520Y-70664757D01*
X155356519Y-70664771D01*
X155350537Y-70788862D01*
X155346716Y-70796961D01*
X155338851Y-70799999D01*
X154761545Y-70799999D01*
X154753272Y-70796572D01*
X154749846Y-70788456D01*
X154749537Y-70765396D01*
X154749537Y-70765387D01*
X154730250Y-70562870D01*
X154714245Y-70499174D01*
X154686560Y-70388995D01*
X154686559Y-70388993D01*
X154686558Y-70388989D01*
X154625076Y-70259868D01*
X154549692Y-70171746D01*
X154549691Y-70171745D01*
X154459784Y-70118770D01*
X154459777Y-70118767D01*
X154407760Y-70104846D01*
X154407747Y-70104843D01*
X154375096Y-70102104D01*
X154367138Y-70097997D01*
X154364415Y-70089467D01*
X154367794Y-70082179D01*
X155041722Y-69407288D01*
X155049992Y-69403856D01*
X155058265Y-69407276D01*
G37*
%TD.AperFunction*%
%TD*%
%TA.AperFunction,Conductor*%
%TO.N,5V*%
G36*
X155346521Y-70853427D02*
G01*
X155349948Y-70861700D01*
X155349948Y-70861752D01*
X155349869Y-70879405D01*
X155354156Y-71021772D01*
X155382513Y-71161419D01*
X155444506Y-71292777D01*
X155490772Y-71357095D01*
X155490793Y-71357121D01*
X155541872Y-71413124D01*
X155544916Y-71421545D01*
X155541112Y-71429652D01*
X155540846Y-71429888D01*
X155058234Y-71843935D01*
X155049724Y-71846721D01*
X155042335Y-71843320D01*
X154565943Y-71365974D01*
X154562524Y-71357697D01*
X154565959Y-71349428D01*
X154572240Y-71346179D01*
X154621669Y-71337688D01*
X154674583Y-71303864D01*
X154711482Y-71253195D01*
X154735107Y-71190349D01*
X154742775Y-71130486D01*
X154753495Y-71046810D01*
X154753495Y-71046805D01*
X154753496Y-71046798D01*
X154751676Y-70910553D01*
X154750333Y-70862024D01*
X154753530Y-70853659D01*
X154761705Y-70850004D01*
X154762029Y-70850000D01*
X155338248Y-70850000D01*
X155346521Y-70853427D01*
G37*
%TD.AperFunction*%
%TD*%
%TA.AperFunction,Conductor*%
%TO.N,+24V*%
G36*
X167013179Y-65181078D02*
G01*
X167130812Y-65224719D01*
X167137376Y-65230809D01*
X167137711Y-65239758D01*
X167137604Y-65240037D01*
X167124501Y-65272763D01*
X167124500Y-65272766D01*
X167134101Y-65313859D01*
X167134101Y-65313861D01*
X167178444Y-65370128D01*
X167180874Y-65378747D01*
X167177528Y-65385643D01*
X166486951Y-66076220D01*
X166478678Y-66079647D01*
X166470405Y-66076220D01*
X166469808Y-66075577D01*
X166392952Y-65986223D01*
X166392435Y-65985577D01*
X166300218Y-65861636D01*
X166196072Y-65724636D01*
X166143998Y-65656135D01*
X165999375Y-65501133D01*
X165867167Y-65400738D01*
X165867163Y-65400736D01*
X165867158Y-65400733D01*
X165740056Y-65343808D01*
X165740055Y-65343807D01*
X165626663Y-65327176D01*
X165618975Y-65322585D01*
X165616785Y-65313902D01*
X165617545Y-65311139D01*
X165653191Y-65224719D01*
X165844990Y-64759724D01*
X165851312Y-64753384D01*
X165859873Y-64753218D01*
X167013179Y-65181078D01*
G37*
%TD.AperFunction*%
%TD*%
%TA.AperFunction,Conductor*%
%TO.N,+3.3V*%
G36*
X168491818Y-64823479D02*
G01*
X168495245Y-64831752D01*
X168494596Y-64835594D01*
X168470711Y-64904287D01*
X168470711Y-64904289D01*
X168497473Y-64942706D01*
X168497692Y-64943032D01*
X168512260Y-64965538D01*
X168523227Y-64971742D01*
X168523490Y-64971474D01*
X168531736Y-64967983D01*
X168540035Y-64971345D01*
X168542088Y-64974061D01*
X168707517Y-65276007D01*
X168708487Y-65284909D01*
X168702878Y-65291890D01*
X168699221Y-65293163D01*
X168593939Y-65311097D01*
X168585208Y-65309108D01*
X168583578Y-65307712D01*
X168458578Y-65178921D01*
X168330845Y-65047314D01*
X168328432Y-65043642D01*
X168300891Y-64977151D01*
X168300000Y-64972674D01*
X168300000Y-64831752D01*
X168303427Y-64823479D01*
X168311700Y-64820052D01*
X168483545Y-64820052D01*
X168491818Y-64823479D01*
G37*
%TD.AperFunction*%
%TD*%
%TA.AperFunction,Conductor*%
%TO.N,+3.3V*%
G36*
X172567716Y-65795903D02*
G01*
X172995783Y-65972264D01*
X173002127Y-65978584D01*
X173002411Y-65979338D01*
X173155514Y-66432587D01*
X173154915Y-66441521D01*
X173148173Y-66447416D01*
X173143130Y-66447959D01*
X173035420Y-66435925D01*
X172891597Y-66419857D01*
X172891595Y-66419857D01*
X172891594Y-66419857D01*
X172786913Y-66431312D01*
X172743776Y-66450779D01*
X172743767Y-66450784D01*
X172707367Y-66480020D01*
X172704518Y-66481707D01*
X172602151Y-66524109D01*
X172597674Y-66525000D01*
X172170025Y-66525000D01*
X172161752Y-66521573D01*
X172158325Y-66513300D01*
X172158325Y-66238331D01*
X172161752Y-66230058D01*
X172170025Y-66226631D01*
X172171536Y-66226729D01*
X172493934Y-66268934D01*
X172520487Y-66237846D01*
X172553132Y-66169331D01*
X172566330Y-66078783D01*
X172563985Y-65955456D01*
X172551600Y-65807697D01*
X172554324Y-65799168D01*
X172562282Y-65795062D01*
X172567716Y-65795903D01*
G37*
%TD.AperFunction*%
%TD*%
%TA.AperFunction,Conductor*%
%TO.N,+3.3V*%
G36*
X171794623Y-65946262D02*
G01*
X171961673Y-66027358D01*
X171962578Y-66027848D01*
X172100140Y-66110306D01*
X172100275Y-66110388D01*
X172157705Y-66145871D01*
X172277432Y-66206655D01*
X172365463Y-66223206D01*
X172372959Y-66228103D01*
X172375000Y-66234705D01*
X172375000Y-66514730D01*
X172371573Y-66523003D01*
X172364817Y-66526331D01*
X172308260Y-66533726D01*
X172242587Y-66557824D01*
X172100203Y-66639654D01*
X171989768Y-66706727D01*
X171988897Y-66707207D01*
X171794664Y-66803623D01*
X171785730Y-66804232D01*
X171780231Y-66800332D01*
X171707537Y-66706986D01*
X171454597Y-66382188D01*
X171452218Y-66373556D01*
X171454597Y-66367812D01*
X171780285Y-65949597D01*
X171788071Y-65945177D01*
X171794623Y-65946262D01*
G37*
%TD.AperFunction*%
%TD*%
%TA.AperFunction,Conductor*%
%TO.N,+3.3V*%
G36*
X170816621Y-65598983D02*
G01*
X170900978Y-65670857D01*
X171097146Y-65792007D01*
X171302136Y-65878066D01*
X171484806Y-65920933D01*
X171619425Y-65924544D01*
X171627602Y-65928192D01*
X171630806Y-65936554D01*
X171629928Y-65940697D01*
X171452735Y-66370783D01*
X171446415Y-66377127D01*
X171445661Y-66377411D01*
X170992091Y-66530622D01*
X170983157Y-66530023D01*
X170977262Y-66523281D01*
X170976699Y-66518435D01*
X170976704Y-66518374D01*
X170979747Y-66486213D01*
X170977166Y-66394870D01*
X170962343Y-66300707D01*
X170931633Y-66188796D01*
X170889519Y-66079320D01*
X170889517Y-66079315D01*
X170889511Y-66079302D01*
X170835627Y-65969390D01*
X170835621Y-65969379D01*
X170835620Y-65969378D01*
X170835616Y-65969369D01*
X170775951Y-65870221D01*
X170673487Y-65741572D01*
X170671014Y-65732967D01*
X170674366Y-65726012D01*
X170800762Y-65599616D01*
X170809034Y-65596190D01*
X170816621Y-65598983D01*
G37*
%TD.AperFunction*%
%TD*%
%TA.AperFunction,Conductor*%
%TO.N,+3.3V*%
G36*
X170999825Y-65539826D02*
G01*
X171006088Y-65546227D01*
X171006250Y-65546656D01*
X171041179Y-65644614D01*
X171041477Y-65645581D01*
X171063587Y-65730029D01*
X171063630Y-65730195D01*
X171072319Y-65765493D01*
X171111908Y-65869262D01*
X171111910Y-65869266D01*
X171151294Y-65927164D01*
X171153200Y-65929965D01*
X171210689Y-65993485D01*
X171213699Y-66001918D01*
X171210287Y-66009609D01*
X171084560Y-66135336D01*
X171076287Y-66138763D01*
X171068490Y-66135786D01*
X170997778Y-66072577D01*
X170997767Y-66072568D01*
X170931663Y-66030183D01*
X170931658Y-66030180D01*
X170870193Y-66005647D01*
X170870185Y-66005644D01*
X170805076Y-65988600D01*
X170778826Y-65982221D01*
X170777955Y-65981973D01*
X170622075Y-65931045D01*
X170615276Y-65925219D01*
X170614588Y-65916290D01*
X170614845Y-65915579D01*
X170720616Y-65652114D01*
X170726879Y-65645714D01*
X170727084Y-65645628D01*
X170990872Y-65539728D01*
X170999825Y-65539826D01*
G37*
%TD.AperFunction*%
%TD*%
%TA.AperFunction,Conductor*%
%TO.N,/USART1_TX*%
G36*
X169846222Y-73236091D02*
G01*
X169870809Y-73246209D01*
X169877156Y-73252527D01*
X169877177Y-73261481D01*
X169873147Y-73266557D01*
X169830580Y-73296892D01*
X169830305Y-73297082D01*
X169788842Y-73324877D01*
X169735930Y-73369551D01*
X169733388Y-73387549D01*
X169730076Y-73394186D01*
X169599043Y-73525219D01*
X169590770Y-73528646D01*
X169583201Y-73525868D01*
X169468964Y-73428959D01*
X169468963Y-73428958D01*
X169304020Y-73327015D01*
X169304018Y-73327014D01*
X169304019Y-73327014D01*
X169153613Y-73268228D01*
X169153614Y-73268228D01*
X169040621Y-73252121D01*
X169032914Y-73247561D01*
X169030689Y-73238887D01*
X169031447Y-73236098D01*
X169144844Y-72960119D01*
X169151158Y-72953770D01*
X169160111Y-72953745D01*
X169846222Y-73236091D01*
G37*
%TD.AperFunction*%
%TD*%
%TA.AperFunction,Conductor*%
%TO.N,/USART1_TX*%
G36*
X170664394Y-74322984D02*
G01*
X170664400Y-74322990D01*
X170670030Y-74328628D01*
X170670042Y-74328639D01*
X170756757Y-74411380D01*
X170756760Y-74411382D01*
X170756763Y-74411384D01*
X170836260Y-74459122D01*
X170836263Y-74459123D01*
X170910549Y-74472013D01*
X171001749Y-74468041D01*
X171010162Y-74471105D01*
X171013946Y-74479221D01*
X171013956Y-74479856D01*
X171010440Y-74805395D01*
X171006924Y-74813631D01*
X171006747Y-74813801D01*
X170840376Y-74969919D01*
X170831998Y-74973081D01*
X170823838Y-74969393D01*
X170823601Y-74969133D01*
X170765397Y-74903242D01*
X170764364Y-74901884D01*
X170721962Y-74836820D01*
X170720923Y-74834833D01*
X170673286Y-74717495D01*
X170673028Y-74716797D01*
X170672012Y-74713752D01*
X170664766Y-74692031D01*
X170664763Y-74692024D01*
X170614469Y-74580134D01*
X170614464Y-74580126D01*
X170609561Y-74573106D01*
X170573544Y-74521531D01*
X170528996Y-74472012D01*
X170522128Y-74464377D01*
X170519142Y-74455934D01*
X170522552Y-74448280D01*
X170647849Y-74322983D01*
X170656121Y-74319557D01*
X170664394Y-74322984D01*
G37*
%TD.AperFunction*%
%TD*%
%TA.AperFunction,Conductor*%
%TO.N,/USART1_RX*%
G36*
X171829501Y-73013446D02*
G01*
X171833116Y-73015650D01*
X171867924Y-73046764D01*
X171902220Y-73077422D01*
X171902231Y-73077431D01*
X171902233Y-73077432D01*
X171902246Y-73077441D01*
X171952644Y-73109754D01*
X171968255Y-73119764D01*
X171968423Y-73119873D01*
X171968849Y-73120021D01*
X172029354Y-73144171D01*
X172029494Y-73144234D01*
X172029548Y-73144254D01*
X172029826Y-73144366D01*
X172030098Y-73144429D01*
X172094897Y-73161392D01*
X172121000Y-73167735D01*
X172121373Y-73167833D01*
X172121848Y-73167969D01*
X172122226Y-73168085D01*
X172275713Y-73218231D01*
X172279687Y-73220465D01*
X172281041Y-73221625D01*
X172285095Y-73229608D01*
X172285206Y-73231044D01*
X172284398Y-73236300D01*
X172180250Y-73495723D01*
X172177756Y-73499546D01*
X172174836Y-73502531D01*
X172170831Y-73505207D01*
X171911285Y-73609404D01*
X171906801Y-73610245D01*
X171905022Y-73610226D01*
X171896786Y-73606711D01*
X171896781Y-73606706D01*
X171895687Y-73605587D01*
X171893033Y-73601337D01*
X171858904Y-73505621D01*
X171858749Y-73505157D01*
X171858585Y-73504624D01*
X171858456Y-73504169D01*
X171856245Y-73495723D01*
X171836392Y-73419897D01*
X171827681Y-73384512D01*
X171827680Y-73384509D01*
X171827679Y-73384505D01*
X171817206Y-73357055D01*
X171788096Y-73280751D01*
X171788088Y-73280731D01*
X171788087Y-73280730D01*
X171788086Y-73280729D01*
X171788085Y-73280726D01*
X171747234Y-73220671D01*
X171747229Y-73220661D01*
X171746993Y-73220317D01*
X171746807Y-73220043D01*
X171746804Y-73220039D01*
X171746802Y-73220037D01*
X171746801Y-73220035D01*
X171746800Y-73220033D01*
X171746796Y-73220028D01*
X171746729Y-73219952D01*
X171746704Y-73219923D01*
X171746630Y-73219846D01*
X171699728Y-73168025D01*
X171690870Y-73158238D01*
X171688529Y-73154326D01*
X171687871Y-73152482D01*
X171688194Y-73143808D01*
X171688830Y-73142376D01*
X171691247Y-73138854D01*
X171813796Y-73016305D01*
X171817585Y-73013773D01*
X171819414Y-73013015D01*
X171828065Y-73012898D01*
X171829501Y-73013446D01*
G37*
%TD.AperFunction*%
%TD*%
%TA.AperFunction,Conductor*%
%TO.N,/USART1_RX*%
G36*
X169911630Y-71413475D02*
G01*
X169911927Y-71413614D01*
X170024295Y-71468164D01*
X170025197Y-71468652D01*
X170116811Y-71523568D01*
X170220484Y-71582027D01*
X170290879Y-71597938D01*
X170298193Y-71603104D01*
X170300000Y-71609350D01*
X170300000Y-71789730D01*
X170296573Y-71798003D01*
X170289817Y-71801331D01*
X170255507Y-71805817D01*
X170211725Y-71821882D01*
X170116800Y-71876437D01*
X170068682Y-71906105D01*
X170067867Y-71906564D01*
X169912031Y-71986216D01*
X169903105Y-71986930D01*
X169902545Y-71986733D01*
X169384813Y-71789730D01*
X169177736Y-71710934D01*
X169171223Y-71704790D01*
X169170963Y-71695839D01*
X169177108Y-71689325D01*
X169177730Y-71689067D01*
X169902680Y-71413215D01*
X169911630Y-71413475D01*
G37*
%TD.AperFunction*%
%TD*%
%TA.AperFunction,Conductor*%
%TO.N,Net-(D3-A)*%
G36*
X177196982Y-69978427D02*
G01*
X177200402Y-69986283D01*
X177203868Y-70083483D01*
X177203869Y-70083490D01*
X177238402Y-70288338D01*
X177238402Y-70288342D01*
X177276428Y-70415159D01*
X177276433Y-70415173D01*
X177330283Y-70557072D01*
X177330014Y-70566023D01*
X177327883Y-70569222D01*
X176908539Y-71016884D01*
X176900382Y-71020579D01*
X176892001Y-71017424D01*
X176891461Y-71016884D01*
X176472118Y-70569224D01*
X176468963Y-70560843D01*
X176469718Y-70557075D01*
X176522930Y-70417037D01*
X176560773Y-70291558D01*
X176592597Y-70120966D01*
X176599437Y-69986107D01*
X176603279Y-69978018D01*
X176611122Y-69975000D01*
X177188709Y-69975000D01*
X177196982Y-69978427D01*
G37*
%TD.AperFunction*%
%TD*%
%TA.AperFunction,Conductor*%
%TO.N,Net-(D3-A)*%
G36*
X177341058Y-71027427D02*
G01*
X177344485Y-71035700D01*
X177343664Y-71040006D01*
X177317318Y-71106562D01*
X177317318Y-71106564D01*
X177296523Y-71196016D01*
X177283437Y-71389079D01*
X177296441Y-71590073D01*
X177296443Y-71590096D01*
X177321231Y-71785857D01*
X177334174Y-71882379D01*
X177334239Y-71882977D01*
X177348961Y-72062343D01*
X177346222Y-72070869D01*
X177338257Y-72074961D01*
X177337300Y-72075000D01*
X176762570Y-72075000D01*
X176754297Y-72071573D01*
X176750870Y-72063300D01*
X176750900Y-72062462D01*
X176755721Y-71995305D01*
X176755744Y-71995031D01*
X176759605Y-71954588D01*
X176761102Y-71825885D01*
X176737411Y-71731221D01*
X176686690Y-71660519D01*
X176648476Y-71632478D01*
X176648473Y-71632476D01*
X176613285Y-71616219D01*
X176607212Y-71609638D01*
X176607571Y-71600691D01*
X176608909Y-71598477D01*
X177046487Y-71028574D01*
X177054243Y-71024100D01*
X177055767Y-71024000D01*
X177332785Y-71024000D01*
X177341058Y-71027427D01*
G37*
%TD.AperFunction*%
%TD*%
%TA.AperFunction,Conductor*%
%TO.N,Net-(D3-A)*%
G36*
X175743765Y-67413980D02*
G01*
X175748670Y-67421473D01*
X175748840Y-67424535D01*
X175744433Y-67482404D01*
X175744433Y-67482407D01*
X175747696Y-67499293D01*
X175758272Y-67554033D01*
X175787835Y-67623552D01*
X175829444Y-67690338D01*
X175934085Y-67813194D01*
X176021751Y-67897385D01*
X176042784Y-67917584D01*
X176097351Y-67969261D01*
X176101002Y-67977438D01*
X176097801Y-67985801D01*
X176097579Y-67986029D01*
X175761002Y-68322606D01*
X175752729Y-68326033D01*
X175744456Y-68322606D01*
X175744259Y-68322405D01*
X175683527Y-68258680D01*
X175683471Y-68258620D01*
X175637610Y-68209815D01*
X175637600Y-68209805D01*
X175481357Y-68059744D01*
X175481352Y-68059739D01*
X175345453Y-67963539D01*
X175345446Y-67963536D01*
X175223362Y-67912476D01*
X175124786Y-67901692D01*
X175116934Y-67897385D01*
X175114427Y-67888789D01*
X175115237Y-67885612D01*
X175271879Y-67505154D01*
X175278197Y-67498810D01*
X175280517Y-67498115D01*
X175735000Y-67412151D01*
X175743765Y-67413980D01*
G37*
%TD.AperFunction*%
%TD*%
%TA.AperFunction,Conductor*%
%TO.N,Net-(D3-A)*%
G36*
X176907747Y-69130844D02*
G01*
X177290543Y-69469038D01*
X177294474Y-69477084D01*
X177291564Y-69485553D01*
X177290954Y-69486192D01*
X177254818Y-69521344D01*
X177222480Y-69567080D01*
X177188802Y-69661276D01*
X177183872Y-69754766D01*
X177183872Y-69754772D01*
X177192597Y-69842205D01*
X177192603Y-69842326D01*
X177192609Y-69842326D01*
X177198861Y-69912258D01*
X177196184Y-69920804D01*
X177188249Y-69924954D01*
X177187207Y-69925000D01*
X176612793Y-69925000D01*
X176604520Y-69921573D01*
X176601093Y-69913300D01*
X176601139Y-69912258D01*
X176607391Y-69842326D01*
X176615583Y-69764464D01*
X176610031Y-69655047D01*
X176574469Y-69561877D01*
X176543004Y-69518825D01*
X176509132Y-69486191D01*
X176505552Y-69477983D01*
X176508824Y-69469647D01*
X176509503Y-69468997D01*
X176892253Y-69130844D01*
X176900722Y-69127934D01*
X176907747Y-69130844D01*
G37*
%TD.AperFunction*%
%TD*%
%TA.AperFunction,Conductor*%
%TO.N,Net-(D3-A)*%
G36*
X176430543Y-68302393D02*
G01*
X176430726Y-68302579D01*
X176491473Y-68366320D01*
X176537391Y-68415187D01*
X176693647Y-68565261D01*
X176829546Y-68661461D01*
X176910941Y-68695503D01*
X176951636Y-68712523D01*
X176951639Y-68712524D01*
X177050212Y-68723307D01*
X177058064Y-68727614D01*
X177060571Y-68736210D01*
X177059759Y-68739392D01*
X176903121Y-69119843D01*
X176896802Y-69126189D01*
X176894476Y-69126885D01*
X176439999Y-69212847D01*
X176431234Y-69211018D01*
X176426329Y-69203525D01*
X176426159Y-69200463D01*
X176430566Y-69142594D01*
X176430566Y-69142591D01*
X176430566Y-69142589D01*
X176416728Y-69070967D01*
X176387165Y-69001448D01*
X176345556Y-68934662D01*
X176240914Y-68811805D01*
X176132235Y-68707434D01*
X176132206Y-68707406D01*
X176077648Y-68655738D01*
X176073997Y-68647561D01*
X176077198Y-68639198D01*
X176077383Y-68639008D01*
X176413998Y-68302392D01*
X176422270Y-68298966D01*
X176430543Y-68302393D01*
G37*
%TD.AperFunction*%
%TD*%
M02*
