M48
; DRILL file KiCad 10.0.5 date 2026-10-04T22:47:42
; FORMAT={-:-/ absolute / metric / decimal}
; #@! TF.CreationDate,2026-10-04T22:47:42+08:00
; #@! TF.GenerationSoftware,Kicad,Pcbnew,10.0.5
; #@! TF.FileFunction,Plated,1,2,PTH
FMAT,2
METRIC
; #@! TA.AperFunction,Plated,PTH,ViaDrill
T1C0.300
; #@! TA.AperFunction,Plated,PTH,ComponentDrill
T2C2.700
%
G90
G05
T1
X151.4Y-68.975
X151.4Y-69.625
X152.025Y-68.975
X152.025Y-69.6
X155.6Y-75.125
X155.6Y-75.775
X156.225Y-75.125
X156.225Y-75.75
X157.825Y-70.65
X157.825Y-71.325
X158.35Y-75.15
X158.35Y-75.8
X158.45Y-70.65
X158.45Y-71.3
X158.975Y-75.15
X158.975Y-75.775
X161.125Y-69.6
X169.475Y-66.05
X169.875Y-64.737
X169.876Y-74.43
X170.012Y-61.875
X170.702Y-74.396
X171.5Y-68.675
X172.157Y-68.671
X172.325Y-61.562
X173.0Y-64.825
X175.575Y-61.562
X176.15Y-65.912
X177.125Y-65.312
X177.875Y-61.712
X178.125Y-63.912
X182.225Y-66.425
X182.225Y-67.075
X182.325Y-70.05
X182.325Y-70.7
X182.85Y-66.425
X182.85Y-67.05
X182.95Y-70.05
X182.95Y-70.675
T2
X180.75Y-68.9
X180.75Y-73.9
M30
