M48
; DRILL file KiCad 10.0.5 date 2026-10-04T23:53:02
; FORMAT={-:-/ absolute / metric / decimal}
; #@! TF.CreationDate,2026-10-04T23:53:02+08:00
; #@! TF.GenerationSoftware,Kicad,Pcbnew,10.0.5
; #@! TF.FileFunction,Plated,1,2,PTH
FMAT,2
METRIC
; #@! TA.AperFunction,Plated,PTH,ViaDrill
T1C0.300
; #@! TA.AperFunction,Plated,PTH,ComponentDrill
T2C2.700
%
G90
G05
T1
X152.475Y-75.125
X152.475Y-75.775
X153.1Y-75.125
X153.1Y-75.75
X157.425Y-66.45
X158.2Y-75.2
X158.2Y-75.85
X158.825Y-75.2
X158.825Y-75.825
X160.325Y-75.275
X160.325Y-75.925
X160.95Y-75.275
X160.95Y-75.9
X161.4Y-69.3
X164.15Y-75.775
X164.15Y-76.425
X164.775Y-75.775
X164.775Y-76.4
X168.8Y-65.1
X169.875Y-64.737
X170.012Y-61.875
X170.725Y-65.65
X171.044Y-74.766
X172.175Y-73.5
X172.325Y-61.562
X173.0Y-64.825
X175.575Y-61.562
X176.15Y-65.912
X177.125Y-65.312
X177.875Y-61.712
X178.125Y-63.912
X182.225Y-66.425
X182.225Y-67.075
X182.325Y-70.05
X182.325Y-70.7
X182.85Y-66.425
X182.85Y-67.05
X182.95Y-70.05
X182.95Y-70.675
T2
X180.75Y-68.9
X180.75Y-73.9
M30
