M48
; DRILL file KiCad 10.0.5 date 2026-09-30T20:25:57
; FORMAT={-:-/ absolute / metric / decimal}
; #@! TF.CreationDate,2026-09-30T20:25:57+08:00
; #@! TF.GenerationSoftware,Kicad,Pcbnew,10.0.5
; #@! TF.FileFunction,Plated,1,2,PTH
FMAT,2
METRIC
; #@! TA.AperFunction,Plated,PTH,ViaDrill
T1C0.300
; #@! TA.AperFunction,Plated,PTH,ComponentDrill
T2C2.700
%
G90
G05
T1
X98.7Y-47.0
X98.7Y-47.65
X98.775Y-44.3
X98.775Y-44.95
X99.282Y-54.237
X99.325Y-47.0
X99.325Y-47.625
X99.4Y-44.3
X99.4Y-44.925
X99.425Y-41.65
X99.425Y-42.3
X99.532Y-56.437
X99.6Y-50.325
X99.6Y-50.975
X100.05Y-41.65
X100.05Y-42.275
X100.225Y-50.325
X100.225Y-50.95
X100.282Y-52.837
X100.45Y-34.075
X100.45Y-34.725
X101.075Y-34.075
X101.075Y-34.7
X101.257Y-52.237
X101.832Y-56.587
X102.3Y-57.65
X102.3Y-58.3
X102.925Y-57.65
X102.925Y-58.275
X102.975Y-31.575
X102.975Y-32.225
X103.6Y-31.575
X103.6Y-32.2
X104.415Y-52.962
X104.475Y-49.025
X105.082Y-56.587
X105.6Y-57.875
X105.6Y-58.525
X105.932Y-51.587
X106.119Y-33.475
X106.225Y-57.875
X106.225Y-58.5
X106.998Y-52.022
X107.395Y-56.275
X107.532Y-53.412
X108.775Y-57.5
X108.775Y-58.15
X109.4Y-57.5
X109.4Y-58.125
X110.85Y-32.3
X110.85Y-32.95
X111.475Y-32.3
X111.475Y-32.925
X112.625Y-45.525
X113.85Y-45.525
X115.125Y-45.55
X116.3Y-45.6
X120.75Y-43.825
X120.75Y-44.475
X121.375Y-43.825
X121.375Y-44.45
X124.175Y-41.325
X124.175Y-41.975
X124.3Y-43.675
X124.3Y-44.325
X124.8Y-41.325
X124.8Y-41.95
X124.925Y-43.675
X124.925Y-44.3
X125.875Y-32.75
X125.875Y-33.4
X126.5Y-32.75
X126.5Y-33.375
X127.4Y-37.9
X127.4Y-38.55
X127.5Y-35.675
X127.5Y-36.325
X127.6Y-43.6
X127.6Y-44.25
X127.65Y-50.375
X127.65Y-51.025
X128.025Y-37.9
X128.025Y-38.525
X128.125Y-35.675
X128.125Y-36.3
X128.225Y-43.6
X128.225Y-44.225
X128.275Y-50.375
X128.275Y-51.0
T2
X120.6Y-48.025
X125.6Y-48.025
M30
