M48
; DRILL file KiCad 10.0.5 date 2026-10-04T17:43:25
; FORMAT={-:-/ absolute / metric / decimal}
; #@! TF.CreationDate,2026-10-04T17:43:25+08:00
; #@! TF.GenerationSoftware,Kicad,Pcbnew,10.0.5
; #@! TF.FileFunction,Plated,1,2,PTH
FMAT,2
METRIC
; #@! TA.AperFunction,Plated,PTH,ViaDrill
T1C0.300
; #@! TA.AperFunction,Plated,PTH,ComponentDrill
T2C2.700
%
G90
G05
T1
X151.65Y-68.125
X151.65Y-68.775
X152.175Y-63.625
X152.175Y-64.275
X152.275Y-68.125
X152.275Y-68.75
X152.8Y-63.625
X152.8Y-64.25
X154.85Y-65.925
X154.85Y-66.575
X155.475Y-65.925
X155.475Y-66.55
X155.85Y-61.325
X155.85Y-61.975
X156.475Y-61.325
X156.475Y-61.95
X161.137Y-67.4
X161.3Y-69.4
X169.475Y-66.05
X169.875Y-64.737
X169.876Y-74.43
X170.012Y-61.875
X171.044Y-74.766
X171.5Y-68.675
X172.157Y-68.671
X172.325Y-61.562
X173.0Y-64.825
X175.575Y-61.562
X176.15Y-65.912
X177.125Y-65.312
X177.875Y-61.712
X178.125Y-63.912
X182.225Y-66.425
X182.225Y-67.075
X182.325Y-70.05
X182.325Y-70.7
X182.85Y-66.425
X182.85Y-67.05
X182.95Y-70.05
X182.95Y-70.675
T2
X180.75Y-68.9
X180.75Y-73.9
M30
