M48
; DRILL file KiCad 10.0.5 date 2026-10-05T16:37:15
; FORMAT={-:-/ absolute / metric / decimal}
; #@! TF.CreationDate,2026-10-05T16:37:15+08:00
; #@! TF.GenerationSoftware,Kicad,Pcbnew,10.0.5
; #@! TF.FileFunction,Plated,1,2,PTH
FMAT,2
METRIC
; #@! TA.AperFunction,Plated,PTH,ViaDrill
T1C0.300
; #@! TA.AperFunction,Plated,PTH,ComponentDrill
T2C2.700
%
G90
G05
T1
X151.275Y-71.35
X151.275Y-72.0
X151.35Y-67.725
X151.35Y-68.375
X151.9Y-71.35
X151.9Y-71.975
X151.975Y-67.725
X151.975Y-68.35
X152.45Y-62.55
X152.45Y-63.2
X152.475Y-75.125
X152.475Y-75.775
X153.075Y-62.55
X153.075Y-63.175
X153.1Y-75.125
X153.1Y-75.75
X154.9Y-73.75
X155.6Y-75.8
X155.6Y-76.45
X156.225Y-75.8
X156.225Y-76.425
X156.55Y-61.4
X156.55Y-62.05
X157.175Y-61.4
X157.175Y-62.025
X161.15Y-69.3
X161.35Y-68.35
X161.85Y-62.224
X161.9Y-75.825
X161.9Y-76.475
X162.262Y-65.787
X162.325Y-70.55
X162.525Y-75.825
X162.525Y-76.45
X163.275Y-69.525
X164.15Y-75.775
X164.15Y-76.425
X164.775Y-75.775
X164.775Y-76.4
X164.825Y-68.725
X166.935Y-62.965
X168.8Y-62.4
X168.8Y-65.1
X169.875Y-64.737
X170.012Y-61.875
X170.725Y-65.65
X171.044Y-74.766
X172.175Y-73.5
X172.325Y-61.562
X173.0Y-64.825
X175.575Y-61.562
X176.15Y-65.912
X177.125Y-65.312
X177.875Y-61.712
X178.125Y-63.912
X182.225Y-66.425
X182.225Y-67.075
X182.325Y-70.05
X182.325Y-70.7
X182.85Y-66.425
X182.85Y-67.05
X182.95Y-70.05
X182.95Y-70.675
T2
X180.75Y-68.9
X180.75Y-73.9
M30
