M48
; DRILL file KiCad 10.0.5 date 2026-10-03T21:50:04
; FORMAT={-:-/ absolute / metric / decimal}
; #@! TF.CreationDate,2026-10-03T21:50:04+08:00
; #@! TF.GenerationSoftware,Kicad,Pcbnew,10.0.5
; #@! TF.FileFunction,Plated,1,2,PTH
FMAT,2
METRIC
; #@! TA.AperFunction,Plated,PTH,ViaDrill
T1C0.300
; #@! TA.AperFunction,Plated,PTH,ComponentDrill
T2C2.700
%
G90
G05
T1
X150.425Y-77.875
X150.425Y-78.525
X150.45Y-74.15
X150.45Y-74.8
X150.5Y-68.375
X150.5Y-69.025
X150.575Y-63.775
X150.575Y-64.425
X151.05Y-77.875
X151.05Y-78.5
X151.075Y-74.15
X151.075Y-74.775
X151.125Y-68.375
X151.125Y-69.0
X151.2Y-63.775
X151.2Y-64.4
X151.75Y-70.725
X151.75Y-71.375
X152.375Y-70.725
X152.375Y-71.35
X153.975Y-78.2
X153.975Y-78.85
X154.6Y-78.2
X154.6Y-78.825
X156.0Y-68.388
X156.475Y-75.6
X157.107Y-66.775
X164.275Y-78.275
X164.275Y-78.925
X164.9Y-78.275
X164.9Y-78.9
X169.875Y-64.737
X170.012Y-61.875
X170.032Y-68.769
X170.225Y-69.9
X170.375Y-66.075
X171.975Y-78.225
X171.975Y-78.875
X172.325Y-61.562
X172.6Y-78.225
X172.6Y-78.85
X172.992Y-65.188
X175.575Y-61.562
X175.6Y-78.225
X175.6Y-78.875
X176.15Y-65.912
X176.225Y-78.225
X176.225Y-78.85
X177.125Y-65.312
X177.875Y-61.712
X178.125Y-63.912
X182.05Y-63.375
X182.05Y-64.025
X182.35Y-75.1
X182.35Y-75.75
X182.675Y-63.375
X182.675Y-64.0
X182.975Y-75.1
X182.975Y-75.725
T2
X180.475Y-71.975
X180.475Y-76.975
M30
